<?xml version="1.0" encoding="utf-8"?>
<!-- Generator: Adobe Illustrator 19.2.1, SVG Export Plug-In . SVG Version: 6.00 Build 0)  -->
<svg version="1.1" id="Layer_1" xmlns="http://www.w3.org/2000/svg" xmlns:xlink="http://www.w3.org/1999/xlink" x="0px" y="0px"
	 viewBox="0 0 179.7 79.8" style="enable-background:new 0 0 179.7 79.8;" xml:space="preserve">
<style type="text/css">
	.st0{fill:#FFFFFF;}
</style>
<g>
	<g>
		<g>
			<g>
				<path class="st0" d="M175.7,28.6c-0.7,0-1.2-0.5-1.2-1.2c0-0.7,0.5-1.2,1.2-1.2c0.7,0,1.2,0.5,1.2,1.2
					C176.9,28.1,176.4,28.6,175.7,28.6z M175.7,26.5c-0.5,0-1,0.4-1,1c0,0.5,0.4,1,1,1c0.5,0,1-0.4,1-1
					C176.7,26.9,176.2,26.5,175.7,26.5z"/>
			</g>
		</g>
		<g>
			<path class="st0" d="M176.2,28H176l-0.2-0.5h-0.3V28h-0.2v-1.2h0.5c0.1,0,0.2,0,0.3,0.1s0.1,0.1,0.1,0.3c0,0.2-0.1,0.3-0.2,0.3
				L176.2,28z M175.5,27.4h0.3c0.1,0,0.1,0,0.2,0c0,0,0.1-0.1,0.1-0.1c0-0.1,0-0.1-0.1-0.1s-0.1,0-0.2,0h-0.3V27.4z"/>
		</g>
	</g>
	<g>
		<path class="st0" d="M33.5,26.3h15.8v4.6h-10v7h7.7v4.6h-7.7V53h-5.9V26.3z"/>
	</g>
	<g>
		<path class="st0" d="M51.4,26.3h8.4c1.6,0,2.9,0.1,3.7,0.2c0.9,0.2,1.7,0.6,2.6,1.2c0.9,0.7,1.6,1.6,2.1,2.7
			c0.5,1.1,0.8,2.4,0.8,3.8c0,3.3-1.3,5.7-3.8,7L70.1,53h-6.4l-3.6-10.6h-2.9V53h-5.9V26.3z M57.2,30.6v7.5h2.6
			c2.3,0,3.4-1.3,3.4-3.9c0-0.9-0.2-1.6-0.5-2.2c-0.3-0.6-0.7-1-1.2-1.2c-0.4-0.2-1.1-0.3-2-0.3H57.2z"/>
	</g>
	<g>
		<path class="st0" d="M92.1,26.3h6.5l6.9,16.6V26.3h4.5V53h-5.2l-8.1-19.3V53h-4.5V26.3z"/>
	</g>
	<g>
		<path class="st0" d="M112.1,26.3h16.6v5h-5.5V53h-5.9V31.3h-5.3V26.3z"/>
	</g>
	<g>
		<path class="st0" d="M130.6,26.3h5.9V53h-5.9V26.3z"/>
	</g>
	<g>
		<path class="st0" d="M138.4,26.3h16.2v4.6h-10.4v6.2h8.1v4.6h-8.1v6.6h10.4V53h-16.2V26.3z"/>
	</g>
	<g>
		<path class="st0" d="M156.7,26.3h8.4c1.6,0,2.9,0.1,3.7,0.2c0.9,0.2,1.7,0.6,2.6,1.2c0.9,0.7,1.6,1.6,2.1,2.7
			c0.5,1.1,0.8,2.4,0.8,3.8c0,3.3-1.3,5.7-3.8,7l4.9,11.7H169l-3.6-10.6h-2.9V53h-5.9V26.3z M162.5,30.6v7.5h2.6
			c2.3,0,3.4-1.3,3.4-3.9c0-0.9-0.2-1.6-0.5-2.2c-0.3-0.6-0.7-1-1.2-1.2c-0.4-0.2-1.1-0.3-2-0.3H162.5z"/>
	</g>
	<g>
		<path class="st0" d="M90.1,39.6c0,9.2-3.2,13.8-9.7,13.8c-3.2,0-5.6-1.2-7.3-3.5c-1.6-2.3-2.4-5.8-2.4-10.3
			c0-9.2,3.2-13.7,9.7-13.7c3.2,0,5.6,1.1,7.2,3.4C89.3,31.6,90.1,35.1,90.1,39.6z M84,39.6c0-3.6-0.3-6-0.8-7.2s-1.5-1.8-2.7-1.8
			c-1.2,0-2.1,0.6-2.7,1.8c-0.6,1.2-0.8,3.6-0.8,7.2c0,3.5,0.3,5.9,0.8,7.1c0.6,1.2,1.4,1.9,2.7,1.9c1.2,0,2.1-0.6,2.7-1.8
			C83.7,45.7,84,43.2,84,39.6z"/>
	</g>
	<path class="st0" d="M44.1,3.1C23.7,0.8,5.4,15.4,3.1,35.7s12.3,38.7,32.6,41C56,79,74.4,64.4,76.7,44.1C79,23.7,64.4,5.4,44.1,3.1
		z M11.3,53.6c-2.6-5.4-3.8-11.7-3.1-18.1C10.3,17.3,26.6,4.3,44.8,6.3c3.7,0.4,7.2,1.4,10.4,2.9C26.6,8.7,10.5,32.8,11.3,53.6z
		 M73.9,42.9c-2.1,18.1-18.4,31.2-36.6,29.1c-4.2-0.5-8.1-1.7-11.6-3.6c-15-10.4-10.5-31.2-2.2-42.4c11.2-13,35-18.5,45.5-4.7
		C72.9,27.6,74.8,35.1,73.9,42.9z"/>
</g>
</svg>
