<svg width="870" height="640" clip-rule="evenodd" fill-rule="evenodd" image-rendering="optimizeQuality" shape-rendering="geometricPrecision" text-rendering="geometricPrecision" version="1.1" viewBox="0 0 870 640" xml:space="preserve" xmlns="http://www.w3.org/2000/svg">
<g transform="translate(1386)"  fill="none"  ><path d="m-1168 163.1c-22.22 0.2333-36.77 18.8-52.64 45.13-15.29 25.35-32.02 57.04-38.68 69.25l-63.04 189.3-28.48 45.38 0.01 13.87 42.73 4.236 35.86 1.17 6.531-0.0547 0.1074 16.43 31.84 7.033 6.473-13.68-0.092-7.479 59.39 0.2656 59.39-0.2656-0.092 7.479 6.473 13.68 31.84-7.033 0.1074-16.43 6.531 0.0547 35.86-1.17 42.73-4.236 8e-3 -13.87-28.48-45.38-63.04-189.3c-6.667-12.21-23.4-43.9-38.68-69.25-15.88-26.32-30.42-44.89-52.64-45.13z"  stroke-width="1.764"/><g stroke-width="1.764"><path d="m-1258 549.2 0.5443-30 15.45-47.76-7.097-0.3106-16.26 47.54-0.091 12.66" /><path d="m-1242 471.5 7.775 23.42 0.1689 30.37 2.504 4.854 4.428 3.554" /><path d="m-1271 313.2c7.059-11.72 11.17-26.26 25.56-19.57-15.02 53.17-18.72 108.8-21.98 164.6l-0.1823 72.49" /></g><g stroke-width="1.235"><path d="m-1264 301 10.03 3.228c-14.87 75.8-21.25 151.6-17.26 227.4" /><path d="m-1287 359.6 23.56-0.6434" /><path d="m-1311 432.5 10.72 0.3736 29.84 3.483" /><path d="m-1317 451.8 12.06 2.435 5.588-1.593 9.025-0.4892 9.664 10.97 0.1838 68.13" /><path d="m-1259 277.5 29.45-0.0729" /><path d="m-1245 293.6c4.32-6.393 9.173-12.19 15.6-16.24 5.529-24.21 11.84-48.08 20.65-70.89 14.97-32.13 31.54-30.95 41.23-30.99" /><ellipse transform="matrix(.8725 .4886 -.4882 .8727 0 0)" cx="-954.4" cy="843.2" rx="4.434" ry="5.308" /></g><ellipse transform="matrix(.9951 .09881 -.1669 .986 0 0)" cx="-1172" cy="460.4" rx="4.899" ry="5.38"  stroke-width="1.236"/><ellipse transform="matrix(.9999 .01049 -.01576 .9999 0 0)" cx="-1179" cy="241.4" rx="5.042" ry="5.122"  stroke-width="1.235"/><ellipse transform="matrix(.7741 .6331 -.6349 .7726 0 0)" cx="-752.9" cy="984.4" rx="8.106" ry="9.216"  stroke-width="1.235"/><ellipse transform="matrix(.7743 .6328 -.6351 .7724 0 0)" cx="-751.1" cy="984.5" rx="14.15" ry="16.09"  stroke-width="1.235"/><ellipse transform="matrix(.9999 .01049 -.01577 .9999 0 0)" cx="-1189" cy="429.5" rx="7.884" ry="8.004"  stroke-width="1.235"/><ellipse transform="matrix(.9999 .01049 -.01577 .9999 0 0)" cx="-1189" cy="463.3" rx="7.884" ry="8.004"  stroke-width="1.235"/><ellipse transform="matrix(.9999 .01048 -.01577 .9999 0 0)" cx="-1162" cy="365.2" rx="12.48" ry="12.67"  stroke-width="1.235"/><g stroke-width="1.235"><path d="m-1186 533.6 0.1683-143.4c-0.2993-3.131-2.238-4.622-3.883-6.407l-0.081-30.59c0.2095-10.19 8.09-20.2 21.57-20.32" /><path d="m-1232 530.1 6.978-0.6221 3.662-21.29-0.1592-12.71c-25.96-55.51-37.62-20.36-31.88-14.62" /><path d="m-1234 525.3 5.339 0.0684 3.354-17.42-0.3474-11.41c-3.364-7.79-9.056-17.97-16.29-25.02" /><path d="m-1217 533.6 6.484-23.97 1.407-137.9-4.846-21.54-4.039-0.9408-13.96 1.557c-12.03 12.56-14.67 19.47-18.67 31.82l-4.379 92.05" /><path d="m-1238 357.8-0.8011 9.829-4.35 1.36-1.559 16.9 13.13-0.3679c4.676-12.85 10.43-24.8 17.93-35.3" /><path d="m-1218 349.3c-8.114 11.18-14.18 23.38-19 36.21" /><path d="m-1237 385.5 0.8888-16.74 7.862-3.324" /><path d="m-1231 366.7 0.1404-9.041 13.25-8.364" /><path d="m-1238 357.8 7.066-0.1514" /><path d="m-1243 369 7.357-0.2379" /><path d="m-1245 385.9-1.78 0.0175c0.3806-4.143 1.807-7.822 2.87-11.66" /><path d="m-1241 368.4c1.016-2.06 2.044-4.113 3.318-5.991" /><path d="m-1177 209.3c-8.471 3.35-15.23 9.134-15.29 19.54l-0.7169 33.21 9.384 9.679-0.1623 19.71-8.282 16.53-0.5992 101.6m-0.093 14.76-0.1198 19m-0.094 14.85-0.087 14.14-1.745 61.37" /><path d="m-1214 350.2-0.1075-42.37-7.063-15.3" /><path d="m-1215 273.4 6.307-10.82 0.4802-41.51c3.96-35.28 33.87-36.17 40.12-36.15" /><path d="m-1188 189.3 4.053 0.952c4.443-0.6589 8.654-1.334 15.76-1.158" /><path d="m-1168 211-7.776-0.0313-4.447-4.569 2.773-15.36 9.45-0.0407" /><path d="m-1308 530.3 2.966-76.06" /><path d="m-1238 357.8 4.756-20.19c-1.266-14.81-6.852-26.22-14.43-36.05" /><path d="m-1233 337.6 19.56-1.097" /></g><path d="m-1240 553.5 2.591 3.807 23.64 0.0697 2.891-3.687 1.355-11.87 3.069-9e-3v-4.204l17.44 3e-3 -0.07-3.437"  stroke-width="1.764"/><g stroke-width="1.235"><path d="m-1227 537.7 20.51-0.1526" /><path d="m-1228 541.9 17.93-0.1526" /><path d="m-1231 548.1 20.51-0.1526" /><path d="m-1168 175.5c-9.354-0.0219-22.55 1.242-37.68 29.22l0.3579 3.345" /></g><g stroke-width="1.764"><path d="m-1078 549.2-0.5443-30-15.45-47.76 7.097-0.3106 16.26 47.54 0.091 12.66" /><path d="m-1094 471.5-7.775 23.42-0.169 30.37-2.504 4.854-4.428 3.554" /><path d="m-1065 313.2c-7.059-11.72-11.17-26.26-25.56-19.57 15.02 53.17 18.72 108.8 21.98 164.6l0.1823 72.49" /></g><g stroke-width="1.235"><path d="m-1072 301-10.03 3.228c14.87 75.8 21.25 151.6 17.26 227.4" /><path d="m-1049 359.6-23.56-0.6434" /><path d="m-1025 432.5-10.72 0.3736-29.84 3.483" /><path d="m-1019 451.8-12.06 2.435-5.588-1.593-9.025-0.4892-9.664 10.97-0.1838 68.13" /><path d="m-1077 277.5-29.45-0.0729" /><path d="m-1091 293.6c-4.32-6.393-9.173-12.19-15.6-16.24-5.529-24.21-11.84-48.08-20.65-70.89-14.97-32.13-31.54-30.95-41.23-30.99" /><ellipse transform="matrix(-.8725 .4886 .4882 .8727 0 0)" cx="1084" cy="-298.2" rx="4.434" ry="5.308" /></g><ellipse transform="matrix(-.9951 .09881 .1669 .986 0 0)" cx="1137" cy="229" rx="4.899" ry="5.38"  stroke-width="1.236"/><ellipse transform="matrix(-.9999 .01049 .01576 .9999 0 0)" cx="1157" cy="216.9" rx="5.042" ry="5.122"  stroke-width="1.235"/><ellipse transform="matrix(-.7741 .6331 .6349 .7726 0 0)" cx="1052" cy="-494.5" rx="8.106" ry="9.216"  stroke-width="1.235"/><ellipse transform="matrix(-.7743 .6328 .6351 .7724 0 0)" cx="1053" cy="-493.8" rx="14.15" ry="16.09"  stroke-width="1.235"/><ellipse transform="matrix(-.9999 .01049 .01577 .9999 0 0)" cx="1146" cy="405" rx="7.884" ry="8.004"  stroke-width="1.235"/><ellipse transform="matrix(-.9999 .01049 .01577 .9999 0 0)" cx="1147" cy="438.8" rx="7.884" ry="8.004"  stroke-width="1.235"/><g stroke-width="1.235"><path d="m-1150 533.6-0.1683-143.4c0.2993-3.131 2.238-4.622 3.883-6.407l0.081-30.59c-0.2095-10.19-8.09-20.2-21.57-20.32" /><path d="m-1104 530.1-6.978-0.6221-3.662-21.29 0.1592-12.71c25.96-55.51 37.62-20.36 31.88-14.62" /><path d="m-1102 525.3-5.339 0.0684-3.354-17.42 0.3474-11.41c3.364-7.79 9.056-17.97 16.29-25.02" /><path d="m-1119 533.6-6.484-23.97-1.407-137.9 4.846-21.54 4.039-0.9408 13.96 1.557c12.03 12.56 14.67 19.47 18.67 31.82l4.379 92.05" /><path d="m-1098 357.8 0.8011 9.829 4.35 1.36 1.559 16.9-13.13-0.3679c-4.676-12.85-10.43-24.8-17.93-35.3" /><path d="m-1118 349.3c8.114 11.18 14.18 23.38 19 36.21" /><path d="m-1099 385.5-0.8888-16.74-7.862-3.324" /><path d="m-1105 366.7-0.1404-9.041-13.25-8.364" /><path d="m-1098 357.8-7.066-0.1514" /><path d="m-1093 369-7.357-0.2379" /><path d="m-1091 385.9 1.78 0.0175c-0.3806-4.143-1.807-7.822-2.87-11.66" /><path d="m-1095 368.4c-1.016-2.06-2.044-4.113-3.318-5.991" /><path d="m-1159 209.3c8.471 3.35 15.23 9.134 15.29 19.54l0.7169 33.21-9.384 9.679 0.1623 19.71 8.282 16.53 0.5992 101.6m0.093 14.76 0.1198 19m0.094 14.85 0.087 14.14 1.745 61.37" /><path d="m-1122 350.2 0.1075-42.37 7.063-15.3" /><path d="m-1121 273.4-6.307-10.82-0.4802-41.51c-3.96-35.28-33.87-36.17-40.12-36.15" /><path d="m-1148 189.3-4.053 0.952c-4.443-0.6589-8.654-1.334-15.76-1.158" /><path d="m-1168 211 7.777-0.0313 4.447-4.569-2.773-15.36-9.45-0.0407" /><path d="m-1028 530.3-2.966-76.06" /><path d="m-1098 357.8-4.756-20.19c1.266-14.81 6.852-26.22 14.43-36.05" /><path d="m-1103 337.6-19.56-1.097" /></g><path d="m-1096 553.5-2.591 3.807-23.64 0.0697-2.891-3.687-1.355-11.87-3.069-9e-3v-4.204l-17.44 3e-3 0.07-3.437"  stroke-width="1.764"/><g stroke-width="1.235"><path d="m-1109 537.7-20.51-0.1526" /><path d="m-1108 541.9-17.93-0.1526" /><path d="m-1105 548.1-20.51-0.1526" /><path d="m-1168 175.5c9.354-0.0219 22.55 1.242 37.68 29.22l-0.3579 3.345" /></g><path d="m-1254 484.6c-2.083-0.0723-3.944-1.663-4.474-4.041-0.6454-2.9 0.9345-5.874 3.529-6.642"  stroke-width="1.235"/><path d="m-1082 484.6c2.083-0.0723 3.944-1.663 4.474-4.041 0.6454-2.9-0.9345-5.874-3.529-6.642"  stroke-width="1.235"/><g stroke-width="1.235"><path d="m-1186 393.7 36.03 0.0271" /><path d="m-1186 416.5 36.03 0.0271" /><path d="m-1184 291.5h32.25" /><path d="m-1184 271.8h32.25" /><path d="m-1154 483.8h-28.39v46.67h28.39z" /><path d="m-1160 214.3h-15.31v8.31h15.31z" /></g></g><g transform="translate(1386)"  fill="none"  ><path d="m-732 163.1c-22.22 0.2333-36.77 18.8-52.64 45.13-15.29 25.35-32.02 57.04-38.68 69.25l-63.04 189.3-28.48 45.38 8e-3 13.87 42.73 4.236 35.86 1.17 104.2 0.1406 104.2-0.1406 35.86-1.17 42.73-4.236 8e-3 -13.87-28.48-45.38-63.04-189.3c-6.667-12.21-23.4-43.9-38.68-69.25-15.88-26.32-30.42-44.89-52.64-45.13z"  stroke-width="1.764"/><path d="m-813.7 531.6 1.477 7.914 6.615 4.266 1.32 7.304 3.054 3.761 23.64 0.0697 2.891-3.687 1.355-11.87 3.069-9e-3v-4.204l17.44 3e-3 -0.07-3.437"  stroke-width="1.764"/><g stroke-width="1.235"><path d="m-813.1 535.3 42.82-0.1526" /><path d="m-812.2 539.6 38.87-0.1526" /><path d="m-805.3 545.7 31.07-0.1526" /><path d="m-810.4 395.6-19.42 0.1138-3.681 24.15-0.089 52.87c0.2301 10.19 8.885 20.2 23.7 20.32" /><path d="m-810.4 395.6 20.44 0.1138 3.681 24.15 0.089 52.87c-0.2301 10.19-8.885 20.2-23.7 20.32" /></g><g stroke-width="1.235"><ellipse transform="matrix(.9999 .01048 -.01578 .9999 0 0)" cx="-801.9" cy="477.7" rx="16.63" ry="16.88" /><ellipse transform="matrix(.9999 .01048 -.01577 .9999 0 0)" cx="-786.7" cy="308.9" rx="9.778" ry="9.925" /><ellipse transform="matrix(.9999 .01048 -.01578 .9999 0 0)" cx="-786.7" cy="308.9" rx="16.23" ry="16.47" /></g><g stroke-width="1.235"><path d="m-825.8 469.3 32.84-0.181" /><path d="m-801.3 300.6 19.81-0.181" /><path d="m-833.5 419.9h47.21" /><path d="m-810.2 452.5 0.0913-32.56" /><path d="m-872.1 530.3 3.416-77.39-12.64-1.207" /><path d="m-870.9 506.1 60.57 0.1841-0.199 25.01" /><path d="m-870.9 506.1 10.08-11.61 54.54-214 44.38-90.17 9.712-15.56 11.24-10.62" /><path d="m-858.1 380.3 26.85-0.181" /><path d="m-815.5 263.5 9.188 16.98" /><path d="m-783.9 206.7 11.34 5.444" /></g><g stroke-width="1.235"><ellipse transform="matrix(.9999 .01049 -.01576 .9999 0 0)" cx="-744.7" cy="195" rx="5.042" ry="5.122" /><ellipse transform="matrix(.9999 .01049 -.01576 .9999 0 0)" cx="-759.2" cy="257.2" rx="5.042" ry="5.122" /><ellipse transform="matrix(.9999 .01049 -.01576 .9999 0 0)" cx="-810.3" cy="376.8" rx="5.042" ry="5.122" /><ellipse transform="matrix(.9999 .01049 -.01576 .9999 0 0)" cx="-854.1" cy="469.7" rx="5.042" ry="5.122" /></g><path d="m-773 495.4h13.81v13.25h-13.81z"  stroke-width="1.235"/><path d="m-754.7 489.7h4.064v24.63h-4.064z"  stroke-width="1.235"/><path d="m-771.1 239h17.7v70.35l-28.76 49.7-19.49 0.0678 5.42-33.72c30.63-2.244 37.65-38.44 7.627-47.69z"  stroke-width="1.235"/><ellipse transform="matrix(.9999 .01048 -.01577 .9999 0 0)" cx="-728.6" cy="218.6" rx="9.778" ry="9.925"  stroke-width="1.235"/><path d="m-741.8 210.9 19.81-0.181"  stroke-width="1.235"/><g stroke-width="1.235"><path d="m-807.7 498h13.81v30.38h-13.81z" /><path d="m-849 486h13.19l-0.125 20.25h-13.81z" /><path d="m-844.3 445.5h8.939l-0.125 35.63h-13.81z" /><path d="m-838.9 420.4 3.564 0.125-0.125 22.88h-7.939z" /><path d="m-755 405-0.125 14.68h-13.81z" /><path d="m-753 319.3-0.125 40.93h-21.81z" /><path d="m-779.9 415.9-4.294-19.54h22.39z" /></g><g stroke-width="1.235"><path d="m-745.1 517.9-29.3-0.0205-0.2848-97.43 21.68-22.74 21.03 0.0344" /><path d="m-700.4 424.7h-63.14v63.04h63.14z" /><path d="m-745.5 531.6-0.0196-34.65c0.0304-3.661 0.0256-5.908 13.51-5.965" /></g><path d="m-851 510.1 12.31 0.0366-0.7437 17.75-10.59-0.1768z"  stroke-width="1.235"/><path d="m-650.3 531.6-1.477 7.914-6.615 4.266-1.32 7.304-3.054 3.761-23.64 0.0697-2.891-3.687-1.355-11.87-3.069-9e-3v-4.204l-17.44 3e-3 0.07-3.437"  stroke-width="1.764"/><g stroke-width="1.235"><path d="m-650.9 535.3-42.82-0.1526" /><path d="m-651.8 539.6-38.87-0.1526" /><path d="m-658.7 545.7-31.07-0.1526" /><path d="m-653.6 395.6 19.42 0.1138 3.681 24.15 0.089 52.87c-0.2301 10.19-8.885 20.2-23.7 20.32" /><path d="m-653.6 395.6-20.44 0.1138-3.681 24.15-0.089 52.87c0.2301 10.19 8.885 20.2 23.7 20.32" /></g><g stroke-width="1.235"><ellipse transform="matrix(-.9999 .01048 .01578 .9999 0 0)" cx="661.9" cy="462.3" rx="16.63" ry="16.88" /><ellipse transform="matrix(-.9999 .01048 .01577 .9999 0 0)" cx="677.2" cy="293.5" rx="9.778" ry="9.925" /><ellipse transform="matrix(-.9999 .01048 .01578 .9999 0 0)" cx="677.2" cy="293.5" rx="16.23" ry="16.47" /></g><g stroke-width="1.235"><path d="m-638.2 469.3-32.84-0.181" /><path d="m-662.7 300.6-19.81-0.181" /><path d="m-630.5 419.9h-47.21" /><path d="m-653.8 452.5-0.0913-32.56" /><path d="m-591.9 530.3-3.416-77.39 12.64-1.207" /><path d="m-593.1 506.1-60.57 0.1841 0.199 25.01" /><path d="m-593.1 506.1-10.08-11.61-54.54-214-44.38-90.17-9.712-15.56-11.24-10.62" /><path d="m-605.9 380.3-26.85-0.181" /><path d="m-648.5 263.5-9.188 16.98" /><path d="m-680.1 206.7-11.34 5.444" /></g><g stroke-width="1.235"><ellipse transform="matrix(-.9999 .01049 .01576 .9999 0 0)" cx="719.1" cy="179.6" rx="5.042" ry="5.122" /><ellipse transform="matrix(-.9999 .01049 .01576 .9999 0 0)" cx="704.6" cy="241.9" rx="5.042" ry="5.122" /><ellipse transform="matrix(-.9999 .01049 .01576 .9999 0 0)" cx="653.6" cy="361.5" rx="5.042" ry="5.122" /><ellipse transform="matrix(-.9999 .01049 .01576 .9999 0 0)" cx="609.8" cy="454.3" rx="5.042" ry="5.122" /></g><path d="m-691 495.4h-13.81v13.25h13.81z"  stroke-width="1.235"/><path d="m-709.3 489.7h-4.064v24.63h4.064z"  stroke-width="1.235"/><g stroke-width="1.235"><path d="m-692.9 239h-17.7v70.35l13.83 23.09 13.47 0.0667c2.468-0.0311 7.166 1.448 7.82 6.198l1.771 20.34 11.36 0.0678-5.42-33.72c-30.63-2.244-37.65-38.44-7.627-47.69z" /><path d="m-656.3 498h-13.81v30.38h13.81z" /><path d="m-615 486h-13.19l0.125 20.25h13.81z" /><path d="m-619.7 445.5h-8.939l0.125 35.63h13.81z" /><path d="m-625.1 420.4-3.564 0.125 0.125 22.88h7.939z" /><path d="m-709 405 0.125 14.68h13.81z" /><path d="m-684.1 415.9 4.294-19.54h-22.39z" /></g><path d="m-718.9 517.9 29.3-0.0205 0.2848-97.43-21.68-22.74-21.03 0.0344"  stroke-width="1.235"/><path d="m-718.5 531.6 0.0196-34.65c-0.0304-3.661-0.0256-5.908-13.51-5.965"  stroke-width="1.235"/><path d="m-613 510.1-12.31 0.0366 0.7437 17.75 10.59-0.1768z"  stroke-width="1.235"/><g stroke-width="1.235"><path d="m-719.3 406.2h-25.31v16.37h25.31z" /><path d="m-708.7 380.4h-46.52v11.24h46.52z" /><path d="m-723.9 316h-16.27v11.24h16.27z" /><path d="m-690.7 347.5h-55.34v11.24h55.34z" /><path d="m-686.4 335.6h-63.35v37.89h63.53l0.1085-6.096 3.114-4.185 3.965-0.0466v-18.75l-3.665-0.0256-3.648-4.365z" /><path d="m-722.8 167.1h-18.39v12.74h18.39z" /></g><path d="m-755.1 198.4-0.125 30.93h-15.56z"  stroke-width="1.235"/><path d="m-708.5 198.4 0.125 30.93h15.56z"  stroke-width="1.235"/><ellipse transform="matrix(.9999 .01052 -.01571 .9999 0 0)" cx="-675.8" cy="345.9" rx="1.917" ry="1.953"  stroke-width="1.235"/><ellipse transform="matrix(.9999 .01052 -.01571 .9999 0 0)" cx="-675.3" cy="375.4" rx="1.917" ry="1.953"  stroke-width="1.235"/><path d="m-748.3 335.6 0.0887-123.2c0.1184-8.786 8.054-16.55 16.22-16.56"  stroke-width="1.235"/><path d="m-700.1 335.6-15.64-26.14-0.0699-97.03c-0.1184-8.786-8.054-16.55-16.22-16.56"  stroke-width="1.235"/></g><g  ><rect x="612.9" y="495.4" width="13.81" height="13.25" rx="1.971" ry="1.821" fill="#ff3ae1"    stroke-width="1.554"><desc>{ "type": "utility", "i": 2 }</desc></rect><rect x="430.8" y="128.2" width="8.144" height="8.073" fill="#979797"   stroke-width="3.587"><desc>{ "type": "gunsight", "cl": "gun", "i": 0 }</desc></rect><g fill="none" stroke="#979797" stroke-width="3.587"><path d="m442.9 86.92c21.52 3.996 37.82 22.87 37.82 45.55 0 5.371-0.9139 10.53-2.595 15.33m-7.842 13.97c-8.496 10.4-21.42 17.03-35.89 17.03-14.38 0-27.24-6.555-35.74-16.84m-7.716-13.37c-1.862-5.019-2.88-10.45-2.88-16.12 0-23.05 16.84-42.18 38.89-45.74" /><g><path d="m434.9 71.19v15.85" /><path d="m395.6 155.1-13.68 8.014" /><path d="m474.2 155.1 13.68 8.014" /></g></g><g ><circle cx="402.9" cy="148" r="3.783" fill="#979797"  stroke-width="2.869"><desc>{ "type": "hard_point", "cl": "gun", "i": 3 }</desc></circle><circle cx="365.5" cy="165.2" r="3.783" fill="#979797"  stroke-width="3.587"><desc>{ "type": "gunsight", "cl": "gun", "i": 3 }</desc></circle><g><path d="m145.8 564h28.57l-14.28 15.07z" fill="#f39745"   stroke-width="1.764"><desc>{ "type": "misc", "i": "thrusters" }</desc></path><path d="m685.5 424.7h-63.14v63.04h63.14z" fill="#f39746"   stroke-width="1.235"><desc>{ "type": "other", "i": "cargo hatch" }</desc></path><path d="m216 175.5c-20.05 0.1548-31.11 21.24-35.71 29.27l0.3574 3.344c3.909-8.17 9.292-14.9 17.42-18.97 1.52 0.3181 2.983 0.9026 4.412 1.062 3.992-0.67 10.44-1.108 15.49-1.117 5.053 0.00935 11.5 0.4472 15.49 1.117 1.429-0.1598 2.894-0.7444 4.414-1.062 8.124 4.063 13.51 10.8 17.42 18.97l0.3574-3.344c-4.754-8.293-16.38-30.49-37.68-29.22-0.6657-0.03971-1.322-0.05578-1.969-0.05079z" fill="#f39746"   stroke-width="1.764"><desc>{ "type": "other", "i": "canopy" }</desc></path></g></g><g fill="#f39745" ><g stroke-width="1.764"><ellipse cx="203.3" cy="229" rx="6.089" ry="6.249"  ><desc>{ "type": "misc", "i": "thrusters" }</desc></ellipse><ellipse cx="232.6" cy="229" rx="6.089" ry="6.249"  ><desc>{ "type": "misc", "i": "thrusters" }</desc></ellipse><ellipse cx="131.7" cy="479.2" rx="5.647" ry="6.249"  ><desc>{ "type": "misc", "i": "thrusters" }</desc></ellipse><ellipse cx="304.1" cy="479.2" rx="5.647" ry="6.249"  ><desc>{ "type": "misc", "i": "thrusters" }</desc></ellipse></g><ellipse transform="matrix(.7721 .6355 -.6166 .7873 0 0)" cx="321.3" cy="170.2" rx="6.082" ry="6.344"   stroke-width="1.764"><desc>{ "type": "misc", "i": "thrusters" }</desc></ellipse><ellipse transform="matrix(-.7721 .6355 .6166 .7873 0 0)" cx="-22.12" cy="447.3" rx="6.082" ry="6.344"   stroke-width="1.764"><desc>{ "type": "misc", "i": "thrusters" }</desc></ellipse><ellipse transform="matrix(.5476 .8368 -.7733 .634 0 0)" cx="300" cy="29.26" rx="5.791" ry="6.152"   stroke-width="1.769"><desc>{ "type": "misc", "i": "thrusters" }</desc></ellipse><ellipse transform="matrix(-.5476 .8368 .7733 .634 0 0)" cx="22.02" cy="396.2" rx="5.791" ry="6.152"   stroke-width="1.769"><desc>{ "type": "misc", "i": "thrusters" }</desc></ellipse><g stroke-width="1.764"><ellipse cx="638.2" cy="187.1" rx="6.089" ry="6.249"  ><desc>{ "type": "misc", "i": "thrusters" }</desc></ellipse><ellipse cx="669.7" cy="187.2" rx="6.089" ry="6.249"  ><desc>{ "type": "misc", "i": "thrusters" }</desc></ellipse><ellipse cx="622.7" cy="249.3" rx="6.089" ry="6.249"  ><desc>{ "type": "misc", "i": "thrusters" }</desc></ellipse><ellipse cx="685.2" cy="249.2" rx="6.089" ry="6.249"  ><desc>{ "type": "misc", "i": "thrusters" }</desc></ellipse><ellipse cx="569.8" cy="368.3" rx="6.089" ry="6.249"  ><desc>{ "type": "misc", "i": "thrusters" }</desc></ellipse><ellipse cx="738.2" cy="368.3" rx="6.089" ry="6.249"  ><desc>{ "type": "misc", "i": "thrusters" }</desc></ellipse><ellipse cx="524.5" cy="460.7" rx="6.089" ry="6.249"  ><desc>{ "type": "misc", "i": "thrusters" }</desc></ellipse><ellipse cx="783.4" cy="460.7" rx="6.089" ry="6.249"  ><desc>{ "type": "misc", "i": "thrusters" }</desc></ellipse><path d="m261.8 564h28.57l-14.28 15.07z"  ><desc>{ "type": "misc", "i": "thrusters" }</desc></path><path d="m582.7 560h28.57l-14.28 15.07z"  ><desc>{ "type": "misc", "i": "thrusters" }</desc></path><path d="m698.7 560h28.57l-14.28 15.07z"  ><desc>{ "type": "misc", "i": "thrusters" }</desc></path></g></g><path d="m151.5 231.8c0.24 7.528 3.809 5.698 6.103 0.19 1.681-4.037 3.261-13.48 4.393-18.24" fill="none"   stroke-width="1.235"/><path d="m284.5 231.8c-0.24 7.528-3.809 5.698-6.103 0.19-1.681-4.037-3.261-13.48-4.393-18.24" fill="none"   stroke-width="1.235"/><g fill="#f39745"  stroke-width="1.764"><path d="m144.4 213.7h17.66l-8.832-9.317z"  ><desc>{ "type": "misc", "i": "thrusters" }</desc></path><path d="m274 213.7h17.66l-8.832-9.317z"  ><desc>{ "type": "misc", "i": "thrusters" }</desc></path><path d="m580.1 213.7h17.66l-8.832-9.317z"  ><desc>{ "type": "misc", "i": "thrusters" }</desc></path><path d="m709.8 213.7h17.66l-8.832-9.317z"  ><desc>{ "type": "misc", "i": "thrusters" }</desc></path></g><path d="m637.5 252.4h32.25" fill="none"   stroke-width="1.235"/><path d="m637.5 268.6h32.25" fill="none"   stroke-width="1.235"/><g fill="#f39745"  stroke-width="1.235"><path d="m637.5 211.1c0.0673-6.598 8.111-15.4 16.29-15.27 7.9 0.1211 15.96 6.942 15.96 15.27v41.31h-32.25z"  ><desc>{ "type": "misc", "i": "landing gear" }</desc></path><path d="m552.3 470.4c-0.733 10.29 5.928 22.25 24.17 22.67 12.83 0.2933 23.7-8.849 23.25-22.67l-0.123-50.46h-47.21z"  ><desc>{ "type": "misc", "i": "landing gear" }</desc></path><path d="m755.5 470.4c0.733 10.29-5.928 22.25-24.17 22.67-12.83 0.2933-23.7-8.849-23.25-22.67l0.123-50.46h47.21z"  ><desc>{ "type": "misc", "i": "landing gear" }</desc></path></g><g fill="#4df346"  stroke-width="1.661"><rect x="586.4" y="285.1" width="15.55" height="30.6" rx="3.114" ry="3.051"  ><desc>{ "type": "hard_point", "i": 2 }</desc></rect><rect x="705.5" y="285.1" width="15.55" height="30.6" rx="3.114" ry="3.051"  ><desc>{ "type": "hard_point", "i": 3 }</desc></rect><rect x="204" y="338.5" width="27.31" height="53.76" rx="3.114" ry="3.051"  ><desc>{ "type": "hard_point", "i": 1 }</desc></rect></g><rect x="681.1" y="495.4" width="13.81" height="13.25" rx="1.971" ry="1.821" fill="#ff3ae1"    stroke-width="1.554"><desc>{ "type": "utility", "i": 1 }</desc></rect><g fill="#f39745" ><g stroke-width="1.764"><ellipse cx="189.9" cy="417" rx="7.793" ry="7.998"  ><desc>{ "type": "misc", "i": "heat vents" }</desc></ellipse><ellipse cx="189.9" cy="450.9" rx="7.793" ry="7.998"  ><desc>{ "type": "misc", "i": "heat vents" }</desc></ellipse><ellipse cx="246" cy="417" rx="7.793" ry="7.998"  ><desc>{ "type": "misc", "i": "heat vents" }</desc></ellipse><ellipse cx="246" cy="450.9" rx="7.793" ry="7.998"  ><desc>{ "type": "misc", "i": "heat vents" }</desc></ellipse></g><ellipse transform="matrix(.6921 .7218 -.7093 .7049 0 0)" cx="327" cy="67.94" rx="8.157" ry="9.381"   stroke-width="1.764"><desc>{ "type": "misc", "i": "heat vents" }</desc></ellipse><ellipse transform="matrix(-.6921 .7218 .7093 .7049 0 0)" cx="19.66" cy="382.5" rx="8.157" ry="9.381"   stroke-width="1.764"><desc>{ "type": "misc", "i": "heat vents" }</desc></ellipse></g><g ><circle cx="454.7" cy="148" r="3.783" fill="#979797"  stroke-width="2.869"><desc>{ "type": "hard_point", "cl": "gun", "i": 2 }</desc></circle><circle cx="428.8" cy="113.7" r="3.783" fill="#979797"  stroke-width="2.869"><desc>{ "type": "hard_point", "cl": "gun", "i": 1 }</desc></circle><path d="m210.2 164.8a8.125 7.918 0 0 0 8.125 7.918 8.125 7.918 0 0 0 8.125-7.918 8.125 7.918 0 0 0-1.904-5.082l-6.221-9.992-6.199 9.959a8.125 7.918 0 0 0-1.926 5.115z" fill="#46d2f3"   stroke-width="1.764"><desc>{ "type": "internal", "i": "entrance" }</desc></path></g></g></svg>
