<svg width="870" height="640" clip-rule="evenodd" fill-rule="evenodd" image-rendering="optimizeQuality" shape-rendering="geometricPrecision" text-rendering="geometricPrecision" version="1.1" viewBox="0 0 870 640" xml:space="preserve" xmlns="http://www.w3.org/2000/svg">
<g transform="matrix(.9339 0 0 .9338 929.1 37.31)"  fill="none"  ><g stroke-width="1.889"><path d="m-828.6 200.8-53.65 79.17-65.21 68.66" /><path d="m-882.3 280 115.8 50.97" /><path d="m-756.1 343.3-10.55-0.0628 0.037-16.02 10.54 0.023z" /></g><g stroke-width="1.322"><path d="m-939 382 19.21-7.06 16.6 9.698 9.89 40.65-7.986 18 19.62 78.61" /><path d="m-905.9 521.6 41.28 0.4957" /><path d="m-923 450.3 21.63-6.956" /><path d="m-944.7 360.3 73.65-74.75" /><path d="m-802.2 200.1 0.0189 24-4.631 6.133-9.137-0.1523-22.33 40.49 14.71 6.18-12.14 23.7 0.6918 99.84-10.15 16.61 0.2165 13.43" /><path d="m-827.8 546.8-33.07-0.5357-3.583-3.305-0.2948-53.66 1.64-6.578 4.837-5.137-0.3281-43.17 2.752-4.273 22.49-0.1758 2.768 3.251 0.2335 46.08 5.44 4.243-3.131 5.67 0.2451 57.59" /></g><path d="m-844.5 453.2h9.87v32.44h-9.87z"  stroke-width="1.322"/><g stroke-width="1.322"><path d="m-824.9 483.6 0.1989 66.71" /><path d="m-782.5 539.7-0.3092-30.9-12.78-13.74 0.033-138.6 23.38-0.482-0.1098 160.9 5.828 5.921 5.032 0.0435" /><path d="m-777.5 201.2-0.069 13.92 5.305 0.8412 10.84 0.0197" /><path d="m-772.5 170.8 0.1223 25.5 10.95-3e-3" /><path d="m-772.3 196.3 0.1085 19.66" /><path d="m-777.2 192.6 4.874 3.745" /></g><g stroke-width="1.322"><path d="m-797.7 212.4h14.09v19.56h-14.09z" /><path d="m-798.6 237.1h7.59v5.439h-7.59z" /><path d="m-771.5 217.5h20.21l4.688 29.56h-29.59z" /></g><g stroke-width="1.322"><path d="m-777.5 215.1-0.056 9.574-6.004 7.27-0.4413 25.22 1.729 1.243-0.045 44.45 6.175 16.02" /><path d="m-761.4 252.8-8.545-0.0954-3.08-3.284-3.008-8e-3 -0.154 69.53" /><path d="m-776 249.4-6.284 9.057" /><path d="m-817.6 308.2 0.083 40.83 6.882 4.626 6.968-0.3403 8.121 3.215" /><path d="m-885.8 300.4 23.68-1.461 0.049-10.25" /><path d="m-919.8 374.9-8.118-31.91" /><path d="m-928 343 92.59-7.199" /><path d="m-869.7 424.2-0.1332-39.46 34.35-37.8" /><path d="m-903.2 384.6 33.4 0.1398" /><path d="m-893.3 425.3 48.44-2.024" /><path d="m-810.6 353.6 0.01 52.55 6.043 3.826 0.9718 110.9 14.77 18.79" /></g><ellipse transform="matrix(.9759 -.2181 .213 .9771 0 0)" cx="-987.2" cy="203.7" rx="6.202" ry="6.299"  stroke-width="1.322"/><path d="m-929.3 408.4 14.8-3.472 3.646 15.55-14.8 3.472z"  stroke-width="1.322"/><ellipse transform="matrix(.9759 -.2181 .213 .9771 0 0)" cx="-984.6" cy="326.5" rx="6.202" ry="6.299"  stroke-width="1.322"/><path d="m-900.5 527.7 14.8-3.472 3.646 15.55-14.8 3.472z"  stroke-width="1.322"/><path d="m-883.3 272.1 1.701 1.475-10.05 12.41-1.7-1.475z"  stroke-width="1.322"/><path d="m-761.4 170.9-11.07-0.0894-4.992 7.638-0.014 22.76-23.01-0.0929-1.703-1.023-26.47 0.753-118.9 147.8 48.15 198.9 31.38 1.746 61.26 1.683 11.68-0.2618 6.226-11.05 21.6 0.4001 0.548 2.797 5.28 0.0749"  stroke-width="1.889"/><path d="m-740.3 539.7 0.3092-30.9 12.78-13.74-0.033-138.6-23.38-0.482 0.1098 160.9-5.828 5.921-5.032 0.0435"  stroke-width="1.322"/><path d="m-761.4 252.8 8.545-0.0954 3.08-3.284 3.008-8e-3 0.154 69.53"  stroke-width="1.322"/><path d="m-819.8 535.4h9.709v9.228h-9.709z"  stroke-width="1.322"/><path d="m-766.2 274.3h9.709v9.228h-9.709z"  stroke-width="1.322"/><path d="m-776.2 318.9h29.57"  stroke-width="1.322"/><path d="m-824.6 520.7 20.98 0.2136"  stroke-width="1.322"/><path d="m-947.5 348.7-28.59 60.33 0.053 6.767 44.71 141.5 33.85-2.411-1.87-7.311"  stroke-width="1.889"/><path d="m-908.9 543.7-27.18-108.2 6.972-8.572"  stroke-width="1.322"/><path d="m-935.1 544.9 34.78-1.36"  stroke-width="1.322"/><path d="m-854.4 453.2h9.87v32.44h-9.87z"  stroke-width="1.322"/><path d="m-864.8 489.3 5.386 1.24 2.554 2.29 15.69 0.127 4.24-1.849 8.834-1.895"  stroke-width="1.322"/><path d="m-927.8 556.9-44.44-141.7 0.1076-6.494 26.77-51.88"  stroke-width="1.322"/><path d="m-694.1 200.8 53.65 79.17 65.21 68.66"  stroke-width="1.889"/><path d="m-640.5 280-115.8 50.97"  stroke-width="1.889"/><g stroke-width="1.322"><path d="m-583.7 382-19.21-7.06-16.6 9.698-9.89 40.65 7.986 18-19.62 78.61" /><path d="m-616.9 521.6-41.28 0.4957" /><path d="m-599.8 450.3-21.63-6.956" /><path d="m-578.1 360.3-73.65-74.75" /><path d="m-720.6 200.1-0.0189 24 4.631 6.133 9.137-0.1523 22.33 40.49-14.71 6.18 12.14 23.7-0.6918 99.84 10.15 16.61-0.2165 13.43" /><path d="m-694.9 546.8 33.07-0.5357 3.583-3.305 0.2947-53.66-1.64-6.578-4.837-5.137 0.328-43.17-2.752-4.273-22.49-0.1758-2.768 3.251-0.2335 46.08-5.44 4.243 3.131 5.67-0.2451 57.59" /></g><path d="m-678.2 453.2h-9.87v32.44h9.87z"  stroke-width="1.322"/><g stroke-width="1.322"><path d="m-697.8 483.6-0.1989 66.71" /><path d="m-740.3 539.7 0.3092-30.9 12.78-13.74-0.033-138.6-23.38-0.482 0.1098 160.9-5.828 5.921-5.032 0.0435" /><path d="m-745.3 201.2 0.069 13.92-5.305 0.8412-10.84 0.0197" /><path d="m-750.3 170.8-0.1223 25.5-10.95-3e-3" /><path d="m-750.4 196.3-0.1085 19.66" /><path d="m-745.6 192.6-4.874 3.745" /></g><path d="m-725.1 212.4h-14.09v19.56h14.09z"  stroke-width="1.322"/><path d="m-724.2 237.1h-7.59v5.439h7.59z"  stroke-width="1.322"/><g stroke-width="1.322"><path d="m-745.2 215.1 0.056 9.574 6.004 7.27 0.4413 25.22-1.729 1.243 0.045 44.45-6.175 16.02" /><path d="m-761.4 252.8 8.545-0.0954 3.08-3.284 3.008-8e-3 0.154 69.53" /><path d="m-746.8 249.4 6.284 9.057" /><path d="m-705.2 308.2-0.083 40.83-6.882 4.626-6.968-0.3403-8.121 3.215" /><path d="m-637 300.4-23.68-1.461-0.049-10.25" /><path d="m-602.9 374.9 8.118-31.91" /><path d="m-594.8 343-92.59-7.199" /><path d="m-653.1 424.2 0.1332-39.46-34.35-37.8" /><path d="m-619.5 384.6-33.4 0.1398" /><path d="m-629.4 425.3-48.44-2.024" /><path d="m-712.2 353.6-0.01 52.55-6.043 3.826-0.9718 110.9-14.77 18.79" /></g><ellipse transform="matrix(-.9759 -.2181 -.213 .9771 0 0)" cx="500.6" cy="535.9" rx="6.202" ry="6.299"  stroke-width="1.322"/><path d="m-593.5 408.4-14.8-3.472-3.646 15.55 14.8 3.472z"  stroke-width="1.322"/><ellipse transform="matrix(-.9759 -.2181 -.213 .9771 0 0)" cx="503.3" cy="658.6" rx="6.202" ry="6.299"  stroke-width="1.322"/><path d="m-622.2 527.7-14.8-3.472-3.646 15.55 14.8 3.472z"  stroke-width="1.322"/><path d="m-639.5 272.1-1.701 1.475 10.05 12.41 1.7-1.475z"  stroke-width="1.322"/><path d="m-761.4 170.9 11.07-0.0894 4.992 7.638 0.014 22.76 23.01-0.0929 1.703-1.023 26.47 0.753 118.9 147.8-48.15 198.9-31.38 1.746-61.26 1.683-11.68-0.2618-6.226-11.05-21.6 0.4001-0.548 2.797-5.28 0.0749"  stroke-width="1.889"/><path d="m-703 535.4h-9.709v9.228h9.709z"  stroke-width="1.322"/><path d="m-698.2 520.7-20.98 0.2136"  stroke-width="1.322"/><path d="m-575.3 348.7 28.59 60.33-0.0527 6.767-44.71 141.5-33.85-2.411 1.87-7.311"  stroke-width="1.889"/><path d="m-613.8 543.7 27.18-108.2-6.972-8.572"  stroke-width="1.322"/><path d="m-587.6 544.9-34.78-1.36"  stroke-width="1.322"/><path d="m-668.4 453.2h-9.87v32.44h9.87z"  stroke-width="1.322"/><path d="m-658 489.3-5.386 1.24-2.554 2.29-15.69 0.127-4.24-1.849-8.834-1.895"  stroke-width="1.322"/><path d="m-594.9 556.9 44.43-141.7-0.1076-6.494-26.77-51.88"  stroke-width="1.322"/></g><g transform="matrix(.9339 0 0 .9338 910.4 37.19)"  fill="none"  ><g stroke-width="1.322"><path d="m-289.7 181.9-2.436 28.67" /><path d="m-296.2 201.2 16.08-0.1523" /><path d="m-295.9 192.6 6.188-10.7 9.634 0.0277" /></g><g stroke-width="1.889"><path d="m-347.2 200.8-22.22 96.64-1.451 121.2 0.8599 131.3" /><path d="m-466.2 348.7 20.24-7.639 76.27-15.05" /><path d="m-319.1 201.1-9.015 89.78 1.179 120.6 1.446 108.1" /></g><path d="m-466.2 348.7 81.7-9.928 0.0767 82.73 5.932 127.7"  stroke-width="1.322"/><g stroke-width="1.322"><path d="m-362.1 293.5h28.6v37.91h-28.6z" /><path d="m-363.2 399.8h28.6v46.55h-28.6z" /><path d="m-365.5 502.2h36.34v14.14h-36.34z" /></g><g stroke-width="1.322"><path d="m-338.9 331.8 0.2208 29.77-19.32 26.44-0.3772 11.63" /><path d="m-338.7 293.8 5.86-49.95-4.829-4.337 1.729-25.17-10.59 0.2038-5.143 5.408" /><path d="m-367.3 290.6 39.18 0.3159" /></g><path d="m-280.1 519.8-27.12-0.1976 0.4529-41.26-10.63-79.5-0.2916-157.1 25.52-31.12 12.07-0.2242"  stroke-width="1.889"/><path d="m-326.7 519.5 19.47 0.0318"  stroke-width="1.322"/><path d="m-325.7 503.9 2.297-43.43 3.484-6.327 5.609 0.2308 3.395 24.22-0.1527 41.01"  stroke-width="1.322"/><path d="m-301.7 415.4h43.12l-10.07 56.01h-22.98z"  stroke-width="1.322"/><path d="m-304.2 320.6h48.08v45.02h-48.08z"  stroke-width="1.322"/><path d="m-310.3 290.6 10.25-8.32h40.16l9.83 8.32v105.4l-2.79 2.16h-54.08l-3.371-2.16z"  stroke-width="1.322"/><g stroke-width="1.322"><path d="m-317.9 212.8h9.29v14.44h-9.29z" /><path d="m-291.9 217.8h9.29v14.44h-9.29z" /><path d="m-297 239.1h6.405v14.44h-6.405z" /><path d="m-288.1 239.1h6.405v14.44h-6.405z" /></g><ellipse transform="matrix(.7576 .6527 -.6444 .7647 0 0)" cx="-119.9" cy="490.3" rx="4.529" ry="6.298"  stroke-width="1.322"/><path d="m-406 286.9 8.513 7.125-10.15 12.33-8.513-7.125z"  stroke-width="1.322"/><ellipse transform="matrix(.9759 -.2181 .213 .9771 0 0)" cx="-508.3" cy="433.2" rx="6.202" ry="6.299"  stroke-width="1.322"/><path d="m-413 528.1 14.8-3.472 3.646 15.55-14.8 3.472z"  stroke-width="1.322"/><ellipse transform="matrix(.9759 -.2181 .213 .9771 0 0)" cx="-512.7" cy="318.5" rx="6.202" ry="6.299"  stroke-width="1.322"/><g stroke-width="1.322"><path d="m-441.7 417 14.8-3.472 3.646 15.55-14.8 3.472z" /><path d="m-310.3 290.6h60.24" /><path d="m-310.3 314.6h60.24" /><path d="m-303.8 290.5 11.82 24.1" /><path d="m-280.1 290.5-11.82 24.1" /><path d="m-310.3 396h60.24" /><path d="m-303.8 396 11.82-24.1" /><path d="m-280.1 396-11.82-24.1" /><path d="m-310.3 371.6h60.24" /><path d="m-418 335 48.55-37.55" /><path d="m-346.5 214.6-4.51 24.98 13.37-0.0128" /><path d="m-455.5 391.1 5.088-1.146 12.28 5.928 4.485 19.44" /><path d="m-423.1 527.6 8.681-2.315 7.077-9.975-21.96-84.82" /><path d="m-438.1 395.9 33.31-9.432-9.594-44.22" /><path d="m-404.8 386.5 20.27 14.05" /><path d="m-426 392.6 41.57 28.89" /><path d="m-407.3 515.3 26.92 0.1316" /><path d="m-307.2 519.6 0.7296 12.24 26.71 0.2141" /><path d="m-264 201.2-16.08-0.1523" /><path d="m-384.5 421.5-60.61 14.75" /></g><path d="m-280 172.8-11.07-0.0894-4.992 7.638-0.014 20.89-23.01-0.0929-1.703-1.023-26.47 0.753-118.9 147.8 48.15 198.9 31.38 1.746 61.26 1.683 11.68-0.2618 6.178-12.33 14.11 0.2244"  stroke-width="1.889"/><g stroke-width="1.322"><path d="m-364.2 549.7 0.1009-28.04 37.42-2.167" /><path d="m-360.2 524.9h45.34v17.77h-45.34z" /><path d="m-370.4 496.3 44.87 0.1316" /></g><path d="m-466.1 348.7-28.59 60.33 0.053 6.767 44.71 141.5 33.85-2.411-1.87-7.311"  stroke-width="1.889"/><g stroke-width="1.322"><path d="m-427.5 543.7-27.18-108.2 6.972-8.572" /><path d="m-453.7 544.9 34.78-1.36" /><path d="m-446.4 556.9-44.44-141.7 0.1076-6.494 26.77-51.88" /><path d="m-270.5 181.9 2.436 28.67" /><path d="m-264 201.2-16.08-0.1523" /><path d="m-264.3 192.6-6.188-10.7-9.634 0.0277" /></g><g stroke-width="1.889"><path d="m-213 200.8 22.22 96.64 1.451 121.2-0.8599 131.3" /><path d="m-94 348.7-20.24-7.639-76.27-15.05" /><path d="m-241.2 201.1 9.015 89.78-1.179 120.6-1.446 108.1" /></g><path d="m-94 348.7-81.7-9.928-0.0767 82.73-5.932 127.7"  stroke-width="1.322"/><g stroke-width="1.322"><path d="m-198.1 293.5h-28.6v37.91h28.6z" /><path d="m-197.1 399.8h-28.6v46.55h28.6z" /><path d="m-194.8 502.2h-36.34v14.14h36.34z" /></g><g stroke-width="1.322"><path d="m-221.3 331.8-0.2208 29.77 19.32 26.44 0.3772 11.63" /><path d="m-221.6 293.8-5.86-49.95 4.829-4.337-1.729-25.17 10.59 0.2038 5.143 5.408" /><path d="m-193 290.6-39.18 0.3159" /></g><path d="m-280.1 519.8 27.12-0.1976-0.4529-41.26 10.63-79.5 0.2916-157.1-25.52-31.12-12.07-0.2242"  stroke-width="1.889"/><path d="m-233.5 519.5-19.47 0.0318"  stroke-width="1.322"/><path d="m-234.6 503.9-2.297-43.43-3.484-6.327-5.609 0.2308-3.395 24.22 0.1527 41.01"  stroke-width="1.322"/><g stroke-width="1.322"><path d="m-242.4 212.8h-9.29v14.44h9.29z" /><path d="m-268.3 217.8h-9.29v14.44h9.29z" /><path d="m-263.2 239.1h-6.405v14.44h6.405z" /><path d="m-272.2 239.1h-6.405v14.44h6.405z" /></g><ellipse transform="matrix(-.7576 .6527 .6444 .7647 0 0)" cx="308.5" cy="124.6" rx="4.529" ry="6.298"  stroke-width="1.322"/><path d="m-154.3 286.9-8.513 7.125 10.15 12.33 8.513-7.125z"  stroke-width="1.322"/><ellipse transform="matrix(-.9759 -.2181 -.213 .9771 0 0)" cx="39.07" cy="555.4" rx="6.202" ry="6.299"  stroke-width="1.322"/><path d="m-147.2 528.1-14.8-3.472-3.646 15.55 14.8 3.472z"  stroke-width="1.322"/><ellipse transform="matrix(-.9759 -.2181 -.213 .9771 0 0)" cx="34.73" cy="440.7" rx="6.202" ry="6.299"  stroke-width="1.322"/><g stroke-width="1.322"><path d="m-118.6 417-14.8-3.472-3.646 15.55 14.8 3.472z" /><path d="m-256.5 290.5-11.82 24.1" /><path d="m-280.1 290.5 11.82 24.1" /><path d="m-256.5 396-11.82-24.1" /><path d="m-280.1 396 11.82-24.1" /><path d="m-142.2 335-48.55-37.55" /><path d="m-213.7 214.6 4.51 24.98-13.37-0.0128" /><path d="m-104.8 391.1-5.088-1.146-12.28 5.928-4.485 19.44" /><path d="m-137.1 527.6-8.681-2.315-7.077-9.975 21.96-84.82" /><path d="m-122.2 395.9-33.31-9.432 9.594-44.22" /><path d="m-155.5 386.5-20.27 14.05" /><path d="m-134.2 392.6-41.57 28.89" /><path d="m-152.9 515.3-26.92 0.1316" /><path d="m-253 519.6-0.7296 12.24-26.07 0.2141" /><path d="m-175.8 421.5 60.61 14.75" /></g><path d="m-280.3 172.8 11.07-0.0894 4.992 7.638 0.014 20.89 23.01-0.0929 1.703-1.023 26.47 0.753 118.9 147.8-48.15 198.9-31.38 1.746-61.26 1.683-11.68-0.2618-6.178-12.33-14.11 0.2244"  stroke-width="1.889"/><g stroke-width="1.322"><path d="m-196 549.7-0.1009-28.04-37.42-2.167" /><path d="m-200.1 524.9h-45.34v17.77h45.34z" /><path d="m-189.9 496.3-44.87 0.1316" /></g><path d="m-94.15 348.7 28.59 60.33-0.053 6.767-44.71 141.5-33.85-2.411 1.87-7.311"  stroke-width="1.889"/><g stroke-width="1.322"><path d="m-132.7 543.7 27.18-108.2-6.972-8.572" /><path d="m-106.5 544.9-34.78-1.36" /><path d="m-113.8 556.9 44.44-141.7-0.1076-6.494-26.77-51.88" /></g><path d="m-266.1 531.8-1.287 12.01-25.75-7e-3 -1.188-11.94"  stroke-width="1.889"/></g><g  ><rect x="161" y="534.5" width="14.07" height="14.14" rx="1.971" ry="1.821" fill="#ff3ae1"    stroke-width="1.554"><desc>{ "type": "utility", "i": 2 }</desc></rect><rect x="430.8" y="128.2" width="8.144" height="8.073" fill="#979797"   stroke-width="3.587"><desc>{ "type": "gunsight", "cl": "gun", "i": 0 }</desc></rect><g fill="none" stroke="#979797" stroke-width="3.587"><path d="m442.9 86.92c21.52 3.996 37.82 22.87 37.82 45.55 0 5.371-0.9139 10.53-2.595 15.33m-7.842 13.97c-8.496 10.4-21.42 17.03-35.89 17.03-14.38 0-27.24-6.555-35.74-16.84m-7.716-13.37c-1.862-5.019-2.88-10.45-2.88-16.12 0-23.05 16.84-42.18 38.89-45.74" /><g><path d="m434.9 71.19v15.85" /><path d="m395.6 155.1-13.68 8.014" /><path d="m474.2 155.1 13.68 8.014" /></g></g><g fill="#979797" ><circle cx="458.5" cy="130.9" r="3.783"  stroke-width="3.587"><desc>{ "type": "hard_point", "cl": "gun", "i": 1 }</desc></circle><circle cx="411.3" cy="130.9" r="3.783"  stroke-width="2.869"><desc>{ "type": "hard_point", "cl": "gun", "i": 2 }</desc></circle><circle cx="424" cy="203.9" r="3.783"  stroke-width="3.587"><desc>{ "type": "gunsight", "cl": "gun", "i": 4 }</desc></circle></g><rect x="184.1" y="235.7" width="13.16" height="18.27" rx="3.114" ry="3.051" fill="#4df346"    stroke-width="1.661"><desc>{ "type": "hard_point", "i": 2 }</desc></rect><path d="m671.2 336.6h-44.9v42.04h44.9z" fill="#f39746"    stroke-width="1.235"><desc>{ "type": "other", "i": "cargo hatch" }</desc></path><g fill="#4df346" ><rect x="238.8" y="235.7" width="13.16" height="18.27" rx="3.114" ry="3.051"   stroke-width="1.661"><desc>{ "type": "hard_point", "i": 1 }</desc></rect><rect x="637.3" y="239.9" width="9.721" height="15.11" rx="3.114" ry="3.051"   stroke-width="1.661"><desc>{ "type": "hard_point", "i": 3 }</desc></rect><rect transform="scale(-1,1)" x="-660.3" y="239.9" width="9.636" height="14.98" rx="3.114" ry="3.051"   stroke-width="1.661"><desc>{ "type": "hard_point", "i": 4 }</desc></rect></g><g fill="#f39745"  stroke-width="1.764"><path d="m635.6 549.9h26.68l-13.34 14.07z"  ><desc>{ "type": "misc", "i": "thrusters" }</desc></path><path d="m157.3 220.4h26.68l-13.34-14.07z"  ><desc>{ "type": "misc", "i": "thrusters" }</desc></path><path d="m251.7 220.4h26.68l-13.34-14.07z"  ><desc>{ "type": "misc", "i": "thrusters" }</desc></path><path d="m588.3 220.4h26.68l-13.34-14.07z"  ><desc>{ "type": "misc", "i": "thrusters" }</desc></path><path d="m682.8 220.4h26.68l-13.34-14.07z"  ><desc>{ "type": "misc", "i": "thrusters" }</desc></path><ellipse cx="96.72" cy="535.7" rx="5.674" ry="5.835"  ><desc>{ "type": "misc", "i": "thrusters" }</desc></ellipse><ellipse cx="69.86" cy="424.4" rx="5.674" ry="5.835"  ><desc>{ "type": "misc", "i": "thrusters" }</desc></ellipse><ellipse cx="366.3" cy="424.2" rx="5.674" ry="5.835"  ><desc>{ "type": "misc", "i": "thrusters" }</desc></ellipse><ellipse cx="339.5" cy="535.8" rx="5.674" ry="5.835"  ><desc>{ "type": "misc", "i": "thrusters" }</desc></ellipse><ellipse cx="533.4" cy="536" rx="5.674" ry="5.835"  ><desc>{ "type": "misc", "i": "thrusters" }</desc></ellipse><ellipse cx="764.3" cy="536" rx="5.674" ry="5.835"  ><desc>{ "type": "misc", "i": "thrusters" }</desc></ellipse><ellipse cx="791.2" cy="432.2" rx="5.674" ry="5.835"  ><desc>{ "type": "misc", "i": "thrusters" }</desc></ellipse><ellipse cx="506.5" cy="432.2" rx="5.674" ry="5.835"  ><desc>{ "type": "misc", "i": "thrusters" }</desc></ellipse><ellipse transform="matrix(.7655 .6434 -.6434 .7655 0 0)" cx="608.2" cy="-100.8" rx="4.169" ry="5.835"  ><desc>{ "type": "misc", "i": "thrusters" }</desc></ellipse><ellipse transform="matrix(-.7655 .6434 .6434 .7655 0 0)" cx="-385.1" cy="734.1" rx="4.169" ry="5.835"  ><desc>{ "type": "misc", "i": "thrusters" }</desc></ellipse><ellipse transform="matrix(.7655 .6434 -.6434 .7655 0 0)" cx="267.6" cy="163.2" rx="4.169" ry="5.835"  ><desc>{ "type": "misc", "i": "thrusters" }</desc></ellipse><ellipse transform="matrix(-.7655 .6434 .6434 .7655 0 0)" cx="-66.01" cy="444" rx="4.169" ry="5.835"  ><desc>{ "type": "misc", "i": "thrusters" }</desc></ellipse></g><rect x="260.5" y="534.6" width="14.2" height="14.27" rx="1.971" ry="1.821" fill="#ff3ae1"    stroke-width="1.554"><desc>{ "type": "utility", "i": 1 }</desc></rect><g fill="#f39745"  stroke-width="1.235"><path d="m572.3 311.2h26.71v35.4h-26.71z"  ><desc>{ "type": "misc", "i": "landing gear" }</desc></path><path d="m571.2 410.5h26.71v43.47h-26.71z"  ><desc>{ "type": "misc", "i": "landing gear" }</desc></path><path d="m699.7 410.5h26.71v43.47h-26.71z"  ><desc>{ "type": "misc", "i": "landing gear" }</desc></path><path d="m698.7 311.2h26.71v35.4h-26.71z"  ><desc>{ "type": "misc", "i": "landing gear" }</desc></path></g><g ><path d="m207.7 196.8-4.662 7.133-0.0771 34.25 4.954 0.7856h20.25l4.954-0.7856-0.0769-34.25-4.662-7.133z" fill="#f39746"   stroke-width="1.764"><desc>{ "type": "other", "i": "canopy" }</desc></path><path d="m638.5 199.3-4.662 7.133 0.2246 10.75 5.779-9.988h17.99l5.779 9.988 0.2243-10.75-4.662-7.133z" fill="#f39746"   stroke-width="1.764"><desc>{ "type": "other", "i": "canopy" }</desc></path><circle cx="440.2" cy="163.1" r="3.783" fill="#979797"  stroke-width="2.869"><desc>{ "type": "hard_point", "cl": "gun", "i": 3 }</desc></circle><circle cx="429.8" cy="163.1" r="3.783" fill="#979797"  stroke-width="2.869"><desc>{ "type": "hard_point", "cl": "gun", "i": 4 }</desc></circle><path d="m204.8 550h26.68l-13.34 14.07z" fill="#f39745"   stroke-width="1.764"><desc>{ "type": "misc", "i": "thrusters" }</desc></path><path d="m208 369.8h20.05l0.1977 150.8-5.461 5.549h-9.431l-5.461-5.549z" fill="#f39745"   stroke-width="1.235"><desc>{ "type": "misc", "i": "heat vents" }</desc></path></g><g><g stroke-width="1.235"><path d="m78.51 489.7 14.26-3.3 4.97 21.48-14.26 3.3z" fill="none"  /><path d="m78.51 489.7 14.26-3.3 4.97 21.48-14.26 3.3z" fill="#f39745"   ><desc>{ "type": "misc", "i": "heat vents" }</desc></path><path d="m357.5 489.7-14.26-3.3-4.97 21.48 14.26 3.3z" fill="none"  /><path d="m357.5 489.7-14.26-3.3-4.97 21.48 14.26 3.3z" fill="#f39745"   ><desc>{ "type": "misc", "i": "heat vents" }</desc></path></g><path d="m226.2 535.6a8.125 7.918 0 0 0-8.125-7.918 8.125 7.918 0 0 0-8.125 7.918 8.125 7.918 0 0 0 1.904 5.082l6.221 9.992 6.199-9.959a8.125 7.918 0 0 0 1.926-5.115z" fill="#46d2f3"    stroke-width="1.764"><desc>{ "type": "internal", "i": "entrance" }</desc></path></g></g></svg>
