<svg width="870" height="640" clip-rule="evenodd" fill-rule="evenodd" image-rendering="optimizeQuality" shape-rendering="geometricPrecision" text-rendering="geometricPrecision" version="1.1" viewBox="0 0 870 640" xml:space="preserve" xmlns="http://www.w3.org/2000/svg">
<path d="m77.98 489.7 14.26-3.3 4.97 21.48-14.26 3.3z"  fill="none"    stroke-width="1.235"/><g transform="matrix(.9372 0 0 .9372 1290 36.82)"  fill="none"  ><path d="m-1190 230.7-22.09 0.0347-1.303-5.211 8.712-29.64 2.607-0.9415 15.31 0.1809 3.378 2.739-1.312 27.79z"  stroke-width="1.882"/><path d="m-1237 575.5-12.34 1.285-2.553-54.71 20.14-82.03c0.8344-2.646 3.633-1.722 3.683-0.0515l-0.6463 45.11-3.851 5.539-0.1406 23.31 3.127 2.35 0.7643 40.09z"  stroke-width="1.882"/><path d="m-1229 443.1-19.39 81.02 2.692 52.28"  stroke-width="1.318"/><g stroke-width="1.882"><path d="m-1211 200.8-53.65 79.17-65.21 68.66" /><path d="m-1265 280 115.8 50.97" /><path d="m-1139 343.3-10.55-0.0628 0.037-16.02 10.54 0.023z" /></g><path d="m-1153 255.3h17.44v46.23h-17.44z"  stroke-width="1.318"/><g stroke-width="1.318"><path d="m-1322 382 19.21-7.06 16.6 9.698 9.89 40.65-7.986 18 19.62 78.61" /><path d="m-1288 521.6 36.15 0.4957" /><path d="m-1306 450.3 21.63-6.956" /><path d="m-1327 360.3 73.65-74.75" /><path d="m-1200 231-21.04 39.57 14.71 6.18-12.14 23.7 0.6918 99.84-10.15 16.61 0.2165 13.43" /><path d="m-1241 475.2-0.4247-40.77 2.752-4.273 22.49-0.1758 2.768 3.251 0.2335 46.08 5.44 4.243-3.131 5.67 0.8243 71.35" /></g><path d="m-1227 453.2h9.87v32.44h-9.87z"  stroke-width="1.318"/><g stroke-width="1.318"><path d="m-1208 483.6 0.906 68.88 17.33-0.0791" /><path d="m-1165 539.7-0.3092-30.9-12.78-13.74 0.033-138.6 23.38-0.482-0.1098 160.9 5.828 5.921 5.032 0.0435" /><path d="m-1160 201.2-0.069 13.92 5.305 0.8412 10.84 0.0197" /><path d="m-1155 170.8 0.1223 25.5 10.95-3e-3" /><path d="m-1155 196.3 0.1085 19.66" /><path d="m-1160 192.6 4.874 3.745" /></g><g stroke-width="1.318"><path d="m-1180 212.4h14.09v19.56h-14.09z" /><path d="m-1181 237.1h7.59v5.439h-7.59z" /><path d="m-1154 228.8h20.21v10.44h-20.21z" /></g><g stroke-width="1.318"><path d="m-1160 215.1-0.056 9.574-6.004 7.27-0.4413 25.22 1.729 1.243-0.045 44.45 6.175 16.02" /><path d="m-1144 252.8-8.545-0.0954-3.08-3.284-3.008-8e-3 -0.154 69.53" /><path d="m-1159 249.4-6.284 9.057" /><path d="m-1200 308.2 0.083 40.83 6.882 4.626 6.968-0.3403 8.121 3.215" /><path d="m-1268 300.4 23.68-1.461 0.049-10.25" /><path d="m-1302 374.9-8.118-31.91" /><path d="m-1311 343 92.59-7.199" /><path d="m-1252 424.2-0.1332-39.46 34.35-37.8" /><path d="m-1286 384.6 33.4 0.1398" /><path d="m-1276 425.3 48.44-2.024" /><path d="m-1193 353.6 0.01 52.55 6.043 3.826 0.9718 110.9 14.77 18.79" /></g><g stroke-width="1.882"><path d="m-1174 546.6 18.77 6.87 11.49 0.1736" /><path d="m-1233 565.1 29.22-4e-3 1.018-5.033" /><path d="m-1232 564.7 1.102 3.579 20.64-2e-3 0.7394-3.096" /></g><ellipse transform="matrix(.9759 -.2181 .213 .9771 0 0)" cx="-1361" cy="120.3" rx="6.202" ry="6.299"  stroke-width="1.318"/><path d="m-1312 408.4 14.8-3.472 3.646 15.55-14.8 3.472z"  stroke-width="1.318"/><ellipse transform="matrix(.9759 -.2181 .213 .9771 0 0)" cx="-1358" cy="243" rx="6.202" ry="6.299"  stroke-width="1.318"/><path d="m-1283 527.7 14.8-3.472 3.646 15.55-14.8 3.472z"  stroke-width="1.318"/><path d="m-1266 272.1 1.701 1.475-10.05 12.41-1.7-1.475z"  stroke-width="1.318"/><g stroke-width="1.882"><path d="m-1082 200.9 4.961-0.0475 118.9 147.8-48.78 203.1-30.75 0.371m-19.62 8.548-21.09-0.1393-20.3-2.469-0.243-5.758-11.68 0.1132-6.226-12.8-21.6 0.4001-0.5481 2.797-5.28 0.0749m0-372.1 11.07-0.0894 4.992 7.638 0.014 22.76 23.01-0.0929m-101.4-0.2223-4.961-0.0475-118.9 147.8 48.78 203.1 30.75 0.371m19.62 8.548 21.09-0.1393 20.3-2.469 0.243-5.758 11.68 0.1132 6.226-12.8 21.6 0.4001 0.548 2.797 5.28 0.0749m0-372.1-11.07-0.0894-4.992 7.638-0.014 22.76-23.01-0.0929" /><path d="m-1098 230.7 22.1 0.0347 1.303-5.211-8.712-29.64-2.607-0.9415-15.31 0.1809-3.378 2.739 1.312 27.79z" /><path d="m-1051 575.5 12.34 1.285 2.553-54.71-20.14-82.03c-0.8345-2.646-3.633-1.722-3.683-0.0515l0.6463 45.11 3.851 5.539 0.1406 23.31-3.127 2.35-0.7643 40.09z" /></g><path d="m-1059 443.1 19.39 81.02-2.692 52.28"  stroke-width="1.318"/><path d="m-1077 200.8 53.65 79.17 65.21 68.66"  stroke-width="1.882"/><path d="m-1023 280-115.8 50.97"  stroke-width="1.882"/><g stroke-width="1.318"><path d="m-966.3 382-19.21-7.06-16.6 9.698-9.89 40.65 7.986 18-19.62 78.61" /><path d="m-999.5 521.6-36.15 0.4957" /><path d="m-982.4 450.3-21.63-6.956" /><path d="m-960.7 360.3-73.65-74.75" /><path d="m-1088 231 21.04 39.57-14.71 6.18 12.14 23.7-0.6918 99.84 10.15 16.61-0.2166 13.43" /><path d="m-1047 475.2 0.4247-40.77-2.752-4.273-22.49-0.1758-2.768 3.251-0.2335 46.08-5.44 4.243 3.131 5.67-0.8243 71.35" /></g><path d="m-1061 453.2h-9.87v32.44h9.87z"  stroke-width="1.318"/><g stroke-width="1.318"><path d="m-1080 483.6-0.906 68.88-17.33-0.0791" /><path d="m-1123 539.7 0.3092-30.9 12.78-13.74-0.033-138.6-23.38-0.482 0.1098 160.9-5.828 5.921-5.032 0.0435" /><path d="m-1128 201.2 0.069 13.92-5.305 0.8412-10.84 0.0197" /><path d="m-1133 170.8-0.1223 25.5-10.95-3e-3" /><path d="m-1133 196.3-0.1085 19.66" /><path d="m-1128 192.6-4.874 3.745" /></g><path d="m-1108 212.4h-14.09v19.56h14.09z"  stroke-width="1.318"/><path d="m-1107 237.1h-7.59v5.439h7.59z"  stroke-width="1.318"/><g stroke-width="1.318"><path d="m-1128 215.1 0.056 9.574 6.004 7.27 0.4413 25.22-1.729 1.243 0.045 44.45-6.175 16.02" /><path d="m-1144 252.8 8.545-0.0954 3.08-3.284 3.008-8e-3 0.154 69.53" /><path d="m-1129 249.4 6.284 9.057" /><path d="m-1088 308.2-0.083 40.83-6.882 4.626-6.968-0.3403-8.121 3.215" /><path d="m-1020 300.4-23.68-1.461-0.049-10.25" /><path d="m-985.6 374.9 8.118-31.91" /><path d="m-977.4 343-92.59-7.199" /><path d="m-1036 424.2 0.1332-39.46-34.35-37.8" /><path d="m-1002 384.6-33.4 0.1398" /><path d="m-1012 425.3-48.44-2.024" /><path d="m-1095 353.6-0.01 52.55-6.043 3.826-0.9718 110.9-14.77 18.79" /></g><g stroke-width="1.882"><path d="m-1114 546.6-18.77 6.87-11.49 0.1736" /><path d="m-1055 565.1-29.22-4e-3 -1.018-5.033" /><path d="m-1056 564.7-1.102 3.579-20.64-2e-3 -0.7394-3.096" /></g><ellipse transform="matrix(-.9759 -.2181 -.213 .9771 0 0)" cx="874.5" cy="619.3" rx="6.202" ry="6.299"  stroke-width="1.318"/><path d="m-976.1 408.4-14.8-3.472-3.646 15.55 14.8 3.472z"  stroke-width="1.318"/><ellipse transform="matrix(-.9759 -.2181 -.213 .9771 0 0)" cx="877.1" cy="742.1" rx="6.202" ry="6.299"  stroke-width="1.318"/><path d="m-1005 527.7-14.8-3.472-3.646 15.55 14.8 3.472z"  stroke-width="1.318"/><path d="m-1022 272.1-1.701 1.475 10.05 12.41 1.7-1.475z"  stroke-width="1.318"/><g stroke-width="1.318"><path d="m-1202 535.4h9.709v9.228h-9.709z" /><path d="m-1096 535.4h9.709v9.228h-9.709z" /><path d="m-1149 274.3h9.709v9.228h-9.709z" /></g><path d="m-1159 318.9h29.57"  stroke-width="1.318"/></g><g transform="matrix(.9372 0 0 .9372 1298 36.82)"  fill="none"  ><path d="m-740.2 241.7-22.09 0.0347-1.303-5.211 10.71-40.64 2.607-0.9415 15.31 0.1809 3.378 2.739-3.312 38.79z"  stroke-width="1.882"/><path d="m-708.1 201.2 16.08-0.1523"  stroke-width="1.318"/><path d="m-707.8 192.6 6.188-10.7 9.634 0.0277"  stroke-width="1.318"/><g stroke-width="1.882"><path d="m-629.7 200.9 4.961-0.0475 118.9 147.8-48.78 203.1-30.53 0.1448-18.61-0.014-0.4994 8.761-21.84-0.1113-20.3-2.469-0.243-5.758-11.68 0.1132-6.226-12.8-21.6 0.4001-0.548 2.797-5.28 0.0749m0-369.5 11.07-0.0894 4.992 7.638 0.0138 20.16 23.01-0.0929m-101.4-0.2223-4.961-0.0475-118.9 147.8 48.78 203.1 30.75 0.9014 16.66 0.4985 0.5729 7.491 23.48-0.1106 20.3-2.469 0.243-5.758 11.68 0.1132 6.226-12.8 21.6 0.4001 0.548 2.797 5.28 0.0749m0-369.5-11.07-0.0894-4.992 7.638-0.0138 20.16-23.01-0.0929" /><path d="m-763.6 236.5-17.77 60.99-1.451 121.2 0.8599 134.5" /><path d="m-878.1 348.7 20.24-7.639 76.27-15.05" /><path d="m-734.9 236.6-5.091 54.28 1.179 120.6 1.446 140.8" /></g><path d="m-878.1 348.7 81.7-9.928 0.0767 82.73 14.42 131.7"  stroke-width="1.318"/><g stroke-width="1.318"><path d="m-774 293.5h28.6v37.91h-28.6z" /><path d="m-775.1 399.8h28.6v46.55h-28.6z" /><path d="m-775.5 451h28.6v36.95h-28.6z" /><path d="m-771.2 493.2h19.96v21.27h-19.96z" /><path d="m-696.9 520.8h9.709v9.228h-9.709z" /></g><g stroke-width="1.882"><path d="m-722.3 546.6 18.77 6.87 11.49 0.1736" /><path d="m-793.6 552.8 0.978 7.855 11.25 0.0329 1.47 4.351 31.44-4e-3 1.018-5.673" /><path d="m-777 564.7 1.102 3.579 20.64-2e-3 0.7394-3.096" /><path d="m-787.7 561 0.3522 16.24 7.989-1e-3 3.421-8.968" /></g><g stroke-width="1.318"><path d="m-750.8 331.8 0.2208 29.77-19.32 26.44-0.3772 11.63" /><path d="m-750.5 293.8 3.469-52.17" /><path d="m-779.1 290.6 39.18 0.3159" /></g><path d="m-692 534.8-11.02-0.1188-26.28-135.9-0.2916-157.1 25.52-31.12 12.07-0.2242"  stroke-width="1.882"/><path d="m-738.6 519.5 32.61 0.3159"  stroke-width="1.318"/><path d="m-737.5 503.9 2.89-43.43 4.384-6.327 7.056 0.2308 11.5 65.23"  stroke-width="1.318"/><path d="m-713.6 415.4h43.12l-10.07 56.01h-22.98z"  stroke-width="1.318"/><path d="m-716.1 320.6h48.08v45.02h-48.08z"  stroke-width="1.318"/><path d="m-722.1 290.6 10.25-8.32h40.16l9.83 8.32v105.4l-2.79 2.16h-54.08l-3.371-2.16z"  stroke-width="1.318"/><g stroke-width="1.318"><path d="m-729.7 212.8h9.29v14.44h-9.29z" /><path d="m-703.8 217.8h9.29v14.44h-9.29z" /><path d="m-708.9 239.1h6.405v14.44h-6.405z" /><path d="m-699.9 239.1h6.405v14.44h-6.405z" /></g><ellipse transform="matrix(.7576 .6527 -.6444 .7647 0 0)" cx="-434.9" cy="759.1" rx="4.529" ry="6.298"  stroke-width="1.318"/><path d="m-817.9 286.9 8.513 7.125-10.15 12.33-8.513-7.125z"  stroke-width="1.318"/><ellipse transform="matrix(.9759 -.2181 .213 .9771 0 0)" cx="-910.4" cy="347.4" rx="6.202" ry="6.299"  stroke-width="1.318"/><path d="m-823.7 532 14.8-3.472 3.646 15.55-14.8 3.472z"  stroke-width="1.318"/><ellipse transform="matrix(.9759 -.2181 .213 .9771 0 0)" cx="-915.1" cy="228.7" rx="6.202" ry="6.299"  stroke-width="1.318"/><g stroke-width="1.318"><path d="m-853.6 417 14.8-3.472 3.646 15.55-14.8 3.472z" /><path d="m-722.1 290.6h60.24" /><path d="m-722.1 314.6h60.24" /><path d="m-715.6 290.5 11.82 24.1" /><path d="m-692 290.5-11.82 24.1" /><path d="m-722.1 396h60.24" /><path d="m-715.6 396 11.82-24.1" /><path d="m-692 396-11.82-24.1" /><path d="m-722.1 371.6h60.24" /><path d="m-829.9 335 48.55-37.55" /><path d="m-783.1 242.2 8.288 0.1245 5.409-18.57-13.7 18.44" /><path d="m-867.3 391.1 5.088-1.146 12.28 5.928 4.485 19.44" /><path d="m-835 527.6 8.681-2.315 7.077-9.975-21.96-84.82" /><path d="m-850 395.9 33.31-9.432-9.594-44.22" /><path d="m-816.7 386.5 20.27 14.05" /><path d="m-837.9 392.6 41.57 28.89" /><path d="m-819.2 515.3 33.11 0.1316" /><path d="m-723.9 520 2.778 8.84 18.11 5.871" /></g><path d="m-643.8 241.7 22.09 0.0347 1.303-5.211-10.71-40.64-2.607-0.9415-15.31 0.1809-3.378 2.739 3.312 38.79z"  stroke-width="1.882"/><path d="m-675.9 201.2-16.08-0.1523"  stroke-width="1.318"/><path d="m-676.2 192.6-6.188-10.7-9.634 0.0277"  stroke-width="1.318"/><g stroke-width="1.882"><path d="m-620.4 236.5 17.77 60.99 1.451 121.2-0.8599 134.5" /><path d="m-505.9 348.7-20.24-7.639-76.27-15.05" /><path d="m-649.1 236.6 5.091 54.28-1.179 120.6-1.446 140.8" /></g><path d="m-505.9 348.7-81.7-9.928-0.0767 82.73-14.42 131.7"  stroke-width="1.318"/><g stroke-width="1.318"><path d="m-610 293.5h-28.6v37.91h28.6z" /><path d="m-608.9 399.8h-28.6v46.55h28.6z" /><path d="m-608.5 451h-28.6v36.95h28.6z" /><path d="m-612.8 493.2h-19.96v21.27h19.96z" /></g><g stroke-width="1.882"><path d="m-661.7 546.6-18.77 6.87-11.49 0.1736" /><path d="m-590.4 552.8-0.978 7.855-11.25 0.0329-1.47 4.351-31.44-4e-3 -1.018-5.673" /><path d="m-607 564.7-1.102 3.579-20.64-2e-3 -0.7394-3.096" /><path d="m-596.3 561-0.3522 16.24-7.989-1e-3 -3.421-8.968" /></g><g stroke-width="1.318"><path d="m-633.2 331.8-0.2208 29.77 19.32 26.44 0.3772 11.63" /><path d="m-633.5 293.8-3.469-52.17" /><path d="m-604.9 290.6-39.18 0.3159" /></g><path d="m-692 534.8 11.02-0.1188 26.28-135.9 0.2916-157.1-25.52-31.12-12.07-0.2242"  stroke-width="1.882"/><path d="m-645.4 519.5-32.61 0.3159"  stroke-width="1.318"/><path d="m-646.5 503.9-2.89-43.43-4.384-6.327-7.056 0.2308-11.5 65.23"  stroke-width="1.318"/><g stroke-width="1.318"><path d="m-654.3 212.8h-9.29v14.44h9.29z" /><path d="m-680.2 217.8h-9.29v14.44h9.29z" /><path d="m-675.1 239.1h-6.405v14.44h6.405z" /><path d="m-684.1 239.1h-6.405v14.44h6.405z" /></g><ellipse transform="matrix(-.7576 .6527 .6444 .7647 0 0)" cx="623.5" cy="-144.3" rx="4.529" ry="6.298"  stroke-width="1.318"/><path d="m-566.1 286.9-8.513 7.125 10.15 12.33 8.513-7.125z"  stroke-width="1.318"/><ellipse transform="matrix(-.9759 -.2181 -.213 .9771 0 0)" cx="441.9" cy="649.3" rx="6.202" ry="6.299"  stroke-width="1.318"/><path d="m-560.3 532-14.8-3.472-3.646 15.55 14.8 3.472z"  stroke-width="1.318"/><ellipse transform="matrix(-.9759 -.2181 -.213 .9771 0 0)" cx="437.2" cy="530.5" rx="6.202" ry="6.299"  stroke-width="1.318"/><g stroke-width="1.318"><path d="m-530.4 417-14.8-3.472-3.646 15.55 14.8 3.472z" /><path d="m-668.4 290.5-11.82 24.1" /><path d="m-692 290.5 11.82 24.1" /><path d="m-668.4 396-11.82-24.1" /><path d="m-692 396 11.82-24.1" /><path d="m-554.1 335-48.55-37.55" /><path d="m-600.9 242.2-8.288 0.1245-5.409-18.57 13.7 18.44" /><path d="m-516.7 391.1-5.088-1.146-12.28 5.928-4.485 19.44" /><path d="m-549 527.6-8.681-2.315-7.077-9.975 21.96-84.82" /><path d="m-534 395.9-33.31-9.432 9.594-44.22" /><path d="m-567.3 386.5-20.27 14.05" /><path d="m-546.1 392.6-41.57 28.89" /><path d="m-564.8 515.3-33.11 0.1316" /><path d="m-660.1 520-2.778 8.84-18.11 5.871" /></g></g><g  ><rect x="161" y="535.7" width="14.12" height="14.19" rx="1.971" ry="1.821" fill="#ff3ae1"    stroke-width="1.554"><desc>{ "type": "utility", "i": 3 }</desc></rect><rect x="430.8" y="128.2" width="8.144" height="8.073" fill="#979797"   stroke-width="3.587"><desc>{ "type": "gunsight", "cl": "gun", "i": 0 }</desc></rect><g fill="none" stroke="#979797" stroke-width="3.587"><path d="m442.9 86.92c21.52 3.996 37.82 22.87 37.82 45.55 0 5.371-0.9139 10.53-2.595 15.33m-7.842 13.97c-8.496 10.4-21.42 17.03-35.89 17.03-14.38 0-27.24-6.555-35.74-16.84m-7.716-13.37c-1.862-5.019-2.88-10.45-2.88-16.12 0-23.05 16.84-42.18 38.89-45.74" /><g><path d="m434.9 71.19v15.85" /><path d="m395.6 155.1-13.68 8.014" /><path d="m474.2 155.1 13.68 8.014" /></g></g><g fill="#979797" ><circle cx="458.4" cy="130.9" r="3.783"  stroke-width="3.587"><desc>{ "type": "hard_point", "cl": "gun", "i": 1 }</desc></circle><circle cx="411.3" cy="130.9" r="3.783"  stroke-width="2.869"><desc>{ "type": "hard_point", "cl": "gun", "i": 2 }</desc></circle><circle cx="374.7" cy="178.1" r="3.783"  stroke-width="3.587"><desc>{ "type": "gunsight", "cl": "gun", "i": 4 }</desc></circle></g><rect x="184.2" y="235.9" width="13.2" height="18.33" rx="3.114" ry="3.051" fill="#4df346"    stroke-width="1.661"><desc>{ "type": "hard_point", "i": 2 }</desc></rect></g><path d="m135.7 571.9h26.77l-13.38 14.12z" fill="#f39745"  stroke-width="1.764"><desc>{ "type": "misc", "i": "thrusters" }</desc></path><g  ><path d="m671.9 337.3h-45.06v42.19h45.06z" fill="#f39746"    stroke-width="1.235"><desc>{ "type": "other", "i": "cargo hatch" }</desc></path><g fill="#4df346" ><rect x="239" y="235.9" width="13.2" height="18.33" rx="3.114" ry="3.051"   stroke-width="1.661"><desc>{ "type": "hard_point", "i": 1 }</desc></rect><rect x="613.5" y="235.3" width="9.863" height="15.34" rx="3.114" ry="3.051"   stroke-width="1.661"><desc>{ "type": "hard_point", "i": 3 }</desc></rect><rect x="637.8" y="240.1" width="9.756" height="15.17" rx="3.114" ry="3.051"   stroke-width="1.661"><desc>{ "type": "hard_point", "i": 5 }</desc></rect><rect transform="scale(-1,1)" x="-685.4" y="235.3" width="9.96" height="15.49" rx="3.114" ry="3.051"   stroke-width="1.661"><desc>{ "type": "hard_point", "i": 4 }</desc></rect><rect transform="scale(-1,1)" x="-661" y="240.1" width="9.67" height="15.04" rx="3.114" ry="3.051"   stroke-width="1.661"><desc>{ "type": "hard_point", "i": 6 }</desc></rect></g><g fill="none"  stroke-width="1.235"><path d="m640.4 207.3-2.283 26.87" /><path d="m658.5 207.3 2.283 26.87" /><path d="m551.6 431.8-56.8 13.82" /><path d="m747.2 431.8 56.8 13.82" /></g><g fill="#f39745"  stroke-width="1.764"><path d="m274.6 571.9h26.77l-13.38 14.12z"  ><desc>{ "type": "misc", "i": "thrusters" }</desc></path><path d="m571.2 571.9h26.77l-13.38 14.12z"  ><desc>{ "type": "misc", "i": "thrusters" }</desc></path><path d="m700.9 571.9h26.77l-13.38 14.12z"  ><desc>{ "type": "misc", "i": "thrusters" }</desc></path><path d="m157.2 216.6h26.77l-13.38-14.12z"  ><desc>{ "type": "misc", "i": "thrusters" }</desc></path><path d="m252 216.6h26.77l-13.38-14.12z"  ><desc>{ "type": "misc", "i": "thrusters" }</desc></path><path d="m588.7 216.6h26.77l-13.38-14.12z"  ><desc>{ "type": "misc", "i": "thrusters" }</desc></path><path d="m683.5 216.6h26.77l-13.38-14.12z"  ><desc>{ "type": "misc", "i": "thrusters" }</desc></path><ellipse cx="96.45" cy="537" rx="5.694" ry="5.856"  ><desc>{ "type": "misc", "i": "thrusters" }</desc></ellipse><ellipse cx="69.49" cy="425.2" rx="5.694" ry="5.856"  ><desc>{ "type": "misc", "i": "thrusters" }</desc></ellipse><ellipse cx="366.9" cy="425.1" rx="5.694" ry="5.856"  ><desc>{ "type": "misc", "i": "thrusters" }</desc></ellipse><ellipse cx="340" cy="537" rx="5.694" ry="5.856"  ><desc>{ "type": "misc", "i": "thrusters" }</desc></ellipse><ellipse cx="534.7" cy="541.1" rx="5.694" ry="5.856"  ><desc>{ "type": "misc", "i": "thrusters" }</desc></ellipse><ellipse cx="764.2" cy="541.1" rx="5.694" ry="5.856"  ><desc>{ "type": "misc", "i": "thrusters" }</desc></ellipse><ellipse cx="792.3" cy="433.3" rx="5.694" ry="5.856"  ><desc>{ "type": "misc", "i": "thrusters" }</desc></ellipse><ellipse cx="506.6" cy="433.3" rx="5.694" ry="5.856"  ><desc>{ "type": "misc", "i": "thrusters" }</desc></ellipse><ellipse transform="matrix(.7655 .6434 -.6434 .7655 0 0)" cx="608.8" cy="-100.5" rx="4.184" ry="5.856"  ><desc>{ "type": "misc", "i": "thrusters" }</desc></ellipse><ellipse transform="matrix(-.7655 .6434 .6434 .7655 0 0)" cx="-385.5" cy="735.3" rx="4.184" ry="5.856"  ><desc>{ "type": "misc", "i": "thrusters" }</desc></ellipse><ellipse transform="matrix(.7655 .6434 -.6434 .7655 0 0)" cx="267.7" cy="163.7" rx="4.184" ry="5.856"  ><desc>{ "type": "misc", "i": "thrusters" }</desc></ellipse><ellipse transform="matrix(-.7655 .6434 .6434 .7655 0 0)" cx="-66.17" cy="444.7" rx="4.184" ry="5.856"  ><desc>{ "type": "misc", "i": "thrusters" }</desc></ellipse></g><g fill="#ff3ae1" ><rect x="260.8" y="535.9" width="14.25" height="14.32" rx="1.971" ry="1.821"   stroke-width="1.554"><desc>{ "type": "utility", "i": 2 }</desc></rect><rect x="211.2" y="291.1" width="14.12" height="14.19" rx="1.971" ry="1.821"   stroke-width="1.554"><desc>{ "type": "utility", "i": 1 }</desc></rect><rect x="642.5" y="522.1" width="14.04" height="14.11" rx="1.971" ry="1.821"   stroke-width="1.554"><desc>{ "type": "utility", "i": 4 }</desc></rect></g><g fill="#f39745"  stroke-width="1.235"><path d="m572.6 311.9h26.8v35.52h-26.8z"  ><desc>{ "type": "misc", "i": "landing gear" }</desc></path><path d="m571.6 411.5h26.8v43.62h-26.8z"  ><desc>{ "type": "misc", "i": "landing gear" }</desc></path><path d="m700.5 411.5h26.8v43.62h-26.8z"  ><desc>{ "type": "misc", "i": "landing gear" }</desc></path><path d="m699.5 311.9h26.8v35.52h-26.8z"  ><desc>{ "type": "misc", "i": "landing gear" }</desc></path></g><path d="m207.8 196.9-4.678 7.158-0.0774 34.37 4.972 0.7884h20.32l4.971-0.7884-0.0772-34.37-4.678-7.158z" fill="#f39746"    stroke-width="1.764"><desc>{ "type": "other", "i": "canopy" }</desc></path><path d="m639.1 199.3-4.678 7.158 0.2253 10.79 5.799-10.02h18.06l5.799 10.02 0.2251-10.79-4.678-7.158z" fill="#f39746"    stroke-width="1.764"><desc>{ "type": "other", "i": "canopy" }</desc></path><g fill="#979797"  stroke-width="2.869"><circle cx="409.3" cy="152.1" r="3.783" ><desc>{ "type": "hard_point", "cl": "gun", "i": 4 }</desc></circle><circle cx="440" cy="163.1" r="3.783" ><desc>{ "type": "hard_point", "cl": "gun", "i": 5 }</desc></circle><circle cx="429.8" cy="163.1" r="3.783" ><desc>{ "type": "hard_point", "cl": "gun", "i": 6 }</desc></circle><circle cx="460.2" cy="152.1" r="3.783" ><desc>{ "type": "hard_point", "cl": "gun", "i": 3 }</desc></circle></g><g><g stroke-width="1.235"><path d="m208.1 370.5h20.05l0.1977 150.8-5.461 5.549h-9.431l-5.461-5.549z" fill="#f39745"   ><desc>{ "type": "misc", "i": "heat vents" }</desc></path><path d="m77.98 489.7 14.26-3.3 4.97 21.48-14.26 3.3z" fill="#f39745"   ><desc>{ "type": "misc", "i": "heat vents" }</desc></path><path d="m358.5 489.7-14.26-3.3-4.97 21.48 14.26 3.3z" fill="none"  /><path d="m358.5 489.7-14.26-3.3-4.97 21.48 14.26 3.3z" fill="#f39745"   ><desc>{ "type": "misc", "i": "heat vents" }</desc></path></g><path d="m226.4 554.9a8.125 7.918 0 0 0-8.125-7.918 8.125 7.918 0 0 0-8.125 7.918 8.125 7.918 0 0 0 1.904 5.082l6.221 9.992 6.199-9.959a8.125 7.918 0 0 0 1.926-5.115z" fill="#46d2f3"    stroke-width="1.764"><desc>{ "type": "internal", "i": "entrance" }</desc></path></g></g></svg>
