<svg width="870" height="640" clip-rule="evenodd" fill-rule="evenodd" image-rendering="optimizeQuality" shape-rendering="geometricPrecision" text-rendering="geometricPrecision" version="1.1" viewBox="0 0 870 640" xml:space="preserve" xmlns="http://www.w3.org/2000/svg">
<g><path d="m200.1 144.1h-14v14h14z"  ><desc>{ "type": "internal", "i": "11" }</desc></path><path d="m187.1 158.6h-14v14h14z"  ><desc>{ "type": "internal", "i": "10" }</desc></path><path d="m213.2 158.6h-14v14h14z"  ><desc>{ "type": "internal", "i": "9" }</desc></path><path d="m200.1 282h-14v14h14z"  ><desc>{ "type": "internal", "i": "8" }</desc></path><path d="m200.1 221.7h-14v14h14z"  ><desc>{ "type": "internal", "i": "7" }</desc></path><path d="m179 306.2h-14v14h14z"  ><desc>{ "type": "internal", "i": "6" }</desc></path><path d="m221.2 306.2h-14v14h14z"  ><desc>{ "type": "internal", "i": "5" }</desc></path><path d="m183.1 238.7h-14v14h14z"  ><desc>{ "type": "internal", "i": "4" }</desc></path><path d="m217.3 238.7h-14v14h14z"  ><desc>{ "type": "internal", "i": "3" }</desc></path><path d="m222.5 401.9h-14v14h14z"  ><desc>{ "type": "internal", "i": "distributor" }</desc></path><path d="m222.2 201h-14v14h14z"  ><desc>{ "type": "internal", "i": "1" }</desc></path><path d="m178 201h-14v14h14z"  ><desc>{ "type": "internal", "i": "2" }</desc></path><path d="m697.3 365.1h-14v14h14z"  ><desc>{ "type": "internal", "i": "life support" }</desc></path><path d="m178.5 437h-14v14h14z"  ><desc>{ "type": "internal", "i": "FSD" }</desc></path><path d="m697.3 432.3h-14v14h14z"  ><desc>{ "type": "internal", "i": "PP" }</desc></path><path d="m176.1 538.5h-14v14h14z"  ><desc>{ "type": "internal", "i": "drive" }</desc></path><path d="m224.1 538.5h-14v14h14z"  ><desc>{ "type": "internal", "i": "drive" }</desc></path></g><g transform="translate(1304)"  fill="none"  ><path d="m-614 106.9c-12.49 0.4389-21.63 13.75-28.88 29.64-6.559 14.37-9.925 26.15-14.05 45.6-4.468 21.87-5.189 42.11-5.424 60.67l-0.8926 236.7 1.377 67.71c8.394 5.817 29.04 7.349 41.81 8.387l0.0664-5.854-0.0605-30.96 6.049 0.0312 6.049-0.0312-0.0605 30.96 0.0664 5.854c12.77-1.038 33.42-2.569 41.81-8.387l1.377-67.71-0.8926-236.7c-0.235-18.56-0.9562-38.8-5.424-60.67-4.122-19.45-7.488-31.23-14.05-45.6-7.251-15.89-16.4-29.2-28.88-29.64z"  stroke-width="1.764"/><path d="m-663.5 488.4-70.75 45.07-6.347 12.62 0.1821 16.87 6.276 0.8585 72.25-16.61"  stroke-width="1.764"/><g stroke-width="1.235"><path d="m-734.2 533.5 0.1114 30.35" /><path d="m-663.5 494.4-60.24 42.21c-1.76 1.174-2.47 2.23-2.502 3.561l-0.088 21.9" /><path d="m-662.7 528.5-56.48 12.84c-1.848 0.6434-2.47 2.23-2.502 3.561l-0.088 16.4" /><path d="m-721.4 546.8 59.03-12.83" /><path d="m-715.5 546-0.1734 14.38" /></g><path d="m-663.5 418.2-11.79 6.345-1.756 2.227-41.56 21.26-0.9149 22.49c1.088 0.9369 2.532 1.016 4.22 0.5049l51.59-8.566"  stroke-width="1.764"/><g stroke-width="1.235"><path d="m-666.2 462.7 0.012-21.79c0-2.061-0.9892-2.857-2.243-2.435l-40.26 12.02c-1.848 0.6434-2.47 2.23-2.502 3.561l-0.088 16.4" /><path d="m-711 457 44.64-13.37" /><path d="m-702.4 454.4-0.1734 14.38" /><path d="m-674.3 445.9-0.1734 18.21" /></g><path d="m-660.7 205.4-14.06 8.149-1.756 2.227-59.75 31.72-0.1649 20.99c1.088 0.9369 2.532 1.016 4.22 0.5049l63.37-13.49 6.218-0.0781"  stroke-width="1.764"/><g stroke-width="1.235"><path d="m-654.1 316.6-0.6653 113.1 2.627 98.26-6.986 20.52" /><path d="m-663.1 416 13.35-1.793 0.2095-25.44-13.21 1.751" /><path d="m-662.7 313.6 25.99 9.055 8.723-0.0719c2.975 3.634 8.582 4.116 14 3.898" /><path d="m-614 152.2c-25.49 0.2073-37.79 40.77-40 53.09-1.353 0.0734-3.017 0.5743-3.264 2.609l-3.031 27.9c-0.2083 1.758 0.9554 3.114 2.616 3.965l15.31 8.498-0.1479 12.43-20.07 14.64" /><path d="m-662.2 331.6 26.66-4.027 9.302 52.89c0.1978 0.952 0.9658 1.884 1.883 1.907l10.38 0.0402" /><path d="m-662.2 348.3 3.937 17.2c0.2483 1.049 1.077 1.882 2.533 1.723l18.43-1.974c0.9558-0.1237 2.006 0.67 2.202 2.096l4.618 29.82c0.1978 0.952 0.9658 1.884 1.883 1.907l14.62 0.0402" /><path d="m-652.1 528c10.29 2.813 21.31 4.256 31.67 4.398" /><path d="m-620.1 537.4c-9.416 0.2219-20.43-1.224-27.85-2.909-1.454-0.3342-3.07-0.4657-3.751 1.748l-4.192 13.6" /></g><ellipse transform="matrix(.9999 .0105 -.01575 .9999 0 0)" cx="-638.5" cy="546.5" rx="3.054" ry="3.104"  stroke-width="1.235"/><ellipse transform="matrix(.9999 .01052 -.01571 .9999 0 0)" cx="-616.4" cy="553.5" rx="1.658" ry="1.69"  stroke-width="1.235"/><path d="m-645.8 421.6h6.401v13.45h-6.401z"  stroke-width="1.235"/><path d="m-639.7 219.3h4.81v9.206h-4.81z"  stroke-width="1.235"/><path d="m-620.2 527c-9.723 0.0144-17.8-1.265-26.03-3.095l1.86-44.95c0.2483-2.236 1.265-4.069 2.533-5.785l13.55-18.91c1.081-1.251 1.131-1.733 1.327-3.159l3.493-37.57c0.1978-0.952 0.9658-1.884 1.883-1.907l7.586-0.0402"  stroke-width="1.235"/><ellipse transform="matrix(.9999 .01049 -.01576 .9999 0 0)" cx="-624.4" cy="474.4" rx="4.639" ry="4.712"  stroke-width="1.235"/><path d="m-627.4 497.7h26.85l-0.011-7.987-6.667-19.72h-13.49l-6.629 19.57z"  stroke-width="1.235"/><path d="m-608.1 544.4-11.79-0.03"  stroke-width="1.764"/><path d="m-564.5 488.4 70.75 45.07 6.347 12.62-0.1821 16.87-6.276 0.8585-72.25-16.61"  stroke-width="1.764"/><g stroke-width="1.235"><path d="m-493.8 533.5-0.1114 30.35" /><path d="m-564.5 494.4 60.24 42.21c1.76 1.174 2.47 2.23 2.502 3.561l0.088 21.9" /><path d="m-565.3 528.5 56.48 12.84c1.848 0.6434 2.47 2.23 2.502 3.561l0.088 16.4" /><path d="m-506.6 546.8-59.03-12.83" /><path d="m-512.5 546 0.1734 14.38" /></g><path d="m-564.5 418.2 11.79 6.345 1.756 2.227 41.56 21.26 0.9149 22.49c-1.088 0.9369-2.532 1.016-4.22 0.5049l-51.59-8.566"  stroke-width="1.764"/><g stroke-width="1.235"><path d="m-561.8 462.7-0.012-21.79c0-2.061 0.9892-2.857 2.243-2.435l40.26 12.02c1.848 0.6434 2.47 2.23 2.502 3.561l0.088 16.4" /><path d="m-517 457-44.64-13.37" /><path d="m-525.6 454.4 0.1734 14.38" /><path d="m-553.7 445.9 0.1734 18.21" /></g><path d="m-567.8 204.7 14.56 8.774 1.756 2.227 59.75 31.72 0.1649 20.99c-1.088 0.9369-2.532 1.016-4.22 0.5049l-63.37-13.49-6.218-0.0781"  stroke-width="1.764"/><g stroke-width="1.235"><path d="m-573.9 316.6 0.6653 113.1-2.627 98.26 6.986 20.52" /><path d="m-564.9 416-13.35-1.793-0.2095-25.44 13.21 1.751" /><path d="m-565.3 313.6-25.99 9.055-8.723-0.0719c-2.975 3.634-8.582 4.116-14 3.898" /><path d="m-614 152.2c25.49 0.2073 37.79 40.77 40 53.09 1.353 0.0734 3.017 0.5743 3.264 2.609l3.031 27.9c0.2083 1.758-0.9554 3.114-2.616 3.965l-15.31 8.498 0.1479 12.43 20.07 14.64" /><path d="m-565.8 331.6-26.66-4.027-9.302 52.89c-0.1978 0.952-0.9658 1.884-1.883 1.907l-10.38 0.0402" /><path d="m-565.8 348.3-3.937 17.2c-0.2483 1.049-1.077 1.882-2.533 1.723l-18.43-1.974c-0.9558-0.1237-2.006 0.67-2.202 2.096l-4.618 29.82c-0.1978 0.952-0.9658 1.884-1.883 1.907l-14.62 0.0402" /><path d="m-575.9 528c-10.29 2.813-21.31 4.256-31.67 4.398" /><path d="m-607.9 537.4c9.416 0.2219 20.43-1.224 27.85-2.909 1.454-0.3342 3.07-0.4657 3.751 1.748l4.192 13.6" /></g><ellipse transform="matrix(-.9999 .0105 .01575 .9999 0 0)" cx="589.4" cy="533.6" rx="3.054" ry="3.104"  stroke-width="1.235"/><ellipse transform="matrix(-.9999 .01052 .01571 .9999 0 0)" cx="611.5" cy="540.6" rx="1.658" ry="1.69"  stroke-width="1.235"/><path d="m-582.2 421.6h-6.401v13.45h6.401z"  stroke-width="1.235"/><path d="m-588.3 219.3h-4.81v9.206h4.81z"  stroke-width="1.235"/><path d="m-607.8 527c9.723 0.0144 17.8-1.265 26.03-3.095l-1.86-44.95c-0.2483-2.236-1.265-4.069-2.533-5.785l-13.55-18.91c-1.081-1.251-1.131-1.733-1.327-3.159l-3.493-37.57c-0.1978-0.952-0.9658-1.884-1.883-1.907l-7.586-0.0402"  stroke-width="1.235"/><ellipse transform="matrix(-.9999 .01049 .01576 .9999 0 0)" cx="603.4" cy="461.5" rx="4.639" ry="4.712"  stroke-width="1.235"/><g stroke-width="1.235"><path d="m-635 253.1h42.29v40.06h-42.29z" /><path d="m-619.8 213h11.88v11.89h-11.88z" /><path d="m-617.9 180.7h7.993v15.13h-7.993z" /></g><path d="m-616.4 158.8h4.81v9.206h-4.81z"  stroke-width="1.235"/><g stroke-width="1.235"><ellipse transform="matrix(.9999 .01049 -.01576 .9999 0 0)" cx="-649.2" cy="290.2" rx="4.639" ry="4.712" /><ellipse transform="matrix(.9999 .01049 -.01576 .9999 0 0)" cx="-648.9" cy="312" rx="4.639" ry="4.712" /><ellipse transform="matrix(.9999 .01049 -.01576 .9999 0 0)" cx="-569.8" cy="289.4" rx="4.639" ry="4.712" /><ellipse transform="matrix(.9999 .01049 -.01576 .9999 0 0)" cx="-569.5" cy="311.1" rx="4.639" ry="4.712" /><ellipse transform="matrix(.9999 .01049 -.01576 .9999 0 0)" cx="-609" cy="318.3" rx="4.639" ry="4.712" /></g><g stroke-width="1.235"><path d="m-617.9 435.3h7.993v15.13h-7.993z" /><path d="m-619.1 508.3h10.47v7.707h-10.47z" /><path d="m-619.1 471.9h10.47v10.54h-10.47z" /></g><g stroke-width="1.235"><path d="m-620.7 461.4h13.65v3.642h-13.65z" /><path d="m-620.7 420.6h13.65v12.66h-13.65z" /><path d="m-630.8 513.9h4.203v3.723h-4.203z" /><path d="m-601.5 513.9h4.203v3.723h-4.203z" /><path d="m-649.1 227.4h4.203v3.723h-4.203z" /><path d="m-583.4 227.4h4.203v3.723h-4.203z" /></g><g stroke-width="1.235"><path d="m-614 203-16.21 0.0357c-1.35 0.0337-2.968-0.962-2.94-2.48l0.1398-31.04c0.0566-1.575 0.8073-3.011 2.519-3.025l4.777-7e-3 6.861 4.512 4.852-0.0696" /><path d="m-614 203 16.21 0.0357c1.35 0.0337 2.968-0.962 2.94-2.48l-0.1398-31.04c-0.0566-1.575-0.8073-3.011-2.519-3.025l-4.777-7e-3 -6.861 4.512-4.852-0.0696" /><path d="m-614 336.4-9.008 0.1699-9.232 8.643" /><path d="m-631.2 351.8 34.47 0.0621" /><path d="m-614 336.4 9.008 0.1699 9.232 8.643" /><path d="m-627.6 372.2 27.22 0.0621" /><path d="m-623.5 168.3-0.0649-30.08-3.544-4.541 0.0933-8.835c2.337-4.675 6.538-7.216 12.98-7.34" /><path d="m-604.5 168.3 0.0649-30.08 3.544-4.541-0.0933-8.835c-2.337-4.675-6.538-7.216-12.98-7.34" /></g><ellipse transform="matrix(.9999 .0105 -.01575 .9999 0 0)" cx="-610.3" cy="244.5" rx="3.014" ry="3.064"  stroke-width="1.235"/><ellipse transform="matrix(.9999 .0105 -.01575 .9999 0 0)" cx="-608.6" cy="353.5" rx="3.014" ry="3.064"  stroke-width="1.235"/><g stroke-width="1.235"><path d="m-642.4 248.3 15.45-14.22c1.225-1.154 2.218-1.775 2.19-3.292l-0.1398-22.61c-0.0566-1.575-0.8073-3.011-2.519-3.025l-26.61 0.1735" /><path d="m-585.6 248.3-15.45-14.22c-1.225-1.154-2.218-1.775-2.19-3.292l0.1398-22.61c0.0566-1.575 0.8073-3.011 2.519-3.025l26.61 0.1735" /><path d="m-645.2 503.9 14.14-6.831 0.0328-1.933-13.92-0.0164" /><path d="m-582.7 503.9-14.14-6.831-0.0328-1.933 13.92-0.0164" /></g><g stroke-width="1.235"><ellipse transform="matrix(.9999 .01051 -.01574 .9999 0 0)" cx="-611.6" cy="154.4" rx="2.628" ry="2.673" /><ellipse transform="matrix(.9999 .01051 -.01574 .9999 0 0)" cx="-646.5" cy="217.2" rx="2.628" ry="2.673" /><ellipse transform="matrix(.9999 .01051 -.01574 .9999 0 0)" cx="-629.2" cy="397.6" rx="2.628" ry="2.673" /><ellipse transform="matrix(.9999 .01051 -.01574 .9999 0 0)" cx="-637.7" cy="306.3" rx="2.628" ry="2.673" /><ellipse transform="matrix(.9999 .01051 -.01574 .9999 0 0)" cx="-605.4" cy="545.6" rx="2.628" ry="2.673" /><ellipse transform="matrix(.9999 .01051 -.01574 .9999 0 0)" cx="-636.6" cy="463.5" rx="2.628" ry="2.673" /><ellipse transform="matrix(.9999 .01051 -.01574 .9999 0 0)" cx="-726" cy="270.6" rx="2.628" ry="2.673" /><ellipse transform="matrix(.9999 .01051 -.01574 .9999 0 0)" cx="-699.6" cy="467.5" rx="2.628" ry="2.673" /><ellipse transform="matrix(-.9999 .01051 .01574 .9999 0 0)" cx="581.4" cy="204.3" rx="2.628" ry="2.673" /><ellipse transform="matrix(-.9999 .01051 .01574 .9999 0 0)" cx="598.6" cy="384.7" rx="2.628" ry="2.673" /><ellipse transform="matrix(-.9999 .01051 .01574 .9999 0 0)" cx="590.2" cy="293.4" rx="2.628" ry="2.673" /><ellipse transform="matrix(-.9999 .01051 .01574 .9999 0 0)" cx="591.3" cy="450.6" rx="2.628" ry="2.673" /><ellipse transform="matrix(-.9999 .01051 .01574 .9999 0 0)" cx="501.8" cy="257.7" rx="2.628" ry="2.673" /><ellipse transform="matrix(-.9999 .01051 .01574 .9999 0 0)" cx="528.3" cy="454.6" rx="2.628" ry="2.673" /></g></g><g transform="translate(1121)"  fill="none"  ><path d="m-928 106.9c-12.49 0.4389-21.63 13.75-28.88 29.64-6.559 14.37-9.925 26.15-14.05 45.6-4.468 21.87-5.189 42.11-5.424 60.67l-0.8926 236.7 4.742-2.814 5.752-0.1367 0.1582 70.47-9.275 0.1856 2.514 5.334 7.52 3.256 29.78-0.2031 0.067-5.854-0.061-4.207 8.049-0.0937 8.051 0.0937-0.062 4.207 0.1995 5.854 29.65 0.2031 7.522-3.256 2.512-5.334-9.275-0.1856 0.1582-70.47 5.752 0.1367 4.742 2.814-0.8926-236.7c-0.2351-18.56-0.9562-38.8-5.424-60.67-4.122-19.45-7.488-31.23-14.05-45.6-7.251-15.89-16.4-29.2-28.88-29.64z"  stroke-width="1.764"/><g stroke-width="1.764"><path d="m-977 418.2-11.79 6.345-1.756 2.227-41.56 21.26-0.9149 22.49c1.088 0.9369 2.532 1.016 4.22 0.5049l51.59-8.566" /><path d="m-974.6 205.5-13.56 8.024-1.756 2.227-59.75 31.72-0.1649 20.99c1.088 0.9369 2.532 1.016 4.22 0.5049l63.37-13.49 6.218-0.0781" /><path d="m-977.2 479.5-84.71 53.97-6.347 12.62 0.1821 16.87 6.276 0.8585 85.98-16.61" /><path d="m-968.8 476.4-50.83 42.66-0.031 22.14 43.49-2.271 3.516 2.401 5.931 0.4569" /></g><path d="m-1062 533.5 0.1114 30.35"  stroke-width="1.235"/><path d="m-928 130c-12.54 0.0404-19.38 7.616-19.48 12.9l-2.133 114.7c4.191 8.036 7.29 16.57 8.668 26.74 3.136 1.012 7.337 1.515 12.95 1.311 5.61 0.2045 9.811-0.2984 12.95-1.311 1.378-10.16 4.476-18.7 8.668-26.74l-2.133-114.7c-0.098-5.281-6.944-12.86-19.48-12.9z"  stroke-width="1.764"/><path d="m-952 146.4c-9.446 9.226-19.38 37.1-20.54 82.41 4.798 1.896 17 16.2 20.54 23.93z"  stroke-width="1.764"/><g stroke-width="1.764"><path d="m-964.4 240.3c1.471 15.86 4.03 28.67 7.44 33.93 3.41 5.267 7.771 8.534 13.07 8.883-2.729-14.36-10.24-30.66-20.51-42.82z" /><path d="m-976.3 248.2c10.92 43.11 35.65 45.32 48.35 45.31" /><path d="m-951.5 287.8-0.1542 69.99c-7.735 10.74-7 22.56-7.143 29.14l5.134-7.648c0.3083-19.34 12.58-35.82 25.68-35.9" /><rect x="-966.3" y="357.3" width="3.182" height="22.27" rx="1.591" ry="1.591" /></g><g stroke-width="1.235"><path d="m-958.8 386.9 0.064 68.91-4.991 93.67" /><path d="m-974.4 549.8 38.47-0.1096" /><path d="m-928 310.8c-3.408 0-19.03 0.4884-23.1 0.9179" /><path d="m-928 332.4c-3.408 0-19.03 0.4884-23.1 0.9179" /></g><path d="m-952.6 524.1h13.47v22.02h-13.47z"  stroke-width="1.235"/><path d="m-945.7 486.1h5.541l5.713 32.61-6.198-0.0387-0.016 3.64-7.462 0.0219-3e-4 -7.459-2.347-0.0308 2.896-27.06c0.1625-0.8964 0.6517-1.557 1.871-1.69z"  stroke-width="1.235"/><ellipse transform="matrix(.9999 .01049 -.01576 .9999 0 0)" cx="-930.6" cy="429.2" rx="4.639" ry="4.712"  stroke-width="1.235"/><path d="m-940 390h4.81v9.206h-4.81z"  stroke-width="1.235"/><path d="m-879.6 248.2c-10.92 43.11-35.65 45.32-48.35 45.31"  stroke-width="1.764"/><path d="m-904.4 287.8 0.1542 69.99c7.735 10.74 7 22.56 7.143 29.14l-5.134-7.648c-0.3083-19.34-12.58-35.82-25.68-35.9"  stroke-width="1.764"/><path d="m-903.3 524.1h-13.47v22.02h13.47z"  stroke-width="1.235"/><path d="m-910.2 486.1h-5.541l-5.713 32.61 6.198-0.0387 0.016 3.64 7.461 0.0219 4e-4 -7.459 2.347-0.0308-2.896-27.06c-0.1625-0.8964-0.6517-1.557-1.871-1.69z"  stroke-width="1.235"/><g transform="translate(-291.6)"   stroke-width="1.235"><path d="m-676.5 291.5 2.56-0.506v2.518l-2.56 0.506z" /><path d="m-676.5 296.7 2.56-0.506v2.518l-2.56 0.506z" /><path d="m-676.5 302 2.56-0.506v2.518l-2.56 0.506z" /><path d="m-676.5 309.8 2.56-0.506v2.518l-2.56 0.506z" /><path d="m-676.5 314.7 2.56-0.506v2.518l-2.56 0.506z" /><path d="m-676.5 278.4 2.56-0.506v2.518l-2.56 0.506z" /></g><g transform="translate(-291.6)"   stroke-width="1.235"><path d="m-676.5 339.7 2.56-0.506v2.518l-2.56 0.506z" /><path d="m-676.5 344.6 2.56-0.506v2.518l-2.56 0.506z" /><path d="m-676.5 349.6 2.56-0.506v2.518l-2.56 0.506z" /></g><g stroke-width="1.235"><path d="m-979.8 462.7 0.012-21.79c0-2.061-0.9892-2.857-2.243-2.435l-40.26 12.02c-1.848 0.6434-2.47 2.23-2.502 3.561l-0.088 16.4" /><path d="m-1005 506.9-45.99 29.71c-1.76 1.174-2.47 2.23-2.502 3.561l-0.088 21.9" /><path d="m-1020 537.8-27.23 3.587c-1.848 0.6434-2.47 2.23-2.502 3.561l-0.088 16.4" /><path d="m-1025 457 44.64-13.37" /><path d="m-1016 454.4-0.1734 14.38" /><path d="m-987.9 445.9-0.1734 18.21" /><path d="m-1049 546.8 44.03-6.331" /><path d="m-1043 546-0.1734 14.38" /><path d="m-993.8 539.8-0.1734 10.85" /><path d="m-979.7 538.8-0.042-37.61c-0.038-1.581-1.525-2.121-2.51-1.39l-30.86 25.7c-1.671 1.616-1.939 2.318-1.972 3.649l-0.088 12.25" /></g><path d="m-937.8 485.5h19.6l-4.875 28.96h-9.847z"  stroke-width="1.235"/><path d="m-951.7 296.3-5.27 18.82-0.1532 53.57"  stroke-width="1.235"/><path d="m-928 447.2-5.434 0.0332-1.791 1.953-0.1172 4.736-5.686 0.127c-4.006 0.0691-6.936 1.412-7.09 6.051l-0.0312 6.414 4.279 1.129-0.0606 4.914-4.189 1.303c-0.1282 2.371 0.5663 4.304 3.092 4.4h34.05c2.526-0.0962 3.222-2.03 3.094-4.4l-4.19-1.303-0.0625-4.914 4.281-1.129-0.0332-6.414c-0.1539-4.639-3.084-5.982-7.09-6.051l-5.684-0.127-0.1191-4.736-1.791-1.953z"  stroke-width="1.235"/><path d="m-937.8 474.2h19.6l-0.8976-4.72h-17.8z"  stroke-width="1.235"/><g stroke-width="1.235"><path d="m-953.6 379.2 0.064 72.98-7.996 97.74" /><path d="m-953.6 379.2 19.36-13.16 6.32-0.0546" /><path d="m-970.7 264.7-0.1733 211.7" /></g><path d="m-934.6 529.8h13.47v11.58h-13.47z"  stroke-width="1.235"/><path d="m-928 109.8c-6.457 0.183-12.79 4.664-22.33 14.32"  stroke-width="1.235"/><path d="m-928 111.6c-4.632 0.1312-7.911 2.487-9.259 3.998 2.253-0.8189 5.22-1.361 9.259-1.372"  stroke-width="1.235"/><g stroke-width="1.764"><path d="m-878.9 418.2 11.79 6.345 1.756 2.227 41.56 21.26 0.9149 22.49c-1.088 0.9369-2.532 1.016-4.22 0.5049l-51.59-8.566" /><path d="m-881.3 205.5 13.56 8.024 1.756 2.227 59.75 31.72 0.1649 20.99c-1.088 0.9369-2.532 1.016-4.22 0.5049l-63.37-13.49-6.218-0.0781" /><path d="m-878.7 479.5 84.71 53.97 6.347 12.62-0.1821 16.87-6.276 0.8585-85.98-16.61" /><path d="m-887.1 476.4 50.83 42.66 0.031 22.14-43.49-2.271-3.516 2.401-5.931 0.4569" /></g><path d="m-794 533.5-0.1114 30.35"  stroke-width="1.235"/><path d="m-903.9 146.4c9.446 9.226 19.38 37.1 20.54 82.41-4.798 1.896-17 16.2-20.54 23.93z"  stroke-width="1.764"/><path d="m-891.6 240.3c-1.471 15.86-4.03 28.67-7.44 33.93-3.41 5.267-7.771 8.534-13.07 8.883 2.729-14.36 10.24-30.66 20.51-42.82z"  stroke-width="1.764"/><rect transform="scale(-1,1)" x="889.6" y="357.3" width="3.182" height="22.27" rx="1.591" ry="1.591"  stroke-width="1.764"/><g stroke-width="1.235"><path d="m-897.2 386.9-0.064 68.91 4.991 93.67" /><path d="m-881.5 549.8-38.47-0.1096" /><path d="m-928 310.8c3.408 0 19.03 0.4884 23.1 0.9179" /><path d="m-928 332.4c3.408 0 19.03 0.4884 23.1 0.9179" /></g><ellipse transform="matrix(-.9999 .01049 .01576 .9999 0 0)" cx="925.2" cy="409.7" rx="4.639" ry="4.712"  stroke-width="1.235"/><path d="m-915.9 390h-4.81v9.206h4.81z"  stroke-width="1.235"/><g transform="matrix(-1 0 0 1 -1564 0)"   stroke-width="1.235"><path d="m-676.5 291.5 2.56-0.506v2.518l-2.56 0.506z" /><path d="m-676.5 296.7 2.56-0.506v2.518l-2.56 0.506z" /><path d="m-676.5 302 2.56-0.506v2.518l-2.56 0.506z" /><path d="m-676.5 309.8 2.56-0.506v2.518l-2.56 0.506z" /><path d="m-676.5 314.7 2.56-0.506v2.518l-2.56 0.506z" /><path d="m-676.5 278.4 2.56-0.506v2.518l-2.56 0.506z" /></g><g transform="matrix(-1 0 0 1 -1564 0)"   stroke-width="1.235"><path d="m-676.5 339.7 2.56-0.506v2.518l-2.56 0.506z" /><path d="m-676.5 344.6 2.56-0.506v2.518l-2.56 0.506z" /><path d="m-676.5 349.6 2.56-0.506v2.518l-2.56 0.506z" /></g><g stroke-width="1.235"><path d="m-876.1 462.7-0.012-21.79c0-2.061 0.9892-2.857 2.243-2.435l40.26 12.02c1.848 0.6434 2.47 2.23 2.502 3.561l0.088 16.4" /><path d="m-850.5 506.9 45.99 29.71c1.76 1.174 2.47 2.23 2.502 3.561l0.088 21.9" /><path d="m-836.3 537.8 27.23 3.587c1.848 0.6434 2.47 2.23 2.502 3.561l0.088 16.4" /><path d="m-831.3 457-44.64-13.37" /><path d="m-840 454.4 0.1734 14.38" /><path d="m-868 445.9 0.1733 18.21" /><path d="m-806.8 546.8-44.03-6.331" /><path d="m-812.8 546 0.1734 14.38" /><path d="m-862.1 539.8 0.1734 10.85" /><path d="m-876.2 538.8 0.042-37.61c0.038-1.581 1.525-2.121 2.51-1.39l30.86 25.7c1.671 1.616 1.939 2.318 1.972 3.649l0.088 12.25" /><path d="m-904.2 296.3 5.27 18.82 0.1532 53.57" /><path d="m-902.3 379.2-0.064 72.98 7.996 97.74" /><path d="m-902.3 379.2-19.36-13.16-6.32-0.0546" /><path d="m-885.3 264.7 0.1734 211.7" /><path d="m-928 109.8c6.457 0.183 12.79 4.664 22.33 14.32" /><path d="m-928 111.6c4.632 0.1312 7.911 2.487 9.259 3.998-2.253-0.8189-5.22-1.361-9.259-1.372" /></g><path d="m-930.1 370.9h4.203v3.723h-4.203z"  stroke-width="1.235"/><path d="m-930.1 524.3h4.203v3.723h-4.203z"  stroke-width="1.235"/><ellipse transform="matrix(.8656 .5008 -.4568 .8896 0 0)" cx="-788.1" cy="594.8" rx="1.518" ry="2.672"  stroke-width="1.236"/><ellipse transform="matrix(.9999 .01051 -.01574 .9999 0 0)" cx="-1039" cy="273.9" rx="2.628" ry="2.673"  stroke-width="1.235"/><ellipse transform="matrix(.9999 .01051 -.01574 .9999 0 0)" cx="-1013" cy="471.2" rx="2.628" ry="2.673"  stroke-width="1.235"/><ellipse transform="matrix(.9999 .01729 -.009565 1 0 0)" cx="-966.8" cy="254.1" rx="1.597" ry="2.673"  stroke-width="1.235"/><ellipse transform="matrix(.9999 .01359 -.01216 .9999 0 0)" cx="-957.7" cy="456.5" rx="2.031" ry="2.673"  stroke-width="1.235"/><ellipse transform="matrix(-.8656 .5008 .4568 .8896 0 0)" cx="865.1" cy="-335.8" rx="1.518" ry="2.672"  stroke-width="1.236"/><ellipse transform="matrix(-.9999 .01051 .01574 .9999 0 0)" cx="816.8" cy="254.4" rx="2.628" ry="2.673"  stroke-width="1.235"/><ellipse transform="matrix(-.9999 .01051 .01574 .9999 0 0)" cx="842.6" cy="451.7" rx="2.628" ry="2.673"  stroke-width="1.235"/><ellipse transform="matrix(-.9999 .01729 .009565 1 0 0)" cx="889.2" cy="222" rx="1.597" ry="2.673"  stroke-width="1.235"/><ellipse transform="matrix(-.9999 .01359 .01216 .9999 0 0)" cx="898.2" cy="431.2" rx="2.031" ry="2.673"  stroke-width="1.235"/></g><g  ><rect x="187" y="366.8" width="12.36" height="11.87" rx="1.971" ry="1.821" fill="#ff3ae1"    stroke-width="1.554"><desc>{ "type": "utility", "i": 1 }</desc></rect><rect x="430.8" y="128.2" width="8.144" height="8.073" fill="#979797"   stroke-width="3.587"><desc>{ "type": "gunsight", "cl": "gun", "i": 0 }</desc></rect><g fill="none" stroke="#979797" stroke-width="3.587"><path d="m442.9 86.92c21.52 3.996 37.82 22.87 37.82 45.55 0 5.371-0.9139 10.53-2.595 15.33m-7.842 13.97c-8.496 10.4-21.42 17.03-35.89 17.03-14.38 0-27.24-6.555-35.74-16.84m-7.716-13.37c-1.862-5.019-2.88-10.45-2.88-16.12 0-23.05 16.84-42.18 38.89-45.74" /><g><path d="m434.9 71.19v15.85" /><path d="m395.6 155.1-13.68 8.014" /><path d="m474.2 155.1 13.68 8.014" /></g></g><g ><circle cx="434.9" cy="248.6" r="3.783" fill="#979797"  stroke-width="2.869"><desc>{ "type": "hard_point", "cl": "gun", "i": 5 }</desc></circle><circle cx="365.1" cy="-244.2" r="3.783" fill="#979797"  stroke-width="3.587"><desc>{ "type": "gunsight", "cl": "gun", "i": 1 }</desc></circle><rect x="662.5" y="216.1" width="8.79" height="15.51" rx="3.114" ry="3.051" fill="#4df346"   stroke-width="1.661"><desc>{ "type": "hard_point", "i": 4 }</desc></rect><g><path d="m696.2 213h-11.88v11.89h11.88z" fill="#f39746"   stroke-width="1.235"><desc>{ "type": "other", "i": "cargo hatch" }</desc></path><path d="m170.9 124.1c7.684-8.219 15.21-14.2 22.33-14.32 6.352 0.212 11.27 3.696 22.33 14.32-8.004-14.02-16.57-17.29-22.33-17.28-6.374 0.0559-15.31 4.508-22.33 17.28z" fill="#f39746"   stroke-width="1.764"><desc>{ "type": "other", "i": "canopy" }</desc></path><ellipse cx="77.92" cy="263.1" rx="4.6" ry="4.72" fill="#f39745"   stroke-width="1.764"><desc>{ "type": "misc", "i": "thrusters" }</desc></ellipse><path d="m183.9 115.6c2.871-1.161 7.931-1.35 9.259-1.372 1.38 0.0395 6.752 0.4374 9.259 1.372-1.493-2.616-6.49-4.376-9.268-4.356-2.467-0.0961-7.94 1.974-9.25 4.356z" fill="#f39746"   stroke-width="1.764"><desc>{ "type": "other", "i": "canopy" }</desc></path></g></g><g fill="#ff3ae1" ><rect x="187.1" y="520.3" width="12.22" height="11.73" rx="1.971" ry="1.821"   stroke-width="1.554"><desc>{ "type": "utility", "i": 2 }</desc></rect><rect x="651.1" y="223.4" width="12.13" height="11.64" rx="1.971" ry="1.821"   stroke-width="1.554"><desc>{ "type": "utility", "i": 6 }</desc></rect><rect x="716.9" y="223.1" width="12.42" height="11.93" rx="1.971" ry="1.821"   stroke-width="1.554"><desc>{ "type": "utility", "i": 5 }</desc></rect><rect x="669.4" y="510.1" width="12.07" height="11.59" rx="1.971" ry="1.821"   stroke-width="1.554"><desc>{ "type": "utility", "i": 3 }</desc></rect><rect x="698.5" y="509.7" width="12.57" height="12.07" rx="1.971" ry="1.821"   stroke-width="1.554"><desc>{ "type": "utility", "i": 4 }</desc></rect></g><g fill="#4df346"  stroke-width="1.661"><rect x="709.1" y="216.1" width="8.79" height="15.51" rx="3.114" ry="3.051"  ><desc>{ "type": "hard_point", "i": 3 }</desc></rect><rect x="685.8" y="155.5" width="8.79" height="15.51" rx="3.114" ry="3.051"  ><desc>{ "type": "hard_point", "i": 5 }</desc></rect><rect x="179.1" y="387" width="8.79" height="15.51" rx="3.114" ry="3.051"  ><desc>{ "type": "hard_point", "i": 1 }</desc></rect><rect x="198.5" y="387" width="8.79" height="15.51" rx="3.114" ry="3.051"  ><desc>{ "type": "hard_point", "i": 2 }</desc></rect></g><g ><path d="m711.4 253.1h-42.29v40.06h42.29z" fill="#f39746"   stroke-width="1.235"><desc>{ "type": "other", "i": "fighter bay" }</desc></path><path d="m641.4 390.5 13.21-1.751-0.2095 25.44-13.35 1.793z" fill="#f39745"   stroke-width="1.235"><desc>{ "type": "misc", "i": "landing gear" }</desc></path><path d="m738.9 390.5-13.21-1.751 0.2095 25.44 13.35 1.793z" fill="#f39745"   stroke-width="1.235"><desc>{ "type": "misc", "i": "landing gear" }</desc></path><path d="m678.5 166.5-4.779 6e-3c-1.711 0.0147-2.461 1.451-2.518 3.025l-0.1406 31.04c-0.0277 1.518 1.591 2.514 2.941 2.48l16.21-0.0371 16.21 0.0371c1.35 0.0337 2.967-0.9625 2.939-2.48l-0.1387-31.04c-0.0566-1.575-0.808-3.011-2.52-3.025l-4.777-6e-3 -6.861 4.51-4.852-0.0684-4.854 0.0684z" fill="#f49644"   stroke-width="1.235"><desc>{ "type": "misc", "i": "landing gear" }</desc></path></g><g fill="#f39745" ><ellipse cx="152" cy="237.6" rx="3.471" ry="4.72"   stroke-width="1.764"><desc>{ "type": "misc", "i": "thrusters" }</desc></ellipse><ellipse transform="rotate(28.8)" cx="211.2" cy="37.25" rx="3.251" ry="4.72"   stroke-width="1.764"><desc>{ "type": "misc", "i": "thrusters" }</desc></ellipse><g stroke-width="1.764"><ellipse cx="158" cy="443.4" rx="3.819" ry="4.72"  ><desc>{ "type": "misc", "i": "thrusters" }</desc></ellipse><ellipse cx="100.8" cy="460.5" rx="4.6" ry="4.72"  ><desc>{ "type": "misc", "i": "thrusters" }</desc></ellipse><ellipse transform="scale(-1,1)" cx="-308.5" cy="263.1" rx="4.6" ry="4.72"  ><desc>{ "type": "misc", "i": "thrusters" }</desc></ellipse><ellipse transform="scale(-1,1)" cx="-234.4" cy="237.6" rx="3.471" ry="4.72"  ><desc>{ "type": "misc", "i": "thrusters" }</desc></ellipse></g><ellipse transform="matrix(-.8763 .4818 .4818 .8763 0 0)" cx="-127.4" cy="223.4" rx="3.251" ry="4.72"   stroke-width="1.764"><desc>{ "type": "misc", "i": "thrusters" }</desc></ellipse><g stroke-width="1.764"><ellipse transform="scale(-1,1)" cx="-228.4" cy="443.4" rx="3.819" ry="4.72"  ><desc>{ "type": "misc", "i": "thrusters" }</desc></ellipse><ellipse transform="scale(-1,1)" cx="-285.6" cy="460.5" rx="4.6" ry="4.72"  ><desc>{ "type": "misc", "i": "thrusters" }</desc></ellipse><ellipse transform="scale(-1,1)" cx="-690.2" cy="148" rx="4.6" ry="4.72"  ><desc>{ "type": "misc", "i": "thrusters" }</desc></ellipse><ellipse transform="scale(-1,1)" cx="-690.2" cy="539.1" rx="4.6" ry="4.72"  ><desc>{ "type": "misc", "i": "thrusters" }</desc></ellipse><ellipse transform="scale(-1,1)" cx="-597.2" cy="460.2" rx="4.6" ry="4.72"  ><desc>{ "type": "misc", "i": "thrusters" }</desc></ellipse><ellipse transform="scale(-1,1)" cx="-660.3" cy="456.7" rx="4.6" ry="4.72"  ><desc>{ "type": "misc", "i": "thrusters" }</desc></ellipse><ellipse transform="scale(-1,1)" cx="-668.7" cy="390.9" rx="4.6" ry="4.72"  ><desc>{ "type": "misc", "i": "thrusters" }</desc></ellipse><ellipse transform="scale(-1,1)" cx="-661.7" cy="299.6" rx="4.6" ry="4.72"  ><desc>{ "type": "misc", "i": "thrusters" }</desc></ellipse><ellipse transform="scale(-1,1)" cx="-573.9" cy="262.9" rx="4.6" ry="4.72"  ><desc>{ "type": "misc", "i": "thrusters" }</desc></ellipse><ellipse transform="scale(-1,1)" cx="-654.4" cy="210.3" rx="4.6" ry="4.72"  ><desc>{ "type": "misc", "i": "thrusters" }</desc></ellipse><ellipse cx="783.2" cy="460.2" rx="4.6" ry="4.72"  ><desc>{ "type": "misc", "i": "thrusters" }</desc></ellipse><ellipse cx="720.1" cy="456.7" rx="4.6" ry="4.72"  ><desc>{ "type": "misc", "i": "thrusters" }</desc></ellipse><ellipse cx="711.7" cy="390.9" rx="4.6" ry="4.72"  ><desc>{ "type": "misc", "i": "thrusters" }</desc></ellipse><ellipse cx="718.7" cy="299.6" rx="4.6" ry="4.72"  ><desc>{ "type": "misc", "i": "thrusters" }</desc></ellipse><ellipse cx="806.5" cy="262.9" rx="4.6" ry="4.72"  ><desc>{ "type": "misc", "i": "thrusters" }</desc></ellipse><ellipse cx="726" cy="210.3" rx="4.6" ry="4.72"  ><desc>{ "type": "misc", "i": "thrusters" }</desc></ellipse><path d="m243.8 259.6v12.01l6.334-6.005z"  ><desc>{ "type": "misc", "i": "thrusters" }</desc></path><path d="m244.4 421.1v12.01l6.334-6.005z"  ><desc>{ "type": "misc", "i": "thrusters" }</desc></path><path d="m142.5 259.6v12.01l-6.334-6.005z"  ><desc>{ "type": "misc", "i": "thrusters" }</desc></path><path d="m141.8 421.1v12.01l-6.334-6.005z"  ><desc>{ "type": "misc", "i": "thrusters" }</desc></path><path d="m740.8 259.6v12.01l6.334-6.005z"  ><desc>{ "type": "misc", "i": "thrusters" }</desc></path><path d="m639.5 259.6v12.01l-6.334-6.005z"  ><desc>{ "type": "misc", "i": "thrusters" }</desc></path><path d="m154 560.1h30.49l-15.25 16.08z"  ><desc>{ "type": "misc", "i": "thrusters" }</desc></path><path d="m201.6 560.1h30.49l-15.25 16.08z"  ><desc>{ "type": "misc", "i": "thrusters" }</desc></path><path d="m650.8 560.1h30.49l-15.25 16.08z"  ><desc>{ "type": "misc", "i": "thrusters" }</desc></path><path d="m698.4 560.1h30.49l-15.25 16.08z"  ><desc>{ "type": "misc", "i": "thrusters" }</desc></path><path d="m144.1 202.4-20.79 7.135 6.63-14.53z"  ><desc>{ "type": "misc", "i": "thrusters" }</desc></path><path d="m242.1 202.4 20.79 7.135-6.63-14.53z"  ><desc>{ "type": "misc", "i": "thrusters" }</desc></path><path d="m641.1 202.4-20.79 7.135 6.63-14.53z"  ><desc>{ "type": "misc", "i": "thrusters" }</desc></path><path d="m739.1 202.4 20.79 7.135-6.63-14.53z"  ><desc>{ "type": "misc", "i": "thrusters" }</desc></path></g></g><g fill="#979797"  stroke-width="2.869"><circle cx="529.1" cy="251.5" r="3.783" ><desc>{ "type": "hard_point", "cl": "gun", "i": 4 }</desc></circle><circle cx="337.2" cy="251.5" r="3.783" ><desc>{ "type": "hard_point", "cl": "gun", "i": 3 }</desc></circle><circle cx="471.4" cy="-65.51" r="3.783" ><desc>{ "type": "hard_point", "cl": "gun", "i": 2 }</desc></circle><circle cx="397.9" cy="-65.51" r="3.783" ><desc>{ "type": "hard_point", "cl": "gun", "i": 1 }</desc></circle></g><g fill="#f39745" ><g stroke-width="1.764"><ellipse cx="183.9" cy="419.3" rx="4.6" ry="4.72"  ><desc>{ "type": "misc", "i": "heat vents" }</desc></ellipse><ellipse cx="202.6" cy="419.3" rx="4.6" ry="4.72"  ><desc>{ "type": "misc", "i": "heat vents" }</desc></ellipse><ellipse cx="650.5" cy="283.4" rx="4.6" ry="4.72"  ><desc>{ "type": "misc", "i": "heat vents" }</desc></ellipse><ellipse cx="650.5" cy="305.1" rx="4.6" ry="4.72"  ><desc>{ "type": "misc", "i": "heat vents" }</desc></ellipse><ellipse cx="729.8" cy="283.4" rx="4.6" ry="4.72"  ><desc>{ "type": "misc", "i": "heat vents" }</desc></ellipse><ellipse cx="729.8" cy="305.1" rx="4.6" ry="4.72"  ><desc>{ "type": "misc", "i": "heat vents" }</desc></ellipse></g><path d="m646.3 334.6 19.04-2.956 3.906 20.73-19.17 3.5z"   stroke-width="1.235"><desc>{ "type": "misc", "i": "heat vents" }</desc></path><path d="m733.9 334.6-19.04-2.956-3.906 20.73 19.17 3.5z"   stroke-width="1.235"><desc>{ "type": "misc", "i": "heat vents" }</desc></path></g><path d="m200.1 310.1h-14v14h14z" fill="#46d2f3"    stroke-width="1.235"><desc>{ "type": "internal", "i": "12" }</desc></path><path d="m681.9 241.9a8.125 7.918 0 0 0 8.125 7.918 8.125 7.918 0 0 0 8.125-7.918 8.125 7.918 0 0 0-1.904-5.082l-6.221-9.992-6.199 9.959a8.125 7.918 0 0 0-1.926 5.115z" fill="#46d2f3"    stroke-width="1.764"><desc>{ "type": "internal", "i": "entrance" }</desc></path></g></svg>
