<svg width="870" height="640" clip-rule="evenodd" fill-rule="evenodd" image-rendering="optimizeQuality" shape-rendering="geometricPrecision" text-rendering="geometricPrecision" version="1.1" viewBox="0 0 870 640" xml:space="preserve" xmlns="http://www.w3.org/2000/svg">
<g transform="translate(1081)"  fill="none"  ><path d="m-547.8 350.4 9.976 2.379-48.9 89.22-17.51-0.141-3.282-23.16"  stroke-width="1.764"/><ellipse transform="matrix(.9999 .0105 -.01575 .9999 0 0)" cx="-602.3" cy="499.1" rx="4.11" ry="4.177"  stroke-width="1.235"/><ellipse transform="matrix(.9999 .0105 -.01575 .9999 0 0)" cx="-497.2" cy="312.2" rx="4.11" ry="4.177"  stroke-width="1.235"/><path d="m-567.8 450.4h18.31v18.45h-18.31z"  stroke-width="1.235"/><g stroke-width="1.764"><path d="m-499.2 521.7 4.755 20.31 6.219 8.493 21.75-0.0301 10.15-9.704 3.651-18.29" /><path d="m-506.7 521.8 2.569 20.31 3.235 6.993 2.625 0.2199-3.39-8.454 0.723-18.92" /><path d="m-445 521.8-2.569 20.31-3.235 6.993-2.625 0.2199 3.39-8.454-0.723-18.92" /><path d="m-516.1 315.8 2.85 4.903-64.71 116.3-0.572 77.43" /></g><path d="m-593.5 453.3h11.29v19.84h-11.29z"  stroke-width="1.235"/><path d="m-406.7 401.7h-41.04v42.35h41.04z"  stroke-width="1.235"/><path d="m-514.5 313.6 21.12 10.68-42.71 109-0.572 77.43"  stroke-width="1.764"/><path d="m-478.2 303.5-2.775 48.65-19.46 81.05-0.572 77.43"  stroke-width="1.764"/><path d="m-513.2 320.7 9.979 3.013 13.07-11.24 0.1545-8.706 27.41 0.3206 5.232 7.609 30.14-0.1295"  stroke-width="1.235"/><path d="m-488.1 289.3h24.81v11.2h-24.81z"  stroke-width="1.235"/><path d="m-457.3 295.8-1.414 6.58h62.88l-1.414-6.58h-30.02z"  stroke-width="1.235"/><path d="m-531 437.7h24.5v35.96h-24.5z"  stroke-width="1.235"/><path d="m-523.8 477.4h19.02v21.99h-26.27v-16.56z"  stroke-width="1.235"/><path d="m-485.6 471.4h23.09v36.13h-23.09z"  stroke-width="1.235"/><path d="m-445 510.5-0.0442-33.1-9.447-11.14-29.94-0.1069-7.12 7.6-0.0309 36.71"  stroke-width="1.235"/><g stroke-width="1.235"><path d="m-467.8 437.5h15.68v14.57h-15.68z" /><path d="m-467.8 420.5 11.09-17.62h4.59v31.95h-15.68z" /><path d="m-456.2 350.1h5.68v16.32h-5.68z" /></g><g stroke-width="1.235"><path d="m-440 336.9-2.652 10.94 6.541 45.56h17.65l6.541-45.56-2.65-10.94h-12.71z" /><path d="m-438.6 374.3-26.21 0.0358-8.613-9.449 3e-3 -27.14 15.05-11.52 13.14 0.0562 10.21 10.28" /><path d="m-457.4 311.7-5.269 5.669 4.302 8.865" /><path d="m-482.6 358-17.66 12.1-3.285 13.08-11.42 7.789-16.02 42.13-0.0328 4.656" /><path d="m-445.1 491.8 10.47 0.0273 3.25 4.54 4.1-0.0167" /><path d="m-541.3 371.4 15.77-0.4306 7.642-10.25 10.88-1.272" /><path d="m-545.6 476.9 0.6602-43.67 47.83-107.5-6.19-2.012" /><path d="m-484.4 466.2-3.302-5.197-0.1357-41.89 4.472-5.03 7.359 0.1801-0.4303-19.96 11.64-19.9" /><path d="m-578.4 509.2-22.13-0.4102-8e-3 -8.346-19.42-0.3752-14.22-1.911" /><path d="m-427.2 336.8 0.043 56.35" /><path d="m-518.7 437.4 0.043 36.01" /></g><path d="m-476.2 271.4-10.82 11.2-4.857 1.51-22.2 26.3-0.4727 3.188-33.24 36.76-3.502 0.1016-57.43 60.18 1.209 8.01-24.11 26.89-3.025 67.89 56.1 1.014 2.316-4.035 134.7 0.6348 14.25 0.0117h2e-3l14.25-0.0117 134.7-0.6348 2.316 4.035 56.1-1.014-3.025-67.89-24.11-26.89 1.209-8.01-57.43-60.18-3.502-0.1016-33.24-36.76-0.4726-3.188-22.2-26.3-4.857-1.51-10.82-11.2-17.42 0.1934 0.0254 13.26-1.545 3.322-29.99-0.0996-29.98 0.0996-1.545-3.322 0.0234-13.26z"  stroke-width="1.764"/><path d="m-442.2 511.2-0.6292 10.48-75.84-0.2065-0.0975-10.63"  stroke-width="1.764"/><path d="m-536.5 458.4-15.56-12.73-79.52-0.0781"  stroke-width="1.235"/><path d="m-536.6 477-35.98-0.1895-1.954 3.23-26.06-0.2054 0.0579 20.55"  stroke-width="1.235"/><path d="m-634.6 513.5 46.19 37.8 81.99-26.5"  stroke-width="1.764"/><path d="m-555.6 540.6-10.47-29.89"  stroke-width="1.235"/><path d="m-585.4 549.6-0.0903-34.53"  stroke-width="1.235"/><path d="m-306.7 350.4-9.976 2.379 48.9 89.22 17.51-0.141 3.282-23.16"  stroke-width="1.764"/><ellipse transform="matrix(-.9999 .0105 .01575 .9999 0 0)" cx="252.1" cy="490.1" rx="4.11" ry="4.177"  stroke-width="1.235"/><ellipse transform="matrix(-.9999 .0105 .01575 .9999 0 0)" cx="357.2" cy="303.3" rx="4.11" ry="4.177"  stroke-width="1.235"/><path d="m-286.7 450.4h-18.31v18.45h18.31z"  stroke-width="1.235"/><g stroke-width="1.764"><path d="m-355.3 521.7-4.755 20.31-6.219 8.493-21.75-0.0301-10.15-9.704-3.651-18.29" /><path d="m-347.8 521.8-2.569 20.31-3.235 6.993-2.625 0.2199 3.39-8.454-0.723-18.92" /><path d="m-409.5 521.8 2.569 20.31 3.235 6.993 2.625 0.2199-3.39-8.454 0.723-18.92" /><path d="m-338.4 315.8-2.85 4.903 64.71 116.3 0.572 77.43" /></g><path d="m-261 453.3h-11.29v19.84h11.29z"  stroke-width="1.235"/><path d="m-340 313.6-21.12 10.68 42.71 109 0.572 77.43"  stroke-width="1.764"/><path d="m-376.3 303.5 2.775 48.65 19.46 81.05 0.572 77.43"  stroke-width="1.764"/><path d="m-341.2 320.7-9.979 3.013-13.07-11.24-0.1545-8.706-27.41 0.3206-5.232 7.609-30.14-0.1295"  stroke-width="1.235"/><path d="m-366.4 289.3h-24.81v11.2h24.81z"  stroke-width="1.235"/><path d="m-323.5 437.7h-24.5v35.96h24.5z"  stroke-width="1.235"/><path d="m-330.7 477.4h-19.02v21.99h26.27v-16.56z"  stroke-width="1.235"/><path d="m-368.9 471.4h-23.09v36.13h23.09z"  stroke-width="1.235"/><path d="m-409.5 510.5 0.0442-33.1 9.447-11.14 29.94-0.1069 7.12 7.6 0.0309 36.71"  stroke-width="1.235"/><g stroke-width="1.235"><path d="m-386.7 437.5h-15.68v14.57h15.68z" /><path d="m-386.7 420.5-11.09-17.62h-4.59v31.95h15.68z" /><path d="m-398.3 350.1h-5.68v16.32h5.68z" /></g><g stroke-width="1.235"><path d="m-415.9 374.3 26.21 0.0358 8.613-9.449-3e-3 -27.14-15.05-11.52-13.14 0.0562-10.21 10.28" /><path d="m-397.1 311.7 5.269 5.669-4.302 8.865" /><path d="m-371.9 358 17.66 12.1 3.285 13.08 11.42 7.789 16.02 42.13 0.0328 4.656" /><path d="m-409.4 491.8-10.47 0.0273-3.25 4.54-4.1-0.0167" /><path d="m-313.2 371.4-15.77-0.4306-7.642-10.25-10.88-1.272" /><path d="m-308.9 476.9-0.6602-43.67-47.83-107.5 6.19-2.012" /><path d="m-370.1 466.2 3.302-5.197 0.1357-41.89-4.472-5.03-7.359 0.1801 0.4303-19.96-11.64-19.9" /><path d="m-276.1 509.2 22.13-0.4102 8e-3 -8.346 19.42-0.3752 14.22-1.911" /><path d="m-427.2 336.8-0.043 56.35" /><path d="m-335.8 437.4-0.043 36.01" /></g><path d="m-412.3 511.2 0.6292 10.48 75.84-0.2065 0.0975-10.63"  stroke-width="1.764"/><path d="m-318 458.4 15.56-12.73 79.52-0.0781"  stroke-width="1.235"/><path d="m-317.9 477 35.98-0.1895 1.954 3.23 26.06-0.2054-0.0579 20.55"  stroke-width="1.235"/><path d="m-219.9 513.5-46.19 37.8-81.99-26.5"  stroke-width="1.764"/><path d="m-298.9 540.6 10.47-29.89"  stroke-width="1.235"/><path d="m-269.1 550.4 0.0903-35.28"  stroke-width="1.235"/></g><g transform="translate(644)"  fill="none"  ><path d="m-603.2 554.1 34.23-7.934 126.2-30.83 1.215-9.863 4.32-13.43 9.951-8.928 9.951 8.928 4.32 13.43 1.215 9.863 126.2 30.83 34.23 7.934m9.457-4.43 30.29-30.36-3.908-72.49-26.59-27.06 1.209-7.48-60.96-60.89-7.568-0.2774-57.25-66.34-2.996 0.0137-8.311-8.488-17.8 0.0664 0.0176 8.539-1.545 3.322-29.99 2e-3 -29.99-2e-3 -1.545-3.322 0.0176-8.539-17.8-0.0664-8.309 8.488-2.998-0.0137-57.25 66.34-7.568 0.2774-60.96 60.89 1.209 7.48-26.59 27.06-3.91 72.49 30.29 30.36"  stroke-width="1.764"/><path d="m-545.1 351.1 5.91 1.672-51.02 88.69-19.11-0.141-3.105-21.57"  stroke-width="1.764"/><path d="m-457.2 288.2-2.789 2.37-16.37 0.0872-13.21 22.29-0.7142 11.49-12.75 3.094-5.37-1.739-5.118-11.18"  stroke-width="1.235"/><path d="m-481 298.9 23.31 55.49-6.355 11.15 11.16-0.217"  stroke-width="1.235"/><path d="m-465.4 290.6h16.35v28.23h-16.35z"  stroke-width="1.235"/><g stroke-width="1.235"><path d="m-457.2 290.4-0.043 28.55" /><path d="m-641.8 500.3 6.899-0.24 3.158-12.66 5.894-4.924 4.618 0.4082 1.516-11.37 10.33-4.959 9.488 30.89 11.47-6.061 7.976 18.92 11.62 35.47" /><path d="m-480.7 425.3-2.707-0.0381-58.43 46.13-1.259 2.798-0.024 24.4 1.719 1.999 34.94 0.0443 1.635-1.59-0.014-28.3 35.61-28.5 0.1219-2.848z" /><path d="m-528 460.8 23.14 10.01" /><path d="m-476.9 429.7-42.84 34.59 0.093 36.3" /><path d="m-527 461.2-0.065 39.46" /><path d="m-472.7 435.1-39.46 32.84 0.093 32.68" /><path d="m-534.9 465.8-0.065 34.86" /><path d="m-609.3 441.3-11.66 9.52-4.164 6e-3 -3.069 3.026-3.556 33.57" /><path d="m-427.2 441-4.004 0.022-4.575 5.967-0.01 14.58-1.095 1.576-4.165 0.0296-3.915 7.016 4.643 8.366 2.397 0.0706 0.015 6.626-11.05 12.26 0.064 5.722-3.695 3-0.01 5.284" /></g><path d="m-440.1 329.7-5.598 1.936-4.465 4.328-4.873 11.19 0.7168 4.842 5.131 2.975 7.142-7.516 4.264 5.375 10.57 0.1602 10.57-0.1602 4.264-5.375 7.141 7.516 5.131-2.975 0.7187-4.842-4.873-11.19-4.467-4.328-5.596-1.936-1.289 1.422-11.6-0.1484-11.6 0.1484z"  stroke-width="1.764"/><g stroke-width="1.235"><path d="m-427.2 326.4-13.88 0.2578-4.728 1.6c-7.219 4.059-11.17 11.95-11.64 18.66l1.08 6.197 7.742 4.652 6.363-6.867 3.277 3.797 11.78 0.1484 11.78-0.1484 3.279-3.797 6.363 6.867 7.742-4.652 1.078-6.197c-0.4678-6.708-4.417-14.6-11.64-18.66l-4.728-1.6z" /><path d="m-427.2 344.2-15.33-0.3085-2.806 1.928 2.103 2.302" /><path d="m-440.1 329.7-5.25 16.11" /></g><path d="m-531.7 335.9 4.169 2.21-1.36 21.48 2.987 1.416-3.361 6.287-11.24 0.3596-9.212 17.48-8.42 0.9894"  stroke-width="1.235"/><ellipse transform="matrix(.9999 .0105 -.01575 .9999 0 0)" cx="-619.5" cy="495.8" rx="4.11" ry="4.177"  stroke-width="1.235"/><ellipse transform="matrix(.9999 .0105 -.01575 .9999 0 0)" cx="-492.2" cy="312.1" rx="4.11" ry="4.177"  stroke-width="1.235"/><ellipse transform="matrix(.9025 .4307 -.4338 .901 0 0)" cx="-353.9" cy="644.8" rx="6.099" ry="6.642"  stroke-width="1.235"/><path d="m-569.1 482.2h18.31v18.45h-18.31z"  stroke-width="1.235"/><g stroke-width="1.235"><path d="m-459.2 387.7 0.1381 14.95 9.717 8.296-0.1908 14.83-5.98 6.673-0.1899 10.37 4.547 3.805-14.95 13.39 0.082 7.642-9.987-7.529-12.88 10.1-5.581 8.541-0.3626 31.62" /><path d="m-448.7 357.8-4.168 7.511 1.447 2.189 5.189 0.0191 0.2554 3.304-13.24 16.92-9.282-3.962-119 94.83-17.04-12.03" /><path d="m-522.2 426.8-46.28 3.698-36.08 32.76 0.099 3.361" /><path d="m-579.8 424.6 11.33 5.837" /><path d="m-545.9 396.1 3.627 3.68-2.37 5.103 4.825 0.4894-9.855 16.86-11.66 0.5078z" /><path d="m-545.9 396.1 16.61-28.84" /><path d="m-525.9 361 8.274-14.85 4.198-3.782 17.74-1.451-0.6857 5.547 10.68 8.586 12.87-0.7409 6.023 5.478-19.83 29.06-25.31 17.65-27.84-1.099" /><path d="m-427.2 421.7-5.023-0.0883-3.109-7.398-6.738 0.0412-1.831-2.839 8.304-18.81 8.397-0.0153" /><path d="m-492.2 475.8 11.95 1.831 17.46-3.787 2.782-0.5772m11.59-2.405 3.414-0.7084" /><path d="m-466 467.7 3.234 6.245-8.954 14.1 0.09 22.48" /></g><g stroke-width="1.764"><path d="m-500.4 529.6 3.585 15.31 6.219 8.493 21.75-0.0301 10.15-9.704 3.652-18.29" /><path d="m-508.3 531.4 1.737 13.73 3.235 6.993 2.625 0.2199-3.39-8.454 0.5202-13.61" /><path d="m-447.3 524.8-2.569 20.31-3.235 6.993-2.624 0.2199 3.39-8.454-0.723-18.92" /><path d="m-441.5 505.5h28.54" /></g><path d="m-580.5 510.3 138.3 0.132"  stroke-width="1.235"/><path d="m-444.5 516.2-0.6292 8.613-35.94-0.1753"  stroke-width="1.764"/><path d="m-599.9 497.5-2 0.0732-9.779 31.84-0.8779 26.88 2.622 0.0168 6.785-2.201 1.47-3.502 1.781-53.11"  stroke-width="1.764"/><g stroke-width="1.235"><path d="m-642.6 513.4 35.12 0.132" /><path d="m-600.2 513.3 17.97 0.0675 11.05 33.21" /><path d="m-576.1 523.1 13.69 0.6736 3.743-3.384 30.75-0.1124 6.385 6.709 10.25-0.9393 4.555 4.81" /><path d="m-427.2 298-16.57 0.0559-1.351 1.36 2.867 24.01 15.05-0.0992" /></g><path d="m-309.4 351.1-5.91 1.672 51.02 88.69 19.11-0.141 3.105-21.57"  stroke-width="1.764"/><path d="m-397.3 288.2 2.789 2.37 16.37 0.0872 13.21 22.29 0.7142 11.49 12.75 3.094 5.37-1.739 5.118-11.18"  stroke-width="1.235"/><path d="m-373.5 298.9-23.31 55.49 6.355 11.15-11.16-0.217"  stroke-width="1.235"/><path d="m-389.1 290.6h-16.35v28.23h16.35z"  stroke-width="1.235"/><g stroke-width="1.235"><path d="m-397.3 290.4 0.043 28.55" /><path d="m-212.7 500.3-6.899-0.24-3.158-12.66-5.894-4.924-4.618 0.4082-1.516-11.37-10.33-4.959-9.488 30.89-11.47-6.061-7.976 18.92-11.62 35.47" /><path d="m-373.8 425.3 2.707-0.0381 58.43 46.13 1.259 2.798 0.024 24.4-1.719 1.999-34.94 0.0443-1.635-1.59 0.014-28.3-35.61-28.5-0.1219-2.848z" /><path d="m-326.5 460.8-23.14 10.01" /><path d="m-377.6 429.7 42.84 34.59-0.093 36.3" /><path d="m-327.5 461.2 0.065 39.46" /><path d="m-381.8 435.1 39.46 32.84-0.093 32.68" /><path d="m-319.6 465.8 0.065 34.86" /><path d="m-245.2 441.3 11.66 9.52 4.164 6e-3 3.069 3.026 3.556 33.57" /><path d="m-427.2 441 4.004 0.022 4.575 5.967 0.01 14.58 1.095 1.576 4.165 0.0296 3.915 7.016-4.643 8.366-2.397 0.0706-0.015 6.626 11.05 12.26-0.064 5.722 3.695 3 0.01 5.284" /></g><path d="m-427.2 344.2 15.33-0.3085 2.806 1.928-2.103 2.302"  stroke-width="1.235"/><path d="m-414.4 329.7 5.25 16.11"  stroke-width="1.235"/><path d="m-322.8 335.9-4.169 2.21 1.36 21.48-2.987 1.416 3.361 6.287 11.24 0.3596 9.212 17.48 8.42 0.9894"  stroke-width="1.235"/><ellipse transform="matrix(-.9999 .0105 .01575 .9999 0 0)" cx="234.9" cy="486.8" rx="4.11" ry="4.177"  stroke-width="1.235"/><ellipse transform="matrix(-.9999 .0105 .01575 .9999 0 0)" cx="362.2" cy="303.1" rx="4.11" ry="4.177"  stroke-width="1.235"/><ellipse transform="matrix(-.9025 .4307 .4338 .901 0 0)" cx="416" cy="276.8" rx="6.099" ry="6.642"  stroke-width="1.235"/><path d="m-285.4 482.2h-18.31v18.45h18.31z"  stroke-width="1.235"/><g stroke-width="1.235"><path d="m-395.3 387.7-0.1381 14.95-9.717 8.296 0.1908 14.83 5.98 6.673 0.1899 10.37-4.547 3.805 14.95 13.39-0.082 7.642 9.987-7.529 12.88 10.1 5.581 8.541 0.3626 31.62" /><path d="m-405.8 357.8 4.168 7.511-1.447 2.189-5.189 0.0191-0.2554 3.304 13.24 16.92 9.282-3.962 119 94.83 17.04-12.03" /><path d="m-332.3 426.8 46.28 3.698 36.08 32.76-0.099 3.361" /><path d="m-274.7 424.6-11.33 5.837" /><path d="m-308.6 396.1-3.627 3.68 2.37 5.103-4.825 0.4894 9.855 16.86 11.66 0.5078z" /><path d="m-308.6 396.1-16.61-28.84" /><path d="m-328.6 361-8.274-14.85-4.198-3.782-17.74-1.451 0.6857 5.547-10.68 8.586-12.87-0.7409-6.023 5.478 19.83 29.06 25.31 17.65 27.84-1.099" /><path d="m-427.2 421.7 5.023-0.0883 3.109-7.398 6.738 0.0412 1.831-2.839-8.304-18.81-8.397-0.0153" /><path d="m-388.5 467.7-3.234 6.245 8.954 14.1-0.09 22.48" /></g><g stroke-width="1.764"><path d="m-354.1 529.6-3.585 15.31-6.219 8.493-21.75-0.0301-10.15-9.704-3.652-18.29" /><path d="m-346.2 531.4-1.737 13.73-3.235 6.993-2.625 0.2199 3.39-8.454-0.5202-13.61" /><path d="m-407.1 524.8 2.569 20.31 3.235 6.993 2.624 0.2199-3.39-8.454 0.723-18.92" /></g><path d="m-274 510.3-138.3 0.132"  stroke-width="1.235"/><path d="m-409.9 516.2 0.6292 8.613 35.94-0.1753"  stroke-width="1.764"/><path d="m-254.6 497.5 2 0.0732 9.779 31.84 0.8779 26.88-2.622 0.0168-6.785-2.201-1.47-3.502-1.781-53.11"  stroke-width="1.764"/><g stroke-width="1.235"><path d="m-211.9 513.4-35.12 0.132" /><path d="m-254.3 513.3-17.97 0.0675-11.05 33.21" /><path d="m-278.4 523.1-13.69 0.6736-3.743-3.384-30.75-0.1124-6.385 6.709-10.25-0.9393-4.555 4.81" /><path d="m-427.2 298 16.57 0.0559 1.351 1.36-2.867 24.01-15.05-0.0992" /></g><path d="m-460.1 462.7h11.68v20.31h-11.68z"  stroke-width="1.235"/><path d="m-362.3 475.8-11.95 1.831-17.46-3.787-2.782-0.5772m-11.59-2.405-3.414-0.7084"  stroke-width="1.235"/><path d="m-394.4 462.7h-11.68v20.31h11.68z"  stroke-width="1.235"/></g><g  ><rect x="512.9" y="450.4" width="18.31" height="18.45" rx="1.971" ry="1.821" fill="#ff3ae1"    stroke-width="1.554"><desc>{ "type": "utility", "i": 2 }</desc></rect><rect x="430.8" y="128.2" width="8.144" height="8.073" fill="#979797"   stroke-width="3.587"><desc>{ "type": "gunsight", "cl": "gun", "i": 0 }</desc></rect><g fill="none" stroke="#979797" stroke-width="3.587"><path d="m442.9 86.92c21.52 3.996 37.82 22.87 37.82 45.55 0 5.371-0.9139 10.53-2.595 15.33m-7.842 13.97c-8.496 10.4-21.42 17.03-35.89 17.03-14.38 0-27.24-6.555-35.74-16.84m-7.716-13.37c-1.862-5.019-2.88-10.45-2.88-16.12 0-23.05 16.84-42.18 38.89-45.74" /><g><path d="m434.9 71.19v15.85" /><path d="m395.6 155.1-13.68 8.014" /><path d="m474.2 155.1 13.68 8.014" /></g></g><g ><circle cx="420.5" cy="145.2" r="3.783" fill="#979797"  stroke-width="2.869"><desc>{ "type": "hard_point", "cl": "gun", "i": 1 }</desc></circle><circle cx="479.7" cy="158.9" r="3.783" fill="#979797"  stroke-width="3.587"><desc>{ "type": "gunsight", "cl": "gun", "i": 2 }</desc></circle><rect x="178.6" y="290.6" width="16.35" height="28.23" rx="3.114" ry="3.051" fill="#4df346"   stroke-width="1.661"><desc>{ "type": "hard_point", "i": 1 }</desc></rect><g><ellipse cx="146.9" cy="306.8" rx="5.776" ry="5.905" fill="#f39745"   stroke-width="1.764"><desc>{ "type": "misc", "i": "thrusters" }</desc></ellipse><path d="m674 401.7h-41.04v42.35h41.04z" fill="#f39746"   stroke-width="1.235"><desc>{ "type": "other", "i": "cargo hatch" }</desc></path><path d="m549.8 437.7h24.5v35.96h-24.5z" fill="#f39745"   stroke-width="1.235"><desc>{ "type": "misc", "i": "landing gear" }</desc></path><path d="m228.4 331.1h-23.2l-1.288-1.422-5.597 1.936-4.465 4.328-4.873 11.19 0.7168 4.842 5.131 2.975 7.142-7.516 4.264 5.375h21.14l4.264-5.375 7.141 7.516 5.131-2.975 0.7187-4.842-4.873-11.19-4.467-4.328-5.596-1.936z" fill="#f39746"   stroke-width="1.764"><desc>{ "type": "other", "i": "canopy" }</desc></path></g><rect x="238.6" y="290.6" width="16.35" height="28.23" rx="3.114" ry="3.051" fill="#4df346"   stroke-width="1.661"><desc>{ "type": "hard_point", "i": 2 }</desc></rect><rect x="183.9" y="462.7" width="11.68" height="20.31" rx="3.114" ry="3.051" fill="#4df346"   stroke-width="1.661"><desc>{ "type": "hard_point", "i": 3 }</desc></rect></g><g fill="#f39745" ><g stroke-width="1.764"><ellipse cx="16.88" cy="489.3" rx="5.776" ry="5.905"  ><desc>{ "type": "misc", "i": "thrusters" }</desc></ellipse><ellipse cx="416.7" cy="489.4" rx="5.776" ry="5.905"  ><desc>{ "type": "misc", "i": "thrusters" }</desc></ellipse><ellipse cx="286.5" cy="306.8" rx="5.776" ry="5.905"  ><desc>{ "type": "misc", "i": "thrusters" }</desc></ellipse><ellipse cx="470.6" cy="492.7" rx="5.776" ry="5.905"  ><desc>{ "type": "misc", "i": "thrusters" }</desc></ellipse><ellipse cx="836.4" cy="492.8" rx="5.776" ry="5.905"  ><desc>{ "type": "misc", "i": "thrusters" }</desc></ellipse><ellipse cx="728.3" cy="307.1" rx="5.776" ry="5.905"  ><desc>{ "type": "misc", "i": "thrusters" }</desc></ellipse><ellipse cx="578.7" cy="307.1" rx="5.776" ry="5.905"  ><desc>{ "type": "misc", "i": "thrusters" }</desc></ellipse></g><g stroke-width="1.764"><path d="m148 559.8h35.99l-17.99 18.98z"  ><desc>{ "type": "misc", "i": "thrusters" }</desc></path><path d="m250.5 559.8h35.99l-17.99 18.98z"  ><desc>{ "type": "misc", "i": "thrusters" }</desc></path><path d="m60.85 367h15.88l-7.941-8.377z"  ><desc>{ "type": "misc", "i": "thrusters" }</desc></path><path d="m356.4 367h15.88l-7.941-8.377z"  ><desc>{ "type": "misc", "i": "thrusters" }</desc></path><path d="m497.8 367h15.88l-7.941-8.377z"  ><desc>{ "type": "misc", "i": "thrusters" }</desc></path><path d="m793.4 367h15.88l-7.941-8.377z"  ><desc>{ "type": "misc", "i": "thrusters" }</desc></path></g></g><g ><rect x="775.7" y="450.4" width="18.31" height="18.45" rx="1.971" ry="1.821" fill="#ff3ae1"   stroke-width="1.554"><desc>{ "type": "utility", "i": 1 }</desc></rect><path d="m732.7 437.7h24.5v35.96h-24.5z" fill="#f39745"   stroke-width="1.235"><desc>{ "type": "misc", "i": "landing gear" }</desc></path><path d="m640.8 336.9h25.43l2.65 10.94-6.541 45.56h-17.65l-6.541-45.56z" fill="#f39745"   stroke-width="1.235"><desc>{ "type": "misc", "i": "landing gear" }</desc></path><circle cx="423.4" cy="123.8" r="3.783" fill="#979797"  stroke-width="3.587"><desc>{ "type": "hard_point", "cl": "gun", "i": 3 }</desc></circle><path d="m163.3 425.3 11.59 14.11-0.1219 2.848-35.61 28.5 0.014 28.3-1.635 1.59-34.94-0.0443-1.719-1.999 0.024-24.4 1.259-2.798 58.43-46.13z" fill="#f39745"   stroke-width="1.235"><desc>{ "type": "misc", "i": "heat vents" }</desc></path><path d="m270.2 425.3-11.59 14.11 0.1219 2.848 35.61 28.5-0.014 28.3 1.635 1.59 34.94-0.0443 1.719-1.999-0.024-24.4-1.259-2.798-58.43-46.13z" fill="#f39745"   stroke-width="1.235"><desc>{ "type": "misc", "i": "heat vents" }</desc></path><rect x="237.9" y="462.7" width="11.68" height="20.31" rx="3.114" ry="3.051" fill="#4df346"   stroke-width="1.661"><desc>{ "type": "hard_point", "i": 4 }</desc></rect><rect x="210.9" y="394.6" width="11.68" height="20.31" rx="3.114" ry="3.051" fill="#4df346"   stroke-width="1.661"><desc>{ "type": "hard_point", "i": 5 }</desc></rect><path d="m587.5 559.8h35.99l-17.99 18.98z" fill="#f39745"   stroke-width="1.764"><desc>{ "type": "misc", "i": "thrusters" }</desc></path><path d="m684.1 559.8h35.99l-17.99 18.98z" fill="#f39745"   stroke-width="1.764"><desc>{ "type": "misc", "i": "thrusters" }</desc></path></g><g fill="#979797"  stroke-width="3.587"><circle cx="453.8" cy="123.8" r="3.783" ><desc>{ "type": "hard_point", "cl": "gun", "i": 4 }</desc></circle><circle cx="438.9" cy="124.8" r="3.783" ><desc>{ "type": "hard_point", "cl": "gun", "i": 5 }</desc></circle><circle cx="457.3" cy="145.2" r="3.783" ><desc>{ "type": "hard_point", "cl": "gun", "i": 2 }</desc></circle></g><path d="m208 289.3a8.125 7.918 0 0 0 8.125 7.918 8.125 7.918 0 0 0 8.125-7.918 8.125 7.918 0 0 0-1.904-5.082l-6.221-9.992-6.199 9.959a8.125 7.918 0 0 0-1.926 5.115z" fill="#46d2f3"    stroke-width="1.764"><desc>{ "type": "internal", "i": "entrance" }</desc></path></g></svg>
