<svg width="870" height="640" clip-rule="evenodd" fill-rule="evenodd" image-rendering="optimizeQuality" shape-rendering="geometricPrecision" text-rendering="geometricPrecision" version="1.1" viewBox="0 0 870 640" xml:space="preserve" xmlns="http://www.w3.org/2000/svg">
<g><path d="m653.6 336.8 0.043 56.35" /><path d="m562.1 437.4 0.043 36.01" /><path d="m745.3 437.5 0.043 36.26" /></g><g transform="translate(1116)"  fill="none"  ><path d="m-523.1 284.8-57.25 66.34-4.387 0.4551-59.72 60.71-1.09 9.424-23.4 25.12-2.672 66.66 57.87 1.014 2.316-4.035 134.7 0.6348 14.25 0.0117h2e-3l14.25-0.0117 134.7-0.6348 2.316 4.035 57.87-1.014-2.672-66.66-23.4-25.12-1.09-9.424-59.72-60.71-4.387-0.4551-57.25-66.34-29.09 0.1309-1.545 3.322-29.98-0.0254h-2e-3l-29.98 0.0254-1.545-3.322z"  stroke-width="1.764"/><path d="m-580.3 351.1 7.325 1.672-52.43 88.87-20.7 1.273 0.6069-21.22"  stroke-width="1.764"/><ellipse transform="matrix(.9999 .0105 -.01575 .9999 0 0)" cx="-647.9" cy="489.5" rx="4.11" ry="4.177"  stroke-width="1.235"/><ellipse transform="matrix(.9999 .0105 -.01575 .9999 0 0)" cx="-533" cy="314.5" rx="4.11" ry="4.177"  stroke-width="1.235"/><path d="m-607.2 450.4h18.31v18.45h-18.31z"  stroke-width="1.235"/><g stroke-width="1.764"><path d="m-534.4 510.4 4.755 20.31 6.219 8.493 21.75-0.0301 10.15-9.704 3.651-18.29" /><path d="m-541.9 510.5 2.569 20.31 3.235 6.993 2.625 0.2199-3.39-8.454 0.723-18.92" /><path d="m-480.2 510.5-2.569 20.31-3.235 6.993-2.625 0.2199 3.39-8.454-0.723-18.92" /><path d="m-550.9 317.3 2.475 3.403-64.71 116.3-0.572 77.43" /></g><path d="m-639.5 478.4h12.35v21.61h-12.35z"  stroke-width="1.235"/><path d="m-441.9 401.7h-41.04v42.35h41.04z"  stroke-width="1.235"/><path d="m-546.1 311.6 17.47 12.65-42.71 109-0.572 77.43"  stroke-width="1.764"/><path d="m-513.4 303.5-2.775 48.65-19.46 81.05-0.572 77.43"  stroke-width="1.764"/><path d="m-548.4 320.7 9.979 3.013 13.07-11.24 0.1545-8.706 27.41 0.3206 5.232 7.609 30.14-0.1295"  stroke-width="1.235"/><path d="m-523.3 289.3h24.81v11.2h-24.81z"  stroke-width="1.235"/><path d="m-492.5 295.8-1.414 6.58h62.88l-1.414-6.58h-30.02z"  stroke-width="1.235"/><path d="m-644.7 490.8-16.88-0.052 0.8256-29.24 10.35 0.1108 5.888 11.99 0.0405 40.08"  stroke-width="1.235"/><path d="m-613.8 465.7-30.78 7.928"  stroke-width="1.235"/><g stroke-width="1.235"><path d="m-566.2 437.7h24.5v35.96h-24.5z" /><path d="m-562 477.4h19.02v21.99h-26.27v-16.56z" /><path d="m-520.8 471.8h17.43v29.95h-17.43z" /></g><path d="m-480.2 510.5-0.0442-33.1-9.447-11.14-29.94-0.1069-7.12 7.6-0.0309 36.71"  stroke-width="1.235"/><g stroke-width="1.235"><path d="m-503 437.5h15.68v14.57h-15.68z" /><path d="m-503 420.5 11.09-17.62h4.59v31.95h-15.68z" /><path d="m-493 350.1h5.68v16.32h-5.68z" /></g><g stroke-width="1.235"><path d="m-475.2 336.9-2.652 10.94 6.541 45.56h17.65l6.541-45.56-2.65-10.94h-12.71z" /><path d="m-473.8 374.3-26.21 0.0358-8.613-9.449 3e-3 -29.44 15.05-9.22 13.14 0.0562 10.21 10.28" /><path d="m-492.6 311.7-5.269 5.669 4.302 8.865" /><path d="m-517.8 358-17.66 12.1-3.285 13.08-11.42 7.789-16.02 42.13-0.0328 4.656" /><path d="m-480.3 491.8 10.47 0.0273 3.25 4.54 4.1-0.0167" /><path d="m-576.5 371.4 15.77-0.4306 7.642-10.25 10.88-1.272" /><path d="m-581.2 510.2 0.1786-3.182-3.095-2.394 0.182-24.6 3.142-3.122 0.6602-43.67 47.83-107.5-6.19-2.012" /><path d="m-519.6 466.2-3.302-5.197-0.1357-41.89 4.472-5.03 7.359 0.1801-0.4303-19.96 11.64-19.9" /><path d="m-613.6 505.1-57.54-4.325" /><path d="m-657.9 435.7 3.158 2.961-0.061 7.185-5.854 4.867-2.854 10.64-6.277 1.838" /></g><path d="m-344.6 351.1-7.325 1.672 52.43 88.87 20.7 1.273-0.6069-21.22"  stroke-width="1.764"/><ellipse transform="matrix(-.9999 .0105 .01575 .9999 0 0)" cx="276.9" cy="479.8" rx="4.11" ry="4.177"  stroke-width="1.235"/><ellipse transform="matrix(-.9999 .0105 .01575 .9999 0 0)" cx="391.8" cy="304.8" rx="4.11" ry="4.177"  stroke-width="1.235"/><path d="m-317.6 450.4h-18.31v18.45h18.31z"  stroke-width="1.235"/><g stroke-width="1.764"><path d="m-390.5 510.4-4.755 20.31-6.219 8.493-21.75-0.0301-10.15-9.704-3.651-18.29" /><path d="m-383 510.5-2.569 20.31-3.235 6.993-2.625 0.2199 3.39-8.454-0.723-18.92" /><path d="m-444.7 510.5 2.569 20.31 3.235 6.993 2.625 0.2199-3.39-8.454 0.723-18.92" /><path d="m-374 317.3-2.475 3.403 64.71 116.3 0.572 77.43" /></g><path d="m-285.4 478.4h-12.35v21.61h12.35z"  stroke-width="1.235"/><path d="m-378.8 311.6-17.47 12.65 42.71 109 0.572 77.43"  stroke-width="1.764"/><path d="m-411.5 303.5 2.775 48.65 19.46 81.05 0.572 77.43"  stroke-width="1.764"/><path d="m-376.5 320.7-9.979 3.013-13.07-11.24-0.1545-8.706-27.41 0.3206-5.232 7.609-30.14-0.1295"  stroke-width="1.235"/><path d="m-401.6 289.3h-24.81v11.2h24.81z"  stroke-width="1.235"/><path d="m-280.2 490.8 16.88-0.052-0.8256-29.24-10.35 0.1108-5.888 11.99-0.0405 40.08"  stroke-width="1.235"/><path d="m-311.1 465.7 30.78 7.928"  stroke-width="1.235"/><g stroke-width="1.235"><path d="m-358.7 437.7h-24.5v35.96h24.5z" /><path d="m-362.9 477.4h-19.02v21.99h26.27v-16.56z" /><path d="m-404.1 471.8h-17.43v29.95h17.43z" /></g><path d="m-444.7 510.5 0.0442-33.1 9.447-11.14 29.94-0.1069 7.12 7.6 0.0309 36.71"  stroke-width="1.235"/><g stroke-width="1.235"><path d="m-421.9 437.5h-15.68v14.57h15.68z" /><path d="m-421.9 420.5-11.09-17.62h-4.59v31.95h15.68z" /><path d="m-431.9 350.1h-5.68v16.32h5.68z" /></g><g stroke-width="1.235"><path d="m-451.1 374.3 26.21 0.0358 8.613-9.449-3e-3 -29.44-15.05-9.22-13.14 0.0562-10.21 10.28" /><path d="m-432.3 311.7 5.269 5.669-4.302 8.865" /><path d="m-407.1 358 17.66 12.1 3.285 13.08 11.42 7.789 16.02 42.13 0.0328 4.656" /><path d="m-444.6 491.8-10.47 0.0273-3.25 4.54-4.1-0.0167" /><path d="m-348.4 371.4-15.77-0.4306-7.642-10.25-10.88-1.272" /><path d="m-343.7 510.2-0.1786-3.182 3.095-2.394-0.182-24.6-3.142-3.122-0.6602-43.67-47.83-107.5 6.19-2.012" /><path d="m-405.3 466.2 3.302-5.197 0.1357-41.89-4.472-5.03-7.359 0.1801 0.4303-19.96-11.64-19.9" /><path d="m-311.3 505.1 57.54-4.325" /><path d="m-267 435.7-3.158 2.961 0.061 7.185 5.854 4.867 2.854 10.64 6.277 1.838" /></g></g><g transform="translate(1256)"  fill="none"  ><path d="m-1100 284.8-57.25 66.34-4.387 0.4551-59.72 60.71 0.8554 7.48-25.35 27.06-2.672 66.66 57.87 1.014 2.316-4.035 134.7 0.6348-0.022-5.621 4.32-13.43 9.951-8.928 9.951 8.928 4.318 13.43-0.02 5.621 134.7-0.6348 2.316 4.035 57.87-1.014-2.672-66.66-25.35-27.06 0.8555-7.48-59.72-60.71-4.387-0.4551-57.25-66.34-29.09 0.1309-1.545 3.322-29.98 2e-3 -29.99-2e-3 -1.545-3.322z"  stroke-width="1.764"/><path d="m-1157 351.1 7.325 1.672-48.19 88.69-20.17 0.2125-2.222-21.93"  stroke-width="1.764"/><path d="m-1069 288.2-2.789 2.37-16.37 0.0872-13.21 22.29-0.7142 11.49-12.75 3.094-5.37-1.739-5.118-11.18"  stroke-width="1.235"/><path d="m-1093 298.9 23.31 55.49-6.355 11.15 11.16-0.217"  stroke-width="1.235"/><path d="m-1078 290.6h16.35v28.23h-16.35z"  stroke-width="1.235"/><g stroke-width="1.235"><path d="m-1069 290.4-0.043 28.55" /><path d="m-1248 498.5 6.649 0.01 3.908-12.41 4.394-3.549 4.618 0.4082 1.516-11.37 10.33-4.959 9.488 30.89 11.47-6.061 7.31 19.03" /><path d="m-1091 425.3-2.707-0.0381-58.43 46.13-1.259 2.798-0.024 24.4 1.719 1.999 34.94 0.0443 1.635-1.59-0.014-28.3 35.61-28.5 0.1219-2.848z" /><path d="m-1138 460.8 23.14 10.01" /><path d="m-1087 429.7-42.84 34.59 0.093 36.3" /><path d="m-1137 461.2-0.065 39.46" /><path d="m-1083 435.1-39.46 32.84 0.093 32.68" /><path d="m-1145 465.8-0.065 34.86" /><path d="m-1218 441.7-9.895 9.167-4.164 6e-3 -3.069 3.026-2.056 32.19" /><path d="m-1039 441-4.004 0.022-4.575 5.967-0.01 14.58-1.095 1.576-4.165 0.0296-3.915 7.016 4.643 8.366 2.397 0.0706 0.015 6.626-11.05 12.26 0.064 5.722-3.695 3-0.01 5.284" /></g><path d="m-1052 329.7-5.598 1.936-4.465 4.328-4.873 11.19 0.7168 4.842 5.131 2.975 7.142-7.516 4.264 5.375 10.57 0.1602 10.57-0.1602 4.264-5.375 7.141 7.516 5.131-2.975 0.7187-4.842-4.873-11.19-4.467-4.328-5.596-1.936-1.289 1.422-11.6-0.1484-11.6 0.1484z"  stroke-width="1.764"/><g stroke-width="1.235"><path d="m-1039 326.4-13.88 0.2578-4.728 1.6c-7.219 4.059-11.17 11.95-11.64 18.66l1.08 6.197 7.742 4.652 6.363-6.867 3.277 3.797 11.78 0.1484 11.78-0.1484 3.279-3.797 6.363 6.867 7.742-4.652 1.078-6.197c-0.4678-6.708-4.417-14.6-11.64-18.66l-4.728-1.6z" /><path d="m-1039 344.2-15.33-0.3085-2.806 1.928 2.103 2.302" /><path d="m-1052 329.7-5.25 16.11" /></g><path d="m-1144 335.9 7.106 1.273-2.172 22.98 2.112 0.7915-3.329 6.394-9.114 0.8899-9.963 18.23-8.951-0.3364"  stroke-width="1.235"/><ellipse transform="matrix(.9999 .0105 -.01575 .9999 0 0)" cx="-1225" cy="502.6" rx="4.11" ry="4.177"  stroke-width="1.235"/><ellipse transform="matrix(.9999 .0105 -.01575 .9999 0 0)" cx="-1103" cy="318.5" rx="4.11" ry="4.177"  stroke-width="1.235"/><ellipse transform="matrix(.9025 .4307 -.4338 .901 0 0)" cx="-901.7" cy="906.2" rx="6.099" ry="6.642"  stroke-width="1.235"/><path d="m-1178 482.2h18.31v18.45h-18.31z"  stroke-width="1.235"/><g stroke-width="1.235"><path d="m-1071 387.7 0.1381 14.95 9.717 8.296-0.1908 14.83-5.98 6.673-0.1899 10.37 4.547 3.805-14.95 13.39 0.082 7.642-9.987-7.529-12.88 10.1-5.581 8.541-0.3626 31.62" /><path d="m-1061 357.8-4.168 7.511 1.447 2.189 5.189 0.0191 0.2554 3.304-13.24 16.92-9.282-3.962-119 94.83-17.04-12.03" /><path d="m-1137 428.5-40.4 2.448-39.33 32.26 0.099 3.361" /><path d="m-1189 425.2 11.57 5.807" /><path d="m-1156 395.8 3.627 3.68-2.37 5.103 4.825 0.4894-9.855 16.86-11.66 0.5078z" /><path d="m-1156 395.8 16.02-28.42" /><path d="m-1137 360.9 8.35-14.34 3.49-3.163 18.09-1.893-0.4205 5.9 10.59 9.116 12.25-1.36 7.26 5.389-20.36 28.97-24.16 18.71-28.35-3.242" /><path d="m-1039 421.7-5.023-0.0883-3.109-7.398-6.738 0.0412-1.831-2.839 8.304-18.81 8.397-0.0153" /><path d="m-1104 475.8 11.95 1.831 17.46-3.787 17.79-3.691" /><path d="m-1078 467.7 3.234 6.245-8.954 14.1 0.09 22.48" /></g><g stroke-width="1.764"><path d="m-1111 510.4 4.755 20.31 6.219 8.493 21.75-0.0301 10.15-9.704 3.652-18.29" /><path d="m-1119 510.5 2.57 20.31 3.235 6.993 2.625 0.2199-3.39-8.454 0.7229-18.92" /><path d="m-1057 510.5-2.569 20.31-3.235 6.993-2.624 0.2199 3.39-8.454-0.723-18.92" /><path d="m-921.6 351.1-7.325 1.672 48.19 88.69 20.17 0.2125 2.222-21.93" /></g><path d="m-1009 288.2 2.789 2.37 16.37 0.0872 13.21 22.29 0.7142 11.49 12.75 3.094 5.37-1.739 5.118-11.18"  stroke-width="1.235"/><path d="m-985.7 298.9-23.31 55.49 6.355 11.15-11.16-0.217"  stroke-width="1.235"/><path d="m-1001 290.6h-16.35v28.23h16.35z"  stroke-width="1.235"/><g stroke-width="1.235"><path d="m-1010 290.4 0.043 28.55" /><path d="m-830.8 498.5-6.649 0.01-3.908-12.41-4.394-3.549-4.618 0.4082-1.516-11.37-10.33-4.959-9.488 30.89-11.47-6.061-7.311 19.03" /><path d="m-988.1 425.3 2.707-0.0381 58.43 46.13 1.259 2.798 0.0237 24.4-1.719 1.999-34.94 0.0443-1.635-1.59 0.0145-28.3-35.61-28.5-0.1218-2.848z" /><path d="m-940.8 460.8-23.14 10.01" /><path d="m-991.9 429.7 42.84 34.59-0.0929 36.3" /><path d="m-941.8 461.2 0.0647 39.46" /><path d="m-996.2 435.1 39.46 32.84-0.0929 32.68" /><path d="m-933.9 465.8 0.0647 34.86" /><path d="m-860.5 441.7 9.895 9.167 4.164 6e-3 3.069 3.026 2.056 32.19" /><path d="m-1039 441 4.004 0.022 4.575 5.967 0.01 14.58 1.095 1.576 4.165 0.0296 3.915 7.016-4.643 8.366-2.397 0.0706-0.015 6.626 11.05 12.26-0.064 5.722 3.695 3 0.01 5.284" /></g><path d="m-1039 344.2 15.33-0.3085 2.806 1.928-2.103 2.302"  stroke-width="1.235"/><path d="m-1027 329.7 5.25 16.11"  stroke-width="1.235"/><path d="m-935 335.9-7.107 1.273 2.172 22.98-2.112 0.7915 3.329 6.394 9.114 0.8899 9.963 18.23 8.951-0.3364"  stroke-width="1.235"/><ellipse transform="matrix(-.9999 .0105 .01575 .9999 0 0)" cx="853.8" cy="480.8" rx="4.11" ry="4.177"  stroke-width="1.235"/><ellipse transform="matrix(-.9999 .0105 .01575 .9999 0 0)" cx="975.9" cy="296.7" rx="4.11" ry="4.177"  stroke-width="1.235"/><ellipse transform="matrix(-.9025 .4307 .4338 .901 0 0)" cx="971.4" cy="10.94" rx="6.099" ry="6.642"  stroke-width="1.235"/><path d="m-901.4 482.2h-18.31v18.45h18.31z"  stroke-width="1.235"/><g stroke-width="1.235"><path d="m-1008 387.7-0.1382 14.95-9.717 8.296 0.1907 14.83 5.98 6.673 0.1898 10.37-4.547 3.805 14.95 13.39-0.082 7.642 9.987-7.529 12.88 10.1 5.581 8.541 0.3626 31.62" /><path d="m-1018 357.8 4.168 7.511-1.447 2.189-5.189 0.0191-0.2554 3.304 13.24 16.92 9.281-3.962 119 94.83 17.04-12.03" /><path d="m-941.9 428.5 40.4 2.448 39.33 32.26-0.0989 3.361" /><path d="m-889.9 425.2-11.57 5.807" /><path d="m-922.7 395.8-3.627 3.68 2.371 5.103-4.825 0.4894 9.855 16.86 11.66 0.5078z" /><path d="m-922.7 395.8-16.02-28.42" /><path d="m-942 360.9-8.35-14.34-3.491-3.163-18.09-1.893 0.4206 5.9-10.59 9.116-12.25-1.36-7.26 5.389 20.36 28.97 24.16 18.71 28.35-3.242" /><path d="m-1039 421.7 5.022-0.0883 3.109-7.398 6.738 0.0412 1.831-2.839-8.304-18.81-8.397-0.0153" /><path d="m-974.5 475.8-11.95 1.831-17.46-3.787-17.79-3.691" /><path d="m-1001 467.7-3.234 6.245 8.954 14.1-0.0897 22.48" /></g><g stroke-width="1.764"><path d="m-967.5 510.4-4.755 20.31-6.219 8.493-21.75-0.0301-10.15-9.704-3.651-18.29" /><path d="m-960 510.5-2.569 20.31-3.235 6.993-2.625 0.2199 3.39-8.454-0.723-18.92" /><path d="m-1022 510.5 2.57 20.31 3.235 6.993 2.624 0.2199-3.39-8.454 0.7229-18.92" /><path d="m-1054 505.5h28.54" /></g></g><g  ><rect x="508.7" y="450.4" width="18.31" height="18.45" rx="1.971" ry="1.821" fill="#ff3ae1"    stroke-width="1.554"><desc>{ "type": "utility", "i": 2 }</desc></rect><rect x="430.8" y="128.2" width="8.144" height="8.073" fill="#979797"   stroke-width="3.587"><desc>{ "type": "gunsight", "cl": "gun", "i": 0 }</desc></rect><g fill="none" stroke="#979797" stroke-width="3.587"><path d="m442.9 86.92c21.52 3.996 37.82 22.87 37.82 45.55 0 5.371-0.9139 10.53-2.595 15.33m-7.842 13.97c-8.496 10.4-21.42 17.03-35.89 17.03-14.38 0-27.24-6.555-35.74-16.84m-7.716-13.37c-1.862-5.019-2.88-10.45-2.88-16.12 0-23.05 16.84-42.18 38.89-45.74" /><g><path d="m434.9 71.19v15.85" /><path d="m395.6 155.1-13.68 8.014" /><path d="m474.2 155.1 13.68 8.014" /></g></g><g fill="#979797" ><circle cx="457.3" cy="145.2" r="3.783"  stroke-width="3.587"><desc>{ "type": "hard_point", "cl": "gun", "i": 2 }</desc></circle><circle cx="420.5" cy="145.2" r="3.783"  stroke-width="2.869"><desc>{ "type": "hard_point", "cl": "gun", "i": 1 }</desc></circle><circle cx="637.3" cy="179.1" r="3.783"  stroke-width="3.587"><desc>{ "type": "gunsight", "cl": "gun", "i": 4 }</desc></circle></g><g ><rect x="178.6" y="290.6" width="16.35" height="28.23" rx="3.114" ry="3.051" fill="#4df346"   stroke-width="1.661"><desc>{ "type": "hard_point", "i": 1 }</desc></rect><g><ellipse cx="148.6" cy="306.8" rx="5.776" ry="5.905" fill="#f39745"   stroke-width="1.764"><desc>{ "type": "misc", "i": "thrusters" }</desc></ellipse><path d="m674 401.7h-41.04v42.35h41.04z" fill="#f39746"   stroke-width="1.235"><desc>{ "type": "other", "i": "cargo hatch" }</desc></path><path d="m549.8 437.7h24.5v35.96h-24.5z" fill="#f39745"   stroke-width="1.235"><desc>{ "type": "misc", "i": "landing gear" }</desc></path><path d="m228.4 331.1h-23.2l-1.288-1.422-5.597 1.936-4.465 4.328-4.873 11.19 0.7168 4.842 5.131 2.975 7.142-7.516 4.264 5.375h21.14l4.264-5.375 7.141 7.516 5.131-2.975 0.7187-4.842-4.873-11.19-4.467-4.328-5.596-1.936z" fill="#f39746"   stroke-width="1.764"><desc>{ "type": "other", "i": "canopy" }</desc></path></g></g><g fill="#4df346"  stroke-width="1.661"><rect x="238.6" y="290.6" width="16.35" height="28.23" rx="3.114" ry="3.051"  ><desc>{ "type": "hard_point", "i": 2 }</desc></rect><rect x="476.4" y="478.4" width="12.35" height="21.61" rx="3.114" ry="3.051"  ><desc>{ "type": "hard_point", "i": 4 }</desc></rect><rect x="818.2" y="478.4" width="12.35" height="21.61" rx="3.114" ry="3.051"  ><desc>{ "type": "hard_point", "i": 3 }</desc></rect></g><g fill="#f39745" ><g stroke-width="1.764"><ellipse cx="23.53" cy="489.7" rx="5.776" ry="5.905"  ><desc>{ "type": "misc", "i": "thrusters" }</desc></ellipse><ellipse cx="410" cy="489.8" rx="5.776" ry="5.905"  ><desc>{ "type": "misc", "i": "thrusters" }</desc></ellipse><ellipse cx="285.1" cy="306.8" rx="5.776" ry="5.905"  ><desc>{ "type": "misc", "i": "thrusters" }</desc></ellipse><ellipse cx="460.5" cy="482.7" rx="5.776" ry="5.905"  ><desc>{ "type": "misc", "i": "thrusters" }</desc></ellipse><ellipse cx="846.6" cy="482.6" rx="5.776" ry="5.905"  ><desc>{ "type": "misc", "i": "thrusters" }</desc></ellipse><ellipse cx="728.9" cy="308.9" rx="5.776" ry="5.905"  ><desc>{ "type": "misc", "i": "thrusters" }</desc></ellipse><ellipse cx="578.1" cy="309" rx="5.776" ry="5.905"  ><desc>{ "type": "misc", "i": "thrusters" }</desc></ellipse></g><g stroke-width="1.764"><path d="m150.5 544.8h35.99l-17.99 18.98z"  ><desc>{ "type": "misc", "i": "thrusters" }</desc></path><path d="m247 544.8h35.99l-17.99 18.98z"  ><desc>{ "type": "misc", "i": "thrusters" }</desc></path><path d="m586.9 544.8h35.99l-17.99 18.98z"  ><desc>{ "type": "misc", "i": "thrusters" }</desc></path><path d="m683.4 544.8h35.99l-17.99 18.98z"  ><desc>{ "type": "misc", "i": "thrusters" }</desc></path><path d="m60.85 367h15.88l-7.941-8.377z"  ><desc>{ "type": "misc", "i": "thrusters" }</desc></path><path d="m356.4 367h15.88l-7.941-8.377z"  ><desc>{ "type": "misc", "i": "thrusters" }</desc></path><path d="m497.8 367h15.88l-7.941-8.377z"  ><desc>{ "type": "misc", "i": "thrusters" }</desc></path><path d="m793.4 367h15.88l-7.941-8.377z"  ><desc>{ "type": "misc", "i": "thrusters" }</desc></path></g></g><g ><rect x="780" y="450.4" width="18.31" height="18.45" rx="1.971" ry="1.821" fill="#ff3ae1"   stroke-width="1.554"><desc>{ "type": "utility", "i": 1 }</desc></rect><path d="m732.7 437.7h24.5v35.96h-24.5z" fill="#f39745"   stroke-width="1.235"><desc>{ "type": "misc", "i": "landing gear" }</desc></path><path d="m640.8 336.9h25.43l2.65 10.94-6.541 45.56h-17.65l-6.541-45.56z" fill="#f39745"   stroke-width="1.235"><desc>{ "type": "misc", "i": "landing gear" }</desc></path><circle cx="339.2" cy="156.1" r="3.783" fill="#979797"  stroke-width="3.587"><desc>{ "type": "hard_point", "cl": "gun", "i": 3 }</desc></circle><circle cx="535.4" cy="156.1" r="3.783" fill="#979797"  stroke-width="3.587"><desc>{ "type": "hard_point", "cl": "gun", "i": 4 }</desc></circle><g><path d="m165.4 425.3 11.59 14.11-0.1219 2.848-35.61 28.5 0.014 28.3-1.635 1.59-34.94-0.0443-1.719-1.999 0.024-24.4 1.259-2.798 58.43-46.13z" fill="#f39745"   stroke-width="1.235"><desc>{ "type": "misc", "i": "heat vents" }</desc></path><path d="m268.1 425.3-11.59 14.11 0.1219 2.848 35.61 28.5-0.014 28.3 1.635 1.59 34.94-0.0443 1.719-1.999-0.024-24.4-1.259-2.798-58.43-46.13z" fill="#f39745"   stroke-width="1.235"><desc>{ "type": "misc", "i": "heat vents" }</desc></path><path d="m209 295.8a8.125 7.918 0 0 0 8.125 7.918 8.125 7.918 0 0 0 8.125-7.918 8.125 7.918 0 0 0-1.904-5.082l-6.221-9.992-6.199 9.959a8.125 7.918 0 0 0-1.926 5.115z" fill="#46d2f3"   stroke-width="1.764"><desc>{ "type": "internal", "i": "entrance" }</desc></path></g></g></g></svg>
