<svg width="870" height="640" clip-rule="evenodd" fill-rule="evenodd" image-rendering="optimizeQuality" shape-rendering="geometricPrecision" text-rendering="geometricPrecision" version="1.1" viewBox="0 0 870 640" xml:space="preserve" xmlns="http://www.w3.org/2000/svg">
<g transform="translate(936.2)"  fill="none"  ><path d="m-285.4 70.43-7.144 41.3-8.426-0.0488-22.38 38.37 0.6133 55.21-5.41 0.0273-86.46 40.42-3.598 5.812 0.078 83.16 95.3 0.1465 6.176 95.64 24.02 72.93 24.89-0.168 24.89 0.168 24.02-72.93 6.176-95.64 95.31-0.1465 0.078-83.16-3.598-5.812-86.46-40.42-5.41-0.0273 0.6133-55.21-22.38-38.37-8.426 0.0488-7.144-41.3-17.67 0.1992z"  stroke-width="1.764"/><path d="m-367.9 388.7-0.5941 7.106-20.46 30.55-0.1 30.36 19.75 5.007-0.035 4.979 52.68 105.7 8.948 2.203 7.807-93.49"  stroke-width="1.764"/><path d="m-356.6 334.7-17.97 20.03-0.2003 34.59 6.822-0.5761"  stroke-width="1.764"/><g stroke-width="1.235"><path d="m-368.5 395.8-0.8129 65.92" /><path d="m-342 420.7 1.018 66.35 24.29 85.33" /><path d="m-237.4 212.3h-60.89v61.75h60.89z" /></g><ellipse transform="matrix(.9993 -.03691 .03599 .9994 0 0)" cx="-403.9" cy="244.1" rx="4.1" ry="4.923"  stroke-width="1.235"/><path d="m-400.5 252.5h11.36v12.54h-11.36z"  stroke-width="1.235"/><ellipse transform="matrix(.6862 .7275 -.7184 .6956 0 0)" cx="-124" cy="254.4" rx="4.099" ry="4.065"  stroke-width="1.235"/><g stroke-width="1.235"><path d="m-406.8 334.3 0.1263-82.8 83.86-38.44" /><path d="m-376.7 335.6 0.1263-85.19 44.58-9.82 2.67 3.044 6.946-0.1717v23.73l6.857 6.321 2.202 59.4-9.466 1.902" /><path d="m-368.7 270.5 17.43-3.509v62.82l-17.43-1.263z" /><path d="m-342.6 259.7 2.388-4.31 11.67 11.34v18.7l3.194 4.238 0.1764 34.94-4.633 0.559-10.72 0.3707-2.076-2.187z" /></g><g stroke-width="1.235"><path d="m-340.8 242.6-10.44 24.41" /><path d="m-340.8 242.6 0.6243 12.8" /><path d="m-340.5 325.6 0.1437 9.177" /><path d="m-351.3 329.8 0.1436 5.305" /><path d="m-376.7 302.5-29.9 0.3898" /><path d="m-376.7 308.7-29.9 0.3898" /><path d="m-267.7 198.6-10.34 0.0434-9.159-2.287-18.73 0.0678-7.629 7.928 0.1822 49.42 8.53 8.015 0.2563 18.46 36.89 5e-3" /><path d="m-267.7 150.5-15.99 0.0388-3.458 3.617-3.057 42.39" /></g><path d="m-322.4 243.5-0.3228-38.21 7.63-6.47 6.216-3.054 3.852-63.72 8.701-14.36 3.518 0.0749 0.2768-5.996"  stroke-width="1.235"/><path d="m-279.8 93.07h24.19l3.176 31.29-5.845 1.525-4.081 7.625h-10.69l-4.042-7.713-5.884-1.437z"  stroke-width="1.235"/><path d="m-167.4 388.7 0.594 7.106 20.46 30.55 0.1 30.36-19.75 5.007 0.035 4.979-52.68 105.7-8.948 2.203-7.807-93.49"  stroke-width="1.764"/><path d="m-178.8 334.7 17.97 20.03 0.2003 34.59-6.263-0.5761"  stroke-width="1.764"/><path d="m-166.8 395.8 0.8129 65.92"  stroke-width="1.235"/><ellipse transform="matrix(-.9993 -.03691 -.03599 .9994 0 0)" cx="131.2" cy="263.9" rx="4.1" ry="4.923"  stroke-width="1.235"/><path d="m-134.8 252.5h-11.36v12.54h11.36z"  stroke-width="1.235"/><ellipse transform="matrix(-.6862 .7275 .7184 .6956 0 0)" cx="248.4" cy="-135.1" rx="4.099" ry="4.065"  stroke-width="1.235"/><g stroke-width="1.235"><path d="m-128.6 334.3-0.1263-82.8-83.86-38.44" /><path d="m-158.7 335.6-0.1264-85.19-44.58-9.82-2.67 3.044-6.946-0.1717v23.73l-6.857 6.321-2.202 59.4 9.466 1.902" /><path d="m-166.7 270.5-17.43-3.509v62.82l17.43-1.263z" /><path d="m-192.8 259.7-2.388-4.31-11.67 11.34v18.7l-3.194 4.238-0.1764 34.94 4.633 0.559 10.72 0.3707 2.076-2.187z" /></g><g stroke-width="1.235"><path d="m-194.6 242.6 10.44 24.41" /><path d="m-194.6 242.6-0.6244 12.8" /><path d="m-194.9 325.6-0.1437 9.177" /><path d="m-184.1 329.8-0.1437 5.305" /><path d="m-158.7 302.5 29.9 0.3898" /><path d="m-158.7 308.7 29.9 0.3898" /><path d="m-267.7 198.6 10.34 0.0434 9.159-2.287 18.73 0.0678 7.629 7.928-0.1822 49.42-8.53 8.015-0.2562 18.46-36.89 5e-3" /><path d="m-267.7 150.5 15.99 0.0388 3.458 3.617 3.057 42.39" /></g><g stroke-width="1.235"><path d="m-213 243.5 0.3228-38.21-7.63-6.47-6.216-3.054-3.852-63.72-8.701-14.36-3.518 0.0749-0.2767-5.996" /><path d="m-282.9 124.4-8.959 0.3688-8.718 15.75-5.287 55.91" /><path d="m-252.4 124.4 8.959 0.3688 8.718 15.75 5.287 55.91" /></g><g stroke-width="1.235"><path d="m-341 487.1-28.38-20.33" /><path d="m-341.4 454.8-27.79 3.496" /><path d="m-301.3 502.5-39.7-15.49" /><path d="m-300.3 493.8-40.69-16.19" /><path d="m-267.7 411.5-21.72-0.1432-11.45 33.56-5.587-0.6518-6.865-111.3" /></g><path d="m-337.9 338.3h12.52v22.28c-4.05 1.66-8.204 1.91-12.52 0z"  stroke-width="1.235"/><path d="m-339.3 335.2 1.343 3.094"  stroke-width="1.235"/><path d="m-324.1 335.2-1.343 3.094"  stroke-width="1.235"/><path d="m-288.1 418.8h12.52v22.28c-4.05 1.66-8.204 1.91-12.52 0z"  stroke-width="1.235"/><g stroke-width="1.235"><path d="m-289.4 411.3 1.343 7.513" /><path d="m-274.2 411.6-1.343 7.248" /><path d="m-267.7 411.5 21.72-0.1432 11.45 33.56 5.587-0.6518 6.865-111.3" /></g><path d="m-247.3 418.8h-12.52v22.28c4.05 1.66 8.204 1.91 12.52 0z"  stroke-width="1.235"/><path d="m-246 411.3-1.343 7.513"  stroke-width="1.235"/><path d="m-261.2 411.6 1.343 7.248"  stroke-width="1.235"/><path d="m-209.8 338.3h12.52v22.28c-4.05 1.66-8.204 1.91-12.52 0z"  stroke-width="1.235"/><path d="m-211.1 335.2 1.343 3.094"  stroke-width="1.235"/><path d="m-195.9 335.2-1.343 3.094"  stroke-width="1.235"/><path d="m-193.3 421-1.018 66.1-24.29 85.33"  stroke-width="1.235"/><g stroke-width="1.235"><path d="m-194.4 487.1 28.38-20.33" /><path d="m-193.9 454.8 27.79 3.496" /><path d="m-234.1 502.5 39.7-15.49" /><path d="m-235.1 493.8 40.69-16.19" /><path d="m-267.7 498.5-21.11-0.4001-17.64-53.91" /><path d="m-267.7 498.5 21.11-0.4001 17.64-53.91" /><path d="m-283.8 493.1-17.04-48.27" /><path d="m-251.7 493.1 17.16-48.27" /></g><path d="m-250.2 291.5h-35.43v14.24h35.43z"  stroke-width="1.235"/><path d="m-259 309.2h-17.75v19.54h17.75z"  stroke-width="1.235"/><path d="m-256 356.6h-23.84v32.48l3.625 14.29h16.59l3.625-14.38z"  stroke-width="1.235"/><path d="m-289.4 411.3-10.58-43.25 0.2113-88.02"  stroke-width="1.235"/><path d="m-246 411.3 10.58-43.25-0.2113-88.02"  stroke-width="1.235"/><path d="m-259 332.3h-17.75v19.54h17.75z"  stroke-width="1.235"/><path d="m-282.5 356.3h-8.754v20.82h8.754z"  stroke-width="1.235"/><path d="m-244.6 356.3h-8.754v20.82h8.754z"  stroke-width="1.235"/><g transform="translate(1198)"><path d="m-1443 453.6h-46.18v12.36l7.02 27.16h32.14l7.02-27.24z"  stroke-width="1.235"/><path d="m-1443 460.6-46.24 0.0148"  stroke-width="1.235"/><path d="m-1443 465.9-46.24 0.0148"  stroke-width="1.235"/><path d="m-1443 453.4-7.19-6.625-11.41-4.704 0.044-20.28-7.979-0.0442-0.1768 20.37-11.12 4.384-7.966 6.9"  stroke-width="1.235"/><g stroke-width="1.235"><path d="m-1466 493.1-0.013-27.03" /><path d="m-1458 493.1 1.932-27.03" /><path d="m-1453 493.1 3.434-27.03" /><path d="m-1473 493.1-1.932-27.03" /><path d="m-1478 493.1-3.434-27.03" /></g></g><g transform="translate(1121 -71.84)"  ><path d="m-1443 453.6h-46.18v12.36l7.02 27.16h32.14l7.02-27.24z"  stroke-width="1.235"/><path d="m-1443 460.6-46.24 0.0148"  stroke-width="1.235"/><path d="m-1443 465.9-46.24 0.0148"  stroke-width="1.235"/><path d="m-1443 453.4-7.19-6.625-11.41-4.704 0.044-20.28-7.979-0.0442-0.1768 20.37-11.12 4.384-7.966 6.9"  stroke-width="1.235"/><g stroke-width="1.235"><path d="m-1466 493.1-0.013-27.03" /><path d="m-1458 493.1 1.932-27.03" /><path d="m-1453 493.1 3.434-27.03" /><path d="m-1473 493.1-1.932-27.03" /><path d="m-1478 493.1-3.434-27.03" /></g></g><g transform="translate(1275 -71.84)"  ><path d="m-1443 453.6h-46.18v12.36l7.02 27.16h32.14l7.02-27.24z"  stroke-width="1.235"/><path d="m-1443 460.6-46.24 0.0148"  stroke-width="1.235"/><path d="m-1443 465.9-46.24 0.0148"  stroke-width="1.235"/><path d="m-1443 453.4-7.19-6.625-11.41-4.704 0.044-20.28-7.979-0.0442-0.1768 20.37-11.12 4.384-7.966 6.9"  stroke-width="1.235"/><g stroke-width="1.235"><path d="m-1466 493.1-0.013-27.03" /><path d="m-1458 493.1 1.932-27.03" /><path d="m-1453 493.1 3.434-27.03" /><path d="m-1473 493.1-1.932-27.03" /><path d="m-1478 493.1-3.434-27.03" /></g></g><g stroke-width="1.235"><path d="m-340.6 338.7h-7.501v7.346h7.501z" /><path d="m-350.9 342.5h-7.501v25.64h7.501z" /><path d="m-194.4 338.7h7.501v7.346h-7.501z" /><path d="m-184.1 342.5h7.501v25.64h-7.501z" /></g></g><g transform="translate(1143 24.04)"  fill="none"  ><path d="m-954.8 46.39-7.145 41.3-8.426-0.04883-22.38 38.37 0.6133 55.21-5.41 0.0273-86.46 40.42-3.598 5.812 0.078 83.16 59.94 2.111-10.79 52.5 0.3886 6.545-20.46 30.55-0.1 36.71 19.75-1.346-0.035 4.979 52.68 107.3 9.842 2.303 8.006-98.25 6.283 25.28 24.89-0.168 24.89 0.168 6.283-25.28 8.006 98.25 9.842-2.303 52.68-107.3-0.0351-4.979 19.75 1.346-0.0996-36.71-20.46-30.55 0.3887-6.545-10.79-52.5 59.94-2.111 0.0781-83.16-3.598-5.812-86.46-40.42-5.41-0.0273 0.6133-55.21-22.38-38.37-8.426 0.04883-7.145-41.3-17.67 0.1992z"  stroke-width="1.764"/><g stroke-width="1.235"><path d="m-937.1 48.66-15.65 0.05664-6.66 40.26-0.127 13.65 6.764-2.225 15.68 0.1328 15.68-0.1328 6.764 2.225-0.127-13.65-6.66-40.26z" /><path d="m-952.7 48.71 4.302 12.28-4.326 39.41" /><path d="m-1028 312.7 20.42-91.55 15.03-39.98" /><path d="m-992.1 181.2 24.34-15.13 4.747-1.462 25.92 0.0358" /><path d="m-972.2 242.5 0.1869 25.82-7.531 31.68-1.268 97.5 0.623 154.3" /><path d="m-968.3 454.1-1.455-178.9-5.906 25.43-1.268 97.5 0.623 154.3" /><path d="m-975.7 305.8-31.9-2.672 10.95-52.62 24.4-2.105" /><path d="m-1039 437.7 23.65 3.236 0.5632-40.49-19.46-28.58-3.947-0.0855" /><path d="m-1038 371.8-0.8125 65.92" /></g><path d="m-1028 312.7-16.42 17.92-0.2003 34.59 5.839-0.0146"  stroke-width="1.764"/><g stroke-width="1.235"><path d="m-1024 299-58.22-2.316 0.063-42.3 58.92-28.56-0.022-24.54 29.17-14.4" /><path d="m-1026 383.8 10.78-47.01-15.31-7.366" /><path d="m-976.6 481.6-16.87-1.255-7.488-15.33 0.068-63.88 6.698-14.3 17.56 9e-3" /><path d="m-1028 439.3 32.93 65.34-4.313 16.5" /><path d="m-937.1 231.1-4.746 0.01-0.0335 3.217-15.7 0.1674-0.0878-3.352-7.582 0.0153-6.982 11.3-23.94 3.255-10.97-24.56" /><path d="m-965.2 231.2-0.1084-23.14-10.81-7.119 0.0191-16.97 7.818-11.26 31.23-0.1915" /><path d="m-959.7 94.33-7.091 0.0072-17.42 51.69-1.497 30.92" /><path d="m-959.5 102.6-11.32 3.769" /><path d="m-937.1 135-23.93 2e-3 -12.58-19.62" /><path d="m-961 135-1.995 29.62" /><path d="m-976.1 200.9-24.59 34.55" /></g><path d="m-1078 277.6h12.11v12.54h-12.11z"  stroke-width="1.235"/><ellipse transform="matrix(.9993 -.03691 .03599 .9994 0 0)" cx="-1039" cy="230.7" rx="4.1" ry="4.923"  stroke-width="1.235"/><path d="m-1036 262.6h11.36v12.54h-11.36z"  stroke-width="1.235"/><ellipse transform="matrix(.9992 -.04071 .03263 .9995 0 0)" cx="-1022" cy="395.2" rx="3.718" ry="4.923"  stroke-width="1.235"/><path d="m-1013 430.3h10.3v12.54h-10.3z"  stroke-width="1.235"/><path d="m-944.7 115.4h15.11v13.24h-15.11z"  stroke-width="1.235"/><path d="m-941.8 231.2-0.1125-32.17c-0.0353-5.153-2.079-13.84-8.005-13.92-5.926-0.0811-7.578 8.8-7.6 13.81l-0.1032 32.32"  stroke-width="1.235"/><path d="m-962.1 231.6 0.1405 247.8"  stroke-width="1.235"/><path d="m-959 261.4h8.864v13.24h-8.864z"  stroke-width="1.235"/><path d="m-959.9 283h11.87v20.85h-11.87z"  stroke-width="1.235"/><g stroke-width="1.235"><path d="m-921.4 48.71-4.302 12.28 4.326 39.41" /><path d="m-846.6 312.7-20.42-91.55-15.03-39.98" /><path d="m-882.1 181.2-24.34-15.13-4.747-1.462-25.92 0.0358" /><path d="m-902 242.5-0.1869 25.82 7.531 31.68 1.268 97.5-0.623 154.3" /><path d="m-905.9 454.1 1.455-178.9 5.906 25.43 1.268 97.5-0.623 154.3" /><path d="m-898.5 305.8 31.9-2.672-10.95-52.62-24.4-2.105" /><path d="m-835.4 437.7-23.65 3.236-0.5632-40.49 19.46-28.58 3.947-0.0855" /><path d="m-836.2 371.8 0.8125 65.92" /></g><path d="m-846.6 312.7 16.42 17.92 0.2003 34.59-5.839-0.0146"  stroke-width="1.764"/><g stroke-width="1.235"><path d="m-849.8 299 58.22-2.316-0.0626-42.3-58.92-28.56 0.0219-24.54-29.17-14.4" /><path d="m-848.2 383.8-10.78-47.01 15.31-7.366" /><path d="m-897.5 481.6 16.87-1.255 7.488-15.33-0.0683-63.88-6.698-14.3-17.56 9e-3" /><path d="m-845.7 439.3-32.93 65.34 4.313 16.5" /><path d="m-937.1 231.1 4.746 0.01 0.0335 3.217 15.7 0.1674 0.0878-3.352 7.582 0.0153 6.982 11.3 23.94 3.255 10.97-24.56" /><path d="m-908.9 231.2 0.1084-23.14 10.81-7.119-0.0191-16.97-7.818-11.26-31.23-0.1915" /><path d="m-914.5 94.33 7.091 0.0072 17.42 51.69 1.497 30.92" /><path d="m-914.6 102.6 11.32 3.769" /><path d="m-937.1 135 23.93 2e-3 12.58-19.62" /><path d="m-913.2 135 1.995 29.62" /><path d="m-898 200.9 24.59 34.55" /></g><path d="m-796.4 277.6h-12.11v12.54h12.11z"  stroke-width="1.235"/><ellipse transform="matrix(-.9993 -.03691 -.03599 .9994 0 0)" cx="833.7" cy="299.9" rx="4.1" ry="4.923"  stroke-width="1.235"/><path d="m-838.2 262.6h-11.36v12.54h11.36z"  stroke-width="1.235"/><ellipse transform="matrix(-.9992 -.04071 -.03263 .9995 0 0)" cx="851.5" cy="471.5" rx="3.718" ry="4.923"  stroke-width="1.235"/><path d="m-861 430.3h-10.3v12.54h10.3z"  stroke-width="1.235"/><path d="m-932.3 231.2 0.1125-32.17c0.0353-5.153 2.079-13.84 8.005-13.92 5.926-0.0811 7.578 8.8 7.6 13.81l0.1032 32.32"  stroke-width="1.235"/><path d="m-912 231.6-0.1405 247.8"  stroke-width="1.235"/><path d="m-915.2 261.4h-8.864v13.24h8.864z"  stroke-width="1.235"/><path d="m-914.3 283h-11.87v20.85h11.87z"  stroke-width="1.235"/><path d="m-925 68.15-24.1 4e-6"  stroke-width="1.235"/><path d="m-914.6 89.65-9.083-10.94-26.62 4e-6 -9.062 10.25"  stroke-width="1.235"/><path d="m-952.8 142.5h31.36v20.37h-31.36z"  stroke-width="1.235"/><path d="m-1082 254.4 0.1264-24.44 58.77-28.66"  stroke-width="1.235"/><path d="m-791.7 254.4-0.1264-24.44-58.77-28.66"  stroke-width="1.235"/><path d="m-944.7 451.3h15.11v13.24h-15.11z"  stroke-width="1.235"/><g stroke-width="1.235"><path d="m-912.6 470.7h-48.98" /><path d="m-912.6 357h-48.98" /><path d="m-912.6 309h-48.98" /></g><g stroke-width="1.235"><path d="m-1008 303.1-7.606 33.65" /><path d="m-976.4 335.7-24.34-0.9526-12.77-5.395" /><path d="m-976.3 362.8-25.09-1.078 0.642-26.98" /><path d="m-1014 372.2 1.425-5.69 9.241 4.446-1.425 5.69z" /><path d="m-1017 385.2 1.425-5.69 9.241 4.446-1.425 5.69z" /><path d="m-1020 274.2 1.425-5.69 9.241 4.446-1.425 5.69z" /><path d="m-1015 254 1.425-5.69 9.241 4.446-1.425 5.69z" /><path d="m-986.8 232.3 5.403-6.397 5.264 5.595-5.314 6.485z" /></g><path d="m-951.2 367.4h28.17l-4.293 28.43h-19.59z"  stroke-width="1.235"/><g stroke-width="1.235"><path d="m-912.6 446.5h-48.98" /><path d="m-950.5 370h-11.1" /><path d="m-912.3 370h-11.1" /><path d="m-946.9 446.6v-50.75" /><path d="m-942.9 446.6v-50.75" /><path d="m-946.9 404.8h-14.64" /><path d="m-927.3 446.6v-50.75" /><path d="m-931.3 446.6v-50.75" /><path d="m-927.3 404.8h14.64" /></g><path d="m-944.7 327.6h15.11v9.383h-15.11z"  stroke-width="1.235"/><g stroke-width="1.235"><path d="m-866.6 303.1 7.606 33.65" /><path d="m-897.8 335.7 24.34-0.9526 12.77-5.395" /><path d="m-897.9 362.8 25.09-1.078-0.6419-26.98" /><path d="m-860.5 372.2-1.425-5.69-9.241 4.446 1.425 5.69z" /><path d="m-857.4 385.2-1.425-5.69-9.241 4.446 1.425 5.69z" /><path d="m-854 274.2-1.425-5.69-9.241 4.446 1.425 5.69z" /><path d="m-858.7 254-1.425-5.69-9.241 4.446 1.425 5.69z" /><path d="m-887.4 232.3-5.403-6.397-5.264 5.595 5.314 6.485z" /></g></g><g  ><rect x="196" y="137.7" width="19.18" height="16.81" rx="1.971" ry="1.821" fill="#ff3ae1"    stroke-width="1.554"><desc>{ "type": "utility", "i": 1 }</desc></rect><rect x="430.8" y="128.2" width="8.144" height="8.073" fill="#979797"   stroke-width="3.587"><desc>{ "type": "gunsight", "cl": "gun", "i": 0 }</desc></rect><g fill="none" stroke="#979797" stroke-width="3.587"><path d="m442.9 86.92c21.52 3.996 37.82 22.87 37.82 45.55 0 5.371-0.9139 10.53-2.595 15.33m-7.842 13.97c-8.496 10.4-21.42 17.03-35.89 17.03-14.38 0-27.24-6.555-35.74-16.84m-7.716-13.37c-1.862-5.019-2.88-10.45-2.88-16.12 0-23.05 16.84-42.18 38.89-45.74" /><g><path d="m434.9 71.19v15.85" /><path d="m395.6 155.1-13.68 8.014" /><path d="m474.2 155.1 13.68 8.014" /></g></g><g fill="#979797" ><circle cx="443.7" cy="147.4" r="3.783"  stroke-width="3.587"><desc>{ "type": "hard_point", "cl": "gun", "i": 4 }</desc></circle><circle cx="426" cy="147.4" r="3.783"  stroke-width="2.869"><desc>{ "type": "hard_point", "cl": "gun", "i": 3 }</desc></circle><circle cx="384.4" cy="165" r="3.783"  stroke-width="3.587"><desc>{ "type": "gunsight", "cl": "gun", "i": 1 }</desc></circle></g><g ><path d="m698.8 212.3h-60.89v61.75h60.89z" fill="#f39746"   stroke-width="1.235"><desc>{ "type": "other", "i": "cargo hatch" }</desc></path><path d="m189.9 72.75-6.66 40.26-0.127 13.65 6.764-2.225h31.35l6.764 2.225-0.127-13.65-6.66-40.26z" fill="#f39746"   stroke-width="1.764"><desc>{ "type": "other", "i": "canopy" }</desc></path><circle cx="411.3" cy="147.4" r="3.783" fill="#979797"  stroke-width="2.869"><desc>{ "type": "hard_point", "cl": "gun", "i": 1 }</desc></circle><circle cx="458.4" cy="147.4" r="3.783" fill="#979797"  stroke-width="3.587"><desc>{ "type": "hard_point", "cl": "gun", "i": 2 }</desc></circle></g><g fill="#ff3ae1" ><rect x="196.1" y="473.7" width="18.97" height="16.62" rx="1.971" ry="1.821"   stroke-width="1.554"><desc>{ "type": "utility", "i": 2 }</desc></rect><rect x="63.25" y="299.9" width="15.52" height="16.07" rx="1.971" ry="1.821"   stroke-width="1.554"><desc>{ "type": "utility", "i": 3 }</desc></rect><rect x="332.4" y="299.9" width="15.52" height="16.07" rx="1.971" ry="1.821"   stroke-width="1.554"><desc>{ "type": "utility", "i": 4 }</desc></rect></g><g fill="#f39745" ><g stroke-width="1.235"><path d="m585 329.8-17.43-1.263v-58.05l17.43-3.509z"  ><desc>{ "type": "misc", "i": "landing gear" }</desc></path><path d="m752.1 329.8 17.43-1.263v-58.05l-17.43-3.509z"  ><desc>{ "type": "misc", "i": "landing gear" }</desc></path><path d="m646 196.5 3.007-0.192 9.159 2.287h20.68l9.159-2.287 3.007 0.192-3.057-42.39-3.458-3.617h-31.98l-3.458 3.617z"  ><desc>{ "type": "misc", "i": "landing gear" }</desc></path></g><ellipse transform="rotate(-3.6)" cx="93.82" cy="299.4" rx="4.135" ry="5.026"   stroke-width="1.764"><desc>{ "type": "misc", "i": "thrusters" }</desc></ellipse><ellipse transform="rotate(-3.6)" cx="279.8" cy="311.1" rx="4.135" ry="5.026"   stroke-width="1.764"><desc>{ "type": "misc", "i": "thrusters" }</desc></ellipse><ellipse transform="matrix(.9976 -.06903 .05713 .9984 0 0)" cx="108.1" cy="468.9" rx="3.762" ry="5.024"   stroke-width="1.764"><desc>{ "type": "misc", "i": "thrusters" }</desc></ellipse><ellipse transform="matrix(.9976 -.06903 .05713 .9984 0 0)" cx="249.8" cy="478.7" rx="3.762" ry="5.024"   stroke-width="1.764"><desc>{ "type": "misc", "i": "thrusters" }</desc></ellipse><ellipse transform="matrix(.9986 -.05372 .07339 .9973 0 0)" cx="660.5" cy="122.4" rx="4.09" ry="4.255"   stroke-width="1.764"><desc>{ "type": "misc", "i": "thrusters" }</desc></ellipse></g><path d="m662.6 80.82h11.8v11.47h-11.8z" fill="none"   stroke-width="1.235"/><g fill="#f39745" ><ellipse transform="matrix(.9981 -.06159 .06402 .9979 0 0)" cx="523.7" cy="291.7" rx="4.092" ry="4.878"   stroke-width="1.764"><desc>{ "type": "misc", "i": "thrusters" }</desc></ellipse><ellipse transform="matrix(.9981 -.06159 .06402 .9979 0 0)" cx="777.4" cy="307.3" rx="4.092" ry="4.878"   stroke-width="1.764"><desc>{ "type": "misc", "i": "thrusters" }</desc></ellipse><g stroke-width="1.764"><path d="m574.9 423.8h32.69l-16.35 19.94z"  ><desc>{ "type": "misc", "i": "thrusters" }</desc></path><path d="m652.3 495.7h32.69l-16.35 19.94z"  ><desc>{ "type": "misc", "i": "thrusters" }</desc></path><path d="m729.8 423.8h32.69l-16.35 19.94z"  ><desc>{ "type": "misc", "i": "thrusters" }</desc></path><path d="m95.19 201.5h51.13l-25.57-31.19z"  ><desc>{ "type": "misc", "i": "thrusters" }</desc></path></g></g><rect x="132.5" y="152.4" width="18.11" height="52.87" rx="3.114" ry="3.051" fill="#4df346"    stroke-width="1.661"><desc>{ "type": "hard_point", "i": 1 }</desc></rect><g fill="#f39745"  stroke-width="1.764"><path d="m265.2 201.5h51.13l-25.57-31.19z"  ><desc>{ "type": "misc", "i": "thrusters" }</desc></path><path d="m557.8 201.5h51.13l-25.57-31.19z"  ><desc>{ "type": "misc", "i": "thrusters" }</desc></path><path d="m727.8 201.5h51.13l-25.57-31.19z"  ><desc>{ "type": "misc", "i": "thrusters" }</desc></path></g><g fill="#4df346" ><rect x="260.5" y="152.4" width="18.11" height="52.87" rx="3.114" ry="3.051"   stroke-width="1.661"><desc>{ "type": "hard_point", "i": 2 }</desc></rect><rect x="173" y="77.05" width="9.27" height="32.18" rx="3.114" ry="3.051"   stroke-width="1.661"><desc>{ "type": "hard_point", "i": 3 }</desc></rect><rect x="228.7" y="77.05" width="9.27" height="32.18" rx="3.114" ry="3.051"   stroke-width="1.661"><desc>{ "type": "hard_point", "i": 4 }</desc></rect><rect transform="scale(-1,1)" x="-741.5" y="152.4" width="18.11" height="52.87" rx="3.114" ry="3.051"   stroke-width="1.661"><desc>{ "type": "hard_point", "i": 1 }</desc></rect><rect transform="scale(-1,1)" x="-613.5" y="152.4" width="18.11" height="52.87" rx="3.114" ry="3.051"   stroke-width="1.661"><desc>{ "type": "hard_point", "i": 2 }</desc></rect><rect transform="scale(-1,1)" x="-701" y="77.05" width="9.27" height="32.18" rx="3.114" ry="3.051"   stroke-width="1.661"><desc>{ "type": "hard_point", "i": 3 }</desc></rect><rect transform="scale(-1,1)" x="-645.3" y="77.05" width="9.27" height="32.18" rx="3.114" ry="3.051"   stroke-width="1.661"><desc>{ "type": "hard_point", "i": 4 }</desc></rect></g><g ><path d="m188.5 506.4h32.69l-16.35 19.94z" fill="#f39745"   stroke-width="1.764"><desc>{ "type": "misc", "i": "thrusters" }</desc></path><path d="m230.3 394h-11.1l0.4337-2.563h-28.17l0.7182 2.563h-11.1v-61h48.98z" fill="#f39745"   stroke-width="1.235"><desc>{ "type": "misc", "i": "heat vanes" }</desc></path><path d="m213.7 458.1a8.125 7.918 0 0 0-8.125-7.918 8.125 7.918 0 0 0-8.125 7.918 8.125 7.918 0 0 0 1.904 5.082l6.221 9.992 6.199-9.959a8.125 7.918 0 0 0 1.926-5.115z" fill="#46d2f3"   stroke-width="1.764"><desc>{ "type": "internal", "i": "entrance" }</desc></path></g></g></svg>
