<svg width="870" height="640" clip-rule="evenodd" fill-rule="evenodd" image-rendering="optimizeQuality" shape-rendering="geometricPrecision" text-rendering="geometricPrecision" version="1.1" viewBox="0 0 870 640" xml:space="preserve" xmlns="http://www.w3.org/2000/svg">
<g transform="matrix(.9145 0 0 .9144 12.32 47.62)"  fill="none"   stroke-width="1.094"><g transform="translate(1526)"><path d="m-891.7 227.7c-2.224 40.7-4.205 82.97-4.174 122.4m1.438 51.88c0.8694 20 5.681 44.22 9.299 65.09 1.956 11.98-21.07 27.79-49.38 52.55l-0.3652 36.61 91.7-26.5c4.768-1.974 4.75-4.675 5.188-7.633l3.031-0.123 3.031 0.123c0.438 2.957 0.4196 5.659 5.188 7.633l91.7 26.5-0.3652-36.61c-28.3-24.76-51.33-40.57-49.38-52.55 3.618-20.87 8.429-45.09 9.299-65.09m1.438-51.88c0.0315-39.43-1.95-81.69-4.174-122.4m-9.797-65.96c-4.507-21.27-7.844-39.59-16.52-58.18-8.078-17.3-16.77-25.95-30.42-26.43-13.65 0.48-22.34 9.121-30.42 26.43-8.675 18.58-12.01 36.91-16.52 58.18"  stroke-width="1.929"/><path d="m-910.9 233.7c-1.574 1.713-3.336 4.937-5.629 7.054s-7.048 1.287-8.166-2.36c-2.03 1.461-3.69 0.1694-3.831-1.811l1.091-31.38 50.1-48.2c5.841-5.694 9.283 3.906 9.574 11.16 1.201 29.86-7.788 54.11-7.701 55z"  stroke-width="1.929"/><ellipse transform="matrix(.9999 .01051 -.01574 .9999 0 0)" cx="-915.9" cy="246.4" rx="2.874" ry="2.923"  stroke-width="1.35"/><path d="m-881.7 224.7c-2.549 39.51-2.369 75.75-2.675 112.6-0.0303 2.036-1.468 3.414-2.596 4.727l-42.45 38.25-1.774 31.46c1.19 1.054 2.768 1.142 4.614 0.5679l38.03-12.11c2.216-0.7966 4.045-0.5206 4.171 3.642l0.423 9.557c0.0449 1.844 2.082 2.73 4.092 2.77l11.89-0.0212c2.587-0.054 4.527-0.4243 4.409-4.359l0.0424-64.39c-2.15-0.134-3.265-2.073-3.207-4.44l0.1839-70.81c0.0396-2.941 1.613-5.113 4.635-5.122l26.92-0.1121"  stroke-width="1.929"/><path d="m-883.5 163.1 0.471 18.95c-0.0588 0.544 0.1978 1.225-0.6828 1.988l-6.562 4.381c-0.7741 0.6352-1.956 0.5189-2.229-0.2969l-3.134-13.35"  stroke-width="1.35"/><path d="m-885.2 466.4 14.03 53.29c0.3399 1.383 1.362 2.746 2.468 2.7l30.72-0.263"  stroke-width="1.929"/><g stroke-width="1.35"><path d="m-887.8 355.9h21.36v31.51h-21.36z" /><path d="m-848.3 163.4h26.75v36.9h-26.75z" /><path d="m-859.3 272.9h48.75v51.15h-48.75z" /><path d="m-851.3 244.7h32.58v7.47l-4.419 5.433h-23.61l-4.552-5.521z" /></g><path d="m-875.5 223.1 15.48 21.98c1.01 1.323 2.058 2.778 3.339 2.789l5.083 0.0691"  stroke-width="1.35"/><g stroke-width="1.35"><path d="m-842.4 143.8h14.78l3.646 15.69h-22.07z" /><path d="m-841.8 122.9h13.5v12.19h-13.5z" /><path d="m-844.6 340.4h19.29v13.88h-19.29z" /><path d="m-890.7 421.4c7.77 13.13 19.83 6.27 21.49 12.5 1.588 15.18 3.458 28.09 5.375 40.64 1.373 8.037-11.62 8.459-14.49 0.5-6.218-20.02-8.623-34.68-12.38-53.64z" /><path d="m-844.6 363.7-10.5 32.57v31.56h40.29v-31.56l-10.5-32.57z" /></g><path d="m-835 488.8-7-0.0243-2.584-4.527-12.06-0.0602c-2.276-0.0131-2.616 1.653-2.209 3.688l4.309 34.06"  stroke-width="1.35"/><path d="m-835 497.3-7.85 0.0924 1.834 24.34"  stroke-width="1.35"/><path d="m-759.1 233.7c1.574 1.713 3.336 4.937 5.629 7.054s7.048 1.287 8.166-2.36c2.03 1.461 3.69 0.1694 3.831-1.811l-1.091-31.38-50.1-48.2c-5.841-5.694-9.283 3.906-9.574 11.16-1.201 29.86 7.788 54.11 7.701 55z"  stroke-width="1.929"/><ellipse transform="matrix(-.9999 .01051 .01574 .9999 0 0)" cx="754" cy="228.9" rx="2.874" ry="2.923"  stroke-width="1.35"/><path d="m-788.3 224.7c2.549 39.51 2.369 75.75 2.675 112.6 0.0303 2.036 1.468 3.414 2.596 4.727l42.45 38.25 1.774 31.46c-1.19 1.054-2.768 1.142-4.614 0.5679l-38.03-12.11c-2.216-0.7966-4.045-0.5206-4.171 3.642l-0.423 9.557c-0.0449 1.844-2.082 2.73-4.092 2.77l-11.89-0.0212c-2.587-0.054-4.527-0.4243-4.409-4.359l-0.0424-64.39c2.15-0.134 3.265-2.073 3.207-4.44l-0.1839-70.81c-0.0396-2.941-1.613-5.113-4.635-5.122l-26.92-0.1121"  stroke-width="1.929"/><path d="m-786.5 163.1-0.471 18.95c0.0588 0.544-0.1978 1.225 0.6828 1.988l6.562 4.381c0.7741 0.6352 1.956 0.5189 2.229-0.2969l3.134-13.35"  stroke-width="1.35"/><path d="m-784.8 466.4-14.03 53.29c-0.3399 1.383-1.362 2.746-2.468 2.7l-30.72-0.263"  stroke-width="1.929"/><path d="m-782.2 355.9h-21.36v31.51h21.36z"  stroke-width="1.35"/><path d="m-794.5 223.1-15.48 21.98c-1.01 1.323-2.058 2.778-3.339 2.789l-5.083 0.0691"  stroke-width="1.35"/><path d="m-779.3 421.4c-7.77 13.13-19.83 6.27-21.49 12.5-1.588 15.18-3.458 28.09-5.375 40.64-1.373 8.037 11.62 8.459 14.49 0.5 6.218-20.02 8.623-34.68 12.38-53.64z"  stroke-width="1.35"/><path d="m-835 488.8 7-0.0243 2.584-4.527 12.06-0.0602c2.276-0.0131 2.616 1.653 2.209 3.688l-4.309 34.06"  stroke-width="1.35"/><path d="m-835 497.3 7.85 0.0924-1.834 24.34"  stroke-width="1.35"/><path d="m-859.2 432.2h48.54c1.345 0.0855 1.546 1.865 1.332 3.893l-2.78 41.4c-0.1285 1.097-0.6535 2.441-1.678 2.464h-42.29c-0.8864 0.0292-1.604-1.204-1.734-2.431l-2.518-41.79c-0.1761-1.692 0.0122-3.523 1.127-3.538z"  stroke-width="1.35"/></g><path d="m672.1 220.8h9.612v16.96h-9.612z"  stroke-width="1.35"/><path d="m700.7 220.8h9.612v16.96h-9.612z"  stroke-width="1.35"/></g><g transform="matrix(.9145 0 0 .9144 1451 47.62)"  fill="none"  ><path d="m-1347 77.12c-13.65 0.48-22.34 9.121-30.42 26.43-8.675 18.58-12.01 36.91-16.52 58.18-4.885 23.91-8.767 49.53-9.797 65.96-2.224 40.7-4.205 82.97-4.174 122.4-0.089 17.48 0.5311 34.73 1.438 51.88 0.8694 20 5.681 44.22 9.299 65.09 1.956 11.98-21.07 27.79-49.38 52.55l-0.3652 36.61 91.7-26.5c4.768-1.974 4.75-4.675 5.188-7.633l3.031-0.123 3.031 0.123c0.438 2.957 0.4197 5.659 5.188 7.633l91.7 26.5-0.3652-36.61c-28.3-24.76-51.33-40.57-49.38-52.55 3.618-20.87 8.43-45.09 9.299-65.09 0.9064-17.15 1.527-34.4 1.438-51.88 0.032-39.43-1.95-81.69-4.174-122.4-1.03-16.43-4.912-42.05-9.797-65.96-4.507-21.27-7.844-39.59-16.52-58.18-8.078-17.3-16.77-25.95-30.42-26.43z"  stroke-width="1.929"/><path d="m-1404 227.5-19.07 6.173c-1.574 1.713-3.336 4.937-5.629 7.054s-7.048 1.287-8.166-2.36c-2.03 1.461-3.69 0.1694-3.831-1.811l1.091-31.38 45.54-43.47"  stroke-width="1.929"/><path d="m-1402 209.8-7.085 3.793-13.65 20.06"  stroke-width="1.35"/><ellipse transform="matrix(.9999 .01051 -.01574 .9999 0 0)" cx="-1428" cy="251.8" rx="2.874" ry="2.923"  stroke-width="1.35"/><path d="m-1407 349.7-33.97 29.73-1.774 30.59c1.19 1.025 2.768 1.111 4.614 0.5522l32.25-10.53"  stroke-width="1.929"/><path d="m-1347 99.88c-33.94 0.168-41.52 56.07-44.9 81.84-3.382 25.77-3.816 52.98-4.639 68.67-3.32 62.11-1.312 106.2 3.473 161 3.086 29.63 13.39 103.9 46.06 103.6 32.67 0.2036 42.98-74.01 46.06-103.6 4.785-54.73 6.792-98.86 3.473-161-0.8224-15.69-1.257-42.9-4.639-68.67-3.382-25.77-10.96-81.67-44.9-81.84z"  stroke-width="1.929"/><g stroke-width="1.35"><path d="m-1378 103.6-0.7195 14.26-3.347 14.34" /><path d="m-1385 144.9c2.871 12 4.703 23.73 6.816 38.69 9.927 1.521 20.44 1.666 31.07 1.556" /><path d="m-1347 388.2c-6.623 6e-3 -21.45 0.1697-25.16-19.93-3.711-20.1-4.034-38.24-5.679-73.35l0.077-104.5 30.76 0.0304" /></g><path d="m-1367 402.5h13.5v12.19h-13.5z"  stroke-width="1.35"/><path d="m-1347 484.9-15.25-0.2591c-1.024-15.27-1.472-34.39-1.496-56.33l16.75 0.0676"  stroke-width="1.35"/><ellipse transform="matrix(.9999 .01051 -.01574 .9999 0 0)" cx="-1380" cy="490.3" rx="2.874" ry="2.923"  stroke-width="1.35"/><path d="m-1393 540.8-3.718-22.6-43.37 19.75-0.096 16.68"  stroke-width="1.35"/><path d="m-1384 165.4 1.814 18.25c-3.577 46.46-3.612 92.92-3.25 139.4l-4.814 10.75c0.6172-55.83-0.6418-111.3 6.25-168.4z"  stroke-width="1.35"/><g stroke-width="1.35"><path d="m-1386 178.3 3.124 5.399" /><path d="m-1389 219.6 3.787 6.769" /><path d="m-1390 261.7 3.787 6.769" /><path d="m-1390 303.7 4.362 6.99" /><path d="m-1397 466.5 13.24-0.1254" /></g><ellipse transform="matrix(.9999 .01056 -.01566 .9999 0 0)" cx="-1374" cy="201.8" rx="1.106" ry="1.131"  stroke-width="1.35"/><ellipse transform="matrix(.9999 .01052 -.01571 .9999 0 0)" cx="-1365" cy="400.7" rx="1.813" ry="1.848"  stroke-width="1.35"/><path d="m-1290 227.5 19.07 6.173c1.574 1.713 3.336 4.937 5.629 7.054 2.293 2.117 7.048 1.287 8.166-2.36 2.03 1.461 3.69 0.1694 3.831-1.811l-1.091-31.38-45.54-43.47"  stroke-width="1.929"/><path d="m-1292 209.8 7.085 3.793 13.65 20.06"  stroke-width="1.35"/><ellipse transform="matrix(-.9999 .01051 .01574 .9999 0 0)" cx="1266" cy="223.5" rx="2.874" ry="2.923"  stroke-width="1.35"/><path d="m-1287 349.7 33.97 29.73 1.774 30.59c-1.19 1.025-2.768 1.111-4.614 0.5522l-32.25-10.53"  stroke-width="1.929"/><g stroke-width="1.35"><path d="m-1316 103.6 0.7195 14.26 3.347 14.34" /><path d="m-1309 144.9c-2.871 12-4.703 23.73-6.816 38.69-9.927 1.521-20.44 1.666-31.07 1.556" /><path d="m-1347 388.2c6.623 6e-3 21.45 0.1697 25.16-19.93s4.034-38.24 5.679-73.35l-0.077-104.5-30.76 0.0304" /></g><path d="m-1327 402.5h-13.5v12.19h13.5z"  stroke-width="1.35"/><path d="m-1347 484.9 15.25-0.2591c1.024-15.27 1.472-34.39 1.496-56.33l-16.75 0.0676"  stroke-width="1.35"/><ellipse transform="matrix(-.9999 .01051 .01574 .9999 0 0)" cx="1314" cy="462" rx="2.874" ry="2.923"  stroke-width="1.35"/><path d="m-1301 540.8 3.718-22.6 43.37 19.75 0.096 16.68"  stroke-width="1.35"/><path d="m-1310 165.4-1.814 18.25c3.577 46.46 3.612 92.92 3.25 139.4l4.814 10.75c-0.6172-55.83 0.6418-111.3-6.25-168.4z"  stroke-width="1.35"/><g stroke-width="1.35"><path d="m-1308 178.3-3.124 5.399" /><path d="m-1305 219.6-3.787 6.769" /><path d="m-1304 261.7-3.787 6.769" /><path d="m-1304 303.7-4.362 6.99" /><path d="m-1297 466.5-13.24-0.1254" /></g><ellipse transform="matrix(-.9999 .01056 .01566 .9999 0 0)" cx="1319" cy="173.3" rx="1.106" ry="1.131"  stroke-width="1.35"/><ellipse transform="matrix(-.9999 .01052 .01571 .9999 0 0)" cx="1329" cy="372.3" rx="1.813" ry="1.848"  stroke-width="1.35"/></g><g  ><rect x="197.5" y="412.2" width="18.39" height="17.5" rx="1.971" ry="1.821" fill="#ff3ae1"    stroke-width="1.554"><desc>{ "type": "utility", "i": 2 }</desc></rect><rect x="430.8" y="128.2" width="8.144" height="8.073" fill="#979797"   stroke-width="3.587"><desc>{ "type": "gunsight", "cl": "gun", "i": 0 }</desc></rect><g fill="none" stroke="#979797" stroke-width="3.587"><path d="m442.9 86.92c21.52 3.996 37.82 22.87 37.82 45.55 0 5.371-0.9139 10.53-2.595 15.33m-7.842 13.97c-8.496 10.4-21.42 17.03-35.89 17.03-14.38 0-27.24-6.555-35.74-16.84m-7.716-13.37c-1.862-5.019-2.88-10.45-2.88-16.12 0-23.05 16.84-42.18 38.89-45.74" /><g><path d="m434.9 71.19v15.85" /><path d="m395.6 155.1-13.68 8.014" /><path d="m474.2 155.1 13.68 8.014" /></g></g><g fill="#979797" ><circle cx="444.3" cy="142.6" r="3.783"  stroke-width="3.587"><desc>{ "type": "hard_point", "cl": "gun", "i": 2 }</desc></circle><circle cx="426.6" cy="142.6" r="3.783"  stroke-width="2.869"><desc>{ "type": "hard_point", "cl": "gun", "i": 1 }</desc></circle><circle cx="417.1" cy="156.7" r="3.783"  stroke-width="3.587"><desc>{ "type": "gunsight", "cl": "gun", "i": 1 }</desc></circle></g><rect x="627" y="249.5" width="8.79" height="15.51" rx="3.114" ry="3.051" fill="#4df346"    stroke-width="1.661"><desc>{ "type": "hard_point", "i": 2 }</desc></rect></g><path d="m612.8 545.1h17.65l-8.823 9.306z" fill="#f39745"  stroke-width="1.764"><desc>{ "type": "misc", "i": "thrusters" }</desc></path><g   ><g><ellipse cx="567.1" cy="264" rx="5.568" ry="5.714" fill="#f39745"   stroke-width="1.764"><desc>{ "type": "misc", "i": "thrusters" }</desc></ellipse><path d="m666.9 297.2h-44.59v46.78h44.59z" fill="#f39746"   stroke-width="1.235"><desc>{ "type": "other", "i": "cargo hatch" }</desc></path><path d="m632.4 197.1h24.47v33.74h-24.47z" fill="#f39745"   stroke-width="1.235"><desc>{ "type": "misc", "i": "landing gear" }</desc></path><path d="m190.7 142.3-0.658 13.04-3.061 13.11c7.316-16.59 16.41-29.57 31.89-29.52 12.57 0.125 23.43 8.842 31.89 29.52l-3.061-13.11-0.658-13.04c-7.649-17.36-17.37-23.92-28.17-24.17-11.41-0.1891-20.72 8.21-28.17 24.17z" fill="#f39746"   stroke-width="1.764"><desc>{ "type": "other", "i": "canopy" }</desc></path></g><g fill="#f39745"><path d="m630.5 545.1h12.01l-6.005 6.334z"   stroke-width="1.764"><desc>{ "type": "misc", "i": "thrusters" }</desc></path><path d="m676.1 545.1h-17.65l8.823 9.306z"   stroke-width="1.764"><desc>{ "type": "misc", "i": "thrusters" }</desc></path><path d="m658.5 545.1h-12.01l6.005 6.334z"   stroke-width="1.764"><desc>{ "type": "misc", "i": "thrusters" }</desc></path><path d="m186.9 545.1h17.65l-8.823 9.306z"   stroke-width="1.764"><desc>{ "type": "misc", "i": "thrusters" }</desc></path><path d="m204.5 545.1h12.01l-6.005 6.334z"   stroke-width="1.764"><desc>{ "type": "misc", "i": "thrusters" }</desc></path><path d="m250.2 545.1h-17.65l8.823 9.306z"   stroke-width="1.764"><desc>{ "type": "misc", "i": "thrusters" }</desc></path><g stroke-width="1.764"><path d="m232.5 545.1h-12.01l6.005 6.334z"  ><desc>{ "type": "misc", "i": "thrusters" }</desc></path><path d="m586.5 194.7h12.01l-6.005-6.334z"  ><desc>{ "type": "misc", "i": "thrusters" }</desc></path><path d="m690.7 194.7h12.01l-6.005-6.334z"  ><desc>{ "type": "misc", "i": "thrusters" }</desc></path><path d="m160.9 194.7h12.01l-6.005-6.334z"  ><desc>{ "type": "misc", "i": "thrusters" }</desc></path><path d="m265 194.7h12.01l-6.005-6.334z"  ><desc>{ "type": "misc", "i": "thrusters" }</desc></path></g><path d="m596.3 373.1h19.54v28.81h-19.54z"   stroke-width="1.235"><desc>{ "type": "misc", "i": "landing gear" }</desc></path><path d="m673.3 373.1h19.54v28.81h-19.54z"   stroke-width="1.235"><desc>{ "type": "misc", "i": "landing gear" }</desc></path></g><rect x="653.1" y="249.5" width="8.79" height="15.51" rx="3.114" ry="3.051" fill="#4df346"   stroke-width="1.661"><desc>{ "type": "hard_point", "i": 1 }</desc></rect><g fill="#f39745" stroke-width="1.764"><ellipse cx="722.1" cy="264" rx="5.568" ry="5.714"  ><desc>{ "type": "misc", "i": "thrusters" }</desc></ellipse><ellipse cx="141.4" cy="264" rx="5.568" ry="5.714"  ><desc>{ "type": "misc", "i": "thrusters" }</desc></ellipse><ellipse cx="296.5" cy="264" rx="5.568" ry="5.714"  ><desc>{ "type": "misc", "i": "thrusters" }</desc></ellipse><ellipse cx="181.9" cy="482.8" rx="5.568" ry="5.714"  ><desc>{ "type": "misc", "i": "thrusters" }</desc></ellipse><ellipse cx="256" cy="482.6" rx="5.568" ry="5.714"  ><desc>{ "type": "misc", "i": "thrusters" }</desc></ellipse></g><rect x="221.7" y="412.2" width="18.39" height="17.5" rx="1.971" ry="1.821" fill="#ff3ae1"   stroke-width="1.554"><desc>{ "type": "utility", "i": 3 }</desc></rect><rect x="635.2" y="156.8" width="18.39" height="17.5" rx="1.971" ry="1.821" fill="#ff3ae1"   stroke-width="1.554"><desc>{ "type": "utility", "i": 1 }</desc></rect><g><path d="m593.7 432.9c7.106 12.01 18.14 5.733 19.65 11.43 1.452 13.88 3.163 25.69 4.916 37.16 1.256 7.35-10.62 7.735-13.25 0.4572-5.687-18.3-7.886-31.71-11.32-49.05z" fill="#f39745"   stroke-width="1.235"><desc>{ "type": "misc", "i": "heat vents" }</desc></path><path d="m695.5 432.9c-7.106 12.01-18.14 5.733-19.65 11.43-1.452 13.88-3.163 25.69-4.916 37.16-1.256 7.35 10.62 7.735 13.25 0.4572 5.687-18.3 7.886-31.71 11.32-49.05z" fill="#f39745"   stroke-width="1.235"><desc>{ "type": "misc", "i": "heat vents" }</desc></path><path d="m284.5 268.5a7.918 8.125 0 0 0-7.918 8.125 7.918 8.125 0 0 0 7.918 8.125 7.918 8.125 0 0 0 5.082-1.904l9.992-6.221-9.959-6.199a7.918 8.125 0 0 0-5.115-1.926z" fill="#46d2f3"   stroke-width="1.764"><desc>{ "type": "internal", "i": "entrance" }</desc></path></g></g></svg>
