<svg width="870" height="640" clip-rule="evenodd" fill-rule="evenodd" image-rendering="optimizeQuality" shape-rendering="geometricPrecision" text-rendering="geometricPrecision" version="1.1" viewBox="0 0 870 640" xml:space="preserve" xmlns="http://www.w3.org/2000/svg">
<g transform="translate(896.5)"  fill="none"  ><g stroke-width="1.235"><path d="m-296.6 340 17.86 0.1299-2.34 17.29 8.732 33.01-4.27 0.215-29.67 13.85-28.13 13.69-60.03-32.26-27.15-24.48" /><path d="m-331.6 387 56.3-8.175" /><path d="m-322.6 378.3 45.2-7.212" /><path d="m-314.4 369 34.79-6.072" /><path d="m-306.4 358.8 25.62-4.1" /><path d="m-415.9 366.7 0.0472 83" /></g><path d="m-286.6 303 7.33 0.6262-2.889 15.22-7.33-0.6262z"  stroke-width="1.235"/><ellipse transform="matrix(.9424 .3345 -.2666 .9638 0 0)" cx="-191.5" cy="387.5" rx="2.817" ry="3.266"  stroke-width="1.236"/><g stroke-width="1.235"><path d="m-300.6 350 20.9-3.194" /><path d="m-341.7 392.8 11.61 2.469-0.5816 2.415 57.87-9.241" /><path d="m-330.7 397.7-4.806 19.84" /><path d="m-415.8 449.7 34.83 32.24 26.19 13.62" /><path d="m-275.5 396.9h12.48v25.99h-12.48z" /><path d="m-265 260.6h12.48v55.99h-12.48z" /><path d="m-272.3 390.5 7.365-115.5" /><path d="m-278.7 340.2 13.74-79.52" /></g><g stroke-width="1.235"><path d="m-280.2 253.6h42.92" /><path d="m-388.1 383.3 0.1811 50.49-13.05 8.571" /><path d="m-411.6 370.4-0.1811 64.28 15.34 10.97 0.0922 22.17" /><path d="m-350.4 409.7-9.188 17.96-36.88 17.95" /><path d="m-275.6 399-31.4 20.55-8.351 19.34-39.47 48.83 0.0466 7.874-0.2178 9.405" /><path d="m-334.4 418.2-5.267 21.55-32.22 29.96 0.0466 7.874-0.2178 9.405" /></g><path d="m-339.7 439.8 15.13 10.65"  stroke-width="1.235"/><ellipse transform="matrix(.9999 .01049 -.01577 .9999 0 0)" cx="-253" cy="370.3" rx="8.009" ry="8.131"  stroke-width="1.235"/><ellipse transform="matrix(.9999 .01049 -.01577 .9999 0 0)" cx="-281.8" cy="422.9" rx="8.009" ry="8.131"  stroke-width="1.235"/><path d="m-307.2 454.6h18.6v39.31h-18.6z"  stroke-width="1.235"/><path d="m-231.7 447.7h-54.09v58.97h54.09z"  stroke-width="1.235"/><path d="m-246.6 510.3h-24.21v29.47h24.21z"  stroke-width="1.235"/><path d="m-351 489.2 7.641 0.0152 0.0401 15.22-7.641-0.0152z"  stroke-width="1.235"/><ellipse transform="matrix(.7938 .6082 -.4484 .8938 0 0)" cx="-88.17" cy="618" rx="2.946" ry="3.172"  stroke-width="1.246"/><path d="m-350.9 504.4 13.74 3.611 21.85 1.791-5.704-35.04-14.18-5.561-15.75 19.98"  stroke-width="1.235"/><g stroke-width="1.235"><path d="m-220.9 340-17.86 0.1299 2.34 17.29-8.732 33.01 4.27 0.215 29.67 13.85 28.13 13.69 60.03-32.26 27.15-24.48" /><path d="m-185.9 387-56.3-8.175" /><path d="m-194.9 378.3-45.2-7.212" /><path d="m-203.1 369-34.79-6.072" /><path d="m-211.1 358.8-25.62-4.1" /><path d="m-101.6 366.6-0.0472 83.12" /></g><path d="m-230.9 303-7.33 0.6262 2.889 15.22 7.33-0.6262z"  stroke-width="1.235"/><ellipse transform="matrix(-.9424 .3345 .2666 .9638 0 0)" cx="308.6" cy="213.9" rx="2.817" ry="3.266"  stroke-width="1.236"/><g stroke-width="1.235"><path d="m-216.9 350-20.9-3.194" /><path d="m-175.8 392.8-11.61 2.469 0.5816 2.415-57.87-9.241" /><path d="m-186.8 397.7 4.806 19.84" /><path d="m-101.7 449.7-34.83 32.24-26.19 13.62" /><path d="m-242 396.9h-12.48v25.99h12.48z" /><path d="m-245.2 390.5-7.365-115.5" /><path d="m-238.8 340.2-13.74-79.52" /></g><g stroke-width="1.235"><path d="m-129.4 383.3-0.1811 50.49 13.05 8.571" /><path d="m-105.9 370.2 0.1811 64.4-15.34 10.97-0.0922 22.17" /><path d="m-167.1 409.7 9.188 17.96 36.88 17.95" /><path d="m-241.9 399 31.4 20.55 8.351 19.34 39.47 48.83-0.0466 7.874 0.2178 9.405" /><path d="m-183.1 418.2 5.267 21.55 32.22 29.96-0.0466 7.874 0.2178 9.405" /></g><path d="m-177.8 439.8-15.13 10.65"  stroke-width="1.235"/><ellipse transform="matrix(-.9999 .01049 .01577 .9999 0 0)" cx="235.7" cy="417.5" rx="8.009" ry="8.131"  stroke-width="1.235"/><path d="m-210.3 454.6h-18.6v39.31h18.6z"  stroke-width="1.235"/><path d="m-166.5 489.2-7.641 0.0152-0.0401 15.22 7.641-0.0152z"  stroke-width="1.235"/><ellipse transform="matrix(-.7938 .6082 .4484 .8938 0 0)" cx="382.8" cy="297.6" rx="2.946" ry="3.172"  stroke-width="1.246"/><path d="m-166.6 504.4-13.74 3.611-21.85 1.791 5.704-35.04 14.18-5.561 15.75 19.98"  stroke-width="1.235"/><path d="m-350.1 507.6 38.3 8.18 19.98 14.75 20.96 9.262"  stroke-width="1.764"/><g stroke-width="1.235"><path d="m-304.7 516 30.34 7.481-0.0587 12.6-31-18.56z" /><path d="m-212.9 516-30.34 7.481 0.0587 12.6 31-18.56z" /><path d="m-263 396.9h8.549" /><path d="m-272.3 390.5h27.14" /><path d="m-285.2 278.3 16.39 4" /><path d="m-232.1 278.3-16.39 4" /></g><path d="m-262.6 202.5-16.03 41.78-8.605 44.72-9.35 51-4.031 9.957-1.719-0.1699-4.043 8.996-1.99-0.0977-6.039 10.31-2.318 0.334-5.857 8.979-3.314 0.4824-5.719 8.148-9.818 2.262-0.3047 3.537-46.39-9.52-38.09-32.95-0.5684 6.867 5.209 4.301-0.1875 88.58 0.3809 0.9082 5.67 5.977 31.33 30.71 34.31 19.96 1.828 11.46 34.81 0.1367 1.455 4.514 53.23 27.73 53.23-27.73 1.455-4.514 34.81-0.1367 1.828-11.46 34.31-19.96 31.33-30.71 5.67-5.977 0.3809-0.9082-0.1875-88.58 5.209-4.301-0.5684-6.867-38.09 32.95-46.39 9.52-0.3047-3.537-9.818-2.262-5.719-8.148-3.314-0.4824-5.857-8.979-2.318-0.334-6.039-10.31-1.99 0.0977-4.043-8.996-1.719 0.1699-4.031-9.957-9.35-51-8.605-44.72-16.03-41.78h-3.838z"  stroke-width="1.764"/><path d="m-425.5 329.1h3.683v19.27h-3.683z"  stroke-width="1.235"/><path d="m-423.8 328.7 7e-3 -9.626"  stroke-width="1.764"/><path d="m-421.8 446.3-7.308-2.125-0.0589-19.59 6.897-1.717m0.3397-13.34-4.939-0.8388 0.073-6.297 1.312-2.235h3.683"  stroke-width="1.235"/><path d="m-424.3 400.5 7e-3 -41.08"  stroke-width="1.764"/><path d="m-424.4 423.7 7e-3 -14.69"  stroke-width="1.764"/><path d="m-92.03 329.1h-3.683v19.27h3.683z"  stroke-width="1.235"/><path d="m-93.72 328.7-7e-3 -9.626"  stroke-width="1.764"/><path d="m-95.7 446.3 7.308-2.125 0.0589-19.59-6.897-1.717m-0.3397-13.34 4.939-0.8388-0.073-6.297-1.312-2.235h-3.683"  stroke-width="1.235"/><g stroke-width="1.764"><path d="m-93.23 400.5-7e-3 -41.08" /><path d="m-93.14 423.7-7e-3 -14.69" /><path d="m-167.4 507.6-38.3 8.18-19.98 14.75-20.96 9.262" /><path d="m-346.3 519 2.93 3.571 2.335 6.454 17.99 0.2612 1.999-7.468 2.201-2.602" /><path d="m-171.3 519-2.93 3.571-2.335 6.454-17.99 0.2612-1.999-7.468-2.201-2.602" /><path d="m-423.7 352.7 7e-3 -4.54" /><path d="m-93.73 352.7-7e-3 -4.54" /></g></g><g transform="translate(899.5)"  fill="none"  ><path d="m-667.7 202.5-16.03 41.78-8.605 44.72-9.35 51-4.031 9.957-1.719-0.1699-4.043 8.996-1.99-0.0977-6.039 10.31-2.318 0.334-5.857 8.979-3.314 0.4824-5.719 8.148-9.818 2.262-0.3047 3.537-46.39-9.52-38.09-32.95-0.5684 6.867 5.209 4.301-0.1875 88.58 0.3809 0.9082 5.67 5.977 31.33 30.71 34.31 19.96 1.828 11.46 34.81 0.1367 1.455 8.279 53.23 27.73 53.23-27.73 1.455-8.279 34.81-0.1367 1.828-11.46 34.31-19.96 31.33-30.71 5.67-5.977 0.3809-0.9082-0.1875-88.58 5.209-4.301-0.5684-6.867-38.09 32.95-46.39 9.52-0.3047-3.537-9.818-2.262-5.719-8.148-3.314-0.4824-5.857-8.979-2.318-0.334-6.039-10.31-1.99 0.0977-4.043-8.996-1.719 0.1699-4.031-9.957-9.35-51-8.605-44.72-16.03-41.78h-3.838z"  stroke-width="1.764"/><g stroke-width="1.235"><path d="m-705.7 350-18.98 47.8-22.14-5.013" /><path d="m-724.7 397.8-1.001 2.604-26.58-4.289-3.488 7.733 12.53 16.92-0.13 2.469-46.05-27.74-37.27-34.01" /><path d="m-745.1 472.4 23.67 0.1484 2.825-1.454-15.35-13.67-2.878-0.436-17.05-0.1197-4.225-0.0392" /><path d="m-736.7 387 17.32-1.988" /><path d="m-727.7 378.3 11.26-1.113" /><path d="m-719.5 369 6.592-0.5915" /><path d="m-711.5 358.8 2.282-0.0344" /><path d="m-663.9 231.1-3.022 0.0342-1.386 2.638 0.1108 3.458-1.39 6.997-4.477 6.17-7.94 27.65 0.3876 15.09 7.908 41.57-13.09 43.87-3.281 1.102-2.322 14.35 14.85 24.03 1.315 37.92-12.24 25.84 0.3387 44.04 24.17 22.82" /><path d="m-663.9 518.4c-1.425 0.0126-2.97-0.2051-4.396-0.8683l-13.69-15.27-0.0683-21.88 9.714-20.49-1.27-42.73-9.592-15.17 5.581-1.936 6.191 9.89 1.709 53.92c1.939 1.923 3.91 2.163 5.818 2.139" /><path d="m-723.8 395.6 13.95 22.86 1.728 44.24 4.084 3.26-0.013-6.124 2.313-2.911 0.1256-19.22-3.418-2.559-0.0692-18.62-15.97-28.04" /><path d="m-704.1 465.9 15.65 15.91" /><path d="m-718.6 471.1 10.41-8.441" /><path d="m-705.1 416.5 19.61-10.94" /><path d="m-667.4 232.2-1.91-1.72 1.653-27.95" /><path d="m-663.9 475.8c-5.514-0.1955-12.04-4.615-15.66-13.33-3.619-8.719-5.959-33.77-6.023-56.9" /><path d="m-718.6 471.1 0.0315 48.08" /><path d="m-822.6 398.7 10.33-4.654 3.691 7.711-13.63 6.15z" /></g><g stroke-width="1.235"><path d="m-798.1 408.8h2.799v46.93h-2.799z" /><path d="m-787.7 414.5h2.799v46.93h-2.799z" /><path d="m-776.5 419.6h2.799v46.93h-2.799z" /></g><path d="m-751.3 519 2.93 3.571 2.335 6.454 17.99 0.2612 1.999-7.468 2.201-2.602"  stroke-width="1.764"/><path d="m-822.9 430.4h9.87v15.47h-9.87z"  stroke-width="1.235"/><ellipse transform="matrix(.9999 .01254 -.01319 .9999 0 0)" cx="-812.6" cy="450.2" rx="2.75" ry="3.337"  stroke-width="1.235"/><path d="m-694.9 303.6h7.33l-2.889 15.47h-7.33z"  stroke-width="1.235"/><ellipse transform="matrix(.9656 .2602 -.2608 .9654 0 0)" cx="-587.3" cy="479.2" rx="2.75" ry="3.337"  stroke-width="1.235"/><g stroke-width="1.235"><path d="m-622 350 18.98 47.8 22.14-5.013" /><path d="m-591 387-17.32-1.988" /><path d="m-600 378.3-11.26-1.113" /><path d="m-608.2 369-6.592-0.5915" /><path d="m-616.2 358.8-2.282-0.0344" /><path d="m-663.9 231.1 3.022 0.0342 1.386 2.638-0.1108 3.458 1.39 6.997 4.477 6.17 7.94 27.65-0.3876 15.09-7.908 41.57 13.09 43.87 3.281 1.102 2.322 14.35-14.85 24.03-1.315 37.92 12.24 25.84-0.3387 44.04-24.3 22.82" /><path d="m-663.9 518.4c1.425 0.0126 2.97-0.2051 4.396-0.8683l13.69-15.27 0.0683-21.88-9.714-20.49 1.27-42.73 9.592-15.17-5.581-1.936-6.191 9.89-1.709 53.92c-1.939 1.923-3.91 2.163-5.818 2.139" /><path d="m-603.9 395.6-13.95 22.86-1.728 44.24-4.084 3.26 0.013-6.124-2.313-2.911-0.1256-19.22 3.418-2.559 0.0692-18.62 15.97-28.04" /><path d="m-623.6 465.9-15.65 15.91" /><path d="m-609.1 471.1-10.41-8.441" /><path d="m-622.6 416.5-19.61-10.94" /><path d="m-660.3 232.2 1.91-1.72-1.653-27.95" /><path d="m-663.9 475.8c5.514-0.1955 12.04-4.615 15.66-13.33 3.619-8.719 5.959-33.77 6.023-56.9" /><path d="m-609.1 471.1-0.0874 52.04" /></g><path d="m-632.8 303.6h-7.33l2.889 15.47h7.33z"  stroke-width="1.235"/><ellipse transform="matrix(-.9656 .2602 .2608 .9654 0 0)" cx="694.4" cy="133.7" rx="2.75" ry="3.337"  stroke-width="1.235"/><g stroke-width="1.235"><path d="m-663.9 240.4-4.338 0.0879-10.51 34.41 0.2148 8.883 6.453 34.12 4.287 2.773 1.572-1.746 2.316-6e-3 2.316 6e-3 1.572 1.746 4.287-2.773 6.453-34.12 0.2148-8.883-10.51-34.41z" /><path d="m-668.2 240.5-0.8241 42.6-6.901 13.55" /><path d="m-659.5 240.5 0.8241 42.6 6.901 13.55" /><path d="m-669 283.1 2.16 4.331 5.736-0.0314 2.428-4.3" /><path d="m-669.3 334.3c3.477-1.242 7.061-1.445 10.82 0 7.126 21.4 12.53 43.16 15 65.56-14.95-4.145-28.2-3.064-40.81 0 2.554-21.66 8.124-43.56 15-65.56z" /><path d="m-826.7 445 40.58 36.93 28.12 15.78-0.0984-40.89 13.01 15.57-0.1045 46.48" /></g><path d="m-830.6 329.1h3.683v19.27h-3.683z"  stroke-width="1.235"/><path d="m-828.8 352.7 7e-3 -4.54"  stroke-width="1.764"/><path d="m-828.9 328.7 7e-3 -9.626"  stroke-width="1.764"/><path d="m-826.9 446.3-7.308-2.125-0.0589-19.59 6.897-1.717m0.3397-13.34-4.939-0.8388 0.073-6.297 1.312-2.235h3.683"  stroke-width="1.235"/><path d="m-829.4 400.5 7e-3 -41.08"  stroke-width="1.764"/><path d="m-829.5 423.7 7e-3 -14.69"  stroke-width="1.764"/><path d="m-671.1 352.5h14.8v35.93h-14.8z"  stroke-width="1.235"/><g stroke-width="1.235"><path d="m-718.5 519.2 4.397-2.908 50.29 38.92" /><path d="m-758 497.8 3.99 2.69-1.195 7.163" /><path d="m-743.4 423.2 0.2458 23.24 9.2 10.99" /><path d="m-582.7 472.4-23.67 0.1484-2.825-1.454 15.35-13.67 2.878-0.436 17.05-0.1197 4.225-0.0392" /><path d="m-505.1 398.7-10.33-4.654-3.691 7.711 13.63 6.15z" /></g><g stroke-width="1.235"><path d="m-529.6 408.8h-2.799v46.93h2.799z" /><path d="m-540 414.5h-2.799v46.93h2.799z" /><path d="m-551.2 419.6h-2.799v46.93h2.799z" /></g><path d="m-576.4 519-2.93 3.571-2.335 6.454-17.99 0.2612-1.999-7.468-2.201-2.602"  stroke-width="1.764"/><path d="m-504.9 430.4h-9.87v15.47h9.87z"  stroke-width="1.235"/><ellipse transform="matrix(-.9999 .01254 .01319 .9999 0 0)" cx="515" cy="433.6" rx="2.75" ry="3.337"  stroke-width="1.235"/><path d="m-501 445-40.58 36.93-28.12 15.78 0.0984-40.89-13.01 15.57 0.1045 46.48"  stroke-width="1.235"/><path d="m-497.1 329.1h-3.683v19.27h3.683z"  stroke-width="1.235"/><path d="m-498.9 352.7-7e-3 -4.54"  stroke-width="1.764"/><path d="m-498.8 328.7-7e-3 -9.626"  stroke-width="1.764"/><path d="m-500.8 446.3 7.308-2.125 0.0589-19.59-6.897-1.717m-0.3397-13.34 4.939-0.8388-0.073-6.297-1.312-2.235h-3.683"  stroke-width="1.235"/><path d="m-498.3 400.5-7e-3 -41.08"  stroke-width="1.764"/><path d="m-498.2 423.7-7e-3 -14.69"  stroke-width="1.764"/><g stroke-width="1.235"><path d="m-609.2 519.2-4.397-2.908-50.29 38.92" /><path d="m-603 397.8 1.001 2.604 26.58-4.289 3.488 7.733-12.53 16.92 0.13 2.469 46.05-27.74 37.27-34.01" /><path d="m-584.4 423.2-0.2458 23.24-9.2 10.99" /></g></g><g  ><rect x="558.2" y="490.5" width="13.92" height="13.25" rx="1.971" ry="1.821" fill="#ff3ae1"    stroke-width="1.554"><desc>{ "type": "utility", "i": 1 }</desc></rect><rect x="430.8" y="128.2" width="8.144" height="8.073" fill="#979797"   stroke-width="3.587"><desc>{ "type": "gunsight", "cl": "gun", "i": 0 }</desc></rect><g fill="none" stroke="#979797" stroke-width="3.587"><path d="m442.9 86.92c21.52 3.996 37.82 22.87 37.82 45.55 0 5.371-0.9139 10.53-2.595 15.33m-7.842 13.97c-8.496 10.4-21.42 17.03-35.89 17.03-14.38 0-27.24-6.555-35.74-16.84m-7.716-13.37c-1.862-5.019-2.88-10.45-2.88-16.12 0-23.05 16.84-42.18 38.89-45.74" /><g><path d="m434.9 71.19v15.85" /><path d="m395.6 155.1-13.68 8.014" /><path d="m474.2 155.1 13.68 8.014" /></g></g><g fill="#979797" ><circle cx="429.3" cy="154" r="3.783"  stroke-width="3.587"><desc>{ "type": "hard_point", "cl": "gun", "i": 2 }</desc></circle><circle cx="440.3" cy="154" r="3.783"  stroke-width="2.869"><desc>{ "type": "hard_point", "cl": "gun", "i": 3 }</desc></circle><circle cx="423.6" cy="178" r="3.783"  stroke-width="3.587"><desc>{ "type": "gunsight", "cl": "gun", "i": 2 }</desc></circle></g><g ><rect x="621" y="396.9" width="12.48" height="25.99" rx="3.114" ry="3.051" fill="#4df346"   stroke-width="1.661"><desc>{ "type": "hard_point", "i": 3 }</desc></rect><ellipse transform="rotate(21.39)" cx="306.1" cy="213.1" rx="5.28" ry="6.417" fill="#f39745"   stroke-width="1.764"><desc>{ "type": "misc", "i": "thrusters" }</desc></ellipse><path d="m664.8 447.7h-54.09v58.97h54.09z" fill="#f39746"   stroke-width="1.235"><desc>{ "type": "other", "i": "cargo hatch" }</desc></path><circle cx="435" cy="123.1" r="3.783" fill="#979797"  stroke-width="2.869"><desc>{ "type": "hard_point", "cl": "gun", "i": 1 }</desc></circle></g><g fill="#f39745"  stroke-width="1.235"><path d="m589.3 454.6h18.6v39.31h-18.6z"  ><desc>{ "type": "misc", "i": "landing gear" }</desc></path><path d="m667.6 454.6h18.6v39.31h-18.6z"  ><desc>{ "type": "misc", "i": "landing gear" }</desc></path><path d="m631.5 260.6h12.48v55.99h-12.48z"  ><desc>{ "type": "misc", "i": "landing gear" }</desc></path></g><rect x="642" y="396.9" width="12.48" height="25.99" rx="3.114" ry="3.051" fill="#4df346"    stroke-width="1.661"><desc>{ "type": "hard_point", "i": 2 }</desc></rect><path d="m228.4 352.5h14.8v35.93h-14.8z" fill="#4df346"    stroke-width="1.235"><desc>{ "type": "hard_point", "i": 1 }</desc></path><g fill="#f39745" ><path d="m235.7 240.4-4.338 0.0879-10.51 34.41 0.2148 8.883 6.453 34.12 4.287 2.773 1.572-1.746 2.316-6e-3 2.316 6e-3 1.572 1.746 4.287-2.773 6.453-34.12 0.2148-8.883-10.51-34.41z"   stroke-width="1.235"><desc>{ "type": "other", "i": "canopy" }</desc></path><g stroke-width="1.764"><path d="m91.5 374.4h12.38l-6.189-6.529z"  ><desc>{ "type": "misc", "i": "thrusters" }</desc></path><path d="m380.1 374.4h-12.38l6.189-6.529z"  ><desc>{ "type": "misc", "i": "thrusters" }</desc></path><path d="m553.7 533.8h21.93l-10.96 11.57z"  ><desc>{ "type": "misc", "i": "thrusters" }</desc></path><path d="m493.5 374.4h12.38l-6.189-6.529z"  ><desc>{ "type": "misc", "i": "thrusters" }</desc></path><path d="m782 374.4h-12.38l6.189-6.529z"  ><desc>{ "type": "misc", "i": "thrusters" }</desc></path></g><g stroke-width="1.764"><ellipse transform="matrix(-.9311 .3648 .3648 .9311 0 0)" cx="-132.9" cy="385.2" rx="5.28" ry="6.417"  ><desc>{ "type": "misc", "i": "thrusters" }</desc></ellipse><ellipse transform="matrix(-.9969 .079 .079 .9969 0 0)" cx="-46.2" cy="445" rx="5.28" ry="6.417"  ><desc>{ "type": "misc", "i": "thrusters" }</desc></ellipse><ellipse transform="matrix(-.9969 .079 .079 .9969 0 0)" cx="-354" cy="469.6" rx="5.28" ry="6.417"  ><desc>{ "type": "misc", "i": "thrusters" }</desc></ellipse><ellipse transform="matrix(-.9969 .079 .079 .9969 0 0)" cx="-508.1" cy="540.5" rx="5.28" ry="6.417"  ><desc>{ "type": "misc", "i": "thrusters" }</desc></ellipse><ellipse transform="matrix(-.9969 .079 .079 .9969 0 0)" cx="-684.3" cy="554.6" rx="5.28" ry="6.417"  ><desc>{ "type": "misc", "i": "thrusters" }</desc></ellipse><ellipse transform="rotate(9.772)" cx="656.3" cy="200.8" rx="5.28" ry="6.417"  ><desc>{ "type": "misc", "i": "thrusters" }</desc></ellipse><ellipse transform="matrix(-.9855 .1697 .1697 .9855 0 0)" cx="-600.7" cy="417.6" rx="5.28" ry="6.417"  ><desc>{ "type": "misc", "i": "thrusters" }</desc></ellipse></g><g stroke-width="1.764"><path d="m700.3 533.8h21.93l-10.96 11.57z"  ><desc>{ "type": "misc", "i": "thrusters" }</desc></path><path d="m152.1 533.8h21.93l-10.96 11.57z"  ><desc>{ "type": "misc", "i": "thrusters" }</desc></path><path d="m298.7 533.8h21.93l-10.96 11.57z"  ><desc>{ "type": "misc", "i": "thrusters" }</desc></path></g></g><g><path d="m329.7 497.8-3.99 2.69 1.195 7.163" fill="none"   stroke-width="1.235"/><path d="m235.6 401.8c-7.546 0.03418-14.87 0.9093-21.68 3.738 1.327 40.67 1.264 67.14 21.68 70.24 20.42-3.102 20.35-29.57 21.68-70.24-6.811-2.829-14.14-3.704-21.68-3.738z" fill="#f39745"    stroke-width="1.235"><desc>{ "type": "misc", "i": "heat vents" }</desc></path><path d="m629.5 252.1a8.125 7.918 0 0 0 8.125 7.918 8.125 7.918 0 0 0 8.125-7.918 8.125 7.918 0 0 0-1.904-5.082l-6.221-9.992-6.199 9.959a8.125 7.918 0 0 0-1.926 5.115z" fill="#46d2f3"    stroke-width="1.764"><desc>{ "type": "internal", "i": "entrance" }</desc></path></g></g></svg>
