<svg width="870" height="640" clip-rule="evenodd" fill-rule="evenodd" image-rendering="optimizeQuality" shape-rendering="geometricPrecision" text-rendering="geometricPrecision" version="1.1" viewBox="0 0 870 640" xml:space="preserve" xmlns="http://www.w3.org/2000/svg">
<g transform="translate(792.2 -25.41)" fill="none" ><g stroke-width="1.764"><path d="m-217.8 222.6-3.236 8.923-8.257 6.168-14.9 28.06 0.6399 152.4 5.45 11.5-0.5632 41.59m-3.489 71.57 5.886 56.25 62.31 1.477 3.362-4.194 16.23-0.072 16.23 0.072 3.363 4.194 61.98 0.1067 5.887-57.58m-3.155-71.7-0.5649-41.72 5.451-11.5 0.6399-152.4-14.9-28.06-8.257-6.168-3.388-9.344m-12.31-33.96-2.626-7.244-22.44-41.21-11.73-9.464h-28.36l-11.73 9.464-22.44 41.21-2.305 6.358"/><path d="m-202.4 213.9-27.41 14.95-1.589-2.217 7.19-23.22 33.36-27.58"/><path d="m-243.7 411.9-48.78 54.3-1.51-0.7612-2.163 1.672-1.173 5.61-18.89 19.65-4.29-1.224 3.721-78.85 9.031-18.4 4.082-0.4334 59.47-108"/><path d="m-220.1 508.8-11.28 0.2794 0.1878 33.08-40.3 1.988-2.97 1.678-21.84 0.1998 0.1394-34.41 4.094-4.697 71.85-46.93"/><path d="m-176.8 600.6-0.9429 5.54-54.57-0.2357-0.5893-6.338"/><path d="m-131.4 600.6 0.9429 5.54 54.57-0.2357 0.5893-5.068"/><path d="m-64.94 411.9 48.78 54.3 1.51-0.7612 2.163 1.672 1.173 5.61 18.89 19.65 4.29-1.224-3.721-78.85-9.031-18.4-4.082-0.4334-59.47-108"/><path d="m-88.84 508.2 10.62-0.0302 0.09045 33.95 41.01 2.01 2.97 1.678 21.84 0.1998-0.1394-34.41-4.094-4.697-72.4-47.62"/></g><path d="m-169.6 198.9 3.727-1.583 22.22-0.0355 4.256 1.619v45.91l-3.374 2.584-23-0.0834-3.826-2.5z" stroke-width="1.235"/><path d="m-154.5 196.8 0.2537 50.04" stroke-width="1.235"/><g transform="matrix(1.764 0 0 1.764 -856 62.77)" stroke-width=".7"><path d="m350.1 126.3h9.171v9.279h-9.171z"/><circle cx="354.7" cy="130.9" r="3.174"/></g><g stroke-width="1.235"><path d="m-244.4 331.1-73.41 106.5"/><path d="m-64.62 331.1 73.41 106.5"/><path d="m-207.6 286.3 1.924-0.998 11.47-0.0224 2.196 1.02v28.93l-1.741 1.628-11.87-0.0526-1.974-1.576z"/><path d="m-116.6 285.6 1.924-0.998 11.47-0.0224 2.196 1.02v28.93l-1.741 1.628-11.87-0.0526-1.974-1.576z"/></g><g transform="matrix(1.764 0 0 1.764 -704.6 62.77)" stroke-width=".7"><path d="m350.1 126.3h9.171v9.279h-9.171z"/><circle cx="354.7" cy="130.9" r="3.174"/></g><g stroke-width="1.235"><path d="m-167 257h25.02v39.59h-25.02z"/><path d="m-214.2 362.7h22.58v39.59h-22.58z"/><path d="m-207.1 415.9h16.68v18.61h-16.68z"/><path d="m-211.5 463h22.58v39.59h-22.58z"/></g><g transform="matrix(1.764 0 0 1.764 -828.1 293.8)" stroke-width=".7"><path d="m350.1 126.3h9.171v9.279h-9.171z"/><circle cx="354.7" cy="130.9" r="3.174"/></g><path d="m-206.1 336.5h11.85v11.27h-11.85z" stroke-width="1.235"/><path d="m-203.9 440.4h11.85v11.27h-11.85z" stroke-width="1.235"/><path d="m-176.5 357.5 5.311-1.357 31.66-0.0303 6.065 1.387v39.34l-4.808 2.214-32.78-0.0714-5.452-2.143z" stroke-width="1.235"/><path d="m-154.5 541.5-65.65 0.1323 0.265-132.9 0.0568-133.7 33.08-115 6.443-20.26" stroke-width="1.764"/><g stroke-width="1.235"><path d="m-244.5 275.8 30.92-22.83"/><path d="m-143.9 130.8-1.225 37.05-17.92 0.2582-1.953-37.37"/><path d="m-167.5 260.5-9.123-0.1411-12.25-36.08 13.82-77.2 10.45-7.628"/></g><path d="m-154.5 407.1-64.82 0.0369-24.4 4.855" stroke-width="1.764"/><g stroke-width="1.235"><path d="m-187.3 407 0.3058-46.11 10.38-19.58-0.0852-65.88-23.61-67.5"/><path d="m-219.8 333.9-24.15 0.3961"/><path d="m-220.4 345.6-24.15 0.3961"/><path d="m-219.6 358.4-24.15 0.3961"/></g><path d="m-207.4 418.9-12.49 0.2588" stroke-width="1.764"/><path d="m-154.5 418.8-36.3 0.2588" stroke-width="1.764"/><path d="m-180.9 422.3h52.08v39.08l-4.125 3.607h-44.18l-3.772-3.167z" stroke-width="1.235"/><path d="m-181 467.9v22.38l9.311 9.94h33.86l9.311-9.94v-22.38h-52.08z" stroke-width="1.235"/><path d="m-106.6 213.9 27.41 14.95 1.589-2.217-7.19-23.22-33.36-27.58" stroke-width="1.764"/><path d="m-101.8 415.9h-16.68v18.61h16.68z" stroke-width="1.235"/><path d="m-97.47 463h-22.58v39.59h22.58z" stroke-width="1.235"/><g transform="matrix(-1.764 0 0 1.764 519.1 293.8)" stroke-width=".7"><path d="m350.1 126.3h9.171v9.279h-9.171z"/><circle cx="354.7" cy="130.9" r="3.174"/></g><path d="m-105.1 440.4h-11.85v11.27h11.85z" stroke-width="1.235"/><path d="m-154.5 541.5 65.65 0.1323-0.265-132.9-0.0568-133.7-33.08-115-6.443-20.26" stroke-width="1.764"/><path d="m-64.44 275.8-30.92-22.83" stroke-width="1.235"/><path d="m-141.5 260.5 9.123-0.1411 12.25-36.08-13.82-77.2-10.45-7.628" stroke-width="1.235"/><path d="m-154.5 407.1 64.82 0.0369 24.4 4.855" stroke-width="1.764"/><g stroke-width="1.235"><path d="m-121.7 407-0.3058-46.11-10.38-19.58 0.0852-65.88 23.61-67.5"/><path d="m-89.22 333.9 24.15 0.3961"/><path d="m-88.55 345.6 24.15 0.3961"/><path d="m-89.39 358.4 24.15 0.3961"/></g><path d="m-101.5 418.9 12.49 0.2588" stroke-width="1.764"/><path d="m-154.5 418.8 36.3 0.2588" stroke-width="1.764"/><path d="m-94.66 362.7h-22.58v39.59h22.58z" stroke-width="1.235"/><path d="m-102.8 336.5h-11.85v11.27h11.85z" stroke-width="1.235"/><g stroke-width="1.235"><path d="m-176.9 541.7 2.936 58.87"/><path d="m-171.6 541.9 1.004 54.4"/><path d="m-131.9 541.7-2.936 58.87"/><path d="m-137.2 541.9-1.004 54.4"/><path d="m-219.9 419.2-18.2 10.47"/><path d="m-70.65 429.6-18.39-10.47"/><path d="m-205.8 599.7-1.131-32.15-16.54-0.224-1.803 32.43"/><path d="m-200 600.6 1.131-32.9 16.54 0.526 1.803 32.43"/><path d="m-103.3 599.7 1.131-32.15 16.54-0.224 1.803 32.43"/><path d="m-109.1 600.6-1.131-32.9-16.54 0.526-1.803 32.43"/></g><path d="m-166.2 561.3h23.59v23.3h-23.59z" stroke-width="1.235"/><g stroke-width="1.235"><path d="m-176.6 301.2 44.32 0.0275"/><path d="m-176.6 314.5 44.32 0.0275"/><path d="m-176.6 327.4 44.32 0.0275"/><path d="m-176.7 341.3 44.32 0.0275"/><path d="m-176.8 288.2 9.647 0.0275"/><path d="m-142.1 288.2 9.647 0.0275"/><path d="m-176.7 275.4 9.647 0.0275"/><path d="m-141.9 275.4 9.647 0.0275"/><path d="m-220 437.2 39.15 0.0275"/><path d="m-220.1 457.5 39.15 0.0275"/><path d="m-128.5 437.2 39.15 0.0275"/><path d="m-128.6 457.5 39.15 0.0275"/><path d="m-183 503.7h15.68v34.11h-15.68z"/><path d="m-142.3 503.7h15.68v34.11h-15.68z"/><path d="m-177.8 163.6 12.57 9.613-3.428 17.8-14.8 4.231"/><path d="m-219.8 275 34.26 9.377-0.1281 29.11 9.099 0.9582"/><path d="m-88.53 275-34.26 9.377 0.1281 29.11-9.099 0.9582"/><path d="m-131 163.6-12.57 9.613 3.428 17.8 14.8 4.231"/><path d="m-161.8 173.4-3.939 20.87h22.52l-3.939-20.87-7.323 0.0665z"/></g></g><g  ><g fill="#4df346" ><rect x="623" y="171.4" width="29.7" height="51.34" rx="2.997" ry="3.087"   stroke-width="1.639"><desc>{ "type": "hard_point", "i": 1 }</desc></rect><rect x="583.8" y="259.4" width="17.12" height="32.66" rx="1.727" ry="1.964"   stroke-width=".9927"><desc>{ "type": "hard_point", "i": 4 }</desc></rect><rect x="674.8" y="258.5" width="17.12" height="32.8" rx="1.727" ry="1.973"   stroke-width=".9948"><desc>{ "type": "hard_point", "i": 3 }</desc></rect></g><g fill="#ff3ae1" ><rect x="586.8" y="413" width="14.93" height="15.46" rx="1.854" ry="1.713"   stroke-width="1.462"><desc>{ "type": "utility", "i": 2 }</desc></rect><rect x="673.4" y="413" width="15.3" height="15.85" rx="1.901" ry="1.756"   stroke-width="1.499"><desc>{ "type": "utility", "i": 1 }</desc></rect><rect x="675.7" y="308.8" width="15.29" height="15.83" rx="1.899" ry="1.755"   stroke-width="1.497"><desc>{ "type": "utility", "i": 3 }</desc></rect><rect x="583.9" y="308.8" width="15.87" height="16.43" rx="1.971" ry="1.821"   stroke-width="1.554"><desc>{ "type": "utility", "i": 4 }</desc></rect></g><rect x="430.8" y="128.2" width="8.144" height="8.073" fill="#979797"   stroke-width="3.587"><desc>{ "type": "gunsight", "cl": "gun", "i": 0 }</desc></rect><g fill="none" stroke="#979797" stroke-width="3.587"><path d="m442.9 86.92c21.52 3.996 37.82 22.87 37.82 45.55 0 5.371-0.9139 10.53-2.595 15.33m-7.842 13.97c-8.496 10.4-21.42 17.03-35.89 17.03-14.38 0-27.24-6.555-35.74-16.84m-7.716-13.37c-1.862-5.019-2.88-10.45-2.88-16.12 0-23.05 16.84-42.18 38.89-45.74" /><g><path d="m434.9 71.19v15.85" /><path d="m395.6 155.1-13.68 8.014" /><path d="m474.2 155.1 13.68 8.014" /></g></g><g fill="#979797" ><circle cx="434.9" cy="73.09" r="3.783"  stroke-width="3.587"><desc>{ "type": "hard_point", "cl": "gun", "i": 2 }</desc></circle><circle cx="473.6" cy="163.6" r="3.783"  stroke-width="3.587"><desc>{ "type": "hard_point", "cl": "gun", "i": 4 }</desc></circle><circle cx="394.7" cy="163.6" r="3.783"  stroke-width="2.869"><desc>{ "type": "hard_point", "cl": "gun", "i": 3 }</desc></circle><circle cx="434.9" cy="156.2" r="3.783"  stroke-width="3.587"><desc>{ "type": "hard_point", "cl": "gun", "i": 1 }</desc></circle><circle cx="434.9" cy="193" r="3.783"  stroke-width="3.587"><desc>{ "type": "gunsight", "cl": "gun", "i": 1 }</desc></circle></g><rect x="616.3" y="330.5" width="42.21" height="43.24" rx="4.259" ry="2.6" fill="#f39746"    stroke-width="1.794"><desc>{ "type": "other", "i": "cargo hatch" }</desc></rect><path d="m216.7 105.3h11.78l7.716 14.25-0.9516 1.054-2.002-1.579-2.569-1.914h-15.72l-2.558 2.221-1.763 1.012-1.216-1.023z" fill="#f39746"    stroke-width="1.554"><desc>{ "type": "other", "i": "canopy" }</desc></path></g><g transform="translate(742.5 -25.41)" fill="none" ><g stroke-width="1.764"><path d="m-533.9 130.3-11.73 9.464-22.44 41.21-18.33 50.54-8.257 6.168-14.9 28.06 0.6399 152.4 5.45 11.5-0.7447 55 3.901 2.463-5.933 6.6-0.9416 50.68 5.886 56.25 61.98-0.1067 3.362-4.194 16.23-0.072 16.23 0.072 3.363 4.194 61.98 0.1067 5.887-56.25-0.9426-50.68-5.933-6.6 3.901-2.463-0.7447-55 5.451-11.5 0.6399-152.4-14.9-28.06-8.257-6.168-18.33-50.54-22.44-41.21-11.73-9.464h-15.67z"/><path d="m-582.5 221-12.55 7.874-1.589-2.217 7.19-23.22 19.92-17.21"/><path d="m-609 411.9-48.78 54.3-1.51-0.7612-2.163 1.672-1.173 5.61-18.89 19.65-4.29-1.224 3.721-78.85 9.031-18.4 4.082-0.4334 59.47-108"/><path d="m-607.1 544.4-29.68-0.2196-2.97 1.678-21.84 0.1998 0.1394-34.41 4.094-4.697 53.23-35.62"/><path d="m-542.1 600.6-0.9429 5.54-54.57-0.2357-0.5893-5.068"/><path d="m-496.7 600.6 0.9429 5.54 54.57-0.2357 0.5893-5.068"/><path d="m-456.7 221 12.55 7.874 1.589-2.217-7.19-23.22-19.92-17.21"/><path d="m-430.2 411.9 48.78 54.3 1.51-0.7612 2.163 1.672 1.173 5.61 18.89 19.65 4.29-1.224-3.721-78.85-9.031-18.4-4.082-0.4334-59.47-108"/><path d="m-432.1 544.4 29.68-0.2196 2.97 1.678 21.84 0.1998-0.1394-34.41-4.094-4.697-53.23-35.62"/><path d="m-563.9 489.5-2.126-17.62 10.51-79.29 6.421-146.8 14.22-88.34 1.021-27.09"/><path d="m-564.1 599.8 1.859-91.43-1.7-18.89-36.36-2.346"/><path d="m-603.4 429.6-0.414-10.58 0.7897-111.9 48.17-58.7 5.954 0.1848"/></g><g stroke-width="1.235"><path d="m-586.4 231.5 9.918 43.67"/><path d="m-545.6 139.8-6.66 71.69-7.314 41.64"/><path d="m-548.9 248.6-47.22 60.99-1.197 178.1"/><path d="m-593.2 487.7-0.5825 118.5"/><path d="m-520.8 130.5v0.0829l-4.466 0.1531-8.958 17 6.763-5.186 7.859-0.052 7.859 0.052 6.763 5.186-8.957-17-4.467-0.154v-0.082l-1.201 0.041z"/><path d="m-528.4 197.8h17v6.822h-17z"/></g><path d="m-535.4 211.2h6.865v18.96h-6.865z" stroke-width="1.235"/><path d="m-535.6 219-5.71 1.498-4.309 24.1-5.497 144.6 2.155 18.66-9.036 81.59-0.9592 96.14-5.146 14.2" stroke-width="1.235"/><path d="m-503.5 211.2h-6.865v18.96h6.865z" stroke-width="1.235"/><g stroke-width="1.235"><path d="m-503.4 219 5.71 1.498 4.309 24.1 5.497 144.6-2.155 18.66 9.036 81.59 0.9592 96.14 5.146 14.2"/><path d="m-528.6 219.2 18.05-0.0523"/><path d="m-553.7 255-12.3 216.9"/><path d="m-534 236.3 3.727-1.583 22.22-0.0355 4.256 1.619v45.91l-3.374 2.584-23-0.0834-3.826-2.5z"/><path d="m-518.9 234.2 0.2537 50.04"/><path d="m-542 453.5h17v29.92h-17z"/><path d="m-544.9 415h22.42v35.34h-22.42z"/></g><path d="m-533.3 491h28.19l3.403 76.01-1.745 29.33h-32.46l-1.39-28.33z" stroke-width="1.235"/><path d="m-525.5 394.3 2.442-11.33h8.174l3.1 11.33 6.121 4.281 0.2074 15.48-26.46 0.1667-0.2308-15.3z" stroke-width="1.235"/><g transform="matrix(1.764 0 0 1.764 -1211 84.78)" stroke-width=".7"><path d="m350.1 126.3h9.171v9.279h-9.171z"/><circle cx="354.7" cy="130.9" r="3.174"/></g><g stroke-width="1.235"><path d="m-576.8 311.1 19.59-1.496"/><path d="m-596.2 336.4 37.65-2.271"/><path d="m-596.7 360.5 36.94-2.153"/><path d="m-596.5 384.3 35.61-1.778"/><path d="m-596.8 408.4 10.02-0.2095m9.074-0.1897 15.21-0.318"/><path d="m-597.1 433.2 33.23-1.051"/><path d="m-597.1 457.3 32.06-0.7172"/><path d="m-551.2 174.5-7.965 6.719-0.2622-6.742 9.631-19.54"/><path d="m-541.9 319.6h4.744v94.75h-4.744z"/><path d="m-540.2 319.4 1.137-27.89 40.34 0.0916 1.326 27.72"/><path d="m-539.3 299 40.95 0.0275"/><path d="m-540.2 314.9 42.45 0.0275"/><path d="m-537.2 332.5 36.68 0.0275"/><path d="m-537.3 350.9 36.78 0.0275"/><path d="m-537.4 368.5 36.78 0.0275"/><path d="m-551.8 488.2h13.35v73.93h-13.35z"/><path d="m-558.9 585.6 22.26 0.0275"/><path d="m-537.1 590.7 33.6 0.0275"/></g><path d="m-474.9 489.5 2.126-17.62-10.51-79.29-6.421-146.8-14.22-88.34-1.021-27.09" stroke-width="1.764"/><path d="m-435.4 429.6 0.414-10.58-0.7897-111.9-48.17-58.7-5.954 0.1848" stroke-width="1.764"/><g stroke-width="1.235"><path d="m-452.5 231.5-9.918 43.67"/><path d="m-493.3 139.8 6.66 71.69 7.314 41.64"/><path d="m-489.9 248.6 47.22 60.99 1.197 178.1"/></g><g transform="matrix(-1.764 0 0 1.764 171.9 84.78)" stroke-width=".7"><path d="m350.1 126.3h9.171v9.279h-9.171z"/><circle cx="354.7" cy="130.9" r="3.174"/></g><g stroke-width="1.235"><path d="m-462 311.1-19.59-1.496"/><path d="m-442.6 336.4-37.65-2.271"/><path d="m-442.2 360.5-36.94-2.153"/><path d="m-442.4 384.3-35.61-1.778"/><path d="m-441.7 433.2-33.23-1.051"/><path d="m-441.7 457.3-32.06-0.7172"/><path d="m-487.6 174.5 7.965 6.719 0.2622-6.742-9.631-19.54"/><path d="m-485 255 12.3 216.9"/><path d="m-500.6 319.6h4.744v94.75h-4.744z"/><path d="m-496.5 453.5h-17v29.92h17z"/><path d="m-493.7 415h-22.42v35.34h22.42z"/></g><path d="m-475.3 599.8-1.859-91.43 1.7-18.89 36.36-2.346" stroke-width="1.764"/><g stroke-width="1.235"><path d="m-483.5 510h-17v16.72h17z"/><path d="m-502.3 585.5 22.26 0.0275"/><path d="m-445.8 487.7-0.5825 118.5"/></g><g transform="matrix(1.764 0 0 1.764 -1276 288.9)" stroke-width=".7"><path d="m350.1 126.3h9.171v9.279h-9.171z"/><circle cx="354.7" cy="130.9" r="3.174"/></g><g transform="matrix(1.764 0 0 1.764 -1016 288.9)" stroke-width=".7"><path d="m350.1 126.3h9.171v9.279h-9.171z"/><circle cx="354.7" cy="130.9" r="3.174"/></g><path d="m-535.6 161 4-4.5 24.17 0.0915 4.248 3.702" stroke-width="1.764"/><g stroke-width="1.235"><path d="m-609.7 331.1-73.41 106.5"/><path d="m-429.9 331.1 73.41 106.5"/><path d="m-606.6 535.6 43.51 0.7727"/><path d="m-432.5 535.6-43.51 0.7727"/><path d="m-574.5 536.4-0.3172 64.54"/><path d="m-463.8 535.9-0.3172 64.54"/></g><path d="m-525.3 541.7h12.33l5.422 38.26h-23.18z" stroke-width="1.235"/><path d="m-586.9 398.8h9.163v29.61h-9.163z" stroke-width="1.235"/><path d="m-442.3 408.4-10.02-0.2095m-9.074-0.1897-15.21-0.318" stroke-width="1.235"/><path d="m-452.2 398.8h-9.163v29.61h9.163z" stroke-width="1.235"/></g><g  ><rect x="208" y="209" width="30.86" height="50.74" rx="3.114" ry="3.051" fill="#4df346"    stroke-width="1.661"><desc>{ "type": "hard_point", "i": 2 }</desc></rect><g fill="none" ><path d="m561.9 573.4-6.008-55.79"  stroke-width="1.235"/><path d="m713.4 574.8 5.732-57.58"  stroke-width="1.235"/><path d="m572 516.2-11.09 0.5472"  stroke-width="1.235"/><path d="m714.1 516.7-10.71-0.5248"  stroke-width="1.235"/></g></g><circle cx="157.4" cy="290.3" r="5.542" fill="#f39745"  stroke-width="1.764"><desc>{ "type": "misc", "i": "thrusters" }</desc></circle><g  fill="#f39745"   stroke-width="1.764"><circle cx="288.7" cy="290.3" r="5.542"  ><desc>{ "type": "misc", "i": "thrusters" }</desc></circle><circle cx="92.53" cy="494.4" r="5.542"  ><desc>{ "type": "misc", "i": "thrusters" }</desc></circle><circle cx="351.9" cy="494.4" r="5.542"  ><desc>{ "type": "misc", "i": "thrusters" }</desc></circle><circle cx="589.9" cy="499.3" r="5.542"  ><desc>{ "type": "misc", "i": "thrusters" }</desc></circle><circle cx="685.6" cy="499.2" r="5.542"  ><desc>{ "type": "misc", "i": "thrusters" }</desc></circle><circle cx="561.8" cy="268.2" r="5.542"  ><desc>{ "type": "misc", "i": "thrusters" }</desc></circle><circle cx="713.2" cy="268.3" r="5.542"  ><desc>{ "type": "misc", "i": "thrusters" }</desc></circle></g><path d="m147.2 581.7h50.27l-25.14 26.52z" fill="#f39745"  stroke-width="1.764"><desc>{ "type": "misc", "i": "thrusters" }</desc></path><g   ><g fill="#f39745" stroke-width="1.764"><path d="m248.3 581.7h50.27l-25.14 26.52z"  ><desc>{ "type": "misc", "i": "thrusters" }</desc></path><path d="m562.8 581.7h50.27l-25.14 26.52z"  ><desc>{ "type": "misc", "i": "thrusters" }</desc></path><path d="m663.9 581.7h50.27l-25.14 26.52z"  ><desc>{ "type": "misc", "i": "thrusters" }</desc></path><path d="m159.6 189.1 15.32-8.843-12.32-3.658z"  ><desc>{ "type": "misc", "i": "thrusters" }</desc></path><path d="m271 180.2 15.32 8.843-2.994-12.5z"  ><desc>{ "type": "misc", "i": "thrusters" }</desc></path></g><g fill="#f49644" stroke-width=".9927"><rect x="625.2" y="231.6" width="25.02" height="39.59" rx="0" ry="0"  ><desc>{ "type": "misc", "i": "landing gear" }</desc></rect><rect x="577.9" y="337.3" width="22.58" height="39.59" rx="0" ry="0"  ><desc>{ "type": "misc", "i": "landing gear" }</desc></rect><rect x="674.9" y="337.3" width="22.58" height="39.59" rx="0" ry="0"  ><desc>{ "type": "misc", "i": "landing gear" }</desc></rect><rect x="580.7" y="437.6" width="22.58" height="39.59" rx="0" ry="0"  ><desc>{ "type": "misc", "i": "landing gear" }</desc></rect><rect x="672.1" y="437.6" width="22.58" height="39.59" rx="0" ry="0"  ><desc>{ "type": "misc", "i": "landing gear" }</desc></rect><path d="m203.2 273.5 40.95 0.0275 0.9333 20.32-3.973 0.3455 0.1192 12.9-35.95-0.0275 5e-3 -12.88-3.006-0.2642z"  ><desc>{ "type": "misc", "i": "heat vents" }</desc></path><rect x="197.6" y="389.6" width="22.42" height="35.34" rx="0" ry="0"  ><desc>{ "type": "misc", "i": "heat vents" }</desc></rect><rect x="226.4" y="389.6" width="22.42" height="35.34" rx="0" ry="0"  ><desc>{ "type": "misc", "i": "heat vents" }</desc></rect></g><path d="m231.5 552.4a8.125 7.918 0 0 0-8.125-7.918 8.125 7.918 0 0 0-8.125 7.918 8.125 7.918 0 0 0 1.904 5.082l6.221 9.992 6.199-9.959a8.125 7.918 0 0 0 1.926-5.115z" fill="#46d2f3"   stroke-width="1.764"><desc>{ "type": "internal", "i": "entrance" }</desc></path></g></svg>
