<svg width="870" height="640" clip-rule="evenodd" fill-rule="evenodd" image-rendering="optimizeQuality" shape-rendering="geometricPrecision" text-rendering="geometricPrecision" version="1.1" viewBox="0 0 870 640" xml:space="preserve" xmlns="http://www.w3.org/2000/svg">
<g><path d="m224.4 290.5h-19v19h19z"  ><desc>{ "type": "internal", "i": "life support" }</desc></path><path d="m659.3 275.4h-19v19h19z"  ><desc>{ "type": "internal", "i": "9" }</desc></path><path d="m224.1 358.5h-19v19h19z"  ><desc>{ "type": "internal", "i": "6" }</desc></path><path d="m706 223.6h-19v19h19z"  ><desc>{ "type": "internal", "i": "8" }</desc></path><path d="m613.1 223.8h-19v19h19z"  ><desc>{ "type": "internal", "i": "7" }</desc></path><path d="m613.1 275.5h-19v19h19z"  ><desc>{ "type": "internal", "i": "4" }</desc></path><path d="m659.3 294.4h-19v19h19z"  ><desc>{ "type": "internal", "i": "3" }</desc></path><path d="m710 359.5h-19v19h19z"  ><desc>{ "type": "internal", "i": "2" }</desc></path><path d="m608.5 359.5h-19v19h19z"  ><desc>{ "type": "internal", "i": "1" }</desc></path><path d="m224.4 214.7h-19v19h19z"  ><desc>{ "type": "internal", "i": "distributor" }</desc></path><path d="m224.1 457.3h-19v19h19z"  ><desc>{ "type": "internal", "i": "FSD" }</desc></path><path d="m224.2 411.7h-19v19h19z"  ><desc>{ "type": "internal", "i": "PP" }</desc></path><path d="m185.4 540.5h-19v19h19z"  ><desc>{ "type": "internal", "i": "drive" }</desc></path><path d="m262.6 540.5h-19v19h19z"  ><desc>{ "type": "internal", "i": "drive" }</desc></path></g><g transform="translate(1077 -16.57)"  fill="none"  ><path d="m-494.4 191.3-22.5 49.1 0.3702 88.14m14.83 183.5 0.1764 11.82 13.55 51.12 41.31 0.2023 5.705-4.194-0.9872-14.82 15.5 0.125m-0.074-451.3h-14.73l-11.73 9.464-22.96 16.43-14.07 27.79 1.712 14.91 28.72 11.65"  stroke-width="1.764"/><path d="m-442.3 173.5 3.727-1.583 22.22-0.0355 4.256 1.619v45.91l-3.374 2.584-23-0.0834-3.826-2.5z"  stroke-width="1.235"/><path d="m-427.2 171.4 0.2537 50.04"  stroke-width="1.235"/><g transform="matrix(1.764 0 0 1.764 -1129 37.36)"   stroke-width=".7"><path d="m350.1 126.3h9.171v9.279h-9.171z"/><circle cx="354.7" cy="130.9" r="3.174"/></g><path d="m-480.3 260.9 1.924-0.998 11.47-0.0224 2.196 1.02v28.93l-1.741 1.628-11.87-0.0526-1.974-1.576z"  stroke-width="1.235"/><path d="m-439.7 231.6h25.02v39.59h-25.02z"  stroke-width="1.235"/><path d="m-487 337.3h22.58v39.59h-22.58z"  stroke-width="1.235"/><g transform="matrix(1.475 0 0 1.764 -1116 251.7)"   stroke-width=".7656"><path d="m350.1 123.8h9.171v13.59h-9.171z"/><circle cx="354.7" cy="130.9" r="3.174"/></g><path d="m-478.8 311.1h11.85v11.27h-11.85z"  stroke-width="1.235"/><path d="m-449.2 332.1 5.311-1.357 31.66-0.0303 6.065 1.387v39.34l-4.808 2.214-32.78-0.0714-5.452-2.143z"  stroke-width="1.235"/><path d="m-471.8 516.1-21.02 0.1323-6.082-3.591 0.3156-108.1 6.032-15.69 0.0568-139.2 20.18-65.83"  stroke-width="1.764"/><g stroke-width="1.235"><path d="m-517.3 250.4 30.92-22.83" /><path d="m-416.6 105.4-1.225 37.05-17.92 0.2582-1.953-37.37" /><path d="m-440.2 235.1-9.123-0.1411-12.25-36.08 10.86-60.67-14.17-1.151-11.11-6.233" /><path d="m-460 387.2 0.3058-51.73 10.38-19.58-0.0852-65.88-22.93-66.25" /><path d="m-449.6 516.3 2.936 58.87" /><path d="m-444.3 516.5 2.36 39.58" /></g><path d="m-470.1 575.2 0.9815-26.28 14.35 0.4201 1.565 25.9"  stroke-width="1.235"/><path d="m-439 527.3h23.59v23.3h-23.59z"  stroke-width="1.235"/><g stroke-width="1.235"><path d="m-449.3 275.7 44.32 0.0275" /><path d="m-449.3 289.1 44.32 0.0275" /><path d="m-449.3 302 44.32 0.0275" /><path d="m-449.4 315.9 44.32 0.0275" /><path d="m-449.5 262.8 9.647 0.0275" /><path d="m-449.4 250 9.647 0.0275" /><path d="m-450.5 138.2 12.57 9.613-3.428 17.8-14.8 4.231" /><path d="m-492.5 249.6 34.26 9.377-0.1281 29.11 9.099 0.9582" /><path d="m-434.6 148-3.939 20.87h22.52l-3.939-20.87-7.323 0.0665z" /></g><g stroke-width="1.764"><path d="m-490.4 160.2-31.12 23.48-1.947 4.598 0.1694 9.221 1.961 2.637 54.35-18.15" /><path d="m-516.9 244.9-10.67 14.43 0.029 58.52 10.57 0.2574" /><path d="m-492.8 303.9-23.57 24.54-83.4 119.4-2.805 7.606-0.082 59.07 19.77 0.5688 0.5212-2.689 83.44 0.2826" /></g><path d="m-471.8 503.9h16.45v43.04h-16.45z"  stroke-width="1.235"/><path d="m-441 570.9-0.3796 26.57-3.351 7.887-1.785-7.842-6.827 0.1001v6.898l-17.48-0.0543v-6.808l-7.498 0.0419-2.044 7.406-2.373-5.582-0.2498-24.68"  stroke-width="1.764"/><g stroke-width="1.235"><path d="m-465.5 578.7h5.155v11.95h-5.155z" /><path d="m-479.9 581.1h3.85v11.95h-3.85z" /><path d="m-449 581.1h3.85v11.95h-3.85z" /><path d="m-456.1 597.4v3.85h-11.95v-3.85z" /><path d="m-473 159.9 13.17 2.212-2.106 12.53-13.17-2.212z" /><path d="m-499.1 468.5-83.52-0.0317 0.2591 43.9" /><path d="m-486 515.8 13.19 58.87" /></g><path d="m-434.2 503.2h14.07v19.91h-14.07z"  stroke-width="1.235"/><g stroke-width="1.764"><path d="m-455.6 515.8 21.38-0.0709" /><path d="m-569.7 512.5-0.2634 28.57 3.741 2.661 66.39-12.29" /><path d="m-358.7 191.3 22.5 49.1-0.3702 88.14m-14.83 183.5-0.1764 11.82-13.55 51.12-41.31 0.2023-5.705-4.194 0.9872-14.82-15.5 0.125m0.074-451.3h14.73l11.73 9.464 22.96 16.43 14.07 27.79-1.712 14.91-28.72 11.65" /></g><g stroke-width="1.235"><path d="m-459.9 127.7 12.86 1.003-3.36 7.459-12.86-1.003z" /><path d="m-456.2 116.9 14.6 1.978 5.848 23.78" /><path d="m-426.7 171.4-0.2537 50.04" /></g><g transform="matrix(-1.764 0 0 1.764 274.8 37.36)"   stroke-width=".7"><path d="m350.1 126.3h9.171v9.279h-9.171z"/><circle cx="354.7" cy="130.9" r="3.174"/></g><path d="m-373.6 260.9-1.924-0.998-11.47-0.0224-2.196 1.02v28.93l1.741 1.628 11.87-0.0526 1.974-1.576z"  stroke-width="1.235"/><path d="m-366.9 337.3h-22.58v39.59h22.58z"  stroke-width="1.235"/><g transform="matrix(-1.475 0 0 1.764 262.3 251.7)"   stroke-width=".7656"><path d="m350.1 123.8h9.171v13.59h-9.171z"/><circle cx="354.7" cy="130.9" r="3.174"/></g><path d="m-375.1 311.1h-11.85v11.27h11.85z"  stroke-width="1.235"/><path d="m-382.1 516.1 21.02 0.1323 6.082-3.591-0.3156-108.1-6.032-15.69-0.0568-139.2-20.18-65.83"  stroke-width="1.764"/><g stroke-width="1.235"><path d="m-336.7 250.4-30.92-22.83" /><path d="m-413.7 235.1 9.123-0.1411 12.25-36.08-10.86-60.67 14.17-1.151 11.11-6.233" /><path d="m-393.9 387.2-0.3058-51.73-10.38-19.58 0.0852-65.88 22.93-66.25" /><path d="m-404.3 516.3-2.936 58.87" /><path d="m-409.6 516.5-2.36 39.58" /></g><path d="m-383.8 575.2-0.9815-26.28-14.35 0.4201-1.565 25.9"  stroke-width="1.235"/><g stroke-width="1.235"><path d="m-404.4 262.8-9.647 0.0275" /><path d="m-404.5 250-9.647 0.0275" /><path d="m-403.4 138.2-12.57 9.613 3.428 17.8 14.8 4.231" /><path d="m-361.4 249.6-34.26 9.377 0.1281 29.11-9.099 0.9582" /></g><g stroke-width="1.764"><path d="m-363.6 160.2 31.12 23.48 1.947 4.598-0.1694 9.221-1.961 2.637-54.35-18.15" /><path d="m-336.3 244.9 10.05 14.43-0.029 58.52-10.57 0.2574" /><path d="m-361.1 303.9 23.57 24.54 83.4 119.4 2.805 7.606 0.082 59.07-19.77 0.5688-0.5212-2.689-83.44 0.2826" /></g><path d="m-382.1 503.9h-16.45v43.04h16.45z"  stroke-width="1.235"/><path d="m-412.1 570.9 0.3796 26.57 3.351 7.887 1.785-7.842 6.827 0.1001v6.898l17.48-0.0543v-6.808l7.498 0.0419 2.044 7.406 2.373-5.582 0.2498-24.68"  stroke-width="1.764"/><g stroke-width="1.235"><path d="m-387.5 578.7h-5.155v11.95h5.155z" /><path d="m-373 581.1h-3.85v11.95h3.85z" /><path d="m-403.9 581.1h-3.85v11.95h3.85z" /><path d="m-397 597.4v3.85h11.95v-3.85z" /><path d="m-380.9 159.9-13.17 2.212 2.106 12.53 13.17-2.212z" /><path d="m-354.8 468.5 83.52-0.0317-0.2591 43.9" /><path d="m-367.9 515.8-13.19 58.87" /></g><path d="m-398.3 515.8-21.38-0.0709"  stroke-width="1.764"/><path d="m-284.2 512.5 0.2634 28.57-3.741 2.661-66.39-12.29"  stroke-width="1.764"/><g stroke-width="1.235"><path d="m-394 127.7-12.86 1.003 3.36 7.459 12.86-1.003z" /><path d="m-396.9 116.7-15.36 2.185-5.848 23.78" /><path d="m-455.4 326.6 56.7 0.0275" /><path d="m-460 387.2h66.15" /></g><path d="m-487.8 391h121.2v108.5h-121.2z"  stroke-width="1.235"/><g stroke-width="1.235"><path d="m-567.3 468.1-0.2537 44.21" /><path d="m-510.1 468.1-0.2537 44.21" /><path d="m-343.2 468.1-0.2537 44.21" /><path d="m-285.9 468.1-0.2537 44.21" /><path d="m-596.2 470.2-0.0844-10.79 1.805-4.746 82-119.2 20.12-21.01" /><path d="m-257.4 470.2 0.0844-10.79-1.805-4.746-82-119.2-20.12-21.01" /></g></g><g transform="translate(1438 -16.57)"  fill="none"  ><path d="m-1223 104.9h-14.83l-11.73 9.463-20.42 41.01-2.191 15.12-18.16 35.63-8.256 6.168-14.9 28.06 0.2941 69.95m5.796 93.92-0.7441 55 5.951 4.807 32.04-29.49-0.014 117.9-19.53-0.0134m-10.02-16.62 6.838 39.46 49.63-0.1074 3.361-4.193 16.98-0.0723"  stroke-width="1.764"/><path d="m-1240 570.9-0.3796 26.57-3.351 7.887-1.785-7.842-6.827 0.1001v6.898l-17.48-0.0543v-6.808l-7.498 0.0419-2.044 7.406-2.373-5.582-0.2498-24.68"  stroke-width="1.764"/><g stroke-width="1.764"><path d="m-1270 575 0.079-140.4 10.65-67.41 6.421-146.8 14.22-88.34 1.021-27.09" /><path d="m-1289 551.7-0.043-44.85-13.35-42.82" /><path d="m-1308 404.2-0.4141-10.58-0.088-46.64m-0.2925-45.11 6.19-25.37 43.15-53.48 5.954 0.1848" /></g><g stroke-width="1.235"><path d="m-1290 206.1 9.918 43.67" /><path d="m-1250 114.4-6.66 71.69-7.314 41.64" /><path d="m-1253 223.2-47.22 60.99-1.196 178.1" /><path d="m-1225 105.1v0.0829l-4.466 0.1531-8.958 17 6.763-5.186 7.859-0.052 7.859 0.052 6.763 5.186-8.957-17-4.467-0.154v-0.082l-1.2 0.041z" /><path d="m-1232 172.4h17v6.822h-17z" /></g><path d="m-1240 185.8h6.866v18.96h-6.866z"  stroke-width="1.235"/><path d="m-1240 193.6-5.71 1.498-4.309 24.1-5.497 144.6 2.155 18.66-9.036 81.59-0.9592 96.14-5.146 14.2"  stroke-width="1.235"/><path d="m-1233 193.8 18.81-0.0523"  stroke-width="1.235"/><g stroke-width="1.235"><path d="m-1258 229.6-12.44 205" /><path d="m-1246 428h17v29.92h-17z" /><path d="m-1249 389.6h22.42v35.34h-22.42z" /></g><path d="m-1237 465.6h28.19l3.403 76.01-1.745 29.33h-32.46l-1.39-28.33z"  stroke-width="1.235"/><path d="m-1230 368.9 2.442-11.33h8.174l3.1 11.33 6.121 4.281 0.2074 15.48-26.46 0.1667-0.2308-15.3z"  stroke-width="1.235"/><g transform="matrix(1.764 0 0 1.764 -1915 59.36)"   stroke-width=".7"><path d="m350.1 126.3h9.171v9.279h-9.171z"/><circle cx="354.7" cy="130.9" r="3.174"/></g><g stroke-width="1.235"><path d="m-1281 285.7 19.59-1.496" /><path d="m-1300 307.3 37.65-2.271" /><path d="m-1301 330.9 36.94-2.153" /><path d="m-1301 377.8 10.02-0.2095m9.074-0.1897 15.21-0.318" /><path d="m-1301 425.4 32.06-0.7172" /><path d="m-1246 294.2h4.744v94.75h-4.744z" /><path d="m-1244 294 2.602-56.4 37.41-0.0967 2.791 56.42" /><path d="m-1243 273.5 40.95 0.0275" /><path d="m-1244 289.5 42.45 0.0275" /><path d="m-1241 307.1 36.19 0.0275" /><path d="m-1241 325.5 36.29 0.0275" /><path d="m-1241 343.1 36.48 0.0275" /><path d="m-1256 462.8h13.35v73.93h-13.35z" /><path d="m-1263 560.2 22.26 0.0275" /><path d="m-1240 565.3 32.84 0.0275" /></g><g transform="matrix(1.764 0 0 1.764 -1992 297.3)"   stroke-width=".7"><path d="m350.1 126.3h9.171v9.279h-9.171z"/><circle cx="354.7" cy="130.9" r="3.174"/></g><path d="m-1240 135.5 4-4.5 24.17 0.0915 4.248 3.702"  stroke-width="1.764"/><path d="m-1229 516.3h12.33l5.422 38.26h-23.18z"  stroke-width="1.235"/><path d="m-1291 373.4h9.163v29.61h-9.163z"  stroke-width="1.235"/><path d="m-1233 254.4 19.43 0.0266"  stroke-width="1.235"/><path d="m-1239 250.2h6.866v13.99h-6.866z"  stroke-width="1.235"/><path d="m-1251 117.2-18.46 12.37-13.8 25.6 1.499 15.59 7.341 3.007"  stroke-width="1.764"/><path d="m-1279 172.1-14.17 36.01"  stroke-width="1.764"/><path d="m-1289 348h11.85v11.27h-11.85z"  stroke-width="1.235"/><path d="m-1301 401.1 10.02-0.2095m9.074-0.1897 13.61-0.318"  stroke-width="1.235"/><path d="m-1300 353.1 11.37-0.2095m11.7-0.4026 12.23-0.318"  stroke-width="1.235"/><g stroke-width="1.764"><path d="m-1283 160.4-31.12 23.48-1.947 4.598 0.1694 9.221 1.961 2.637 26.85-8.9" /><path d="m-1313 244.9-11.22 14.43 0.029 58.52 6.82 0.2574" /><path d="m-1303 342 0.017-50.07-30.91 54.39-0.096 22.85 30.99-27.17" /><path d="m-1334 355.9-57.48 81.94-2.805 7.606-0.082 59.07 12.78 0.345" /><path d="m-1302 464-66.39 34.24-2.253-1.652-10.14 8.192-0.3359 42.43 3.577 1.997 88.65-15.67" /></g><g stroke-width="1.235"><path d="m-1313 310.3 8.315-42.84 20.83-33.28" /><path d="m-1285 228.6 27.12-32.82" /><path d="m-1290 210.7 34.44-38.24" /><path d="m-1265 578.7h5.155v11.95h-5.155z" /><path d="m-1279 581.1h3.85v11.95h-3.85z" /><path d="m-1248 581.1h3.85v11.95h-3.85z" /><path d="m-1255 597.4v3.85h-11.95v-3.85z" /><path d="m-1295 488.6-86.15 29.96" /><path d="m-1324 456.2-52.05-0.0317 0.2591 43.9" /><path d="m-1308 377.4-6.815 0.0328-7.899 2.696-0.9701 83.74 2.379 2.032-0.1398 7.415" /><path d="m-1308 393.5-8.184-0.0317-1.151 65.77 8.947-4e-4" /><path d="m-1316 393.5-6.753-13.34" /></g><path d="m-1223 104.9h14.83l11.73 9.463 20.42 41.01 2.191 15.12 18.16 35.63 8.256 6.168 14.9 28.06-0.2941 69.95m-5.796 93.92 0.7441 55-5.951 4.807-32.04-29.49 0.014 117.9 19.53-0.0134m10.02-16.62-6.838 39.46-49.63-0.1074-3.361-4.193-16.98-0.0723"  stroke-width="1.764"/><path d="m-1206 570.9 0.3797 26.57 3.351 7.887 1.785-7.842 6.827 0.1001v6.898l17.48-0.0543v-6.808l7.498 0.0419 2.044 7.406 2.373-5.582 0.2498-24.68"  stroke-width="1.764"/><path d="m-1157 551.7 0.043-44.85 13.35-42.82"  stroke-width="1.764"/><path d="m-1139 404.2 0.4141-10.58 0.088-46.64m0.2925-45.11-6.19-25.37-43.15-53.48-5.954 0.1848"  stroke-width="1.764"/><g stroke-width="1.235"><path d="m-1156 206.1-9.918 43.67" /><path d="m-1197 114.4 6.66 71.69 7.314 41.64" /><path d="m-1193 223.2 47.22 60.99 1.196 178.1" /></g><path d="m-1207 185.8h-6.866v18.96h6.866z"  stroke-width="1.235"/><g stroke-width="1.235"><path d="m-1207 193.6 5.71 1.498 4.309 24.1 5.497 144.6-2.155 18.66 9.036 81.59 0.9592 96.14 5.146 14.2" /><path d="m-1188 229.6 12.44 205" /><path d="m-1200 428h-17v29.92h17z" /><path d="m-1197 389.6h-22.42v35.34h22.42z" /></g><g transform="matrix(-1.764 0 0 1.764 -531.4 59.36)"   stroke-width=".7"><path d="m350.1 126.3h9.171v9.279h-9.171z"/><circle cx="354.7" cy="130.9" r="3.174"/></g><g stroke-width="1.235"><path d="m-1165 285.7-19.59-1.496" /><path d="m-1146 307.3-37.65-2.271" /><path d="m-1146 330.9-36.94-2.153" /><path d="m-1145 377.8-10.02-0.2095m-9.074-0.1897-15.21-0.318" /><path d="m-1145 425.4-32.06-0.7172" /><path d="m-1200 294.2h-4.744v94.75h4.744z" /><path d="m-1187 484.5h-17.36v16.48h17.36z" /><path d="m-1183 560.2-22.26 0.0275" /></g><g transform="matrix(-1.764 0 0 1.764 -454.1 297.3)"   stroke-width=".7"><path d="m350.1 126.3h9.171v9.279h-9.171z"/><circle cx="354.7" cy="130.9" r="3.174"/></g><path d="m-1155 373.4h-9.163v29.61h9.163z"  stroke-width="1.235"/><path d="m-1207 250.2h-6.866v13.99h6.866z"  stroke-width="1.235"/><path d="m-1195 117.2 18.46 12.37 13.8 25.6-1.499 15.59-7.341 3.007"  stroke-width="1.764"/><path d="m-1167 172.1 14.17 36.01"  stroke-width="1.764"/><path d="m-1157 348h-11.85v11.27h11.85z"  stroke-width="1.235"/><path d="m-1145 401.1-10.02-0.2095m-9.074-0.1897-13.61-0.318"  stroke-width="1.235"/><path d="m-1146 353.1-11.37-0.2095m-11.7-0.4026-12.23-0.318"  stroke-width="1.235"/><g stroke-width="1.764"><path d="m-1163 160.4 31.12 23.48 1.947 4.598-0.1693 9.221-1.961 2.637-26.85-8.9" /><path d="m-1133 244.9 11.22 14.43-0.029 58.52-6.82 0.2574" /><path d="m-1144 342-0.017-50.07 30.91 54.39 0.096 22.85-30.99-27.17" /><path d="m-1113 355.9 57.48 81.94 2.805 7.606 0.082 59.07-12.78 0.345" /><path d="m-1144 464 66.39 34.24 2.253-1.652 10.14 8.192 0.3359 42.43-3.577 1.997-88.65-15.67" /></g><g stroke-width="1.235"><path d="m-1133 310.3-8.315-42.84-20.83-33.28" /><path d="m-1161 228.6-27.12-32.82" /><path d="m-1157 210.7-34.44-38.24" /><path d="m-1182 578.7h-5.155v11.95h5.155z" /><path d="m-1167 581.1h-3.85v11.95h3.85z" /><path d="m-1198 581.1h-3.85v11.95h3.85z" /><path d="m-1191 597.4v3.85h11.95v-3.85z" /><path d="m-1152 488.6 86.15 29.96" /><path d="m-1123 456.2 52.05-0.0317-0.2591 43.9" /><path d="m-1138 377.4 6.815 0.0328 7.899 2.696 0.9701 83.74-2.379 2.032 0.1398 7.415" /><path d="m-1138 393.5 8.184-0.0317 1.151 65.77-8.947-4e-4" /><path d="m-1130 393.5 6.753-13.34" /></g><path d="m-1176 575-0.079-140.4-10.65-67.41-6.421-146.8-14.22-88.34-1.021-27.09"  stroke-width="1.764"/></g><g  ><g fill="#4df346" ><rect x="635.2" y="155.3" width="29.7" height="49.97" rx="2.997" ry="3.087"   stroke-width="1.639"><desc>{ "type": "hard_point", "i": 1 }</desc></rect><rect x="596" y="242.8" width="17.12" height="32.66" rx="1.727" ry="1.964"   stroke-width=".9927"><desc>{ "type": "hard_point", "i": 5 }</desc></rect><rect x="687" y="242.6" width="17.12" height="32.8" rx="1.727" ry="1.973"   stroke-width=".9948"><desc>{ "type": "hard_point", "i": 4 }</desc></rect></g><g fill="#ff3ae1" ><rect x="147.3" y="329.2" width="14.93" height="15.46" rx="1.854" ry="1.713"   stroke-width="1.462"><desc>{ "type": "utility", "i": 3 }</desc></rect><rect x="267.3" y="329" width="15.3" height="15.85" rx="1.901" ry="1.756"   stroke-width="1.499"><desc>{ "type": "utility", "i": 4 }</desc></rect><rect x="688.3" y="292.5" width="15.29" height="15.83" rx="1.899" ry="1.755"   stroke-width="1.497"><desc>{ "type": "utility", "i": 2 }</desc></rect><rect x="596.1" y="292.1" width="15.87" height="16.43" rx="1.971" ry="1.821"   stroke-width="1.554"><desc>{ "type": "utility", "i": 1 }</desc></rect></g><rect x="430.8" y="128.2" width="8.144" height="8.073" fill="#979797"   stroke-width="3.587"><desc>{ "type": "gunsight", "cl": "gun", "i": 0 }</desc></rect><g fill="none" stroke="#979797" stroke-width="3.587"><path d="m442.9 86.92c21.52 3.996 37.82 22.87 37.82 45.55 0 5.371-0.9139 10.53-2.595 15.33m-7.842 13.97c-8.496 10.4-21.42 17.03-35.89 17.03-14.38 0-27.24-6.555-35.74-16.84m-7.716-13.37c-1.862-5.019-2.88-10.45-2.88-16.12 0-23.05 16.84-42.18 38.89-45.74" /><g><path d="m434.9 71.19v15.85" /><path d="m395.6 155.1-13.68 8.014" /><path d="m474.2 155.1 13.68 8.014" /></g></g><g fill="#979797" ><circle cx="386" cy="148.9" r="3.783"  stroke-width="3.587"><desc>{ "type": "hard_point", "cl": "gun", "i": 3 }</desc></circle><circle cx="473.6" cy="165.9" r="3.783"  stroke-width="3.587"><desc>{ "type": "hard_point", "cl": "gun", "i": 5 }</desc></circle><circle cx="394.7" cy="165.9" r="3.783"  stroke-width="2.869"><desc>{ "type": "hard_point", "cl": "gun", "i": 4 }</desc></circle><circle cx="434.9" cy="157.3" r="3.783"  stroke-width="3.587"><desc>{ "type": "hard_point", "cl": "gun", "i": 1 }</desc></circle><circle cx="333" cy="217.6" r="3.783"  stroke-width="3.587"><desc>{ "type": "gunsight", "cl": "gun", "i": 4 }</desc></circle></g><g ><rect x="627.8" y="313.9" width="43.04" height="43.24" rx="4.259" ry="2.6" fill="#f39746"   stroke-width="1.794"><desc>{ "type": "other", "i": "cargo hatch" }</desc></rect><path d="m208.1 88.73h11.78l7.716 14.25-0.9516 1.054-2.002-1.579-2.569-1.914h-15.72l-2.558 2.221-1.763 1.012-1.216-1.023z" fill="#f39746"   stroke-width="1.554"><desc>{ "type": "other", "i": "canopy" }</desc></path><rect x="150.8" y="111.1" width="11.23" height="30.74" rx="3.114" ry="3.051" fill="#4df346"   stroke-width="1.661"><desc>{ "type": "hard_point", "i": 3 }</desc></rect></g></g><circle cx="148.8" cy="273.7" r="5.542" fill="#f39745"  stroke-width="1.764"><desc>{ "type": "misc", "i": "thrusters" }</desc></circle><g  fill="#f39745"   stroke-width="1.764"><circle cx="280.9" cy="273.7" r="5.542"  ><desc>{ "type": "misc", "i": "thrusters" }</desc></circle><circle cx="71.4" cy="511.7" r="5.542"  ><desc>{ "type": "misc", "i": "thrusters" }</desc></circle><circle cx="358.2" cy="511.6" r="5.542"  ><desc>{ "type": "misc", "i": "thrusters" }</desc></circle><ellipse cx="483.8" cy="466.1" rx="4.736" ry="5.542"  ><desc>{ "type": "misc", "i": "thrusters" }</desc></ellipse><ellipse cx="816.2" cy="466" rx="4.609" ry="5.542"  ><desc>{ "type": "misc", "i": "thrusters" }</desc></ellipse><circle cx="573.9" cy="251.7" r="5.542"  ><desc>{ "type": "misc", "i": "thrusters" }</desc></circle><circle cx="726" cy="251.6" r="5.542"  ><desc>{ "type": "misc", "i": "thrusters" }</desc></circle></g><path d="m159.8 592h34.16l-17.08 18.02z" fill="#f39745"  stroke-width="1.764"><desc>{ "type": "misc", "i": "thrusters" }</desc></path><g   ><g fill="#f49644"><g stroke-width=".9927"><rect x="637.2" y="215" width="25.02" height="39.59" rx="0" ry="0"  ><desc>{ "type": "misc", "i": "landing gear" }</desc></rect><rect x="590" y="320.7" width="22.58" height="39.59" rx="0" ry="0"  ><desc>{ "type": "misc", "i": "landing gear" }</desc></rect><rect x="687.4" y="320.7" width="22.58" height="39.59" rx="0" ry="0"  ><desc>{ "type": "misc", "i": "landing gear" }</desc></rect></g><rect x="605.2" y="487.3" width="16.45" height="43.04" rx="0" ry="0"   stroke-width=".9927"><desc>{ "type": "misc", "i": "landing gear" }</desc></rect><rect x="678.3" y="487.3" width="16.45" height="43.04" rx="0" ry="0"   stroke-width=".9927"><desc>{ "type": "misc", "i": "landing gear" }</desc></rect></g><path d="m236.6 592.2h34.16l-17.08 18.02z" fill="#f39745"   stroke-width="1.764"><desc>{ "type": "misc", "i": "thrusters" }</desc></path><circle cx="482.7" cy="148.4" r="3.783" fill="#979797"  stroke-width="3.587"><desc>{ "type": "hard_point", "cl": "gun", "i": 2 }</desc></circle><g fill="#f39745" stroke-width="1.764"><path d="m597.1 109.2h17.69l-8.843-9.329z"  ><desc>{ "type": "misc", "i": "thrusters" }</desc></path><path d="m597.3 592h34.16l-17.08 18.02z"  ><desc>{ "type": "misc", "i": "thrusters" }</desc></path><path d="m669.9 592.2h34.16l-17.08 18.02z"  ><desc>{ "type": "misc", "i": "thrusters" }</desc></path><path d="m684.2 109.2h17.69l-8.843-9.329z"  ><desc>{ "type": "misc", "i": "thrusters" }</desc></path><path d="m162.4 109.2h17.69l-8.843-9.329z"  ><desc>{ "type": "misc", "i": "thrusters" }</desc></path><path d="m249.5 109.2h17.69l-8.843-9.329z"  ><desc>{ "type": "misc", "i": "thrusters" }</desc></path><path d="m114.6 524.6h25.78l-12.89 13.6z"  ><desc>{ "type": "misc", "i": "thrusters" }</desc></path><path d="m289.2 524.6h25.78l-12.89 13.6z"  ><desc>{ "type": "misc", "i": "thrusters" }</desc></path><path d="m550.2 498.7h25.78l-12.89 13.6z"  ><desc>{ "type": "misc", "i": "thrusters" }</desc></path><path d="m724.8 498.7h25.78l-12.89 13.6z"  ><desc>{ "type": "misc", "i": "thrusters" }</desc></path></g><g fill="#4df346" stroke-width="1.661"><rect x="267.6" y="111.1" width="11.23" height="30.74" rx="3.114" ry="3.051"  ><desc>{ "type": "hard_point", "i": 2 }</desc></rect><rect x="196.1" y="230.4" width="11.72" height="20.25" rx="3.114" ry="3.051"  ><desc>{ "type": "hard_point", "i": 6 }</desc></rect><rect x="221.6" y="230.4" width="11.72" height="20.25" rx="3.114" ry="3.051"  ><desc>{ "type": "hard_point", "i": 7 }</desc></rect></g><rect x="589.1" y="374.4" width="121.2" height="108.5" rx="0" ry="0" fill="#f49644"   stroke-width=".9927"><desc>{ "type": "other", "i": "fighter bay" }</desc></rect><rect transform="scale(-1,1)" x="-714.3" y="111.1" width="11.23" height="30.74" rx="3.114" ry="3.051" fill="#4df346"   stroke-width="1.661"><desc>{ "type": "hard_point", "i": 3 }</desc></rect><rect transform="scale(-1,1)" x="-597.5" y="111.1" width="11.23" height="30.74" rx="3.114" ry="3.051" fill="#4df346"   stroke-width="1.661"><desc>{ "type": "hard_point", "i": 2 }</desc></rect><circle cx="423" cy="68.42" r="3.783" fill="#979797"  stroke-width="3.587"><desc>{ "type": "hard_point", "cl": "gun", "i": 6 }</desc></circle><circle cx="446.8" cy="68.42" r="3.783" fill="#979797"  stroke-width="3.587"><desc>{ "type": "hard_point", "cl": "gun", "i": 7 }</desc></circle><g fill="#f49644" stroke-width=".9927"><path d="m194.6 257 40.95 0.0275 0.9333 20.32-3.973 0.3455 0.1192 12.9-35.95-0.0275 5e-3 -12.88-3.006-0.2642z"  ><desc>{ "type": "misc", "i": "heat vents" }</desc></path><rect x="189" y="373" width="22.42" height="35.34" rx="0" ry="0"  ><desc>{ "type": "misc", "i": "heat vents" }</desc></rect><rect x="218.3" y="373" width="22.42" height="35.34" rx="0" ry="0"  ><desc>{ "type": "misc", "i": "heat vents" }</desc></rect></g><path d="m706 275.4h-19v19h19z" fill="#46d2f3"   stroke-width="1.235"><desc>{ "type": "internal", "i": "5" }</desc></path><path d="m222.9 535.5a8.125 7.918 0 0 0-8.125-7.918 8.125 7.918 0 0 0-8.125 7.918 8.125 7.918 0 0 0 1.904 5.082l6.221 9.992 6.199-9.959a8.125 7.918 0 0 0 1.926-5.115z" fill="#46d2f3"   stroke-width="1.764"><desc>{ "type": "internal", "i": "entrance" }</desc></path></g></svg>
