<svg width="870" height="640" clip-rule="evenodd" fill-rule="evenodd" image-rendering="optimizeQuality" shape-rendering="geometricPrecision" text-rendering="geometricPrecision" version="1.1" viewBox="0 0 870 640" xml:space="preserve" xmlns="http://www.w3.org/2000/svg">
<g transform="matrix(.9623 0 0 .9623 1329 27.06)"  fill="none"  ><g stroke-width="1.833"><path d="m-1158 80.99c-7.029 0.2205-13.22 11.35-15.9 17.21-49.53 102.7-96.5 213.7-135.3 322.8-10.15 17.25-20.51 34.65-23.78 47.32l-2.666 22.05 19.43 0.9824 35.59-9.898-0.8301 47.31 6.438 0.0742 0.064 19.66 71.13-0.6856 0.7324-14.68 41.8-0.1758v5.875l3.242-0.0176 3.242 0.0176v-5.875l41.8 0.1758 0.7324 14.68 71.13 0.6856 0.064-19.66 6.438-0.0742-0.8301-47.31 35.59 9.898 19.43-0.9824-2.666-22.05c-3.267-12.67-13.63-30.06-23.77-47.32-38.75-109.1-85.72-220.2-135.3-322.8-2.682-5.864-8.875-16.99-15.9-17.21z" /><path d="m-1268 548.6 0.1903 9.435 55.31-0.1157-0.07-9.604" /><path d="m-1281 481.5 2.98-60.09c3.011-26.31 8.813-52.01 16.27-77.33l14.71-21.04 41.63-158.4" /><path d="m-1258 529.1-17.26-0.2124" /><path d="m-1244 494.4-0.058 38.62-2.631 11.48-10.95-0.0911-0.083-15.33 9.175-34.65z" /></g><path d="m-1244 494.4-13.72 34.68"  stroke-width="1.283"/><g stroke-width="1.833"><path d="m-1203 533.2-41.01-0.1358" /><path d="m-1256 520.3c1.682-37.58-2.384-80.8 13.03-110.1l20.16-0.8608c4.188 45.68 3.415 85.04 2.255 123.9" /><path d="m-1237 532.8c-0.04-41.96-3.287-92.96 14.69-123.5" /></g><path d="m-1174 97.3-0.8478 101.9c-25.78 80.25-32.05 155.2-36.41 229.6l-0.4025 96.4"  stroke-width="1.283"/><g stroke-width="1.283"><path d="m-1187 137.9-13.3 36.47c-15.79 77.7-19.58 156.3-21.7 234.9" /><path d="m-1237 287.1c0.5481 41.35-2.582 82.18-5.379 123.1" /><path d="m-1238 338.9 17.39 27.92" /><path d="m-1309 421.1-7.008 70.35" /><path d="m-1283 350.5 18.16 6.339" /><path d="m-1270 315.9 28.65-14.55" /><path d="m-1237 237.5 6.659 24.71" /><path d="m-1226 209.1 8.782-0.0255" /><path d="m-1237 296.1c3.604 16.43 12.17 3.952 18.82 17.89" /><path d="m-1217 209.1 5.981 24.26" /><path d="m-1175 158.1c-3.682 0.237-7.364 0.9628-11.05 2.436l-8.074 32.42c5.434-1.169 12.29-2.065 18.73-1.853" /><path d="m-1194 142 1.741 10.89" /><path d="m-1205 164.6 1.826 9.78 2.613 0.0192" /><path d="m-1247 323c-11.85 28.83-17.2 56.29-19.68 83.15-8.306 12.62-10.96 41.21-10.75 62.96l-3.526 12.36" /><path d="m-1263 377.7c-4.161 6.11-8.314 12.3-11.99 22.76" /><path d="m-1175 177.1 5.547-7.472 1.621-27.54 8.655-52.79 0.9798-0.0088" /><path d="m-1164 168.8-11.4 30.47" /><path d="m-1164 118.8 2.48 5.116-2.03 44.86-4.551 76.32" /><path d="m-1174 138.5 7.03-0.0172" /><path d="m-1175 142.1 7.03-0.0172" /><path d="m-1184 128.8 9.674-22.19" /></g><ellipse transform="matrix(.9433 .332 -.3778 .9259 0 0)" cx="-1049" cy="519.8" rx="2.807" ry="4.82"  stroke-width="1.284"/><ellipse transform="matrix(.9976 .06913 -.004708 1 0 0)" cx="-1272" cy="600.8" rx="3.076" ry="4.782"  stroke-width="1.284"/><path d="m-1194 533.2-0.1584-97.68c-0.092-12.5 11.74-21.27 18.72-31.56l-1.062-40.07c0.037-2.573-0.88-4.41-1.823-5.754l-10.14-12.35c0.5722-21.92 2.556-42.99 4.861-63.86l13.1-37.61 12 0.0583"  stroke-width="1.833"/><g stroke-width="1.283"><path d="m-1194 525.1-25.94 0.0134" /><path d="m-1255 482.1-7.029-10.57-4.01 0.1354-2.947 9.684-3.367 0.0967-2.339-8.812-3.685 0.2302" /><path d="m-1256 515.2-10.05 0.0703 0.449 7.96-13.04 0.1112 1.382-9.447-4.353 0.3348" /><path d="m-1158 278.7-12.58-3e-3 -5.258 10.19-4.926 28.73-6.232 6.503" /><path d="m-1172 281.2-2.012-10.88-5.816 3e-3" /><path d="m-1179 303.9-2.165-3.204 1.496-17.02-2.172-7.051" /><path d="m-1158 251.3-5.788 0.1037-3.946 1.548-6.065 17.45-5.219 13.35" /><path d="m-1165 278.5-3.426-25.58" /><path d="m-1164 251.4-0.1095-3.163-7.714 1.105" /><path d="m-1164 244.6 0.017 3.567" /><path d="m-1158 356.1-10.61 0.1335-7.445-13.2-5.722 1.791-0.1392 8.414" /><path d="m-1158 427.7-11.39-0.0559-5.555-23.75" /></g><path d="m-1184 510.5h13.81v19.01h-13.81z"  stroke-width="1.283"/><g stroke-width="1.283"><ellipse transform="matrix(.9999 .01049 -.01576 .9999 0 0)" cx="-1191" cy="422.9" rx="5.402" ry="5.488" /><ellipse transform="matrix(.9999 .01049 -.01576 .9999 0 0)" cx="-1173" cy="452.5" rx="6.761" ry="6.865" /><ellipse transform="matrix(.9999 .01048 -.01577 .9999 0 0)" cx="-1173" cy="452.5" rx="10.94" ry="11.1" /></g><path d="m-1194 462 9.808-5.883 25.69 0.0116"  stroke-width="1.283"/><path d="m-1167 427.5 0.025 28.79"  stroke-width="1.283"/><ellipse transform="matrix(.9999 .01048 -.01578 .9999 0 0)" cx="-1150" cy="495.5" rx="22.06" ry="22.38"  stroke-width="1.283"/><ellipse transform="matrix(.9999 .01048 -.01578 .9999 0 0)" cx="-1150" cy="495.5" rx="24.65" ry="25"  stroke-width="1.283"/><path d="m-1166 507.3 0.028 25.62"  stroke-width="1.283"/><rect x="-1199" y="355.8" width="10.52" height="26.94" rx="5.465" ry="5.465"  stroke-width="1.283"/><rect transform="matrix(1 0 -.1406 .9901 0 0)" x="-1203" y="413.5" width="10.52" height="27.21" rx="5.465" ry="5.363"  stroke-width="1.29"/><path d="m-1227 409.7c-5.83 8.995-8.603 18.79-10.63 28.77l-1.833 1.095-6.478-0.0389-1.752-0.8825c1.327-10.8 2.412-16.38 8.224-28.64"  stroke-width="1.283"/><path d="m-1221 427.6-4.923 12.44c1.197 24.84 1.343 48.62 0.1841 71.1l5.866 4.349"  stroke-width="1.283"/><g stroke-width="1.833"><path d="m-1048 548.6-0.1903 9.435-55.31-0.1157 0.07-9.604" /><path d="m-1036 481.5-2.98-60.09c-3.011-26.31-8.813-52.01-16.27-77.33l-14.71-21.04-41.63-158.4" /><path d="m-1059 529.1 17.26-0.2124" /><path d="m-1072 494.4 0.058 38.62 2.631 11.48 10.95-0.0911 0.083-15.33-9.175-34.65z" /></g><path d="m-1072 494.4 13.72 34.68"  stroke-width="1.283"/><g stroke-width="1.833"><path d="m-1113 533.2 41.01-0.1358" /><path d="m-1061 520.3c-1.682-37.58 2.384-80.8-13.03-110.1l-20.16-0.8608c-4.188 45.68-3.415 85.04-2.255 123.9" /><path d="m-1079 532.8c0.04-41.96 3.287-92.96-14.69-123.5" /></g><path d="m-1142 97.3 0.8478 101.9c25.78 80.25 32.05 155.2 36.41 229.6l0.4025 96.4"  stroke-width="1.283"/><g stroke-width="1.283"><path d="m-1129 137.9 13.3 36.47c15.79 77.7 19.58 156.3 21.7 234.9" /><path d="m-1079 287.1c-0.5481 41.35 2.582 82.18 5.379 123.1" /><path d="m-1078 338.9-17.39 27.92" /><path d="m-1007 421.1 7.008 70.35" /><path d="m-1033 350.5-18.16 6.339" /><path d="m-1047 315.9-28.65-14.55" /><path d="m-1079 237.5-6.659 24.71" /><path d="m-1091 209.1-8.782-0.0255" /><path d="m-1079 296.1c-3.604 16.43-12.17 3.952-18.82 17.89" /><path d="m-1100 209.1-5.981 24.26" /><path d="m-1142 158.1c3.682 0.237 7.364 0.9628 11.05 2.436l8.073 32.42c-5.434-1.169-12.29-2.065-18.73-1.853" /><path d="m-1122 142-1.741 10.89" /><path d="m-1111 164.6-1.826 9.78-2.613 0.0192" /><path d="m-1070 323c11.85 28.83 17.2 56.29 19.68 83.15 8.306 12.62 10.96 41.21 10.75 62.96l3.526 12.36" /><path d="m-1054 377.7c4.161 6.11 8.314 12.3 11.99 22.76" /><path d="m-1141 177.1-5.547-7.472-1.621-27.54-8.655-52.79-0.9798-0.0088" /><path d="m-1153 168.8 11.4 30.47" /><path d="m-1152 118.8-2.48 5.116 2.03 44.86 4.551 76.32" /><path d="m-1142 138.5-7.03-0.0172" /><path d="m-1142 142.1-7.03-0.0172" /><path d="m-1133 128.8-9.674-22.19" /></g><ellipse transform="matrix(-.9433 .332 .3778 .9259 0 0)" cx="1099" cy="-250.2" rx="2.807" ry="4.82"  stroke-width="1.284"/><ellipse transform="matrix(-.9976 .06913 .004708 1 0 0)" cx="1049" cy="440.3" rx="3.076" ry="4.782"  stroke-width="1.284"/><path d="m-1123 533.2 0.1584-97.68c0.092-12.5-11.74-21.27-18.72-31.56l1.062-40.07c-0.037-2.573 0.88-4.41 1.823-5.754l10.14-12.35c-0.5722-21.92-2.556-42.99-4.861-63.86l-13.1-37.61-12 0.0583"  stroke-width="1.833"/><g stroke-width="1.283"><path d="m-1123 525.1 25.94 0.0134" /><path d="m-1062 482.1 7.029-10.57 4.01 0.1354 2.947 9.684 3.367 0.0967 2.339-8.812 3.685 0.2302" /><path d="m-1060 515.2 10.05 0.0703-0.449 7.96 13.04 0.1112-1.382-9.447 4.353 0.3348" /><path d="m-1158 278.7 12.58-3e-3 5.258 10.19 4.926 28.73 6.232 6.503" /><path d="m-1144 281.2 2.012-10.88 5.816 3e-3" /><path d="m-1138 303.9 2.165-3.204-1.496-17.02 2.172-7.051" /><path d="m-1158 251.3 5.788 0.1037 3.946 1.548 6.065 17.45 5.219 13.35" /><path d="m-1152 278.5 3.426-25.58" /><path d="m-1152 251.4 0.1095-3.163 7.714 1.105" /><path d="m-1152 244.6-0.017 3.567" /><path d="m-1158 356.1 10.61 0.1335 7.445-13.2 5.722 1.791 0.1392 8.414" /><path d="m-1158 427.7 11.39-0.0559 5.555-23.75" /></g><path d="m-1132 510.5h-13.81v19.01h13.81z"  stroke-width="1.283"/><g stroke-width="1.283"><ellipse transform="matrix(-.9999 .01049 .01576 .9999 0 0)" cx="1125" cy="398.5" rx="5.402" ry="5.488" /><ellipse transform="matrix(-.9999 .01049 .01576 .9999 0 0)" cx="1143" cy="428.2" rx="6.761" ry="6.865" /><ellipse transform="matrix(-.9999 .01048 .01577 .9999 0 0)" cx="1143" cy="428.2" rx="10.94" ry="11.1" /></g><g stroke-width="1.283"><path d="m-1123 462-9.808-5.883-25.69 0.0116" /><path d="m-1149 427.5-0.025 28.79" /><path d="m-1151 507.3-0.028 25.62" /></g><rect transform="scale(-1,1)" x="1117" y="355.8" width="10.52" height="26.94" rx="5.465" ry="5.465"  stroke-width="1.283"/><rect transform="matrix(-1 0 .1406 .9901 0 0)" x="1113" y="413.5" width="10.52" height="27.21" rx="5.465" ry="5.363"  stroke-width="1.29"/><g stroke-width="1.283"><path d="m-1090 409.7c5.83 8.995 8.603 18.79 10.63 28.77l1.833 1.095 6.478-0.0389 1.752-0.8825c-1.327-10.8-2.412-16.38-8.224-28.64" /><path d="m-1095 427.6 4.923 12.44c-1.197 24.84-1.343 48.62-0.1841 71.1l-5.866 4.349" /><path d="m-1155 123.9h-6.72" /><path d="m-1150 212.8h-16.18" /></g><g stroke-width="1.283"><path d="m-1161 170.5h6.314v29.32h-6.314z" /><path d="m-1163 216.2h9.564v14.82h-9.564z" /><path d="m-1153 278.6-2.062 24.63h-7.064l-2.062-24.63" /><path d="m-1163 317.4h8.938l4.062 31.94h-17.06z" /><path d="m-1164 391.6h11.59l2.737-31.94h-17.06z" /></g><path d="m-1123 193 20.71 76.75"  stroke-width="1.283"/><path d="m-1194 193-20.71 76.75"  stroke-width="1.283"/></g><g transform="matrix(.9623 0 0 .9623 1293 27.06)"  fill="none"  ><g stroke-width="1.833"><path d="m-663.3 80.99c-7.029 0.2205-13.22 11.35-15.9 17.21-49.53 102.7-96.5 213.7-135.3 322.8-10.15 17.25-20.51 34.65-23.78 47.32l-2.666 22.05 19.43 0.9824 35.59-9.898-0.8301 47.31 6.438 0.0742 0.0644 19.66 71.13-0.6856 0.7324-14.68 41.8-0.1758-2e-3 5.875 3.242-0.0176 3.242 0.0176-4e-3 -5.875 41.8 0.1758 0.7324 14.68 71.13 0.6856 0.0644-19.66 6.438-0.0742-0.8301-47.31 35.59 9.898 19.43-0.9824-2.666-22.05c-3.267-12.67-13.63-30.06-23.77-47.32-38.75-109.1-85.72-220.2-135.3-322.8-2.681-5.864-8.875-16.99-15.9-17.21z" /><path d="m-772.8 548.6 0.1903 9.435 55.31-0.1157-0.07-9.604" /><path d="m-708.3 533.2 0.0972-54.75" /><path d="m-663.3 477.9-52.06-0.0712-7.57 14.94-3.111 0.1705-0.0378-7.827-5.103-6e-3 -1.591 7.597-6.501 0.0555-1.458-7.672-4.644-9e-3 -1.18 7.714-3.582-4e-3 -7.788-14.71-13.65-0.0976-14.3 3.491" /></g><g stroke-width="1.283"><path d="m-708.2 534.1-72.5 0.0134" /><path d="m-707.7 528.9-69.4 0.0128 0.2696-49.5" /><path d="m-708.4 506-68.5 0.0134" /></g><path d="m-715.3 477.9 0.0657-36.99 8.979-1.232-0.1183-50.84-19.85-21.32-7.918-0.0713 0.1289 47.55-5.988 7.336-19.68 0.8459 0.1056 6.491 6.581 11.19 0.0108 29.73 13.11-0.0321 0.7608 8.015 6.4 0.0108 1.589-8.03 12.39 0.816 0.1115-29.33 3.113-0.0428"  stroke-width="1.833"/><rect x="-787.3" y="427.9" width="10.52" height="26.94" rx="5.465" ry="5.465"  stroke-width="1.283"/><g stroke-width="1.283"><ellipse transform="matrix(.9999 .01049 -.01576 .9999 0 0)" cx="-711.7" cy="327.1" rx="5.402" ry="5.488" /><ellipse transform="matrix(.9999 .01049 -.01576 .9999 0 0)" cx="-695.5" cy="368.2" rx="5.402" ry="5.488" /><ellipse transform="matrix(.9999 .01049 -.01576 .9999 0 0)" cx="-692.2" cy="184.9" rx="5.402" ry="5.488" /><ellipse transform="matrix(.9999 .01049 -.01576 .9999 0 0)" cx="-808.4" cy="487.2" rx="5.402" ry="5.488" /></g><path d="m-646 423.2h-34.56v34.51h34.56z"  stroke-width="1.283"/><g stroke-width="1.283"><path d="m-663.3 459.7-20.23 4e-3 -31.27 1.009" /><path d="m-675.8 477.9-0.2661-17.93" /><path d="m-771.5 478 0.3411-17.01-31.34-0.223 0.2243-22.37-7.416-15.26c25.83-74.95 48.17-126.1 70.78-179.1l9.458 27.24 21.68-57.05-9.881-8.479c-2.434-2.307-2.736-5.237-1.171-8.711l44.08-95.06c4.223-8.255 8.683-16.42 11.52-16.54" /><path d="m-802.5 486.1-0.0361-25.34" /><path d="m-703.9 478-0.0893-17.31" /></g><path d="m-667 353.3c-20.78-2.093-37.34-19.61-37-40.66 0.2294-14.2 7.831-26.62 19.13-33.7l0.0875-155.2"  stroke-width="1.283"/><path d="m-663.3 373.1c-3.744-8e-3 -3.557-4.642-3.521-8.219l-0.0594-25.98"  stroke-width="1.283"/><path transform="matrix(.9999 .01048 -.01578 .9999 0 0)" d="m-644.4 293.6c8.289 4.861 13.87 13.95 13.87 24.36 0 15.53-12.41 28.12-27.72 28.12s-27.72-12.59-27.72-28.12c0-10.16 5.316-19.07 13.28-24.01"  stroke-width="1.283"/><g stroke-width="1.283"><path d="m-729.5 271.3-0.5841 65.88c0.1214 15.85 15.24 37.58 29.16 49.14l4.185-0.1295 10.03-11.73 6.373-12.06 8.179-24.48" /><path d="m-685 230-4.486 0.0105-18.38-15.83" /><path d="m-768.3 313.5 16.31 6.485 19.93-49.54-8.074-22.88" /><path d="m-796 460.5 0.7445-22.36-8.036-14.26 8.193-24.9-3.82-6.884" /><path d="m-759.3 399-35.81-0.0732" /><path d="m-663.3 516.7-7.86-0.0223 2e-3 4.74-36.79-0.153" /></g><path d="m-765 379.4h-5.308v14.39h5.308z"  stroke-width="1.283"/><path d="m-732.1 270.5-0.5547 56.69c-5e-3 1.975-0.903 3.571-3.095 3.557l-20.91 0.12-12.75-14.74"  stroke-width="1.283"/><path d="m-663.3 416.6-42.86 0.1036"  stroke-width="1.283"/><path d="m-732.6 436.3h-8.137v26.59h8.137z"  stroke-width="1.283"/><path d="m-706.6 395.6-27.38 0.1036"  stroke-width="1.283"/><path d="m-706.6 392.1-27.38 0.1036"  stroke-width="1.283"/><path d="m-663.3 88.75c-0.8621 0.02079-1.718 0.8327-2.193 1.367-10.09 12.47-9.23 42.84 0.108 53.61 0.5919 0.6107 1.183 1.012 2.085 0.9989 0.9021 0.0128 1.493-0.3882 2.085-0.9989 9.338-10.77 10.2-41.13 0.108-53.61-0.4746-0.5342-1.331-1.346-2.193-1.367z"  stroke-width="1.283"/><path d="m-749.4 351.4c-1.008 0.0249-2.008 0.9958-2.563 1.635-11.8 14.92-10.79 51.23 0.1262 64.11 0.6918 0.7303 1.382 1.21 2.437 1.195 1.054 0.0153 1.745-0.4642 2.437-1.195 10.91-12.88 11.92-49.19 0.1262-64.11-0.5547-0.6388-1.556-1.61-2.563-1.635z"  stroke-width="1.283"/><path d="m-734.1 399-5.525-0.0732"  stroke-width="1.283"/><path d="m-669 286.9-8.519 0.2114-4.134-4.665-3.253 0.1195-0.0157-3.635"  stroke-width="1.283"/><path d="m-657.5 284.9h-11.56v10.26h11.56z"  stroke-width="1.283"/><path d="m-663.3 250.5c-7.474 0.0685-14.82-0.1914-21.8-1.448"  stroke-width="1.283"/><path d="m-663.3 221.3c-10.82 0.3128-18.33 17.59-21.8 27.71"  stroke-width="1.283"/><path d="m-652.2 149.1h-22.16v69.04h22.16z"  stroke-width="1.283"/><g stroke-width="1.833"><path d="m-553.7 548.6-0.1903 9.435-55.31-0.1157 0.07-9.604" /><path d="m-618.2 533.2-0.0972-54.75" /><path d="m-663.3 477.9 52.06-0.0712 7.57 14.94 3.111 0.1705 0.0378-7.827 5.103-6e-3 1.591 7.597 6.501 0.0555 1.458-7.672 4.644-9e-3 1.18 7.714 3.582-4e-3 7.788-14.71 13.65-0.0976 14.3 3.491" /></g><g stroke-width="1.283"><path d="m-618.3 534.1 72.5 0.0134" /><path d="m-618.8 528.9 69.4 0.0128-0.2696-49.5" /><path d="m-618.2 506 68.5 0.0134" /></g><path d="m-611.2 477.9-0.0657-36.99-8.979-1.232 0.1183-50.84 19.85-21.32 7.918-0.0713-0.1289 47.55 5.988 7.336 19.68 0.8459-0.1056 6.491-6.581 11.19-0.0108 29.73-13.11-0.0321-0.7608 8.015-6.4 0.0108-1.589-8.03-12.39 0.816-0.1115-29.33-3.113-0.0428"  stroke-width="1.833"/><rect transform="scale(-1,1)" x="539.2" y="427.9" width="10.52" height="26.94" rx="5.465" ry="5.465"  stroke-width="1.283"/><g stroke-width="1.283"><ellipse transform="matrix(-.9999 .01049 .01576 .9999 0 0)" cx="614.7" cy="313.2" rx="5.402" ry="5.488" /><ellipse transform="matrix(-.9999 .01049 .01576 .9999 0 0)" cx="630.9" cy="354.3" rx="5.402" ry="5.488" /><ellipse transform="matrix(-.9999 .01049 .01576 .9999 0 0)" cx="634.2" cy="171" rx="5.402" ry="5.488" /><ellipse transform="matrix(-.9999 .01049 .01576 .9999 0 0)" cx="518" cy="473.3" rx="5.402" ry="5.488" /></g><g stroke-width="1.283"><path d="m-663.3 459.7 20.23 4e-3 31.27 1.009" /><path d="m-650.8 477.9 0.2661-17.93" /><path d="m-555 478-0.3411-17.01 31.34-0.223-0.2243-22.37 7.416-15.26c-25.83-74.95-48.17-126.1-70.78-179.1l-9.458 27.24-21.68-57.05 9.881-8.479c2.434-2.307 2.736-5.237 1.171-8.711l-44.08-95.06c-4.223-8.255-8.683-16.42-11.52-16.54" /><path d="m-524 486.1 0.0361-25.34" /><path d="m-622.7 478 0.0893-17.31" /></g><path d="m-659.5 353.3c20.78-2.093 37.34-19.61 37-40.66-0.2294-14.2-7.831-26.62-19.13-33.7l-0.0875-155.2"  stroke-width="1.283"/><g stroke-width="1.283"><path d="m-663.3 373.1c3.744-8e-3 3.557-4.642 3.521-8.219l0.0594-25.98" /><path d="m-597 271.3 0.5841 65.88c-0.1214 15.85-15.24 37.58-29.16 49.14l-4.185-0.1295-10.03-11.73-6.373-12.06-8.179-24.48" /><path d="m-641.6 230 4.486 0.0105 18.38-15.83" /><path d="m-558.2 313.5-16.31 6.485-19.93-49.54 8.074-22.88" /><path d="m-530.6 460.5-0.7445-22.36 8.036-14.26-8.193-24.9 3.82-6.884" /><path d="m-567.3 399 35.81-0.0732" /><path d="m-663.3 516.7 7.86-0.0223-2e-3 4.74 36.79-0.153" /></g><path d="m-561.6 379.4h5.308v14.39h-5.308z"  stroke-width="1.283"/><path d="m-594.4 270.5 0.5547 56.69c5e-3 1.975 0.903 3.571 3.095 3.557l20.91 0.12 12.75-14.74"  stroke-width="1.283"/><path d="m-663.3 416.6 42.86 0.1036"  stroke-width="1.283"/><path d="m-594 436.3h8.137v26.59h-8.137z"  stroke-width="1.283"/><path d="m-620 395.6 27.38 0.1036"  stroke-width="1.283"/><path d="m-620 392.1 27.38 0.1036"  stroke-width="1.283"/><path d="m-577.2 351.4c1.008 0.0249 2.008 0.9958 2.563 1.635 11.8 14.92 10.79 51.23-0.1262 64.11-0.6918 0.7303-1.382 1.21-2.437 1.195-1.054 0.0153-1.745-0.4642-2.437-1.195-10.91-12.88-11.92-49.19-0.1262-64.11 0.5547-0.6388 1.556-1.61 2.563-1.635z"  stroke-width="1.283"/><g stroke-width="1.283"><path d="m-592.5 399 5.525-0.0732" /><path d="m-657.6 286.9 8.519 0.2114 4.134-4.665 3.253 0.1195 0.0157-3.635" /><path d="m-663.3 250.5c7.474 0.0685 14.82-0.1914 21.8-1.448" /><path d="m-663.3 221.3c10.82 0.3128 18.33 17.59 21.8 27.71" /><path d="m-663.3 284.7v-34.21" /></g><path d="m-643.1 486.1h-10.56v15.26h10.56z"  stroke-width="1.283"/></g><g  ><rect x="430.8" y="128.2" width="8.144" height="8.073" fill="#979797"   stroke-width="3.587"><desc>{ "type": "gunsight", "cl": "gun", "i": 0 }</desc></rect><g fill="none" stroke="#979797" stroke-width="3.587"><path d="m442.9 86.92c21.52 3.996 37.82 22.87 37.82 45.55 0 5.371-0.9139 10.53-2.595 15.33m-7.842 13.97c-8.496 10.4-21.42 17.03-35.89 17.03-14.38 0-27.24-6.555-35.74-16.84m-7.716-13.37c-1.862-5.019-2.88-10.45-2.88-16.12 0-23.05 16.84-42.18 38.89-45.74" /><g><path d="m434.9 71.19v15.85" /><path d="m395.6 155.1-13.68 8.014" /><path d="m474.2 155.1 13.68 8.014" /></g></g><g ><circle cx="428.9" cy="236.9" r="3.783" fill="#979797"  stroke-width="3.587"><desc>{ "type": "gunsight", "cl": "gun", "i": 1 }</desc></circle><path d="m671.4 434.3h-33.26v33.21h33.26z" fill="#f39746"   stroke-width="1.235"><desc>{ "type": "other", "i": "cargo hatch" }</desc></path><path d="m208.5 268.9-0.1054-3.044-7.423 1.063-9.218 26.33 2.091 6.785-1.44 16.38 2.083 3.083 2.42-14.52 5.059-9.802 6.032-0.1737 2.672 23.81h6.797l2.671-23.81 6.032 0.1737 5.059 9.802 2.42 14.52 2.083-3.083-1.44-16.38 2.091-6.785-9.218-26.33-7.423-1.063-0.1054 3.044z" fill="#f39746"   stroke-width="1.764"><desc>{ "type": "other", "i": "canopy" }</desc></path><rect x="146.9" y="249.6" width="17.47" height="34.39" rx="3.114" ry="3.051" fill="#4df346"   stroke-width="1.661"><desc>{ "type": "hard_point", "i": 4 }</desc></rect><circle cx="432" cy="184.6" r="3.783" fill="#979797"  stroke-width="2.869"><desc>{ "type": "hard_point", "cl": "gun", "i": 1 }</desc></circle></g><g fill="#f39745" ><g stroke-width="1.764"><path d="m111.6 579.4h47.08l-23.54 24.83z"  ><desc>{ "type": "misc", "i": "thrusters" }</desc></path><ellipse cx="192.7" cy="450.6" rx="10.46" ry="10.73"  ><desc>{ "type": "misc", "i": "heat vents" }</desc></ellipse><ellipse cx="235.4" cy="450.6" rx="10.46" ry="10.73"  ><desc>{ "type": "misc", "i": "heat vents" }</desc></ellipse></g><g stroke-width="1.235"><path d="m571.9 365.2c-0.9695 0.024-1.933 0.9582-2.466 1.573-11.35 14.35-10.38 49.3 0.1215 61.69 0.6657 0.7027 1.33 1.164 2.345 1.149 1.015 0.0147 1.679-0.4467 2.345-1.149 10.5-12.39 11.47-47.33 0.1215-61.69-0.5338-0.6147-1.497-1.549-2.466-1.573z"  ><desc>{ "type": "misc", "i": "landing gear" }</desc></path><path d="m737.6 365.2c-0.9695 0.024-1.933 0.9582-2.466 1.573-11.35 14.35-10.38 49.3 0.1215 61.69 0.6657 0.7027 1.33 1.164 2.345 1.149 1.015 0.0147 1.679-0.4467 2.345-1.149 10.5-12.39 11.47-47.33 0.1215-61.69-0.5338-0.6147-1.497-1.549-2.466-1.573z"  ><desc>{ "type": "misc", "i": "landing gear" }</desc></path><path d="m654.8 112.5c-0.8322 0.0201-1.659 0.8011-2.117 1.315-9.743 12-8.91 41.21 0.1043 51.57 0.5714 0.5875 1.142 0.9733 2.013 0.961 0.8708 0.0123 1.441-0.3735 2.013-0.961 9.015-10.36 9.847-39.57 0.1043-51.57-0.4582-0.514-1.285-1.295-2.117-1.315z"  ><desc>{ "type": "misc", "i": "landing gear" }</desc></path></g><g stroke-width="1.764"><ellipse cx="624.1" cy="197.9" rx="6.712" ry="6.888"  ><desc>{ "type": "misc", "i": "thrusters" }</desc></ellipse><ellipse cx="685.4" cy="197.9" rx="6.712" ry="6.888"  ><desc>{ "type": "misc", "i": "thrusters" }</desc></ellipse><ellipse cx="507.8" cy="487.7" rx="6.712" ry="6.888"  ><desc>{ "type": "misc", "i": "thrusters" }</desc></ellipse><ellipse cx="801.7" cy="487.6" rx="6.712" ry="6.888"  ><desc>{ "type": "misc", "i": "thrusters" }</desc></ellipse></g><g stroke-width="1.764"><ellipse cx="104.7" cy="520.6" rx="4.767" ry="6.888"  ><desc>{ "type": "misc", "i": "thrusters" }</desc></ellipse><ellipse cx="323.5" cy="520.6" rx="4.767" ry="6.888"  ><desc>{ "type": "misc", "i": "thrusters" }</desc></ellipse><ellipse transform="rotate(21.95)" cx="232.3" cy="73.71" rx="4.767" ry="6.888"  ><desc>{ "type": "misc", "i": "thrusters" }</desc></ellipse><ellipse transform="matrix(-.9275 .3739 .3739 .9275 0 0)" cx="-164.8" cy="233.7" rx="4.767" ry="6.888"  ><desc>{ "type": "misc", "i": "thrusters" }</desc></ellipse></g></g><g fill="#ff3ae1"  stroke-width="1.554"><rect x="595.4" y="327.2" width="15.56" height="14.93" rx="1.971" ry="1.821"  ><desc>{ "type": "utility", "i": 1 }</desc></rect><rect x="610.4" y="366.9" width="15.56" height="14.93" rx="1.971" ry="1.821"  ><desc>{ "type": "utility", "i": 2 }</desc></rect><rect x="683.5" y="367" width="15.56" height="14.93" rx="1.971" ry="1.821"  ><desc>{ "type": "utility", "i": 3 }</desc></rect><rect x="698.6" y="327.2" width="15.56" height="14.93" rx="1.971" ry="1.821"  ><desc>{ "type": "utility", "i": 4 }</desc></rect><rect x="168" y="414.2" width="15.56" height="14.93" rx="1.971" ry="1.821"  ><desc>{ "type": "utility", "i": 5 }</desc></rect><rect x="244.5" y="414.2" width="15.56" height="14.93" rx="1.971" ry="1.821"  ><desc>{ "type": "utility", "i": 6 }</desc></rect></g><g fill="#f39745"  stroke-width="1.764"><path d="m144.4 570.9h9.159l-4.579 4.831z"  ><desc>{ "type": "misc", "i": "thrusters" }</desc></path><path d="m153.6 570.9h9.159l-4.579 4.831z"  ><desc>{ "type": "misc", "i": "thrusters" }</desc></path><path d="m116.6 570.9h9.159l-4.579 4.831z"  ><desc>{ "type": "misc", "i": "thrusters" }</desc></path><path d="m107.5 570.9h9.159l-4.579 4.831z"  ><desc>{ "type": "misc", "i": "thrusters" }</desc></path><path d="m303.2 570.9h9.159l-4.579 4.831z"  ><desc>{ "type": "misc", "i": "thrusters" }</desc></path><path d="m312.3 570.9h9.159l-4.579 4.831z"  ><desc>{ "type": "misc", "i": "thrusters" }</desc></path><path d="m275.4 570.9h9.159l-4.579 4.831z"  ><desc>{ "type": "misc", "i": "thrusters" }</desc></path><path d="m266.2 570.9h9.159l-4.579 4.831z"  ><desc>{ "type": "misc", "i": "thrusters" }</desc></path><path d="m585 570.9h9.159l-4.579 4.831z"  ><desc>{ "type": "misc", "i": "thrusters" }</desc></path><path d="m594.2 570.9h9.159l-4.579 4.831z"  ><desc>{ "type": "misc", "i": "thrusters" }</desc></path><path d="m557.2 570.9h9.159l-4.579 4.831z"  ><desc>{ "type": "misc", "i": "thrusters" }</desc></path><path d="m548.1 570.9h9.159l-4.579 4.831z"  ><desc>{ "type": "misc", "i": "thrusters" }</desc></path><path d="m743.8 570.9h9.159l-4.579 4.831z"  ><desc>{ "type": "misc", "i": "thrusters" }</desc></path><path d="m752.9 570.9h9.159l-4.579 4.831z"  ><desc>{ "type": "misc", "i": "thrusters" }</desc></path><path d="m716 570.9h9.159l-4.579 4.831z"  ><desc>{ "type": "misc", "i": "thrusters" }</desc></path><path d="m706.8 570.9h9.159l-4.579 4.831z"  ><desc>{ "type": "misc", "i": "thrusters" }</desc></path><path d="m66.87 404.5h18.64l-9.319-9.831z"  ><desc>{ "type": "misc", "i": "thrusters" }</desc></path><path d="m111.2 289.2h18.64l-9.319-9.831z"  ><desc>{ "type": "misc", "i": "thrusters" }</desc></path><path d="m360.8 404.5h-18.64l9.319-9.831z"  ><desc>{ "type": "misc", "i": "thrusters" }</desc></path><path d="m316.5 289.2h-18.64l9.319-9.831z"  ><desc>{ "type": "misc", "i": "thrusters" }</desc></path><path d="m507.6 404.5h18.64l-9.319-9.831z"  ><desc>{ "type": "misc", "i": "thrusters" }</desc></path><path d="m551.9 289.2h18.64l-9.319-9.831z"  ><desc>{ "type": "misc", "i": "thrusters" }</desc></path><path d="m801.5 404.5h-18.64l9.319-9.831z"  ><desc>{ "type": "misc", "i": "thrusters" }</desc></path><path d="m757.2 289.2h-18.64l9.319-9.831z"  ><desc>{ "type": "misc", "i": "thrusters" }</desc></path></g><g fill="#4df346"  stroke-width="1.661"><rect x="637.3" y="271.2" width="34.71" height="68.33" rx="3.114" ry="3.051"  ><desc>{ "type": "hard_point", "i": 1 }</desc></rect><rect x="180.6" y="179.2" width="17.47" height="34.39" rx="3.114" ry="3.051"  ><desc>{ "type": "hard_point", "i": 3 }</desc></rect><rect transform="scale(-1,1)" x="-281.2" y="249.6" width="17.47" height="34.39" rx="3.114" ry="3.051"  ><desc>{ "type": "hard_point", "i": 5 }</desc></rect><rect transform="scale(-1,1)" x="-247.5" y="179.2" width="17.47" height="34.39" rx="3.114" ry="3.051"  ><desc>{ "type": "hard_point", "i": 2 }</desc></rect></g><g fill="none" ><path d="m673.3 515.7h-8.437v10.95h8.437z"  stroke-width="1.235"/><path d="m644.6 515.7h-8.437v10.95h8.437z"  stroke-width="1.235"/><path d="m630.9 528.4-0.0859-41.35"  stroke-width="1.235"/><path d="m678.5 528.4-0.0859-41.35"  stroke-width="1.235"/></g><path d="m658.1 353.1h-6.756v23.84h6.756z" fill="#f39746"    stroke-width="1.235"><desc>{ "type": "misc", "i": "heat vents" }</desc></path><path d="m209.8 332.5-3.909 30.74h16.42l-3.909-30.74z" fill="#f39746"    stroke-width="1.764"><desc>{ "type": "other", "i": "canopy" }</desc></path><g fill="#f39745"  stroke-width="1.764"><path d="m270.3 579.4h47.08l-23.54 24.83z"  ><desc>{ "type": "misc", "i": "thrusters" }</desc></path><path d="m552.6 579.4h47.08l-23.54 24.83z"  ><desc>{ "type": "misc", "i": "thrusters" }</desc></path><path d="m711.4 579.4h47.08l-23.54 24.83z"  ><desc>{ "type": "misc", "i": "thrusters" }</desc></path></g><g fill="#979797"  stroke-width="2.869"><circle cx="412.7" cy="157.5" r="3.783" ><desc>{ "type": "hard_point", "cl": "gun", "i": 3 }</desc></circle><circle cx="451.2" cy="157.5" r="3.783" ><desc>{ "type": "hard_point", "cl": "gun", "i": 2 }</desc></circle><circle cx="386.6" cy="167.4" r="3.783" ><desc>{ "type": "hard_point", "cl": "gun", "i": 4 }</desc></circle><circle cx="477.3" cy="167.4" r="3.783" ><desc>{ "type": "hard_point", "cl": "gun", "i": 5 }</desc></circle></g><path d="m204 503.9a8.125 7.918 0 0 0-8.125-7.918 8.125 7.918 0 0 0-8.125 7.918 8.125 7.918 0 0 0 1.904 5.082l6.221 9.992 6.199-9.959a8.125 7.918 0 0 0 1.926-5.115z" fill="#46d2f3"    stroke-width="1.764"><desc>{ "type": "internal", "i": "entrance" }</desc></path></g></svg>
