<svg width="870" height="640" clip-rule="evenodd" fill-rule="evenodd" image-rendering="optimizeQuality" shape-rendering="geometricPrecision" text-rendering="geometricPrecision" version="1.1" viewBox="0 0 870 640" xml:space="preserve" xmlns="http://www.w3.org/2000/svg">
<ellipse transform="matrix(.9992 .04069 -.004061 1 0 0)" cx="669.2" cy="196.8" rx="8.886" ry="35"  fill="none"    stroke-width="1.235"/><ellipse transform="matrix(.9992 .04069 -.004061 1 0 0)" cx="668.9" cy="142.5" rx="8.886" ry="35"  fill="none"    stroke-width="1.235"/><g transform="translate(1340)"  fill="none"  ><g stroke-width="1.764"><path d="m-672 124.2c-2.151 0.0484-3.801 0.8282-5.701 3.531-3.119 4.328-5.568 11-8.107 18.46-12.44 36.65-17.66 80.51-26.3 121-5.892 24.69-24.04 74.19-66.86 84.34l-1.887-69.04-2.955-3.1-15.94 0.127-3.143 2.639c-7.13 45.51-8.139 91.45-5.957 137.6l4.506 46.66 2.205 6.199 1.275 0.0527-0.0781-5.52 13.92-0.0762 0.1367 4.592 2.188 0.0605 4.033-41.17 16.12-4.762 8.037-0.248c7.586 0.1505 10.6 5.395 13.02 10.37l10.15 22.36c3.015 7.412-1.462 10.02-5.225 11.85l9.355 64.56 44.61 12.79 1.227-17.68 11.36-0.0371 11.36 0.0371 1.227 17.68 44.61-12.79 9.355-64.56c-3.762-1.827-8.24-4.44-5.225-11.85l10.15-22.36c2.423-4.97 5.434-10.21 13.02-10.37l8.037 0.248 16.12 4.762 4.033 41.17 2.188-0.0605 0.1367-4.592 13.92 0.0762-0.0781 5.52 1.275-0.0527 2.205-6.199 4.506-46.66c2.182-46.17 1.173-92.11-5.957-137.6l-3.143-2.639-15.94-0.127-2.955 3.1-1.887 69.04c-42.83-10.15-60.97-59.66-66.86-84.34-8.642-40.44-13.86-84.31-26.3-121-2.437-6.753-5.116-13.67-8.107-18.46-1.901-2.703-3.551-3.483-5.701-3.531z" /><path d="m-716.7 538 1.25 18.24 8.802-4.07 0.6294-4.64 4.603-0.6854 3.436-3.218" /><path d="m-627.3 538-1.25 18.24-8.802-4.07-0.6294-4.64-4.603-0.6854-3.436-3.218" /><path d="m-780.7 430.5c1.982-25.49 2.042-52.14 1.691-79.04" /></g><rect x="-802.6" y="371.3" width="17.82" height="24.6" rx="2.652" ry="2.652"  stroke-width="1.235"/><ellipse transform="matrix(.9999 .0105 -.01574 .9999 0 0)" cx="-787.4" cy="396.2" rx="3.108" ry="3.161"  stroke-width="1.235"/><g stroke-width="1.235"><path d="m-805.9 452.3 22.75-0.3125" /><path d="m-804.2 290.5 23.72-0.3125" /><path d="m-797.4 278.8-0.9736 6.059 9.634-0.033 0.6622-5.443" /></g><rect x="-802.6" y="299.2" width="17.82" height="24.6" rx="2.652" ry="2.652"  stroke-width="1.235"/><rect x="-798.4" y="417.2" width="10.21" height="22.04" rx="2.652" ry="2.652"  stroke-width="1.235"/><path d="m-800.5 452 1.679 10.87 11.49-0.0699 1.629-10.64"  stroke-width="1.764"/><path d="m-800.5 452-0.0397-6.696 14.85-0.0241-0.011 6.877"  stroke-width="1.235"/><ellipse transform="matrix(.9999 .0105 -.01575 .9999 0 0)" cx="-684.2" cy="267" rx="4.139" ry="4.207"  stroke-width="1.235"/><ellipse transform="matrix(.9999 .0105 -.01575 .9999 0 0)" cx="-690.2" cy="515.8" rx="4.139" ry="4.207"  stroke-width="1.235"/><g stroke-width="1.235"><path d="m-768.2 379.3 0.1013 16.12c21.22 3.559 33.18 26.01 45.5 38.35-15.56-33.5-20.95-47.89-45.6-54.47z" /><path d="m-768 386.7c21.74 2.311 27.94 22.83 34.19 23.25" /><path d="m-778.8 379.5 3.379 2.582c2.102 8.284 1.194 22.29-0.2617 28.37l-3.597 2.584" /><path d="m-709.2 304.6-5.992-4.271c1.465-6.312 4.786-9.512 7.206-16.39-1.353 10.89-0.9476 13.63-1.214 20.66z" /><path d="m-687.5 499.1 0.2047 29.54c0.0546 2.063-0.2122 2.979-1.706 2.998l-17.92 0.0303c-1.817-0.0714-2.563-1.11-2.554-2.831l-0.1613-35.08 20.03-6e-3c1.107 0.0266 2.056 0.6974 2.095 2.515l0.014 2.831 4.131-4e-3 0.0389 30.64" /><path d="m-729.2 534.6 45.38-0.0782" /><path d="m-730.7 526.6 13.16 2.288 4.188-2.825-0.1583-9.176 3.818-2.552" /></g><path d="m-685.8 146.2c-18.36 70.45-16.91 123.5-33.76 153.9 6.927 7.551 17.28 21.62 16.6 30.61l-4.961 67.81c-0.7979 10.57-11.02 10.14-13.84 1.98l-22.38-61.37"  stroke-width="1.764"/><g stroke-width="1.235"><path d="m-727.8 382.5 16.19-16.58c1.638-1.848 2.863-3.954 3.074-7.326l2.517-39.05" /><path d="m-735.9 363.1 11.45-7.936c1.216-0.9432 2.472-1.822 3.123-3.653l7.666-29.21" /><path d="m-728.2 381.1 10.52-13.29c1.014-1.289 1.865-3.47 1.974-5.288l2.051-40.26" /><path d="m-754.4 341c3.644 4.727 6.503 8.636 9.816 16.46l7.811 19c1.716 4.128 4.421 2.337 6.434 1.725" /><path d="m-737.9 357 7.382-4.694-0.994-30.06-2.448-2.417" /><path d="m-749.6 335.8 1.813 3.349 3.614-0.1325 4.258-4.123-0.7345-8.038" /><path d="m-713.7 322.3 2.084-11.66" /><path d="m-725 523.3c1.439-1.383 2.617-3.817 2.794-7.512-2.094-9.402-4.672-20.74-7.255-32.09 1.402 13.21 0.0666 26.55 4.46 39.6z" /><path d="m-709.7 493.8-0.0925-31.7c-0.141-1.975-0.6319-3.844-1.606-5.569-25.78-39.39-47.38-38.7-68-40.08" /></g><rect x="-701.6" y="378.4" width="59.18" height="59.07" rx="4.683" ry="4.683"  stroke-width="1.235"/><path d="m-693.4 364.5h9.87v10.91h-9.87z"  stroke-width="1.235"/><path d="m-704.7 501.5h12.65v28.19h-12.65z"  stroke-width="1.235"/><rect x="-697.1" y="314.9" width="7.017" height="13.11" rx="4.683" ry="4.683"  stroke-width="1.235"/><path d="m-676.9 268.5h9.87v15.03h-9.87z"  stroke-width="1.235"/><rect x="-683.7" y="173.6" width="23.48" height="45.11" rx="2.433" ry="2.433"  stroke-width="1.235"/><path d="m-685.8 499.1 7e-3 -12.03c-0.0312-2.098 1.491-3.703 3.378-3.75l10.44-2e-3"  stroke-width="1.235"/><path transform="matrix(.9994 .036 -.004591 1 0 0)" d="m-689.3 341.9c4.552-18.15 11.24-29.61 18.7-29.61 7.303 0 13.87 10.99 18.41 28.47m2.391 10.8c2.548 13.59 4.03 29.83 4.03 47.28 0 47.8-11.12 86.55-24.84 86.55s-24.84-38.75-24.84-86.55c0-16.94 1.396-32.74 3.81-46.09"  stroke-width="1.235"/><g stroke-width="1.235"><path d="m-672 126.4c-17.24 0.255-21.96 177.7-28.79 185.4-3.223-3.356-5.654-9.353-4.715-19.35 6.212-19.58 16.29-165.8 33.5-166" /><path d="m-690.9 221.7c6.046-8.121 12.14-10.99 18.86-11.01" /><path d="m-686.1 176.6c4.513 4.087 9.134 5.654 14.09 5.668" /><path d="m-707.1 392.7c9.14 15.28 28.41 19.3 35.12 19.32" /><path d="m-681.3 454.3c2.939-3.513 6.081-4.444 9.345-4.452" /><path d="m-687.9 375.7 7.384 61.87c0.8818 6.236-1.023 9.979-3.261 13.42l-22.23 31.09-4.368 0.5543" /><path d="m-689.1 364.3-1.981-10.28c-0.6995-2.45-2.858-2.985-4.839-3.752l-7.904-2.16" /><path d="m-709.8 462.1-3.734-0.0772c-4.834-0.1586-11.38 6.548-11.19 11.18 0.3958 9.674 1.252 22.83 7.282 34.68 1.745 2.861 3.93 4.182 7.665 4.034" /></g><path d="m-627.3 538-1.25 18.24-8.802-4.07-0.6294-4.64-4.603-0.6854-3.436-3.218"  stroke-width="1.764"/><path d="m-563.3 430.5c-1.982-25.49-2.042-52.14-1.691-79.04"  stroke-width="1.764"/><rect transform="scale(-1,1)" x="541.4" y="371.3" width="17.82" height="24.6" rx="2.652" ry="2.652"  stroke-width="1.235"/><ellipse transform="matrix(-.9999 .0105 .01574 .9999 0 0)" cx="556.5" cy="382.1" rx="3.108" ry="3.161"  stroke-width="1.235"/><g stroke-width="1.235"><path d="m-538.1 452.3-22.75-0.3125" /><path d="m-539.8 290.5-23.72-0.3125" /><path d="m-546.6 278.8 0.9736 6.059-9.634-0.033-0.6622-5.443" /></g><rect transform="scale(-1,1)" x="541.4" y="299.2" width="17.82" height="24.6" rx="2.652" ry="2.652"  stroke-width="1.235"/><rect transform="scale(-1,1)" x="545.6" y="417.2" width="10.21" height="22.04" rx="2.652" ry="2.652"  stroke-width="1.235"/><path d="m-543.5 452-1.679 10.87-11.49-0.0699-1.629-10.64"  stroke-width="1.764"/><path d="m-543.5 452 0.0397-6.696-14.85-0.0241 0.011 6.877"  stroke-width="1.235"/><ellipse transform="matrix(-.9999 .0105 .01575 .9999 0 0)" cx="659.7" cy="252.9" rx="4.139" ry="4.207"  stroke-width="1.235"/><ellipse transform="matrix(-.9999 .0105 .01575 .9999 0 0)" cx="653.6" cy="501.7" rx="4.139" ry="4.207"  stroke-width="1.235"/><g stroke-width="1.235"><path d="m-575.8 379.3-0.1013 16.12c-21.22 3.559-33.18 26.01-45.5 38.35 15.56-33.5 20.95-47.89 45.6-54.47z" /><path d="m-576 386.7c-21.74 2.311-27.94 22.83-34.19 23.25" /><path d="m-565.2 379.5-3.379 2.582c-2.102 8.284-1.194 22.29 0.2617 28.37l3.597 2.584" /><path d="m-634.8 304.6 5.992-4.271c-1.465-6.312-4.786-9.512-7.206-16.39 1.353 10.89 0.9476 13.63 1.214 20.66z" /><path d="m-656.5 499.1-0.2047 29.54c-0.0546 2.063 0.2122 2.979 1.706 2.998l17.92 0.0303c1.817-0.0714 2.563-1.11 2.554-2.831l0.1613-35.08-20.03-6e-3c-1.107 0.0266-2.056 0.6974-2.095 2.515l-0.014 2.831-4.131-4e-3 -0.0389 30.64" /><path d="m-614.8 534.6-45.38-0.0782" /><path d="m-613.3 526.6-13.16 2.288-4.188-2.825 0.1583-9.176-3.818-2.552" /></g><path d="m-658.2 146.2c18.36 70.45 16.91 123.5 33.76 153.9-6.927 7.551-17.28 21.62-16.6 30.61l4.961 67.81c0.7979 10.57 11.02 10.14 13.84 1.98l22.38-61.37"  stroke-width="1.764"/><g stroke-width="1.235"><path d="m-616.2 382.5-16.19-16.58c-1.638-1.848-2.863-3.954-3.074-7.326l-2.517-39.05" /><path d="m-608.1 363.1-11.45-7.936c-1.216-0.9432-2.472-1.822-3.123-3.653l-7.666-29.21" /><path d="m-615.8 381.1-10.52-13.29c-1.014-1.289-1.865-3.47-1.974-5.288l-2.051-40.26" /><path d="m-589.6 341c-3.644 4.727-6.503 8.636-9.816 16.46l-7.811 19c-1.716 4.128-4.421 2.337-6.434 1.725" /><path d="m-606.1 357-7.382-4.694 0.994-30.06 2.448-2.417" /><path d="m-594.4 335.8-1.813 3.349-3.614-0.1325-4.258-4.123 0.7345-8.038" /><path d="m-630.3 322.3-2.084-11.66" /><path d="m-619 523.3c-1.439-1.383-2.617-3.817-2.794-7.512 2.094-9.402 4.672-20.74 7.255-32.09-1.402 13.21-0.0666 26.55-4.46 39.6z" /><path d="m-634.3 493.8 0.0925-31.7c0.141-1.975 0.6319-3.844 1.606-5.569 25.78-39.39 47.38-38.7 68-40.08" /></g><path d="m-650.6 364.5h-9.87v10.91h9.87z"  stroke-width="1.235"/><path d="m-639.3 501.5h-12.65v28.19h12.65z"  stroke-width="1.235"/><rect transform="scale(-1,1)" x="646.9" y="314.9" width="7.017" height="13.11" rx="4.683" ry="4.683"  stroke-width="1.235"/><g stroke-width="1.235"><path d="m-658.2 499.1-7e-3 -12.03c0.0312-2.098-1.491-3.703-3.378-3.75l-10.44-2e-3" /><path d="m-672 126.4c17.24 0.255 21.96 177.7 28.79 185.4 3.223-3.356 5.654-9.353 4.715-19.35-6.212-19.58-16.29-165.8-33.5-166" /><path d="m-653.1 221.7c-6.046-8.121-12.14-10.99-18.86-11.01" /><path d="m-657.9 176.6c-4.513 4.087-9.134 5.654-14.09 5.668" /><path d="m-636.9 392.7c-9.14 15.28-28.41 19.3-35.12 19.32" /><path d="m-662.7 454.3c-2.939-3.513-6.081-4.444-9.345-4.452" /><path d="m-656.1 375.7-7.384 61.87c-0.8818 6.236 1.023 9.979 3.261 13.42l22.23 31.09 4.368 0.5543" /><path d="m-654.9 364.3 1.981-10.28c0.6995-2.45 2.858-2.985 4.839-3.752l7.904-2.16" /><path d="m-634.2 462.1 3.734-0.0772c4.834-0.1586 11.38 6.548 11.19 11.18-0.3958 9.674-1.252 22.83-7.282 34.68-1.745 2.861-3.93 4.182-7.665 4.034" /></g><path d="m-680.5 494.4h17.12v28.66h-17.12z"  stroke-width="1.235"/></g><g transform="translate(1262)"  fill="none"  ><g stroke-width="1.764"><path d="m-1066 124.2c-2.151 0.0484-3.801 0.8282-5.701 3.531l-8.107 18.46c-12.44 36.65-17.66 80.51-26.3 121-5.892 24.69-24.04 74.19-66.86 84.34l-1.887-69.04-2.955-3.1-15.94 0.127-3.143 2.639c-7.13 45.51-8.139 91.45-5.957 137.6l4.506 46.66 2.205 6.199 1.275 0.0527-0.078-5.52 13.92-0.0762 0.1367 4.592 2.188 0.0605 4.033-41.17 16.12-4.762 8.037-0.248c7.586 0.1505 10.6 5.395 13.02 10.37l10.15 22.36c3.015 7.412-1.462 10.02-5.225 11.85l9.356 64.56 44.61 12.79 1.226-17.68 11.36-0.0371 11.36 0.0371 1.227 17.68 44.61-12.79 9.356-64.56c-3.762-1.827-8.24-4.44-5.225-11.85l10.15-22.36c2.423-4.97 5.434-10.21 13.02-10.37l8.037 0.248 16.12 4.762 4.033 41.17 2.188-0.0605 0.1367-4.592 13.92 0.0762-0.0781 5.52 1.275-0.0527 2.205-6.199 4.506-46.66c2.182-46.17 1.173-92.11-5.957-137.6l-3.143-2.639-15.94-0.127-2.955 3.1-1.887 69.04c-42.83-10.15-60.97-59.66-66.86-84.34-8.642-40.44-13.86-84.31-26.3-121l-8.107-18.46c-1.901-2.703-3.551-3.483-5.701-3.531z" /><path d="m-1111 538 1.25 18.24 8.802-4.07 0.6294-4.64 4.603-0.6854 3.436-3.218" /><path d="m-1175 430.5c1.982-25.49 2.042-52.14 1.691-79.04" /></g><rect x="-1199" y="347.1" width="21.07" height="48.61" rx="2.652" ry="2.652"  stroke-width="1.235"/><g stroke-width="1.235"><path d="m-1201 316.9 27.19-0.3125" /><path d="m-1198 290.5 23.72-0.3125" /><path d="m-1193 316.9v7.875" /><path d="m-1183 316.7v7.875" /></g><rect x="-1197" y="399.3" width="18.57" height="26.8" rx="1.714" ry="1.714"  stroke-width="1.235"/><rect x="-1192" y="440.6" width="8.606" height="21.48" rx="0" ry="0"  stroke-width="1.235"/><ellipse transform="matrix(.9999 .01049 -.01576 .9999 0 0)" cx="-1182" cy="420.4" rx="5.696" ry="5.786"  stroke-width="1.235"/><ellipse transform="matrix(.9999 .0105 -.01574 .9999 0 0)" cx="-1182" cy="399.9" rx="3.108" ry="3.161"  stroke-width="1.235"/><ellipse transform="matrix(.9999 .0105 -.01575 .9999 0 0)" cx="-1088" cy="531.7" rx="4.139" ry="4.207"  stroke-width="1.235"/><ellipse transform="matrix(.9601 .2797 -.2761 .9611 0 0)" cx="-980.2" cy="555.7" rx="2.924" ry="4.206"  stroke-width="1.235"/><g stroke-width="1.235"><path d="m-1191 278.8-0.9736 6.059 9.634-0.033 0.6622-5.443" /><path d="m-1183 360h-9.804v10.03h9.804z" /><path d="m-1173 379.5 3.379 2.582c2.102 8.284 1.194 22.29-0.2617 28.37l-3.597 2.584" /></g><path d="m-1066 283.8c-7.148-0.1964-14.32-5.991-14.36-19.76l0.07-22.31c0.01-10.07 8.659-51.51 14.29-51.61"  stroke-width="1.764"/><g stroke-width="1.235"><path d="m-1083 231.6h-2.467c-3.686 28.46-3.53 41.25-2.386 49.27l2.073 1.856 8.437-1.856c-6.701-7.647-6.721-25.9-5.657-49.27z" /><path d="m-1088 255.9 4.467-4e-5" /><path d="m-1069 125.6c-1.837 21.02-0.6898 53.95-5.51 63.07-5.475 10.11-5.283 16.75-0.3889 20.5" /><path d="m-1124 528.8 16.47 0.5015c0-2.562-2.422-19.46 9.914-19.46l21.43-0.0379" /></g><g stroke-width="1.764"><path d="m-1117 299.2c9.9 9.183 20.16 18.53 20.32 38.01l0.1538 74.61c-0.029 12.5 2.704 23.24 12.23 24.59l11.91 0.7688-5.353 92.53" /><path d="m-1107 309-1.765 78.5c-0.7979 10.57-8.543 9.429-11.36 1.273l-21.5-54.66" /><path d="m-1115 394.8 22.76 83.81c3.214 9.57 8.111 16.56 16.31 18.48" /></g><g stroke-width="1.235"><path d="m-1148 341c3.644 4.727 6.503 8.636 9.816 16.46l7.811 19c1.716 4.128 4.421 2.337 6.434 1.725" /><path d="m-1099 509.7c-1.554-14.66-4.264-29.07-8.814-43.06" /><path d="m-1131 432.7c10.86 10.76 20.43 21.41 23.96 31.75l-0.969 2.255c-13.02-4e-3 -16.5-20.47-22.99-34z" /><path d="m-1156 380.6-1.434 20.01 0.9164 7.771c21.84 6.388 34.51 23.36 47.97 39.41-9.731-29.79-23.77-54.35-47.46-67.19z" /><path d="m-1157 394.5c13.74 3.749 24.63 12.89 35.44 22.19" /><path d="m-1122 381.2c5.451-5.043 11.11-9.341 14.28-22.59" /><path d="m-1129 363 11.45-7.936c1.216-0.9432 2.472-1.822 3.123-3.653l7.666-29.21" /><path d="m-1133 357.4 7.382-4.694-0.994-30.06-2.448-2.417" /><path d="m-1076 279.9c0.6929 52.38 0.6613 104.7 3.54 157.4" /><path d="m-1076 289-12.93 0.0228c-8.099-0.0494-7.816-15.64-16.88-22.34" /><path d="m-1075 346.5c-2.376 0.047-4.397 0.5844-5.793 1.386-1.393 0.9289-2.699 2.844-2.904 5.504-1.122 18.35-0.4446 37-0.2477 55.56 0.1618 3.063 1.823 5.307 3.585 6.979 2.231 1.547 4.604 1.251 6.949 1.11" /></g><path d="m-1021 538-1.25 18.24-8.802-4.07-0.6293-4.64-4.603-0.6854-3.436-3.218"  stroke-width="1.764"/><path d="m-957.3 430.5c-1.982-25.49-2.042-52.14-1.691-79.04"  stroke-width="1.764"/><rect transform="scale(-1,1)" x="933.5" y="347.1" width="21.07" height="48.61" rx="2.652" ry="2.652"  stroke-width="1.235"/><g stroke-width="1.235"><path d="m-930.8 316.9-27.19-0.3125" /><path d="m-933.7 290.5-23.72-0.3125" /><path d="m-939 316.9 2e-3 7.875" /><path d="m-949.1 316.7 2e-3 7.875" /></g><rect transform="scale(-1,1)" x="934.7" y="399.3" width="18.57" height="26.8" rx="1.714" ry="1.714"  stroke-width="1.235"/><rect transform="scale(-1,1)" x="940" y="440.6" width="8.606" height="21.48" rx="0" ry="0"  stroke-width="1.235"/><ellipse transform="matrix(-.9999 .01049 .01576 .9999 0 0)" cx="950.3" cy="398" rx="5.696" ry="5.786"  stroke-width="1.235"/><ellipse transform="matrix(-.9999 .0105 .01574 .9999 0 0)" cx="950.1" cy="377.5" rx="3.108" ry="3.161"  stroke-width="1.235"/><ellipse transform="matrix(-.9999 .0105 .01575 .9999 0 0)" cx="1043" cy="509.3" rx="4.139" ry="4.207"  stroke-width="1.235"/><ellipse transform="matrix(-.9601 .2797 .2761 .9611 0 0)" cx="1069" cy="-40.67" rx="2.924" ry="4.206"  stroke-width="1.235"/><g stroke-width="1.235"><path d="m-940.6 278.8 0.9736 6.059-9.634-0.033-0.6622-5.443" /><path d="m-949 360h9.803v10.03h-9.803z" /><path d="m-959.1 379.5-3.379 2.582c-2.103 8.284-1.194 22.29 0.2617 28.37l3.597 2.584" /></g><path d="m-1066 283.8c7.148-0.1964 14.32-5.991 14.36-19.76l-0.07-22.31c-0.01-10.07-8.659-51.51-14.29-51.61"  stroke-width="1.764"/><g stroke-width="1.235"><path d="m-1049 231.6h2.467c3.686 28.46 3.53 41.25 2.386 49.27l-2.073 1.856-8.437-1.856c6.701-7.647 6.721-25.9 5.657-49.27z" /><path d="m-1044 255.9-4.467-4e-5" /><path d="m-1063 125.6c1.837 21.02 0.6898 53.95 5.51 63.07 5.475 10.11 5.283 16.75 0.3889 20.5" /><path d="m-1008 528.8-16.47 0.5015c0-2.562 2.422-19.46-9.914-19.46l-21.43-0.0379" /></g><g stroke-width="1.764"><path d="m-1015 299.2c-9.9 9.183-20.16 18.53-20.31 38.01l-0.1538 74.61c0.029 12.5-2.704 23.24-12.23 24.59l-11.91 0.7688 5.353 92.53" /><path d="m-1025 309 1.765 78.5c0.7978 10.57 8.543 9.429 11.36 1.273l21.5-54.66" /><path d="m-1017 394.8-22.76 83.81c-3.214 9.57-8.111 16.56-16.31 18.48" /></g><g stroke-width="1.235"><path d="m-983.5 341c-3.644 4.727-6.503 8.636-9.816 16.46l-7.811 19c-1.716 4.128-4.421 2.337-6.434 1.725" /><path d="m-1033 509.7c1.555-14.66 4.264-29.07 8.814-43.06" /><path d="m-1001 432.7c-10.86 10.76-20.43 21.41-23.96 31.75l0.9691 2.255c13.02-4e-3 16.5-20.47 22.99-34z" /><path d="m-976.1 380.6 1.434 20.01-0.9164 7.771c-21.84 6.388-34.51 23.36-47.97 39.41 9.731-29.79 23.77-54.35 47.46-67.19z" /><path d="m-975.2 394.5c-13.74 3.749-24.63 12.89-35.44 22.19" /><path d="m-1010 381.2c-5.451-5.043-11.11-9.341-14.28-22.59" /><path d="m-1003 363-11.45-7.936c-1.216-0.9432-2.472-1.822-3.123-3.653l-7.666-29.21" /><path d="m-999.1 357.4-7.382-4.694 0.994-30.06 2.448-2.417" /><path d="m-1056 279.9c-0.6929 52.38-0.6612 104.7-3.54 157.4" /><path d="m-1056 289 12.93 0.0228c8.099-0.0494 7.816-15.64 16.88-22.34" /><path d="m-1057 346.5c2.376 0.047 4.397 0.5844 5.793 1.386 1.393 0.9289 2.699 2.844 2.904 5.504 1.122 18.35 0.4445 37 0.2476 55.56-0.1618 3.063-1.823 5.307-3.584 6.979-2.231 1.547-4.604 1.251-6.949 1.11" /><path d="m-1075 305.2c6.254-6.884 12.55-6.804 18.88 0.1294" /><path d="m-1075 354c5.752 3.358 11.54 3.318 17.36-0.0631" /><path d="m-1074 396.6c5.365-3.018 10.76-2.982 16.19 0.0567" /><path d="m-1073 455.3c4.841 2.197 9.71 2.171 14.61-0.0413" /><path d="m-1073 462.8 2.606-1.662 9.156 0.0758 2.995 1.715" /></g><path d="m-1080 268.5c5.022-32.78 23.05-32.95 28.14 0.0439"  stroke-width="1.764"/><g stroke-width="1.235"><path d="m-1080 238.5c1.005 2.144 3.889 5.017 6.065 5.082l15.87-0.0532c2.233-0.0303 5.491-2.943 6.233-4.988" /><path d="m-1077 222c0.7934 0.8926 1.945 2.089 3.664 2.116l14.9-0.0222c1.763-0.0126 3.086-1.226 3.672-2.077" /><path d="m-1060 318.5h-11.15v11.97h11.15z" /><path d="m-1106 269.2c0.9006 9.706 2.478 16.98 1.162 34.66l-5.992-4.271c1.418-6.422 3.883-11.53 6.206-16.83" /><path d="m-1025 269.2c-0.9007 9.706-2.478 16.98-1.162 34.66 1.997-1.424 3.995-2.848 5.992-4.271-1.418-6.422-3.883-11.53-6.206-16.83" /><path d="m-1061 411.1h-9.272v11.97h9.272z" /></g></g><g  ><rect x="430.8" y="128.2" width="8.144" height="8.073" fill="#979797"   stroke-width="3.587"><desc>{ "type": "gunsight", "cl": "gun", "i": 0 }</desc></rect><g fill="none" stroke="#979797" stroke-width="3.587"><path d="m442.9 86.92c21.52 3.996 37.82 22.87 37.82 45.55 0 5.371-0.9139 10.53-2.595 15.33m-7.842 13.97c-8.496 10.4-21.42 17.03-35.89 17.03-14.38 0-27.24-6.555-35.74-16.84m-7.716-13.37c-1.862-5.019-2.88-10.45-2.88-16.12 0-23.05 16.84-42.18 38.89-45.74" /><g><path d="m434.9 71.19v15.85" /><path d="m395.6 155.1-13.68 8.014" /><path d="m474.2 155.1 13.68 8.014" /></g></g><g fill="#979797" ><circle cx="434.9" cy="151.6" r="3.783"  stroke-width="2.869"><desc>{ "type": "hard_point", "cl": "gun", "i": 3 }</desc></circle><circle cx="566.9" cy="171" r="3.783"  stroke-width="3.587"><desc>{ "type": "gunsight", "cl": "gun", "i": 1 }</desc></circle><circle cx="497.3" cy="150.7" r="3.783"  stroke-width="2.869"><desc>{ "type": "hard_point", "cl": "gun", "i": 1 }</desc></circle></g><g fill="#f39745" ><path d="m146.8 567.3h21.93l-10.96 11.57z"   stroke-width="1.764"><desc>{ "type": "misc", "i": "thrusters" }</desc></path><ellipse transform="matrix(-.9996 .0277 .03956 .9992 0 0)" cx="-144.6" cy="524.7" rx="6.31" ry="6.419"   stroke-width="1.764"><desc>{ "type": "misc", "i": "thrusters" }</desc></ellipse><g stroke-width="1.764"><path d="m168.8 567.3h11.27l-5.633 5.942z"  ><desc>{ "type": "misc", "i": "thrusters" }</desc></path><path d="m246.3 567.3h-21.93l10.96 11.57z"  ><desc>{ "type": "misc", "i": "thrusters" }</desc></path><path d="m224.4 567.3h-11.27l5.633 5.942z"  ><desc>{ "type": "misc", "i": "thrusters" }</desc></path><path d="m618.1 567.3h21.93l-10.96 11.57z"  ><desc>{ "type": "misc", "i": "thrusters" }</desc></path><path d="m640 567.3h11.27l-5.633 5.942z"  ><desc>{ "type": "misc", "i": "thrusters" }</desc></path><path d="m717.5 567.3h-21.93l10.96 11.57z"  ><desc>{ "type": "misc", "i": "thrusters" }</desc></path><path d="m695.6 567.3h-11.27l5.633 5.942z"  ><desc>{ "type": "misc", "i": "thrusters" }</desc></path><path d="m63.54 479.5h21.93l-10.96 11.57z"  ><desc>{ "type": "misc", "i": "thrusters" }</desc></path><path d="m307 479.5h21.93l-10.96 11.57z"  ><desc>{ "type": "misc", "i": "thrusters" }</desc></path><path d="m535 479.5h21.93l-10.96 11.57z"  ><desc>{ "type": "misc", "i": "thrusters" }</desc></path><path d="m778.5 479.5h21.93l-10.96 11.57z"  ><desc>{ "type": "misc", "i": "thrusters" }</desc></path><path d="m634.8 311.2h21.93l-10.96-11.57z"  ><desc>{ "type": "misc", "i": "thrusters" }</desc></path><path d="m678.2 311.2h21.93l-10.96-11.57z"  ><desc>{ "type": "misc", "i": "thrusters" }</desc></path></g></g><g fill="#4df346"  stroke-width="1.661"><rect x="656" y="173.6" width="23.48" height="45.11" rx="3.114" ry="3.051"  ><desc>{ "type": "hard_point", "i": 3 }</desc></rect><rect x="64.97" y="280.6" width="21.35" height="36.23" rx="3.114" ry="3.051"  ><desc>{ "type": "hard_point", "i": 2 }</desc></rect><rect x="305.5" y="280.6" width="21.35" height="36.23" rx="3.114" ry="3.051"  ><desc>{ "type": "hard_point", "i": 1 }</desc></rect></g><g fill="#f39745" ><g stroke-width="1.764"><ellipse transform="matrix(-.9996 .0277 .03956 .9992 0 0)" cx="-206" cy="526.4" rx="6.31" ry="6.419"  ><desc>{ "type": "misc", "i": "thrusters" }</desc></ellipse><ellipse transform="matrix(-.9996 .0277 .03956 .9992 0 0)" cx="-58.78" cy="389.4" rx="6.31" ry="6.419"  ><desc>{ "type": "misc", "i": "thrusters" }</desc></ellipse><ellipse transform="matrix(-.9996 .0277 .03956 .9992 0 0)" cx="-302.3" cy="396.2" rx="6.31" ry="6.419"  ><desc>{ "type": "misc", "i": "thrusters" }</desc></ellipse></g><ellipse transform="matrix(-.9698 -.2438 -.2481 .9687 0 0)" cx="-226.6" cy="211.2" rx="4.937" ry="6.417"   stroke-width="1.764"><desc>{ "type": "misc", "i": "thrusters" }</desc></ellipse><ellipse transform="matrix(.9698 -.2438 .2481 .9687 0 0)" cx="153.1" cy="306.9" rx="4.937" ry="6.417"   stroke-width="1.764"><desc>{ "type": "misc", "i": "thrusters" }</desc></ellipse><g stroke-width="1.764"><ellipse transform="matrix(-.9996 .0277 .03956 .9992 0 0)" cx="-530.3" cy="403.2" rx="6.31" ry="6.419"  ><desc>{ "type": "misc", "i": "thrusters" }</desc></ellipse><ellipse transform="matrix(-.9996 .0277 .03956 .9992 0 0)" cx="-773.5" cy="409.8" rx="6.31" ry="6.419"  ><desc>{ "type": "misc", "i": "thrusters" }</desc></ellipse><ellipse transform="matrix(-.9996 .0277 .03956 .9992 0 0)" cx="-620.9" cy="526.2" rx="6.31" ry="6.419"  ><desc>{ "type": "misc", "i": "thrusters" }</desc></ellipse><ellipse transform="matrix(-.9996 .0277 .03956 .9992 0 0)" cx="-673.6" cy="527.6" rx="6.31" ry="6.419"  ><desc>{ "type": "misc", "i": "thrusters" }</desc></ellipse><ellipse transform="matrix(-.9996 .0277 .03956 .9992 0 0)" cx="-640.7" cy="277.8" rx="6.31" ry="6.419"  ><desc>{ "type": "misc", "i": "thrusters" }</desc></ellipse><ellipse transform="matrix(-.9996 .0277 .03956 .9992 0 0)" cx="-673.4" cy="278.7" rx="6.31" ry="6.419"  ><desc>{ "type": "misc", "i": "thrusters" }</desc></ellipse></g></g><rect x="638.2" y="378.4" width="59.18" height="59.07" rx="4.683" ry="4.683" fill="#f39746"    stroke-width="1.235"><desc>{ "type": "other", "i": "cargo hatch" }</desc></rect><g fill="#f39745" ><g stroke-width="1.235"><path d="m630 462.1-3.734-0.0772c-4.834-0.1586-11.38 6.548-11.19 11.18 0.3958 9.674 1.252 22.83 7.282 34.68 1.745 2.861 3.93 4.182 7.665 4.034z"  ><desc>{ "type": "misc", "i": "landing gear" }</desc></path><path d="m705.5 462.1 3.734-0.0772c4.834-0.1586 11.38 6.548 11.19 11.18-0.3958 9.674-1.252 22.83-7.282 34.68-1.745 2.861-3.93 4.182-7.665 4.034z"  ><desc>{ "type": "misc", "i": "landing gear" }</desc></path><path d="m659 218.7a8.879 35 0.0882 0 0-0.1192 4.904 8.879 35 0.0882 0 0 8.736 35.36 8.879 35 0.0882 0 0 9.02-34.64 8.879 35 0.0882 0 0-0.0957-5.627z"  ><desc>{ "type": "misc", "i": "landing gear" }</desc></path></g><path d="m196 190.1c-5.633 0.1029-14.28 41.54-14.29 51.61l-0.0703 22.31c0.0417 13.77 7.216 19.57 14.36 19.76 7.148-0.1964 14.32-5.99 14.36-19.76l-0.0703-22.31c-0.01-10.07-8.66-51.51-14.29-51.61z"   stroke-width="1.764"><desc>{ "type": "other", "i": "canopy" }</desc></path><g stroke-width="2"><path d="m106.1 380.6c11.8 6.975 21.87 14.62 34.52 36.13-11.71-10.59-23.5-18.65-35.44-22.19z"  ><desc>{ "type": "misc", "i": "heat vents" }</desc></path><path d="m285.9 380.6c-11.8 6.975-21.87 14.62-34.52 36.13 11.71-10.59 23.5-18.65 35.44-22.19z"  ><desc>{ "type": "misc", "i": "heat vents" }</desc></path><path d="m571.6 379.3c3.033 1.506 21.15 2.108 34.45 30.71-7.383-2.267-14.51-21.77-34.19-23.25z"  ><desc>{ "type": "misc", "i": "heat vents" }</desc></path><path d="m764 379.3c-3.033 1.506-21.15 2.108-34.45 30.71 7.383-2.267 14.51-21.77 34.19-23.25z"  ><desc>{ "type": "misc", "i": "heat vents" }</desc></path><path d="m610.3 483.7 7.255 32.09c-0.3288 4.212-1.476 6.105-2.794 7.512-4.261-11.4-3.154-26.29-4.46-39.6z"  ><desc>{ "type": "misc", "i": "heat vents" }</desc></path><path d="m725.3 483.7-7.255 32.09c0.3288 4.212 1.476 6.105 2.794 7.512 4.261-11.4 3.154-26.29 4.46-39.6z"  ><desc>{ "type": "misc", "i": "heat vents" }</desc></path><path d="m132.6 363 12.84-9.013 1.732-2.576 7.666-29.21-0.7819 37.87c-3.7 12.66-8.583 16.02-14.03 21.14z"  ><desc>{ "type": "misc", "i": "heat vents" }</desc></path><path d="m259.4 363-12.84-9.013-1.732-2.576-7.666-29.21 0.7819 37.87c3.7 12.66 8.583 16.02 14.03 21.14z"  ><desc>{ "type": "misc", "i": "heat vents" }</desc></path><path d="m603.9 363.1 12.84-9.013 1.732-2.576 7.666-29.21-1.907 39.12c0.5496 5.907-7.443 12.23-12.64 19.72z"  ><desc>{ "type": "misc", "i": "heat vents" }</desc></path><path d="m731.7 363.1-12.84-9.013-1.732-2.576-7.666-29.21 1.907 39.12c-0.5496 5.907 7.443 12.23 12.64 19.72z"  ><desc>{ "type": "misc", "i": "heat vents" }</desc></path></g></g><circle cx="371.1" cy="150.7" r="3.783" fill="#979797"   stroke-width="2.869"><desc>{ "type": "hard_point", "cl": "gun", "i": 2 }</desc></circle><g fill="#ff3ae1"  stroke-width="1.554"><rect x="188.2" y="316.9" width="15.56" height="14.93" rx="1.971" ry="1.821"  ><desc>{ "type": "utility", "i": 1 }</desc></rect><rect x="188.2" y="409.6" width="15.56" height="14.93" rx="1.971" ry="1.821"  ><desc>{ "type": "utility", "i": 2 }</desc></rect><rect x="66.31" y="357.6" width="15.56" height="14.93" rx="1.971" ry="1.821"  ><desc>{ "type": "utility", "i": 4 }</desc></rect><rect x="310.1" y="357.6" width="15.56" height="14.93" rx="1.971" ry="1.821"  ><desc>{ "type": "utility", "i": 3 }</desc></rect></g><path d="m203.9 529a8.125 7.918 0 0 0-8.125-7.918 8.125 7.918 0 0 0-8.125 7.918 8.125 7.918 0 0 0 1.904 5.082l6.221 9.992 6.199-9.959a8.125 7.918 0 0 0 1.926-5.115z" fill="#46d2f3"    stroke-width="1.764"><desc>{ "type": "internal", "i": "entrance" }</desc></path></g></svg>
