<svg width="870" height="640" clip-rule="evenodd" fill-rule="evenodd" image-rendering="optimizeQuality" shape-rendering="geometricPrecision" text-rendering="geometricPrecision" version="1.1" viewBox="0 0 870 640" xml:space="preserve" xmlns="http://www.w3.org/2000/svg">
<g><path d="m724.6 399.6h19v19h-19z"  ><desc>{ "type": "internal", "i": "7" }</desc></path><path d="m634.8 399.6h19v19h-19z"  ><desc>{ "type": "internal", "i": "6" }</desc></path><path d="m698.2 296.1h-19v19h19z"  ><desc>{ "type": "internal", "i": "12" }</desc></path><path d="m210.6 107.6h-19v19h19z"  ><desc>{ "type": "internal", "i": "10" }</desc></path><path d="m179.8 107.6h-19v19h19z"  ><desc>{ "type": "internal", "i": "11" }</desc></path><path d="m172.2 288.9h-19v19h19z"  ><desc>{ "type": "internal", "i": "9" }</desc></path><path d="m218.4 288.9h-19v19h19z"  ><desc>{ "type": "internal", "i": "8" }</desc></path><path d="m195.1 169.8h-19v19h19z"  ><desc>{ "type": "internal", "i": "5" }</desc></path><path d="m169.8 264.1h-19v19h19z"  ><desc>{ "type": "internal", "i": "4" }</desc></path><path d="m220.6 264.1h-19v19h19z"  ><desc>{ "type": "internal", "i": "3" }</desc></path><path d="m224.6 357.9h-19v19h19z"  ><desc>{ "type": "internal", "i": "2" }</desc></path><path d="m165.8 357.9h-19v19h19z"  ><desc>{ "type": "internal", "i": "1" }</desc></path><path d="m195.1 296.1h-19v19h19z"  ><desc>{ "type": "internal", "i": "distributor" }</desc></path><path d="m195.1 136.1h-19v19h19z"  ><desc>{ "type": "internal", "i": "life support" }</desc></path><path d="m195.1 424.9h-19v19h19z"  ><desc>{ "type": "internal", "i": "FSD" }</desc></path><path d="m195.1 199.8h-19v19h19z"  ><desc>{ "type": "internal", "i": "PP" }</desc></path><path d="m46.83 460.9h-19v19h19z"  ><desc>{ "type": "internal", "i": "drive" }</desc></path><path d="m343.6 460.9h-19v19h19z"  ><desc>{ "type": "internal", "i": "drive" }</desc></path></g><g transform="translate(1566)" fill="none" ><g  ><path d="m-1014 446.5c34.73 3.998 42.03 8.85 61.49 33.94l12.54 23.07 19.16 0.1699c11.59 18.42 23.97 44.32 29.12 58.55 1.413 8.917 2.884 17.92 4.432 26.93l3.645 1.277-0.0762-20.59 7.369 0.0254 7.369-0.0254-0.0762 20.59 3.645-1.277c1.548-9.011 3.02-18.01 4.434-26.93 5.147-14.23 17.53-40.13 29.12-58.55l19.16-0.1699 12.54-23.07c19.46-25.09 26.76-29.95 61.49-33.94m-2.367-63.88-15.38 5.59-6.686-1.553-17.42-17.89-1.893 0.6973-5.373-8.91-0.1973-2.506c-12.41-19.68-31.13-49.54-39.29-72.96 1.768-21.59 3.749-29.84 4.174-57.53-1.369-41.31-22.23-145.5-40.32-180.3-1.519-3.255-3.298-6.289-8.506-8.721l-4.42-0.0293-4.42 0.0293c-5.208 2.432-6.987 5.466-8.506 8.721-18.09 34.85-38.95 139-40.32 180.3 0.4244 27.69 2.406 35.94 4.174 57.53-8.152 23.42-26.87 53.28-39.29 72.96l-0.1973 2.506-5.373 8.91-1.893-0.6973-17.42 17.89-6.686 1.553-15.38-5.59"  stroke-width="1.764"/><path d="m-1017 350.1 4.57 32.51c1.059 17-1.01 42.7-2.367 63.88l-2.188 29.1c-1.075 12.56-15.27 21.26-20.12 0.1425l-3.256-36.92 0.9583-41.57 7.422-48c1.901-13.64 12.79-13.5 14.98 0.8481z"  stroke-width="1.764"/><path d="m-1032 356.7c0.1578 4.513 16.34 3.499 16.41-0.0557"  stroke-width="1.235"/><path d="m-1038 466.5 22.02 0.121"  stroke-width="1.235"/><path d="m-1040 424.5c0.8897-1.869 1.324-4.657 3.093-4.753l20.42-0.113c1.554-0.0904 2.646 3.145 3.128 3.774"  stroke-width="1.235"/><path d="m-1034 484 0.7554 10.93c0.2909 1.542 1.157 2.985 2.393 2.966l6.684-0.1635c0.8707-0.1609 1.402-0.8687 1.392-1.926l0.6065-9.458"  stroke-width="1.764"/><path d="m-1039 445.2c0.8437-1.869 1.255-4.657 2.933-4.753l19.36-0.113c1.473-0.0904 2.509 3.145 2.967 3.774"  stroke-width="1.235"/><path d="m-1036 380c5.13-9.239 17-8.754 22.76-4.132"  stroke-width="1.235"/><g stroke-width="1.764"><path d="m-937.5 503.1 0.763 5.817 14.13-4e-3 0.5387-5.625" /><path d="m-892.2 562.2c2.682 4.683 5.513 7.662 8.001 7.617" /><path d="m-1002 438.7c35.11 6.516 67.39 32.41 96.32 81.4l10.26 0.8842 6.285-10.47 1.45-47.29c0.4065-8.276 5.912-11.96 10.95-12.08" /><path d="m-937.3 477c5.91 7.417 12.35 18.34 15.98 26.67" /></g><g stroke-width="1.235"><path d="m-937.3 477-0.0132 17.31-5.584 4.215" /><path d="m-876.8 335.3c-12.5-0.0144-20 26.83-19.84 55.2l8.3e-4 117.8c-0.0402 4.766-1.791 9.321-6.375 12.17" /><path d="m-876.8 431.2c-12.5 0.0144-19.92-20.55-19.84-35.41" /><path d="m-1037 383.1 6.526 6.727 12.47-0.039 6.027-5.506" /></g><path d="m-1035 395.3h20.06v16.74h-20.06z"  stroke-width="1.235"/><path d="m-1035 442.2h19.81l-1.75 22.7h-17z"  stroke-width="1.235"/><g stroke-width="1.235"><path d="m-990.1 386.7c0.7824 35.51 26.32 53.64 52.77 90.35" /><path d="m-1012 382.6c5.202 17.13 16.6 22 26.26 26.01" /><path d="m-960.8 447.3c-16.4-17.98-38.05-33.23-41.35-10.5l-0.2712 11.32" /></g><g stroke-width="1.764"><path d="m-970.7 369.5c0.5955 43.97 34.8 76.54 53.01 114.5-9.122-40.69-10.79-80.87-47.64-123.4" /><path d="m-925.9 285.1c2.444 34.59-6.925 72.28-3.023 102.9 0 0-6.856-4.067-9.311-7.102-4.559-5.635-8.283-12.48-9.289-19.66-0.7181-5.126 0.359-10.62 2.519-15.32 3.931-8.559 18.16-21.65 18.16-21.65" /><path d="m-928.9 388c12.04 6.953 26.55-17.57 28.25-44.16 1.524-23.86 15.09-31.93 23.85-32.51" /></g><g stroke-width="1.235"><path d="m-934.3 455.1c5.728 1.862 8.563-0.6148 9.63-5.744" /><path d="m-960.9 409.9 11.85-11.54c3.339-3.272 6.247-0.0745 9.276 1.296" /><path d="m-936 383.2 6.103-3.427" /><path d="m-927 272.9c1.801 4.455 3.757 4.562 4.56 2.001l26.87-82.47c2.432-7.837 7.44-14.9 18.73-15.15" /><path d="m-906.3 430-5.467 15.09-5.95 1.555c-1.643 0.4698-3.135-0.8571-3.374-3.513l-3.442-34.61c-0.546-3.67 7.908-19.58 12.42-21.47l15.42 116.4" /><path d="m-918.3 262.6 0.3404 21.37c-0.0645 3.359 1.842 5.111 4.323 4.376l5.843-1.632 3.344-5.514c4.546-20.44 10.81-31.5 17.46-40.5l10.15-2.283" /><path d="m-910.4 238.8 5.953 42.38 6.627 48.3 6.523 21.88" /><path d="m-887 240.7c-3.22-11.22-6.391-22.48-14.49-30.13" /><path d="m-888.4 275.8 1.464-35.17" /><path d="m-902.7 295.1 5.651-10.74 8.599-8.511 11.61-2.177" /><path d="m-884.8 339.1c-0.1183-8.35-2.114-15.33-5.899-21.02-3.522-2.324-7.246-6.126-10.44-12.44" /></g><rect transform="scale(-1,1)" x="865.7" y="62.63" width="22.21" height="43.8" rx="9.435" ry="9.435"   stroke-width="1.235"/><path d="m-876.8 184.3c-2.774 0-5.663 0.7092-7.125 6.684l-2.828 11.55c-1.462 5.974 4.439 11.1 9.953 11.1s11.42-5.129 9.953-11.1l-2.828-11.55c-1.462-5.974-4.351-6.684-7.125-6.684z"   stroke-width="1.235"/><g stroke-width="1.235"><path d="m-886.3 179.7c-7.468-14.55-4.454-32.75-1.328-50.98l-10.23-37.26c0.8494-16.8 6.65-28.97 15.02-38.71 2.091-4.747 2.352-9.495 1.62-14.24" /><path d="m-918.3 262.6c5.325-20.2 11.71-40.4 12.61-60.59-2.163-45.87 2.734-72.24 7.791-110.5" /><path d="m-906.2 170.2 15.27-13.53" /><path d="m-887.6 128.7c3.678 1.336 6.823 1.565 10.84 1.44" /><path d="m-925.4 275.4c0.1782-60.3 8.175-109.7 18.13-177.5" /></g><g stroke-width="1.764"><path d="m-895.6 529.9 8.892-14.36 1.257-51.6" /><path d="m-876.8 529.9-18.81 3e-3 0.1226-8.903" /><path d="m-876.8 548.5-8.999 0.0421-2.57-3.626-7.242-15.07" /><path d="m-876.8 556-5.845-0.1132-1.723-7.208" /><path d="m-876.8 561.8-6.642 0.0698-22.3-41.83" /></g></g><circle cx="-876.7" cy="464.1" r="4.994" stroke-width="1.764"/><g  ><circle cx="-876.7" cy="464.1" r="8.706"  stroke-width="1.764"/><path d="m-896.8 471.2 5.978-0.0701 2.431 1.252"  stroke-width="1.235"/><path d="m-896.8 455.7 5.978-0.0701 3.668 2.047"  stroke-width="1.235"/><path d="m-736.9 350.1-4.57 32.51c-1.059 17 1.01 42.7 2.367 63.88l2.188 29.1c1.075 12.56 15.27 21.26 20.12 0.1425l3.256-36.92-0.9583-41.57-7.422-48c-1.901-13.64-12.79-13.5-14.98 0.8481z"  stroke-width="1.764"/><path d="m-721.2 356.7c-0.1578 4.513-16.34 3.499-16.41-0.0557"  stroke-width="1.235"/><path d="m-715.9 466.5-22.02 0.121"  stroke-width="1.235"/><path d="m-714 424.5c-0.8897-1.869-1.324-4.657-3.093-4.753l-20.42-0.113c-1.554-0.0904-2.646 3.145-3.128 3.774"  stroke-width="1.235"/><path d="m-720 484-0.7554 10.93c-0.2909 1.542-1.157 2.985-2.393 2.966l-6.684-0.1635c-0.8707-0.1609-1.402-0.8687-1.392-1.926l-0.6065-9.458"  stroke-width="1.764"/><path d="m-714.2 445.2c-0.8437-1.869-1.255-4.657-2.933-4.753l-19.36-0.113c-1.473-0.0904-2.509 3.145-2.967 3.774"  stroke-width="1.235"/><path d="m-717.6 380c-5.13-9.239-17-8.754-22.76-4.132"  stroke-width="1.235"/><g stroke-width="1.764"><path d="m-816.1 503.1-0.763 5.817-14.13-4e-3 -0.5387-5.625" /><path d="m-861.4 562.2c-2.682 4.683-5.513 7.662-8.001 7.617" /><path d="m-751.5 438.7c-35.11 6.516-67.39 32.41-96.32 81.4l-10.26 0.8842-6.285-10.47-1.45-47.29c-0.4065-8.276-5.912-11.96-10.95-12.08" /><path d="m-816.3 477c-5.91 7.417-12.35 18.34-15.98 26.67" /></g><g stroke-width="1.235"><path d="m-816.3 477 0.0132 17.31 5.584 4.215" /><path d="m-876.8 335.3c12.5-0.0144 20 26.83 19.84 55.2l-9e-4 117.8c0.04 4.766 1.791 9.321 6.375 12.17" /><path d="m-876.8 431.2c12.5 0.0144 19.92-20.55 19.84-35.41" /><path d="m-716.7 383.1-6.526 6.727-12.47-0.039-6.027-5.506" /></g><path d="m-718.2 395.3h-20.06v16.74h20.06z"  stroke-width="1.235"/><path d="m-718.8 442.2h-19.81l1.75 22.7h17z"  stroke-width="1.235"/><g stroke-width="1.235"><path d="m-763.6 386.7c-0.7824 35.51-26.32 53.64-52.77 90.35" /><path d="m-741.5 382.6c-5.202 17.13-16.6 22-26.26 26.01" /><path d="m-792.8 447.3c16.4-17.98 38.05-33.23 41.35-10.5l0.2712 11.32" /></g><g stroke-width="1.764"><path d="m-782.9 369.5c-0.5955 43.97-34.8 76.54-53.01 114.5 9.122-40.69 10.79-80.87 47.64-123.4" /><path d="m-827.7 285.1c-2.444 34.59 6.925 72.28 3.023 102.9 0 0 6.856-4.067 9.311-7.102 4.559-5.635 8.283-12.48 9.289-19.66 0.7181-5.126-0.359-10.62-2.519-15.32-3.931-8.559-18.16-21.65-18.16-21.65" /><path d="m-824.7 388c-12.04 6.953-26.55-17.57-28.25-44.16-1.524-23.86-15.09-31.93-23.85-32.51" /></g><g stroke-width="1.235"><path d="m-819.3 455.1c-5.728 1.862-8.563-0.6148-9.63-5.744" /><path d="m-792.7 409.9-11.85-11.54c-3.339-3.272-6.247-0.0745-9.276 1.296" /><path d="m-817.6 383.2-6.103-3.427" /><path d="m-826.6 272.9c-1.801 4.455-3.757 4.562-4.56 2.001l-26.87-82.47c-2.432-7.837-7.44-14.9-18.73-15.15" /><path d="m-847.3 430 5.467 15.09 5.95 1.555c1.643 0.4698 3.135-0.8571 3.374-3.513l3.442-34.61c0.546-3.67-7.908-19.58-12.42-21.47l-15.42 116.4" /><path d="m-835.4 262.6-0.3404 21.37c0.0645 3.359-1.842 5.111-4.323 4.376l-5.843-1.632-3.344-5.514c-4.546-20.44-10.81-31.5-17.46-40.5l-10.15-2.283" /><path d="m-843.2 238.8-5.953 42.38-6.627 48.3-6.523 21.88" /><path d="m-866.7 240.7c3.22-11.22 6.391-22.48 14.49-30.13" /><path d="m-865.2 275.8-1.464-35.17" /><path d="m-850.9 295.1-5.651-10.74-8.599-8.511-11.61-2.177" /><path d="m-868.8 339.1c0.1183-8.35 2.114-15.33 5.899-21.02 3.522-2.324 7.246-6.126 10.44-12.44" /><path d="m-867.3 179.7c7.468-14.55 4.454-32.75 1.328-50.98l10.23-37.26c-0.8493-16.8-6.65-28.97-15.02-38.71-2.091-4.747-2.352-9.495-1.62-14.24" /><path d="m-835.4 262.6c-5.325-20.2-11.71-40.4-12.61-60.59 2.164-45.87-2.734-72.24-7.791-110.5" /><path d="m-847.4 170.2-15.27-13.53" /><path d="m-866 128.7c-3.678 1.336-6.823 1.565-10.84 1.44" /><path d="m-828.3 275.4c-0.1782-60.3-8.175-109.7-18.13-177.5" /></g><g stroke-width="1.764"><path d="m-858 529.9-8.892-14.36-1.257-51.6" /><path d="m-876.8 529.9 18.81 3e-3 -0.1227-8.903" /><path d="m-876.8 548.5 8.999 0.0421 2.57-3.626 7.242-15.07" /><path d="m-876.8 556 5.845-0.1132 1.723-7.208" /><path d="m-876.8 561.8 6.642 0.0698 22.3-41.83" /></g><g stroke-width="1.235"><path d="m-856.9 471.2-5.978-0.0701-2.431 1.252" /><path d="m-856.8 455.7-5.978-0.0701-3.668 2.047" /><path d="m-901 114.5c2.85 0.0206 6.121-0.4207 6.955 1.211l6.433 13.02" /></g><g stroke-width="1.235"><ellipse transform="matrix(.9999 .01053 -.0157 .9999 0 0)" cx="-899.5" cy="494.7" rx="1.67" ry="1.702" /><ellipse transform="matrix(.9999 .01053 -.0157 .9999 0 0)" cx="-838.6" cy="494" rx="1.67" ry="1.702" /><ellipse transform="matrix(.9999 .01053 -.0157 .9999 0 0)" cx="-957.3" cy="436.7" rx="1.67" ry="1.702" /><ellipse transform="matrix(.9999 .01053 -.0157 .9999 0 0)" cx="-1019" cy="441.7" rx="1.67" ry="1.702" /><ellipse transform="matrix(-.9999 .01053 .0157 .9999 0 0)" cx="795.2" cy="418.2" rx="1.67" ry="1.702" /><ellipse transform="matrix(-.9999 .01053 .0157 .9999 0 0)" cx="733" cy="423.2" rx="1.67" ry="1.702" /><ellipse transform="matrix(.9999 .01053 -.0157 .9999 0 0)" cx="-885.2" cy="58.84" rx="1.67" ry="1.702" /><ellipse transform="matrix(.9999 .01053 -.0157 .9999 0 0)" cx="-866.8" cy="58.65" rx="1.67" ry="1.702" /></g><ellipse transform="matrix(.9777 .2101 -.2083 .9781 0 0)" cx="-862.8" cy="281.8" rx="1.272" ry="1.702"  stroke-width="1.235"/><ellipse transform="matrix(-.9777 .2101 .2083 .9781 0 0)" cx="852.3" cy="-86.57" rx="1.272" ry="1.702"  stroke-width="1.235"/><path d="m-947.4 421.2h3.982v3.753h-3.982z"  stroke-width="1.235"/><path d="m-809.5 421.2h3.982v3.753h-3.982z"  stroke-width="1.235"/><path d="m-852.6 114.5c-2.85 0.0206-6.121-0.4207-6.955 1.211l-6.433 13.02"  stroke-width="1.235"/><path d="m-1028 452.2h3.982v3.753h-3.982z"  stroke-width="1.235"/><path d="m-729.1 452.2h3.982v3.753h-3.982z"  stroke-width="1.235"/></g></g><g transform="translate(1566)"  fill="none"  ><path d="m-1380 38.48-4.42 0.0293c-5.208 2.432-6.986 5.466-8.506 8.721-18.09 34.85-38.95 139-40.32 180.3 0.4244 27.69 2.646 36.91 4.414 58.5 12.12 104.5 19.85 208.5 37.89 313.6l3.644 1.277-0.076-20.59 7.369 0.0254 7.369-0.0254-0.076 20.59 3.644-1.277c18.05-105.1 25.77-209.1 37.89-313.6 1.768-21.59 3.99-30.81 4.414-58.5-1.368-41.31-22.23-145.5-40.32-180.3-1.519-3.255-3.3-6.289-8.508-8.721z"  stroke-width="1.764"/><g stroke-width="1.764"><path d="m-1516 382.6 15.38 5.59 6.685-1.552 17.42-17.89 1.892 0.6967 5.373-8.909 0.1974-2.506c12.41-19.68 31.14-49.54 39.29-72.96" /><path d="m-1474 369.5c8.447 27.28 6.725 51.44 53.91 92.55 1.961 1.735 4.075 0.8204 4.563-0.4354l4.232-11.61" /><path d="m-1518 446.5c34.73 3.998 42.03 8.849 61.49 33.94l12.54 23.07 13.33 0.1714c14.21 21.05 24.93 44.81 34.94 69.13" /><path d="m-1401 536.1c5.881-0.2664 8.616-6.698 9.109-13.37 3.053-56.73 4.859-117 9.692-154.6l1.797-6e-3" /><path d="m-1520 350.1 4.57 32.51c1.059 17-1.01 42.7-2.367 63.88l-2.188 29.1c-1.075 12.56-15.27 21.26-20.12 0.1425l-3.256-36.92 0.9583-41.57 7.422-48c1.901-13.64 12.79-13.5 14.98 0.8481z" /></g><path d="m-1535 348.3c0.1396 4.513 14.45 3.499 14.51-0.0557"  stroke-width="1.235"/><path d="m-1541 460.8 22.02 0.121"  stroke-width="1.235"/><path d="m-1543 435.3c0.8691 1.869 1.293 4.657 3.022 4.753l19.94 0.113c1.518 0.0904 2.584-3.145 3.056-3.774"  stroke-width="1.235"/><g stroke-width="1.764"><path d="m-1469 360.6 11.33 7.57 19.72-48.47c1.701-4.7 7.559-1.137 8.438 7.94l2.427 44.51c0.3419 8.642-10.93 9.98-14.11 3.293l-10.09-22.42" /><path d="m-1445 437.1-7.09-24.98c-4.349-17.32 6.194-21.96 12.68-12.87l15.18 19.01c9.368 12.99 12.73 35.97 0.9562 41.89" /><path d="m-1537 484 0.7554 10.93c0.2909 1.542 1.157 2.985 2.393 2.966l6.684-0.1635c0.8707-0.1609 1.402-0.8687 1.392-1.926l0.6065-9.458" /></g><rect x="-1535" y="442.3" width="8.858" height="16.44" rx="2.938" ry="2.938"   stroke-width="1.235"/><rect x="-1395" y="231.2" width="12.84" height="26.74" rx="4.705" ry="4.705"   stroke-width="1.235"/><g stroke-width="1.764"><path d="m-1499 422.9c17.72 6.745 49.54 28.98 71.08 52.15 14.09 15.16 21.78 28.87 25.2 45.37" /><path d="m-1510 444.8c42.86 7.646 46.04 19.09 79.08 58.87" /><path d="m-1474 447.1c19.91 12.58 39.1 26.46 55.38 45.66 8.506 12.09 1.852 14.03-5.648 4.535-20.5-27.07-36.85-34.03-49.73-50.19" /><path d="m-1516 407.7 7.038 0.0189 16.97 9.342c-10.99 7.763-17.06 17.91-17.72 30.67" /></g><g stroke-width="1.235"><path d="m-1492 417 14.37 9.462 20.62 22.3" /><path d="m-1494 386.7c10.99 10.29 15.85 25.52 16.15 39.83" /><path d="m-1388 580.4-0.6872-43.11 4.732-91.7 3.325 0.0148" /><path d="m-1385 468.5 2.01 7.494 2.434 0.1266" /><path d="m-1386 495.5 2.68 9.845 3.246-0.0105" /><path d="m-1388 535 3.675 13.34 4.451-0.0142" /><path d="m-1388 557.1 7.736-0.0105" /><path d="m-1388 560.4 7.736-0.0105" /><path d="m-1388 574.2 7.736-0.0105" /><path d="m-1388 577.8 7.736-0.0105" /><path d="m-1465 402.4c-0.8197-36.84 10.34-28.78 19.45-19.21 3.326 3.494 19.38 21.8 32.44 49.4" /></g><path d="m-1442 503.1 0.763 5.817 14.29-4e-3"  stroke-width="1.764"/><path d="m-1426 169.1c5.616 6.85 8.995 4.913 9.381 7.802 1.303 6.323 0.8801 14.57-1.05 24.25l-0.5747 70.77c1.678 17.91 18.48 32.52 21.7 39.08 1.398 14.45 6.035 40.92 15.78 40.55"  stroke-width="1.235"/><g stroke-width="1.235"><path d="m-1430 194.1c3.981 7.259 8.313 7.843 12.87 7.038" /><path d="m-1431 197.8c2.614 3.763 6.208 8.588 13.27 6.662" /><path d="m-1417 204.5-6.993 6.961c-0.6152 9.907-2.334 24.54-8.74 31.58" /><path d="m-1431 205c3.274 0.0427 6.017 3.843 7.073 6.463" /><path d="m-1396 311c5.296 11.04 10.83 14.59 15.78 14.75" /><path d="m-1417 201.1c0.7722 2.439 2.125 4.005 2.059 7.641l-0.05 55.33c2.744 15.1 4.793 20.24 20.94 40.12 4.543 9.094 9.657 16.43 13.96 16.57" /><path d="m-1394 304.2c3.546-35.79 8.131-43.5 13.96-43.53" /><path d="m-1399 307c-0.2725 24.92-5.432 78.81-18.78 85.55" /><path d="m-1401 303.4c-0.2725 24.92-4.936 78.2-16.66 85.07" /><path d="m-1380 162.5c-6.832 0.134-16.95 11.43-17.07 23.97l0.3171 81.03c0.161 4.255 4.076 6.029 7.416 6.086" /><path d="m-1417 204.5c-4.785 46.28-5.503 65.26-13.1 65.92" /><path d="m-1380 62.74c-7.134 0.07469-14.02 10.74-17.24 24.15 7.681-12.08 11.3-13.71 17.24-13.7" /></g><path d="m-1405 107.6c-6.218 28.14-9.87 41.13 0.9428 44.43 2.373-0.9195 4.829-0.9537 7.463 0.0872"  stroke-width="1.764"/><g stroke-width="1.235"><path d="m-1404 152.1c-0.403-5.009 6.757-7.848 7.463 0.0872" /><path d="m-1404 150.8c-2.138 25.39 4.256 44.78 7.463-0.4405" /><path d="m-1400 147c0.9407-5.04 6.954-14.82 19.91-14.79" /></g><g stroke-width="1.764"><path d="m-1245 382.6-15.38 5.59-6.685-1.552-17.42-17.89-1.892 0.6967-5.373-8.909-0.1974-2.506c-12.41-19.68-31.14-49.54-39.29-72.96" /><path d="m-1286 369.5c-8.447 27.28-6.725 51.44-53.91 92.55-1.961 1.735-4.075 0.8204-4.563-0.4354l-4.232-11.61" /><path d="m-1243 446.5c-34.73 3.998-42.03 8.849-61.49 33.94l-12.54 23.07-13.33 0.1714c-14.21 21.05-24.93 44.81-34.94 69.13" /><path d="m-1360 536.1c-5.881-0.2664-8.616-6.698-9.109-13.37-3.053-56.73-4.859-117-9.692-154.6l-1.797-6e-3" /><path d="m-1240 350.1-4.57 32.51c-1.059 17 1.01 42.7 2.367 63.88l2.188 29.1c1.075 12.56 15.27 21.26 20.12 0.1425l3.256-36.92-0.9583-41.57-7.422-48c-1.901-13.64-12.79-13.5-14.98 0.8481z" /></g><path d="m-1226 348.3c-0.1396 4.513-14.45 3.499-14.51-0.0557"  stroke-width="1.235"/><path d="m-1219 460.8-22.02 0.121"  stroke-width="1.235"/><path d="m-1217 435.3c-0.8691 1.869-1.293 4.657-3.022 4.753l-19.94 0.113c-1.518 0.0904-2.584-3.145-3.056-3.774"  stroke-width="1.235"/><g stroke-width="1.764"><path d="m-1292 360.6-11.33 7.57-19.72-48.47c-1.701-4.7-7.559-1.137-8.438 7.94l-2.427 44.51c-0.3419 8.642 10.93 9.98 14.11 3.293l10.09-22.42" /><path d="m-1316 437.1 7.09-24.98c4.349-17.32-6.194-21.96-12.68-12.87l-15.18 19.01c-9.368 12.99-12.73 35.97-0.9562 41.89" /><path d="m-1223 484-0.7554 10.93c-0.2909 1.542-1.157 2.985-2.393 2.966l-6.684-0.1635c-0.8707-0.1609-1.402-0.8687-1.392-1.926l-0.6065-9.458" /></g><rect transform="scale(-1,1)" x="1225" y="442.3" width="8.858" height="16.44" rx="2.938" ry="2.938"   stroke-width="1.235"/><rect transform="scale(-1,1)" x="1365" y="231.2" width="12.84" height="26.74" rx="4.705" ry="4.705"   stroke-width="1.235"/><g stroke-width="1.764"><path d="m-1261 422.9c-17.72 6.745-49.54 28.98-71.08 52.15-14.09 15.16-21.78 28.87-25.2 45.37" /><path d="m-1251 444.8c-42.86 7.646-46.04 19.09-79.08 58.87" /><path d="m-1287 447.1c-19.91 12.58-39.1 26.46-55.38 45.66-8.506 12.09-1.852 14.03 5.648 4.535 20.5-27.07 36.85-34.03 49.73-50.19" /><path d="m-1245 407.7-7.038 0.0189-16.97 9.342c10.99 7.763 17.06 17.91 17.72 30.67" /></g><g stroke-width="1.235"><path d="m-1269 417-14.37 9.462-20.62 22.3" /><path d="m-1267 386.7c-10.99 10.29-15.85 25.52-16.15 39.83" /><path d="m-1373 580.4 0.6872-43.11-4.732-91.7-3.325 0.0148" /><path d="m-1376 468.5-2.01 7.494-2.434 0.1266" /><path d="m-1374 495.5-2.68 9.845-3.246-0.0105" /><path d="m-1372 535-3.675 13.34-4.451-0.0142" /><path d="m-1373 557.1-7.736-0.0105" /><path d="m-1373 560.4-7.736-0.0105" /><path d="m-1373 574.2-7.736-0.0105" /><path d="m-1373 577.8-7.736-0.0105" /><path d="m-1295 402.4c0.8197-36.84-10.34-28.78-19.45-19.21-3.326 3.494-19.38 21.8-32.44 49.4" /></g><path d="m-1318 503.1-0.763 5.817-14.29-4e-3"  stroke-width="1.764"/><path d="m-1335 169.1c-5.616 6.85-8.995 4.913-9.381 7.802-1.303 6.323-0.88 14.57 1.05 24.25l0.5746 70.77c-1.678 17.91-18.48 32.52-21.7 39.08-1.398 14.45-6.035 40.92-15.78 40.55"  stroke-width="1.235"/><g stroke-width="1.235"><path d="m-1330 194.1c-3.981 7.259-8.313 7.843-12.87 7.038" /><path d="m-1330 197.8c-2.614 3.763-6.208 8.588-13.27 6.662" /><path d="m-1343 204.5 6.993 6.961c0.6152 9.907 2.334 24.54 8.74 31.58" /><path d="m-1329 205c-3.274 0.0427-6.017 3.843-7.073 6.463" /><path d="m-1364 311c-5.296 11.04-10.83 14.59-15.78 14.75" /><path d="m-1343 201.1c-0.7723 2.439-2.125 4.005-2.059 7.641l0.049 55.33c-2.744 15.1-4.793 20.24-20.94 40.12-4.543 9.094-9.657 16.43-13.96 16.57" /><path d="m-1366 304.2c-3.546-35.79-8.131-43.5-13.96-43.53" /><path d="m-1362 307c0.2724 24.92 5.432 78.81 18.78 85.55" /><path d="m-1359 303.4c0.2725 24.92 4.936 78.2 16.66 85.07" /><path d="m-1380 162.5c6.832 0.134 16.95 11.43 17.07 23.97l-0.3172 81.03c-0.161 4.255-4.076 6.029-7.416 6.086" /><path d="m-1343 204.5c4.785 46.28 5.503 65.26 13.1 65.92" /><path d="m-1380 62.74c7.134 0.07469 14.02 10.74 17.24 24.15-7.681-12.08-11.3-13.71-17.24-13.7" /></g><path d="m-1355 107.6c6.218 28.14 9.87 41.13-0.9428 44.43-2.373-0.9195-4.829-0.9537-7.463 0.0872"  stroke-width="1.764"/><g stroke-width="1.235"><path d="m-1356 152.1c0.4031-5.009-6.757-7.848-7.463 0.0872" /><path d="m-1356 150.8c2.138 25.39-4.256 44.78-7.463-0.4405" /><path d="m-1360 147c-0.9407-5.04-6.954-14.82-19.91-14.79" /></g><path d="m-1431 441.6h3.982v3.753h-3.982z"  stroke-width="1.235"/><path d="m-1333 441.6h3.982v3.753h-3.982z"  stroke-width="1.235"/><g stroke-width="1.235"><ellipse transform="matrix(.9999 .01053 -.0157 .9999 0 0)" cx="-1393" cy="509.1" rx="1.67" ry="1.702" /><ellipse transform="matrix(.9999 .01053 -.0157 .9999 0 0)" cx="-1352" cy="508.6" rx="1.67" ry="1.702" /><ellipse transform="matrix(.9999 .01053 -.0157 .9999 0 0)" cx="-1463" cy="426.1" rx="1.67" ry="1.702" /><ellipse transform="matrix(.9999 .01053 -.0157 .9999 0 0)" cx="-1284" cy="424.2" rx="1.67" ry="1.702" /><ellipse transform="matrix(.9999 .01053 -.0157 .9999 0 0)" cx="-1523" cy="426.7" rx="1.67" ry="1.702" /><ellipse transform="matrix(.9999 .01053 -.0157 .9999 0 0)" cx="-1224" cy="423.6" rx="1.67" ry="1.702" /></g><g stroke-width="1.258"><ellipse transform="matrix(.97 -.243 -.02361 .9997 0 0)" cx="-1438" cy="-302.7" rx="1.721" ry="1.132" /><ellipse transform="matrix(.97 -.243 -.02361 .9997 0 0)" cx="-1441" cy="-298.1" rx="1.721" ry="1.132" /><ellipse transform="matrix(-.97 -.243 .02361 .9997 0 0)" cx="1425" cy="393.3" rx="1.721" ry="1.132" /><ellipse transform="matrix(-.97 -.243 .02361 .9997 0 0)" cx="1422" cy="397.9" rx="1.721" ry="1.132" /></g><path d="m-1413 313.7h3.982v3.753h-3.982z"  stroke-width="1.235"/><path d="m-1353 313.7h3.982v3.753h-3.982z"  stroke-width="1.235"/></g><g  ><rect x="147.8" y="308.3" width="13.92" height="14.5" rx="1.971" ry="1.821" fill="#ff3ae1"    stroke-width="1.554"><desc>{ "type": "utility", "i": 8 }</desc></rect><rect x="430.8" y="128.2" width="8.144" height="8.073" fill="#979797"   stroke-width="3.587"><desc>{ "type": "gunsight", "cl": "gun", "i": 0 }</desc></rect><g fill="none" stroke="#979797" stroke-width="3.587"><path d="m442.9 86.92c21.52 3.996 37.82 22.87 37.82 45.55 0 5.371-0.9139 10.53-2.595 15.33m-7.842 13.97c-8.496 10.4-21.42 17.03-35.89 17.03-14.38 0-27.24-6.555-35.74-16.84m-7.716-13.37c-1.862-5.019-2.88-10.45-2.88-16.12 0-23.05 16.84-42.18 38.89-45.74" /><g><path d="m434.9 71.19v15.85" /><path d="m395.6 155.1-13.68 8.014" /><path d="m474.2 155.1 13.68 8.014" /></g></g><g fill="#979797" ><circle cx="425.9" cy="230.4" r="3.783"  stroke-width="3.587"><desc>{ "type": "hard_point", "cl": "gun", "i": 1 }</desc></circle><circle cx="398.2" cy="60.34" r="3.783"  stroke-width="2.869"><desc>{ "type": "hard_point", "cl": "gun", "i": 2 }</desc></circle><circle cx="213.8" cy="-315.1" r="3.783"  stroke-width="3.587"><desc>{ "type": "gunsight", "cl": "gun", "i": 2 }</desc></circle></g><path d="m689.2 335.3c-6.711 0.5381-11.16 6.851-14.46 16.09-3.873 12.84-5.747 27.57-5.377 44.42 1.299 25.97 11.52 35.49 19.84 35.4 8.314 0.0872 18.54-9.433 19.84-35.4 0.3697-16.85-1.504-31.58-5.377-44.42-3.302-9.237-7.75-15.55-14.46-16.09z" fill="#f39745"    stroke-width="1.235"><desc>{ "type": "other", "i": "fighter bay" }</desc></path><g fill="#4df346"  stroke-width="1.661"><rect x="170.6" y="231.2" width="12.84" height="26.74" rx="4.551" ry="4.551"  ><desc>{ "type": "hard_point", "i": 2 }</desc></rect><rect x="188" y="231.2" width="12.84" height="26.74" rx="4.551" ry="4.551"  ><desc>{ "type": "hard_point", "i": 3 }</desc></rect><rect x="678.1" y="62.63" width="22.21" height="43.8" rx="9.176" ry="9.176"  ><desc>{ "type": "hard_point", "i": 1 }</desc></rect><path d="m665 114.5c7.704 0.0203 5.182-2.917 13.39 14.23-2.156 11.71-3.266 21.09-3.255 27.97l-15.27 13.53c0.6711-15.97 1.681-32.79 5.142-55.74z"  ><desc>{ "type": "hard_point", "i": 5 }</desc></path><path d="m713.4 114.5c-7.704 0.0203-5.182-2.917-13.39 14.23 2.156 11.71 3.266 21.09 3.255 27.97l15.27 13.53c-0.6711-15.97-1.681-32.79-5.142-55.74z"  ><desc>{ "type": "hard_point", "i": 4 }</desc></path></g><g fill="#ff3ae1"  stroke-width="1.554"><rect x="208.5" y="308.3" width="13.92" height="14.5" rx="1.971" ry="1.821"  ><desc>{ "type": "utility", "i": 7 }</desc></rect><rect x="129.6" y="436.4" width="13.92" height="14.5" rx="1.971" ry="1.821"  ><desc>{ "type": "utility", "i": 2 }</desc></rect><rect x="228.1" y="436.4" width="13.92" height="14.5" rx="1.971" ry="1.821"  ><desc>{ "type": "utility", "i": 1 }</desc></rect><rect x="613.7" y="416" width="13.92" height="14.5" rx="1.971" ry="1.821"  ><desc>{ "type": "utility", "i": 3 }</desc></rect><rect x="751.2" y="416" width="13.92" height="14.5" rx="1.971" ry="1.821"  ><desc>{ "type": "utility", "i": 4 }</desc></rect><rect x="532.8" y="446.7" width="13.92" height="14.5" rx="1.971" ry="1.821"  ><desc>{ "type": "utility", "i": 5 }</desc></rect><rect x="831.7" y="446.7" width="13.92" height="14.5" rx="1.971" ry="1.821"  ><desc>{ "type": "utility", "i": 6 }</desc></rect></g><g fill="#f39745" ><g stroke-width="1.764"><ellipse cx="36.66" cy="410.5" rx="5.141" ry="5.276"  ><desc>{ "type": "misc", "i": "thrusters" }</desc></ellipse><ellipse cx="96.31" cy="410.8" rx="5.141" ry="5.276"  ><desc>{ "type": "misc", "i": "thrusters" }</desc></ellipse><ellipse cx="165.6" cy="494.2" rx="5.141" ry="5.276"  ><desc>{ "type": "misc", "i": "thrusters" }</desc></ellipse><ellipse cx="206" cy="494.2" rx="5.141" ry="5.276"  ><desc>{ "type": "misc", "i": "thrusters" }</desc></ellipse><ellipse cx="275.4" cy="410.7" rx="5.141" ry="5.276"  ><desc>{ "type": "misc", "i": "thrusters" }</desc></ellipse><ellipse cx="335.3" cy="410.8" rx="5.141" ry="5.276"  ><desc>{ "type": "misc", "i": "thrusters" }</desc></ellipse><ellipse cx="539.6" cy="430.8" rx="5.141" ry="5.276"  ><desc>{ "type": "misc", "i": "thrusters" }</desc></ellipse><ellipse cx="601.9" cy="426.6" rx="5.141" ry="5.276"  ><desc>{ "type": "misc", "i": "thrusters" }</desc></ellipse><ellipse cx="658.6" cy="485.1" rx="5.141" ry="5.276"  ><desc>{ "type": "misc", "i": "thrusters" }</desc></ellipse><ellipse cx="719.7" cy="485.1" rx="5.141" ry="5.276"  ><desc>{ "type": "misc", "i": "thrusters" }</desc></ellipse><ellipse cx="777.3" cy="426.5" rx="5.141" ry="5.276"  ><desc>{ "type": "misc", "i": "thrusters" }</desc></ellipse><ellipse cx="839.5" cy="431.1" rx="5.141" ry="5.276"  ><desc>{ "type": "misc", "i": "thrusters" }</desc></ellipse><ellipse transform="rotate(10.55)" cx="669.8" cy="-28.57" rx="4.28" ry="5.276"  ><desc>{ "type": "misc", "i": "thrusters" }</desc></ellipse><ellipse transform="matrix(-.9831 .1831 .1831 .9831 0 0)" cx="-685.1" cy="223.8" rx="4.28" ry="5.276"  ><desc>{ "type": "misc", "i": "thrusters" }</desc></ellipse><ellipse cx="679.9" cy="49.62" rx="5.141" ry="5.276"  ><desc>{ "type": "misc", "i": "thrusters" }</desc></ellipse><ellipse cx="698.5" cy="49.69" rx="5.141" ry="5.276"  ><desc>{ "type": "misc", "i": "thrusters" }</desc></ellipse></g><g stroke-width="1.764"><ellipse transform="rotate(-15.95)" cx="158.9" cy="94.07" rx="5.141" ry="3.37"  ><desc>{ "type": "misc", "i": "thrusters" }</desc></ellipse><ellipse transform="matrix(-.9615 -.2749 -.2749 .9615 0 0)" cx="-198.1" cy="-7.998" rx="5.141" ry="3.37"  ><desc>{ "type": "misc", "i": "thrusters" }</desc></ellipse><ellipse transform="rotate(-15.95)" cx="154.3" cy="98.46" rx="5.141" ry="3.37"  ><desc>{ "type": "misc", "i": "thrusters" }</desc></ellipse><ellipse transform="matrix(-.9615 -.2749 -.2749 .9615 0 0)" cx="-202.7" cy="-3.606" rx="5.141" ry="3.37"  ><desc>{ "type": "misc", "i": "thrusters" }</desc></ellipse></g><g stroke-width="1.764"><path d="m119.7 527.1h28.57l-14.28 15.07z"  ><desc>{ "type": "misc", "i": "thrusters" }</desc></path><path d="m171.5 605.5h28.57l-14.28 15.07z"  ><desc>{ "type": "misc", "i": "thrusters" }</desc></path><path d="m21.22 505.5h28.57l-14.28 15.07z"  ><desc>{ "type": "misc", "i": "thrusters" }</desc></path><path d="m251.7 527.1h-28.57l14.28 15.07z"  ><desc>{ "type": "misc", "i": "thrusters" }</desc></path><path d="m350.2 505.5h-28.57l14.28 15.07z"  ><desc>{ "type": "misc", "i": "thrusters" }</desc></path><path d="m622.8 527.1h28.57l-14.28 15.07z"  ><desc>{ "type": "misc", "i": "thrusters" }</desc></path><path d="m674.6 605.5h28.57l-14.28 15.07z"  ><desc>{ "type": "misc", "i": "thrusters" }</desc></path><path d="m524.3 505.5h28.57l-14.28 15.07z"  ><desc>{ "type": "misc", "i": "thrusters" }</desc></path><path d="m754.8 527.1h-28.57l14.28 15.07z"  ><desc>{ "type": "misc", "i": "thrusters" }</desc></path><path d="m853.3 505.5h-28.57l14.28 15.07z"  ><desc>{ "type": "misc", "i": "thrusters" }</desc></path><path d="m636.3 363.7-15.59 7.193 4.001-11.82z"  ><desc>{ "type": "misc", "i": "thrusters" }</desc></path><path d="m741.9 363.7 15.59 7.193-4.001-11.82z"  ><desc>{ "type": "misc", "i": "thrusters" }</desc></path></g></g><g ><rect x="28.41" y="439.7" width="13.62" height="21.56" rx="3.364" ry="3.364" fill="#4df346"   stroke-width="1.661"><desc>{ "type": "hard_point", "i": 6 }</desc></rect><rect x="329.4" y="439.7" width="13.62" height="21.56" rx="3.364" ry="3.364" fill="#4df346"   stroke-width="1.661"><desc>{ "type": "hard_point", "i": 7 }</desc></rect><path d="m689.2 184.3c-2.774 0-5.663 0.7092-7.125 6.684l-2.828 11.55c-1.462 5.974 4.439 11.1 9.953 11.1s11.42-5.129 9.953-11.1l-2.828-11.55c-1.462-5.974-4.351-6.684-7.125-6.684z" fill="#f39746"   stroke-width="1.235"><desc>{ "type": "other", "i": "cargo hatch" }</desc></path></g><g fill="#f39745"  stroke-width="1.235"><path d="m678.4 128.7c7.285 1.901 14.72 1.939 21.67 0 2.94 16.57 6.821 32.97-1.328 50.98-6.423-3.306-12.76-3.159-19.01 0-8.116-16.88-3.936-33.94-1.328-50.98z"  ><desc>{ "type": "misc", "i": "landing gear" }</desc></path><path d="m641.4 408.4c2.09-9.999 8.189-18.87 12.44-21.34l5.813 42.95-5.467 15.09c-3.414 0.3581-8.45 3.869-9.159-1.033z"  ><desc>{ "type": "misc", "i": "landing gear" }</desc></path><path d="m736.9 408.4c-2.09-9.999-8.189-18.87-12.44-21.34l-5.813 42.95 5.467 15.09c3.414 0.3581 8.45 3.869 9.159-1.033z"  ><desc>{ "type": "misc", "i": "landing gear" }</desc></path></g><g fill="#979797" ><circle cx="451.7" cy="60.34" r="3.783"  stroke-width="2.869"><desc>{ "type": "hard_point", "cl": "gun", "i": 3 }</desc></circle><circle cx="367.3" cy="244.1" r="3.783"  stroke-width="3.587"><desc>{ "type": "hard_point", "cl": "gun", "i": 4 }</desc></circle><circle cx="482.3" cy="244.1" r="3.783"  stroke-width="3.587"><desc>{ "type": "hard_point", "cl": "gun", "i": 5 }</desc></circle><circle cx="6.25" cy="75.12" r="3.783"  stroke-width="2.869"><desc>{ "type": "hard_point", "cl": "gun", "i": 6 }</desc></circle><circle cx="824.5" cy="75.12" r="3.783"  stroke-width="2.869"><desc>{ "type": "hard_point", "cl": "gun", "i": 7 }</desc></circle></g><g ><path d="m185.7 62.74c-7.134 0.07469-14.02 10.74-17.24 24.15 7.681-12.08 11.3-13.71 17.24-13.7 5.942-0.01043 9.559 1.617 17.24 13.7-3.216-13.41-10.11-24.07-17.24-24.15z" fill="#f39745"   stroke-width="1.235"><desc>{ "type": "other", "i": "canopy" }</desc></path><path d="m182.4 445.5h6.65l4.675 89.43-3.675 13.34h-8.649l-3.732-11.06z" fill="#f39745"   stroke-width="1.235"><desc>{ "type": "misc", "i": "heat vents" }</desc></path><path d="m177.6 93.63a8.125 7.918 0 0 0 8.125 7.918 8.125 7.918 0 0 0 8.125-7.918 8.125 7.918 0 0 0-1.904-5.082l-6.221-9.992-6.199 9.959a8.125 7.918 0 0 0-1.926 5.115z" fill="#46d2f3"   stroke-width="1.764"><desc>{ "type": "internal", "i": "entrance" }</desc></path></g></g></svg>
