<svg width="870" height="640" clip-rule="evenodd" fill-rule="evenodd" image-rendering="optimizeQuality" shape-rendering="geometricPrecision" text-rendering="geometricPrecision" version="1.1" viewBox="0 0 870 640" xml:space="preserve" xmlns="http://www.w3.org/2000/svg">
<g><path d="m161.2 531.9h-19v19h19z"  ><desc>{ "type": "internal", "i": "drive" }</desc></path><path d="m305.4 531.9h-19v19h19z"  ><desc>{ "type": "internal", "i": "drive" }</desc></path><path d="m233.5 362.9h-19v19h19z"  ><desc>{ "type": "internal", "i": "PP" }</desc></path><path d="m233.2 243.6h-19v19h19z"  ><desc>{ "type": "internal", "i": "FSD" }</desc></path><path d="m233.4 183.8h-19v19h19z"  ><desc>{ "type": "internal", "i": "life support" }</desc></path><path d="m233.1 297h-19v19h19z"  ><desc>{ "type": "internal", "i": "distributor" }</desc></path><path d="m327.3 336.7h-19v19h19z"  ><desc>{ "type": "internal", "i": "1" }</desc></path><path d="m138.8 336.8h-19v19h19z"  ><desc>{ "type": "internal", "i": "2" }</desc></path><path d="m154 251.7h-19v19h19z"  ><desc>{ "type": "internal", "i": "3" }</desc></path><path d="m312.8 252.1h-19v19h19z"  ><desc>{ "type": "internal", "i": "4" }</desc></path><path d="m233.5 409.3h-19v19h19z"  ><desc>{ "type": "internal", "i": "5" }</desc></path><path d="m180.5 390h-19v19h19z"  ><desc>{ "type": "internal", "i": "6" }</desc></path><path d="m233.1 317.7h-19v19h19z"  ><desc>{ "type": "internal", "i": "7" }</desc></path></g><g transform="translate(1307)"  fill="none"  ><path d="m-668.2 136.5-3.52 3.428-7.426 14.33-1.256 5.936-6.65-2.529-31.95 12.43-9.35-4.635-8.785 0.2148-53.73 140 0.5117 113.6 0.1562 50.53 15.75 64.79 0.3496 13.96 80.47 0.1836-0.2734-32.64 5.219-0.043-0.123-3.01 18.73 10.31 13.17 0.3203 13.17-0.3203 18.73-10.31-0.123 3.01 5.219 0.043-0.2734 32.64 80.47-0.1836 0.3496-13.96 15.75-64.79 0.1562-50.53 0.5117-113.6-53.73-140-8.785-0.2148-9.35 4.635-31.95-12.43-6.65 2.529-1.256-5.936-7.426-14.33-3.52-3.428-11.29 0.0742z"  stroke-width="1.764"/><path d="m-790.5 310.9-18.04-0.0154-13.02 3.71 0.1434 55.71-3.896 0.1497-6.128 7.304 0.0428 38.95 6.213 4.663 3.146 0.322 0.9914 28.32 22.85-0.016 0.0974-30.84 7.604-0.0311"  stroke-width="1.764"/><g stroke-width="1.235"><path d="m-803.9 310.9-0.5582 79.7 13.74 7.753" /><path d="m-821.4 370.3 5.127 0.3435 3.812 4.203 8.003 15.75" /><path d="m-825.3 370.4 0.1276 50.91" /><path d="m-798.2 394.2 0.0515 24.92" /><path d="m-822.1 370.7 0.0515 50.97" /><path d="m-656.9 140.4-12.34-0.0784-9.895 13.95" /></g><ellipse transform="matrix(.9999 .01049 -.01576 .9999 0 0)" cx="-736.9" cy="268.7" rx="6.202" ry="6.299"  stroke-width="1.235"/><path d="m-749.7 253h17.17v16.12h-17.17z"  stroke-width="1.235"/><ellipse transform="matrix(.9999 .01049 -.01576 .9999 0 0)" cx="-747.4" cy="492.9" rx="6.202" ry="6.299"  stroke-width="1.235"/><path d="m-763.7 477.1h17.17v16.12h-17.17z"  stroke-width="1.235"/><path d="m-801.6 450.2-0.1144-21.04-0.66-1.108-12.43-0.0524-0.424 1.169 0.0377 20.62"  stroke-width="1.235"/><path d="m-693.9 537.5-75.51-0.1788-5.01-2.671"  stroke-width="1.235"/><path d="m-790.4 359.9-7.411 0.2195-1.108 1.267-0.0524 23.85 1.169 0.8137 6.997-0.0723"  stroke-width="1.235"/><path d="m-774.1 548.6 0.9983 14.22 77.05 0.121 0.6645-3.886 3.482-0.8386-0.0563-8.836-1.669-0.6003"  stroke-width="1.764"/><path d="m-765.3 562.9 1.535 9.453 27.09-6e-3 1.324-9.533"  stroke-width="1.764"/><path d="m-730.2 562.9 1.535 9.453 27.09-6e-3 1.324-9.533"  stroke-width="1.764"/><path d="m-772.1 257-4.316 2.812-12.06 30.22 0.8415 5.751"  stroke-width="1.764"/><g stroke-width="1.235"><path d="m-656.9 164.3-13.47-0.0499-10.02-4.093" /><path d="m-670.4 164.3 1.127-23.97" /><path d="m-673.8 162.7 0.6584-17.26" /><path d="m-699.7 318.1-0.3132-70.82 29.65-83.03" /><path d="m-700 282-55.14 22.05 1.355-52.65 25.43-85.92" /><path d="m-753.8 251.4 34.78-81.28" /><path d="m-726 251.3h14.6v27.11h-14.6z" /><path d="m-744.2 275.2h7.796v11.02h-7.796z" /><path d="m-766.8 527.4-11.4-54.23-0.1938-84.67 23.3-84.43" /><path d="m-694.2 527.9-72.62-0.5772-9.843-0.3282" /></g><path d="m-656.9 491-37.62-0.2752 0.6297 25.45"  stroke-width="1.764"/><g stroke-width="1.235"><path d="m-578.5 319.1h-157.1v153.5h157.1z" /><path d="m-624.5 248.8h-65.13v64.74h65.13z" /><path d="m-635.8 260h-42.5v42.25h42.5z" /><path d="m-763.4 527-1.387-29 25.71-0.0752 2.317 29.28" /><path d="m-729.4 528 0.9947-29.98 23.69-0.0644 2.494 30.08" /><path d="m-778.2 473.1 42.69-0.5007" /><path d="m-760 321.9 60.06-24.18" /><path d="m-740 218.8 51.5-4.184" /><path d="m-723 180.1 48.81-4.934" /><path d="m-772.3 398.1v43.37l3.625 3.75v20.87h23v-20.87l3.625-3.75v-43.37h-17.88z" /><path d="m-672 235.5v-32l3.625-3.75v-17.87h23v17.87l3.625 3.75v32h-17.88z" /><path d="m-670.1 523.4-0.2873-32.15" /></g><path d="m-523.3 310.9 18.04-0.0154 13.02 3.71-0.1434 55.71 3.896 0.1497 6.128 7.304-0.0428 38.95-6.213 4.663-3.146 0.322-0.9914 28.32-22.85-0.016-0.0974-30.84-7.604-0.0311"  stroke-width="1.764"/><g stroke-width="1.235"><path d="m-509.9 310.9 0.5582 79.7-13.74 7.753" /><path d="m-492.4 370.3-5.127 0.3435-3.812 4.203-8.003 15.75" /><path d="m-488.5 370.4-0.1276 50.91" /><path d="m-515.6 394.2-0.0515 24.92" /><path d="m-491.7 370.7-0.0515 50.97" /><path d="m-656.9 140.4 12.34-0.0784 9.895 13.95" /></g><ellipse transform="matrix(-.9999 .01049 .01576 .9999 0 0)" cx="576.8" cy="254.9" rx="6.202" ry="6.299"  stroke-width="1.235"/><path d="m-564.1 253h-17.17v16.12h17.17z"  stroke-width="1.235"/><ellipse transform="matrix(-.9999 .01049 .01576 .9999 0 0)" cx="566.3" cy="479.1" rx="6.202" ry="6.299"  stroke-width="1.235"/><path d="m-550.1 477.1h-17.17v16.12h17.17z"  stroke-width="1.235"/><path d="m-512.2 450.2 0.1144-21.04 0.66-1.108 12.43-0.0524 0.424 1.169-0.0377 20.62"  stroke-width="1.235"/><path d="m-619.9 537.5 75.51-0.1788 5.01-2.671"  stroke-width="1.235"/><path d="m-523.4 359.9 7.411 0.2195 1.108 1.267 0.0524 23.85-1.169 0.8137-6.997-0.0723"  stroke-width="1.235"/><path d="m-539.7 548.6-0.9983 14.22-77.05 0.121-0.6645-3.886-3.482-0.8386 0.0563-8.836 1.669-0.6003"  stroke-width="1.764"/><path d="m-548.5 562.9-1.535 9.453-27.09-6e-3 -1.324-9.533"  stroke-width="1.764"/><path d="m-583.6 562.9-1.535 9.453-27.09-6e-3 -1.324-9.533"  stroke-width="1.764"/><path d="m-541.7 257 4.316 2.812 12.06 30.22-0.8415 5.751"  stroke-width="1.764"/><g stroke-width="1.235"><path d="m-656.9 164.3 13.47-0.0499 10.02-4.093" /><path d="m-643.4 164.3-1.127-23.97" /><path d="m-640 162.7-0.6584-17.26" /><path d="m-614.1 318.1 0.3132-70.82-29.65-83.03" /><path d="m-613.8 282 55.14 22.05-1.355-52.65-25.43-85.92" /><path d="m-560 251.4-34.78-81.28" /><path d="m-587.8 251.3h-14.6v27.11h14.6z" /><path d="m-569.6 275.2h-7.796v11.02h7.796z" /><path d="m-547 527.4 11.4-54.23 0.1938-84.67-23.3-84.43" /><path d="m-619.6 527.9 72.62-0.5772 9.843-0.3282" /></g><path d="m-656.9 491 37.62-0.2752-0.6297 25.45"  stroke-width="1.764"/><g stroke-width="1.235"><path d="m-550.4 527 1.387-29-25.71-0.0752-2.317 29.28" /><path d="m-584.4 528-0.9947-29.98-23.69-0.0644-2.494 30.08" /><path d="m-535.6 473.1-42.69-0.5007" /><path d="m-553.8 321.9-60.06-24.18" /><path d="m-574 218.8-51.31-4.184" /><path d="m-590.8 180.1-48.81-4.934" /><path d="m-541.6 398.1v43.37l-3.625 3.75v20.87h-23v-20.87l-3.625-3.75v-43.37h17.88z" /><path d="m-643.7 523.4 0.2873-32.15" /><path d="m-647.1 498.3h-19.88v12.02h19.88z" /><path d="m-688.8 513.1-0.2873-22.62" /><path d="m-625 513.1-0.2873-22.62" /><path d="m-661.3 169.4h8.974v9.584h-8.974z" /><path d="m-669.3 145.1 24.76-0.073" /><path d="m-700 247.3-53.75 4.059" /><path d="m-560 251.4-53.75-4.059" /></g></g><g transform="translate(1420)"  fill="none"  ><path d="m-1207 136.5-3.52 3.428-7.426 14.33-1.256 12.12-4.352-10.84-38.75 9.678-9.85-0.7598-3.785 3.715-53.73 137.5 0.5118 113.6 0.1562 50.53 15.75 64.79 0.3496 13.96 80.47 0.1836-0.2735-32.64 5.219-0.043-0.1231-3.01 18.73 10.31 13.17 0.3203 13.17-0.3203 18.73-10.31-0.123 3.01 5.219 0.043-0.2734 32.64 80.47-0.1836 0.3496-13.96 15.75-64.79 0.1562-50.53 0.5117-113.6-53.73-137.5-3.785-3.715-9.85 0.7598-38.75-9.678-4.352 10.84-1.256-12.12-7.426-14.33-3.52-3.428-11.29 0.0742z"  stroke-width="1.764"/><path d="m-1330 310.9-18.04-0.0154-13.02 3.71 0.1434 55.71-3.896 0.1497-6.128 7.304 0.043 38.95 6.213 4.663 3.146 0.322 0.9914 28.32 22.85-0.016 0.097-30.84 7.604-0.0311"  stroke-width="1.764"/><g stroke-width="1.235"><path d="m-1343 310.9-0.5582 79.7 13.74 7.753" /><path d="m-1361 370.3 5.127 0.3435 3.812 4.203 8.003 15.75" /><path d="m-1365 370.4 0.1276 50.91" /><path d="m-1337 394.2 0.052 24.92" /><path d="m-1361 370.7 0.052 50.97" /></g><path d="m-1220 166.4-8.031 10.42-0.043 19.65-24.58 16.61 0.2888 100.4 6.476 6.787-0.1453 73.72 16.74 15.16 0.081 15.09 11.52 11.58 21.19 0.1854"  stroke-width="1.764"/><g stroke-width="1.235"><path d="m-1295 215.5 19.9-2.141 22.7-0.3068" /><path d="m-1196 140.4-12.34-0.0784-9.895 13.95" /><path d="m-1196 144.4-12.53 0.1164 0.037 12.62-9.074 12.31 0.2827 18.55-7.985 13.81 0.064 23.13 4.258 17.11-0.1283 73.09 3.532 4.442-0.1105 17.76-7.361 10.36 0.067 59.5 7.797 7.889 21.15 0.2544" /><path d="m-1217 188 7.407-0.2301 3.163 3.236 10.71-2e-3" /></g><ellipse transform="matrix(.9999 .01049 -.01576 .9999 0 0)" cx="-1261" cy="244.9" rx="6.202" ry="6.299"  stroke-width="1.235"/><path d="m-1273 223.7h17.17v16.12h-17.17z"  stroke-width="1.235"/><ellipse transform="matrix(.9999 .01049 -.01576 .9999 0 0)" cx="-1266" cy="424.1" rx="6.202" ry="6.299"  stroke-width="1.235"/><g stroke-width="1.235"><path d="m-1282 402.8h17.17v16.12h-17.17z" /><path d="m-1252 277.8-6.688 6.286v77.28l-16.8 23.87 0.011 17.45" /><path d="m-1224 436.5-22.18-21.6-18.27 0.0717" /><path d="m-1221 432.7-7.496 10.97 0.222 69.42" /></g><path d="m-1272 434.1h31.26v46.4h-31.26z"  stroke-width="1.235"/><path d="m-1275 428.8h38.5v58.25h-38.5z"  stroke-width="1.235"/><g stroke-width="1.235"><path d="m-1276 469.8-53.91 0.0121" /><path d="m-1228 469.8-8.658 0.0121" /><path d="m-1259 296.6-41.83 9e-3 -16.5 17.75-0.256 80.12 30.38 8.941-12.57 66.34" /></g><path d="m-1341 450.2-0.1144-21.04-0.66-1.108-12.43-0.0524-0.4239 1.169 0.038 20.62"  stroke-width="1.235"/><path d="m-1233 516.2-0.2941-20.92-2.443-2.261-46.49-0.1069-1.569 2.385 0.1394 42.06"  stroke-width="1.235"/><path d="m-1233 537.5-50.63-0.1788-29.89-2.671"  stroke-width="1.235"/><path d="m-1247 537.4-0.1369-29.45-1.137-1.049-21.64-0.0496-0.7302 1.107 0.065 29.01"  stroke-width="1.235"/><path d="m-1233 526.5-13.45-0.0475m-23.5-0.083-13.68-0.0483-32.01-1.046"  stroke-width="1.235"/><path d="m-1263 165.2-21.18 80.05-3.191 158.2"  stroke-width="1.235"/><g stroke-width="1.235"><path d="m-1330 359.9-7.411 0.2195-1.108 1.267-0.052 23.85 1.17 0.8137 6.997-0.0723" /><path d="m-1270 350h8.102v12.41h-8.102z" /><path d="m-1239 247.2h8.102v9.409h-8.102z" /></g><path d="m-1276 249.7h8.102v12.91h-8.102z"  stroke-width="1.235"/><path d="m-1261 169.1h19.23v31.86h-19.23z"  stroke-width="1.235"/><path d="m-1220 166.4-43.1-1.161"  stroke-width="1.235"/><path d="m-1313 548.6 0.9983 14.22 77.05 0.121 0.6644-3.886 3.482-0.8386-0.056-8.836-1.669-0.6003"  stroke-width="1.764"/><path d="m-1305 562.9 1.535 9.453 27.09-6e-3 1.324-9.533"  stroke-width="1.764"/><path d="m-1269 562.9 1.535 9.453 27.09-6e-3 1.324-9.533"  stroke-width="1.764"/><path d="m-1218 319.6 7.407 0.2301 3.163-3.236 10.71 2e-3"  stroke-width="1.235"/><path d="m-1063 310.9 18.04-0.0154 13.02 3.71-0.1434 55.71 3.896 0.1497 6.128 7.304-0.043 38.95-6.213 4.663-3.146 0.322-0.9914 28.32-22.85-0.016-0.097-30.84-7.604-0.0311"  stroke-width="1.764"/><g stroke-width="1.235"><path d="m-1049 310.9 0.5582 79.7-13.74 7.753" /><path d="m-1032 370.3-5.127 0.3435-3.812 4.203-8.003 15.75" /><path d="m-1028 370.4-0.1276 50.91" /><path d="m-1055 394.2-0.052 24.92" /><path d="m-1031 370.7-0.052 50.97" /></g><path d="m-1173 166.4 8.032 10.42 0.043 19.65 24.58 16.61-0.2888 100.4-6.476 6.787 0.1453 73.72-16.74 15.16-0.081 15.09-11.52 11.58-21.19 0.1854"  stroke-width="1.764"/><g stroke-width="1.235"><path d="m-1097 215.5-19.9-2.141-22.7-0.3068" /><path d="m-1196 140.4 12.34-0.0784 9.895 13.95" /><path d="m-1196 144.4 12.53 0.1164-0.037 12.62 9.074 12.31-0.2827 18.55 7.985 13.81-0.064 23.13-4.258 17.11 0.1283 73.09-3.532 4.442 0.1105 17.76 7.361 10.36-0.067 59.5-7.797 7.889-21.15 0.2544" /><path d="m-1175 188-7.407-0.2301-3.163 3.236-10.71-2e-3" /></g><ellipse transform="matrix(-.9999 .01049 .01576 .9999 0 0)" cx="1131" cy="219.8" rx="6.202" ry="6.299"  stroke-width="1.235"/><path d="m-1119 223.7h-17.17v16.12h17.17z"  stroke-width="1.235"/><ellipse transform="matrix(-.9999 .01049 .01576 .9999 0 0)" cx="1126" cy="399" rx="6.202" ry="6.299"  stroke-width="1.235"/><g stroke-width="1.235"><path d="m-1111 402.8h-17.17v16.12h17.17z" /><path d="m-1140 277.8 6.688 6.286v77.28l16.8 23.87-0.011 17.45" /><path d="m-1168 436.5 22.18-21.6 18.27 0.0717" /><path d="m-1172 432.7 7.496 10.97-0.222 69.42" /></g><path d="m-1121 434.1h-31.26v46.4h31.26z"  stroke-width="1.235"/><path d="m-1117 428.8h-38.5v58.25h38.5z"  stroke-width="1.235"/><g stroke-width="1.235"><path d="m-1117 469.8 53.91 0.0121" /><path d="m-1164 469.8 8.658 0.0121" /><path d="m-1133 296.6 41.83 9e-3 16.5 17.75 0.256 80.12-30.38 8.941 12.57 66.34" /></g><path d="m-1051 450.2 0.1144-21.04 0.66-1.108 12.43-0.0524 0.4239 1.169-0.038 20.62"  stroke-width="1.235"/><path d="m-1159 516.2 0.2941-20.92 2.443-2.261 46.49-0.1069 1.569 2.385-0.1394 42.06"  stroke-width="1.235"/><path d="m-1159 537.5 50.63-0.1788 29.89-2.671"  stroke-width="1.235"/><path d="m-1146 537.4 0.1369-29.45 1.137-1.049 21.64-0.0496 0.7302 1.107-0.065 29.01"  stroke-width="1.235"/><path d="m-1159 526.5 13.45-0.0475m23.5-0.083 13.68-0.0483 32.01-1.046"  stroke-width="1.235"/><path d="m-1130 165.2 21.18 80.05 3.191 158.2"  stroke-width="1.235"/><g stroke-width="1.235"><path d="m-1063 359.9 7.411 0.2195 1.108 1.267 0.052 23.85-1.17 0.8137-6.997-0.0723" /><path d="m-1122 350h-8.102v12.41h8.102z" /><path d="m-1154 247.2h-8.102v9.409h8.102z" /></g><path d="m-1117 249.7h-8.102v12.91h8.102z"  stroke-width="1.235"/><path d="m-1131 169.1h-19.23v31.86h19.23z"  stroke-width="1.235"/><path d="m-1173 166.4 43.1-1.161"  stroke-width="1.235"/><path d="m-1088 562.9-1.535 9.453-27.09-6e-3 -1.324-9.533"  stroke-width="1.764"/><path d="m-1123 562.9-1.535 9.453-27.09-6e-3 -1.324-9.533"  stroke-width="1.764"/><path d="m-1175 319.6-7.407 0.2301-3.163-3.236-10.71 2e-3"  stroke-width="1.235"/><path d="m-1311 257-4.316 2.812-12.06 30.22 0.8415 5.751"  stroke-width="1.764"/><path d="m-1081 257 4.316 2.812 12.06 30.22-0.8415 5.751"  stroke-width="1.764"/><g stroke-width="1.235"><path d="m-1213 220.8 5.77-5.657h21.57l5.548 5.303v85.6l-5.106 4.95h-22.36l-5.416-4.95z" /><path d="m-1213 278.4 32.56-0.0184" /><path d="m-1219 348.7 4.425-6.223h37.33l4.488 5.978v57.09l-3.644 3.434h-39.05l-3.55-3.434z" /><path d="m-1218 464.7 2.675-4.503h37.33l2.863 4.325 1.875 29.69-11.27 14.11h-23.67l-12.05-13.73z" /><path d="m-1209 463.2h26.3v7.639h-26.3z" /><path d="m-1201 479.5h8.974v9.584h-8.974z" /><path d="m-1216 395.7h39.03v7.639h-39.03z" /><path d="m-1216 395.7 6.603-17.11 25.81 0.0491 6.614 17.06" /></g><path d="m-1079 548.6-0.9983 14.22-77.05 0.121-0.6645-3.886-3.482-0.8386 0.056-8.836 1.669-0.6003"  stroke-width="1.764"/><g stroke-width="1.235"><path d="m-1272 442.9 31.43-0.0184" /><path d="m-1272 452.3 31.43-0.0184" /><path d="m-1272 461.4 31.43-0.0184" /><path d="m-1272 470.4 31.43-0.0184" /><path d="m-1120 442.9-31.43-0.0184" /><path d="m-1120 452.3-31.43-0.0184" /><path d="m-1120 461.4-31.43-0.0184" /><path d="m-1120 470.4-31.43-0.0184" /><path d="m-1209 172.2 4.347-0.5447h16.25l4.179 0.5107v8.242l-3.846 0.4766h-16.85l-4.08-0.4766z" /><path d="m-1200 199.3h8.974v9.584h-8.974z" /></g></g><g  ><rect x="430.8" y="128.2" width="8.144" height="8.073" fill="#979797"   stroke-width="3.587"><desc>{ "type": "gunsight", "cl": "gun", "i": 0 }</desc></rect><g fill="none" stroke="#979797" stroke-width="3.587"><path d="m442.9 86.92c21.52 3.996 37.82 22.87 37.82 45.55 0 5.371-0.9139 10.53-2.595 15.33m-7.842 13.97c-8.496 10.4-21.42 17.03-35.89 17.03-14.38 0-27.24-6.555-35.74-16.84m-7.716-13.37c-1.862-5.019-2.88-10.45-2.88-16.12 0-23.05 16.84-42.18 38.89-45.74" /><g><path d="m434.9 71.19v15.85" /><path d="m395.6 155.1-13.68 8.014" /><path d="m474.2 155.1 13.68 8.014" /></g></g><g ><circle cx="397.8" cy="109.6" r="3.783" fill="#979797"  stroke-width="2.869"><desc>{ "type": "hard_point", "cl": "gun", "i": 1 }</desc></circle><circle cx="343.6" cy="204.7" r="3.783" fill="#979797"  stroke-width="3.587"><desc>{ "type": "gunsight", "cl": "gun", "i": 3 }</desc></circle><rect x="158.6" y="169.1" width="19.23" height="31.86" rx="3.114" ry="3.051" fill="#4df346"   stroke-width="1.661"><desc>{ "type": "hard_point", "i": 1 }</desc></rect><path d="m116.1 576.4h28.57l-14.28 15.07z" fill="#f39745"   stroke-width="1.764"><desc>{ "type": "misc", "i": "thrusters" }</desc></path><rect x="216.6" y="196.8" width="15.51" height="14.76" rx="1.971" ry="1.821" fill="#ff3ae1"   stroke-width="1.554"><desc>{ "type": "utility", "i": 1 }</desc></rect><path d="m671.1 260h-42.5v42.25h42.5z" fill="#f39746"   stroke-width="1.235"><desc>{ "type": "other", "i": "cargo hatch" }</desc></path><path d="m634.8 203.5 3.625-3.75v-17.87h23v17.87l3.625 3.75v32h-30.25z" fill="#f39745"   stroke-width="1.235"><desc>{ "type": "misc", "i": "landing gear" }</desc></path><rect x="216.1" y="477" width="15.51" height="14.76" rx="1.971" ry="1.821" fill="#ff3ae1"   stroke-width="1.554"><desc>{ "type": "utility", "i": 3 }</desc></rect><rect x="642.5" y="166.6" width="15.51" height="14.76" rx="1.971" ry="1.821" fill="#ff3ae1"   stroke-width="1.554"><desc>{ "type": "utility", "i": 2 }</desc></rect></g><g fill="#4df346" ><rect x="269.8" y="169.1" width="19.23" height="31.86" rx="3.114" ry="3.051"   stroke-width="1.661"><desc>{ "type": "hard_point", "i": 2 }</desc></rect><rect x="580.9" y="251.3" width="14.6" height="27.11" rx="3.114" ry="3.051"   stroke-width="1.661"><desc>{ "type": "hard_point", "i": 4 }</desc></rect><rect x="704.4" y="251.3" width="14.6" height="27.11" rx="3.114" ry="3.051"   stroke-width="1.661"><desc>{ "type": "hard_point", "i": 3 }</desc></rect></g><g fill="#f39745" ><g stroke-width="1.764"><ellipse cx="155.5" cy="231.6" rx="6.244" ry="6.425"  ><desc>{ "type": "misc", "i": "thrusters" }</desc></ellipse><ellipse cx="292.3" cy="231.7" rx="6.244" ry="6.425"  ><desc>{ "type": "misc", "i": "thrusters" }</desc></ellipse><ellipse cx="147.1" cy="410.8" rx="6.244" ry="6.425"  ><desc>{ "type": "misc", "i": "thrusters" }</desc></ellipse><ellipse cx="300.7" cy="410.8" rx="6.244" ry="6.425"  ><desc>{ "type": "misc", "i": "thrusters" }</desc></ellipse><ellipse cx="551.8" cy="485" rx="6.244" ry="6.425"  ><desc>{ "type": "misc", "i": "thrusters" }</desc></ellipse><ellipse cx="748.2" cy="485" rx="6.244" ry="6.425"  ><desc>{ "type": "misc", "i": "thrusters" }</desc></ellipse><ellipse cx="565.9" cy="261" rx="6.244" ry="6.425"  ><desc>{ "type": "misc", "i": "thrusters" }</desc></ellipse><ellipse cx="734.1" cy="260.9" rx="6.244" ry="6.425"  ><desc>{ "type": "misc", "i": "thrusters" }</desc></ellipse><path d="m151.3 576.4h28.57l-14.28 15.07z"  ><desc>{ "type": "misc", "i": "thrusters" }</desc></path><path d="m267.6 576.4h28.57l-14.28 15.07z"  ><desc>{ "type": "misc", "i": "thrusters" }</desc></path><path d="m302.9 576.4h28.57l-14.28 15.07z"  ><desc>{ "type": "misc", "i": "thrusters" }</desc></path><path d="m59.34 454h23.54l-11.77 12.42z"  ><desc>{ "type": "misc", "i": "thrusters" }</desc></path><path d="m365.1 454h23.54l-11.77 12.42z"  ><desc>{ "type": "misc", "i": "thrusters" }</desc></path><path d="m542 576.4h28.57l-14.28 15.07z"  ><desc>{ "type": "misc", "i": "thrusters" }</desc></path><path d="m577.3 576.4h28.57l-14.28 15.07z"  ><desc>{ "type": "misc", "i": "thrusters" }</desc></path><path d="m693.5 576.4h28.57l-14.28 15.07z"  ><desc>{ "type": "misc", "i": "thrusters" }</desc></path><path d="m728.8 576.4h28.57l-14.28 15.07z"  ><desc>{ "type": "misc", "i": "thrusters" }</desc></path><path d="m485.3 454h23.54l-11.77 12.42z"  ><desc>{ "type": "misc", "i": "thrusters" }</desc></path><path d="m791 454h23.54l-11.77 12.42z"  ><desc>{ "type": "misc", "i": "thrusters" }</desc></path></g><path d="m534.6 441.5 3.625 3.75v20.87h23v-20.87l3.625-3.75v-43.37h-30.25z"   stroke-width="1.235"><desc>{ "type": "misc", "i": "landing gear" }</desc></path><path d="m735.1 441.5 3.625 3.75v20.87h23v-20.87l3.625-3.75v-43.37h-30.25z"   stroke-width="1.235"><desc>{ "type": "misc", "i": "landing gear" }</desc></path><g stroke-width="1.764"><path d="m162 158.8-17.98-2.012 10.05-8.476z"  ><desc>{ "type": "misc", "i": "thrusters" }</desc></path><path d="m285.4 158.8 17.98-2.012-10.05-8.476z"  ><desc>{ "type": "misc", "i": "thrusters" }</desc></path><path d="m588.5 158.8-17.98-2.012 10.05-8.476z"  ><desc>{ "type": "misc", "i": "thrusters" }</desc></path><path d="m711.9 158.8 17.98-2.012-10.05-8.476z"  ><desc>{ "type": "misc", "i": "thrusters" }</desc></path></g></g><rect x="571.6" y="318.1" width="157" height="154.5" rx="0" ry="0" fill="#f49644"    stroke-width=".9927"><desc>{ "type": "other", "i": "fighter bay" }</desc></rect><g fill="#979797"  stroke-width="2.869"><circle cx="470.7" cy="109.6" r="3.783" ><desc>{ "type": "hard_point", "cl": "gun", "i": 2 }</desc></circle><circle cx="394.5" cy="164" r="3.783" ><desc>{ "type": "hard_point", "cl": "gun", "i": 3 }</desc></circle><circle cx="474.5" cy="164" r="3.783" ><desc>{ "type": "hard_point", "cl": "gun", "i": 4 }</desc></circle></g><g fill="#f39746" ><path d="m235.1 136.5h-22.59l-3.52 3.428-7.426 14.33 9.896-13.95h24.69l9.895 13.95-7.426-14.33z"   stroke-width="1.764"><desc>{ "type": "other", "i": "canopy" }</desc></path><path d="m661.3 136.5h-22.59l-3.52 3.428-7.426 14.33-1.256 5.935 6.585 2.55 0.6584-17.26 3.908-5.176h24.69l3.908 5.176 0.6584 17.26 6.585-2.55-1.256-5.936-7.426-14.33z"   stroke-width="1.764"><desc>{ "type": "other", "i": "canopy" }</desc></path><g stroke-width="1.235"><path d="m179.5 434.1h-31.26v46.4h31.26z"  ><desc>{ "type": "misc", "i": "heat vents" }</desc></path><path d="m299.5 434.1h-31.26v46.4h31.26z"  ><desc>{ "type": "misc", "i": "heat vents" }</desc></path><path d="m108.6 257-4.316 2.812-12.06 30.22 0.8415 5.751z"  ><desc>{ "type": "misc", "i": "heat vents" }</desc></path><path d="m339 257 4.316 2.812 12.06 30.22-0.8415 5.751z"  ><desc>{ "type": "misc", "i": "heat vents" }</desc></path></g></g><path d="m232.1 533.6a8.125 7.918 0 0 0-8.125-7.918 8.125 7.918 0 0 0-8.125 7.918 8.125 7.918 0 0 0 1.904 5.082l6.221 9.992 6.199-9.959a8.125 7.918 0 0 0 1.926-5.115z" fill="#46d2f3"    stroke-width="1.764"><desc>{ "type": "internal", "i": "entrance" }</desc></path></g></svg>
