<svg width="870" height="640" clip-rule="evenodd" fill-rule="evenodd" image-rendering="optimizeQuality" shape-rendering="geometricPrecision" text-rendering="geometricPrecision" version="1.1" viewBox="0 0 870 640" xml:space="preserve" xmlns="http://www.w3.org/2000/svg">
<path d="m211.9 414.4h-19.33"  fill="none"    stroke-width="1.235"/><g transform="translate(1146 18)"  fill="none"  ><path d="m-514.2 122.5-1.609 2.086-25.12 5.543-8.334 13.76c-17.21 49.57-35.55 98.82-45.71 149.6l6.32 74.18 2.408 2.461-29.84 110.3-4.932 37.25 0.0644 8.012 4.836 7.002 17.51-0.1582 29.63-7.838 1.711 25.64 60.64-0.0117 3.33-14.49 3.014-32.38-2.521-36.39 5.943-0.2773 0.377-32.34-2.197-23.52 7.236 44.01 15.46-0.168 15.46 0.168 7.238-44.01-2.197 23.52 0.377 32.34 5.943 0.2773-2.521 36.39 3.014 32.38 3.33 14.49 60.64 0.0117 1.711-25.64 29.63 7.838 17.51 0.1582 4.836-7.002 0.0644-8.012-4.932-37.25-29.84-110.3 2.408-2.461 6.32-74.18c-10.16-50.76-28.5-100-45.71-149.6l-8.334-13.76-25.12-5.543-1.609-2.086-1.311 0.2949-4.084 95.43c-1.285-0.0502-2.587 0.0779-3.605-0.7441l-11.96-10c-6.126-1.346-11.28-1.981-17.27-2.09-5.987 0.1087-11.14 0.744-17.27 2.09l-11.96 10c-1.018 0.8221-2.32 0.694-3.605 0.7441l-4.084-95.43z"  stroke-width="1.764"/><path d="m-613.9 533-0.5167-45.9-3.262 0.116"  stroke-width="1.235"/><path d="m-576.1 526.8c-7.228-49.08-10.46-98.53-12.54-148.1"  stroke-width="1.235"/><g stroke-width="1.764"><path d="m-508.8 218.3-1.182 69.95" /><path d="m-493.3 207.5-9.393 61.25 0.0159 12.31-38.37 38.43c-2.76 3.079-2.943 5.689-3.177 8.308l0.0713 80.86-1.802 0.2182-2.272 36.91c-0.4006 3.732-4.162 3.157-18.81 8.767l3.076 50.98 16.48-0.2508 0.2666 45.22" /><path d="m-544.1 345.1c12.44-32.03 27.67-13.14 28.75-2.591l1.121 16.5 4.568 7.014 0.5678 13.99 10.44 31" /><path d="m-549.3 143.9-9.231 103.6-19.07 14.89-9.723-0.4371" /></g><path d="m-569.4 255.3c4.972-33.22 9.827-66.49 18.93-97.87"  stroke-width="1.235"/><path d="m-616.1 480.5 11.92 0.2484c2.003 0.0199 3.398-0.9232 3.988-3.142l8.892-28.17-3.438-45.14"  stroke-width="1.235"/><path d="m-592.2 491.6h6.779v12.21h-6.779z"  stroke-width="1.235"/><ellipse transform="matrix(.9999 .01051 -.01574 .9999 0 0)" cx="-598" cy="528.9" rx="2.628" ry="2.673"  stroke-width="1.235"/><ellipse transform="matrix(.9999 .0105 -.01575 .9999 0 0)" cx="-549.7" cy="500" rx="3.13" ry="3.182"  stroke-width="1.235"/><g stroke-width="1.235"><path d="m-564.3 465.9h15.18v18.75h-15.18z" /><path d="m-577.2 413.6 11.02-17.5 0.5303 33.77-2.006 7.071-8.377-4.898c-4.32-3.092-9.214-5.737-1.169-18.45z" /><path d="m-579.1 434.3 10.14 6.541-5.834 10.44h-5.453c-1.408-12.04-1.538-15.78 1.149-16.98z" /><path d="m-523.1 511.4h11.65v13.58h-11.65z" /><path d="m-537.1 511.6v4.987h-4.625v23.47h16.28v-23.47h-4.875v-4.987z" /></g><path d="m-547.5 509 46.48-0.4022"  stroke-width="1.235"/><path d="m-569 524.8 18.35-5.944 9e-3 -13.5"  stroke-width="1.235"/><path d="m-552.8 278.6h10.65v15.27h-10.65z"  stroke-width="1.235"/><ellipse transform="matrix(.9999 .0105 -.01575 .9999 0 0)" cx="-528.2" cy="286.6" rx="3.13" ry="3.182"  stroke-width="1.235"/><ellipse transform="matrix(.9999 .01051 -.01574 .9999 0 0)" cx="-546.8" cy="232.7" rx="2.628" ry="2.673"  stroke-width="1.235"/><path d="m-557.5 238.8 14.23-11.79-9.386-14.67-2.307 1.619"  stroke-width="1.235"/><g stroke-width="1.235"><path d="m-546.3 146.5 7.448-13.7 22.65-4.419v62.91l-9.167 22.45-5.952 6.197-5.967 0.01-3.831-3.739-9.071-24.04z" /><path d="m-537.8 134.3 18.52-3.801-0.1768 3.603-19.32 2.298z" /><path d="m-544.1 193.3 21.61 0.1768 0.6709 2.821-3.234 9.886-17.37-0.0884-2.705-10.51z" /></g><path d="m-557.7 260.8 34.7-28.64 2.99 0.8784-0.2363 54.39-21.85 19.92-15.6-3.005z"  stroke-width="1.764"/><path d="m-476 434.1c-6.549 0.0669-13.53-0.9475-14.99-5.232l-10.68-47.16 0.4805-60.59-25.08-16.26"  stroke-width="1.235"/><path d="m-496 284.2h5.616v5.459h-5.616z"  stroke-width="1.235"/><g stroke-width="1.235"><path d="m-587 410.3 7.149-18.49-4.069-59.94-11.04-38.37" /><path d="m-544.4 384-6.423-4.794 0.137-16.88-16.86-10.12-0.0213-26.83 23.55 0.1319" /><path d="m-563.6 325.4-0.1006-66.02" /><path d="m-573.8 259.1 12.78 0.1159 7.36-6.233-4.837-5.512" /><path d="m-567.6 325.4-4.423-0.1743-9.607-5.046 11.32-58.49 6.484 0.2045" /><path d="m-583.7 338.5 15.99 6.019" /><path d="m-568.1 535.6 20.65 0.1351" /><path d="m-614.5 487.1 17.84 0.1167 11.94-36.86" /><path d="m-544 365.2 34.3 0.7667" /><path d="m-544.3 373.4c5.625 0.132 8.234 0.1838 35.05 0.7667" /><path d="m-543.9 360.5c10.22 0.266 21.17 1.481 34.24 5.502" /><path d="m-543.9 355c9.007 0.086 18.82 0.7163 29.58 3.968" /><path d="m-544.2 379.2c5.625 0.132 8.234 0.1838 35.05 0.7667" /><path d="m-543.9 383.8c5.625 0.132 9.648 0.1838 36.47 0.7667" /><path d="m-506.9 451.7 0.1682-54.33-1.48-2.966-0.0835-10.07" /></g><path d="m-508.6 451.8h6.779v9.725h-6.779z"  stroke-width="1.235"/><g stroke-width="1.235"><path d="m-543.4 397.3c5.625 0.132 9.648 0.1838 36.47 0.7667" /><path d="m-544.5 405.6c7.297 4.105 27.26 6.197 37.62-2.327" /><path d="m-541.8 406.9c4.999 25.5 23.01 29.1 33.73-2.79" /></g><path d="m-537.5 432.4 2.99-3.359h13.08l3.17 3.359v33.34c-1.378 29.82-18.33 29.16-19.24 2.375z"  stroke-width="1.235"/><path d="m-502.8 467.1-3.03-5.484"  stroke-width="1.235"/><path d="m-476 451.8c-5.955-0.1599-10.32-0.2487-12.02-3.516l-6.642-13.64"  stroke-width="1.235"/><path d="m-535.6 499.2h11.78v4.27h-11.78z"  stroke-width="1.235"/><g stroke-width="1.235"><path d="m-547.4 505.3 37.08-0.3209 2.769 3.808" /><path d="m-544.8 144.1 28.44-0.4022" /><path d="m-549.1 177.3 10.84-11.58 0.1447-21.7" /><path d="m-516.3 175.2-8.849-9.454-0.1447-21.7" /><path d="m-338.1 533 0.5167-45.9 3.262 0.116" /><path d="m-375.9 526.8c7.228-49.08 10.46-98.53 12.54-148.1" /></g><g stroke-width="1.764"><path d="m-443.2 218.3 1.182 69.95" /><path d="m-458.7 207.5 9.393 61.25-0.0159 12.31 38.37 38.43c2.76 3.079 2.943 5.689 3.177 8.308l-0.0713 80.86 1.802 0.2182 2.272 36.91c0.4006 3.732 4.162 3.157 18.81 8.767l-3.076 50.98-16.48-0.2508-0.2666 45.22" /><path d="m-407.9 345.1c-12.44-32.03-27.67-13.14-28.75-2.591l-1.121 16.5-4.568 7.014-0.5678 13.99-10.44 31" /><path d="m-402.7 143.9 9.231 103.6 19.07 14.89 9.723-0.4371" /></g><path d="m-382.6 255.3c-4.972-33.22-9.827-66.49-18.93-97.87"  stroke-width="1.235"/><path d="m-335.9 480.5-11.92 0.2484c-2.003 0.0199-3.398-0.9232-3.988-3.142l-8.892-28.17 3.438-45.14"  stroke-width="1.235"/><path d="m-359.8 491.6h-6.779v12.21h6.779z"  stroke-width="1.235"/><ellipse transform="matrix(-.9999 .01051 .01574 .9999 0 0)" cx="353.9" cy="518.9" rx="2.628" ry="2.673"  stroke-width="1.235"/><ellipse transform="matrix(-.9999 .0105 .01575 .9999 0 0)" cx="402.2" cy="490" rx="3.13" ry="3.182"  stroke-width="1.235"/><g stroke-width="1.235"><path d="m-387.7 465.9h-15.18v18.75h15.18z" /><path d="m-374.8 413.6-11.02-17.5-0.5303 33.77 2.006 7.071 8.377-4.898c4.32-3.092 9.214-5.737 1.169-18.45z" /><path d="m-372.9 434.3-10.14 6.541 5.834 10.44h5.453c1.408-12.04 1.538-15.78-1.149-16.98z" /><path d="m-428.9 511.4h-11.65v13.58h11.65z" /><path d="m-414.9 511.6v4.987h4.625v23.47h-16.28v-23.47h4.875v-4.987z" /></g><path d="m-404.5 509-46.48-0.4022"  stroke-width="1.235"/><path d="m-383 524.8-18.35-5.944-9e-3 -13.5"  stroke-width="1.235"/><path d="m-399.2 278.6h-10.65v15.27h10.65z"  stroke-width="1.235"/><ellipse transform="matrix(-.9999 .0105 .01575 .9999 0 0)" cx="423.7" cy="276.6" rx="3.13" ry="3.182"  stroke-width="1.235"/><ellipse transform="matrix(-.9999 .01051 .01574 .9999 0 0)" cx="405" cy="222.7" rx="2.628" ry="2.673"  stroke-width="1.235"/><path d="m-394.5 238.8-14.23-11.79 9.386-14.67 2.307 1.619"  stroke-width="1.235"/><g stroke-width="1.235"><path d="m-405.7 146.5-7.448-13.7-22.65-4.419v62.91l9.167 22.45 5.952 6.197 5.967 0.01 3.831-3.739 9.071-24.04z" /><path d="m-414.2 134.3-18.52-3.801 0.1768 3.603 19.32 2.298z" /><path d="m-407.9 193.3-21.61 0.1768-0.6709 2.821 3.234 9.886 17.37-0.0884 2.705-10.51z" /></g><path d="m-394.3 260.8-34.7-28.64-2.99 0.8784 0.2363 54.39 21.85 19.92 15.6-3.005z"  stroke-width="1.764"/><path d="m-476 434.1c6.549 0.0669 13.53-0.9475 14.99-5.232l10.68-47.16-0.4805-60.59 25.08-16.26"  stroke-width="1.235"/><path d="m-456 284.2h-5.616v5.459h5.616z"  stroke-width="1.235"/><g stroke-width="1.235"><path d="m-365 410.3-7.149-18.49 4.069-59.94 11.04-38.37" /><path d="m-407.6 384 6.423-4.794-0.137-16.88 16.86-10.12 0.0213-26.83-23.55 0.1319" /><path d="m-388.4 325.4 0.1006-66.02" /><path d="m-378.2 259.1-12.78 0.1159-7.36-6.233 4.837-5.512" /><path d="m-384.4 325.4 4.423-0.1743 9.607-5.046-11.32-58.49-6.484 0.2045" /><path d="m-368.3 338.5-15.99 6.019" /><path d="m-383.9 535.6-20.65 0.1351" /><path d="m-337.5 487.1-17.84 0.1167-11.94-36.86" /><path d="m-408 365.2-34.3 0.7667" /><path d="m-407.7 373.4c-5.625 0.132-8.234 0.1838-35.05 0.7667" /><path d="m-408.1 360.5c-10.22 0.266-21.17 1.481-34.24 5.502" /><path d="m-408.1 355c-9.007 0.086-18.82 0.7163-29.58 3.968" /><path d="m-407.8 379.2c-5.625 0.132-8.234 0.1838-35.05 0.7667" /><path d="m-408.1 383.8c-5.625 0.132-9.648 0.1838-36.47 0.7667" /><path d="m-445.1 451.7-0.1682-54.33 1.48-2.966 0.0835-10.07" /></g><path d="m-443.4 451.8h-6.779v9.725h6.779z"  stroke-width="1.235"/><g stroke-width="1.235"><path d="m-408.6 397.3c-5.625 0.132-9.648 0.1838-36.47 0.7667" /><path d="m-407.5 405.6c-7.297 4.105-27.26 6.197-37.62-2.327" /><path d="m-410.2 406.9c-4.999 25.5-23.01 29.1-33.73-2.79" /></g><path d="m-414.5 432.4-2.99-3.359h-13.08l-3.17 3.359v33.34c1.378 29.82 18.33 29.16 19.24 2.375z"  stroke-width="1.235"/><path d="m-449.2 467.1 3.03-5.484"  stroke-width="1.235"/><path d="m-476 451.8c5.955-0.1599 10.32-0.2487 12.02-3.516l6.642-13.64"  stroke-width="1.235"/><path d="m-416.4 499.2h-11.78v4.27h11.78z"  stroke-width="1.235"/><g stroke-width="1.235"><path d="m-404.6 505.3-37.08-0.3209-2.769 3.808" /><path d="m-407.2 144.1-28.44-0.4022" /><path d="m-402.9 177.3-10.84-11.58-0.1447-21.7" /><path d="m-435.7 175.2 8.849-9.454 0.1447-21.7" /></g><g stroke-width="1.235"><path d="m-488.3 226.5h24.63v37.54h-24.63z" /><path d="m-483.8 208.9h15.63l-2.625 8.376h-10.38z" /><path d="m-486.4 266.6h20.86v10.67h-20.86z" /><path d="m-487.9 340.6h23.86v24.37h-23.86z" /><path d="m-487.9 390.8h23.86v13.59h-23.86z" /><path d="m-481.3 436.4h10.53v12.59h-10.53z" /><path d="m-482.6 408.9h13.08v5.366h-13.08z" /><path d="m-490.8 378.1h29.61v10.35h-29.61z" /></g><path d="m-501.2 361.1 10.42 16.97"  stroke-width="1.235"/><path d="m-450.8 361.1-10.42 16.97"  stroke-width="1.235"/><path d="m-536.9 388.6h24.4v7.576l-24.4-0.4419z"  stroke-width="1.235"/><path d="m-415.6 388.6h-24.4v7.576l24.4-0.4419z"  stroke-width="1.235"/><g stroke-width="1.235"><path d="m-495 219.4 37.67-0.0317" /><path d="m-502.6 281.1h53.29" /><path d="m-488.3 264-0.3317 53.56 4.113 4.704 8.55-0.0312" /><path d="m-476 327.1-10.15-0.0254-5.408-6.226 0.0634-27.52-6.084-0.1003-0.0183 31.75 13.05 12.02 8.55-0.0312" /><path d="m-463.7 264 0.3317 53.56-4.113 4.704-8.55-0.0312" /><path d="m-476 327.1 10.15-0.0254 5.408-6.226-0.0634-27.52 6.084-0.1003 0.0183 31.75-13.05 12.02-8.55-0.0312" /><path d="m-538.1 459.4 19.66-0.0317" /><path d="m-434.1 459.4 19.66-0.0317" /></g><path d="m-543.5 550.8 0.1931 3.236 4.462 0.0428 4.069 3.185 20.66-0.1287 5.894-3.893 0.2372-3.069"  stroke-width="1.764"/><path d="m-561.5 550.6 1.124 3.384 11.32-0.0186 0.953-3.596"  stroke-width="1.764"/><path d="m-408.4 550.8-0.1931 3.236-4.462 0.0428-4.069 3.185-20.66-0.1287-5.894-3.893-0.2373-3.069"  stroke-width="1.764"/><path d="m-390.4 550.6-1.124 3.384-11.32-0.0186-0.953-3.596"  stroke-width="1.764"/></g><g transform="translate(1182 18)"  fill="none"  ><g stroke-width="1.764"><path d="m-1018 122.5-1.609 2.086-25.12 5.543-8.334 13.76c-17.21 49.57-35.55 98.82-45.71 149.6l6.32 74.18 2.408 2.461-29.84 110.3-4.932 37.25 0.064 8.012 4.836 7.002 17.51-0.1582 29.63-7.838 1.711 25.64 60.64-0.0117 3.33-14.49 3.014-32.38-2.522-36.39 5.943-0.2773 0.377-32.34-2.197-23.52 7.236 44.01 15.46-0.168 15.46 0.168 7.238-44.01-2.197 23.52 0.377 32.34 5.943 0.2773-2.521 36.39 3.014 32.38 3.33 14.49 60.64 0.0117 1.711-25.64 29.63 7.838 17.51 0.1582 4.836-7.002 0.0644-8.012-4.932-37.25-29.84-110.3 2.408-2.461 6.32-74.18c-10.16-50.76-28.5-100-45.71-149.6l-8.334-13.76-25.12-5.543-1.609-2.086-1.311 0.2949-4.084 95.43c-1.285-0.0502-2.587 0.0779-3.605-0.7441l-11.96-10c-6.126-1.346-11.28-1.981-17.27-2.09-5.987 0.1087-11.14 0.744-17.27 2.09l-11.96 10c-1.018 0.8221-2.32 0.694-3.605 0.7441l-4.084-95.43z" /><path d="m-1073 524.8c-0.6789-24.75-1.55-49.54 1.656-73.65 4.828-33.46 14.9-62 25.42-88.72 1.65-3.807 3.589-6.028 5.564-7.066l-0.2864 18.82 16.06-0.0728 2.053-28.89 6.436 34.76 5.587 49.11 3.684 38.08" /><path d="m-1016 386.9 15.55 9.025 9.579 22.68 10.46-0.0782" /><path d="m-1013 404.7 9.631-0.3353 0.8187 6.587" /></g><g stroke-width="1.235"><path d="m-997 403 1.534 51.96" /><path d="m-1014 394c3.846 0.7168 7.854 1.883 8.534 10.46" /><path d="m-1014 398.3c2.112 0.3978 4.312 1.045 4.686 5.808" /><path d="m-1001 423-9.528 0.3388" /><path d="m-1e3 434.5-10.08-6.143" /><path d="m-1023 345.2 9.693-126.9" /><path d="m-1032 132.1 7.906 12.82-0.6995 77.3 5.148 15.9-23.52 119.3" /><path d="m-1016 148.5-3.453 0.1228-0.6084-23.97" /><path d="m-1019 132.2-27.05 0.3388" /><path d="m-1016 155.4-8.841 3.401" /><path d="m-1082 377 0.096-96.87 27.05-59.28c2.514-5.594 8.64-5.563 8.608 1.947l0.3207 139.8" /><path d="m-1058 396-8.192 12.59-4.323-21.17-19.39-17.21" /><path d="m-1070 439.1 3.058-30.53" /><path d="m-1074 486.9-7.16-9.741 10.22-89.8" /><path d="m-1120 480.5 10.32-9.459 9.93-41.22 0.6552-26.35" /><path d="m-1117 532.3-0.5167-45.9-3.262 0.116" /><path d="m-980 222.3c-7.26 0.1258-15.57 13.55-16.05 24.16l-0.1834 50.61 7.001 11.71-0.1374 49.81c-0.04 6.441 4.657 20.68 9.372 20.68" /><path d="m-980 338.1-12.96 0.1612-3.274 1.891-0.1358 41.01 6.339 4.376 0.2599 18.63 2.848 8.391 6.927 0.0492" /><path d="m-991.1 231.6-6.188-14.88c-0.9688-2.648-4.245-2.897-5.656 0.12l-3.07 7.59c-1.04 2.572-3.215 2.474-7.22 2.412" /><path d="m-996.5 306.7-9.349-1.256-12.43-14.28" /><path d="m-989.7 396.4-4.595 0.1251-2.119-3.447 7e-3 -11.92" /><path d="m-980 428.1-5.108 0.0863-3.533-6.662-7.762 0.0203" /><path d="m-980 450.5-15.52 0.0736" /><path d="m-1008 537.8c-5.648 0.4755-13.23 0.6815-21.31 0.7175m-10.38-0.0376c-13.37-0.1452-26.46-0.6273-33.14-1.022" /></g><path d="m-1039 526.4h9.872v19.46h-9.872z"  stroke-width="1.235"/><g stroke-width="1.235"><ellipse transform="matrix(.9999 .01048 -.01577 .9999 0 0)" cx="-1027" cy="512.5" rx="7.806" ry="7.922" /><ellipse transform="matrix(.9999 .01049 -.01576 .9999 0 0)" cx="-1027" cy="512.5" rx="4.754" ry="4.828" /><ellipse transform="matrix(.9999 .01048 -.01577 .9999 0 0)" cx="-1027" cy="486.3" rx="7.806" ry="7.922" /><ellipse transform="matrix(.9999 .01049 -.01576 .9999 0 0)" cx="-1027" cy="486.3" rx="4.754" ry="4.828" /></g><g stroke-width="1.235"><path d="m-1027 538.8-0.3917-63.78" /><path d="m-1042 538.8-0.3917-63.78" /><path d="m-1059 537.8-0.3021-49.19c-0.1094-2.395-1.083-4.291-3.274-5.498l-7.356-4.224-2.002-12.57" /><path d="m-1007 473.5-19.64-0.0272" /><path d="m-1041 370c-4.658-0.2126-6.3 7.459-14.7 32.28l9.311 71.43 3.555-0.0979" /><path d="m-1016 379.9-31.96 0.0435" /></g><path d="m-1038 363.4h12.1l-0.5625 8.897h-11.78z"  stroke-width="1.235"/><path d="m-1097 305.8 8.214-16.82 7.101-8.862"  stroke-width="1.235"/><path d="m-1048 550.8 0.1931 3.236 4.462 0.0428 4.069 3.185 20.66-0.1287 5.894-3.893 0.2372-3.069"  stroke-width="1.764"/><path d="m-1066 550.6 1.124 3.384 11.32-0.0186 0.953-3.596"  stroke-width="1.764"/><g stroke-width="1.235"><path d="m-1015 328.8 15.25 14.5v19.46l-18.5-34.12z" /><path d="m-1064 271.1h10.68l3.434 5.657v39.61l-8.014-0.047-9.504-9.676 0.044-29.76z" /><path d="m-1032 171.9c1.296-2.832 5.223-1.834 4.936 1.326l-0.7208 7.601c-0.5743 6.139-10.29 3.444-7.574-2.088z" /></g><path d="m-980 312.1-6.789 0.025-4.265-7.028 0.0871-59.12c0.2033-6.616 6.379-12.91 10.97-13.11"  stroke-width="1.764"/><g stroke-width="1.235"><path d="m-980 237.5-5.018 3.869-3.193 6.47 9e-3 19 6.11 22.53 2.092 0.0412" /><path d="m-980 258c-4.08 0.0718-5.643 7e-3 -8.024-1.199" /><path d="m-980 274.8c-2.336 0.0175-4.444-0.3949-6.478-1.552" /><path d="m-980 246.2c-4.803 0.1522-6.668 4.769-8.024 10.6" /><path d="m-980 301.8-1.782-8e-3 -9.23-32.15" /><path d="m-983.9 294.1-2.919 18.05" /><path d="m-985.6 288.2-3.627 19.38" /></g><ellipse transform="matrix(.9999 .01051 -.01574 .9999 0 0)" cx="-1082" cy="286.6" rx="2.628" ry="2.673"  stroke-width="1.235"/><ellipse transform="matrix(.9999 .01051 -.01574 .9999 0 0)" cx="-1103" cy="534.3" rx="2.628" ry="2.673"  stroke-width="1.235"/><ellipse transform="matrix(.9999 .0105 -.01575 .9999 0 0)" cx="-1026" cy="240.2" rx="3.13" ry="3.182"  stroke-width="1.235"/><path d="m-1080 332.2h4.834v10.09h-4.834z"  stroke-width="1.235"/><ellipse transform="matrix(.9999 .01085 -.01523 .9999 0 0)" cx="-1087" cy="520.5" rx="4.594" ry="4.828"  stroke-width="1.235"/><path d="m-1087 490c-2.069-0.0201-3.904 1.416-4.207 2.457l-2.408 7.537c-0.2301-0.0251-0.4612-0.0401-0.6926-0.0449-4.605-0.0507-8.399 3.828-8.472 8.664-0.074 4.835 3.599 8.796 8.204 8.846 4.606 0.0507 8.4-3.83 8.472-8.666 0.01-0.5649-0.04-1.129-0.1378-1.684l3.322-10.25c0.2781-0.6201 0.428-1.295 0.4397-1.979 0.042-2.667-1.982-4.851-4.52-4.879z"  stroke-width="1.235"/><g stroke-width="1.764"><path d="m-887 524.8c0.6788-24.75 1.549-49.54-1.656-73.65-4.828-33.46-14.9-62-25.42-88.72-1.65-3.807-3.589-6.028-5.564-7.066l0.2864 18.82-16.06-0.0728-2.053-28.89-6.436 34.76-5.587 49.11-3.684 38.08" /><path d="m-944.4 386.9-15.55 9.025-9.579 22.68-10.46-0.0782" /><path d="m-946.9 404.7-9.631-0.3353-0.8187 6.587" /></g><g stroke-width="1.235"><path d="m-963 403-1.534 51.96" /><path d="m-945.6 394c-3.846 0.7168-7.854 1.883-8.534 10.46" /><path d="m-945.9 398.3c-2.112 0.3978-4.312 1.045-4.686 5.808" /><path d="m-958.7 423 9.528 0.3388" /><path d="m-959.5 434.5 10.08-6.143" /><path d="m-937.5 345.2-9.693-126.9" /><path d="m-928.1 132.1-7.906 12.82 0.6995 77.3-5.148 15.9 23.52 119.3" /><path d="m-944.2 148.5 3.453 0.1228 0.6084-23.97" /><path d="m-940.5 132.2 27.05 0.3388" /><path d="m-944.5 155.4 8.841 3.401" /><path d="m-877.8 377-0.0965-96.87-27.05-59.28c-2.514-5.594-8.64-5.563-8.608 1.947l-0.3208 139.8" /><path d="m-901.6 396 8.192 12.59 4.323-21.17 19.39-17.21" /><path d="m-890.4 439.1-3.058-30.53" /><path d="m-886.1 486.9 7.16-9.741-10.22-89.8" /><path d="m-839.9 480.5-10.32-9.459-9.93-41.22-0.6552-26.35" /><path d="m-842.6 532.3 0.5167-45.9 3.262 0.116" /><path d="m-980 222.3c7.26 0.1258 15.57 13.55 16.05 24.16l0.1834 50.61-7.001 11.71 0.1374 49.81c0.04 6.441-4.657 20.68-9.372 20.68" /><path d="m-980 338.1 12.96 0.1612 3.274 1.891 0.1358 41.01-6.339 4.376-0.2599 18.63-2.848 8.391-6.927 0.0492" /><path d="m-968.9 231.6 6.188-14.88c0.9688-2.648 4.245-2.897 5.656 0.12l3.07 7.59c1.04 2.572 3.215 2.474 7.22 2.412" /><path d="m-963.5 306.7 9.349-1.256 12.43-14.28" /><path d="m-970.3 396.4 4.595 0.1251 2.119-3.447-7e-3 -11.92" /><path d="m-980 428.1 5.108 0.0863 3.533-6.662 7.762 0.0203" /><path d="m-980 450.5 15.52 0.0736" /><path d="m-952.2 537.8c5.648 0.4755 13.23 0.6815 21.31 0.7175m10.38-0.0376c13.37-0.1452 26.46-0.6273 33.14-1.022" /></g><path d="m-920.6 526.4h-9.872v19.46h9.872z"  stroke-width="1.235"/><g stroke-width="1.235"><ellipse transform="matrix(-.9999 .01048 .01577 .9999 0 0)" cx="933.1" cy="491.9" rx="7.806" ry="7.922" /><ellipse transform="matrix(-.9999 .01049 .01576 .9999 0 0)" cx="933.1" cy="491.9" rx="4.754" ry="4.828" /><ellipse transform="matrix(-.9999 .01048 .01577 .9999 0 0)" cx="932.7" cy="465.7" rx="7.806" ry="7.922" /><ellipse transform="matrix(-.9999 .01049 .01576 .9999 0 0)" cx="932.7" cy="465.7" rx="4.754" ry="4.828" /></g><g stroke-width="1.235"><path d="m-933.5 538.8 0.3917-63.78" /><path d="m-917.8 538.8 0.3917-63.78" /><path d="m-900.5 537.8 0.3021-49.19c0.1095-2.395 1.083-4.291 3.275-5.498l7.356-4.224 2.002-12.57" /><path d="m-952.8 473.5 19.64-0.0272" /><path d="m-919.1 370c4.659-0.2126 6.3 7.459 14.7 32.28l-9.311 71.43-3.555-0.0979" /><path d="m-943.9 379.9 31.96 0.0435" /></g><path d="m-921.8 363.4h-12.1l0.5625 8.897h11.78z"  stroke-width="1.235"/><path d="m-862.6 305.8-8.214-16.82-7.101-8.862"  stroke-width="1.235"/><path d="m-912.5 550.8-0.1931 3.236-4.462 0.0428-4.069 3.185-20.66-0.1287-5.894-3.893-0.2373-3.069"  stroke-width="1.764"/><path d="m-894.5 550.6-1.124 3.384-11.32-0.0186-0.953-3.596"  stroke-width="1.764"/><g stroke-width="1.235"><path d="m-945.3 328.8-15.25 14.5v19.46l18.5-34.12z" /><path d="m-895.6 271.1h-10.68l-3.434 5.657v39.61l8.014-0.047 9.504-9.676-0.0442-29.76z" /><path d="m-927.6 171.9c-1.296-2.832-5.223-1.834-4.936 1.326l0.7208 7.601c0.5743 6.139 10.29 3.444 7.574-2.088z" /></g><path d="m-980 312.1 6.789 0.025 4.265-7.028-0.0871-59.12c-0.2033-6.616-6.379-12.91-10.97-13.11"  stroke-width="1.764"/><g stroke-width="1.235"><path d="m-980 237.5 5.018 3.869 3.193 6.47-9e-3 19-6.11 22.53-2.092 0.0412" /><path d="m-980 258c4.08 0.0718 5.643 7e-3 8.024-1.199" /><path d="m-980 274.8c2.336 0.0175 4.444-0.3949 6.478-1.552" /><path d="m-980 246.2c4.803 0.1522 6.668 4.769 8.024 10.6" /><path d="m-980 301.8 1.782-8e-3 9.23-32.15" /><path d="m-976.1 294.1 2.919 18.05" /><path d="m-974.4 288.2 3.627 19.38" /></g><ellipse transform="matrix(-.9999 .01051 .01574 .9999 0 0)" cx="877.6" cy="266" rx="2.628" ry="2.673"  stroke-width="1.235"/><ellipse transform="matrix(-.9999 .01051 .01574 .9999 0 0)" cx="856.9" cy="513.7" rx="2.628" ry="2.673"  stroke-width="1.235"/><ellipse transform="matrix(-.9999 .0105 .01575 .9999 0 0)" cx="934.3" cy="219.6" rx="3.13" ry="3.182"  stroke-width="1.235"/><path d="m-880.4 332.2h-4.834v10.09h4.834z"  stroke-width="1.235"/><ellipse transform="matrix(-.9999 .01085 .01523 .9999 0 0)" cx="873.1" cy="499.3" rx="4.594" ry="4.828"  stroke-width="1.235"/><path d="m-872.9 490c2.069-0.0201 3.904 1.416 4.207 2.457l2.408 7.537c0.2301-0.0251 0.4612-0.0401 0.6927-0.0449 4.605-0.0507 8.399 3.828 8.472 8.664 0.0739 4.835-3.599 8.796-8.204 8.846-4.606 0.0507-8.4-3.83-8.472-8.666-6e-3 -0.5649 0.0402-1.129 0.1378-1.684l-3.322-10.25c-0.2782-0.6201-0.4281-1.295-0.4398-1.979-0.0416-2.667 1.983-4.851 4.52-4.879z"  stroke-width="1.235"/></g><g  ><rect x="145.8" y="240.1" width="14.39" height="14.29" rx="1.971" ry="1.821" fill="#ff3ae1"    stroke-width="1.554"><desc>{ "type": "utility", "i": 6 }</desc></rect><rect x="430.8" y="128.2" width="8.144" height="8.073" fill="#979797"   stroke-width="3.587"><desc>{ "type": "gunsight", "cl": "gun", "i": 0 }</desc></rect><g fill="none" stroke="#979797" stroke-width="3.587"><path d="m442.9 86.92c21.52 3.996 37.82 22.87 37.82 45.55 0 5.371-0.9139 10.53-2.595 15.33m-7.842 13.97c-8.496 10.4-21.42 17.03-35.89 17.03-14.38 0-27.24-6.555-35.74-16.84m-7.716-13.37c-1.862-5.019-2.88-10.45-2.88-16.12 0-23.05 16.84-42.18 38.89-45.74" /><g><path d="m434.9 71.19v15.85" /><path d="m395.6 155.1-13.68 8.014" /><path d="m474.2 155.1 13.68 8.014" /></g></g><g fill="#979797" ><circle cx="342.5" cy="136.9" r="3.783"  stroke-width="3.587"><desc>{ "type": "hard_point", "cl": "gun", "i": 2 }</desc></circle><circle cx="435.1" cy="124.4" r="3.783"  stroke-width="2.869"><desc>{ "type": "hard_point", "cl": "gun", "i": 1 }</desc></circle><circle cx="232.6" cy="142.7" r="3.783"  stroke-width="3.587"><desc>{ "type": "gunsight", "cl": "gun", "i": 2 }</desc></circle></g><g ><rect x="186.2" y="356" width="32.15" height="58.21" rx="3.114" ry="3.051" fill="#4df346"   stroke-width="1.661"><desc>{ "type": "hard_point", "i": 1 }</desc></rect><g><path d="m681.4 358.6h-23.86v24.37h23.86z" fill="#f39746"   stroke-width="1.235"><desc>{ "type": "other", "i": "cargo hatch" }</desc></path><path d="m657.2 244.5h24.47v37.54h-24.47z" fill="#f39745"   stroke-width="1.235"><desc>{ "type": "misc", "i": "landing gear" }</desc></path><path d="m197.3 259.4-3.193 6.47 9e-3 19 6.11 22.53h4.184l6.11-22.53 9e-3 -19-3.193-6.47-5.018-4.186z" fill="#f39746"   stroke-width="1.764"><desc>{ "type": "other", "i": "canopy" }</desc></path></g></g><g fill="#f39745" ><path d="m140 579h27.57l-13.78 14.54z"   stroke-width="1.764"><desc>{ "type": "misc", "i": "thrusters" }</desc></path><g stroke-width="1.764"><ellipse cx="95.64" cy="293.4" rx="5.568" ry="5.714"  ><desc>{ "type": "misc", "i": "thrusters" }</desc></ellipse><ellipse cx="71.12" cy="540.8" rx="5.568" ry="5.714"  ><desc>{ "type": "misc", "i": "thrusters" }</desc></ellipse><ellipse cx="333.4" cy="540.7" rx="5.568" ry="5.714"  ><desc>{ "type": "misc", "i": "thrusters" }</desc></ellipse><ellipse cx="309" cy="293.2" rx="5.568" ry="5.714"  ><desc>{ "type": "misc", "i": "thrusters" }</desc></ellipse><ellipse cx="595.1" cy="244.8" rx="5.568" ry="5.714"  ><desc>{ "type": "misc", "i": "thrusters" }</desc></ellipse><ellipse cx="744.1" cy="244.8" rx="5.568" ry="5.714"  ><desc>{ "type": "misc", "i": "thrusters" }</desc></ellipse><ellipse cx="799.7" cy="540.6" rx="5.568" ry="5.714"  ><desc>{ "type": "misc", "i": "thrusters" }</desc></ellipse><ellipse cx="539.3" cy="540.7" rx="5.568" ry="5.714"  ><desc>{ "type": "misc", "i": "thrusters" }</desc></ellipse></g><g stroke-width="1.764"><path d="m117.8 579h13.49l-6.745 7.114z"  ><desc>{ "type": "misc", "i": "thrusters" }</desc></path><path d="m265 579h-27.57l13.78 14.54z"  ><desc>{ "type": "misc", "i": "thrusters" }</desc></path><path d="m287.2 579h-13.49l6.745 7.114z"  ><desc>{ "type": "misc", "i": "thrusters" }</desc></path><path d="m607.8 579h27.57l-13.78 14.54z"  ><desc>{ "type": "misc", "i": "thrusters" }</desc></path><path d="m585.5 579h13.49l-6.745 7.114z"  ><desc>{ "type": "misc", "i": "thrusters" }</desc></path><path d="m732.7 579h-27.57l13.78 14.54z"  ><desc>{ "type": "misc", "i": "thrusters" }</desc></path><path d="m755 579h-13.49l6.745 7.114z"  ><desc>{ "type": "misc", "i": "thrusters" }</desc></path><path d="m137 137.1h27.57l-13.78-14.54z"  ><desc>{ "type": "misc", "i": "thrusters" }</desc></path><path d="m240 137.1h27.57l-13.78-14.54z"  ><desc>{ "type": "misc", "i": "thrusters" }</desc></path><path d="m604.1 137.1h27.57l-13.78-14.54z"  ><desc>{ "type": "misc", "i": "thrusters" }</desc></path><path d="m707.1 137.1h27.57l-13.78-14.54z"  ><desc>{ "type": "misc", "i": "thrusters" }</desc></path></g><g stroke-width="1.764"><path d="m57.17 475.6h18.09l-9.043-9.539z"  ><desc>{ "type": "misc", "i": "thrusters" }</desc></path><path d="m329.3 475.6h18.09l-9.043-9.539z"  ><desc>{ "type": "misc", "i": "thrusters" }</desc></path><path d="m524.6 475.6h18.09l-9.043-9.539z"  ><desc>{ "type": "misc", "i": "thrusters" }</desc></path><path d="m796.7 475.6h18.09l-9.043-9.539z"  ><desc>{ "type": "misc", "i": "thrusters" }</desc></path></g><path d="m608 450.4 2.99-3.359h13.08l3.17 3.359v26.76h-19.24z"   stroke-width="1.235"><desc>{ "type": "misc", "i": "landing gear" }</desc></path><path d="m711.7 450.4 2.99-3.359h13.08l3.17 3.359v26.76h-19.24z"   stroke-width="1.235"><desc>{ "type": "misc", "i": "landing gear" }</desc></path></g><g fill="#ff3ae1"  stroke-width="1.554"><rect x="244.6" y="240.2" width="14.39" height="14.29" rx="1.971" ry="1.821"  ><desc>{ "type": "utility", "i": 5 }</desc></rect><rect x="605.4" y="291.9" width="14.39" height="14.29" rx="1.971" ry="1.821"  ><desc>{ "type": "utility", "i": 2 }</desc></rect><rect x="719.1" y="291.9" width="14.39" height="14.29" rx="1.971" ry="1.821"  ><desc>{ "type": "utility", "i": 1 }</desc></rect><rect x="581" y="504.9" width="14.39" height="14.29" rx="1.971" ry="1.821"  ><desc>{ "type": "utility", "i": 4 }</desc></rect><rect x="743.7" y="505" width="14.39" height="14.29" rx="1.971" ry="1.821"  ><desc>{ "type": "utility", "i": 3 }</desc></rect></g><g fill="#4df346"  stroke-width="1.235"><path d="m117.9 289.1h10.68l3.434 5.657v39.61l-8.014-0.047-9.504-9.676 0.044-29.76z"  ><desc>{ "type": "hard_point", "i": 2 }</desc></path><path d="m286.7 289.1h-10.68l-3.434 5.657v39.61l8.014-0.047 9.504-9.676-0.044-29.76z"  ><desc>{ "type": "hard_point", "i": 3 }</desc></path><path d="m149.9 189.9c1.296-2.832 5.223-1.834 4.936 1.326l-0.7208 7.601c-0.5743 6.139-10.29 3.444-7.574-2.088z"  ><desc>{ "type": "hard_point", "i": 4 }</desc></path><path d="m254.7 189.9c-1.296-2.832-5.223-1.834-4.936 1.326l0.7208 7.601c0.5743 6.139 10.29 3.444 7.574-2.088z"  ><desc>{ "type": "hard_point", "i": 5 }</desc></path></g><g fill="#979797"  stroke-width="3.587"><circle cx="526.1" cy="136.9" r="3.783" ><desc>{ "type": "hard_point", "cl": "gun", "i": 3 }</desc></circle><circle cx="375" cy="141.8" r="3.783" ><desc>{ "type": "hard_point", "cl": "gun", "i": 4 }</desc></circle><circle cx="493.6" cy="141.8" r="3.783" ><desc>{ "type": "hard_point", "cl": "gun", "i": 5 }</desc></circle></g><g fill="#f39745"  stroke-width="1.764"><ellipse cx="147.5" cy="493.4" rx="7.693" ry="7.894"  ><desc>{ "type": "misc", "i": "heat vents" }</desc></ellipse><ellipse cx="147.5" cy="519.5" rx="7.693" ry="7.894"  ><desc>{ "type": "misc", "i": "heat vents" }</desc></ellipse><ellipse cx="257" cy="493.4" rx="7.693" ry="7.894"  ><desc>{ "type": "misc", "i": "heat vents" }</desc></ellipse><ellipse cx="257" cy="519.5" rx="7.693" ry="7.894"  ><desc>{ "type": "misc", "i": "heat vents" }</desc></ellipse></g><path d="m194.2 235.9a8.125 7.918 0 0 0 8.125 7.918 8.125 7.918 0 0 0 8.125-7.918 8.125 7.918 0 0 0-1.904-5.082l-6.221-9.992-6.199 9.959a8.125 7.918 0 0 0-1.926 5.115z" fill="#46d2f3"    stroke-width="1.764"><desc>{ "type": "internal", "i": "entrance" }</desc></path></g></svg>
