<svg width="870" height="640" clip-rule="evenodd" fill-rule="evenodd" image-rendering="optimizeQuality" shape-rendering="geometricPrecision" text-rendering="geometricPrecision" version="1.1" viewBox="0 0 870 640" xml:space="preserve" xmlns="http://www.w3.org/2000/svg">
<g transform="translate(1682 44.1)"  fill="none"  ><path d="m-1037 80.04-8.879 0.1738-18.2 36.43 1.369 2.166-4.814 9.945-2.342 0.5371-6.072 11.04-15.32 11.24-36.56 84.09-0.2676 9.664 6.682 4.732-34.53 93.48 1.893 3.178-3.85 0.0352-28.55 29.81-2.342 4.709 12.44 73.09c10.08 6.101 13.84 14.15 15.66 22.79l11.06 44.23 24.07 2.008-2.67-17.39 17.03 0.2324 3.121 3.943 46.96 0.1309 0.7148 25.66 23.39 0.4883 23.39-0.4883 0.7149-25.66 46.96-0.1309 3.121-3.943 17.03-0.2324-2.67 17.39 24.07-2.008 11.06-44.23c1.822-8.645 5.586-16.69 15.66-22.79l12.44-73.09-2.342-4.709-28.55-29.81-3.85-0.0352 1.893-3.178-34.53-93.48 6.682-4.732-0.2676-9.664-36.56-84.09-15.32-11.24-6.072-11.04-2.344-0.5371-4.812-9.945 1.369-2.166-18.2-36.43z"  stroke-width="1.764"/><g stroke-width="1.764"><path d="m-1129 506-5.269-32.16c-1.532-10.02 5.039-17.19 10.32-22.71l10.56-63.58-41.43-40.85" /><path d="m-1128 515 66.32 15.44" /><path d="m-1037 191-11.73 0.0417-34.25 200.9 12.53 14.7 0.179 41.95-8.049 5.414 17.01 13.14 0.2068 43.19" /><path d="m-1123 451.1 8.608 3.264 36.23-0.432" /><path d="m-1112 443.2 2.683 4.155 27.47 0.2427 4.617-4.764 0.1748-32.88-12.17-15.19-10.33-0.0284-3.11 2.953z" /></g><path d="m-1037 197.3-5.74 0.1275-2.664 2.49-6.346 38.14 4.311 4.846 10.44 0.1079 10.44-0.1079 4.311-4.846-6.348-38.14-2.663-2.49z"  stroke-width="1.764"/><path d="m-1089 510.3 1.736 8.32 16.16 0.0665 1.388-8.374"  stroke-width="1.764"/><g stroke-width="1.235"><path d="m-1128 510.2-25.21-1.077" /><path d="m-1062 500.7-19.84-0.1922-5.389-5.552-43.61 0.1125" /><path d="m-1061 495-17.52 0.1052-0.1926-15.98-4.873 0.0208-0.1726-24.78" /></g><path d="m-1077 484.9h13.09v7.83h-13.09z"  stroke-width="1.235"/><g stroke-width="1.235"><ellipse transform="matrix(-.6687 .7435 .7577 .6527 0 0)" cx="1059" cy="-486.1" rx="4.205" ry="4.217" /><ellipse transform="matrix(-.6687 .7435 .7577 .6527 0 0)" cx="1121" cy="-520" rx="4.205" ry="4.217" /><ellipse transform="matrix(-.6687 .7435 .7577 .6527 0 0)" cx="1060" cy="-612.1" rx="4.205" ry="4.217" /><ellipse transform="matrix(-.6687 .7435 .7577 .6527 0 0)" cx="835.3" cy="-694" rx="4.205" ry="4.217" /></g><ellipse transform="matrix(.9864 -.1645 .1486 .9889 0 0)" cx="-1208" cy="240.5" rx="5.383" ry="5.338"  stroke-width="1.235"/><path d="m-1163 448.5 16.92-3.456 1.112-2.553-2.604-15.91-2.05-1.424-16.92 3.718-0.7731 2.468 2.682 15.54z"  stroke-width="1.235"/><path d="m-1166 453 23.53-4.796 1.545-3.542-3.62-22.06-2.851-1.975-23.53 5.159-1.075 3.423 3.728 21.55z"  stroke-width="1.235"/><ellipse transform="matrix(-.8732 -.4874 -.5045 .8634 0 0)" cx="839.2" cy="736.3" rx="5.294" ry="5.463"  stroke-width="1.235"/><path d="m-1102 238.4-13.06-5.126-1.094-2.413 5.957-14.21 1.844-1.446 14.43 5.585 0.3668 2.196-6.074 14.5z"  stroke-width="1.235"/><g stroke-width="1.235"><path d="m-1122 441.3 6.709 1.254 29.41-161.1-8.24-8.622-19.15 90.89 3.6 5.714-3.537 18.06" /><path d="m-1134 467.2-18.12-11.04-1.094-5.742" /><path d="m-1115 385.6-40.3 28.86-24.92-1.779-2.652-1.068" /><path d="m-1149 352.3-39.09 36.78" /></g><path d="m-1151 391.4h-7.446v7.775h7.446z"  stroke-width="1.235"/><g stroke-width="1.235"><path d="m-1172 392.6 2.77 21.02" /><path d="m-1139 361.6-14.35 12.5-15.25-3.178" /><path d="m-1158 373.2-12.49 11.86" /><path d="m-1152 333.1 7.578 3.988 9.297-3.748 28.57-72.48-15.16-10.84" /><path d="m-1133 479.2-27.75-0.5689" /><path d="m-1042 79.92-10.31 21.95-33.29 179.7" /><path d="m-1083 265-9.796 0.1413-5.225-4.066-8.775-0.1799" /><path d="m-1095 263.7-0.6574-7.839-31.29-23.05" /><path d="m-1101 251.6 14.89-35.59-28.46-12.42" /><path d="m-1092 153.7 12.5-1.982 10.22 11.74-16.24 52.57" /><path d="m-1073 158.6-7.75 6.804" /><path d="m-1086 172.1-13.55 37.18" /><path d="m-1084 465.1-7.845 0.1512-17.42 21.45-23.1-0.4736" /><path d="m-1087 472.6h-5.168l-10.07 12.55v7.094h15.24z" /><path d="m-1124 376.1 6.96-34 3.088-0.3127 12.74-64.41-1.517-2.24-7.797-3.396" /><path d="m-1117 342.1-16.59-11.56" /><path d="m-1113 334.4-18.03-12.28" /><path d="m-1111 325.5-16.59-10.24" /><path d="m-1109 316.8-15.63-8.806" /><path d="m-1107 308.1-14.68-7.368" /><path d="m-1106 299.8-13.48-6.289" /><path d="m-1104 291.7-12.52-5.57" /><path d="m-1102 283.7-11.08-4.611" /><path d="m-1064 164-5.379-0.5325" /><path d="m-1066 172.3-6.338-0.6523" /><path d="m-1067 179.6-7.417-0.6523" /><path d="m-1068 186.9-8.376-0.7722" /><path d="m-1069 194.5-9.214-0.892" /><path d="m-1071 201.7-9.814-0.892" /><path d="m-1072 209.4-10.89-1.252" /><path d="m-1159 423.1-0.8831-5.106 0.336-3.768" /><path d="m-1037 406.9-17.65 0.1303-2.122 3.391-0.1757 125.5" /></g><path d="m-1052 355.2 3.607-0.9566 21.5-0.0213 4.118 0.9781v27.73l-3.265 1.561-22.26-0.0504-3.702-1.511z"  stroke-width="1.235"/><path d="m-1058 317.6 5.071-4.727 30.23-0.0357 5.79 4.763v69.11l-4.591 3.726-31.3-0.0845-5.205-3.641z"  stroke-width="1.235"/><path d="m-1050 106.6h24.19v33.08h-24.19z"  stroke-width="1.235"/><g stroke-width="1.235"><path d="m-1037 124.6-0.014-17.5" /><path d="m-1049 133 12.04-8.329 11.79 8.429" /><path d="m-1037 291.6-17.74-0.1337-9.197-10.98" /></g><path d="m-1049 257.2h22.71v31.05h-22.71z"  stroke-width="1.235"/><path d="m-1045 260.9h14.91v16.81h-14.91z"  stroke-width="1.235"/><path d="m-1050 417 3.147-1.723 18.76-0.0383 3.593 1.761v49.94l-2.849 2.811-19.42-0.0908-3.23-2.72z"  stroke-width="1.235"/><g stroke-width="1.235"><path d="m-1037 484.9-14.94-7e-3 -5.045-4.158" /><path d="m-1037 497.1-19.87 0.0243" /><path d="m-1037 509.2-19.87 0.0243" /></g><path d="m-1045 500.4h14.91v5.542h-14.91z"  stroke-width="1.235"/><path d="m-1054 513.8h14.91v19.21h-14.91z"  stroke-width="1.235"/><g stroke-width="1.235"><path d="m-1037 296.5-18.06 0.1303-3.56 3.391-8.614 49.4-0.4115 8.165 2.986 2.666-0.017 8.321-2.964 2.71v17.16l8.819 10.21 21.83 0.0243" /><path d="m-1052 407.2-0.01-8.419" /><path d="m-1065 364.5 7.443-0.01" /><path d="m-1052 101.9-15.97 37.57-12.22 4.561" /><path d="m-1037 185.6-4.07 0.0591-4.09-3.367-10.96-0.0776-2.164-1.829 6.349-39.73 2.691-0.922" /><path d="m-1037 148.9-5.287 9e-3 -4.695 6.274-1.351 26.93" /></g><g stroke-width="1.764"><path d="m-946.1 506 5.269-32.16c1.532-10.02-5.039-17.19-10.32-22.71l-10.56-63.58 41.43-40.85" /><path d="m-946.8 515-66.32 15.44" /><path d="m-1037 191 11.73 0.0417 34.25 200.9-12.53 14.7-0.179 41.95 8.049 5.414-17.01 13.14-0.2068 43.19" /><path d="m-951.1 451.1-8.608 3.264-36.23-0.432" /><path d="m-962.9 443.2-2.683 4.155-27.47 0.2427-4.617-4.764-0.1748-32.88 12.17-15.19 10.33-0.0284 3.11 2.953z" /><path d="m-985.9 510.3-1.736 8.32-16.16 0.0665-1.388-8.374" /></g><g stroke-width="1.235"><path d="m-946.6 510.2 25.21-1.077" /><path d="m-1013 500.7 19.84-0.1922 5.389-5.552 43.61 0.1125" /><path d="m-1013 495 17.52 0.1052 0.1926-15.98 4.873 0.0208 0.1726-24.78" /></g><path d="m-997.6 484.9h-13.09v7.83h13.09z"  stroke-width="1.235"/><g stroke-width="1.235"><ellipse transform="matrix(.6687 .7435 -.7577 .6527 0 0)" cx="-295.7" cy="1057" rx="4.205" ry="4.217" /><ellipse transform="matrix(.6687 .7435 -.7577 .6527 0 0)" cx="-233" cy="1023" rx="4.205" ry="4.217" /><ellipse transform="matrix(.6687 .7435 -.7577 .6527 0 0)" cx="-294.6" cy="930.7" rx="4.205" ry="4.217" /><ellipse transform="matrix(.6687 .7435 -.7577 .6527 0 0)" cx="-519" cy="848.9" rx="4.205" ry="4.217" /></g><ellipse transform="matrix(-.9864 -.1645 -.1486 .9889 0 0)" cx="843.5" cy="581.9" rx="5.383" ry="5.338"  stroke-width="1.235"/><path d="m-911.7 448.5-16.92-3.456-1.112-2.553 2.604-15.91 2.05-1.424 16.92 3.718 0.7731 2.468-2.682 15.54z"  stroke-width="1.235"/><path d="m-909 453-23.53-4.796-1.545-3.542 3.62-22.06 2.851-1.975 23.53 5.159 1.075 3.423-3.728 21.55z"  stroke-width="1.235"/><ellipse transform="matrix(.8732 -.4874 .5045 .8634 0 0)" cx="-952.3" cy="-275.1" rx="5.294" ry="5.463"  stroke-width="1.235"/><path d="m-973.1 238.4 13.06-5.126 1.094-2.413-5.957-14.21-1.844-1.446-14.43 5.585-0.3668 2.196 6.074 14.5z"  stroke-width="1.235"/><g stroke-width="1.235"><path d="m-952.9 441.3-6.709 1.254-29.41-161.1 8.24-8.622 19.15 90.89-3.6 5.714 3.537 18.06" /><path d="m-940.9 467.2 18.12-11.04 1.094-5.742" /><path d="m-959.3 385.6 40.3 28.86 24.92-1.779 2.652-1.068" /><path d="m-925.8 352.3 39.09 36.78" /></g><path d="m-923.3 391.4h7.446v7.775h-7.446z"  stroke-width="1.235"/><g stroke-width="1.235"><path d="m-902.6 392.6-2.77 21.02" /><path d="m-935.6 361.6 14.35 12.5 15.25-3.178" /><path d="m-917 373.2 12.49 11.86" /><path d="m-922.6 333.1-7.578 3.988-9.297-3.748-28.57-72.48 15.16-10.84" /><path d="m-941.4 479.2 27.75-0.5689" /><path d="m-1033 79.92 10.31 21.95 33.29 179.7" /><path d="m-991.8 265 9.796 0.1413 5.225-4.066 8.775-0.1799" /><path d="m-980 263.7 0.6574-7.839 31.29-23.05" /><path d="m-974.1 251.6-14.89-35.59 28.46-12.42" /><path d="m-982.5 153.7-12.5-1.982-10.22 11.74 16.24 52.57" /><path d="m-1001 158.6 7.75 6.804" /><path d="m-989 172.1 13.55 37.18" /><path d="m-990.5 465.1 7.845 0.1512 17.42 21.45 23.1-0.4736" /><path d="m-987.2 472.6h5.168l10.07 12.55v7.094h-15.24z" /><path d="m-950.5 376.1-6.96-34-3.088-0.3127-12.74-64.41 1.517-2.24 7.797-3.396" /><path d="m-957.5 342.1 16.59-11.56" /><path d="m-961.6 334.4 18.03-12.28" /><path d="m-963.4 325.5 16.59-10.24" /><path d="m-965.4 316.8 15.63-8.806" /><path d="m-967.1 308.1 14.68-7.368" /><path d="m-968.6 299.8 13.48-6.289" /><path d="m-970.6 291.7 12.52-5.57" /><path d="m-972.1 283.7 11.08-4.611" /><path d="m-1011 164 5.379-0.5325" /><path d="m-1009 172.3 6.338-0.6523" /><path d="m-1008 179.6 7.417-0.6523" /><path d="m-1006 186.9 8.376-0.7722" /><path d="m-1005 194.5 9.214-0.892" /><path d="m-1004 201.7 9.814-0.892" /><path d="m-1002 209.4 10.89-1.252" /><path d="m-915.3 423.1 0.8831-5.106-0.336-3.768" /><path d="m-1037 406.9 17.65 0.1303 2.122 3.391 0.1757 125.5" /><path d="m-1037 291.6 17.74-0.1337 9.197-10.98" /><path d="m-1037 484.9 14.94-7e-3 5.045-4.158" /><path d="m-1037 497.1 19.87 0.0243" /><path d="m-1037 509.2 19.87 0.0243" /></g><path d="m-1020 513.8h-14.91v19.21h14.91z"  stroke-width="1.235"/><g stroke-width="1.235"><path d="m-1037 296.5 18.06 0.1303 3.56 3.391 8.614 49.4 0.4115 8.165-2.986 2.666 0.017 8.321 2.964 2.71v17.16l-8.819 10.21-21.83 0.0243" /><path d="m-1023 407.2 0.01-8.419" /><path d="m-1009 364.5-7.443-0.01" /><path d="m-1022 101.9 15.97 37.57 12.22 4.561" /><path d="m-1037 185.6 4.07 0.0591 4.09-3.367 10.96-0.0776 2.164-1.829-6.349-39.73-2.691-0.922" /><path d="m-1037 148.9 5.287 9e-3 4.695 6.274 1.351 26.93" /><path d="m-1078 239.5 12.24 1.986-22 120.9-11.96-2.852" /><path d="m-1081 200.8-4.678-3.158 7.164-22.01 4.825 0.4709" /><path d="m-996.7 239.5-12.24 1.986 22 120.9 11.96-2.852" /><path d="m-993.7 200.8 4.678-3.158-7.164-22.01-4.825 0.4709" /></g></g><g transform="translate(1651 44.1)"  fill="none"  ><path d="m-1425 80.04-8.879 0.1738-18.2 36.43 1.369 2.166-4.814 9.945-2.342 0.5371-6.072 11.04-15.32 11.24-36.56 84.09-0.2676 9.664 6.682 4.732-34.53 93.48 1.893 3.178-3.85 0.0352-28.55 29.81-2.342 4.709 12.44 73.09c10.08 6.101 13.84 14.15 15.66 22.79l11.06 44.23 82.38 18.28 0.1465 7.812 30.09 0.0156 30.1-0.0156 0.1465-7.812 82.38-18.28 11.06-44.23c1.822-8.645 5.586-16.69 15.66-22.79l12.44-73.09-2.342-4.709-28.55-29.81-3.85-0.0352 1.893-3.178-34.53-93.48 6.682-4.732-0.2675-9.664-36.56-84.09-15.32-11.24-6.072-11.04-2.344-0.5371-4.812-9.945 1.369-2.166-18.2-36.43z"  stroke-width="1.764"/><path d="m-1509 528.2-19.38-156.7-14.08-24.77"  stroke-width="1.235"/><g stroke-width="1.764"><path d="m-1447 213.9-41.91 44.25-4.458-0.1851-3.537-3.208-5.815 0.2941-6.607-5.042" /><path d="m-1506 358.7 62.15-43.28-2.889-101.5 2.088-53.39 7.962-19.65 3.962-3.59 8.068-0.0902" /><path d="m-1571 414.4 65.28-15.2-0.3761-40.45-11.63-5.514" /></g><g stroke-width="1.235"><path d="m-1528 371.5 7.383-7.774 27.12-105.7" /><path d="m-1482 156.1 4.089-5e-3 22.41-12.9 21.66-43.34 8.502 0.04547" /><path d="m-1425 542.5-30.1 5.013" /><path d="m-1539 351.3-26.04 25.55-10.53 11.23" /><path d="m-1425 360.3-11.33-0.3645-4.728-38.42-2.198-2.049-21.89 15.6 16.17 124.9-27.66 22 1.655 12.08-19.13 8.598 2.499 19.22 21.68 11.42 14.68 3.242 0.021 3.098" /><path d="m-1464 231.8-13.23-14.73 18.5-71.66" /><path d="m-1469 183.2 7.843-5.072 2.315-9.314 13.71-8.245" /><path d="m-1437 140.9-0.2277-15.62 5.533-11.99 0.039-13.61" /><path d="m-1434 99.88-0.3771-19.67" /><ellipse transform="rotate(-7.535)" cx="-1593" cy="228.3" rx="4.349" ry="4.911" /></g><path d="m-1554 445.7 13.74-2.397 0.9025-2.287-2.114-14.68-1.665-1.397-13.74 2.637-0.6277 2.224 2.177 14.35z"  stroke-width="1.235"/><path d="m-1557 449.7 19.1-3.325 1.255-3.172-2.939-20.36-2.315-1.937-19.1 3.657-0.8727 3.085 3.027 19.9z"  stroke-width="1.235"/><g stroke-width="1.235"><ellipse transform="rotate(-7.535)" cx="-1584" cy="291.8" rx="4.349" ry="4.911" /><ellipse transform="rotate(15.04)" cx="-1411" cy="778.5" rx="4.349" ry="4.911" /><ellipse transform="rotate(15.04)" cx="-1385" cy="725.9" rx="4.349" ry="4.911" /></g><ellipse transform="matrix(.9653 .2611 -.258 .9661 0 0)" cx="-1389" cy="648.5" rx="2.858" ry="3.246"  stroke-width="1.235"/><ellipse transform="matrix(-.8843 -.4669 -.4669 .8843 0 0)" cx="1219" cy="899.2" rx="4.349" ry="4.911"  stroke-width="1.235"/><path d="m-1495 236.2-11.79-3.753-0.9872-2.075 5.377-12.98 1.665-1.397 13.02 4.077 0.3311 1.927-5.482 13.24z"  stroke-width="1.235"/><g stroke-width="1.235"><path d="m-1520 279.5 2.819 0.7032 13.72-10.6 4.708-14.87" /><path d="m-1541 334.6 3.064 1.274 4.15-1.93 20.09-56.71" /><path d="m-1510 515.7-29.14-3.496" /><path d="m-1529 513.4-1.931-11.29" /><path d="m-1546 448.2 0.9515 5.96 5.718 5.06 6.261 32.7" /><path d="m-1553 410.4 2.024 12.2" /></g><path d="m-1488 278.1h24.2v37.41h-24.2z"  stroke-width="1.235"/><path d="m-1476 300.4-0.014-22.07"  stroke-width="1.235"/><path d="m-1488 308.7 12.04-8.329 11.79 8.429"  stroke-width="1.235"/><path d="m-1466 186.1h12.93v22.62h-12.93z"  stroke-width="1.235"/><g stroke-width="1.235"><path d="m-1459 199.6-0.014-13.35" /><path d="m-1465 204.7 6.436-5.037 6.301 5.097" /><path d="m-1473 198.2-7.874-2.373-15.59 12.55-6.476-2.494" /><path d="m-1500 207 14.34-33.31 22.76-13.94" /><path d="m-1490 347.5-0.041-19-17.11-17.6" /><path d="m-1490 337.5 33.78-24.09-1.837-46.98-12.03-11.38-0.01-17.26" /><path d="m-1497 273.1 21.04-1.328 12.17-11.51" /><path d="m-1457 280.1-14.51-12.5" /><path d="m-1445 277.8-11.54 12.33" /></g><path d="m-1492 364.1 25.03-14.02-0.2397 99.97-41.48 23.08-5.19-39.48 21.83-16.66z"  stroke-width="1.235"/><g stroke-width="1.235"><path d="m-1512 447.8 27.88-20.2 0.02-67.74" /><path d="m-1467 450.1-24.85-33.05" /><path d="m-1510 461.2 34.83-21.9 0.02-84.69" /><path d="m-1481 357.5-1.679-15.53" /><path d="m-1453 427-13.68 6.092" /><path d="m-1512 452.4-5.886 2.736" /></g><ellipse transform="matrix(.9915 -.1303 .132 .9912 0 0)" cx="-1533" cy="315.9" rx="8.593" ry="9.64"  stroke-width="1.235"/><g stroke-width="1.235"><path d="m-1425 447-2.516 0.1601-26.11 25.29-1.638 64.13" /><path d="m-1440 334-20.37 13.66-3.728-1.339" /><path d="m-1443 336.3 4.671 40.81-12.54 18.91 8.697 65.5" /><path d="m-1428 447.2-19.3-21.27" /><path d="m-1425 422-4.69 0.0638-10.43 10.77" /></g><g stroke-width="1.235"><path d="m-1431 211.4h-7.446v7.775h7.446z" /><path d="m-1437 479.7-10.68-1.918v7.775l10.68 1.918z" /><path d="m-1437 492.3-10.68-1.918v7.775l10.68 1.918z" /><path d="m-1429 518.7-21.23-1.601v14.75l21.23 1.601z" /><path d="m-1421 343.6h-7.446v7.775h7.446z" /></g><ellipse transform="matrix(-.8833 -.4687 -.4651 .8853 0 0)" cx="1230" cy="827.9" rx="2.692" ry="3.049"  stroke-width="1.235"/><g stroke-width="1.235"><path d="m-1462 155.4-10.49 5.853-5.546-5.123" /><path d="m-1441 151.7 2.63 5.205 8.503-0.0244 1.681 0.9932 3.4-1e-3" /><path d="m-1440 154 2.288-1.211 4.816-0.0846 2.528 0.9508 5.306 0.1261" /><path d="m-1445 171.6 4.126-6.841 2.578-0.7779 8.503-0.0244 1.681 0.9932 3.4-1e-3" /><path d="m-1446 189.2 3.162-2.362 5.581 0.0609 3.359 5.068 8.673-1e-3" /><path d="m-1425 229.1-16.61 0.224-5.094 2.446" /><path d="m-1425 287.1-5.51 0.0743-1.187-2.004-8.639-0.1343-4.416 2.616" /><path d="m-1488 461.8-4.577 19.12 7.081 18.19" /><path d="m-1341 528.2 19.38-156.7 14.08-24.77" /></g><g stroke-width="1.764"><path d="m-1403 213.9 41.91 44.25 4.458-0.1851 3.537-3.208 5.815 0.2941 6.607-5.042" /><path d="m-1344 358.7-62.15-43.28 2.889-101.5-2.088-53.39-7.962-19.65-3.962-3.59-8.068-0.0902" /><path d="m-1279 414.4-65.28-15.2 0.3761-40.45 11.63-5.514" /></g><g stroke-width="1.235"><path d="m-1322 371.5-7.383-7.774-27.12-105.7" /><path d="m-1368 156.1-4.089-5e-3 -22.41-12.9-21.66-43.34-8.502 0.04547" /><path d="m-1425 542.5 30.1 5.013" /><path d="m-1311 351.3 26.04 25.55 10.53 11.23" /><path d="m-1425 360.3 11.33-0.3645 4.728-38.42 2.198-2.049 21.89 15.6-16.17 124.9 27.66 22-1.655 12.08 19.13 8.598-2.499 19.22-21.68 11.42-14.68 3.242-0.021 3.098" /><path d="m-1386 231.8 13.23-14.73-18.5-71.66" /><path d="m-1381 183.2-7.843-5.072-2.315-9.314-13.71-8.245" /><path d="m-1413 140.9 0.2277-15.62-5.533-11.99-0.039-13.61" /><path d="m-1417 99.88 0.3771-19.67" /><ellipse transform="matrix(-.9914 -.1311 -.1311 .9914 0 0)" cx="1233" cy="602" rx="4.349" ry="4.911" /></g><path d="m-1296 445.7-13.74-2.397-0.9025-2.287 2.114-14.68 1.665-1.397 13.74 2.637 0.6277 2.224-2.177 14.35z"  stroke-width="1.235"/><path d="m-1294 449.7-19.1-3.325-1.255-3.172 2.939-20.36 2.315-1.937 19.1 3.657 0.8727 3.085-3.027 19.9z"  stroke-width="1.235"/><g stroke-width="1.235"><ellipse transform="matrix(-.9914 -.1311 -.1311 .9914 0 0)" cx="1242" cy="665.5" rx="4.349" ry="4.911" /><ellipse transform="matrix(-.9657 .2595 .2595 .9657 0 0)" cx="1341" cy="38.77" rx="4.349" ry="4.911" /><ellipse transform="matrix(-.9657 .2595 .2595 .9657 0 0)" cx="1368" cy="-13.77" rx="4.349" ry="4.911" /></g><ellipse transform="matrix(-.9653 .2611 .258 .9661 0 0)" cx="1364" cy="-95.66" rx="2.858" ry="3.246"  stroke-width="1.235"/><ellipse transform="rotate(-27.83)" cx="-1301" cy="-431.5" rx="4.349" ry="4.911"  stroke-width="1.235"/><path d="m-1355 236.2 11.79-3.753 0.9872-2.075-5.377-12.98-1.665-1.397-13.02 4.077-0.3311 1.927 5.482 13.24z"  stroke-width="1.235"/><g stroke-width="1.235"><path d="m-1330 279.5-2.819 0.7032-13.72-10.6-4.708-14.87" /><path d="m-1309 334.6-3.064 1.274-4.15-1.93-20.09-56.71" /><path d="m-1340 515.7 29.14-3.496" /><path d="m-1321 513.4 1.931-11.29" /><path d="m-1304 448.2-0.9515 5.96-5.718 5.06-6.261 32.7" /><path d="m-1297 410.4-2.024 12.2" /></g><path d="m-1362 278.1h-24.2v37.41h24.2z"  stroke-width="1.235"/><path d="m-1374 300.4 0.014-22.07"  stroke-width="1.235"/><path d="m-1362 308.7-12.04-8.329-11.79 8.429"  stroke-width="1.235"/><path d="m-1385 186.1h-12.93v22.62h12.93z"  stroke-width="1.235"/><g stroke-width="1.235"><path d="m-1391 199.6 0.014-13.35" /><path d="m-1385 204.7-6.436-5.037-6.301 5.097" /><path d="m-1377 198.2 7.874-2.373 15.59 12.55 6.476-2.494" /><path d="m-1350 207-14.34-33.31-22.76-13.94" /><path d="m-1360 347.5 0.041-19 17.11-17.6" /><path d="m-1360 337.5-33.78-24.09 1.837-46.98 12.03-11.38 0.01-17.26" /><path d="m-1353 273.1-21.04-1.328-12.17-11.51" /><path d="m-1393 280.1 14.51-12.5" /><path d="m-1405 277.8 11.54 12.33" /></g><path d="m-1358 364.1-25.03-14.02 0.2397 99.97 41.48 23.08 5.19-39.48-21.83-16.66z"  stroke-width="1.235"/><g stroke-width="1.235"><path d="m-1338 447.8-27.88-20.2-0.02-67.74" /><path d="m-1383 450.1 24.85-33.05" /><path d="m-1340 461.2-34.83-21.9-0.02-84.69" /><path d="m-1369 357.5 1.679-15.53" /><path d="m-1397 427 13.68 6.092" /><path d="m-1338 452.4 5.886 2.736" /></g><ellipse transform="matrix(-.9915 -.1303 -.132 .9912 0 0)" cx="1292" cy="687.1" rx="8.593" ry="9.64"  stroke-width="1.235"/><g stroke-width="1.235"><path d="m-1425 447 2.516 0.1601 26.11 25.29 1.638 64.13" /><path d="m-1410 334 20.37 13.66 3.728-1.339" /><path d="m-1407 336.3-4.671 40.81 12.54 18.91-8.697 65.5" /><path d="m-1423 447.2 19.3-21.27" /><path d="m-1425 422 4.69 0.0638 10.43 10.77" /></g><g stroke-width="1.235"><path d="m-1419 211.4h7.446v7.775h-7.446z" /><path d="m-1413 479.7 10.68-1.918v7.775l-10.68 1.918z" /><path d="m-1413 492.3 10.68-1.918v7.775l-10.68 1.918z" /><path d="m-1421 518.7 21.23-1.601v14.75l-21.23 1.601z" /></g><ellipse transform="matrix(.8833 -.4687 .4651 .8853 0 0)" cx="-1294" cy="-508" rx="2.692" ry="3.049"  stroke-width="1.235"/><g stroke-width="1.235"><path d="m-1388 155.4 10.49 5.853 5.546-5.123" /><path d="m-1409 151.7-2.63 5.205-8.503-0.0244-1.681 0.9932-3.4-1e-3" /><path d="m-1410 154-2.288-1.211-4.816-0.0846-2.528 0.9508-5.306 0.1261" /><path d="m-1405 171.6-4.126-6.841-2.578-0.7779-8.503-0.0244-1.681 0.9932-3.4-1e-3" /><path d="m-1404 189.2-3.162-2.362-5.581 0.0609-3.359 5.068-8.673-1e-3" /><path d="m-1425 229.1 16.61 0.224 5.094 2.446" /><path d="m-1425 287.1 5.51 0.0743 1.187-2.004 8.639-0.1343 4.416 2.616" /><path d="m-1362 461.8 4.577 19.12-7.081 18.19" /></g></g><g  ><rect x="431.2" y="128.2" width="8.144" height="8.073" fill="#979797"   stroke-width="3.587"><desc>{ "type": "gunsight", "cl": "gun", "i": 0 }</desc></rect><g fill="none" stroke="#979797" stroke-width="3.587"><path d="m443.3 86.92c21.52 3.996 37.82 22.87 37.82 45.55 0 5.371-0.9139 10.53-2.595 15.33m-7.842 13.97c-8.496 10.4-21.42 17.03-35.89 17.03-14.38 0-27.24-6.555-35.74-16.84m-7.716-13.37c-1.862-5.019-2.88-10.45-2.88-16.12 0-23.05 16.84-42.18 38.89-45.74" /><g><path d="m435.3 71.19v15.85" /><path d="m396 155.1-13.68 8.014" /><path d="m474.6 155.1 13.68 8.014" /></g></g><g ><circle cx="404.5" cy="134.5" r="3.783" fill="#979797"  stroke-width="2.869"><desc>{ "type": "hard_point", "cl": "gun", "i": 5 }</desc></circle><circle cx="578" cy="116.7" r="3.783" fill="#979797"  stroke-width="3.587"><desc>{ "type": "gunsight", "cl": "gun", "i": 1 }</desc></circle><rect x="209.2" y="251.9" width="15.32" height="15.03" rx="1.899" ry="1.755" fill="#ff3ae1"   stroke-width="1.497"><desc>{ "type": "utility", "i": 2 }</desc></rect><rect x="630.4" y="398.3" width="29.29" height="30.27" rx="4.259" ry="2.6" fill="#f39746"   stroke-width="1.794"><desc>{ "type": "other", "i": "cargo hatch" }</desc></rect><path d="m218.1 181.4h16.14l3.962 3.59 4.183 10.76-2.63 5.205-8.503-0.0244-1.681 0.9932h-6.799l-1.681-0.9932-8.503 0.0244-2.63-5.205 4.183-10.76z" fill="#f39746"   stroke-width="1.554"><desc>{ "type": "other", "i": "canopy" }</desc></path><rect x="163.1" y="322.2" width="24.2" height="37.41" rx="3.114" ry="3.051" fill="#4df346"   stroke-width="1.661"><desc>{ "type": "hard_point", "i": 2 }</desc></rect><g><ellipse transform="rotate(19.98)" cx="236.4" cy="201.4" rx="4.516" ry="4.897" fill="#f39745"   stroke-width="1.764"><desc>{ "type": "misc", "i": "thrusters" }</desc></ellipse><path d="m639.4 241.6-2.664 2.49-6.346 38.14 4.857 5.019 20.33-0.1736 4.311-4.846-6.348-38.14-2.663-2.49z" fill="#f49644"   stroke-width="1.764"><desc>{ "type": "misc", "i": "landing gear" }</desc></path><path d="m583.2 438.8-3.11 2.953-9.337 45.51 2.683 4.155 27.47 0.2427 4.617-4.764 0.1748-32.88-12.17-15.19z" fill="#f49644"   stroke-width="1.764"><desc>{ "type": "misc", "i": "landing gear" }</desc></path><path d="m595.2 584.9h17.66l-8.83 9.315z" fill="#f39745"   stroke-width="1.764"><desc>{ "type": "misc", "i": "thrusters" }</desc></path><path d="m707 438.8 3.11 2.953 9.337 45.51-2.683 4.155-27.47 0.2427-4.617-4.764-0.1748-32.88 12.17-15.19z" fill="#f49644"   stroke-width="1.764"><desc>{ "type": "misc", "i": "landing gear" }</desc></path></g><rect x="265.1" y="322.2" width="24.2" height="37.41" rx="3.114" ry="3.051" fill="#4df346"   stroke-width="1.661"><desc>{ "type": "hard_point", "i": 1 }</desc></rect><rect x="632.9" y="150.7" width="24.19" height="33.08" rx="3.114" ry="3.051" fill="#4df346"   stroke-width="1.661"><desc>{ "type": "hard_point", "i": 3 }</desc></rect></g><g fill="#ff3ae1"  stroke-width="1.497"><rect x="227.9" y="251.9" width="15.32" height="15.03" rx="1.899" ry="1.755"  ><desc>{ "type": "utility", "i": 1 }</desc></rect><rect x="519.8" y="431.9" width="15.32" height="15.03" rx="1.899" ry="1.755"  ><desc>{ "type": "utility", "i": 3 }</desc></rect><rect x="755.1" y="431.9" width="15.32" height="15.03" rx="1.899" ry="1.755"  ><desc>{ "type": "utility", "i": 4 }</desc></rect></g><g fill="#f39745" ><g stroke-width="1.764"><ellipse transform="matrix(-.9398 .3417 .3417 .9398 0 0)" cx="-188.7" cy="356" rx="4.516" ry="4.897"  ><desc>{ "type": "misc", "i": "thrusters" }</desc></ellipse><ellipse transform="matrix(-.994 .1089 .1089 .994 0 0)" cx="-49.41" cy="487.5" rx="4.516" ry="4.897"  ><desc>{ "type": "misc", "i": "thrusters" }</desc></ellipse><ellipse transform="rotate(6.254)" cx="400.2" cy="438.3" rx="4.516" ry="4.897"  ><desc>{ "type": "misc", "i": "thrusters" }</desc></ellipse></g><ellipse transform="matrix(-.7981 -.6025 .6321 -.7749 0 0)" cx="-619.5" cy="132.3" rx="5.243" ry="5.634"   stroke-width="1.765"><desc>{ "type": "misc", "i": "thrusters" }</desc></ellipse><ellipse transform="matrix(.7981 -.6025 -.6321 -.7749 0 0)" cx="380.9" cy="-645.6" rx="5.243" ry="5.634"   stroke-width="1.765"><desc>{ "type": "misc", "i": "thrusters" }</desc></ellipse><ellipse transform="matrix(.9998 .02118 .01678 -.9999 0 0)" cx="534.3" cy="-469.5" rx="5.338" ry="5.375"   stroke-width="1.764"><desc>{ "type": "misc", "i": "thrusters" }</desc></ellipse><ellipse transform="matrix(-.9998 .02118 -.01678 -.9999 0 0)" cx="-755.8" cy="-496.8" rx="5.338" ry="5.375"   stroke-width="1.764"><desc>{ "type": "misc", "i": "thrusters" }</desc></ellipse><g stroke-width="1.764"><path d="m577.5 584.9h17.66l-8.83 9.315z"  ><desc>{ "type": "misc", "i": "thrusters" }</desc></path><path d="m695.6 584.9h17.66l-8.83 9.315z"  ><desc>{ "type": "misc", "i": "thrusters" }</desc></path><path d="m677.9 584.9h17.66l-8.83 9.315z"  ><desc>{ "type": "misc", "i": "thrusters" }</desc></path><path d="m176.2 584.9h17.66l-8.83 9.315z"  ><desc>{ "type": "misc", "i": "thrusters" }</desc></path><path d="m158.5 584.9h17.66l-8.83 9.315z"  ><desc>{ "type": "misc", "i": "thrusters" }</desc></path><path d="m276.6 584.9h17.66l-8.83 9.315z"  ><desc>{ "type": "misc", "i": "thrusters" }</desc></path><path d="m258.9 584.9h17.66l-8.83 9.315z"  ><desc>{ "type": "misc", "i": "thrusters" }</desc></path><path d="m85.47 388.8h17.66l-8.83-9.315z"  ><desc>{ "type": "misc", "i": "thrusters" }</desc></path><path d="m348.5 388.8h17.66l-8.83-9.315z"  ><desc>{ "type": "misc", "i": "thrusters" }</desc></path><path d="m504.7 388.8h17.66l-8.83-9.315z"  ><desc>{ "type": "misc", "i": "thrusters" }</desc></path><path d="m767.8 388.8h17.66l-8.83-9.315z"  ><desc>{ "type": "misc", "i": "thrusters" }</desc></path></g></g><rect x="185.7" y="230.2" width="12.93" height="22.62" rx="3.114" ry="3.051" fill="#4df346"    stroke-width="1.661"><desc>{ "type": "hard_point", "i": 5 }</desc></rect><rect x="253.7" y="230.2" width="12.93" height="22.62" rx="3.114" ry="3.051" fill="#4df346"    stroke-width="1.661"><desc>{ "type": "hard_point", "i": 4 }</desc></rect><g fill="#979797"  stroke-width="2.869"><circle cx="478.8" cy="134.5" r="3.783" ><desc>{ "type": "hard_point", "cl": "gun", "i": 4 }</desc></circle><circle cx="385.9" cy="125.4" r="3.783" ><desc>{ "type": "hard_point", "cl": "gun", "i": 2 }</desc></circle><circle cx="496.2" cy="125.4" r="3.783" ><desc>{ "type": "hard_point", "cl": "gun", "i": 1 }</desc></circle><circle cx="441.9" cy="171" r="3.783" ><desc>{ "type": "hard_point", "cl": "gun", "i": 3 }</desc></circle></g><g ><path d="m184.1 394.2-25.03 14.02-0.0532 52.89-21.83 16.66 5.19 39.48 41.48-23.08z" fill="#f49644"   stroke-width="1.764"><desc>{ "type": "misc", "i": "heat vents" }</desc></path><path d="m268.3 394.2 25.03 14.02 0.0532 52.89 21.83 16.66-5.19 39.48-41.48-23.08z" fill="#f49644"   stroke-width="1.764"><desc>{ "type": "misc", "i": "heat vents" }</desc></path><path d="m218 226.1a8.125 7.918 0 0 0 8.125 7.918 8.125 7.918 0 0 0 8.125-7.918 8.125 7.918 0 0 0-1.904-5.082l-6.221-9.992-6.199 9.959a8.125 7.918 0 0 0-1.926 5.115z" fill="#46d2f3"   stroke-width="1.764"><desc>{ "type": "internal", "i": "entrance" }</desc></path></g></g></svg>
