<svg width="870" height="640" clip-rule="evenodd" fill-rule="evenodd" image-rendering="optimizeQuality" shape-rendering="geometricPrecision" text-rendering="geometricPrecision" version="1.1" viewBox="0 0 870 640" xml:space="preserve" xmlns="http://www.w3.org/2000/svg">
<g transform="translate(1134)"  fill="none"  ><path d="m-523.9 309.8-29.8 0.5762-6.131 1.498-47.89 2.205-72.02 186.9-5.66 38.36 2.688 8.668 110.2 5.943 3.084-9.602 3.484 0.0684 1.059 9.752 38.43 0.832 6.592 0.8027 25.89 0.0273 25.89-0.0273 6.592-0.8027 38.43-0.832 1.059-9.752 3.486-0.0684 3.082 9.602 110.2-5.943 2.688-8.668-5.66-38.36-72.02-186.9-47.89-2.205-6.131-1.498-29.8-0.5762-4.02 3.322-25.92-0.1758-25.92 0.1758z"  stroke-width="1.764"/><path d="m-685.4 539.4 116 5.009"  stroke-width="1.235"/><path d="m-566 544.4 39.65 0.4508 6.192 0.4882 26.12 0.1491"  stroke-width="1.235"/><ellipse transform="matrix(.9999 .01234 -.0134 .9999 0 0)" cx="-666.2" cy="529.6" rx="5.271" ry="6.299"  stroke-width="1.235"/><g stroke-width="1.235"><path d="m-665.8 540.3 0.5146-43.56-12.5-0.0615" /><path d="m-302.6 539.4-116 5.009" /><path d="m-422 544.4-39.65 0.4508-6.192 0.4882-26.12 0.1491" /></g><path d="m-663.7 510.7h20.06v19.13h-20.06z"  stroke-width="1.235"/><ellipse transform="matrix(.9999 .01049 -.01576 .9999 0 0)" cx="-575.1" cy="367.2" rx="6.202" ry="6.299"  stroke-width="1.235"/><g stroke-width="1.235"><path d="m-591.4 349.7h21.92v23h-21.92z" /><path d="m-450.8 448h-86.3v91.85h86.3z" /><path d="m-444.7 544.7v-103.3h-98.52v103.3" /><path d="m-588.7 543.5-0.0442-41.98-2.552-2.261-48.06-0.1069-1.639 2.385 0.1459 39.72" /><path d="m-640.8 514.5h52.27" /></g><path d="m-565.1 544.5-0.1473-42.9-0.8501-2.261-16.01-0.1069-0.546 2.385 0.0485 42.06"  stroke-width="1.235"/><path d="m-642.2 430.4 32.83-0.0291-4.934 42.46-29.69-0.0713-4.813 22.85-12.45 0.0508z"  stroke-width="1.235"/><path d="m-552.6 368.5h8.102v61.78h-8.102z"  stroke-width="1.235"/><g stroke-width="1.235"><path d="m-523.9 309.8-0.1398 120.3 30.08 0.0133" /><path d="m-519.9 313.1-0.1398 110.1-3.95 0.0133" /><path d="m-541.7 310.3 0.1303 24.62-43.9-1.034-15.74-10.49-10.43 1.383" /><path d="m-553.7 310.4 0.2185 24.36" /><path d="m-593.9 322.6 36.71 0.0262-0.0591 8.094-25.76-0.2743z" /></g><path d="m-553.5 459.7h8.102v32.44h-8.102z"  stroke-width="1.235"/><ellipse transform="matrix(.9999 .0105 -.01575 .9999 0 0)" cx="-543.3" cy="509.8" rx="4.291" ry="4.361"  stroke-width="1.235"/><ellipse transform="matrix(.9999 .0105 -.01575 .9999 0 0)" cx="-543" cy="533" rx="4.291" ry="4.361"  stroke-width="1.235"/><path d="m-583.7 372.6 14.22 0.0323-0.0277 101.9-32.04-0.0378 3e-3 -23 18.05-20.57z"  stroke-width="1.235"/><path d="m-586.7 372.7-0.0669 23.14-43.67-0.3035-9.875 34.85"  stroke-width="1.235"/><path d="m-602.1 346.9h8.102v48.94h-8.102z"  stroke-width="1.235"/><g stroke-width="1.235"><path d="m-553.5 334.7-5.703 10.03 8.042-0.93 27.16 0.1238" /><path d="m-534.9 343.8 0.2185 97.7" /><path d="m-302.6 539.4-116 5.009" /><path d="m-422 544.4-39.65 0.4508-6.192 0.4882-26.12 0.1491" /></g><ellipse transform="matrix(-.9999 .01234 .0134 .9999 0 0)" cx="321.7" cy="517.4" rx="5.271" ry="6.299"  stroke-width="1.235"/><path d="m-322.2 540.3-0.5146-43.56 12.5-0.0615"  stroke-width="1.235"/><path d="m-324.3 510.7h-20.06v19.13h20.06z"  stroke-width="1.235"/><ellipse transform="matrix(-.9999 .01049 .01576 .9999 0 0)" cx="412.8" cy="356.9" rx="6.202" ry="6.299"  stroke-width="1.235"/><g stroke-width="1.235"><path d="m-396.7 349.7h-21.92v23h21.92z" /><path d="m-399.4 543.5 0.0442-41.98 2.552-2.261 48.06-0.1069 1.639 2.385-0.1459 39.72" /><path d="m-347.2 514.5h-52.27" /></g><path d="m-423 544.5 0.1473-42.9 0.8501-2.261 16.01-0.1069 0.546 2.385-0.0485 42.06"  stroke-width="1.235"/><path d="m-345.8 430.4-32.83-0.0291 4.934 42.46 29.69-0.0713 4.813 22.85 12.45 0.0508z"  stroke-width="1.235"/><path d="m-435.4 368.5h-8.102v61.78h8.102z"  stroke-width="1.235"/><g stroke-width="1.235"><path d="m-464.1 309.8 0.1398 120.3-30.08 0.0133" /><path d="m-468.1 313.1 0.1398 110.1 3.95 0.0133" /><path d="m-446.3 310.3-0.1303 24.62 43.9-1.034 15.74-10.49 10.43 1.383" /><path d="m-434.3 310.4-0.2185 24.36" /><path d="m-394.1 322.6-36.71 0.0262 0.0591 8.094 25.76-0.2743z" /></g><path d="m-434.6 459.7h-8.102v32.44h8.102z"  stroke-width="1.235"/><ellipse transform="matrix(-.9999 .0105 .01575 .9999 0 0)" cx="444.6" cy="499.4" rx="4.291" ry="4.361"  stroke-width="1.235"/><ellipse transform="matrix(-.9999 .0105 .01575 .9999 0 0)" cx="444.9" cy="522.6" rx="4.291" ry="4.361"  stroke-width="1.235"/><path d="m-404.4 372.6-14.22 0.0323 0.0277 101.9 32.04-0.0378-3e-3 -23-18.05-20.57z"  stroke-width="1.235"/><path d="m-401.3 372.7 0.0669 23.14 43.67-0.3035 9.875 34.85"  stroke-width="1.235"/><path d="m-385.9 346.9h-8.102v48.94h8.102z"  stroke-width="1.235"/><path d="m-434.5 334.7 5.703 10.03-8.042-0.93-27.16 0.1238"  stroke-width="1.235"/><path d="m-453.2 343.8-0.2185 97.7"  stroke-width="1.235"/><ellipse transform="matrix(.9999 .01048 -.01577 .9999 0 0)" cx="-487.7" cy="404.3" rx="13.41" ry="13.61"  stroke-width="1.235"/><ellipse transform="matrix(.9999 .01048 -.01578 .9999 0 0)" cx="-487.7" cy="404.3" rx="22.3" ry="22.63"  stroke-width="1.235"/><path d="m-468.2 368.9-51.67-0.0372"  stroke-width="1.235"/><path d="m-504.7 338.4h21.36v28.06h-21.36z"  stroke-width="1.235"/><path d="m-498 319.5h27.21v11.36h-27.21z"  stroke-width="1.235"/><path d="m-517.1 352.7h6.573v8.812h-6.573z"  stroke-width="1.235"/><path d="m-515.5 300.2 0.2185 52.95"  stroke-width="1.764"/><path d="m-512.5 313.9 0.2185 39.22"  stroke-width="1.764"/><g stroke-width="1.235"><path d="m-478.2 338h6.573v23.56h-6.573z" /><path d="m-512.7 289.5 0.2185 24.36" /><path d="m-640.8 510.4h52.27" /><path d="m-399.2 510.4h52.27" /></g></g><g transform="translate(1258)"  fill="none"  ><path d="m-1056 309.8-29.8 0.5762-6.131 1.498-47.89 2.205-33.47 91.96 1.606 0.7305-20.35 52.81-2.672-1.094-17.13 42.51-5.66 38.36 2.688 8.668 110.2 5.943 3.084-9.602 3.484 0.0684 1.059 9.752 38.43 0.832 6.592 0.8027 25.89 0.0273 25.89-0.0273 6.592-0.8027 38.43-0.832 1.059-9.752 3.486-0.0684 3.082 9.602 110.2-5.943 2.688-8.668-5.66-38.36-17.13-42.51-2.672 1.094-20.35-52.81 1.605-0.7305-33.47-91.96-47.89-2.205-6.131-1.498-29.8-0.5762-4.02 3.322-25.92-0.1758-25.92 0.1758z"  stroke-width="1.764"/><path d="m-1192 459.6 12.71 4.821 18.83-51.99-11.19-5.64"  stroke-width="1.235"/><path d="m-1191 467.1 2.983 1.181-10.9 27.53-2.983-1.181z"  stroke-width="1.235"/><g stroke-width="1.235"><path d="m-1217 539.4 116 5.009" /><path d="m-1098 544.4 39.65 0.4508 6.192 0.4882 26.12 0.1491" /><path d="m-1077 433.2 19.21 31.35-8.809 45.84-12.88-2.475z" /></g><path d="m-1128 371 6.492-0.6357 38.97 56.87-2.369 80.02-55.99 19.18-30.04-3.802-4.439-9.673z"  stroke-width="1.235"/><g stroke-width="1.235"><path d="m-1081 350.7h26.98v52.86h-26.98z" /><path d="m-1067 350.8-0.043 32.68" /><path d="m-1067 383.5 13.35 9.107" /><path d="m-1067 383.5-13.27 9.107" /><path d="m-1100 321.4-26.02 13.76-5.663-12.24z" /><path d="m-1087 322.5 2.241-1.72 10.26-0.2323 1.94 1.489-2.503 11.09-9.682 0.192z" /></g><path d="m-1112 369.6 57.07 94.54"  stroke-width="1.764"/><ellipse transform="matrix(.9438 .3306 -.3316 .9434 0 0)" cx="-963.3" cy="701" rx="5.271" ry="6.299"  stroke-width="1.235"/><ellipse transform="matrix(.9999 .01234 -.0134 .9999 0 0)" cx="-1198" cy="536.2" rx="5.271" ry="6.299"  stroke-width="1.235"/><g stroke-width="1.235"><path d="m-1198 540.3 3.89-32.81-17.87-6.436" /><path d="m-1154 354.1 16.09-0.0706 5.425-14.37-10.12-17.06" /><path d="m-1064 544.5 6.403-29.3-27.26-5.034-0.7291 34.59" /></g><path d="m-1026 404.1-9.707 0.0664-8.434 4.303-6.857 6.268-1.973 8.564 0.1309 15.73 4.938 3.416-0.1075 33.33c6.862-0.2101 9.148-6.883 10.01-12.15l3.037-0.1973-0.031 9.273c-0.023 2.177 2.475 4.837 4.891 4.902l4.108 0.0234 4.107-0.0234c2.416-0.0653 4.913-2.725 4.891-4.902l-0.031-9.273 3.035 0.1973c0.8581 5.267 3.144 11.94 10.01 12.15l-0.1074-33.33 4.939-3.416 0.1309-15.73-1.973-8.564-6.857-6.268-8.434-4.303z"  stroke-width="1.764"/><g stroke-width="1.235"><path d="m-1058 555 0.1681-10.13 4.193-30.14 2.55-9.618 3.561-29.34" /><path d="m-1052 555.8-0.232-10.45 4.129-29.22 6.97-9.441 3.019-43.07" /><path d="m-1038 463.7 3.623-31.46 3.346-5.375 5.034 5e-3" /><path d="m-1048 442.5 6.683-18.62 10.18 2.965" /><path d="m-859.8 459.6-12.71 4.821-18.83-51.99 11.19-5.64" /></g><path d="m-860.1 467.1-2.983 1.181 10.9 27.53 2.983-1.181z"  stroke-width="1.235"/><g stroke-width="1.235"><path d="m-834.3 539.4-116 5.009" /><path d="m-953.8 544.4-39.65 0.4508-6.192 0.4882-26.12 0.1491" /><path d="m-974.6 433.2-19.21 31.35 8.809 45.84 12.88-2.475z" /><path d="m-923.9 371-6.492-0.6357-38.97 56.87 2.369 80.02 55.99 19.18 30.04-3.802 4.439-9.673z" /><path d="m-970.7 350.7h-26.98v52.86h26.98z" /><path d="m-984.1 350.8 0.0434 32.68" /><path d="m-984 383.5-13.35 9.107" /><path d="m-984 383.5 13.27 9.107" /><path d="m-951.8 321.4 26.02 13.76 5.663-12.24z" /><path d="m-964.1 322.5-2.241-1.72-10.26-0.2323-1.94 1.489 2.503 11.09 9.682 0.192z" /></g><path d="m-939.8 369.6-57.07 94.54"  stroke-width="1.764"/><ellipse transform="matrix(-.9438 .3306 .3316 .9434 0 0)" cx="972.1" cy="22.66" rx="5.271" ry="6.299"  stroke-width="1.235"/><ellipse transform="matrix(-.9999 .01234 .0134 .9999 0 0)" cx="853.4" cy="510.8" rx="5.271" ry="6.299"  stroke-width="1.235"/><g stroke-width="1.235"><path d="m-854 540.3-3.89-32.81 17.87-6.436" /><path d="m-897.6 354.1-16.09-0.0706-5.425-14.37 10.12-17.06" /><path d="m-987.6 544.5-6.403-29.3 27.26-5.034 0.729 34.59" /><path d="m-993.3 555-0.1681-10.13-4.193-30.14-2.55-9.618-3.561-29.34" /><path d="m-999.9 555.8 0.232-10.45-4.129-29.22-6.97-9.441-3.019-43.07" /><path d="m-1014 463.7-3.623-31.46-3.346-5.375-5.034 5e-3" /><path d="m-1004 442.5-6.683-18.62-10.18 2.965" /></g><path d="m-1003 481.2 3.994-0.0254 0.8808-35.93 2.109-3.695 0.1453-19.64-2.19-9.265-7.613-6.78-9.363-4.654-10.78-0.0718-10.78 0.0718-9.363 4.654-7.614 6.78-2.19 9.265 0.1453 19.64 2.107 3.695 0.8808 35.93 4.087-0.0171"  stroke-width="1.235"/><g stroke-width="1.235"><path d="m-1036 397.5h20.72l2.945-3.392 0.2074-25.98-26.46-0.1667-0.2308 25.8z" /><path d="m-1136 413.7-1.639-4.561 4.574-14.18 46.85 47.73-0.6371 21.39z" /><path d="m-1142 431.1-1.526-4.25 4.26-13.21 43.62 44.48-0.5933 19.93z" /><path d="m-1148 448.9-1.526-4.25 4.26-13.21 38.14 39.17-0.5933 19.93z" /><path d="m-1154 466.9-1.526-4.25 4.26-13.21 32.75 34.05-0.5933 19.93z" /><path d="m-915.2 413.7 1.639-4.561-4.574-14.18-46.85 47.73 0.6371 21.39z" /><path d="m-909.1 431.1 1.526-4.25-4.26-13.21-43.62 44.48 0.5933 19.93z" /><path d="m-903.4 448.9 1.526-4.25-4.26-13.21-38.14 39.17 0.5933 19.93z" /><path d="m-897.6 466.9 1.526-4.25-4.26-13.21-32.75 34.05 0.5933 19.93z" /><path d="m-1128 371 6.368-18.46 40.4-1.877" /><path d="m-923.9 371-6.368-18.46-40.4-1.877" /><path d="m-1140 314.1 18.31 38.48" /><path d="m-912 314.1-18.31 38.48" /><path d="m-1054 350.7h56.15" /></g><path d="m-1004 300.2-0.02 13.13"  stroke-width="1.764"/><path d="m-1007 289.5-0.2184 24.36"  stroke-width="1.235"/><path d="m-1027 499 1.776 0.0197 6.644 16.81-14.17-0.0567z"  stroke-width="1.235"/></g><g  ><rect x="470.5" y="510.7" width="20.11" height="19.14" rx="1.971" ry="1.821" fill="#ff3ae1"    stroke-width="1.554"><desc>{ "type": "utility", "i": 2 }</desc></rect><rect x="430.8" y="128.2" width="8.144" height="8.073" fill="#979797"   stroke-width="3.587"><desc>{ "type": "gunsight", "cl": "gun", "i": 0 }</desc></rect><g fill="none" stroke="#979797" stroke-width="3.587"><path d="m442.9 86.92c21.52 3.996 37.82 22.87 37.82 45.55 0 5.371-0.9139 10.53-2.595 15.33m-7.842 13.97c-8.496 10.4-21.42 17.03-35.89 17.03-14.38 0-27.24-6.555-35.74-16.84m-7.716-13.37c-1.862-5.019-2.88-10.45-2.88-16.12 0-23.05 16.84-42.18 38.89-45.74" /><g><path d="m434.9 71.19v15.85" /><path d="m395.6 155.1-13.68 8.014" /><path d="m474.2 155.1 13.68 8.014" /></g></g><g fill="#979797" ><circle cx="446" cy="139.5" r="3.783"  stroke-width="3.587"><desc>{ "type": "hard_point", "cl": "gun", "i": 2 }</desc></circle><circle cx="423.7" cy="139.5" r="3.783"  stroke-width="2.869"><desc>{ "type": "hard_point", "cl": "gun", "i": 1 }</desc></circle><circle cx="412.9" cy="146.4" r="3.783"  stroke-width="3.587"><desc>{ "type": "gunsight", "cl": "gun", "i": 1 }</desc></circle></g><rect x="177.3" y="350.7" width="26.86" height="52.87" rx="3.114" ry="3.051" fill="#4df346"    stroke-width="1.661"><desc>{ "type": "hard_point", "i": 1 }</desc></rect></g><path d="m110.6 560.3h28.57l-14.28 15.07z" fill="#f39745"  stroke-width="1.764"><desc>{ "type": "misc", "i": "thrusters" }</desc></path><g  ><g fill="#f39745" ><ellipse transform="rotate(21.39)" cx="233.5" cy="276.7" rx="5.28" ry="6.417"   stroke-width="1.764"><desc>{ "type": "misc", "i": "thrusters" }</desc></ellipse><ellipse transform="matrix(-.9311 .3648 .3648 .9311 0 0)" cx="-199.2" cy="446.2" rx="5.28" ry="6.417"   stroke-width="1.764"><desc>{ "type": "misc", "i": "thrusters" }</desc></ellipse><g stroke-width="1.764"><ellipse cx="53.06" cy="521.4" rx="5.276" ry="6.249"  ><desc>{ "type": "misc", "i": "thrusters" }</desc></ellipse><ellipse cx="411.6" cy="521.2" rx="5.276" ry="6.249"  ><desc>{ "type": "misc", "i": "thrusters" }</desc></ellipse><ellipse cx="461" cy="521.2" rx="5.276" ry="6.249"  ><desc>{ "type": "misc", "i": "thrusters" }</desc></ellipse><ellipse cx="819.6" cy="521.2" rx="5.276" ry="6.249"  ><desc>{ "type": "misc", "i": "thrusters" }</desc></ellipse><ellipse cx="553.4" cy="361.2" rx="6.089" ry="6.249"  ><desc>{ "type": "misc", "i": "thrusters" }</desc></ellipse><ellipse cx="727.1" cy="361.2" rx="6.089" ry="6.249"  ><desc>{ "type": "misc", "i": "thrusters" }</desc></ellipse></g></g><g fill="none"  stroke-width="1.764"><path d="m516.9 552 1.518 5.817 28.42-4e-3 1.018-5.033" /><path d="m764.7 552-1.518 5.817-28.42-4e-3 -1.018-5.033" /><path d="m109 552 1.518 5.817 28.42-4e-3 1.018-5.033" /><path d="m356.9 552-1.518 5.817-28.42-4e-3 -1.018-5.033" /></g><g fill="#f39745"  stroke-width="1.764"><path d="m327.2 560.3h28.57l-14.28 15.07z"  ><desc>{ "type": "misc", "i": "thrusters" }</desc></path><path d="m518.7 560.3h28.57l-14.28 15.07z"  ><desc>{ "type": "misc", "i": "thrusters" }</desc></path><path d="m735.1 560.3h28.57l-14.28 15.07z"  ><desc>{ "type": "misc", "i": "thrusters" }</desc></path><path d="m503.7 393.4h28.57l-14.28-15.07z"  ><desc>{ "type": "misc", "i": "thrusters" }</desc></path><path d="m748.3 393.4h28.57l-14.28-15.07z"  ><desc>{ "type": "misc", "i": "thrusters" }</desc></path></g><g ><rect x="789.8" y="510.7" width="20.11" height="19.14" rx="1.971" ry="1.821" fill="#ff3ae1"   stroke-width="1.554"><desc>{ "type": "utility", "i": 1 }</desc></rect><rect x="260.4" y="350.7" width="26.86" height="52.87" rx="3.114" ry="3.051" fill="#4df346"   stroke-width="1.661"><desc>{ "type": "hard_point", "i": 2 }</desc></rect><path d="m683.4 448h-86.3v91.85h86.3z" fill="#f39746"   stroke-width="1.235"><desc>{ "type": "other", "i": "cargo hatch" }</desc></path></g><g fill="#f39745" ><path d="m550.5 372.6 14.22 0.0323-0.0277 101.9-32.04-0.0378 3e-3 -23 18.05-20.57z"   stroke-width="1.235"><desc>{ "type": "misc", "i": "landing gear" }</desc></path><path d="m729.8 372.6-14.22 0.0323 0.0277 101.9 32.04-0.0378-3e-3 -23-18.05-20.57z"   stroke-width="1.235"><desc>{ "type": "misc", "i": "landing gear" }</desc></path><path d="m629.5 338.4h21.36v28.06h-21.36z"   stroke-width="1.235"><desc>{ "type": "misc", "i": "landing gear" }</desc></path></g><path d="m232.3 404.1-9.707 0.0664-8.434 4.303-6.857 6.268-1.973 8.564 0.1309 15.73 4.938 3.416-0.1075 33.33c6.862-0.2101 9.148-6.883 10.01-12.15l3.624-31.46 3.346-5.375h10.07l3.346 5.375 3.623 31.46c0.8581 5.267 3.144 11.94 10.01 12.15l-0.1074-33.33 4.939-3.416 0.1309-15.73-1.973-8.564-6.857-6.268-8.434-4.303z" fill="#f39746"    stroke-width="1.764"><desc>{ "type": "other", "i": "canopy" }</desc></path><g fill="#f39745"  stroke-width="1.235"><path d="m124.6 395 46.85 47.73-0.6371 21.39-49.14-50.38-1.639-4.561z"  ><desc>{ "type": "misc", "i": "heat vents" }</desc></path><path d="m118.4 413.6 43.62 44.48-0.5933 19.93-45.65-46.64-1.639-4.561z"  ><desc>{ "type": "misc", "i": "heat vents" }</desc></path><path d="m112.6 431.4 38.14 39.17-0.5933 19.93-40.17-41.33-1.639-4.561z"  ><desc>{ "type": "misc", "i": "heat vents" }</desc></path><path d="m106.7 449.1 32.86 34.36-0.5933 19.93-34.89-36.52-1.639-4.561z"  ><desc>{ "type": "misc", "i": "heat vents" }</desc></path><path d="m340 395-46.85 47.73 0.6371 21.39 49.14-50.38 1.639-4.561z"  ><desc>{ "type": "misc", "i": "heat vents" }</desc></path><path d="m346.2 413.6-43.62 44.48 0.5933 19.93 45.65-46.64 1.639-4.561z"  ><desc>{ "type": "misc", "i": "heat vents" }</desc></path><path d="m351.9 431.4-38.14 39.17 0.5933 19.93 40.17-41.33 1.639-4.561z"  ><desc>{ "type": "misc", "i": "heat vents" }</desc></path><path d="m357.8 449.1-32.86 34.36 0.5933 19.93 34.89-36.52 1.639-4.561z"  ><desc>{ "type": "misc", "i": "heat vents" }</desc></path></g><path d="m241.5 565.2a8.125 7.918 0 0 0-8.125-7.918 8.125 7.918 0 0 0-8.125 7.918 8.125 7.918 0 0 0 1.904 5.082l6.221 9.992 6.199-9.959a8.125 7.918 0 0 0 1.926-5.115z" fill="#46d2f3"    stroke-width="1.764"><desc>{ "type": "internal", "i": "entrance" }</desc></path></g></svg>
