<svg width="870" height="640" clip-rule="evenodd" fill-rule="evenodd" image-rendering="optimizeQuality" shape-rendering="geometricPrecision" text-rendering="geometricPrecision" version="1.1" viewBox="0 0 870 640" xml:space="preserve" xmlns="http://www.w3.org/2000/svg">
<g><path d="m649 379.1h-19v19h19z"  ><desc>{ "type": "internal", "i": "1" }</desc></path><path d="m694.2 394.7h-19v19h19z"  ><desc>{ "type": "internal", "i": "distributor" }</desc></path><path d="m597.6 394.8h-19v19h19z"  ><desc>{ "type": "internal", "i": "PP" }</desc></path><path d="m204 399.3h-19v19h19z"  ><desc>{ "type": "internal", "i": "drive" }</desc></path><path d="m277.7 399.3h-19v19h19z"  ><desc>{ "type": "internal", "i": "drive" }</desc></path></g><g transform="translate(1321 35.36)"  fill="none"  ><g stroke-width="1.764"><path d="m-691.2 237.1-7.201 21.53-12.57 14.67 0.043 14.02-28.27-18.1-22.26 8.568-0.0918 11.32 5.684 0.1562-0.0644 25.22-2.693 0.0898-0.0293 7.537 7.156 0.1348 14.52 22.26-0.0859 10.78-5.723 4.137 0.0274 33.69 5.174 1.734 2.854 9.363c10.82 2.918 21.49 2.909 30.66-8e-3l5.037-20.38-0.0918-21.82 4.637 4.787 6.49-1.102 6.162 0.0859 6.164-0.0859 6.488 1.102 4.639-4.787-0.0918 21.82 5.035 20.38c9.172 2.916 19.84 2.926 30.66 8e-3l2.852-9.363 5.174-1.734 0.0293-33.69-5.723-4.137-0.0859-10.78 14.52-22.26 7.156-0.1348-0.0312-7.537-2.693-0.0898-0.0645-25.22 5.686-0.1562-0.0937-11.32-22.26-8.568-28.27 18.1 0.0449-14.02-12.57-14.67-7.201-21.53-9.365 0.0762z" /><path d="m-795.4 273.4-64.44-33.75-2.908 0.5121-10.64-6.676 13.27-19.56c1.038-1.288 2.907-1.67 6.588-0.0793l42.96 16.53" /><path d="m-804.4 344.4-21.48 22.34-36.68 118c-2.045 6.756-1.335 10.21 1.631 12.62l24.88 19.75 2.706-0.022 83.1-152.8-11.4-20.43" /><path d="m-758.6 314.6-3.084-0.0955" /><path d="m-758.6 322.1-3.084-0.0955" /><path d="m-761.5 289.1-0.2293 68.56-11.8 19.16-18.25-1.538-12.08-18.17-0.7777-57.48-2.858-6.714 4.8e-4 -19.73 12.14 0.1481-0.7329-37.79-14.44-5.236c5.028-8.806 10.06-16.3 16.52-13.75l49.53 20.01 5.244 7.781 0.0916 24.86" /><path d="m-807.6 285.2-12.9-6.573 0.6943-18.02" /><path d="m-796.1 235.6 2.216-13.13 5.093 2.147 0.1751 12.58 30.23 11.81-0.1217-14.22 4.344 1.817 3.224 11.17-0.0658 26.76" /><path d="m-774.9 242.5-0.1461-9.97" /><path d="m-767 245.5-0.1461-9.97" /><path d="m-782.9 239.2-0.1461-9.97" /></g><ellipse transform="matrix(-.9999 .01049 .01576 .9999 0 0)" cx="783.2" cy="250.4" rx="6.909" ry="7.016"  stroke-width="1.235"/><path d="m-831.9 459.6-0.6728 5.545 12.44 27.99"  stroke-width="1.235"/><path d="m-821.6 438.5 14.62 7.126-10.32 21.17-14.62-7.126z"  stroke-width="1.235"/><path d="m-798.3 364.4-9.842 9.952 4.758 25.76-18.19 38.33"  stroke-width="1.235"/><ellipse transform="matrix(-.9999 .0105 .01575 .9999 0 0)" cx="846.1" cy="489.4" rx="3.859" ry="3.922"  stroke-width="1.235"/><ellipse transform="matrix(-.9999 .0105 .01575 .9999 0 0)" cx="856" cy="216.3" rx="3.859" ry="3.922"  stroke-width="1.235"/><g stroke-width="1.235"><path d="m-859.8 239.6 12.26-8.392 51.62 22.65" /><path d="m-803.9 357.1-15.05 15.85-24.92 78.67 2.291 3.24-13.47 39.35c-0.8605 2.766-0.349 3.474 0.2638 4.029l22.44 17.19" /><path d="m-791.9 440.7-5.89-2.826 42.93-81.38" /></g><path d="m-755.6 311 7.362 0.0779 2.62-3.5-0.0408-20.98-2.856-1.993-13.17-0.0782"  stroke-width="1.764"/><g stroke-width="1.235"><path d="m-813.4 282.4 0.6063-17.86" /><path d="m-742.8 359.4 6.309-0.0572 23.37-9.632 13.54 7.127 0.4385 5.144" /><path d="m-737.1 355.3 0.5859 4.08 0.1543 39.29" /><path d="m-742.6 383.4 6.228 1.133 37.35-0.7313" /><path d="m-733.5 404.3-0.1298-13.33 27.95-0.0756-0.056 13.62" /><path d="m-743.3 371.4 6.582 0.6379 37.17-15.13" /></g><path d="m-725.4 297.6h14.88v41.25h-14.88z"  stroke-width="1.235"/><path d="m-704.3 294.8h6.376v43.25h-6.376z"  stroke-width="1.235"/><g stroke-width="1.235"><path d="m-681.8 290-14.14 0.1076-2.426-31.44" /><path d="m-696.7 278.9 7.113-5.461 7.777-0.0157" /><path d="m-695.2 277.5 0.0771-13.19 6.505-19.8-2.565-7.415" /><path d="m-689.6 273.5-0.0237-7.316-4.335-4.505" /><path d="m-704.3 294.8-1.657-19.23 3.287 1.803 5.134-0.093" /><path d="m-710.2 299.5 5.964-0.104" /><path d="m-704.1 312 6.583 0.0727" /><path d="m-704.3 321.9 6.583 0.0727" /><path d="m-725.8 315.8 15.07-0.0157" /><path d="m-710.9 287.3 0.4205 10.23" /><path d="m-713.1 349.7 0.0159-10.84" /><path d="m-710.8 338 6.583 0.0727" /><path d="m-709.1 338.1 0.0143 6.05 18.66 0.1926 0.018-26.27 8.556-0.0518" /><path d="m-690.4 344.4 2.411 21.35" /><path d="m-702.9 344.5 0.0804 5.34 4.174 2.011 1.583 5.123 1.881 4.434 6.74 0.0392" /></g><path d="m-691.2 292.6h3.032v10.14h-3.032z"  stroke-width="1.235"/><path d="m-790.9 302.2h14.88v18.88h-14.88z"  stroke-width="1.235"/><path d="m-795.4 273.4 0.9832 82.56 10.39-3e-3"  stroke-width="1.235"/><path d="m-783.9 347.9c0.0109-7.237 11.69-6.911 11.5 0v19.5c0.0658 6.942-11.28 6.875-11.5 0z"  stroke-width="1.235"/><ellipse transform="matrix(-.9999 .0105 .01575 .9999 0 0)" cx="783.7" cy="357.6" rx="3.859" ry="3.922"  stroke-width="1.235"/><g stroke-width="1.235"><path d="m-772.3 355.9 10.44-0.0157" /><path d="m-735.3 271.4 2.851 26.49 0.1958 59.41" /><path d="m-795.2 251.1 9.17-5.211 34.71 12.62" /><path d="m-772.8 261 11.32 4.216 0.012 12.58" /><path d="m-795.4 324.8 20.26-0.0133 4.66-4.702-0.1723-38.72 9.227-3.576" /></g><g stroke-width="1.764"><path d="m-568.3 273.4 64.44-33.75 2.908 0.5121 10.64-6.676-13.27-19.56c-1.038-1.288-2.907-1.67-6.588-0.0793l-42.96 16.53" /><path d="m-559.2 344.4 21.48 22.34 36.68 118c2.045 6.756 1.335 10.21-1.631 12.62l-24.88 19.75-2.706-0.022-83.1-152.8 11.4-20.43" /><path d="m-605 314.6 3.084-0.0955" /><path d="m-605 322.1 3.084-0.0955" /><path d="m-602.1 289.1 0.2293 68.56 11.8 19.16 18.25-1.538 12.08-18.17 0.7777-57.48 2.858-6.714-4.8e-4 -19.73-12.14 0.1481 0.7329-37.79 14.44-5.236c-5.028-8.806-10.06-16.3-16.52-13.75l-49.53 20.01-5.244 7.781-0.0916 24.86" /><path d="m-556.1 285.2 12.9-6.573-0.6943-18.02" /><path d="m-567.5 235.6-2.216-13.13-5.093 2.147-0.1751 12.58-30.23 11.81 0.1217-14.22-4.344 1.817-3.224 11.17 0.0658 26.76" /><path d="m-588.8 242.5 0.1461-9.97" /><path d="m-596.7 245.5 0.1461-9.97" /><path d="m-580.7 239.2 0.1461-9.97" /></g><ellipse transform="matrix(.9999 .01049 -.01576 .9999 0 0)" cx="-580.3" cy="264.7" rx="6.909" ry="7.016"  stroke-width="1.235"/><path d="m-531.8 459.6 0.6728 5.545-12.44 27.99"  stroke-width="1.235"/><path d="m-542.1 438.5-14.62 7.126 10.32 21.17 14.62-7.126z"  stroke-width="1.235"/><path d="m-565.4 364.4 9.842 9.952-4.758 25.76 18.19 38.33"  stroke-width="1.235"/><ellipse transform="matrix(.9999 .0105 -.01575 .9999 0 0)" cx="-517.4" cy="503.7" rx="3.859" ry="3.922"  stroke-width="1.235"/><ellipse transform="matrix(.9999 .0105 -.01575 .9999 0 0)" cx="-507.5" cy="230.6" rx="3.859" ry="3.922"  stroke-width="1.235"/><g stroke-width="1.235"><path d="m-503.8 239.6-12.26-8.392-51.62 22.65" /><path d="m-559.7 357.1 15.05 15.85 24.92 78.67-2.291 3.24 13.47 39.35c0.8605 2.766 0.349 3.474-0.2638 4.029l-22.44 17.19" /><path d="m-571.8 440.7 5.89-2.826-42.93-81.38" /></g><path d="m-608.1 311-7.362 0.0779-2.62-3.5 0.0408-20.98 2.856-1.993 13.17-0.0782"  stroke-width="1.764"/><g stroke-width="1.235"><path d="m-550.2 282.4-0.6063-17.86" /><path d="m-620.9 359.4-6.309-0.0572-23.37-9.632-13.54 7.127-0.4385 5.144" /><path d="m-626.6 355.3-0.5859 4.08-0.1543 39.29" /><path d="m-621.1 383.4-6.228 1.133-37.35-0.7313" /><path d="m-630.2 404.3 0.1298-13.33-27.95-0.0756 0.056 13.62" /><path d="m-620.4 371.4-6.582 0.6379-37.17-15.13" /></g><path d="m-638.3 297.6h-14.88v41.25h14.88z"  stroke-width="1.235"/><path d="m-659.4 294.8h-6.376v43.25h6.376z"  stroke-width="1.235"/><g stroke-width="1.235"><path d="m-681.8 290 14.14 0.1076 2.426-31.44" /><path d="m-666.9 278.9-7.113-5.461-7.777-0.0157" /><path d="m-668.4 277.5-0.0771-13.19-6.505-19.8 2.565-7.415" /><path d="m-674.1 273.5 0.0237-7.316 4.335-4.505" /><path d="m-659.4 294.8 1.657-19.23-3.287 1.803-5.134-0.093" /><path d="m-653.5 299.5-5.964-0.104" /><path d="m-659.6 312-6.583 0.0727" /><path d="m-659.4 321.9-6.583 0.0727" /><path d="m-637.9 315.8-15.07-0.0157" /><path d="m-652.7 287.3-0.4205 10.23" /><path d="m-650.6 349.7-0.0159-10.84" /><path d="m-652.8 338-6.583 0.0727" /><path d="m-654.6 338.1-0.0143 6.05-18.66 0.1926-0.018-26.27-8.556-0.0518" /><path d="m-673.3 344.4-2.411 21.35" /><path d="m-660.7 344.5-0.0804 5.34-4.174 2.011-1.583 5.123-1.881 4.434-6.74 0.0392" /></g><path d="m-672.5 292.6h-3.032v10.14h3.032z"  stroke-width="1.235"/><path d="m-572.7 302.2h-14.88v18.88h14.88z"  stroke-width="1.235"/><path d="m-568.3 273.4-0.9832 82.56-10.39-3e-3"  stroke-width="1.235"/><path d="m-579.7 347.9c-0.0109-7.237-11.69-6.911-11.5 0v19.5c-0.0658 6.942 11.28 6.875 11.5 0z"  stroke-width="1.235"/><ellipse transform="matrix(.9999 .0105 -.01575 .9999 0 0)" cx="-579.8" cy="371.9" rx="3.859" ry="3.922"  stroke-width="1.235"/><g stroke-width="1.235"><path d="m-591.3 355.9-10.44-0.0157" /><path d="m-628.3 271.4-2.851 26.49-0.1958 59.41" /><path d="m-568.5 251.1-9.17-5.211-34.71 12.62" /><path d="m-590.9 261-11.32 4.216-0.012 12.58" /><path d="m-568.2 324.8-20.26-0.0133-4.66-4.702 0.1723-38.72-9.227-3.576" /><path d="m-688.6 244.5h13.6" /></g></g><g transform="translate(1563 35.36)"  fill="none"  ><g stroke-width="1.764"><path d="m-1341 237.1-7.201 21.53-12.57 14.67 0.043 14.02-28.27-18.1-22.26 8.568-0.092 11.32 5.684 0.1562-0.064 25.22-2.693 0.0898-0.029 7.537 7.156 0.1348 14.52 22.26-0.086 10.78-5.723 4.137 0.027 33.69 5.174 1.734 2.854 9.363c10.82 2.918 21.49 2.909 30.66-8e-3l5.037-20.38-0.092-21.82 4.637 4.787 6.49-1.102 6.162 0.0859 6.164-0.0859 6.488 1.102 4.639-4.787-0.092 21.82 5.035 20.38c9.172 2.916 19.84 2.926 30.66 8e-3l2.852-9.363 5.174-1.734 0.029-33.69-5.723-4.137-0.086-10.78 14.52-22.26 7.156-0.1348-0.031-7.537-2.693-0.0898-0.065-25.22 5.686-0.1562-0.094-11.32-22.26-8.568-28.27 18.1 0.045-14.02-12.57-14.67-7.201-21.53-9.365 0.0762z" /><path d="m-1412 289.1-0.2293 68.56-11.8 19.16-18.25-1.538-12.08-18.17-0.7778-57.48-2.858-6.714-22.14-8.071 1.527-28.76 17.58-25.78c5.028-8.806 10.06-16.3 16.52-13.75l49.53 20.01 5.244 7.781 0.092 24.86" /><path d="m-1478 257.8-31.66-18.18-2.908 0.5121-10.64-6.676 13.27-19.56c1.038-1.288 2.907-1.67 6.588-0.0793l42.96 16.53" /><path d="m-1454 344.4-21.48 22.34-36.68 118c-2.045 6.756-1.335 10.21 1.63 12.62l24.88 19.75 2.706-0.022 83.1-152.8-11.4-20.43" /><path d="m-1409 314.6-3.084-0.0955" /><path d="m-1409 322.1-3.084-0.0955" /></g><ellipse transform="matrix(.9999 .01049 -.01576 .9999 0 0)" cx="-1430" cy="374.9" rx="6.909" ry="7.016"  stroke-width="1.235"/><ellipse transform="matrix(.9999 .0105 -.01575 .9999 0 0)" cx="-1501" cy="241.3" rx="3.859" ry="3.922"  stroke-width="1.235"/><ellipse transform="matrix(.9999 .0105 -.01575 .9999 0 0)" cx="-1481" cy="513.3" rx="3.859" ry="3.922"  stroke-width="1.235"/><g stroke-width="1.235"><path d="m-1482 460.7-0.6728 5.545 12.44 27.99" /><path d="m-1459 228.4 4.466 2.9 0.6674 59.79-0.7123 8.606" /><path d="m-1393 359.4 6.473 0.6242 19.61-7.744 10.67 3.379 4.237-2.874 0.06-26.45-13.52 8.682-1.448 17.26" /><path d="m-1386 360.1-0.01 38.61" /><path d="m-1393 383.4 6.228 1.133 37.35-0.7313" /><path d="m-1383 404.3-0.1298-13.33 27.95-0.0756-0.056 13.62" /><path d="m-1354 354.4 5.287 7.635" /><path d="m-1387 344.5 21.61-7.735" /><path d="m-1361 287.3 0.074 45.28" /><path d="m-1361 292 6.498 0.3272 0.061 35.65" /><path d="m-1348 258.7-1.709 21.34 5.351 31.28 7.73 8.106 5.195-0.0124" /><path d="m-1341 237.1 3.418 8.133-5.114 35.48 5.867 38.64" /><path d="m-1350 280 7.213 0.7431" /></g><g stroke-width="1.235"><path d="m-1345 329.4h25.72v27.17h-25.72z" /><path d="m-1378 310.2h15.25v17.63h-15.25z" /><path d="m-1472 439.5 14.62 7.126-10.32 21.17-14.62-7.126z" /></g><g stroke-width="1.235"><path d="m-1448 365.5-9.842 9.952 4.758 25.76-18.19 38.33" /><path d="m-1455 234.2 48.48 18.9 0.2079 22.58" /><path d="m-1510 239.6 12.26-8.392 27.25 13.15" /><path d="m-1455 257.3 22.62 0.1078 23.8 19.28" /><path d="m-1408 288.7 0.01-3.367 15.53-6.145 24.11 15.19 0.1158 15.84" /><path d="m-1454 276 15.42 0.2012 14.31 10.14 12.45 0.141" /><path d="m-1454 354-15.05 15.85-24.92 78.67 2.291 3.24-13.47 39.35c-0.8605 2.766-0.349 3.474 0.2638 4.029l23.59 18.34" /><path d="m-1455 301.5 14.3 0.1835-0.2228-13.46 5.237 0.2569 12.24 9.533 0.119 58.48-2.111 0.0369c-2.571-6.79-6.054-8.789-12.99-7.973l-0.3299-27.44-15.8 0.0904" /></g><path d="m-1452 304.6h16.4v13.39h-16.4z"  stroke-width="1.235"/><g stroke-width="1.235"><path d="m-1393 371.1 6.582 0.8879 34.52-13.5" /><path d="m-1458 292.9-1.563-64.59" /><path d="m-1398 272.8 0.1643-28.44-4.751-7.539-47.7-19.13" /><path d="m-1445 445-5.89-2.826 42.18-79.88-3.435-4.606" /></g><g stroke-width="1.764"><path d="m-1252 289.1 0.2294 68.56 11.8 19.16 18.25-1.538 12.08-18.17 0.7777-57.48 2.858-6.714 22.14-8.071-1.527-28.76-17.58-25.78c-5.028-8.806-10.06-16.3-16.52-13.75l-49.53 20.01-5.244 7.781-0.092 24.86" /><path d="m-1185 257.8 31.66-18.18 2.908 0.5121 10.64-6.676-13.27-19.56c-1.038-1.288-2.907-1.67-6.588-0.0793l-42.96 16.53" /><path d="m-1209 344.4 21.48 22.34 36.68 118c2.045 6.756 1.335 10.21-1.63 12.62l-24.88 19.75-2.706-0.022-83.1-152.8 11.4-20.43" /><path d="m-1255 314.6 3.084-0.0955" /><path d="m-1255 322.1 3.084-0.0955" /></g><ellipse transform="matrix(-.9999 .01049 .01576 .9999 0 0)" cx="1234" cy="347" rx="6.909" ry="7.016"  stroke-width="1.235"/><ellipse transform="matrix(-.9999 .0105 .01575 .9999 0 0)" cx="1162" cy="213.4" rx="3.859" ry="3.922"  stroke-width="1.235"/><ellipse transform="matrix(-.9999 .0105 .01575 .9999 0 0)" cx="1182" cy="485.3" rx="3.859" ry="3.922"  stroke-width="1.235"/><g stroke-width="1.235"><path d="m-1182 460.7 0.6728 5.545-12.44 27.99" /><path d="m-1205 228.4-4.466 2.9-0.6674 59.79 0.7123 8.606" /><path d="m-1271 359.4-6.473 0.6242-19.61-7.744-10.67 3.379-4.237-2.874-0.06-26.45 13.52 8.682 1.448 17.26" /><path d="m-1277 360.1 0.01 38.61" /><path d="m-1271 383.4-6.228 1.133-37.35-0.7313" /><path d="m-1280 404.3 0.1299-13.33-27.95-0.0756 0.056 13.62" /><path d="m-1309 354.4-5.287 7.635" /><path d="m-1277 344.5-21.61-7.735" /><path d="m-1303 287.3-0.074 45.28" /><path d="m-1303 292-6.498 0.3272-0.061 35.65" /><path d="m-1315 258.7 1.709 21.34-5.351 31.28-7.73 8.106-5.195-0.0124" /><path d="m-1322 237.1-3.418 8.133 5.114 35.48-5.868 38.64" /><path d="m-1314 280-7.213 0.7431" /></g><path d="m-1286 310.2h-15.25v17.63h15.25z"  stroke-width="1.235"/><path d="m-1192 439.5-14.62 7.126 10.32 21.17 14.62-7.126z"  stroke-width="1.235"/><g stroke-width="1.235"><path d="m-1215 365.5 9.842 9.952-4.758 25.76 18.19 38.33" /><path d="m-1209 234.2-48.48 18.9-0.2078 22.58" /><path d="m-1154 239.6-12.26-8.392-27.25 13.15" /><path d="m-1209 257.3-22.62 0.1078-23.8 19.28" /><path d="m-1256 288.7-0.01-3.367-15.53-6.145-24.11 15.19-0.1157 15.84" /><path d="m-1210 276-15.42 0.2012-14.31 10.14-12.45 0.141" /><path d="m-1209 354 15.05 15.85 24.92 78.67-2.291 3.24 13.47 39.35c0.8605 2.766 0.349 3.474-0.2638 4.029l-23.59 18.34" /><path d="m-1209 301.5-14.3 0.1835 0.2228-13.46-5.237 0.2569-12.24 9.533-0.1191 58.48 2.111 0.0369c2.571-6.79 6.054-8.789 12.99-7.973l0.3298-27.44 15.8 0.0904" /></g><path d="m-1212 304.6h-16.4v13.39h16.4z"  stroke-width="1.235"/><g stroke-width="1.235"><path d="m-1271 371.1-6.582 0.8879-34.52-13.5" /><path d="m-1206 292.9 1.563-64.59" /><path d="m-1266 272.8-0.1643-28.44 4.751-7.539 47.7-19.13" /><path d="m-1219 445 5.89-2.826-42.18-79.88 3.435-4.606" /><path d="m-1338 245.3h11.89" /><path d="m-1343 280.7h22.12" /><path d="m-1338 312.7 12.36-0.0473" /></g></g><g  ><rect x="218.7" y="364.8" width="25.72" height="27.17" rx="1.971" ry="1.821" fill="#ff3ae1"    stroke-width="1.554"><desc>{ "type": "utility", "i": 1 }</desc></rect><rect x="430.8" y="128.2" width="8.144" height="8.073" fill="#979797"   stroke-width="3.587"><desc>{ "type": "gunsight", "cl": "gun", "i": 0 }</desc></rect><g fill="none" stroke="#979797" stroke-width="3.587"><path d="m442.9 86.92c21.52 3.996 37.82 22.87 37.82 45.55 0 5.371-0.9139 10.53-2.595 15.33m-7.842 13.97c-8.496 10.4-21.42 17.03-35.89 17.03-14.38 0-27.24-6.555-35.74-16.84m-7.716-13.37c-1.862-5.019-2.88-10.45-2.88-16.12 0-23.05 16.84-42.18 38.89-45.74" /><g><path d="m434.9 71.19v15.85" /><path d="m395.6 155.1-13.68 8.014" /><path d="m474.2 155.1 13.68 8.014" /></g></g><g fill="#979797" ><circle cx="439.5" cy="135.2" r="3.783"  stroke-width="3.587"><desc>{ "type": "hard_point", "cl": "gun", "i": 2 }</desc></circle><circle cx="430.6" cy="135.2" r="3.783"  stroke-width="2.869"><desc>{ "type": "hard_point", "cl": "gun", "i": 1 }</desc></circle><circle cx="424.9" cy="138.6" r="3.783"  stroke-width="3.587"><desc>{ "type": "gunsight", "cl": "gun", "i": 1 }</desc></circle></g><path d="m241 272.5h-18.73l-7.201 21.53-1.709 21.34 5.351 31.28 7.73 8.106h10.39l7.73-8.106 5.351-31.28-1.71-21.34z" fill="#f39746"    stroke-width="1.764"><desc>{ "type": "other", "i": "canopy" }</desc></path><g fill="#f39745" ><path d="m200.8 345.5v17.63h-15.25v-17.63z"   stroke-width="1.235"><desc>{ "type": "misc", "i": "heat vents" }</desc></path><g stroke-width="1.764"><path d="m180.2 449.2h28.57l-14.28 15.07z"  ><desc>{ "type": "misc", "i": "thrusters" }</desc></path><path d="m255.2 449.2h28.57l-14.28 15.07z"  ><desc>{ "type": "misc", "i": "thrusters" }</desc></path><path d="m588.2 449.2h28.57l-14.28 15.07z"  ><desc>{ "type": "misc", "i": "thrusters" }</desc></path><path d="m663.2 449.2h28.57l-14.28 15.07z"  ><desc>{ "type": "misc", "i": "thrusters" }</desc></path><path d="m128.6 252.5h28.57l-14.28-15.07z"  ><desc>{ "type": "misc", "i": "thrusters" }</desc></path><path d="m304.3 252.5h28.57l-14.28-15.07z"  ><desc>{ "type": "misc", "i": "thrusters" }</desc></path><path d="m537.3 252.5h28.57l-14.28-15.07z"  ><desc>{ "type": "misc", "i": "thrusters" }</desc></path><path d="m713 252.5h28.57l-14.28-15.07z"  ><desc>{ "type": "misc", "i": "thrusters" }</desc></path><ellipse cx="58.62" cy="260.9" rx="6.089" ry="6.249"  ><desc>{ "type": "misc", "i": "thrusters" }</desc></ellipse><ellipse cx="74.29" cy="533" rx="6.089" ry="6.249"  ><desc>{ "type": "misc", "i": "thrusters" }</desc></ellipse><ellipse cx="404.5" cy="261" rx="6.089" ry="6.249"  ><desc>{ "type": "misc", "i": "thrusters" }</desc></ellipse><ellipse cx="388.9" cy="533.1" rx="6.089" ry="6.249"  ><desc>{ "type": "misc", "i": "thrusters" }</desc></ellipse><ellipse cx="483.1" cy="533.6" rx="6.089" ry="6.249"  ><desc>{ "type": "misc", "i": "thrusters" }</desc></ellipse><ellipse cx="796.1" cy="533.6" rx="6.089" ry="6.249"  ><desc>{ "type": "misc", "i": "thrusters" }</desc></ellipse><ellipse cx="735.8" cy="401" rx="6.089" ry="6.249"  ><desc>{ "type": "misc", "i": "thrusters" }</desc></ellipse><ellipse cx="543.4" cy="401" rx="6.089" ry="6.249"  ><desc>{ "type": "misc", "i": "thrusters" }</desc></ellipse><ellipse cx="468.8" cy="260.6" rx="6.089" ry="6.249"  ><desc>{ "type": "misc", "i": "thrusters" }</desc></ellipse><ellipse cx="810.5" cy="260.7" rx="6.089" ry="6.249"  ><desc>{ "type": "misc", "i": "thrusters" }</desc></ellipse></g></g><path d="m649 272.5h-18.73l-7.201 21.53 1.677 20.29 7.113-5.461h15.55l7.113 5.461 1.677-20.29z" fill="#f39746"    stroke-width="1.764"><desc>{ "type": "other", "i": "canopy" }</desc></path><g fill="#f39745"  stroke-width="1.235"><path d="m277.6 345.5v17.63h-15.25v-17.63z"  ><desc>{ "type": "misc", "i": "heat vents" }</desc></path><path d="m106.3 482-10.32 21.17-14.62-7.126 10.32-21.17z"  ><desc>{ "type": "misc", "i": "heat vents" }</desc></path><path d="m356.9 482 10.32 21.17 14.62-7.126-10.32-21.17z"  ><desc>{ "type": "misc", "i": "heat vents" }</desc></path><path d="m514.5 480.9-10.32 21.17-14.62-7.126 10.32-21.17z"  ><desc>{ "type": "misc", "i": "heat vents" }</desc></path><path d="m764.7 480.9 10.32 21.17 14.62-7.126-10.32-21.17z"  ><desc>{ "type": "misc", "i": "heat vents" }</desc></path><path d="m545.4 337.6v18.88h-14.88v-18.88z"  ><desc>{ "type": "misc", "i": "heat vents" }</desc></path><path d="m748.7 337.6v18.88h-14.88v-18.88z"  ><desc>{ "type": "misc", "i": "heat vents" }</desc></path></g><rect x="195" y="268.6" width="18.26" height="46.76" rx="3.114" ry="3.051" fill="#4df346"    stroke-width="1.661"><desc>{ "type": "hard_point", "i": 1 }</desc></rect><rect x="249.9" y="268.6" width="18.26" height="46.76" rx="3.114" ry="3.051" fill="#4df346"    stroke-width="1.661"><desc>{ "type": "hard_point", "i": 2 }</desc></rect></g></svg>
