<svg width="870" height="640" clip-rule="evenodd" fill-rule="evenodd" image-rendering="optimizeQuality" shape-rendering="geometricPrecision" text-rendering="geometricPrecision" version="1.1" viewBox="0 0 870 640" xml:space="preserve" xmlns="http://www.w3.org/2000/svg">
<g><path d="m659.7 405.5h-19v19h19z"  ><desc>{ "type": "internal", "i": "distributor" }</desc></path><path d="m229.9 405.5h-19v19h19z"  ><desc>{ "type": "internal", "i": "1" }</desc></path><path d="m286.3 398.9h-19v19h19z"  ><desc>{ "type": "internal", "i": "PP" }</desc></path><path d="m659.7 457.8h-19v19h19z"  ><desc>{ "type": "internal", "i": "drive" }</desc></path><path d="m388.4 457.8h-19v19h19z"  ><desc>{ "type": "internal", "i": "drive" }</desc></path><path d="m69.35 457.8h-19v19h19z"  ><desc>{ "type": "internal", "i": "drive" }</desc></path></g><g transform="matrix(1.211 0 0 1.214 1350 4.827)"  fill="none"   stroke-width=".8247"><path d="m-582.2 268.6-20.02 46.93-6.23 2.24-15.17-14.81-12.11 11.92 5.551 39.29 1.354-0.4746 0.5312 1.918-1.73 2.402 11.13 10.6 17.14-12.29 0.0859-4.283 15.66 20.98 3.804-7.9-0.125-43.92 1.363-52.84z"  stroke-width="1.455"/><path d="m-659.3 300.9 11.17-63.77-16.08 10.89-18.25 54.04 24.03 64.35-2.216 14.13 5.223 9.555 3.891 0.0293 6.561-49.5z"  stroke-width="1.455"/><path d="m-648.9 329.7 14.22-9.961"  stroke-dasharray="1.01846519, 1.01846519" stroke-width="1.018"/><path d="m-645.7 349.7 13.25-9.461"  stroke-dasharray="1.01846519, 1.01846519" stroke-width="1.018"/><path d="m-673.3 381.6 5.534-18.27-19-0.8604-61.76 16.54 5.55 10.03 63.51-2.217z"  stroke-width="1.455"/><path d="m-686.8 362.5 0.924 15.21 18.07-14.35"  stroke-width="1.018"/><path d="m-686.8 362.5 19.3-19.64"  stroke-dasharray="1.01846519, 1.01846519" stroke-width="1.018"/><path d="m-669.2 369.2 8.716-9.284"  stroke-dasharray="1.01846519, 1.01846519" stroke-width="1.018"/><g><path d="m-569.9 373 3.911 7.75-9.32 8.456-2.645 0.0315-2.645-0.0315-9.32-8.456 3.911-7.75"  stroke-width="1.455"/><path d="m-575 268.3-1.399-31.38-1.613-1.563-1.613 1.563-1.399 31.38"  stroke-width="1.455"/><g stroke-width="1.018"><path d="m-580.3 252.1 2.31-3.208 2.169 3.174" /><path d="m-592 291.5 6.951-6.125 3.406 0.0367" /><path d="m-602.3 315.5-8.908 23.92 9.468 12.58" /><path d="m-611.2 339.4 15.16-24.94 13.31 14.66" /><path d="m-599.4 354.8 16.62-12.15" /><path d="m-596 314.5 3.124-20.98" /><path d="m-582.7 329.1-2.312-43.75" /><path d="m-628.3 355.6 10.14-7.081-4.143-20.51 13.85-10.24" /></g><ellipse transform="matrix(-.3604 .9328 -.8681 -.4964 0 0)" cx="554.2" cy="447.6" rx="2.921" ry="1.798"  stroke-width="1.024"/><ellipse transform="matrix(.5482 .8363 -.9092 .4163 0 0)" cx="61.78" cy="684.1" rx="2.921" ry="1.798"  stroke-width="1.024"/><path d="m-573.8 268.6 20.02 46.93 6.23 2.24 15.17-14.81 12.11 11.92-5.551 39.29-1.354-0.4746-0.5312 1.918 1.73 2.402-11.13 10.6-17.14-12.29-0.0859-4.283-15.66 20.98-3.804-7.9 0.125-43.92-1.363-52.84z"  stroke-width="1.455"/><g stroke-width="1.018"><path d="m-564 291.5-6.951-6.125-3.406 0.0367" /><path d="m-553.7 315.5 8.908 23.92-9.468 12.58" /><path d="m-544.8 339.4-15.16-24.94-13.31 14.66" /><path d="m-556.6 354.8-16.62-12.15" /><path d="m-560 314.5-3.124-20.82" /><path d="m-573.3 329.1 2.312-43.75" /><path d="m-527.7 355.6-10.14-7.081 4.143-20.51-13.85-10.24" /></g><ellipse transform="matrix(.3604 .9328 .8681 -.4964 0 0)" cx="-26.23" cy="-643.1" rx="2.921" ry="1.798"  stroke-width="1.024"/><ellipse transform="matrix(-.5482 .8363 .9092 .4163 0 0)" cx="548.6" cy="-293.8" rx="2.921" ry="1.798"  stroke-width="1.024"/><g stroke-width="1.018"><path d="m-651 239.5-12.97 60.07 13.71 36.19-5.139 54.32" /><path d="m-664 299.6-9.579-22.7" /><path d="m-673.3 381.6-12.54-3.921" /><path d="m-685.8 377.7-57.14 11.36" /><path d="m-668.7 262.3 3.511-1.205 4.055-10.53 12.67-8.453" /><path d="m-722.6 384.9 43.14 1.851" /><path d="m-686.8 362.5 13.47 5.325-1.021 6.594 4.28-3.511" /><path d="m-659.7 372.7-13.45-35.45 1.178-6.067" /><path d="m-582.4 362 8.794-0.1405" /><path d="m-582.6 322.9 4.647 5.287 4.147-5.427" /></g><path d="m-497.2 300.9-11.17-63.77 16.08 10.89 18.25 54.04-24.03 64.35 2.216 14.13-5.223 9.555-3.891 0.0293-6.561-49.5z"  stroke-width="1.455"/></g><path d="m-507.6 329.7-14.22-9.961"  stroke-dasharray="1.01846519, 1.01846519" stroke-width="1.018"/><path d="m-510.7 349.7-13.25-9.461"  stroke-dasharray="1.01846519, 1.01846519" stroke-width="1.018"/><path d="m-483.2 381.6-5.534-18.27 19-0.8604 61.76 16.54-5.55 10.03-63.51-2.217z"  stroke-width="1.455"/><path d="m-469.7 362.5-0.924 15.21-18.07-14.35"  stroke-width="1.018"/><path d="m-469.7 362.5-19.3-19.64"  stroke-dasharray="1.01846519, 1.01846519" stroke-width="1.018"/><path d="m-487.2 369.2-8.716-9.284"  stroke-dasharray="1.01846519, 1.01846519" stroke-width="1.018"/><g stroke-width="1.018"><path d="m-505.5 239.5 12.97 60.07-13.71 36.19 5.139 54.32" /><path d="m-492.5 299.6 9.579-22.7" /><path d="m-483.2 381.6 12.54-3.921" /><path d="m-470.6 377.7 57.14 11.36" /><path d="m-487.7 262.3-3.511-1.205-4.055-10.53-12.67-8.453" /><path d="m-433.8 384.9-43.14 1.851" /><path d="m-469.7 362.5-13.47 5.325 1.021 6.594-4.28-3.511" /><path d="m-496.8 372.7 13.45-35.45-1.178-6.067" /></g></g><g transform="matrix(1.211 0 0 1.214 1541 4.827)"  fill="none"   stroke-width=".8247"><g><path d="m-1094 268.6-20.02 46.93-6.23 2.24-15.17-14.81-12.11 11.92 5.551 39.29 1.354-0.4746 0.5313 1.918-1.73 2.402 11.13 10.6 17.14-12.29 0.086-4.283 19.78 26.73 3.93 0.0996 3.93-0.0996 19.78-26.73 0.086 4.283 17.14 12.29 11.13-10.6-1.73-2.402 0.5312-1.918 1.354 0.4746 5.551-39.29-12.11-11.92-15.17 14.81-6.23-2.24-20.02-46.93-4.25 0.0273z"  stroke-width="1.455"/><g stroke-width="1.018"><path d="m-1090 315.9-5.632-0.0614-5.377 2.822-13.26-3.184" /><path d="m-1090 298.2-8.49 0.0111-10.15 3.112" /><path d="m-1101 318.7 2.52-20.44" /><path d="m-1114 352-0.1019-15.12-2.258-0.3775-17.66-22.74-14.05 1.072" /><path d="m-1140 355.6 16.23-13.74-0.5826-10.9-11.12-16.63" /><path d="m-1120 331.1-0.066-13.38" /><path d="m-1090 351.4-2.82 0.0228-3.442-7.416-13.98-6.901-3.571-0.1773" /><path d="m-1090 372-2.393 4e-3 -21.38-25.65" /><path d="m-1094 378.7 1.536-6.739" /><path d="m-1110 337.1 0.9759-9.507 13.2-7.128 6.066-0.0619" /></g><ellipse transform="matrix(.7474 .6644 -.6724 .7402 0 0)" cx="-589.3" cy="996.3" rx="2.953" ry="2.442"  stroke-width="1.018"/><g stroke-width="1.018"><path d="m-1093 351.4-0.085 12.68-3.304 2.916" /><path d="m-1096 320.4-0.1967 23.54" /><path d="m-1120 323.7 5.69 0.0179 1.715 13.35" /></g><path d="m-1171 300.9 11.17-63.77-16.08 10.89-18.25 54.04 24.03 64.35-2.216 14.13 5.223 9.555 3.891 0.0293 6.561-49.5z"  stroke-width="1.455"/><g stroke-width="1.018"><path d="m-1160 239.6-11.75 9.608-15.66 48.38 22.54 63.41-3.242 19.33" /><path d="m-1179 256.8 2.822 5.358" /><path d="m-1182 335.8 1.886-9.753 12.43 34.79-1.801 11.46-2.068 0.3592" /></g></g><path d="m-1161 329.7 14.22-9.961"  stroke-dasharray="1.01846519, 1.01846519" stroke-width="1.018"/><path d="m-1158 349.7 13.25-9.461"  stroke-dasharray="1.01846519, 1.01846519" stroke-width="1.018"/><g><path d="m-1185 381.6 5.534-18.27-19-0.8604-61.76 16.54 5.55 10.03 63.51-2.217z"  stroke-width="1.455"/><path d="m-1255 389 69.68-7.435"  stroke-width="1.018"/><path d="m-1199 362.5 13.46 19.13"  stroke-width="1.018"/></g><path d="m-1199 362.5 19.3-19.64"  stroke-dasharray="1.01846519, 1.01846519" stroke-width="1.018"/><path d="m-1181 369.2 8.716-9.284"  stroke-dasharray="1.01846519, 1.01846519" stroke-width="1.018"/><g><g stroke-width="1.018"><path d="m-1173 380.6 4.108-0.1994 5.007 9.784" /><path d="m-1180 274.3 8.904 26.67" /><path d="m-1194 302.1 6.627-4.457" /><path d="m-1090 315.9 5.632-0.0614 5.378 2.822 13.26-3.184" /><path d="m-1090 298.2 8.49 0.0111 10.15 3.112" /><path d="m-1079 318.7-2.52-20.44" /><path d="m-1066 352 0.102-15.12 2.258-0.3775 17.66-22.74 14.05 1.072" /><path d="m-1040 355.6-16.23-13.74 0.5826-10.9 11.12-16.63" /><path d="m-1060 331.1 0.066-13.38" /><path d="m-1090 351.4 2.82 0.0228 3.442-7.416 13.98-6.901 3.571-0.1773" /><path d="m-1090 372 2.393 4e-3 21.38-25.65" /><path d="m-1086 378.7-1.536-6.739" /><path d="m-1070 337.1-0.9758-9.507-13.2-7.128-6.066-0.0619" /></g><ellipse transform="matrix(-.7474 .6644 .6724 .7402 0 0)" cx="1024" cy="-452.2" rx="2.953" ry="2.442"  stroke-width="1.018"/><g stroke-width="1.018"><path d="m-1087 351.4 0.085 12.68 3.304 2.916" /><path d="m-1084 320.4 0.1967 23.54" /><path d="m-1060 323.7-5.69 0.0179-1.715 13.35" /></g><path d="m-1009 300.9-11.17-63.77 16.08 10.89 18.25 54.04-24.03 64.35 2.216 14.13-5.223 9.555-3.891 0.0293-6.561-49.5z"  stroke-width="1.455"/><g stroke-width="1.018"><path d="m-1020 239.6 11.75 9.608 15.66 48.38-22.54 63.41 3.242 19.33" /><path d="m-1001 256.8-2.822 5.358" /><path d="m-998.4 335.8-1.886-9.753-12.43 34.79 1.801 11.46 2.068 0.3592" /></g></g><path d="m-1019 329.7-14.22-9.961"  stroke-dasharray="1.01846519, 1.01846519" stroke-width="1.018"/><path d="m-1022 349.7-13.25-9.461"  stroke-dasharray="1.01846519, 1.01846519" stroke-width="1.018"/><g><path d="m-994.7 381.6-5.534-18.27 19-0.8604 61.76 16.54-5.55 10.03-63.51-2.217z"  stroke-width="1.455"/><path d="m-925 389-69.68-7.435"  stroke-width="1.018"/><path d="m-981.2 362.5-13.46 19.13"  stroke-width="1.018"/></g><path d="m-981.2 362.5-19.3-19.64"  stroke-dasharray="1.01846519, 1.01846519" stroke-width="1.018"/><path d="m-998.8 369.2-8.716-9.284"  stroke-dasharray="1.01846519, 1.01846519" stroke-width="1.018"/><g><g stroke-width="1.018"><path d="m-1007 380.6-4.108-0.1994-5.007 9.784" /><path d="m-999.8 274.3-8.904 26.67" /><path d="m-985.6 302.1-6.627-4.457" /></g><path d="m-1082 373 3.911 7.75-9.32 8.456-2.645 0.0315-2.645-0.0315-9.32-8.456 3.911-7.75"  stroke-width="1.455"/><path d="m-1087 268.3-1.399-31.38-1.613-1.563-1.613 1.563-1.399 31.38"  stroke-width="1.455"/><path d="m-1092 252.1 2.31-3.208 2.169 3.174"  stroke-width="1.018"/></g></g><g  ><rect x="430.8" y="128.2" width="8.144" height="8.073" fill="#979797"   stroke-width="3.587"><desc>{ "type": "gunsight", "cl": "gun", "i": 0 }</desc></rect><g fill="none" stroke="#979797" stroke-width="3.587"><path d="m442.9 86.92c21.52 3.996 37.82 22.87 37.82 45.55 0 5.371-0.9139 10.53-2.595 15.33m-7.842 13.97c-8.496 10.4-21.42 17.03-35.89 17.03-14.38 0-27.24-6.555-35.74-16.84m-7.716-13.37c-1.862-5.019-2.88-10.45-2.88-16.12 0-23.05 16.84-42.18 38.89-45.74" /><g><path d="m434.9 71.19v15.85" /><path d="m395.6 155.1-13.68 8.014" /><path d="m474.2 155.1 13.68 8.014" /></g></g><g ><circle cx="434.9" cy="135.2" r="3.783" fill="#979797"  stroke-width="2.869"><desc>{ "type": "hard_point", "cl": "gun", "i": 1 }</desc></circle><circle cx="434.9" cy="138.6" r="3.783" fill="#979797"  stroke-width="3.587"><desc>{ "type": "gunsight", "cl": "gun", "i": 1 }</desc></circle><g stroke-width="1.764"><path d="m646.7 330.5-1.5 0.3045-11.79 27.85 8.42-7.435 4.126 0.0445z" fill="#f39746"  ><desc>{ "type": "other", "i": "canopy" }</desc></path><path d="m206.5 488.8h28.57l-14.28 15.07z" fill="#f39745"  ><desc>{ "type": "misc", "i": "thrusters" }</desc></path><ellipse transform="rotate(-42.42)" cx="192.2" cy="735.5" rx="3.99" ry="6.249" fill="#f39745"  ><desc>{ "type": "misc", "i": "thrusters" }</desc></ellipse></g><rect x="123.2" y="279.7" width="23.89" height="23.57" rx="11.22" ry="11.22" fill="#4df346"   stroke-width="1.661"><desc>{ "type": "hard_point", "i": 1 }</desc></rect><path d="m225.5 330.8h-10.3l-24.26 56.96 16.07 3.865 6.514-3.426h13.65l6.514 3.426 16.07-3.865z" fill="#f39746"   stroke-width="1.764"><desc>{ "type": "other", "i": "canopy" }</desc></path><path d="m654 330.5 1.5 0.3045 11.79 27.85-8.42-7.435-4.126 0.0445z" fill="#f39746"   stroke-width="1.764"><desc>{ "type": "other", "i": "canopy" }</desc></path></g><g fill="#f39745"  stroke-width="1.764"><ellipse transform="rotate(34.55)" cx="402.2" cy="239" rx="6.089" ry="5.1"  ><desc>{ "type": "misc", "i": "thrusters" }</desc></ellipse><ellipse transform="matrix(-.8236 .5671 .5671 .8236 0 0)" cx="39.06" cy="488.7" rx="6.089" ry="5.1"  ><desc>{ "type": "misc", "i": "thrusters" }</desc></ellipse><ellipse transform="rotate(16.03)" cx="713.2" cy="172.5" rx="3.658" ry="6.249"  ><desc>{ "type": "misc", "i": "thrusters" }</desc></ellipse><ellipse transform="matrix(-.9611 .2761 .2761 .9611 0 0)" cx="-536.9" cy="531.6" rx="3.658" ry="6.249"  ><desc>{ "type": "misc", "i": "thrusters" }</desc></ellipse><ellipse transform="matrix(-.7382 -.6746 -.6746 .7382 0 0)" cx="-767.9" cy="-141.9" rx="3.99" ry="6.249"  ><desc>{ "type": "misc", "i": "thrusters" }</desc></ellipse><path d="m25.52 488.8h70.64l-35.32 37.26z"  ><desc>{ "type": "misc", "i": "thrusters" }</desc></path><path d="m344.4 488.8h70.64l-35.32 37.26z"  ><desc>{ "type": "misc", "i": "thrusters" }</desc></path><path d="m636.5 488.8h28.57l-14.28 15.07z"  ><desc>{ "type": "misc", "i": "thrusters" }</desc></path><path d="m455.4 488.8h70.64l-35.32 37.26z"  ><desc>{ "type": "misc", "i": "thrusters" }</desc></path><path d="m774.3 488.8h70.64l-35.32 37.26z"  ><desc>{ "type": "misc", "i": "thrusters" }</desc></path><path d="m141.1 363.7h28.57l-14.28-15.07z"  ><desc>{ "type": "misc", "i": "thrusters" }</desc></path><path d="m270.6 363.7h28.57l-14.28-15.07z"  ><desc>{ "type": "misc", "i": "thrusters" }</desc></path><path d="m571.1 363.7h28.57l-14.28-15.07z"  ><desc>{ "type": "misc", "i": "thrusters" }</desc></path><path d="m700.6 363.7h28.57l-14.28-15.07z"  ><desc>{ "type": "misc", "i": "thrusters" }</desc></path></g><g fill="#4df346"  stroke-width="1.661"><rect x="208.3" y="279.7" width="23.89" height="23.57" rx="11.22" ry="11.22"  ><desc>{ "type": "hard_point", "i": 1 }</desc></rect><rect x="292.7" y="279.7" width="23.89" height="23.57" rx="11.22" ry="11.22"  ><desc>{ "type": "hard_point", "i": 1 }</desc></rect><rect x="553.4" y="279.7" width="23.89" height="23.57" rx="11.22" ry="11.22"  ><desc>{ "type": "hard_point", "i": 1 }</desc></rect><rect x="638.5" y="279.7" width="23.89" height="23.57" rx="11.22" ry="11.22"  ><desc>{ "type": "hard_point", "i": 1 }</desc></rect><rect x="722.9" y="279.7" width="23.89" height="23.57" rx="11.22" ry="11.22"  ><desc>{ "type": "hard_point", "i": 1 }</desc></rect></g></g></svg>
