<svg width="870" height="640" clip-rule="evenodd" fill-rule="evenodd" image-rendering="optimizeQuality" shape-rendering="geometricPrecision" text-rendering="geometricPrecision" version="1.1" viewBox="0 0 870 640" xml:space="preserve" xmlns="http://www.w3.org/2000/svg">
<g><path d="m659.7 405.5h-19v19h19z"  ><desc>{ "type": "internal", "i": "distributor" }</desc></path><path d="m229.9 405.5h-19v19h19z"  ><desc>{ "type": "internal", "i": "1" }</desc></path><path d="m286.3 398.9h-19v19h19z"  ><desc>{ "type": "internal", "i": "PP" }</desc></path><path d="m272.9 548.5h-19v19h19z"  ><desc>{ "type": "internal", "i": "drive" }</desc></path><path d="m229.7 547.6h-19v19h19z"  ><desc>{ "type": "internal", "i": "drive" }</desc></path><path d="m186.7 548.5h-19v19h19z"  ><desc>{ "type": "internal", "i": "drive" }</desc></path></g><g transform="translate(1201)"  fill="none"  ><g><path d="m-555.6 330.8-24.26 56.96-7.547 2.719-18.38-17.98-14.67 14.46 6.724 47.69 1.64-0.5761 0.6435 2.328-2.096 2.916 13.49 12.87 20.77-14.92 0.1041-5.199 18.97 25.47 3.608-9.589 0.8486-53.32 0.1486-60.87z"  stroke-width="1.764"/><g stroke-width="1.235"><path d="m-567.4 358.7 8.42-7.435 4.126 0.0445" /><path d="m-579.9 387.8-10.79 29.04 11.47 15.27" /><path d="m-590.7 416.8 18.36-30.28 16.12 17.8" /><path d="m-576.4 435.5 20.14-14.74" /><path d="m-572.3 386.6 3.785-25.46" /><path d="m-556.2 404.4-2.8-53.11" /><path d="m-611.5 436.4 12.28-8.595-5.019-24.9 16.78-12.43" /></g><ellipse transform="matrix(-.3597 .9331 -.8676 -.4972 0 0)" cx="601.5" cy="399.4" rx="3.545" ry="2.179"  stroke-width="1.242"/><ellipse transform="matrix(.5474 .8369 -.9089 .417 0 0)" cx="142.5" cy="705" rx="3.544" ry="2.179"  stroke-width="1.242"/><path d="m-587.4 406.7-0.08-16.24"  stroke-width="1.235"/><path d="m-670.5 412.5 84.24-122.3 0.5039-19.97-14.03 11.89-125.3 137.5-8.791 2.71 0.8129 5.974 100.5 89.15 48.45 50.08 0.08-103.9-50-18.76z"  stroke-width="1.764"/></g><path d="m-655.1 394.4 35.96-1.484"  stroke-dasharray="1.23500001, 1.23500001" stroke-width="1.235"/><path d="m-649.3 425.1 32.84-7.241"  stroke-dasharray="1.23500001, 1.23500001" stroke-width="1.235"/><g><g stroke-width="1.235"><path d="m-649.3 381.6 1.319 1.573-14.97 24.31 28.87 37.38" /><path d="m-670.8 360.4 23.51 17.88" /><path d="m-725.1 419.6 54.58-7.061" /><path d="m-634.1 444.8-26.58 34.97-2.223 10.63" /><path d="m-584.5 503.6-3.296 3.994-0.3477 48.67-40.72-35.66-3.708-3.123" /><path d="m-648.3 335.7 50.2-50.09 8.05-1.499-0.6543 12.91" /><path d="m-725.1 419.6 136.8 129.9" /></g><path d="m-541.2 456.5 0.1977 72.95-9.454 37.04-9.454-37.04 0.1977-72.95"  stroke-width="1.764"/><path d="m-545.4 330.8-0.1895-45.29-4.959-17.63-4.959 17.63-0.1895 45.29"  stroke-width="1.764"/><path d="m-552.8 559.3-0.0374-49.21 4.487-0.0351-0.056 48.92"  stroke-width="1.235"/><g stroke-width="1.235"><path d="m-674.3 412.9 37.56 36.68 37.82 18.44 0.4986 84.91" /><path d="m-598.9 468 14.89-4.441" /><path d="m-559.8 454.7 9.257 11.71" /></g><path d="m-552.8 276.8-0.0374 83 4.487 0.0592-0.056-82.51"  stroke-width="1.235"/><path d="m-674.3 412.9 84.31-128.8"  stroke-width="1.235"/><path d="m-545.4 330.8 24.26 56.96 7.547 2.719 18.38-17.98 14.67 14.46-6.724 47.69-1.64-0.5761-0.6435 2.328 2.096 2.916-13.49 12.87-20.77-14.92-0.1041-5.199-18.97 25.47-3.608-9.589-0.8486-53.32-0.1486-60.87z"  stroke-width="1.764"/><g stroke-width="1.235"><path d="m-533.6 358.7-8.42-7.435-4.126 0.0445" /><path d="m-521.1 387.8 10.79 29.04-11.47 15.27" /><path d="m-510.3 416.8-18.36-30.28-16.12 17.8" /><path d="m-524.6 435.5-20.14-14.74" /><path d="m-528.7 386.6-3.785-25.46" /><path d="m-544.8 404.4 2.8-53.11" /><path d="m-489.5 436.4-12.28-8.595 5.019-24.9-16.78-12.43" /></g><ellipse transform="matrix(.3597 .9331 .8676 -.4972 0 0)" cx="47.69" cy="-639.9" rx="3.545" ry="2.179"  stroke-width="1.242"/><ellipse transform="matrix(-.5474 .8369 .9089 .417 0 0)" cx="606.8" cy="-226.7" rx="3.544" ry="2.179"  stroke-width="1.242"/><path d="m-513.6 406.7 0.08-16.24"  stroke-width="1.235"/><path d="m-430.5 412.5-84.24-122.3-0.5039-19.97 14.03 11.89 125.3 137.5 8.791 2.71-0.8129 5.974-100.5 89.15-48.45 50.08-0.08-103.9 50-18.76z"  stroke-width="1.764"/></g><path d="m-445.9 394.4-35.96-1.484"  stroke-dasharray="1.23500001, 1.23500001" stroke-width="1.235"/><path d="m-451.7 425.1-32.84-7.241"  stroke-dasharray="1.23500001, 1.23500001" stroke-width="1.235"/><g stroke-width="1.235"><path d="m-451.7 381.6-1.319 1.573 14.97 24.31-28.87 37.38" /><path d="m-430.2 360.4-23.51 17.88" /><path d="m-375.9 419.6-54.58-7.061" /><path d="m-466.9 444.8 26.58 34.97 2.223 10.63" /><path d="m-516.5 503.6 3.296 3.994 0.3477 48.67 40.72-35.66 3.708-3.123" /><path d="m-452.7 335.7-50.2-50.09-8.05-1.499 0.6543 12.91" /><path d="m-375.9 419.6-136.8 129.9" /><path d="m-426.7 412.9-37.56 36.68-37.82 18.44-0.4986 84.91" /><path d="m-502.1 468-14.89-4.441" /><path d="m-426.7 412.9-84.31-128.8" /><path d="m-541.2 454.7-9.257 11.71" /></g></g><g transform="translate(1342)"  fill="none"  ><g><path d="m-1127 330.8-24.26 56.96-7.547 2.719-18.38-17.98-14.67 14.46 6.724 47.69 1.64-0.5761 0.6436 2.328-2.096 2.916 13.49 12.87 20.77-14.92 0.1042-5.199 23.96 32.45 4.76 0.1209 4.76-0.1209 23.96-32.45 0.1042 5.199 20.77 14.92 13.49-12.87-2.096-2.916 0.6435-2.328 1.64 0.5761 6.724-47.69-14.67-14.46-18.38 17.98-7.547-2.719-24.26-56.96-5.148 0.0331z"  stroke-width="1.764"/><g stroke-width="1.235"><path d="m-1122 388.3-6.823-0.0745-6.514 3.426-16.07-3.865" /><path d="m-1122 366.8-10.28 0.0135-12.29 3.778" /><path d="m-1135 391.7 3.052-24.81" /><path d="m-1151 432.1-0.1234-18.35-2.736-0.4582-21.39-27.6-17.02 1.302" /><path d="m-1183 436.4 19.66-16.68-0.7057-13.24-13.47-20.19" /><path d="m-1159 406.7-0.08-16.24" /><path d="m-1122 431.3-3.416 0.0277-4.17-9.003-16.94-8.376-4.326-0.2152" /><path d="m-1122 456.4-2.899 5e-3 -25.9-31.13" /><path d="m-1127 464.6 1.861-8.18" /><path d="m-1146 414 1.182-11.54 15.99-8.652 7.348-0.0751" /></g><ellipse transform="matrix(.7467 .6652 -.6717 .7409 0 0)" cx="-564.2" cy="1080" rx="3.58" ry="2.961"  stroke-width="1.235"/><g stroke-width="1.235"><path d="m-1125 431.3-0.103 15.39-4.002 3.539" /><path d="m-1129 393.8-0.2383 28.57" /><path d="m-1159 397.8 6.892 0.0217 2.077 16.21" /></g><path d="m-1242 412.5 84.24-122.3 0.5039-19.97-14.03 11.89-125.3 137.5-8.791 2.71 0.8129 5.974 100.5 89.15 48.45 50.08 0.08-103.9-50-18.76z"  stroke-width="1.764"/></g><path d="m-1226 394.4 35.96-1.484"  stroke-dasharray="1.23500001, 1.23500001" stroke-width="1.235"/><path d="m-1221 425.1 32.84-7.241"  stroke-dasharray="1.23500001, 1.23500001" stroke-width="1.235"/><g><g stroke-width="1.235"><path d="m-1221 381.6 1.319 1.573-14.97 24.31 28.87 37.38" /><path d="m-1242 360.4 23.51 17.88" /><path d="m-1296 419.6 54.58-7.061" /><path d="m-1205 444.8-17.83 34.47-10.97 11.13" /><path d="m-1156 503.6-3.644 52.66-40.01-39.55-4.415 0.7661" /><path d="m-1220 335.7 50.2-50.09 8.05-1.499-0.6543 12.91" /><path d="m-1161 284.1-116.4 133.2" /><path d="m-1284 417.7 124.6 132.2" /><path d="m-1122 388.3 6.823-0.0745 6.514 3.426 16.07-3.865" /><path d="m-1122 366.8 10.28 0.0135 12.29 3.778" /><path d="m-1109 391.7-3.052-24.81" /><path d="m-1093 432.1 0.1235-18.35 2.736-0.4582 21.39-27.6 17.02 1.302" /><path d="m-1061 436.4-19.66-16.68 0.7057-13.24 13.47-20.19" /><path d="m-1085 406.7 0.08-16.24" /><path d="m-1122 431.3 3.416 0.0277 4.17-9.003 16.94-8.376 4.326-0.2152" /><path d="m-1122 456.4 2.899 5e-3 25.9-31.13" /><path d="m-1117 464.6-1.861-8.18" /><path d="m-1097 414-1.182-11.54-15.99-8.652-7.348-0.0751" /></g><ellipse transform="matrix(-.7467 .6652 .6717 .7409 0 0)" cx="1098" cy="-412.7" rx="3.58" ry="2.961"  stroke-width="1.235"/><g stroke-width="1.235"><path d="m-1118 431.3 0.103 15.39 4.002 3.539" /><path d="m-1114 393.8 0.2383 28.57" /><path d="m-1085 397.8-6.892 0.0217-2.077 16.21" /></g><path d="m-1002 412.5-84.24-122.3-0.5038-19.97 14.03 11.89 125.3 137.5 8.791 2.71-0.813 5.974-100.5 89.15-48.45 50.08-0.08-103.9 50-18.76z"  stroke-width="1.764"/></g><path d="m-1017 394.4-35.96-1.484"  stroke-dasharray="1.23500001, 1.23500001" stroke-width="1.235"/><path d="m-1023 425.1-32.84-7.241"  stroke-dasharray="1.23500001, 1.23500001" stroke-width="1.235"/><g><path d="m-1113 458.6 0.1977 70.92-9.454 37.04-9.454-37.04 0.1977-70.92"  stroke-width="1.764"/><path d="m-1117 330.8-0.1895-45.29-4.959-17.63-4.959 17.63-0.1895 45.29"  stroke-width="1.764"/><g stroke-width="1.235"><path d="m-1023 381.6-1.319 1.573 14.97 24.31-28.87 37.38" /><path d="m-1002 360.4-23.51 17.88" /><path d="m-947.3 419.6-54.58-7.061" /><path d="m-1038 444.8 17.83 34.47 10.97 11.13" /><path d="m-1088 503.6 3.644 52.66 40.01-39.55 4.415 0.7661" /><path d="m-1024 335.7-50.2-50.09-8.05-1.499 0.6543 12.91" /><path d="m-1082 284.1 116.4 133.2" /><path d="m-960 417.7-124.6 132.2" /><path d="m-1127 295.4 10.34-0.0606" /><path d="m-1126 552.6-0.073-35.91 7.517-0.0256-0.1053 35.69" /></g></g></g><g  ><rect x="430.8" y="128.2" width="8.144" height="8.073" fill="#979797"   stroke-width="3.587"><desc>{ "type": "gunsight", "cl": "gun", "i": 0 }</desc></rect><g fill="none" stroke="#979797" stroke-width="3.587"><path d="m442.9 86.92c21.52 3.996 37.82 22.87 37.82 45.55 0 5.371-0.9139 10.53-2.595 15.33m-7.842 13.97c-8.496 10.4-21.42 17.03-35.89 17.03-14.38 0-27.24-6.555-35.74-16.84m-7.716-13.37c-1.862-5.019-2.88-10.45-2.88-16.12 0-23.05 16.84-42.18 38.89-45.74" /><g><path d="m434.9 71.19v15.85" /><path d="m395.6 155.1-13.68 8.014" /><path d="m474.2 155.1 13.68 8.014" /></g></g><g ><circle cx="434.9" cy="135.2" r="3.783" fill="#979797"  stroke-width="2.869"><desc>{ "type": "hard_point", "cl": "gun", "i": 1 }</desc></circle><circle cx="434.9" cy="138.6" r="3.783" fill="#979797"  stroke-width="3.587"><desc>{ "type": "gunsight", "cl": "gun", "i": 1 }</desc></circle><g stroke-width="1.764"><path d="m645.4 336.1-0.1872-5.258-11.79 27.85 8.42-7.435 4.126 0.0445z" fill="#f39746"  ><desc>{ "type": "other", "i": "canopy" }</desc></path><path d="m156.1 576.7h28.57l-14.28 15.07z" fill="#f39745"  ><desc>{ "type": "misc", "i": "thrusters" }</desc></path><ellipse transform="rotate(-42.42)" cx="192.2" cy="735.5" rx="3.99" ry="6.249" fill="#f39745"  ><desc>{ "type": "misc", "i": "thrusters" }</desc></ellipse></g><rect x="172.4" y="253.7" width="23.89" height="23.57" rx="11.22" ry="11.22" fill="#4df346"   stroke-width="1.661"><desc>{ "type": "hard_point", "i": 1 }</desc></rect><path d="m225.5 330.8h-10.3l-24.26 56.96 16.07 3.865 6.514-3.426h13.65l6.514 3.426 16.07-3.865z" fill="#f39746"   stroke-width="1.764"><desc>{ "type": "other", "i": "canopy" }</desc></path><path d="m655.2 335.2 0.2497-4.383 11.79 27.85-8.42-7.435-4.126 0.0445z" fill="#f39746"   stroke-width="1.764"><desc>{ "type": "other", "i": "canopy" }</desc></path></g><g fill="#f39745"  stroke-width="1.764"><ellipse transform="rotate(34.55)" cx="402.2" cy="239" rx="6.089" ry="5.1"  ><desc>{ "type": "misc", "i": "thrusters" }</desc></ellipse><ellipse transform="matrix(-.8236 .5671 .5671 .8236 0 0)" cx="39.06" cy="488.7" rx="6.089" ry="5.1"  ><desc>{ "type": "misc", "i": "thrusters" }</desc></ellipse><ellipse transform="rotate(16.03)" cx="713.2" cy="172.5" rx="3.658" ry="6.249"  ><desc>{ "type": "misc", "i": "thrusters" }</desc></ellipse><ellipse transform="matrix(-.9611 .2761 .2761 .9611 0 0)" cx="-536.9" cy="531.6" rx="3.658" ry="6.249"  ><desc>{ "type": "misc", "i": "thrusters" }</desc></ellipse><ellipse transform="matrix(-.7382 -.6746 -.6746 .7382 0 0)" cx="-767.9" cy="-141.9" rx="3.99" ry="6.249"  ><desc>{ "type": "misc", "i": "thrusters" }</desc></ellipse><path d="m141.1 363.7h28.57l-14.28-15.07z"  ><desc>{ "type": "misc", "i": "thrusters" }</desc></path><path d="m270.6 363.7h28.57l-14.28-15.07z"  ><desc>{ "type": "misc", "i": "thrusters" }</desc></path><path d="m571.1 363.7h28.57l-14.28-15.07z"  ><desc>{ "type": "misc", "i": "thrusters" }</desc></path><path d="m700.6 363.7h28.57l-14.28-15.07z"  ><desc>{ "type": "misc", "i": "thrusters" }</desc></path></g><g fill="#4df346"  stroke-width="1.661"><rect x="208.3" y="253.7" width="23.89" height="23.57" rx="11.22" ry="11.22"  ><desc>{ "type": "hard_point", "i": 1 }</desc></rect><rect x="244.3" y="253.7" width="23.89" height="23.57" rx="11.22" ry="11.22"  ><desc>{ "type": "hard_point", "i": 1 }</desc></rect><rect x="602.2" y="253.7" width="23.89" height="23.57" rx="11.22" ry="11.22"  ><desc>{ "type": "hard_point", "i": 1 }</desc></rect><rect x="638.5" y="253.7" width="23.89" height="23.57" rx="11.22" ry="11.22"  ><desc>{ "type": "hard_point", "i": 1 }</desc></rect><rect x="673.5" y="253.7" width="23.89" height="23.57" rx="11.22" ry="11.22"  ><desc>{ "type": "hard_point", "i": 1 }</desc></rect></g><g fill="#f39745"  stroke-width="1.764"><path d="m206.3 576.7h28.57l-14.28 15.07z"  ><desc>{ "type": "misc", "i": "thrusters" }</desc></path><path d="m256.8 576.7h28.57l-14.28 15.07z"  ><desc>{ "type": "misc", "i": "thrusters" }</desc></path><path d="m585.4 576.7h28.57l-14.28 15.07z"  ><desc>{ "type": "misc", "i": "thrusters" }</desc></path><path d="m635.7 576.7h28.57l-14.28 15.07z"  ><desc>{ "type": "misc", "i": "thrusters" }</desc></path><path d="m686.2 576.7h28.57l-14.28 15.07z"  ><desc>{ "type": "misc", "i": "thrusters" }</desc></path></g></g></svg>
