<svg width="870" height="640" clip-rule="evenodd" fill-rule="evenodd" image-rendering="optimizeQuality" shape-rendering="geometricPrecision" text-rendering="geometricPrecision" version="1.1" viewBox="0 0 870 640" xml:space="preserve" xmlns="http://www.w3.org/2000/svg">
<g  fill="none"   stroke-width="1.764"><path d="m640.4 99.4 0.3542 14.34" /><path d="m630.3 106.9 10.41 6.832" /><path d="m653.7 113.7 10.4-6.832" /><path d="m630.2 118 10.56-4.229" /><path d="m664.3 118-10.56-4.229" /><path d="m654.1 99.4-0.3542 14.34" /></g><g transform="matrix(1.197 0 0 1.197 1049 -56.4)"  fill="none"  ><path d="m-336 130-7.545 0.1172-6.58 6.271 0.0723 14.09-11.45 0.0996-7.199 17.34-6.879 0.2617-6.787 9.309 0.252 94.7-4.502 14.19 0.4512 6.693 10.31 0.0176 0.0527 27.6-7.158 0.166 0.2305 9.717 23.68 28.05 0.0351 20.61 3.572 3.086-0.1894 14.44-7.002 23.88-0.9648 89.63 8.992 15.2 18.61 0.1035 18.62-0.1035 8.992-15.2-0.9648-89.63-7.004-23.88-0.1875-14.44 3.57-3.086 0.0352-20.61 23.68-28.05 0.2305-9.717-7.158-0.166 0.0527-27.6 10.31-0.0176 0.4512-6.693-4.502-14.19 0.25-94.7-6.785-9.309-6.879-0.2617-7.199-17.34-11.45-0.0996 0.0703-14.09-6.58-6.271z"  stroke-width="1.474"/><g stroke-width="1.474"><path d="m-409.7 351.8 0.0113 3.594-7.964 0.016 0.0532 5.897 3.657 7.345-0.3167 34.34-9.396 13.25-0.0788 80.77 10.76 8.863 49.09 0.2428" /><path d="m-372.2 167.6-0.2832-17.46-14.5-3.444-11.03 26.05 0.2401 28.38 3.252 3.936-6e-3 16.25-5.841 8e-3 0.068 10.57-19.2 22.08 0.0789 18.23 4.002 11.72-0.5356 3.428-58.46 40.13-0.0643 39.72 48.17-15.29 17.29-0.252" /><path d="m-424 427.5-34.89 27.84 0.0933 35 35.52-7.048" /></g><path d="m-426.4 352 0.0686-51.68 16.92 0.0719-0.3754 51.45"  stroke-width="1.032"/><path d="m-416.2 300.2 0.1859-12.8"  stroke-width="1.032"/><g stroke-width="1.032"><path d="m-420.4 304.8h8.102v10.1h-8.102z" /><path d="m-420.4 337.7h8.102v10.1h-8.102z" /><path d="m-417.7 319.8h5.332v13.79h-5.332z" /></g><g stroke-width="1.032"><path d="m-465.7 332.3 39.47-27.41" /><path d="m-466 364.3 0.0829-42.43" /><path d="m-451.7 459.9 27.86-20.95" /><path d="m-452 488.9 0.0829-39.35" /><path d="m-461.4 363.2 0.026-13.3 31.09-10.33 0.0326 13.42" /><path d="m-446.5 488 0.026-11.46 18.78-3.332-0.0443 10.73" /></g><path d="m-372.5 156.1 10.38-3.457"  stroke-width="1.474"/><path d="m-424.2 435.7 15.72 0.0719-0.3423 50.49-14.59-0.0179"  stroke-width="1.032"/><g stroke-width="1.032"><path d="m-418.7 440.2h7.529v10.1h-7.529z" /><path d="m-418.7 473.1h7.529v10.1h-7.529z" /><path d="m-416.2 455.2h4.955v13.79h-4.955z" /></g><ellipse transform="matrix(.9999 .01049 -.01576 .9999 0 0)" cx="-401.1" cy="424.7" rx="6.202" ry="6.299"  stroke-width="1.032"/><ellipse transform="matrix(.9999 .01049 -.01576 .9999 0 0)" cx="-387.1" cy="197.5" rx="6.202" ry="6.299"  stroke-width="1.032"/><path d="m-362.8 430.1-5.52-11.62-24.25 0.175-8.739 12.46-0.3082 47.9 7.965 12.87 24.48 0.175 5.908-11.17"  stroke-width="1.474"/><g stroke-width="1.032"><path d="m-383 320.9-15.93-2.009 0.1279-20.03 12.6-5.739" /><path d="m-416.1 286.3 29.42 0.1176" /><path d="m-394.6 221.4-0.2718 65.34" /><path d="m-400.3 231.9-0.0652 25.5-13.25 0.0276-2e-3 -10.54" /><path d="m-376.5 418.8-7e-3 -45.07-12.6-20.54 0.0648-33.18" /><path d="m-368.3 418.5 2.927-0.0133-7e-3 -45.51-12.6-20.54 0.0648-15.34" /><path d="m-378 352.4 13.96 0.0829" /><path d="m-370.7 364.5 11.33 0.0829" /><path d="m-365.5 377.4 6.633 0.0829" /><path d="m-365.4 390.8 9.903 0.0829" /><path d="m-365.5 404 7.571 0.0829" /><path d="m-365.5 416.4 4.266 0.0829" /></g><path d="m-399.4 375.4h16.26v24.38h-16.26z"  stroke-width="1.032"/><path d="m-401.3 372.6h20.03v30.6h-20.03z"  stroke-width="1.032"/><path d="m-391.1 375.4 0.0184 24.57"  stroke-width="1.032"/><path d="m-391.2 418.5-2e-3 -14.85m-5e-3 -30.99-11.51-19.01 0.0648-67.35"  stroke-width="1.032"/><path d="m-392.5 435h20.9v38.87h-20.9z"  stroke-width="1.032"/><path d="m-369.8 190.4h15.05v22.25h-15.05z"  stroke-width="1.032"/><path d="m-336 420.2-16.64-0.0501-0.1243 14.53 4.968 5.19-0.2949 28.83-4.616 4.95-0.0207 17.81 16.73-1e-3"  stroke-width="1.032"/><g stroke-width="1.032"><path d="m-355.2 308.4h7.014v12.17h-7.014z" /><path d="m-380.1 208.6h5.6v7.38h-5.6z" /><path d="m-380.1 222.4h5.6v7.38h-5.6z" /><path d="m-380.1 236.6h5.6v7.38h-5.6z" /></g><g stroke-width="1.032"><path d="m-350.1 150.5-0.0664 3.86 5.919-1.862 3.074-0.0812 1.602 4.496 3.525 0.0892" /><path d="m-336 142-5.431 0.141-4.489 6.448 0.1068 4.042" /><path d="m-336 189.5-5.341 0.1815-10.89-14.38 0.0464-20.27 2.06-0.6805" /><path d="m-341.4 189.7 0.0296 6.149-3.342 5.19 0.0129 29.66 8.64-0.0197" /><path d="m-323.7 251.2h-24.86v24.7h24.86z" /><path d="m-314.8 242.4h-42.51v42.25h42.51z" /><path d="m-309.4 237.1h-53.48v52.88h53.48z" /><path d="m-344.3 250.9 0.0829-8.409" /><path d="m-344.3 284.2 0.0829-8.409" /><path d="m-336 337.6-15.32 0.1227-7.559-10.99 0.2703-22.12-8.987-6.968-0.121-66.75 15.39-16.97 0.092-38.55" /><path d="m-354.6 525.5-0.996-10.43 0.0424-95.26 4.657-22.69 0.4367-19.9-1.833-4.841-0.2272-18.12-19.07-26.66-0.8004-140.1 20.23-8.668" /></g><path d="m-344.1 377.5h8.103v20.24h-8.103z"  stroke-width="1.032"/><path d="m-419.4 500.3-1.322 4.63-0.0565 17.67 5.306 3.706 37.72-0.3049 7.932-5.435 0.1036-14.62"  stroke-width="1.474"/><g stroke-width="1.032"><path d="m-406.4 518.9 0.0829-12.9" /><path d="m-383.9 519 0.0829-13.03" /><path d="m-420.8 522.6 5.355-3.617 38.69-0.0111 6.905 1.594" /></g><path d="m-392.6 261.5h8.062v7.38h-8.062z"  stroke-width="1.032"/><path d="m-341.4 189.7-2.588-14.3-0.2723-22.89"  stroke-width="1.032"/><path d="m-330.5 507.5h-11.16v5.115h11.16z"  stroke-width="1.032"/><g stroke-width="1.474"><path d="m-369.5 514 12.9 8.033" /><path d="m-262.3 351.8-0.0113 3.594 7.964 0.016-0.0532 5.897-3.657 7.345 0.3167 34.34 9.396 13.25 0.0788 80.77-10.76 8.863-49.09 0.2428" /><path d="m-299.8 167.6 0.2832-17.46 14.5-3.444 11.03 26.05-0.2401 28.38-3.252 3.936 6e-3 16.25 5.841 8e-3 -0.068 10.57 19.2 22.08-0.0789 18.23-4.002 11.72 0.5356 3.428 58.46 40.13 0.0643 39.72-48.17-15.29-17.29-0.252" /><path d="m-248 427.5 34.89 27.84-0.0933 35-35.52-7.048" /></g><path d="m-245.7 352-0.0686-51.68-16.92 0.0719 0.3754 51.45"  stroke-width="1.032"/><path d="m-255.9 300.2-0.1859-12.8"  stroke-width="1.032"/><g stroke-width="1.032"><path d="m-251.7 304.8h-8.102v10.1h8.102z" /><path d="m-251.7 337.7h-8.102v10.1h8.102z" /><path d="m-254.3 319.8h-5.332v13.79h5.332z" /></g><g stroke-width="1.032"><path d="m-206.3 332.3-39.47-27.41" /><path d="m-206.1 364.3-0.0829-42.43" /><path d="m-220.4 459.9-27.86-20.95" /><path d="m-220.1 488.9-0.0829-39.35" /><path d="m-210.7 363.2-0.026-13.3-31.09-10.33-0.0326 13.42" /><path d="m-225.6 488-0.026-11.46-18.78-3.332 0.0443 10.73" /></g><path d="m-299.6 156.1-10.38-3.457"  stroke-width="1.474"/><path d="m-247.9 435.7-15.72 0.0719 0.3423 50.49 14.59-0.0179"  stroke-width="1.032"/><g stroke-width="1.032"><path d="m-253.3 440.2h-7.529v10.1h7.529z" /><path d="m-253.3 473.1h-7.529v10.1h7.529z" /><path d="m-255.8 455.2h-4.955v13.79h4.955z" /></g><ellipse transform="matrix(-.9999 .01049 .01576 .9999 0 0)" cx="270.9" cy="417.6" rx="6.202" ry="6.299"  stroke-width="1.032"/><ellipse transform="matrix(-.9999 .01049 .01576 .9999 0 0)" cx="284.9" cy="190.5" rx="6.202" ry="6.299"  stroke-width="1.032"/><path d="m-309.2 430.1 5.52-11.62 24.25 0.175 8.739 12.46 0.3082 47.9-7.965 12.87-24.48 0.175-5.908-11.17"  stroke-width="1.474"/><g stroke-width="1.032"><path d="m-289.1 320.9 15.93-2.009-0.1279-20.03-12.6-5.739" /><path d="m-256 286.3-29.42 0.1176" /><path d="m-277.5 221.4 0.2718 65.34" /><path d="m-271.7 231.9 0.0652 25.5 13.25 0.0276 2e-3 -10.54" /><path d="m-295.5 418.8 7e-3 -45.07 12.6-20.54-0.0648-33.18" /><path d="m-303.7 418.5-2.927-0.0133 7e-3 -45.51 12.6-20.54-0.0648-15.34" /><path d="m-294 352.4-13.96 0.0829" /><path d="m-301.4 364.5-11.33 0.0829" /><path d="m-306.6 377.4-6.633 0.0829" /><path d="m-306.6 390.8-9.903 0.0829" /><path d="m-306.5 404-7.571 0.0829" /><path d="m-306.5 416.4-4.266 0.0829" /></g><path d="m-272.7 375.4h-16.26v24.38h16.26z"  stroke-width="1.032"/><path d="m-270.8 372.6h-20.03v30.6h20.03z"  stroke-width="1.032"/><path d="m-280.9 375.4-0.0184 24.57"  stroke-width="1.032"/><path d="m-280.8 418.5 2e-3 -14.85m5e-3 -30.99 11.51-19.01-0.0648-67.35"  stroke-width="1.032"/><path d="m-279.5 435h-20.9v38.87h20.9z"  stroke-width="1.032"/><path d="m-302.3 190.4h-15.05v22.25h15.05z"  stroke-width="1.032"/><path d="m-336 420.2 16.64-0.0501 0.1243 14.53-4.968 5.19 0.2949 28.83 4.616 4.95 0.0207 17.81-16.73-1e-3"  stroke-width="1.032"/><g stroke-width="1.032"><path d="m-316.8 308.4h-7.014v12.17h7.014z" /><path d="m-291.9 208.6h-5.6v7.38h5.6z" /><path d="m-291.9 222.4h-5.6v7.38h5.6z" /><path d="m-291.9 236.6h-5.6v7.38h5.6z" /></g><g stroke-width="1.032"><path d="m-322 150.5 0.0664 3.86-5.919-1.862-3.074-0.0812-1.602 4.496-3.525 0.0892" /><path d="m-336 142 5.431 0.141 4.489 6.448-0.1068 4.042" /><path d="m-336 189.5 5.341 0.1815 10.89-14.38-0.0464-20.27-2.06-0.6805" /><path d="m-330.7 189.7-0.0296 6.149 3.342 5.19-0.0129 29.66-8.64-0.0197" /><path d="m-327.7 250.9-0.0829-8.409" /><path d="m-327.7 284.2-0.0829-8.409" /><path d="m-336 337.6 15.32 0.1227 7.559-10.99-0.2703-22.12 8.987-6.968 0.121-66.75-15.39-16.97-0.092-38.55" /><path d="m-317.4 525.5 0.996-10.43-0.0424-95.26-4.657-22.69-0.4367-19.9 1.833-4.841 0.2272-18.12 19.07-26.66 0.8004-140.1-20.23-8.668" /></g><path d="m-327.9 377.5h-8.103v20.24h8.103z"  stroke-width="1.032"/><path d="m-252.7 500.3 1.322 4.63 0.0565 17.67-5.306 3.706-37.72-0.3049-7.932-5.435-0.1036-14.62"  stroke-width="1.474"/><g stroke-width="1.032"><path d="m-265.7 518.9-0.0829-12.9" /><path d="m-288.1 519-0.0829-13.03" /><path d="m-251.3 522.6-5.355-3.617-38.69-0.0111-6.905 1.594" /></g><path d="m-279.4 261.5h-8.062v7.38h8.062z"  stroke-width="1.032"/><path d="m-330.7 189.7 2.588-14.3 0.2723-22.89"  stroke-width="1.032"/><path d="m-302.5 514-12.9 8.033"  stroke-width="1.474"/><path d="m-352.5 172.9-16.22 0.3132 0.0297-5.223"  stroke-width="1.032"/><path d="m-319.5 172.9 16.22 0.3132-0.0297-5.223"  stroke-width="1.032"/><g stroke-width="1.032"><path d="m-397.1 186.4h13.67v13.79h-13.67z" /><path d="m-288.9 186.4h13.67v13.79h-13.67z" /><path d="m-414.5 413.6h13.67v13.79h-13.67z" /><path d="m-271.2 413.6h13.67v13.79h-13.67z" /></g><path d="m-350.2 143.1-3.003-0.4453-8.695-0.2324-16.39 6.418m84.75 0.0409-16.5-6.459-8.695 0.2324-3.215 0.4453"  stroke-width="1.474"/></g><g transform="matrix(1.197 0 0 1.197 1190 -56.4)"  fill="none"  ><path d="m-810 135.2-11.29-0.0742-3.955 0.5996-1.984-0.4453-8.695-0.2324-22.11 8.658-0.2734 4.469-11.7 16.65-0.4121 133.8-2.234 3.844-0.3848 30.04 8.596 21.28 0.0352 38.15 9.111 21.86 0.1191 81.23 3.77 0.1836 0.2656 18.53 22.54 11.82 18.61 0.2129m2e-3 0 18.61-0.2129 22.54-11.82 0.2656-18.53 3.77-0.1836 0.1191-81.23 9.109-21.86 0.0371-38.15 8.596-21.28-0.3848-30.04-2.234-3.844-0.4121-133.8-11.7-16.65-0.2754-4.469-22.11-8.658-8.695 0.2324-1.984 0.4453-3.955-0.5996-11.29 0.0742"  stroke-width="1.474"/><g stroke-width="1.474"><path d="m-870.2 197.2-3.592 5.589-5.769 0.0702-0.1534 17.72-6.383 2.658-0.2906 57.87 15.81 13.31" /><path d="m-884.7 282.6-0.0325 9.609 12.08 10.16" /><path d="m-864.4 391.9-21.5-0.159-11.64 24.01-0.1534 77.57-4.425 11.58-0.073 21.31 5.306 3.706 37.72-0.3049 7.932-5.435 0.1036-10.47" /><path d="m-869.9 340.7-15.28 14.59-6.495 0.0704 0.0532 5.897 3.657 7.345 0.1182 27.16" /><path d="m-886.2 245-5.901 6.974-1.306 20.23 4.002 11.72-0.5356 3.428-58.46 40.13-0.0643 39.72 48.17-15.29 19.41-0.4697" /><path d="m-898 427.5-34.89 27.84 0.0933 35 35.52-7.048" /></g><path d="m-837.6 429.5h16.26v24.38h-16.26z"  stroke-width="1.032"/><path d="m-839.5 426.7h20.03v30.6h-20.03z"  stroke-width="1.032"/><g stroke-width="1.032"><path d="m-829.3 429.4 0.0184 24.57" /><path d="m-900.3 352 0.0686-51.68 16.92-0.3898-0.3754 51.91" /><path d="m-890.2 300.2 0.1859-12.8" /><path d="m-879.8 286.6 0.073-65.96" /><path d="m-875.1 392.2 0.033-16.58 5.244-5.155-0.0658-29.72" /><path d="m-855.3 413.7-11.46-1.49-19.83 0.403-10.96 3.079" /><path d="m-897.7 493.3 42.3 0.1551" /><path d="m-855.4 437.6-10.16 13.68-22.88 0.0322-9-16.25" /></g><path d="m-862.4 529.8-0.1772-20.09-1.472-0.7154-28.01-0.0338-0.9453 0.7548 0.0841 19.79"  stroke-width="1.032"/><path d="m-888.4 416.3h23.93v9.409l-4.369 2.995-17.06-0.0715-2.502-2.924z"  stroke-width="1.032"/><g stroke-width="1.032"><path d="m-851.4 495.2 8e-3 -7.071 41.41 0.0875" /><path d="m-848.2 488.3-0.2923-76.08-6.664-22.96-0.3369-37.98 6.674-24.01-0.5394-141.2" /><path d="m-870.1 290.7 15.22-4.106 0.0828-79.36-15.54-4.967" /><path d="m-828.5 166.3-0.045 16.98-8.01 2.732-14.85 0.0426 0.0336-23.42 12.63-13.71 0.3202-2.538 8.766-4.113 4.389-6.573" /><path d="m-810 166.2-18.48 0.086-5.594-2.686 0.3738-14.72 4.015-2.4 0.0511-4.211" /><path d="m-828.6 172.2 7.837-5.899" /><path d="m-838.7 148.9 5.02-0.0395" /><path d="m-828.5 183.2 0.0158 120.7 7.696 6.463 10.82-0.1024" /><path d="m-810 142.5-5.026 0.0372-5.697 4.092 0.0147 19.67" /></g><path d="m-800.5 135.1-1.912-2.977-14.8-0.075-2.291 2.901"  stroke-width="1.474"/><path d="m-858.3 148.2 0.0281 12.25 6.932 2.232"  stroke-width="1.032"/><path d="m-870.2 174 11.94-13.59"  stroke-width="1.032"/><ellipse transform="matrix(.9999 .01049 -.01576 .9999 0 0)" cx="-836.1" cy="206.3" rx="6.202" ry="6.299"  stroke-width="1.032"/><ellipse transform="matrix(.9999 .01049 -.01576 .9999 0 0)" cx="-870.5" cy="490.4" rx="6.202" ry="6.299"  stroke-width="1.032"/><g stroke-width="1.032"><path d="m-894.4 304.8h8.102v10.1h-8.102z" /><path d="m-894.4 337.7h8.102v10.1h-8.102z" /><path d="m-891.7 319.8h5.332v13.79h-5.332z" /></g><g stroke-width="1.032"><path d="m-939.7 332.3 39.47-27.41" /><path d="m-940 364.3 0.0829-42.43" /><path d="m-925.7 459.9 27.86-20.95" /><path d="m-925.9 488.9 0.0829-39.35" /><path d="m-935.4 363.2 0.026-13.3 31.09-10.33 0.0326 13.42" /><path d="m-920.4 488 0.026-11.46 18.78-3.332-0.0443 10.73" /><path d="m-810 522.3-14.49 0.0822-1.671-9.933 9e-3 -18.03 16.16-0.1823" /><path d="m-851.6 507 25.34-0.5327" /><path d="m-839.5 457.3 5.099 4.974 24.37 0.0101" /></g><path d="m-815.8 431.6h11.56v25.68h-11.56z"  stroke-width="1.032"/><g stroke-width="1.032"><path d="m-839.5 426.7 0.05-54.9 5.049-5.765 24.37-0.0101" /><path d="m-849.3 294.6 20.99 0.0101" /><path d="m-849.7 210.1 20.99 0.0101" /><path d="m-892 509 2.937-15.4 0.6437-42.22 1.369-23.92" /><path d="m-864 509-1.064-15.4-0.4887-42.29-0.9855-24.12" /><path d="m-886.5 416.7-0.0817-3.997 0.686-20.93" /><path d="m-866.8 416.1 0.0351-3.856 0.1154-20.53" /></g><path d="m-855 447.6 10.67-0.1646 0.0547-84.34 5.888-5.765 28.42-0.0101"  stroke-width="1.032"/><g stroke-width="1.032"><path d="m-834.3 487.9-0.0673-25.61" /><path d="m-848.8 327.3 38.82-0.0673" /><path d="m-848.8 321.6 38.82-0.0673" /><path d="m-848.8 327.3 1.342 11.75 3.048 2.583 34.43 0.0319" /><path d="m-844.4 341.6 0.1649 21.42" /><path d="m-810 195.1-8.484-0.0501 0.0296 14.53-3.342 5.19 0.0129 58.99 2.925 2.488 8.858-0.0455" /></g><path d="m-816.1 231h12.02v38.61h-12.02z"  stroke-width="1.032"/><path d="m-818.3 169.4h16.54l3.616 3.537v10.19h-23.77v-10.45z"  stroke-width="1.032"/><g stroke-width="1.474"><path d="m-749.8 197.2 3.592 5.589 5.769 0.0702 0.1534 17.72 6.383 2.658 0.2906 57.87-15.81 13.31" /><path d="m-735.3 282.6 0.0325 9.609-12.08 10.16" /><path d="m-755.6 391.9 21.5-0.159 11.64 24.01 0.1534 77.57 4.425 11.58 0.073 21.31-5.306 3.706-37.72-0.3049-7.932-5.435-0.1036-10.47" /><path d="m-750.1 340.7 15.28 14.59 6.495 0.0704-0.0532 5.897-3.657 7.345-0.1182 27.16" /><path d="m-733.8 245 5.901 6.974 1.306 20.23-4.002 11.72 0.5356 3.428 58.46 40.13 0.0643 39.72-48.17-15.29-19.41-0.4697" /><path d="m-722 427.5 34.89 27.84-0.0933 35-35.52-7.048" /></g><path d="m-782.4 429.5h-16.26v24.38h16.26z"  stroke-width="1.032"/><path d="m-780.5 426.7h-20.03v30.6h20.03z"  stroke-width="1.032"/><g stroke-width="1.032"><path d="m-790.7 429.4-0.0184 24.57" /><path d="m-719.7 352-0.0686-51.68-16.92-0.3898 0.3754 51.91" /><path d="m-729.8 300.2-0.1859-12.8" /><path d="m-740.2 286.6-0.073-65.96" /><path d="m-744.9 392.2-0.033-16.58-5.244-5.155 0.0658-29.72" /><path d="m-764.7 413.7 11.46-1.49 19.83 0.403 10.96 3.079" /><path d="m-722.3 493.3-42.3 0.1551" /><path d="m-764.6 437.6 10.16 13.68 22.88 0.0322 9-16.25" /></g><path d="m-757.6 529.8 0.1772-20.09 1.472-0.7154 28.01-0.0338 0.9453 0.7548-0.0841 19.79"  stroke-width="1.032"/><path d="m-731.6 416.3h-23.93v9.409l4.369 2.995 17.06-0.0715 2.502-2.924z"  stroke-width="1.032"/><g stroke-width="1.032"><path d="m-768.6 495.2-8e-3 -7.071-41.41 0.0875" /><path d="m-771.8 488.3 0.2923-76.08 6.664-22.96 0.3369-37.98-6.674-24.01 0.5394-141.2" /><path d="m-749.9 290.7-15.22-4.106-0.0828-79.36 15.54-4.967" /><path d="m-791.5 166.3 0.045 16.98 8.01 2.732 14.85 0.0426-0.0336-23.42-12.63-13.71-0.3202-2.538-8.766-4.113-4.389-6.573" /><path d="m-810 166.2 18.48 0.086 5.594-2.686-0.3738-14.72-4.015-2.4-0.0511-4.211" /><path d="m-791.5 172.2-7.837-5.899" /><path d="m-781.3 148.9-5.02-0.0395" /><path d="m-791.5 183.2-0.0158 120.7-7.696 6.463-10.82-0.1024" /><path d="m-810 142.5 5.026 0.0372 5.697 4.092-0.0147 19.67" /><path d="m-761.7 148.2-0.0281 12.25-6.932 2.232" /><path d="m-749.8 174-11.94-13.59" /></g><ellipse transform="matrix(-.9999 .01049 .01576 .9999 0 0)" cx="783.8" cy="189.4" rx="6.202" ry="6.299"  stroke-width="1.032"/><ellipse transform="matrix(-.9999 .01049 .01576 .9999 0 0)" cx="749.3" cy="473.4" rx="6.202" ry="6.299"  stroke-width="1.032"/><g stroke-width="1.032"><path d="m-725.6 304.8h-8.102v10.1h8.102z" /><path d="m-725.6 337.7h-8.102v10.1h8.102z" /><path d="m-728.3 319.8h-5.332v13.79h5.332z" /></g><g stroke-width="1.032"><path d="m-680.3 332.3-39.47-27.41" /><path d="m-680 364.3-0.0829-42.43" /><path d="m-694.3 459.9-27.86-20.95" /><path d="m-694.1 488.9-0.0829-39.35" /><path d="m-684.6 363.2-0.026-13.3-31.09-10.33-0.0326 13.42" /><path d="m-699.6 488-0.026-11.46-18.78-3.332 0.0443 10.73" /><path d="m-810 522.3 14.49 0.0822 1.671-9.933-9e-3 -18.03-16.16-0.1823" /><path d="m-768.4 507-25.34-0.5327" /><path d="m-780.5 457.3-5.099 4.974-24.37 0.0101" /><path d="m-780.5 426.7-0.05-54.9-5.049-5.765-24.37-0.0101" /><path d="m-770.7 294.6-20.99 0.0101" /><path d="m-770.4 210.1-20.99 0.0101" /><path d="m-728 509-2.937-15.4-0.6437-42.22-1.369-23.92" /><path d="m-756 509 1.064-15.4 0.4887-42.29 0.9855-24.12" /><path d="m-733.5 416.7 0.0817-3.997-0.686-20.93" /><path d="m-753.2 416.1-0.0351-3.856-0.1154-20.53" /></g><path d="m-765 447.6-10.67-0.1646-0.0547-84.34-5.888-5.765-28.42-0.0101"  stroke-width="1.032"/><g stroke-width="1.032"><path d="m-785.7 487.9 0.0673-25.61" /><path d="m-771.2 327.3-38.82-0.0673" /><path d="m-771.2 321.6-38.82-0.0673" /><path d="m-771.2 327.3-1.342 11.75-3.048 2.583-34.43 0.0319" /><path d="m-775.6 341.6-0.1649 21.42" /><path d="m-810 195.1 8.484-0.0501-0.0296 14.53 3.342 5.19-0.0129 58.99-2.925 2.488-8.858-0.0455" /></g><g stroke-width="1.032"><path d="m-829.3 370h12.02v48.3h-17.56v-20.03l5.54-0.0638z" /><path d="m-791.3 370h-12.02v48.3h17.56v-20.03l-5.54-0.0638z" /><path d="m-827.5 372.3h8.062v7.38h-8.062z" /><path d="m-801.4 372.3h8.062v7.38h-8.062z" /><path d="m-813.6 253.7h7.014v12.17h-7.014z" /><path d="m-846.1 190.8h13.67v13.79h-13.67z" /><path d="m-787.7 190.6h13.67v13.79h-13.67z" /><path d="m-885.1 474.6h13.67v13.79h-13.67z" /><path d="m-748.6 474.6h13.67v13.79h-13.67z" /></g></g><g  ><rect x="430.8" y="128.2" width="8.144" height="8.073" fill="#979797"   stroke-width="3.587"><desc>{ "type": "gunsight", "cl": "gun", "i": 0 }</desc></rect><g fill="none" stroke="#979797" stroke-width="3.587"><path d="m442.9 86.92c21.52 3.996 37.82 22.87 37.82 45.55 0 5.371-0.9139 10.53-2.595 15.33m-7.842 13.97c-8.496 10.4-21.42 17.03-35.89 17.03-14.38 0-27.24-6.555-35.74-16.84m-7.716-13.37c-1.862-5.019-2.88-10.45-2.88-16.12 0-23.05 16.84-42.18 38.89-45.74" /><g><path d="m434.9 71.19v15.85" /><path d="m395.6 155.1-13.68 8.014" /><path d="m474.2 155.1 13.68 8.014" /></g></g><g ><circle cx="435.5" cy="-179.9" r="3.783" fill="#979797"  stroke-width="3.587"><desc>{ "type": "gunsight", "cl": "gun", "i": 4 }</desc></circle><path d="m662 244.3h-29.75v29.57h29.75z" fill="#f39746"   stroke-width="1.235"><desc>{ "type": "other", "i": "cargo hatch" }</desc></path><path d="m606.8 171.5h18.01v26.63h-18.01z" fill="#f39745"   stroke-width="1.235"><desc>{ "type": "misc", "i": "landing gear" }</desc></path><rect x="659.4" y="309.9" width="13.26" height="19.93" rx="3.114" ry="3.051" fill="#4df346"   stroke-width="1.661"><desc>{ "type": "hard_point", "i": 3 }</desc></rect><ellipse cx="185.6" cy="180.1" rx="7.633" ry="7.727" fill="#f39745"   stroke-width="1.764"><desc>{ "type": "misc", "i": "thrusters" }</desc></ellipse><path d="m127.5 583h28.57l-14.28 15.07z" fill="#f39745"   stroke-width="1.764"><desc>{ "type": "misc", "i": "thrusters" }</desc></path><circle cx="410.2" cy="139.4" r="3.783" fill="#979797"  stroke-width="2.869"><desc>{ "type": "hard_point", "cl": "gun", "i": 1 }</desc></circle><circle cx="416" cy="158.6" r="3.783" fill="#979797"  stroke-width="2.869"><desc>{ "type": "hard_point", "cl": "gun", "i": 3 }</desc></circle></g><g fill="#f39745" ><path d="m669.6 171.5h18.01v26.63h-18.01z"   stroke-width="1.235"><desc>{ "type": "misc", "i": "landing gear" }</desc></path><path d="m579.6 464.4h25.01v46.53h-25.01z"   stroke-width="1.235"><desc>{ "type": "misc", "i": "landing gear" }</desc></path><path d="m689.8 464.4h25.01v46.53h-25.01z"   stroke-width="1.235"><desc>{ "type": "misc", "i": "landing gear" }</desc></path><g stroke-width="1.764"><path d="m286 583h28.57l-14.28 15.07z"  ><desc>{ "type": "misc", "i": "thrusters" }</desc></path><path d="m562 583h28.57l-14.28 15.07z"  ><desc>{ "type": "misc", "i": "thrusters" }</desc></path><path d="m704.5 583h28.57l-14.28 15.07z"  ><desc>{ "type": "misc", "i": "thrusters" }</desc></path><path d="m128.4 408.3h28.57l-14.28-15.07z"  ><desc>{ "type": "misc", "i": "thrusters" }</desc></path><path d="m284.2 408.3h28.57l-14.28-15.07z"  ><desc>{ "type": "misc", "i": "thrusters" }</desc></path><ellipse cx="255.6" cy="180" rx="7.633" ry="7.727"  ><desc>{ "type": "misc", "i": "thrusters" }</desc></ellipse><ellipse cx="138.9" cy="519.6" rx="7.633" ry="7.727"  ><desc>{ "type": "misc", "i": "thrusters" }</desc></ellipse><ellipse cx="302.2" cy="519.7" rx="7.633" ry="7.727"  ><desc>{ "type": "misc", "i": "thrusters" }</desc></ellipse><ellipse cx="561.4" cy="446.9" rx="7.633" ry="7.727"  ><desc>{ "type": "misc", "i": "thrusters" }</desc></ellipse><ellipse cx="733.1" cy="446.9" rx="7.633" ry="7.727"  ><desc>{ "type": "misc", "i": "thrusters" }</desc></ellipse><ellipse cx="712.1" cy="175" rx="7.633" ry="7.727"  ><desc>{ "type": "misc", "i": "thrusters" }</desc></ellipse><ellipse cx="582.4" cy="175.2" rx="7.633" ry="7.727"  ><desc>{ "type": "misc", "i": "thrusters" }</desc></ellipse></g></g><path d="m229.7 101.7-17.71-0.0898-2.741 3.473 22.74 0.1805z" fill="#f39746"    stroke-width="1.764"><desc>{ "type": "other", "i": "canopy" }</desc></path><path d="m656.3 99.4h-18.06l-7.875 7.507 7e-3 21.49 5.154-2.101-0.1278-4.838 5.372-7.718h13l5.372 7.718-0.1278 4.838 5.154 2.101 5e-3 -21.49z" fill="#f39746"    stroke-width="1.764"><desc>{ "type": "other", "i": "canopy" }</desc></path><g fill="#4df346"  stroke-width="1.661"><rect x="617.1" y="104.1" width="13.26" height="19.93" rx="3.114" ry="3.051"  ><desc>{ "type": "hard_point", "i": 2 }</desc></rect><rect x="664.1" y="104.1" width="13.26" height="19.93" rx="3.114" ry="3.051"  ><desc>{ "type": "hard_point", "i": 1 }</desc></rect><rect x="190.3" y="92.72" width="13.26" height="12.53" rx="3.114" ry="3.051"  ><desc>{ "type": "hard_point", "i": 1 }</desc></rect><rect x="237.4" y="92.72" width="13.26" height="12.53" rx="3.114" ry="3.051"  ><desc>{ "type": "hard_point", "i": 2 }</desc></rect><rect x="213.8" y="244.6" width="13.26" height="19.93" rx="3.114" ry="3.051"  ><desc>{ "type": "hard_point", "i": 4 }</desc></rect></g><g fill="#ff3ae1"  stroke-width="1.554"><rect x="197.5" y="386.5" width="14.53" height="13.78" rx="1.971" ry="1.821"  ><desc>{ "type": "utility", "i": 1 }</desc></rect><rect x="228.5" y="386.5" width="14.53" height="13.78" rx="1.971" ry="1.821"  ><desc>{ "type": "utility", "i": 2 }</desc></rect><rect x="576.9" y="254.1" width="14.53" height="13.78" rx="1.971" ry="1.821"  ><desc>{ "type": "utility", "i": 3 }</desc></rect><rect x="702.8" y="254" width="14.53" height="13.78" rx="1.971" ry="1.821"  ><desc>{ "type": "utility", "i": 4 }</desc></rect></g><circle cx="460.6" cy="139.4" r="3.783" fill="#979797"   stroke-width="2.869"><desc>{ "type": "hard_point", "cl": "gun", "i": 2 }</desc></circle><circle cx="434.8" cy="7.284" r="3.783" fill="#979797"   stroke-width="2.869"><desc>{ "type": "hard_point", "cl": "gun", "i": 4 }</desc></circle><g fill="#f39745"  stroke-width="1.235"><path d="m187.6 457.7h19.46v29.18h-19.46z"  ><desc>{ "type": "misc", "i": "heat vents" }</desc></path><path d="m234.2 457.7h19.46v29.18h-19.46z"  ><desc>{ "type": "misc", "i": "heat vents" }</desc></path><path d="m173.2 195.1h25.48v101.2h-25.48z"  ><desc>{ "type": "misc", "i": "heat vents" }</desc></path><path d="m242.9 195.1h25.48v101.2h-25.48z"  ><desc>{ "type": "misc", "i": "heat vents" }</desc></path><path d="m571.4 393h19.46v29.18h-19.46z"  ><desc>{ "type": "misc", "i": "heat vents" }</desc></path><path d="m703.6 393h19.46v29.18h-19.46z"  ><desc>{ "type": "misc", "i": "heat vents" }</desc></path></g><path d="m228.7 581.8a8.125 7.918 0 0 0-8.125-7.918 8.125 7.918 0 0 0-8.125 7.918 8.125 7.918 0 0 0 1.904 5.082l6.221 9.992 6.199-9.959a8.125 7.918 0 0 0 1.926-5.115z" fill="#46d2f3"    stroke-width="1.764"><desc>{ "type": "internal", "i": "entrance" }</desc></path></g></svg>
