<svg width="870" height="640" clip-rule="evenodd" fill-rule="evenodd" image-rendering="optimizeQuality" shape-rendering="geometricPrecision" text-rendering="geometricPrecision" version="1.1" viewBox="0 0 870 640" xml:space="preserve" xmlns="http://www.w3.org/2000/svg">
<g transform="translate(1303)"  fill="none"  ><path d="m-1098 136-13.01 0.0449-22.39 31.55-83.88 241.3 48.01 68.58-0.4278 56.7 29.84 9.836 0.047 3.693 36.85 12.09-0.1797-100.9 20.47-66.52 5.213-0.0586-0.022-5.355 3.469-3.248 3.732-4e-3 3.732 4e-3 3.469 3.248-0.021 5.355 5.213 0.0586 20.47 66.52-0.1797 100.9 36.85-12.09 0.047-3.693 29.84-9.836-0.4277-56.7 48.01-68.58-83.88-241.3-22.39-31.55-13.01-0.0449-6.76 28.95-20.97 0.2676-20.97-0.2676z"  stroke-width="1.764"/><g stroke-width="1.235"><path d="m-1104 458.8-36.67 37.7-0.042 47.46" /><path d="m-1092 164.9 2.416 11.98 3.302 4.02 0.043 6.09-13.42 17.89-5.917-0.0486 0.039-53.02-7.124 1.303-14.43 34.61 2.546 3.51-2.572 8.123-3.805 1.583-50.55 159.6-22.83 9.974" /><path d="m-1149 210 24.23-2.529 5.022 1.695 4.229 31.09-9.742 11.81 20.56 114-23.05 40.74-0.1726 26.6 14.24 15.12 13.47 0.0807" /><path d="m-1116 240.2 6.197 36.25-9.411 12.1" /><path d="m-1114 170.8h15.1v27.46h-15.1z" /></g><g stroke-width="1.764"><path d="m-1237 426.3 16.83-1.779 38.72 58.77 0.137 68.71-56.62-0.1557 0.2116-66.78-20.77-27.82z" /><path d="m-1254 463.6-2.471 2.643 0.101 84.78 18.24 0.8405" /><path d="m-1208 422.5-9.774 6.278" /><path d="m-1170 525.7-11.52 0.0275" /></g><g stroke-width="1.235"><path d="m-1198 458.7 10.71-5.536" /><path d="m-1253 449.9 7.264 8.943 14.69-0.8759 15.88-25.18" /><path d="m-1224 551.8-0.2356-58.81 17.19 0.2491 21.27 38.98 4.286 19.81" /><path d="m-1166 416 25.83-0.2791 1.884 3.166-0.04 13.55-18.16 15.27z" /><path d="m-1173 473.8 7.441-38.52-9.53-25.63 1.69-2.931 45.13 0.1191" /><path d="m-1165 478.6 36.9-36.06 16.69 18.1-32.59 31.98 0.1208 32.91-2.734 4.509-19.12 0.0678z" /><path d="m-1162 530 2.855-4.449 0.2624-42.63 36.07-34.3" /><path d="m-1165 478.6 21 14.02" /><path d="m-1155 530.3 3.105-4.699 0.3874-38.07 34.45-32.92" /><path d="m-1071 185.8-7.879-0.1089-5.674 4.013-9.489 15.65-5.81 2.917 0.1423 9.217 1.736 0.8326 13.98 134.9-0.1645 12.49-4.475 8.996 0.01 33.52" /></g><path d="m-1103 559.7 0.01 2.834c4.778 6.372 9.134 9.793 13.45 12.92 5.001-6.432 9.77-11.68 19.23-12.95"  stroke-width="1.764"/><path d="m-1164 255.6 22.11 30.07-30.08 81.69 8.22 23.96 56.11-42.46"  stroke-width="1.235"/><path d="m-1185 361.7 10.32 30.13-37.04 0.4747"  stroke-width="1.235"/><path d="m-1124 528.1h14.67v15.77h-14.67z"  stroke-width="1.235"/><path d="m-1071 189.6-7.254 0.1289-2.195 2.889-3.902 1.699-4.588 9.453-4.25 19.74 8.978-2.756 13.21-0.0527 13.21 0.0527 8.978 2.756-4.25-19.74-4.588-9.453-3.902-1.699-2.195-2.889z"  stroke-width="1.235"/><path d="m-1080 192.6-0.3663 7.987-3.395 20.15"  stroke-width="1.235"/><ellipse transform="matrix(.8639 .5037 -.5046 .8634 0 0)" cx="-881.2" cy="739.2" rx="5.271" ry="6.299"  stroke-width="1.235"/><ellipse transform="matrix(.8639 .5037 -.5046 .8634 0 0)" cx="-844.5" cy="1007" rx="5.271" ry="6.299"  stroke-width="1.235"/><path d="m-1132 372.2 6.25-4.823 4.752 10.72-6.25 4.823z"  stroke-width="1.235"/><path d="m-1207 394.6 9.627-0.144-4.33 14.28-9.627 0.1441z"  stroke-width="1.235"/><path d="m-1132 211h8.102v11.69h-8.102z"  stroke-width="1.235"/><path d="m-1142 289.8 7.627 2.734-3.945 11-7.627-2.734z"  stroke-width="1.235"/><path d="m-1238 551.6 0.1098 8.173 45.66-6e-3 -0.031-7.602"  stroke-width="1.764"/><path d="m-1236 560 0.098 15.66 10.77 2.913 17.41-5e-3 12.71-2.921-0.028-15.07"  stroke-width="1.764"/><g stroke-width="1.235"><path d="m-1225 552 0.1387 26.53" /><path d="m-1208 552 0.1387 26.53" /><path d="m-1038 458.8 36.67 37.7 0.042 47.46" /><path d="m-1050 164.9-2.416 11.98-3.302 4.02-0.043 6.09 13.42 17.89 5.917-0.0486-0.039-53.02 7.124 1.303 14.43 34.61-2.546 3.51 2.572 8.123 3.805 1.583 50.55 159.6 22.83 9.974" /><path d="m-992.4 210-24.23-2.529-5.022 1.695-4.229 31.09 9.742 11.81-20.56 114 23.05 40.74 0.1726 26.6-14.24 15.12-13.47 0.0807" /><path d="m-1026 240.2-6.198 36.25 9.411 12.1" /><path d="m-1028 170.8h-15.1v27.46h15.1z" /></g><g stroke-width="1.764"><path d="m-904.1 426.3-16.83-1.779-38.72 58.77-0.1371 68.71 56.62-0.1557-0.2116-66.78 20.77-27.82z" /><path d="m-887.3 463.6 2.471 2.643-0.1011 84.78-18.24 0.8405" /><path d="m-933.7 422.5 9.774 6.278" /><path d="m-971.5 525.7 11.52 0.0275" /></g><g stroke-width="1.235"><path d="m-943.7 458.7-10.71-5.536" /><path d="m-888.5 449.9-7.264 8.943-14.69-0.8759-15.88-25.18" /><path d="m-917.3 551.8 0.2356-58.81-17.19 0.2491-21.27 38.98-4.286 19.81" /><path d="m-975.2 416-25.83-0.2791-1.884 3.166 0.04 13.55 18.16 15.27z" /><path d="m-968.9 473.8-7.441-38.52 9.53-25.63-1.69-2.931-45.13 0.1191" /><path d="m-976.4 478.6-36.9-36.06-16.69 18.1 32.59 31.98-0.1207 32.91 2.733 4.509 19.12 0.0678z" /><path d="m-979.4 530-2.855-4.449-0.2624-42.63-36.07-34.3" /><path d="m-976.4 478.6-21 14.02" /><path d="m-986.5 530.3-3.105-4.699-0.3874-38.07-34.45-32.92" /><path d="m-1071 185.8 7.879-0.1089 5.674 4.013 9.489 15.65 5.81 2.917-0.1423 9.217-1.736 0.8326-13.98 134.9 0.1644 12.49 4.475 8.996-0.01 33.52" /></g><path d="m-1038 559.7-0.01 2.834c-4.778 6.372-9.134 9.793-13.45 12.92-5.001-6.432-9.77-11.68-19.23-12.95"  stroke-width="1.764"/><path d="m-977.1 255.6-22.11 30.07 30.08 81.69-8.22 23.96-56.11-42.46"  stroke-width="1.235"/><path d="m-956.7 361.7-10.32 30.13 37.04 0.4747"  stroke-width="1.235"/><path d="m-1017 528.1h-14.67v15.77h14.67z"  stroke-width="1.235"/><path d="m-1061 192.6 0.3663 7.987 3.395 20.15"  stroke-width="1.235"/><ellipse transform="matrix(-.8639 .5037 .5046 .8634 0 0)" cx="967.7" cy="-339.4" rx="5.271" ry="6.299"  stroke-width="1.235"/><ellipse transform="matrix(-.8639 .5037 .5046 .8634 0 0)" cx="1004" cy="-71.42" rx="5.271" ry="6.299"  stroke-width="1.235"/><path d="m-1010 372.2-6.25-4.823-4.752 10.72 6.25 4.823z"  stroke-width="1.235"/><path d="m-934.2 394.6-9.627-0.144 4.33 14.28 9.627 0.1441z"  stroke-width="1.235"/><path d="m-1010 211h-8.102v11.69h8.102z"  stroke-width="1.235"/><path d="m-999.6 289.8-7.627 2.734 3.945 11 7.627-2.734z"  stroke-width="1.235"/><path d="m-903.3 551.6-0.1097 8.173-45.66-6e-3 0.031-7.602"  stroke-width="1.764"/><path d="m-905.7 560-0.0983 15.66-10.77 2.913-17.41-5e-3 -12.71-2.921 0.0278-15.07"  stroke-width="1.764"/><g stroke-width="1.235"><path d="m-916.4 552-0.1387 26.53" /><path d="m-933.8 552-0.1387 26.53" /><path d="m-1058 359.9-26.67-0.0372" /><path d="m-1058 353.2-26.67-0.0372" /><path d="m-1071 247.8-14.04 0.0368-6.282-1.292-3.246 2.809" /><path d="m-1071 247.8 14.04 0.0368 6.282-1.292 3.246 2.809" /><path d="m-1093 245-0.7301-14.53 1.009-3.584 7.21-2.013-5.284 18.46z" /><path d="m-1049 245 0.7301-14.53-1.009-3.584-7.21-2.013 5.284 18.46z" /></g><path d="m-1053 168.5h-13.03v6.251h13.03z"  stroke-width="1.235"/><path d="m-1056 121.1 0.2184 52.95"  stroke-width="1.764"/><path d="m-1059 134.7 0.2185 39.65"  stroke-width="1.235"/><path d="m-1077 253.4h11.75l3.343 5.381-1.87 32.87-14.53 0.0341-2.175-33.14z"  stroke-width="1.235"/></g><g transform="translate(1239)"  fill="none"  ><g stroke-width="1.764"><path d="m-624.7 136-13.01 0.0449-22.39 31.55-83.88 241.3 48.01 68.58-0.4277 53.2 29.84 9.836 0.0469 3.693 36.85 12.09 0.0995-2.626c10.06 1.938 21.71 2.633 32.59 2.804 11.04 0.1027 22.06-0.3984 32.75-2.928l-0.0625 2.75 36.85-12.09 0.0469-3.693 29.84-9.836-0.4277-53.2 48.01-68.58-83.88-241.3-22.39-31.55-13.01-0.0449-6.76 28.95-20.97 0.2676-20.97-0.2676z" /><path d="m-763.6 426.3 16.83-1.779 38.72 58.77 0.1371 68.71-56.62-0.1557 0.2116-66.78-20.77-27.82z" /><path d="m-780.4 463.6-2.471 2.643 0.1011 84.78 18.24 0.8405" /><path d="m-734.1 422.5-9.774 6.278" /><path d="m-696.3 520.7-11.52 0.0275" /></g><path d="m-724 458.7 10.71-5.536"  stroke-width="1.235"/><g stroke-width="1.764"><path d="m-629.7 556.9 9e-3 2.834c4.778 6.372 9.134 9.793 13.45 12.92 5.001-6.432 9.769-11.68 19.23-12.95" /><path d="m-764.5 551.6 0.1097 8.173 45.66-6e-3 -0.031-7.602" /><path d="m-762.1 560 0.0983 15.66 10.77 2.913 17.41-5e-3 12.71-2.921-0.0278-15.07" /></g><path d="m-751.4 552 0.1387 26.53"  stroke-width="1.235"/><path d="m-733.9 552 0.1387 26.53"  stroke-width="1.235"/><path d="m-613.5 121.1-0.2185 44.02"  stroke-width="1.764"/><g stroke-width="1.235"><path d="m-610.6 134.7-0.2185 30.46" /><path d="m-558.1 335.8h-77.77v75.6h77.77z" /><path d="m-637.7 136-4.564 29.5-4.592 230-32.33 42.73-16.78 39.18" /><path d="m-644.1 244.1-28.72 6.542-1.452 16.05 10.06 8.228 16.07 22 3.385 0.1928" /><path d="m-679.2 438.2-27.9-65.56-0.686-11.66 13.07-40.36 6.106-4.047 30.55-1.306-6.103-40.44" /><path d="m-756.7 551.6-0.0588-96.11 1.823-1.843 13.5-0.1578 16.72 31.03-0.0889 67.18" /></g><path d="m-684.6 332h33.61v62.31h-33.61z"  stroke-width="1.235"/><path d="m-617.9 183.7h41.73v35.09h-41.73z"  stroke-width="1.235"/><g stroke-width="1.235"><path d="m-618 164.9 0.0402 18.76" /><path d="m-617.9 218.8 0.0331 70.71-10.99 25.54" /><path d="m-624.7 136-4.564 29.5 0.4042 149.6-0.1985 16.98" /><path d="m-554.1 331.9h-85.77v83.38h85.77z" /><path d="m-638.4 180.3h7.112v71.21h-7.112z" /><path d="m-736.8 419.1 36.85-108.1 11.31-11.41 14.42-32.99" /><path d="m-691.7 258.5 10.71-0.4293 3.311-1.269 13.83-41.15-2.192-2.446-10.82 0.3604" /><path d="m-643.2 197-26.67-0.0372" /><path d="m-642.6 182.4-22.86-0.0372" /><path d="m-673.6 441.8 27.21-27.53 0.4689 72.34-27.53-1.229z" /><path d="m-597 509.2-19.14-0.0605-11.63-14.89 0.0368-8.229-9.018-0.0779-0.2136-70.47" /><path d="m-696 477.4 10.39 11.68 44.6 4.726 23.69 41.12" /></g><path d="m-695.9 526.1 30.11 2.923 29.71 4.746 39.07 1.591"  stroke-width="1.764"/><path d="m-639.5 496.4-0.2518 28 17.68 2.617"  stroke-width="1.235"/><ellipse transform="matrix(1 .00607 -.009635 1 0 0)" cx="-654.8" cy="264.8" rx="6.199" ry="6.299"  stroke-width="1.235"/><ellipse transform="matrix(1 .00607 -.009635 1 0 0)" cx="-656.1" cy="519" rx="6.199" ry="6.299"  stroke-width="1.235"/><path d="m-645.7 328.1-11-4.544-1.405-8.285"  stroke-width="1.235"/><g stroke-width="1.764"><path d="m-430.4 426.3-16.83-1.779-38.72 58.77-0.1371 68.71 56.62-0.1557-0.2116-66.78 20.77-27.82z" /><path d="m-413.6 463.6 2.471 2.643-0.1011 84.78-18.24 0.8405" /><path d="m-459.9 422.5 9.774 6.278" /><path d="m-497.7 520.7 11.52 0.0275" /></g><path d="m-470 458.7-10.71-5.536"  stroke-width="1.235"/><g stroke-width="1.764"><path d="m-564.3 556.9-9e-3 2.834c-4.778 6.372-9.134 9.793-13.45 12.92-5.001-6.432-9.769-11.68-19.23-12.95" /><path d="m-429.5 551.6-0.1097 8.173-45.66-6e-3 0.031-7.602" /><path d="m-431.9 560-0.0983 15.66-10.77 2.913-17.41-5e-3 -12.71-2.921 0.0278-15.07" /></g><g stroke-width="1.235"><path d="m-442.6 552-0.1387 26.53" /><path d="m-460.1 552-0.1387 26.53" /><path d="m-556.3 136 4.564 29.5 4.592 230 32.33 42.73 16.78 39.18" /><path d="m-549.9 244.1 28.72 6.542 1.452 16.05-10.06 8.228-16.07 22-3.385 0.1928" /><path d="m-514.8 438.2 27.9-65.56 0.686-11.66-13.07-40.36-6.106-4.047-30.55-1.306 6.103-40.44" /><path d="m-437.3 551.6 0.0588-96.11-1.823-1.843-13.5-0.1578-16.72 31.03 0.0889 67.18" /></g><path d="m-509.4 332h-33.61v62.31h33.61z"  stroke-width="1.235"/><g stroke-width="1.235"><path d="m-576 164.9-0.0402 18.76" /><path d="m-576.1 218.8-0.0331 70.71 10.99 25.54" /><path d="m-569.3 136 4.564 29.5-0.4042 149.6 0.1985 16.98" /><path d="m-555.6 180.3h-7.112v71.21h7.112z" /><path d="m-457.2 419.1-36.85-108.1-11.31-11.41-14.42-32.99" /><path d="m-502.3 258.5-10.71-0.4293-3.311-1.269-13.83-41.15 2.192-2.446 10.82 0.3604" /><path d="m-550.8 197 26.67-0.0372" /><path d="m-551.4 182.4 22.86-0.0372" /><path d="m-520.4 441.8-27.21-27.53-0.4689 72.34 27.53-1.229z" /><path d="m-597 509.2 19.14-0.0605 11.63-14.89-0.0368-8.229 9.018-0.0779 0.2136-70.47" /><path d="m-498 477.4-10.39 11.68-44.6 4.726-23.69 41.12" /></g><path d="m-498.1 526.1-30.11 2.923-29.71 4.746-39.07 1.591"  stroke-width="1.764"/><path d="m-554.5 496.4 0.2518 28-17.68 2.617"  stroke-width="1.235"/><ellipse transform="matrix(-1 .00607 .009635 1 0 0)" cx="539.1" cy="257.6" rx="6.199" ry="6.299"  stroke-width="1.235"/><ellipse transform="matrix(-1 .00607 .009635 1 0 0)" cx="537.9" cy="511.8" rx="6.199" ry="6.299"  stroke-width="1.235"/><path d="m-548.3 328.1 11-4.544 1.405-8.285"  stroke-width="1.235"/><path d="m-576.1 289.5h-41.79"  stroke-width="1.235"/><g stroke-width="1.235"><path d="m-620 447.3h17.65v21.92h-17.65z" /><path d="m-591.8 447.3h17.65v21.92h-17.65z" /><path d="m-617.9 495.7h41.73v7.867h-41.73z" /><path d="m-752.2 513.9h23.52v21.92h-23.52z" /><path d="m-465.3 513.9h23.52v21.92h-23.52z" /></g></g><g  ><rect x="178.8" y="528.1" width="14.67" height="15.77" rx="1.971" ry="1.821" fill="#ff3ae1"    stroke-width="1.554"><desc>{ "type": "utility", "i": 1 }</desc></rect><rect x="430.8" y="128.2" width="8.144" height="8.073" fill="#979797"   stroke-width="3.587"><desc>{ "type": "gunsight", "cl": "gun", "i": 0 }</desc></rect><g fill="none" stroke="#979797" stroke-width="3.587"><path d="m442.9 86.92c21.52 3.996 37.82 22.87 37.82 45.55 0 5.371-0.9139 10.53-2.595 15.33m-7.842 13.97c-8.496 10.4-21.42 17.03-35.89 17.03-14.38 0-27.24-6.555-35.74-16.84m-7.716-13.37c-1.862-5.019-2.88-10.45-2.88-16.12 0-23.05 16.84-42.18 38.89-45.74" /><g><path d="m434.9 71.19v15.85" /><path d="m395.6 155.1-13.68 8.014" /><path d="m474.2 155.1 13.68 8.014" /></g></g><g fill="#979797" ><circle cx="447.9" cy="139.5" r="3.783"  stroke-width="3.587"><desc>{ "type": "hard_point", "cl": "gun", "i": 4 }</desc></circle><circle cx="422.6" cy="139.5" r="3.783"  stroke-width="2.869"><desc>{ "type": "hard_point", "cl": "gun", "i": 3 }</desc></circle><circle cx="384.8" cy="169" r="3.783"  stroke-width="3.587"><desc>{ "type": "gunsight", "cl": "gun", "i": 1 }</desc></circle></g><g ><rect x="189.3" y="170.8" width="15.1" height="27.46" rx="3.114" ry="3.051" fill="#4df346"   stroke-width="1.661"><desc>{ "type": "hard_point", "i": 3 }</desc></rect><g><ellipse transform="matrix(.9384 .3456 -.3846 .9231 0 0)" cx="230.7" cy="124.1" rx="5.24" ry="6.087" fill="#f39745"   stroke-width="1.765"><desc>{ "type": "misc", "i": "thrusters" }</desc></ellipse><path d="m66.34 582.1h42.27l-21.13 22.29z" fill="#f39745"   stroke-width="1.764"><desc>{ "type": "misc", "i": "thrusters" }</desc></path><path d="m680.9 335.8h-77.77v75.6h77.77z" fill="#f39746"   stroke-width="1.235"><desc>{ "type": "other", "i": "cargo hatch" }</desc></path><path d="m225 189.7-2.195 2.889-3.902 1.699-4.588 9.453-4.25 19.74 8.978-2.756h26.42l8.978 2.756-4.25-19.74-4.588-9.453-3.902-1.699-2.195-2.889z" fill="#f39746"   stroke-width="1.764"><desc>{ "type": "other", "i": "canopy" }</desc></path></g><circle cx="410.7" cy="149.6" r="3.783" fill="#979797"  stroke-width="2.869"><desc>{ "type": "hard_point", "cl": "gun", "i": 1 }</desc></circle><circle cx="459" cy="149.6" r="3.783" fill="#979797"  stroke-width="2.869"><desc>{ "type": "hard_point", "cl": "gun", "i": 2 }</desc></circle><rect x="271" y="528.1" width="14.67" height="15.77" rx="1.971" ry="1.821" fill="#ff3ae1"   stroke-width="1.554"><desc>{ "type": "utility", "i": 2 }</desc></rect></g><g fill="#4df346" ><rect x="260.1" y="170.8" width="15.1" height="27.46" rx="3.114" ry="3.051"   stroke-width="1.661"><desc>{ "type": "hard_point", "i": 4 }</desc></rect><rect x="554.4" y="332" width="33.61" height="62.31" rx="3.114" ry="3.051"   stroke-width="1.661"><desc>{ "type": "hard_point", "i": 2 }</desc></rect><rect x="695.9" y="332" width="33.61" height="62.31" rx="3.114" ry="3.051"   stroke-width="1.661"><desc>{ "type": "hard_point", "i": 1 }</desc></rect></g><g fill="#f39745" ><g stroke-width="1.765"><ellipse transform="matrix(-.9384 .3456 .3846 .9231 0 0)" cx="-198.5" cy="284.8" rx="5.24" ry="6.087"  ><desc>{ "type": "misc", "i": "thrusters" }</desc></ellipse><ellipse transform="matrix(.9384 .3456 -.3846 .9231 0 0)" cx="231.2" cy="394.7" rx="5.24" ry="6.087"  ><desc>{ "type": "misc", "i": "thrusters" }</desc></ellipse><ellipse transform="matrix(-.9384 .3456 .3846 .9231 0 0)" cx="-197.9" cy="555.3" rx="5.24" ry="6.087"  ><desc>{ "type": "misc", "i": "thrusters" }</desc></ellipse></g><g stroke-width="1.764"><ellipse transform="matrix(-.8923 -.4515 -.433 .9014 0 0)" cx="-744.1" cy="198.7" rx="6.251" ry="6.266"  ><desc>{ "type": "misc", "i": "thrusters" }</desc></ellipse><ellipse transform="matrix(-.8923 -.4515 -.433 .9014 0 0)" cx="-859.6" cy="140.8" rx="6.251" ry="6.266"  ><desc>{ "type": "misc", "i": "thrusters" }</desc></ellipse><ellipse transform="matrix(-.8923 -.4515 -.433 .9014 0 0)" cx="-637.2" cy="-29.92" rx="6.251" ry="6.266"  ><desc>{ "type": "misc", "i": "thrusters" }</desc></ellipse><ellipse transform="matrix(-.8923 -.4515 -.433 .9014 0 0)" cx="-746.1" cy="-84.45" rx="6.251" ry="6.266"  ><desc>{ "type": "misc", "i": "thrusters" }</desc></ellipse></g><g stroke-width="1.235"><path d="m621.1 218.8h41.73l0.0932 70.71h-41.79z"  ><desc>{ "type": "misc", "i": "landing gear" }</desc></path><path d="m565.4 441.8 27.21-27.53 0.4689 72.34-27.53-1.229z"  ><desc>{ "type": "misc", "i": "landing gear" }</desc></path><path d="m718.6 441.8-27.21-27.53-0.4689 72.34 27.53-1.229z"  ><desc>{ "type": "misc", "i": "landing gear" }</desc></path></g><g stroke-width="1.764"><path d="m355.5 582.1h42.27l-21.13 22.29z"  ><desc>{ "type": "misc", "i": "thrusters" }</desc></path><path d="m476.3 582.1h42.27l-21.13 22.29z"  ><desc>{ "type": "misc", "i": "thrusters" }</desc></path><path d="m765.5 582.1h42.27l-21.13 22.29z"  ><desc>{ "type": "misc", "i": "thrusters" }</desc></path><path d="m65.03 421.5h17.8l-8.9-9.389z"  ><desc>{ "type": "misc", "i": "thrusters" }</desc></path><path d="m382 421.5h17.8l-8.9-9.389z"  ><desc>{ "type": "misc", "i": "thrusters" }</desc></path><path d="m474.1 421.5h17.8l-8.9-9.389z"  ><desc>{ "type": "misc", "i": "thrusters" }</desc></path><path d="m791.1 421.5h17.8l-8.9-9.389z"  ><desc>{ "type": "misc", "i": "thrusters" }</desc></path></g></g><g ><path d="m217.7 224.9-7.21 2.013-1.009 3.584 0.7301 14.53 2.205-1.668z" fill="#f39746"   stroke-width="1.764"><desc>{ "type": "other", "i": "canopy" }</desc></path><path d="m246.7 224.9 7.21 2.013 1.009 3.584-0.7301 14.53-2.205-1.668z" fill="#f39746"   stroke-width="1.764"><desc>{ "type": "other", "i": "canopy" }</desc></path><path d="m174.8 442.5 16.69 18.1-32.59 31.98 0.1208 32.91-2.734 4.509-19.12 0.0678 0.7356-51.51z" fill="#f39745"   stroke-width="1.235"><desc>{ "type": "misc", "i": "heat vents" }</desc></path><path d="m289.7 442.5-16.69 18.1 32.59 31.98-0.1208 32.91 2.734 4.509 19.12 0.0678-0.7356-51.51z" fill="#f39745"   stroke-width="1.235"><desc>{ "type": "misc", "i": "heat vents" }</desc></path><path d="m634.5 209.1a8.125 7.918 0 0 0 8.125 7.918 8.125 7.918 0 0 0 8.125-7.918 8.125 7.918 0 0 0-1.904-5.082l-6.221-9.992-6.199 9.959a8.125 7.918 0 0 0-1.926 5.115z" fill="#46d2f3"   stroke-width="1.764"><desc>{ "type": "internal", "i": "entrance" }</desc></path></g></g></svg>
