<svg width="870" height="640" clip-rule="evenodd" fill-rule="evenodd" image-rendering="optimizeQuality" shape-rendering="geometricPrecision" text-rendering="geometricPrecision" version="1.1" viewBox="0 0 870 640" xml:space="preserve" xmlns="http://www.w3.org/2000/svg">
<g><rect x="430.8" y="128.2" width="8.144" height="8.073" fill="#979797"   stroke-width="3.587"><desc>{ "type": "gunsight", "cl": "gun", "i": 0 }</desc></rect><g fill="none" stroke="#979797" stroke-width="3.587"><path d="m442.9 86.92c21.52 3.996 37.82 22.87 37.82 45.55 0 5.371-0.9139 10.53-2.595 15.33m-7.842 13.97c-8.496 10.4-21.42 17.03-35.89 17.03-14.38 0-27.24-6.555-35.74-16.84m-7.716-13.37c-1.862-5.019-2.88-10.45-2.88-16.12 0-23.05 16.84-42.18 38.89-45.74" /><g><path d="m434.9 71.19v15.85" /><path d="m395.6 155.1-13.68 8.014" /><path d="m474.2 155.1 13.68 8.014" /></g></g><circle cx="468" cy="116.4" r="3.783" fill="#979797"   stroke-width="3.587"><desc>{ "type": "hard_point", "cl": "gun", "i": 2 }</desc></circle><circle cx="400.9" cy="116.4" r="3.783" fill="#979797"   stroke-width="2.869"><desc>{ "type": "hard_point", "cl": "gun", "i": 1 }</desc></circle></g><g transform="translate(1314)"  fill="none"  ><path d="m-1108 169.7-18.95 12.78-49.98 84.76 12.92 15.97-10.7 71.29-65.61 112.7-6.368 62.77 139.8 56.95 18.25-159.3 1.064-146.6-13-14.97-0.02-55.59-4.103-3.711-0.3515-27.31 4.44-9.76z"  stroke-width="1.764"/><g stroke-width="1.235"><circle cx="-1160" cy="264.3" r="4.524" /><circle cx="-1160" cy="264.3" r="6.77" /><circle cx="-1230" cy="510.4" r="4.524" /><circle cx="-1230" cy="510.4" r="6.77" /></g><path d="m-1147 395.5h16.15v17.13h-16.15z"  stroke-width="1.235"/><path d="m-1133 222.2h16.15v17.13h-16.15z"  stroke-width="1.235"/><g stroke-width="1.235"><path d="m-1160 238.4 24.16 15.68 23.31-7.225 0.2418-6.351 7.932 1e-3 0.097-29.23-4.026-3.639-0.1264-16.72 2.788-2.676" /><path d="m-1179 362-41.68 104.8 14.56 59.7 86.22 38" /><path d="m-1101 243-5.64 0.0633 0.2101 24.35 12.06 14.49-0.2324 63.68-7.939 20.3-0.5855 62.42-19.11 152.5" /><path d="m-1164 283.2 20.74-21.14 37.55-13.07" /><path d="m-1179 362 10.81 10.1 59.27-0.0486" /></g><path d="m-1162 292.5h8.982l4.785-4.98h22.46l3.809 4.98h6.748v72.36h-46.79z"  stroke-width="1.235"/><g stroke-width="1.235"><path d="m-1106 267.4-9.034 25.15" /><path d="m-1115 364.9 6.077 7.204" /><path d="m-1109 372.1 0.03 56.58-19.72 149.5" /><path d="m-1168 372.1 20.55 180.3" /><path d="m-1179 362 31.36 190.4" /><path d="m-1162 305.3 10.04-0.0164 3.808-4.498 20.61-0.0336 2.93 4.487 8.865-0.0145" /><path d="m-1162 318 10.04-0.0164 3.808-4.498 20.61-0.0336 2.93 4.487 8.865-0.0145" /><path d="m-1162 329.9 10.04-0.0164 3.808-4.498 20.61-0.0336 2.93 4.487 8.865-0.0145" /><path d="m-1162 342.4 10.04-0.0164 3.808-4.498 20.61-0.0336 2.93 4.487 8.865-0.0145" /><path d="m-1110 438.3 6.842-3.913 14.26-1.855" /><path d="m-1138 201 8.314 4.891-8.893 15.5-8.253-5.037" /><path d="m-1206 546.7 3.971-10.48 3.404-0.9404 71.29 30.87" /><path d="m-1176 378.6 9.432 6.267 57.71 5e-3" /><path d="m-1109 376.2 10.83-0.0719 2.441 2.573-0.2212 37.39-2.374 2.824-10.84-3e-3" /></g><path d="m-1036 169.7 18.95 12.78 49.98 84.76-12.92 15.97 10.7 71.29 65.61 112.7 6.368 62.77-139.8 56.95-18.25-159.3-1.064-146.6 13-14.97 0.02-55.59 4.103-3.711 0.3514-27.31-4.44-9.76z"  stroke-width="1.764"/><g stroke-width="1.235"><circle transform="scale(-1,1)" cx="984.9" cy="264.3" r="4.524" /><circle transform="scale(-1,1)" cx="984.9" cy="264.3" r="6.77" /><circle transform="scale(-1,1)" cx="914.8" cy="510.4" r="4.524" /><circle transform="scale(-1,1)" cx="914.8" cy="510.4" r="6.77" /></g><path d="m-997.4 395.5h-16.15v17.13h16.15z"  stroke-width="1.235"/><path d="m-1011 222.2h-16.15v17.13h16.15z"  stroke-width="1.235"/><g stroke-width="1.235"><path d="m-984.8 238.4-24.16 15.68-23.31-7.225-0.2419-6.351-7.932 1e-3 -0.097-29.23 4.026-3.639 0.1264-16.72-2.788-2.676" /><path d="m-965.4 362 41.68 104.8-14.56 59.7-86.22 38" /><path d="m-1044 243 5.64 0.0633-0.2102 24.35-12.06 14.49 0.2325 63.68 7.939 20.3 0.5855 62.42 19.11 152.5" /><path d="m-980.4 283.2-20.74-21.14-37.55-13.07" /><path d="m-965.4 362-10.81 10.1-59.27-0.0486" /></g><path d="m-982.6 292.5h-8.982l-4.785-4.98h-22.46l-3.808 4.98h-6.748v72.36h46.79z"  stroke-width="1.235"/><g stroke-width="1.235"><path d="m-1038 267.4 9.034 25.15" /><path d="m-1029 364.9-6.077 7.204" /><path d="m-1035 372.1-0.03 56.58 19.72 149.5" /><path d="m-976.2 372.1-20.55 180.3" /><path d="m-965.4 362-31.36 190.4" /><path d="m-982.9 305.3-10.04-0.0164-3.808-4.498-20.61-0.0336-2.93 4.487-8.865-0.0145" /><path d="m-982.9 318-10.04-0.0164-3.808-4.498-20.61-0.0336-2.93 4.487-8.865-0.0145" /><path d="m-982.9 329.9-10.04-0.0164-3.808-4.498-20.61-0.0336-2.93 4.487-8.865-0.0145" /><path d="m-982.9 342.4-10.04-0.0164-3.808-4.498-20.61-0.0336-2.93 4.487-8.865-0.0145" /><path d="m-1034 438.3-6.842-3.913-14.26-1.855" /><path d="m-1007 201-8.314 4.891 8.893 15.5 8.253-5.037" /><path d="m-938.6 546.7-3.971-10.48-3.404-0.9404-71.29 30.87" /><path d="m-968.2 378.6-9.432 6.267-57.71 5e-3" /><path d="m-1036 376.2-10.83-0.0719-2.441 2.573 0.2213 37.39 2.374 2.824 10.84-3e-3" /></g><g stroke-width="1.235"><path d="m-1110 214.6h3.639v18.15h-3.639z" /><path d="m-1038 214.6h3.639v18.15h-3.639z" /><path d="m-1082 306.4h20.25v17.13h-20.25z" /><path d="m-1079 345.8h13.07v17.13h-13.07z" /><path d="m-1090 481.4h35.44l3.038 51.8h-41.52z" /></g><path d="m-1090 437.5 34.95-2e-3"  stroke-width="1.235"/><path d="m-1094 474.1 43.59-2e-3"  stroke-width="1.235"/><path d="m-1103 553.2 22-7.1e-4 1.074-5.322 14.99 6e-3 1.268 5.316 22.65-7.3e-4"  stroke-width="1.235"/><path d="m-1080 547.9-0.033-14.38"  stroke-width="1.235"/><path d="m-1065 547.9-0.033-14.38"  stroke-width="1.235"/><path d="m-1084 371.3h24.15v62.05h-24.15z"  stroke-width="1.235"/><path d="m-1088 295.7 31.43-2e-3"  stroke-width="1.235"/><path d="m-1088 280.9 31.43-2e-3"  stroke-width="1.235"/><path d="m-1105 206.8 3.626-6.654 2.892-1.623 13.35-22.79 12.9-0.035"  stroke-width="1.764"/><path d="m-1081 181.2-14.16 15.75-0.1094 16.75 1.043 0.3926 4.004-2.82 6.051-0.6035 11.99-0.0293 11.99 0.0293 6.051 0.6035 4.004 2.82 1.043-0.3926-0.1094-16.75-14.16-15.75h-9.033z"  stroke-width="1.235"/><path d="m-1040 206.8-3.626-6.654-2.892-1.623-13.35-22.79-12.9-0.035"  stroke-width="1.764"/><g stroke-width="1.235"><path d="m-1072 191.1-10.33 0.0569-4.818 11.7-0.1736 8.014" /><path d="m-1072 191.1 10.33 0.0569 4.818 11.7 0.1735 8.014" /><path d="m-1083 191.1-2.743-4.501" /><path d="m-1062 191.1 2.743-4.501" /><path d="m-1095 201.3-5.408 9.175" /><path d="m-1049 201.3 5.408 9.175" /></g><path d="m-1076 257.7h8.076v13.62h-8.076z"  stroke-width="1.235"/><g stroke-width="1.235"><path d="m-1077 268.6-10.97-22.84-0.1736-34.97" /><path d="m-1068 268.6 10.97-22.84 0.1735-34.97" /><path d="m-1100 259.4 12.88-13.64" /><path d="m-1044 259.4-12.88-13.64" /></g><path d="m-1083 453.1h22l7.324 21.36-4.59 6.906h-27.47l-4.59-7.59z"  stroke-width="1.235"/><g stroke-width="1.235"><path d="m-1161 279.9-10.73-13.32 46.73-79.35 10.48-7.592 9.521-0.1586" /><path d="m-983.4 279.9 10.73-13.32-46.73-79.35-10.48-7.592-9.522-0.1586" /><path d="m-1204 404.6 1.511 2.995-31.67 58.48-2.044 29.63-7.535 4.405" /><path d="m-940.6 404.6-1.511 2.995 31.67 58.48 2.044 29.63 7.535 4.405" /></g><path d="m-1236 459.1 0.2805-15.83 53.94-83.26 6.873-5.465"  stroke-width="1.764"/><path d="m-908.6 459.1-0.2805-15.83-53.94-83.26-6.873-5.465"  stroke-width="1.764"/></g><g transform="translate(1089)"  fill="none"  ><path d="m-484.7 169.7-18.95 12.78-49.98 84.76 12.92 15.97-3.998 6.752-1.139 57.6-3.686 0.248-73.02 105.5 0.2617 96.19 151.9 0.875 0.0332-36.13 7.99 0.0293 0.0938 22.44 13.7-0.1152 13.7 0.1152 0.0918-22.44 7.99-0.0293 0.0332 36.13 151.9-0.875 0.2617-96.19-73.02-105.5-3.686-0.248-1.137-57.6-3.998-6.752 12.92-15.97-49.98-84.76-18.95-12.78h-7.416l4.439 9.76-0.3516 27.31-7.83 5.645-15.9-25.89c-1.706-2.389-5.529-3.018-9.076-2.988-3.547-0.0298-7.37 0.5996-9.076 2.988l-15.9 25.89-7.832-5.645-0.3516-27.31 4.439-9.76z"  stroke-width="1.764"/><g stroke-width="1.235"><circle cx="-534.6" cy="267.4" r="4.524" /><circle cx="-534.6" cy="267.4" r="6.77" /><circle cx="-601.4" cy="530.7" r="4.524" /><circle cx="-601.4" cy="530.7" r="6.77" /><path d="m-540.7 283.2 52.23-48.76 7.556-4.296" /></g><path d="m-470.4 550.5 12.47-0.066 1.074-5.322 16.03 6e-3 1.268 5.316 11.26-7.3e-4"  stroke-width="1.235"/><path d="m-481.4 206.8 3.626-6.654 2.892-1.623 13.35-22.79 12.9-0.035"  stroke-width="1.764"/><path d="m-416.3 206.8-3.626-6.654-2.892-1.623-13.35-22.79-12.9-0.035"  stroke-width="1.764"/><g stroke-width="1.235"><path d="m-550.6 270.5 50.12-85.15 8.826-5.978 9.936 0.1176" /><path d="m-500.5 185.3 8.488 21.57 10.62-0.1182" /><path d="m-481.4 206.8 0.4799 6.291-0.0384 17.1" /><path d="m-467.8 258.1 4.764-2.114 28.4-0.0474 5.439 2.162v61.29l-4.313 3.45-29.4-0.1114-4.89-3.338z" /><path d="m-539.5 446.3 4.764-2.114 28.4-0.0474 5.439 2.162v61.29l-4.313 3.45-29.4-0.1114-4.89-3.338z" /></g><path d="m-475.2 363.8 6.541-1.696 38.99-0.0379 7.468 1.734v49.18l-5.921 2.768-40.36-0.0893-6.713-2.679z"  stroke-width="1.235"/><g stroke-width="1.235"><path d="m-462.2 193.9-7.187-4.306" /><path d="m-545.2 314.7 17.73-0.2378 10.58 34.72-25.76 38.56 17.91 11.82-41.01 61.77-18.16-12.11-10.76 15.7 0.2001 59.67 2.157 3.518 21.11 8.905 80.05 0.0783 1.783-5.069 0.1343-166.9-27.65-15.99" /><path d="m-601.6 549.8 4e-3 -5.902-9.466-12.4 0.0426-69.05 76.5-113.4-0.0638-55.46 7.1 20.89" /><path d="m-534.6 293.6 53.37-48.04 15.7-0.3135" /><path d="m-489.3 365.1 10.76-36.77 29.96 0.1008" /><path d="m-470.3 514.3 0.0449-64.01-19.21-20.06" /></g><path d="m-546.9 389.2 17.14 11.55-37.57 55.02-17.14-11.55z"  stroke-width="1.235"/><path d="m-572.4 426.4-9.921-6.748"  stroke-width="1.235"/><path d="m-583.4 442.4-9.726-6.748"  stroke-width="1.235"/><path d="m-474.5 456.8h-11.65v17.13h11.65z"  stroke-width="1.235"/><g stroke-width="1.235"><path d="m-470.7 493.6-18.51-0.1069" /><path d="m-491.2 550-0.0293-12.92" /><path d="m-497.1 550-0.0293-12.92" /><path d="m-448.6 236.1-17.64-0.0138 1.152 20.98" /><path d="m-495.9 241.2 11.72 86.23" /><path d="m-488.1 300.5-33.84 31.8" /></g><path d="m-494.9 276.7-7.811-8.648-9.526 8.604 7.811 8.648z"  stroke-width="1.235"/><path d="m-478.5 328.4-5.657-0.9673-3.917 1.094-8.168 25.87 1.446 2.268 6.719 3.788"  stroke-width="1.235"/><path d="m-570.6 549.8 17.29 15.67 61.92-0.04 11.5-5.21 0.1929-9.426"  stroke-width="1.764"/><path d="m-515.6 565.4 36.06 14.69 2.955-29.31"  stroke-width="1.764"/><g stroke-width="1.235"><path d="m-491.4 565.4-0.0293-14.97" /><path d="m-553.3 565.4-0.0293-14.97" /><path d="m-534.6 349-11.3-1.409" /><path d="m-610.9 464.6-11.51-0.0281" /><circle transform="scale(-1,1)" cx="362.6" cy="267.4" r="4.524" /><circle transform="scale(-1,1)" cx="362.6" cy="267.4" r="6.77" /><circle transform="scale(-1,1)" cx="295.8" cy="530.7" r="4.524" /><circle transform="scale(-1,1)" cx="295.8" cy="530.7" r="6.77" /><path d="m-356.4 283.2-52.23-48.76-7.556-4.296" /><path d="m-346.5 270.5-50.12-85.15-8.826-5.978-9.936 0.1176" /><path d="m-396.6 185.3-8.488 21.57-10.62-0.1182" /><path d="m-415.8 206.8-0.4799 6.291 0.0384 17.1" /><path d="m-357.7 446.3-4.764-2.114-28.4-0.0474-5.439 2.162v61.29l4.313 3.45 29.4-0.1114 4.89-3.338z" /><path d="m-435 193.9 7.187-4.306" /><path d="m-351.9 314.7-17.73-0.2378-10.58 34.72 25.76 38.56-17.91 11.82 41.01 61.77 18.16-12.11 10.76 15.7-0.2001 59.67-2.157 3.518-21.11 8.905-80.05 0.0783-1.783-5.069-0.1343-166.9 27.65-15.99" /><path d="m-295.5 549.8-4e-3 -5.902 9.466-12.4-0.0426-69.05-76.5-113.4 0.0638-55.46-7.1 20.89" /><path d="m-362.5 293.6-53.37-48.04-15.7-0.3135" /><path d="m-407.8 365.1-10.76-36.77-29.96 0.1008" /><path d="m-426.8 514.3-0.0449-64.01 19.21-20.06" /></g><path d="m-350.2 389.2-17.14 11.55 37.57 55.02 17.14-11.55z"  stroke-width="1.235"/><path d="m-324.8 426.4 9.921-6.748"  stroke-width="1.235"/><path d="m-313.7 442.4 9.726-6.748"  stroke-width="1.235"/><path d="m-422.6 456.8h11.65v17.13h-11.65z"  stroke-width="1.235"/><g stroke-width="1.235"><path d="m-426.4 493.6 18.51-0.1069" /><path d="m-406 550 0.0293-12.92" /><path d="m-400.1 550 0.0293-12.92" /><path d="m-448.6 236.1 17.64-0.0138-1.152 20.98" /><path d="m-401.2 241.2-11.72 86.23" /><path d="m-409 300.5 33.84 31.8" /></g><path d="m-402.2 276.7 7.811-8.648 9.526 8.604-7.811 8.648z"  stroke-width="1.235"/><path d="m-418.6 328.4 5.657-0.9673 3.917 1.094 8.168 25.87-1.446 2.268-6.719 3.788"  stroke-width="1.235"/><path d="m-326.7 549.8-17.11 15.67-61.92-0.04-11.5-5.21-0.1929-9.426"  stroke-width="1.764"/><path d="m-381.5 565.4-36.06 14.69-2.955-29.31"  stroke-width="1.764"/><g stroke-width="1.235"><path d="m-405.7 565.4 0.0293-14.97" /><path d="m-343.8 565.4 0.0293-14.97" /><path d="m-362.6 349 11.3-1.409" /><path d="m-286.3 464.6 11.51-0.0281" /><path d="m-473.5 212.4 1.007 115.7" /><path d="m-423.6 212.4-1.007 115.7" /></g><path d="m-468.7 214.9h40.24v15.89h-40.24z"  stroke-width="1.235"/><path d="m-448.6 179.2-4.824 2e-3 -6.434 5.215-0.8086 2.969 2.277-0.0625 2.275-2.369 3.592-1.268 3.922 0.1816 3.92-0.1816 3.592 1.268 2.277 2.369 2.275 0.0625-0.8086-2.969-6.434-5.215z"  stroke-width="1.235"/><path d="m-458.9 455.1h20.49v81.66h-20.49z"  stroke-width="1.235"/><path d="m-469.4 426.8h41.49l-6 23.91h-29.49z"  stroke-width="1.235"/><path d="m-484.8 361.9 8.897-7.867 53.03-0.0494 10.16 7.917v53.83l-8.054 8.203-54.9-0.1164-9.132-8.086z"  stroke-width="1.235"/><path d="m-468.7 330.9h40.24v15.89h-40.24z"  stroke-width="1.235"/><g stroke-width="1.235"><path d="m-448.4 255.8 0.035 67.21" /><path d="m-519.5 444.1 4e-3 67.21" /><path d="m-376.2 443.8-0.0275 67.21" /><path d="m-473.7 230.2-7.283-0.0221" /><path d="m-416.2 230.2-7.283-0.0221" /><path d="m-508 510.9 0.0178 8.592-22.87 0.0441-0.1058-8.666" /><path d="m-389.2 510.9-0.0178 8.592 22.87 0.0441 0.1058-8.666" /><path d="m-489.3 365.1-82.38 118 0.4122 53.85" /><path d="m-571.7 483.1-23.05-18.24" /><path d="m-407.8 365.1 82.38 118-0.4122 53.85" /><path d="m-325.5 483.1 23.05-18.24" /><path d="m-481 223-11.08 4.56-35.88 37.86" /><path d="m-415.7 223 11.08 4.56 35.88 37.86" /><path d="m-536.3 274.1-6.479 6.654" /><path d="m-360.5 274.1 6.479 6.654" /></g></g><g  ><g fill="#ff3ae1"  stroke-width="1.554"><rect x="167.2" y="395.5" width="16.15" height="17.13" rx="1.971" ry="1.821"  ><desc>{ "type": "utility", "i": 1 }</desc></rect><rect x="300.7" y="395.5" width="16.15" height="17.13" rx="1.971" ry="1.821"  ><desc>{ "type": "utility", "i": 2 }</desc></rect><rect x="286.8" y="222.2" width="16.15" height="17.13" rx="1.971" ry="1.821"  ><desc>{ "type": "utility", "i": 4 }</desc></rect><rect x="181.2" y="222.2" width="16.15" height="17.13" rx="1.971" ry="1.821"  ><desc>{ "type": "utility", "i": 3 }</desc></rect></g><rect x="613.7" y="361.8" width="53.02" height="53.85" rx="4.259" ry="2.6" fill="#f39746"    stroke-width="1.794"><desc>{ "type": "other", "i": "cargo hatch" }</desc></rect><g fill="#f39745"  stroke-width="1.764"><circle cx="154.6" cy="264.3" r="4.682"  ><desc>{ "type": "misc", "i": "thrusters" }</desc></circle><circle cx="329.5" cy="264.3" r="4.682"  ><desc>{ "type": "misc", "i": "thrusters" }</desc></circle><circle cx="84.66" cy="510.4" r="4.682"  ><desc>{ "type": "misc", "i": "thrusters" }</desc></circle><circle cx="399.6" cy="510.4" r="4.682"  ><desc>{ "type": "misc", "i": "thrusters" }</desc></circle><circle cx="487.5" cy="530.7" r="4.682"  ><desc>{ "type": "misc", "i": "thrusters" }</desc></circle><circle cx="793.2" cy="530.8" r="4.682"  ><desc>{ "type": "misc", "i": "thrusters" }</desc></circle><circle cx="726.4" cy="267.4" r="4.682"  ><desc>{ "type": "misc", "i": "thrusters" }</desc></circle><circle cx="554.3" cy="267.3" r="4.682"  ><desc>{ "type": "misc", "i": "thrusters" }</desc></circle></g><g fill="#f49644"  stroke-width=".9927"><path d="m549.4 446.3 4.898-2.21h28.33l5.474 2.254v61.26l-4.457 3.447h-29.26l-4.986-3.58z"  ><desc>{ "type": "misc", "i": "landing gear" }</desc></path><path d="m692.6 446.3 4.898-2.21h28.33l5.474 2.254v61.26l-4.457 3.447h-29.26l-4.986-3.58z"  ><desc>{ "type": "misc", "i": "landing gear" }</desc></path><path d="m621 258.1 4.898-2.21h28.33l5.474 2.254v61.26l-4.457 3.447h-29.26l-4.986-3.58z"  ><desc>{ "type": "misc", "i": "landing gear" }</desc></path></g><path d="m152.4 292.5h8.982l4.785-4.98h22.46l3.809 4.98h6.748v72.36h-46.79z" fill="#4ef345"    stroke-width="1.235"><desc>{ "type": "hard_point", "i": 1 }</desc></path><path d="m331.7 292.5h-8.982l-4.785-4.98h-22.46l-3.809 4.98h-6.748v72.36h46.79z" fill="#4ef345"    stroke-width="1.235"><desc>{ "type": "hard_point", "i": 2 }</desc></path><g fill="#f39745"  stroke-width="1.764"><path d="m535.6 567.6h62.83l-31.42 33.14z"  ><desc>{ "type": "misc", "i": "thrusters" }</desc></path><path d="m682.6 567.6h62.83l-31.42 33.14z"  ><desc>{ "type": "misc", "i": "thrusters" }</desc></path><path d="m137.6 567.6h62.83l-31.42 33.14z"  ><desc>{ "type": "misc", "i": "thrusters" }</desc></path><path d="m284.6 567.6h62.83l-31.42 33.14z"  ><desc>{ "type": "misc", "i": "thrusters" }</desc></path><path d="m101.6 480.1h18.59l-9.296-9.807z"  ><desc>{ "type": "misc", "i": "thrusters" }</desc></path><path d="m363.6 480.1h18.59l-9.296-9.807z"  ><desc>{ "type": "misc", "i": "thrusters" }</desc></path><path d="m499.8 480.1h18.59l-9.296-9.807z"  ><desc>{ "type": "misc", "i": "thrusters" }</desc></path><path d="m761.8 480.1h18.59l-9.296-9.807z"  ><desc>{ "type": "misc", "i": "thrusters" }</desc></path><path d="m142.9 252.7 9.493-15.99-13.18 2.986z"  ><desc>{ "type": "misc", "i": "thrusters" }</desc></path><path d="m341.2 252.7-9.493-15.99 13.18 2.986z"  ><desc>{ "type": "misc", "i": "thrusters" }</desc></path><path d="m541.1 252.7 9.493-15.99-13.18 2.986z"  ><desc>{ "type": "misc", "i": "thrusters" }</desc></path><path d="m739.4 252.7-9.493-15.99 13.18 2.986z"  ><desc>{ "type": "misc", "i": "thrusters" }</desc></path><path d="m516.6 544.6v-18.59l-9.807 9.296z"  ><desc>{ "type": "misc", "i": "thrusters" }</desc></path><path d="m764.1 544.6v-18.59l9.807 9.296z"  ><desc>{ "type": "misc", "i": "thrusters" }</desc></path></g><g ><path d="m233.3 181.2h17.64l14.16 15.75 0.1094 16.75-1.043 0.3926-4.004-2.82-6.051-0.6035h-23.98l-6.051 0.6035-4.004 2.82-1.043-0.3926 0.1094-16.75z" fill="#f39746"   stroke-width="1.554"><desc>{ "type": "other", "i": "canopy" }</desc></path><path d="m635.5 179.2h9.646l6.434 5.215 0.8086 2.969-2.275-0.0625-2.277-2.369-3.592-1.268h-7.842l-3.592 1.268-2.275 2.369-2.277 0.0625 0.8086-2.969z" fill="#f39746"   stroke-width="1.554"><desc>{ "type": "other", "i": "canopy" }</desc></path><circle cx="361.6" cy="96.63" r="3.783" fill="#979797"  stroke-width="3.587"><desc>{ "type": "gunsight", "cl": "gun", "i": 1 }</desc></circle></g><g><path d="m365.2 550.9-18.94 14.54-17.26-0.0102" fill="none"   stroke-width="1.764"/><path d="m118.3 544.6v-18.59l-9.807 9.296z" fill="#f39745"    stroke-width="1.764"><desc>{ "type": "misc", "i": "thrusters" }</desc></path><path d="m365.8 544.6v-18.59l9.807 9.296z" fill="#f39745"    stroke-width="1.764"><desc>{ "type": "misc", "i": "thrusters" }</desc></path><path d="m119.2 550.9 18.94 14.54 16.83-0.0102" fill="none"   stroke-width="1.764"/></g><g ><path d="m203.9 438.3 6.842-3.913-16.46 130.1-6.471-2.858z" fill="#f49644"   stroke-width=".9927"><desc>{ "type": "misc", "i": "heat vents" }</desc></path><path d="m280.2 438.3-6.842-3.913 16.46 130.1 6.471-2.858z" fill="#f49644"   stroke-width=".9927"><desc>{ "type": "misc", "i": "heat vents" }</desc></path><path d="m250.4 566.2a8.125 7.918 0 0 0-8.125-7.918 8.125 7.918 0 0 0-8.125 7.918 8.125 7.918 0 0 0 1.904 5.082l6.221 9.992 6.199-9.959a8.125 7.918 0 0 0 1.926-5.115z" fill="#46d2f3"   stroke-width="1.764"><desc>{ "type": "internal", "i": "entrance" }</desc></path></g></g></svg>
