<svg xmlns="http://www.w3.org/2000/svg" viewBox="0 0 390 640" preserveAspectRatio="xMidYMid meet">
  <style>
    * { vector-effect: non-scaling-stroke; }
    path, rect, circle, ellipse, polygon, polyline, line {
      fill: none !important;
      stroke: #73f8ff !important;
      stroke-width: 2.25px !important;
      stroke-linecap: round;
      stroke-linejoin: round;
      opacity: 0.92;
    }
  </style>
  <svg x="0" y="0" width="870" height="640" viewBox="0 0 870 640" preserveAspectRatio="xMinYMin meet">

<g transform="translate(1045)"  fill="none"  ><g stroke-width="1.764"><path d="m-398.5 154.4-2.733 3.33-4.951 8.415-6.921 14.59-5.203 11.76-2.287-4.165-7.686-1.816-5.455 1.894-26.65 95.86-59.04 35.06-0.5816 58.95 33.94-7.653 37.41 8.191 11.22 4.45-2.918 16.54-15.01 59.31-32.43 25.68-0.1788 44.98 49.52-13.03 4.009 12.98 18.36 0.2748 4.913 10.73 5.939-0.128-0.0715-5.965 15.27-4e-3 15.27 4e-3 -0.0715 5.965 5.937 0.128 4.915-10.73 18.36-0.2748 4.008-12.98 49.52 13.03-0.1788-44.98-32.43-25.68-15.01-59.31-2.918-16.54 11.22-4.45 37.41-8.191 33.94 7.653-0.5816-58.95-59.04-35.06-26.65-95.86-5.455-1.894-7.686 1.816-2.287 4.165-5.203-11.76-6.923-14.59-4.949-8.415-2.733-3.33-8.476 0.0715z" /><path d="m-462.6 523.3 2.545 6.269 16.44 6e-3 -0.0103 9.538 22.11 0.1101 9.764 16.93 10.13 0.2315 0.0732-13.86 11.58-0.032" /><path d="m-443.7 529.6 9.244 0.1232" /></g><path d="m-438.1 204.7-6.092 2.698-0.0444 18.46"  stroke-width="1.764"/><path d="m-418.3 192.5-1.708 10.08-4.688 3.166-11.4 86.95-15.42 19.38-49.64 18.96-0.1246 35.94 15.23 3.646"  stroke-width="1.764"/><path d="m-464 317.1 3.667-32.83"  stroke-width="1.235"/><g stroke-width="1.764"><path d="m-436.1 292.7 11.07-15.36 4.383 1.781m0.1832-8.114-0.0642 36.66 12.16 70.64 18.34-0.179" /><path d="m-420 202.6-0.4478 68.42" /><path d="m-437.4 383.3 0.1235 17.52 16.7 44.78-9.524 15.28-39.6 14.41 2.164 25.75 51.39 12.25 0.1041 16.74" /></g><g stroke-width="1.235"><path d="m-455.3 459.1 18.06-15.57 6.553-25.59" /><path d="m-480.8 527.6 0.2746-19.69 12.99-6.926" /><path d="m-438.4 516.7-2.645-9.3" /><path d="m-430.4 509.9-4e-3 -36.27 13.12-19.37-3.32-8.697" /><path d="m-417.3 454.3 11.77-1.126-0.1042-8.762-17.77-44.82" /><path d="m-437.3 400.8 13.92-1.223 33.36 0.0698" /><path d="m-405.3 534.6-0.2192-81.5" /><path d="m-437.4 383.3 2.781-19.41 3.388-0.101 21.79 8.935" /><path d="m-455.4 268.5 22.31 2.426" /><path d="m-440.1 212.3 3.197 3.06 11.19-1.998" /><path d="m-442.6 221.6 4.375 2.837 10.87-1.774" /><path d="m-462.2 375.6 0.0914-15.17c8.123-3.305 16.08-5.55 19.08-14.8l28.85-0.7007" /></g><path d="m-418.6 387.1h6.845v6.538h-6.845z"  stroke-width="1.235"/><ellipse transform="matrix(.9999 .0105 -.01574 .9999 0 0)" cx="-476.2" cy="356.8" rx="2.978" ry="3.028"  stroke-width="1.235"/><ellipse transform="matrix(.9999 .0105 -.01574 .9999 0 0)" cx="-440.7" cy="487.2" rx="2.978" ry="3.028"  stroke-width="1.235"/><ellipse transform="matrix(.9133 .4073 -.4049 .9144 0 0)" cx="-300.9" cy="349.3" rx="2.19" ry="3.028"  stroke-width="1.235"/><g stroke-width="1.235"><path d="m-405.4 214.1h30.81v30.26h-30.81z" /><path d="m-413.2 302.7h46.48l-3.407 42.18h-39.67z" /><path d="m-402.3 359.9h5.789v9.007h-5.789z" /></g><g stroke-width="1.235"><path d="m-390 444.3-15.59 0.0745" /><path d="m-401.2 534.2-0.1084-45.49 11.34-0.1326" /><path d="m-390 499.2-11.29 0.0745" /><path d="m-390 507.6-11.49 0.0745" /><path d="m-390 516.1-11.26-2.034" /></g><path d="m-424.7 222 9.172-2.3v22.93l-11.47-1.363z"  stroke-width="1.235"/><path d="m-433.5 274.3 9.002 3.269"  stroke-width="1.235"/><g stroke-width="1.235"><path d="m-402.1 459.8h6.845v6.538h-6.845z" /><path d="m-396.8 522.3h3.201v4.038h-3.201z" /><path d="m-446.4 276.7 10.28-0.7228-1.747 11.18-9.495-5.18z" /><path d="m-400.8 268.1h6.845v11.96h-6.845z" /><path d="m-399.9 296.4h19.8v3.556h-19.8z" /><path d="m-393.4 159.4h6.845l2.379 6.538h-11.6z" /><path d="m-447.4 321h14.25v12.5h-14.25z" /></g><path d="m-401.2 192.2 4.841-19.09h12.83l4.705 19.09-3.313 8.757h-15.75z"  stroke-width="1.235"/><path d="m-424.3 346.3 3.249-6e-3 7.994 6.932v9.489l-10.94-0.0602z"  stroke-width="1.235"/><path d="m-317.4 523.3-2.545 6.269-16.44 6e-3 0.0103 9.538-22.11 0.1101-9.764 16.93-10.13 0.2315-0.0732-13.86-11.58-0.032"  stroke-width="1.764"/><path d="m-336.3 529.6-9.244 0.1232"  stroke-width="1.764"/><path d="m-341.9 204.7 6.092 2.698 0.0444 18.46"  stroke-width="1.764"/><path d="m-361.7 192.5 1.708 10.08 4.688 3.166 11.4 86.95 15.42 19.38 49.64 18.96 0.1246 35.94-15.23 3.646"  stroke-width="1.764"/><path d="m-316 317.1-3.667-32.83"  stroke-width="1.235"/><g stroke-width="1.764"><path d="m-343.9 292.7-10.93-15.15-4.574 1.748m-0.1389-8.285 0.0642 36.66-12.16 70.64-18.34-0.179" /><path d="m-360 202.6 0.4478 68.42" /><path d="m-342.6 383.3-0.1235 17.52-16.7 44.78 9.524 15.28 39.6 14.41-2.164 25.75-51.39 12.25-0.1041 16.74" /></g><g stroke-width="1.235"><path d="m-324.7 459.1-18.06-15.57-6.553-25.59" /><path d="m-299.2 527.6-0.2746-19.69-12.99-6.926" /><path d="m-341.6 516.7 2.645-9.3" /><path d="m-349.6 509.9 4e-3 -36.27-13.12-19.37 3.32-8.697" /><path d="m-362.7 454.3-11.77-1.126 0.1042-8.762 17.77-44.82" /><path d="m-342.7 400.8-13.92-1.223-33.36 0.0698" /><path d="m-374.7 534.6 0.2192-81.5" /><path d="m-342.6 383.3-2.781-19.41-3.388-0.101-21.79 8.935" /><path d="m-324.6 268.5-22.31 2.426" /><path d="m-339.9 212.3-3.197 3.06-11.19-1.998" /><path d="m-337.4 221.6-4.375 2.837-10.87-1.774" /><path d="m-317.8 375.6-0.0914-15.17c-8.123-3.305-16.08-5.55-19.08-14.8l-28.85-0.7007" /></g><path d="m-361.4 387.1h-6.845v6.538h6.845z"  stroke-width="1.235"/><ellipse transform="matrix(-.9999 .0105 .01574 .9999 0 0)" cx="303.7" cy="348.6" rx="2.978" ry="3.028"  stroke-width="1.235"/><ellipse transform="matrix(-.9999 .0105 .01574 .9999 0 0)" cx="339.2" cy="479" rx="2.978" ry="3.028"  stroke-width="1.235"/><ellipse transform="matrix(-.9133 .4073 .4049 .9144 0 0)" cx="412.2" cy="31.61" rx="2.19" ry="3.028"  stroke-width="1.235"/><path d="m-377.7 359.9h-5.789v9.007h5.789z"  stroke-width="1.235"/><g stroke-width="1.235"><path d="m-390 444.3 15.59 0.0745" /><path d="m-378.8 534.2 0.1084-45.49-11.34-0.1326" /><path d="m-390 499.2 11.29 0.0745" /><path d="m-390 507.6 11.49 0.0745" /><path d="m-390 516.1 11.26-2.034" /></g><path d="m-355.3 222-9.172-2.3v22.93l11.47-1.363z"  stroke-width="1.235"/><path d="m-346.5 274.3-9.002 3.269"  stroke-width="1.235"/><g stroke-width="1.235"><path d="m-377.9 459.8h-6.845v6.538h6.845z" /><path d="m-383.2 522.3h-3.201v4.038h3.201z" /><path d="m-333.5 276.7-10.28-0.7228 1.747 11.18 9.495-5.18z" /><path d="m-379.2 268.1h-6.845v11.96h6.845z" /><path d="m-332.6 321h-14.25v12.5h14.25z" /><path d="m-355.7 346.3-3.249-6e-3 -7.994 6.932v9.489l10.94-0.0602z" /></g><g stroke-width="1.235"><path d="m-487.6 506.2 19.42-13.7 51.65-0.1112" /><path d="m-416.2 513.3-1.11-58.99" /><path d="m-292.4 506.2-19.42-13.7-51.65-0.1112" /><path d="m-363.8 513.3 1.11-58.99" /><path d="m-430.1 460.8-0.614-42.9" /><path d="m-451.5 312.1-10.87-8.179" /><path d="m-500.8 343.5 35.33-19.1-0.0685-6.667" /><path d="m-418.3 192.5-2.286 1.839-3.323 0.4939-8.986-2.438-0.8326-3.983" /><path d="m-328.5 312.1 10.87-8.179" /><path d="m-279.2 343.5-35.33-19.1 0.0685-6.667" /><path d="m-361.7 192.5 2.286 1.839 3.323 0.4939 8.986-2.438 0.8326-3.983" /></g><g transform="matrix(.9638 0 0 .9637 210 177.4)"  ><path d="m-724 319-14.37 7.128-5.113-3.095 0.1676-14.12-2.916-2.925-0.0814-7.806-2.445 0.1065-3.452 2.878-11.36 0.1254-2.11-2.974-2.33 0.0617-0.1215 7.077-2.507 3.399-0.1953 8.998-2.634 1.984 0.1177 9.776-2.618 2.13 0.0863 46.75 1.964 13.94 3.528-0.0313 1.099 9.255 20.71 0.0792 0.7368-9.38 4.068-0.1296 0.2144-13.93 10.03 4.097 8.919-2.224 0.418-14.49"  stroke-width="1.83"/><path d="m-743.5 378.3 0.0727-55.27"  stroke-width="1.83"/><g stroke-width="1.281"><path d="m-733.5 382.4 0.3178-16.67-5.507-0.6818 0.3456-38.92" /><path d="m-746.2 306-21.9-0.5314" /><path d="m-747.8 392.4-1.072-3.52-18.39 0.0313-3.09 3.535" /><path d="m-768.4 328.3h22.29v58.43h-22.29z" /><path d="m-768.6 339.1-6.752 1.133" /><path d="m-768.4 378.1-7.47 0.4474" /><path d="m-749.7 305.9-1.342 14.81-15.89-0.185-1.19-15.01" /></g></g><g transform="matrix(-.9638 0 0 .9637 -990 177.4)"  ><path d="m-724 319-14.37 7.128-5.113-3.095 0.1676-14.12-2.916-2.925-0.0814-7.806-2.445 0.1065-3.452 2.878-11.36 0.1254-2.11-2.974-2.33 0.0617-0.1215 7.077-2.507 3.399-0.1953 8.998-2.634 1.984 0.1177 9.776-2.618 2.13 0.0863 46.75 1.964 13.94 3.528-0.0313 1.099 9.255 20.71 0.0792 0.7368-9.38 4.068-0.1296 0.2144-13.93 10.03 4.097 8.919-2.224 0.418-14.49"  stroke-width="1.83"/><path d="m-743.5 378.3 0.0727-55.27"  stroke-width="1.83"/><g stroke-width="1.281"><path d="m-733.5 382.4 0.3178-16.67-5.507-0.6818 0.3456-38.92" /><path d="m-746.2 306-21.9-0.5314" /><path d="m-747.8 392.4-1.072-3.52-18.39 0.0313-3.09 3.535" /><path d="m-768.4 328.3h22.29v58.43h-22.29z" /><path d="m-768.6 339.1-6.752 1.133" /><path d="m-768.4 378.1-7.47 0.4474" /><path d="m-749.7 305.9-1.342 14.81-15.89-0.185-1.19-15.01" /></g></g><path d="m-378.3 556.4h-23.32"  stroke-width="1.764"/><path d="m-446.8 529.6 0.4132 16.92 27.93-2.748"  stroke-width="1.764"/><path d="m-475 526.1 0.048 30.6 1.085 8.566 1.95-0.0192 0.6071 5.687 11.45 0.0486 0.4072-5.763 2.248-0.0797 0.1185-12.65 5.543 2.517 4.929-1.366 0.2309-7.137"  stroke-width="1.764"/><g stroke-width="1.235"><path d="m-459.4 565.2-0.5472-3.227-9.853 3e-3 -2.06 3.252" /><path d="m-457.1 552.5 0.04-23.06" /><path d="m-459.5 529.2v30.3h-10.73v-34.42" /></g><path d="m-333 529.6-0.4132 16.92-27.93-2.748"  stroke-width="1.764"/><path d="m-304.8 526.1-0.048 30.6-1.085 8.566-1.95-0.0192-0.6071 5.687-11.45 0.0486-0.4072-5.763-2.248-0.0797-0.1185-12.65-5.543 2.517-4.929-1.366-0.2309-7.137"  stroke-width="1.764"/><g stroke-width="1.235"><path d="m-320.4 565.2 0.5472-3.227 9.853 3e-3 2.06 3.252" /><path d="m-322.7 552.5-0.04-23.06" /><path d="m-320.3 529.2v30.3h10.73v-34.42" /></g><path d="m-519.4 319.3-14.2 8.829 0.01 45.26 13.61 4.861"  stroke-width="1.764"/><path d="m-535.1 332.1-0.01 74.91"  stroke-width="1.764"/><path d="m-260.6 319.3 14.2 8.829-0.01 45.26-13.61 4.861"  stroke-width="1.764"/><path d="m-244.9 332.1 0.01 74.91"  stroke-width="1.764"/><path d="m-427.2 243.3 11.67 1.575v31.81l-15.28-4.863z"  stroke-width="1.235"/><path d="m-352.8 243.3-11.67 1.575v31.81l15.28-4.863z"  stroke-width="1.235"/></g><g transform="translate(604.7)"  fill="none"  ><path d="m-418.7 553.1 6.943 11.39 10.13 0.2324 0.0723-13.86 11.58-0.0312 11.58 0.0312 0.0742 13.86 10.13-0.2324 6.943-11.39m56.81-24.03 14.62 2.764-0.1777-44.98-34.64-27.72-15.01-59.31 12.08-24.88 22.39-7.531 45.19 10.89-0.582-58.95-57.5-36.94-28.18-93.98-5.455-1.893-7.686 1.816-2.287 4.164-7.93-7.504-6.752-14.94-2.818-11.4-2.309-4.268-8.477 0.0723-8.477-0.0723-2.307 4.268-2.82 11.4-6.752 14.94-7.928 7.504-2.287-4.164-7.688-1.816-5.455 1.893-28.18 93.98-57.5 36.94-0.582 58.95 45.19-10.89 22.39 7.531 12.08 24.88-15.01 59.31-34.64 27.72-0.1797 44.98 14.62-2.764m16.26-3.074 4.684-0.8867 9.449 7.475m110.3 0 9.451-7.475 4.682 0.8867"  stroke-width="1.764"/><path d="m-437.9 203.1-5.07 2.06-0.9815 17.53"  stroke-width="1.764"/><path d="m-448.8 555.5 47.23-4.646-0.6561-34.97 2.03-9.735-49.01 28.31z"  stroke-width="1.764"/><path d="m-407.5 510.4-3.453-9.092-3.926-0.996-9.227-18.77-15.54-60.56-0.6464-21.22"  stroke-width="1.764"/><g stroke-width="1.764"><path d="m-418.3 192.5-10.14 52.97-12.88 25.57-10.43 42.86-6.984 47.81 6.321 13.22" /><path d="m-461.9 282.4-1.442 24.09 4.612 55.22" /><path d="m-396.3 154.4-3.025 6.83-1.874 17.04" /></g><path d="m-396.1 178.5 0.9814-18.89 5.07-0.0152 5.07 0.0152 0.9815 18.89"  stroke-width="1.235"/><path d="m-439.7 421-7.86 30.66-0.5186 11.41-17.88 20.85 11.85 14 24.49 5.594-0.0556 20.15"  stroke-width="1.764"/><g stroke-width="1.235"><path d="m-454.6 525.1 0.5187-27.14" /><path d="m-409.8 488.8 3.344-4.988-2.696-54.37-7.959-15.98-10.04 0.0719 17.35 75.27-3.761 5.718 2.564 6.783" /><path d="m-427.1 413.6-13.19-13.78" /><path d="m-401.2 507.6 0.616-36.61-7.531-80.61-0.2433-52.99 6.819-23.3-7.386-4.256 0.116-34.46-14.13-6.141-18.38 1.834" /><path d="m-427.1 413.6-7.212-62.54-7.735-16.09-0.4515-57.28" /><path d="m-434.4 351 1.92-3.424-0.5483-32.05-9.485-11.76" /><path d="m-433 315.6 10.05-46.37" /><path d="m-390 353.1-12.83 0.0153-5.376-5.732" /><path d="m-467.3 517.7-6e-3 -6.018-22.59 4.783" /><path d="m-459.6 351.5-60.01 13.61" /></g><g stroke-width="1.235"><ellipse transform="matrix(.9999 .0105 -.01574 .9999 0 0)" cx="-406.7" cy="210.9" rx="2.978" ry="3.028" /><ellipse transform="matrix(.9999 .0105 -.01574 .9999 0 0)" cx="-508.2" cy="363.1" rx="2.978" ry="3.028" /><ellipse transform="matrix(.9999 .0105 -.01574 .9999 0 0)" cx="-466.2" cy="495.6" rx="2.978" ry="3.028" /></g><g stroke-width="1.235"><path d="m-422.9 269.2-4.279 40.61 18.29-0.0104" /><path d="m-425.3 279-10.53 1.213-6.676-2.553" /><path d="m-424.4 276.4-11.55-1.525-6.597 2.825" /></g><path d="m-447.2 354.2h5.159v6.538h-5.159z"  stroke-width="1.235"/><g stroke-width="1.235"><path d="m-404.3 365.3h5.789v9.007h-5.789z" /><path d="m-423 329.6h7.809v11.96h-7.809z" /><path d="m-420.6 276.2h7.809v19.19h-7.809z" /></g><path d="m-418.9 195.5-5.45 4.956-7.784-1.452-5.375 2.609"  stroke-width="1.235"/><path d="m-434.6 209 9.857 0.4818-6.264 36.05-12.15-1.084z"  stroke-width="1.235"/><g stroke-width="1.235"><path d="m-390 314-11.53 0.0596" /><path d="m-390 211.2-4.279-0.0149-4.437-21.01" /><path d="m-390 281.7-9.794 0.0753-9.005-6.446" /><path d="m-390 273.8-11.74 0.0496-7.06 1.503" /></g><path d="m-419.3 254.4h7.809v12.54h-7.809z"  stroke-width="1.235"/><g stroke-width="1.764"><path d="m-342.1 203.1 5.069 2.06 0.9815 17.53" /><path d="m-361.7 192.5 10.14 52.97 12.88 25.57 10.43 42.86 6.984 47.81-6.321 13.22" /><path d="m-318.1 282.4 1.442 24.09-4.612 55.22" /><path d="m-369.6 185-9.546 5.477-10.81 0.0654-10.81-0.0654-9.546-5.477" /><path d="m-369.6 185-9.12-6.704-11.24 0.2358-11.24-0.2358-9.12 6.704" /><path d="m-383.7 154.4 3.025 6.83 1.874 17.04" /></g><g stroke-width="1.235"><path d="m-352.9 413.6 13.19-13.78" /><path d="m-352.9 413.6 7.212-62.54 7.735-16.09 0.4516-57.28" /><path d="m-345.6 351-1.92-3.424 0.5483-32.05 9.485-11.76" /><path d="m-347 315.6-10.05-46.37" /><path d="m-390 353.1 12.83 0.0153 5.376-5.732" /><path d="m-320.4 351.5 60.01 13.61" /></g><g stroke-width="1.235"><ellipse transform="matrix(-.9999 .0105 .01574 .9999 0 0)" cx="373.3" cy="202.7" rx="2.978" ry="3.028" /><ellipse transform="matrix(-.9999 .0105 .01574 .9999 0 0)" cx="271.7" cy="354.9" rx="2.978" ry="3.028" /><ellipse transform="matrix(-.9999 .0105 .01574 .9999 0 0)" cx="313.7" cy="487.4" rx="2.978" ry="3.028" /></g><g stroke-width="1.235"><path d="m-357.1 269.2 4.279 40.61-18.29-0.0104" /><path d="m-354.7 279 10.53 1.213 6.676-2.553" /><path d="m-355.6 276.4 11.55-1.525 6.597 2.825" /></g><path d="m-332.8 354.2h-5.159v6.538h5.159z"  stroke-width="1.235"/><g stroke-width="1.235"><path d="m-375.7 365.3h-5.789v9.007h5.789z" /><path d="m-357 329.6h-7.809v11.96h7.809z" /><path d="m-359.4 276.2h-7.809v19.19h7.809z" /></g><path d="m-361.1 195.5 5.45 4.956 7.783-1.452 5.375 2.609"  stroke-width="1.235"/><path d="m-345.4 209-9.857 0.4818 6.264 36.05 12.15-1.084z"  stroke-width="1.235"/><g stroke-width="1.235"><path d="m-390 314 11.53 0.0596" /><path d="m-390 211.2 4.279-0.0149 4.437-21.01" /><path d="m-390 281.7 9.794 0.0753 9.005-6.446" /><path d="m-390 273.8 11.74 0.0496 7.06 1.503" /></g><g stroke-width="1.235"><path d="m-360.7 254.4h-7.809v12.54h7.809z" /><path d="m-397.4 288.7h14.79v20.89h-14.79z" /><path d="m-403.7 218h27.4v36.73h-27.4z" /></g><path d="m-379.4 470.9h-21.15"  stroke-width="1.235"/><g transform="matrix(.9638 0 0 .9637 207.8 179.4)"  ><path d="m-724 319-14.37 7.128-5.113-3.095 0.1676-14.12-2.916-2.925-0.0814-7.806-2.445 0.1065-3.452 2.878-11.36 0.1254-2.11-2.974-2.33 0.0617-0.1215 7.077-2.507 3.399-0.1953 8.998-2.634 1.984 0.1177 9.776-2.618 2.13 0.0863 46.75 1.964 13.94 3.528-0.0313 1.099 9.255 20.71 0.0792 0.7368-9.38 4.068-0.1296 0.2144-13.93 10.03 4.097 8.919-2.224 0.418-14.49"  stroke-width="1.83"/><path d="m-743.5 378.3 0.0727-55.27"  stroke-width="1.83"/><g stroke-width="1.281"><path d="m-733.5 382.4 0.3178-16.67-5.507-0.6818 0.3456-38.92" /><path d="m-746.2 306-21.9-0.5314" /><path d="m-747.8 392.4-2.486-7.232-18.83 0.208-1.233 7.07" /></g><path d="m-765.4 350.6h14.98v31.91h-14.98z"  stroke-width="1.281"/><path d="m-769.6 323.7 2.364 2.125 4.489-2.641 6.827-0.0526 4.808 2.6 2.49-2.032v16.33l-1.625 4.954-2.29-2.404-13.32-0.0334-1.614 2.438-2.125-5.017z"  stroke-width="1.281"/><path d="m-763.2 328.5h8.26v4.862h-8.26z"  stroke-width="1.281"/><path d="m-769.6 339.9-6.221 2.193"  stroke-width="1.281"/><path d="m-765.3 378.1-10.56 0.359"  stroke-width="1.281"/></g><g transform="matrix(-.9638 0 0 .9637 -987.8 179.4)"  ><path d="m-724 319-14.37 7.128-5.113-3.095 0.1676-14.12-2.916-2.925-0.0814-7.806-2.445 0.1065-3.452 2.878-11.36 0.1254-2.11-2.974-2.33 0.0617-0.1215 7.077-2.507 3.399-0.1953 8.998-2.634 1.984 0.1177 9.776-2.618 2.13 0.0863 46.75 1.964 13.94 3.528-0.0313 1.099 9.255 20.71 0.0792 0.7368-9.38 4.068-0.1296 0.2144-13.93 10.03 4.097 8.919-2.224 0.4179-14.49"  stroke-width="1.83"/><path d="m-743.5 378.3 0.0727-55.27"  stroke-width="1.83"/><g stroke-width="1.281"><path d="m-733.5 382.4 0.3178-16.67-5.507-0.6818 0.3456-38.92" /><path d="m-746.2 306-21.9-0.5314" /><path d="m-747.8 392.4-2.486-7.232-18.83 0.208-1.233 7.07" /></g><path d="m-765.4 350.6h14.98v31.91h-14.98z"  stroke-width="1.281"/><path d="m-769.6 323.7 2.364 2.125 4.489-2.641 6.827-0.0526 4.808 2.6 2.49-2.032v16.33l-1.625 4.954-2.29-2.404-13.32-0.0334-1.614 2.438-2.125-5.017z"  stroke-width="1.281"/><path d="m-763.2 328.5h8.26v4.862h-8.26z"  stroke-width="1.281"/><path d="m-769.6 339.9-6.221 2.193"  stroke-width="1.281"/><path d="m-765.3 378.1-10.56 0.359"  stroke-width="1.281"/></g><g stroke-width="1.235"><path d="m-462.7 292-56.6 36.61" /><path d="m-441.3 271-12.6-15.97" /><path d="m-317.3 292 56.6 36.61" /><path d="m-338.7 271 12.6-15.97" /></g><path d="m-519.4 319.3-14.2 8.829 0.01 45.26 13.61 4.861"  stroke-width="1.764"/><path d="m-535.1 332.1-7e-3 74.91"  stroke-width="1.764"/><path d="m-448.7 529.1-7.939 4.379-2.826-1.901 0.0926-8.675-1.611-1.797-0.0449-4.796-1.351 0.0655-1.908 1.768-6.276 0.0771-1.166-1.827-1.287 0.0379-0.0671 4.348-1.385 2.088-0.108 5.528-1.455 1.219 0.0651 6.007-1.447 1.308 0.0476 28.72 1.085 8.566 1.95-0.0192 0.6071 5.687 11.45 0.0486 0.4072-5.763 2.248-0.0797 0.1185-12.65 5.543 2.517 4.929-1.366 0.231-7.137"  stroke-width="1.764"/><g stroke-width="1.235"><path d="m-402 529.3-8.397-13.21-38.43 24.03" /><path d="m-418.9 521.4 0.1986 31.64" /><path d="m-461.9 574.2-0.5472-6.852-11.58 3e-3 -0.3362 6.877" /><path d="m-459.4 522.9-3.006 20.02-9.983-0.0688-2.107-19.98" /><path d="m-459.5 561.5 0.0402-29.86" /></g><path d="m-380.1 505.9-20.11 0.2623"  stroke-width="1.764"/><path d="m-331.2 555.5-47.23-4.646 0.6561-34.97-2.341-9.998 49.33 28.57z"  stroke-width="1.764"/><path d="m-340.3 421 7.86 30.66 0.5186 11.41 17.88 20.85-11.85 14-24.49 5.594 0.0556 20.15"  stroke-width="1.764"/><g stroke-width="1.235"><path d="m-325.4 525.1-0.5187-27.14" /><path d="m-370.2 488.8-3.344-4.988 2.696-54.37 7.959-15.98 10.04 0.0719-17.35 75.27 3.761 5.718-2.564 6.783" /><path d="m-378.8 507.6-0.616-36.61 7.531-80.61 0.2433-52.99-6.819-23.3 7.386-4.256-0.116-34.46 14.13-6.141 18.38 1.834" /><path d="m-312.7 517.7 6e-3 -6.018 22.59 4.783" /></g><path d="m-331.3 529.1 7.939 4.379 2.826-1.901-0.0926-8.675 1.611-1.797 0.0449-4.796 1.351 0.0655 1.908 1.768 6.276 0.0771 1.166-1.827 1.287 0.0379 0.0671 4.348 1.385 2.088 0.108 5.528 1.455 1.219-0.0651 6.007 1.447 1.308-0.0476 28.72-1.085 8.566-1.95-0.0192-0.6071 5.687-11.45 0.0486-0.4072-5.763-2.248-0.0797-0.1185-12.65-5.543 2.517-4.929-1.366-0.231-7.137"  stroke-width="1.764"/><g stroke-width="1.235"><path d="m-378 529.3 8.397-13.21 38.43 24.03" /><path d="m-361.1 521.4-0.1986 31.64" /><path d="m-318.1 574.2 0.5472-6.852 11.58 3e-3 0.3362 6.877" /><path d="m-320.6 522.9 3.006 20.02 9.983-0.0688 2.107-19.98" /></g><path d="m-372.5 510.4 3.453-9.092 3.926-0.996 9.227-18.77 15.54-60.56 0.6464-21.22"  stroke-width="1.764"/><path d="m-378.3 564.7h-23.31"  stroke-width="1.764"/><path d="m-260.6 319.3 14.2 8.829-0.01 45.26-13.61 4.861"  stroke-width="1.764"/><path d="m-244.9 332.1 7e-3 74.91"  stroke-width="1.764"/><g stroke-width="1.235"><path d="m-320.5 561.5-0.0402-29.86" /><path d="m-461 521.1-12.1-0.3264" /><path d="m-319 521.1 12.1-0.3264" /></g></g><g  ><g fill="none" stroke="#979797" stroke-width="3.587"><path d="m442.9 86.92c21.52 3.996 37.82 22.87 37.82 45.55 0 5.371-0.9139 10.53-2.595 15.33m-7.842 13.97c-8.496 10.4-21.42 17.03-35.89 17.03-14.38 0-27.24-6.555-35.74-16.84m-7.716-13.37c-1.862-5.019-2.88-10.45-2.88-16.12 0-23.05 16.84-42.18 38.89-45.74" /><g><path d="m434.9 71.19v15.85" /><path d="m395.6 155.1-13.68 8.014" /><path d="m474.2 155.1 13.68 8.014" /></g></g><g ></g><g fill="#f39745" ><g stroke-width="1.764"></g><g stroke-width="1.764"></g><g stroke-width="1.764"></g></g><g fill="#ff3ae1"  stroke-width="1.554"></g><g fill="#4df346" ><g stroke-width="1.661"></g></g><g fill="#f39745"  stroke-width="1.235"></g><g fill="#979797"  stroke-width="2.869"></g><g fill="#f39745"  stroke-width="1.764"></g><g ></g></g>
  </svg>
</svg>
