<svg xmlns="http://www.w3.org/2000/svg" viewBox="0 0 390 640" preserveAspectRatio="xMidYMid meet">
  <style>
    * { vector-effect: non-scaling-stroke; }
    path, rect, circle, ellipse, polygon, polyline, line {
      fill: none !important;
      stroke: #73f8ff !important;
      stroke-width: 2.25px !important;
      stroke-linecap: round;
      stroke-linejoin: round;
      opacity: 0.92;
    }
  </style>
  <svg x="0" y="0" width="870" height="640" viewBox="0 0 870 640" preserveAspectRatio="xMinYMin meet">

<g transform="matrix(.9638 0 0 .9637 1223 11.9)"  fill="none"   stroke-width="1.038"><g stroke-width="1.83"><path d="m-598.5 147.9-2.836 3.455-5.137 8.732-7.182 15.14-5.398 12.21-2.373-4.322-7.975-1.885-5.66 1.965-27.65 99.47-61.26 36.38-0.6035 61.17 35.22-7.941 38.82 8.5 11.64 4.617-3.027 17.16-15.57 61.55-33.64 26.64-0.1855 46.68 51.38-13.52 4.16 13.47 19.05 0.2852 5.098 11.13 6.162-0.1328-0.0742-6.189 15.84-4e-3 15.84 4e-3 -0.0742 6.189 6.16 0.1328 5.1-11.13 19.05-0.2852 4.158-13.47 51.39 13.52-0.1856-46.68-33.64-26.64-15.57-61.55-3.027-17.16 11.64-4.617 38.82-8.5 35.22 7.941-0.6035-61.17-61.26-36.38-27.65-99.47-5.66-1.965-7.975 1.885-2.373 4.322-5.398-12.21-7.184-15.14-5.135-8.732-2.836-3.455-8.795 0.0742z" /><path d="m-665.1 530.7 2.641 6.505 17.06 6e-3 -0.0107 9.898 22.95 0.1143 10.13 17.56 10.51 0.2402 0.076-14.38 12.02-0.0332" /><path d="m-645.4 537.2 9.591 0.1278" /></g><path d="m-639.6 200.1-6.321 2.8-0.0461 19.16"  stroke-width="1.83"/><path d="m-619.1 187.4-1.772 10.46-4.865 3.285-11.83 90.23-16 20.11-51.51 19.68-0.1293 37.3 15.8 3.783"  stroke-width="1.83"/><path d="m-666.5 316.7 3.804-34.07"  stroke-width="1.281"/><g stroke-width="1.83"><path d="m-637.5 291.4 16.23-22.51-0.0666 38.04 12.62 73.3 19.03-0.1858" /><path d="m-620.8 197.9-0.4646 71" /><path d="m-638.9 385.4 0.1282 18.18 17.33 46.47-9.882 15.86-41.09 14.95 2.245 26.72 53.32 12.71 0.108 17.37" /></g><g stroke-width="1.281"><path d="m-657.5 464.1 18.74-16.16 6.799-26.55" /><path d="m-683.9 535.2 0.2849-20.43 13.48-7.187" /><path d="m-640 523.9-2.745-9.651" /><path d="m-631.6 516.8-4e-3 -37.63 13.61-20.1-3.445-9.024" /><path d="m-618 459 12.22-1.169-0.1081-9.092-18.44-46.5" /><path d="m-638.8 403.5 14.45-1.269 34.62 0.0724" /><path d="m-605.6 542.4-0.2274-84.57" /><path d="m-638.9 385.4 2.885-20.15 3.516-0.1049 22.61 9.272" /><path d="m-657.6 266.3 23.15 2.517" /><path d="m-641.7 207.9 3.318 3.176 11.62-2.073" /><path d="m-644.3 217.6 4.54 2.944 11.28-1.841" /><path d="m-664.7 377.4 0.0948-15.74c8.429-3.43 16.68-5.759 19.8-15.36l29.93-0.7271" /></g><path d="m-619.4 389.4h7.102v6.784h-7.102z"  stroke-width="1.281"/><ellipse transform="matrix(.9999 .0105 -.01574 .9999 0 0)" cx="-679.4" cy="359.8" rx="3.09" ry="3.142"  stroke-width="1.281"/><ellipse transform="matrix(.9999 .0105 -.01574 .9999 0 0)" cx="-642.5" cy="495.1" rx="3.09" ry="3.142"  stroke-width="1.281"/><ellipse transform="matrix(.9133 .4074 -.4049 .9144 0 0)" cx="-486.5" cy="426.6" rx="2.272" ry="3.142"  stroke-width="1.281"/><g stroke-width="1.281"><path d="m-605.7 209.9h31.97v31.4h-31.97z" /><path d="m-613.8 301.8h48.23l-3.536 43.77h-41.16z" /><path d="m-602.5 361.1h6.007v9.346h-6.007z" /></g><g stroke-width="1.281"><path d="m-589.7 448.7-16.18 0.0773" /><path d="m-601.4 542-0.1125-47.2 11.76-0.1376" /><path d="m-589.7 505.7-11.71 0.0773" /><path d="m-589.7 514.3-11.92 0.0773" /><path d="m-589.7 523.2-11.68-2.11" /></g><path d="m-625.7 218.1 9.517-2.386v23.8l-11.9-1.414z"  stroke-width="1.281"/><path d="m-634.9 272.2 9.34 3.392"  stroke-width="1.281"/><g stroke-width="1.281"><path d="m-602.2 464.7h7.102v6.784h-7.102z" /><path d="m-596.8 529.7h3.321v4.19h-3.321z" /><path d="m-648.3 274.8 10.66-0.75-1.812 11.6-9.852-5.375z" /><path d="m-600.9 265.9h7.102v12.41h-7.102z" /><path d="m-600 295.2h20.54v3.69h-20.54z" /><path d="m-593.3 153h7.102l2.469 6.784h-12.04z" /><path d="m-649.2 320.7h14.79v12.97h-14.79z" /></g><path d="m-601.3 187.1 5.023-19.81h13.31l4.882 19.81-3.438 9.087h-16.34z"  stroke-width="1.281"/><path d="m-625.4 347 3.371-6e-3 8.294 7.193v9.846l-11.35-0.0625z"  stroke-width="1.281"/><path d="m-514.4 530.7-2.641 6.505-17.06 6e-3 0.0107 9.898-22.95 0.1143-10.13 17.56-10.51 0.2402-0.076-14.38-12.02-0.0332"  stroke-width="1.83"/><path d="m-534.1 537.2-9.591 0.1278"  stroke-width="1.83"/><path d="m-539.9 200.1 6.321 2.8 0.0461 19.16"  stroke-width="1.83"/><path d="m-560.4 187.4 1.772 10.46 4.865 3.285 11.83 90.23 16 20.11 51.51 19.68 0.1293 37.3-15.8 3.783"  stroke-width="1.83"/><path d="m-512.9 316.7-3.804-34.07"  stroke-width="1.281"/><g stroke-width="1.83"><path d="m-541.9 291.4-16.23-22.51 0.0666 38.04-12.62 73.3-19.03-0.1858" /><path d="m-558.6 197.9 0.4646 71" /><path d="m-540.5 385.4-0.1282 18.18-17.33 46.47 9.882 15.86 41.09 14.95-2.245 26.72-53.32 12.71-0.108 17.37" /></g><g stroke-width="1.281"><path d="m-521.9 464.1-18.74-16.16-6.799-26.55" /><path d="m-495.5 535.2-0.2849-20.43-13.48-7.187" /><path d="m-539.5 523.9 2.745-9.651" /><path d="m-547.8 516.8 4e-3 -37.63-13.61-20.1 3.445-9.024" /><path d="m-561.4 459-12.22-1.169 0.1081-9.092 18.44-46.5" /><path d="m-540.7 403.5-14.45-1.269-34.62 0.0724" /><path d="m-573.9 542.4 0.2274-84.57" /><path d="m-540.5 385.4-2.885-20.15-3.516-0.1049-22.61 9.272" /><path d="m-521.8 266.3-23.15 2.517" /><path d="m-537.8 207.9-3.318 3.176-11.62-2.073" /><path d="m-535.1 217.6-4.54 2.944-11.28-1.841" /><path d="m-514.8 377.4-0.0948-15.74c-8.429-3.43-16.68-5.759-19.8-15.36l-29.93-0.7271" /></g><path d="m-560 389.4h-7.102v6.784h7.102z"  stroke-width="1.281"/><ellipse transform="matrix(-.9999 .0105 .01574 .9999 0 0)" cx="499.9" cy="347.4" rx="3.09" ry="3.142"  stroke-width="1.281"/><ellipse transform="matrix(-.9999 .0105 .01574 .9999 0 0)" cx="536.9" cy="482.7" rx="3.09" ry="3.142"  stroke-width="1.281"/><ellipse transform="matrix(-.9133 .4074 .4049 .9144 0 0)" cx="592" cy="-53.86" rx="2.272" ry="3.142"  stroke-width="1.281"/><path d="m-576.9 361.1h-6.007v9.346h6.007z"  stroke-width="1.281"/><g stroke-width="1.281"><path d="m-589.7 448.7 16.18 0.0773" /><path d="m-578.1 542 0.1125-47.2-11.76-0.1376" /><path d="m-589.7 505.7 11.71 0.0773" /><path d="m-589.7 514.3 11.92 0.0773" /><path d="m-589.7 523.2 11.68-2.11" /></g><path d="m-553.8 218.1-9.517-2.386v23.8l11.9-1.414z"  stroke-width="1.281"/><path d="m-544.6 272.2-9.34 3.392"  stroke-width="1.281"/><g stroke-width="1.281"><path d="m-577.2 464.7h-7.102v6.784h7.102z" /><path d="m-582.6 529.7h-3.321v4.19h3.321z" /><path d="m-531.2 274.8-10.66-0.75 1.812 11.6 9.852-5.375z" /><path d="m-578.5 265.9h-7.102v12.41h7.102z" /><path d="m-530.2 320.7h-14.79v12.97h14.79z" /><path d="m-554.1 347-3.371-6e-3 -8.294 7.193v9.846l11.35-0.0625z" /></g><g stroke-width="1.281"><path d="m-691 513 20.15-14.22 53.59-0.1154" /><path d="m-616.9 520.2-1.152-61.22" /><path d="m-488.5 513-20.15-14.22-53.59-0.1154" /><path d="m-562.6 520.2 1.152-61.22" /><path d="m-631.3 465.9-0.6371-44.51" /><path d="m-653.5 311.5-11.28-8.487" /><path d="m-704.7 344.1 36.66-19.82-0.0711-6.918" /><path d="m-619.1 187.4-2.372 1.908-3.448 0.5125-9.323-2.53-0.8639-4.133" /><path d="m-525.9 311.5 11.28-8.487" /><path d="m-474.7 344.1-36.66-19.82 0.0711-6.918" /><path d="m-560.4 187.4 2.372 1.908 3.448 0.5125 9.323-2.53 0.8639-4.133" /></g><path d="m-724 319-14.37 7.128-5.113-3.095 0.1676-14.12-2.916-2.925-0.0814-7.806-2.445 0.1065-3.452 2.878-11.36 0.1254-2.11-2.974-2.33 0.0617-0.1215 7.077-2.507 3.399-0.1953 8.998-2.634 1.984 0.1177 9.776-2.618 2.13 0.0863 46.75 1.964 13.94 3.528-0.0313 1.099 9.255 20.71 0.0792 0.7368-9.38 4.068-0.1296 0.2144-13.93 10.03 4.097 8.919-2.224"  stroke-width="1.83"/><path d="m-743.5 378.3 0.0727-55.27"  stroke-width="1.83"/><g stroke-width="1.281"><path d="m-733.5 382.4 0.3178-16.67-5.507-0.6818 0.3456-38.92" /><path d="m-746.2 306-21.9-0.5314" /><path d="m-747.8 392.4-1.072-3.52-18.39 0.0313-3.09 3.535" /><path d="m-768.4 328.3h22.29v58.43h-22.29z" /><path d="m-768.6 339.1-6.752 1.133" /><path d="m-768.4 378.1-7.47 0.4474" /><path d="m-749.7 305.9-1.342 14.81-15.89-0.185-1.19-15.01" /></g><g  stroke-width="1.038"><g transform="matrix(-1 0 0 1 -1179 0)" ><path d="m-724 319-14.37 7.128-5.113-3.095 0.1676-14.12-2.916-2.925-0.0814-7.806-2.445 0.1065-3.452 2.878-11.36 0.1254-2.11-2.974-2.33 0.0617-0.1215 7.077-2.507 3.399-0.1953 8.998-2.634 1.984 0.1177 9.776-2.618 2.13 0.0863 46.75 1.964 13.94 3.528-0.0313 1.099 9.255 20.71 0.0792 0.7368-9.38 4.068-0.1296 0.2144-13.93 10.03 4.097 8.919-2.224"  stroke-width="1.83"/><path d="m-743.5 378.3 0.0727-55.27"  stroke-width="1.83"/><g stroke-width="1.281"><path d="m-733.5 382.4 0.3178-16.67-5.507-0.6818 0.3456-38.92" /><path d="m-746.2 306-21.9-0.5314" /><path d="m-747.8 392.4-1.072-3.52-18.39 0.0313-3.09 3.535" /><path d="m-768.4 328.3h22.29v58.43h-22.29z" /><path d="m-768.6 339.1-6.752 1.133" /><path d="m-768.4 378.1-7.47 0.4474" /><path d="m-749.7 305.9-1.342 14.81-15.89-0.185-1.19-15.01" /></g></g><g transform="translate(32.82 171.7)" ><path d="m-724 319-14.37 7.128-5.113-3.095 0.1676-14.12-2.916-2.925-0.0814-7.806-2.445 0.1065-3.452 2.878-11.36 0.1254-2.11-2.974-2.33 0.0617-0.1215 7.077-2.507 3.399-0.1953 8.998-2.634 1.984 0.1177 9.776-2.618 2.13 0.0863 46.75 1.964 13.94 3.528-0.0313 1.099 9.255 20.71 0.0792 0.7368-9.38 4.068-0.1296 0.2144-13.93 10.03 4.097 8.919-2.224 0.418-14.49"  stroke-width="1.83"/><path d="m-743.5 378.3 0.0727-55.27"  stroke-width="1.83"/><g stroke-width="1.281"><path d="m-733.5 382.4 0.3178-16.67-5.507-0.6818 0.3456-38.92" /><path d="m-746.2 306-21.9-0.5314" /><path d="m-747.8 392.4-1.072-3.52-18.39 0.0313-3.09 3.535" /><path d="m-768.4 328.3h22.29v58.43h-22.29z" /><path d="m-768.6 339.1-6.752 1.133" /><path d="m-768.4 378.1-7.47 0.4474" /><path d="m-749.7 305.9-1.342 14.81-15.89-0.185-1.19-15.01" /></g></g><g transform="matrix(-1 0 0 1 -1212 171.7)" ><path d="m-724 319-14.37 7.128-5.113-3.095 0.1676-14.12-2.916-2.925-0.0814-7.806-2.445 0.1065-3.452 2.878-11.36 0.1254-2.11-2.974-2.33 0.0617-0.1215 7.077-2.507 3.399-0.1953 8.998-2.634 1.984 0.1177 9.776-2.618 2.13 0.0863 46.75 1.964 13.94 3.528-0.0313 1.099 9.255 20.71 0.0792 0.7368-9.38 4.068-0.1296 0.2144-13.93 10.03 4.097 8.919-2.224 0.418-14.49"  stroke-width="1.83"/><path d="m-743.5 378.3 0.0727-55.27"  stroke-width="1.83"/><g stroke-width="1.281"><path d="m-733.5 382.4 0.3178-16.67-5.507-0.6818 0.3456-38.92" /><path d="m-746.2 306-21.9-0.5314" /><path d="m-747.8 392.4-1.072-3.52-18.39 0.0313-3.09 3.535" /><path d="m-768.4 328.3h22.29v58.43h-22.29z" /><path d="m-768.6 339.1-6.752 1.133" /><path d="m-768.4 378.1-7.47 0.4474" /><path d="m-749.7 305.9-1.342 14.81-15.89-0.185-1.19-15.01" /></g></g></g></g><g transform="matrix(.9638 0 0 .9637 1270 11.9)"  fill="none"   stroke-width="1.038"><path d="m-1128 555 10.89 18.38 10.51 0.2402 0.076-14.38 12.02-0.0332 12.02 0.0332 0.076 14.38 10.51-0.2402 10.89-18.38m24.41-16.37 9.123-6.117 36.89 6.979-0.1855-46.68-35.94-28.76-15.57-61.55 12.53-25.82 23.23-7.814 46.89 11.3-0.6035-61.17-59.67-38.33-29.24-97.53-5.66-1.965-7.975 1.885-2.373 4.322-8.227-7.787-7.006-15.5-2.926-11.83-2.394-4.428-8.795 0.0742-8.795-0.0742-2.394 4.428-2.926 11.83-7.006 15.5-8.226 7.787-2.373-4.322-7.975-1.885-5.66 1.965-29.24 97.53-59.67 38.33-0.6035 61.17 46.89-11.3 23.23 7.814 12.53 25.82-15.57 61.55-35.94 28.76-0.1856 46.68 36.89-6.979 9.123 6.117"  stroke-width="1.83"/><path d="m-1144 198.4-5.26 2.137-1.018 18.19"  stroke-width="1.83"/><path d="m-1157 543.6-1.374 3.375 0.01 16.78 6.184-0.1384 16.03-7.673 11.89-1.465-1.382-37.83-2.99-5.408-5.467 0.0199z"  stroke-width="1.83"/><g stroke-width="1.281"><path d="m-1126 516.7-4.888 0.6702-20.25 26.57-1.372 3.208-0.029 16.52" /><path d="m-1125 526.5-4.06-6.388-5.767 7.213-0.8145 28.67" /><path d="m-1132 555.4-0.055-31.61" /><path d="m-1117 543 0.033 29.24" /><path d="m-1095 543.3-29.86-0.277" /><path d="m-1095 526-12.04-0.1384 0.018 33.36" /><path d="m-1107 525.9-10.76-23.63 11.66-15.14" /></g><path d="m-1111 542.7-0.031-10.04-5.396-0.0928 0.2435-24.72-4.074-1.034-9.574-19.48-16.13-62.84-0.6707-22.02"  stroke-width="1.83"/><g stroke-width="1.83"><path d="m-1173 534.6 2.115 7.637h14.86" /><path d="m-1124 187.4-10.52 54.96-13.36 26.53-10.83 44.48-7.247 49.61 6.558 13.71" /><path d="m-1169 280.7-1.496 25 4.785 57.3" /><path d="m-1101 147.9-3.139 7.087-1.945 17.68" /></g><path d="m-1101 172.9 1.018-19.6 5.261-0.0158 5.261 0.0158 1.018 19.6"  stroke-width="1.281"/><path d="m-1146 424.5-8.156 31.82-0.5381 11.84-18.55 21.64 12.3 14.53 32.6 6.906"  stroke-width="1.83"/><g stroke-width="1.281"><path d="m-1162 532.5 0.5382-28.17" /><path d="m-1112 494.8-2.633-61.46-8.258-16.58-10.42 0.0746 19.29 81.36" /><path d="m-1133 416.8-13.68-14.3" /><path d="m-1107 525.9 1.066-49.55-7.814-83.64-0.2524-54.98 7.075-24.18-7.663-4.416 0.1204-35.75-14.66-6.372-19.07 1.903" /><path d="m-1133 416.8-7.483-64.9-8.026-16.69-0.4685-59.44" /><path d="m-1141 351.9 1.992-3.553-0.5689-33.26-9.842-12.2" /><path d="m-1139 315.1 10.43-48.11" /><path d="m-1095 354-13.32 0.0159-5.578-5.948" /><path d="m-1175 534.8 0.1957-15.94-23.79 4.659" /><path d="m-1167 352.4-62.26 14.12" /></g><g stroke-width="1.281"><ellipse transform="matrix(.9999 .0105 -.01574 .9999 0 0)" cx="-1112" cy="213.7" rx="3.09" ry="3.142" /><ellipse transform="matrix(.9999 .0105 -.01574 .9999 0 0)" cx="-1217" cy="371.6" rx="3.09" ry="3.142" /><ellipse transform="matrix(.9999 .0105 -.01574 .9999 0 0)" cx="-1174" cy="509.2" rx="3.09" ry="3.142" /></g><g stroke-width="1.281"><path d="m-1129 267-4.44 42.14 18.98-0.0108" /><path d="m-1131 277.2-10.93 1.259-6.927-2.65" /><path d="m-1130 274.4-11.98-1.582-6.845 2.931" /></g><path d="m-1154 355.2h5.352v6.784h-5.352z"  stroke-width="1.281"/><g stroke-width="1.281"><path d="m-1109 366.7h6.007v9.346h-6.007z" /><path d="m-1129 329.7h8.102v12.41h-8.102z" /><path d="m-1126 274.3h8.102v19.91h-8.102z" /></g><path d="m-1125 190.6-5.654 5.143-8.076-1.507-5.577 2.707"  stroke-width="1.281"/><path d="m-1141 204.5 10.23 0.5-6.5 37.41-12.6-1.125z"  stroke-width="1.281"/><g stroke-width="1.281"><path d="m-1095 313.5-11.96 0.0618" /><path d="m-1095 206.8-4.44-0.0155-4.604-21.8" /><path d="m-1095 280-10.16 0.0781-9.344-6.689" /><path d="m-1095 271.8-12.18 0.0515-7.326 1.559" /></g><path d="m-1125 251.7h8.102v13.01h-8.102z"  stroke-width="1.281"/><path d="m-1045 198.4 5.26 2.137 1.018 18.19"  stroke-width="1.83"/><path d="m-1032 543.6 1.374 3.375-0.01 16.78-6.184-0.1384-16.03-7.673-11.89-1.465 1.382-37.83 2.99-5.408 5.467 0.0199z"  stroke-width="1.83"/><g stroke-width="1.281"><path d="m-1064 516.7 4.888 0.6702 20.25 26.57 1.372 3.208 0.029 16.52" /><path d="m-1064 526.5 4.06-6.388 5.767 7.213 0.8145 28.67" /><path d="m-1057 555.4 0.055-31.61" /><path d="m-1072 543-0.033 29.24" /><path d="m-1095 543.3 29.86-0.277" /><path d="m-1095 526 12.04-0.1384-0.018 33.36" /><path d="m-1083 525.9 10.76-23.63-11.66-15.14" /></g><path d="m-1078 542.7 0.031-10.04 5.396-0.0928-0.2436-24.72 4.074-1.034 9.574-19.48 16.13-62.84 0.6707-22.02"  stroke-width="1.83"/><g stroke-width="1.83"><path d="m-1016 534.6-2.115 7.637h-14.86" /><path d="m-1065 187.4 10.52 54.96 13.36 26.53 10.83 44.48 7.247 49.61-6.558 13.71" /><path d="m-1020 280.7 1.496 25-4.785 57.3" /><path d="m-1073 179.6-9.905 5.683-11.22 0.0679-11.22-0.0679-9.905-5.683" /><path d="m-1073 179.6-9.463-6.956-11.66 0.2447-11.66-0.2447-9.463 6.956" /><path d="m-1088 147.9 3.139 7.087 1.945 17.68" /><path d="m-1043 424.5 8.156 31.82 0.5381 11.84 18.55 21.64-12.3 14.53-32.6 6.906" /></g><g stroke-width="1.281"><path d="m-1028 532.5-0.5381-28.17" /><path d="m-1077 494.8 2.633-61.46 8.258-16.58 10.42 0.0746-19.29 81.36" /><path d="m-1056 416.8 13.68-14.3" /><path d="m-1083 525.9-1.066-49.55 7.814-83.64 0.2524-54.98-7.075-24.18 7.663-4.416-0.1205-35.75 14.66-6.372 19.07 1.903" /><path d="m-1056 416.8 7.483-64.9 8.026-16.69 0.4686-59.44" /><path d="m-1049 351.9-1.992-3.553 0.5689-33.26 9.842-12.2" /><path d="m-1050 315.1-10.43-48.11" /><path d="m-1095 354 13.32 0.0159 5.578-5.948" /><path d="m-1015 534.8-0.1957-15.94 23.79 4.659" /><path d="m-1022 352.4 62.26 14.12" /></g><g stroke-width="1.281"><ellipse transform="matrix(-.9999 .0105 .01574 .9999 0 0)" cx="1077" cy="190.7" rx="3.09" ry="3.142" /><ellipse transform="matrix(-.9999 .0105 .01574 .9999 0 0)" cx="971.6" cy="348.6" rx="3.09" ry="3.142" /><ellipse transform="matrix(-.9999 .0105 .01574 .9999 0 0)" cx="1015" cy="486.2" rx="3.09" ry="3.142" /></g><g stroke-width="1.281"><path d="m-1060 267 4.44 42.14-18.98-0.0108" /><path d="m-1058 277.2 10.93 1.259 6.927-2.65" /><path d="m-1059 274.4 11.98-1.582 6.845 2.931" /></g><path d="m-1035 355.2h-5.352v6.784h5.352z"  stroke-width="1.281"/><g stroke-width="1.281"><path d="m-1080 366.7h-6.007v9.346h6.007z" /><path d="m-1060 329.7h-8.102v12.41h8.102z" /><path d="m-1063 274.3h-8.102v19.91h8.102z" /></g><path d="m-1065 190.6 5.654 5.143 8.076-1.507 5.577 2.707"  stroke-width="1.281"/><path d="m-1048 204.5-10.23 0.5 6.5 37.41 12.6-1.125z"  stroke-width="1.281"/><g stroke-width="1.281"><path d="m-1095 313.5 11.96 0.0618" /><path d="m-1095 206.8 4.44-0.0155 4.604-21.8" /><path d="m-1095 280 10.16 0.0781 9.344-6.689" /><path d="m-1095 271.8 12.18 0.0515 7.326 1.559" /></g><g stroke-width="1.281"><path d="m-1064 251.7h-8.102v13.01h8.102z" /><path d="m-1102 287.3h15.35v21.68h-15.35z" /><path d="m-1109 213.9h28.43v38.12h-28.43z" /></g><path d="m-1084 476.3h-21.94"  stroke-width="1.281"/><g  stroke-width="1.038"><g transform="translate(-504.9)" ><path d="m-724 319-14.37 7.128-5.113-3.095 0.1676-14.12-2.916-2.925-0.0814-7.806-2.445 0.1065-3.452 2.878-11.36 0.1254-2.11-2.974-2.33 0.0617-0.1215 7.077-2.507 3.399-0.1953 8.998-2.634 1.984 0.1177 9.776-2.618 2.13 0.0863 46.75 1.964 13.94 3.528-0.0313 1.099 9.255 20.71 0.0792 0.7368-9.38 4.068-0.1296 0.2144-13.93 10.03 4.097 8.919-2.224"  stroke-width="1.83"/><path d="m-743.5 378.3 0.0727-55.27"  stroke-width="1.83"/><g stroke-width="1.281"><path d="m-733.5 382.4 0.3178-16.67-5.507-0.6818 0.3456-38.92" /><path d="m-746.2 306-21.9-0.5314" /><path d="m-747.8 392.4-2.486-7.232-18.83 0.208-1.233 7.07" /></g><path d="m-765.4 350.6h14.98v31.91h-14.98z"  stroke-width="1.281"/><path d="m-769.6 323.7 2.364 2.125 4.489-2.641 6.827-0.0526 4.808 2.6 2.49-2.032v16.33l-1.625 4.954-2.29-2.404-13.32-0.0334-1.614 2.438-2.125-5.017z"  stroke-width="1.281"/><path d="m-763.2 328.5h8.26v4.862h-8.26z"  stroke-width="1.281"/><path d="m-769.6 339.9-6.221 2.193"  stroke-width="1.281"/><path d="m-765.3 378.1-10.56 0.359"  stroke-width="1.281"/></g><g transform="translate(-474.3 173.8)" ><path d="m-724 319-14.37 7.128-5.113-3.095 0.1676-14.12-2.916-2.925-0.0814-7.806-2.445 0.1065-3.452 2.878-11.36 0.1254-2.11-2.974-2.33 0.0617-0.1215 7.077-2.507 3.399-0.1953 8.998-2.634 1.984 0.1177 9.776-2.618 2.13 0.0863 46.75 1.964 13.94 3.528-0.0313 1.099 9.255 20.71 0.0792 0.7368-9.38 4.068-0.1296 0.2144-13.93 10.03 4.097 8.919-2.224 0.418-14.49"  stroke-width="1.83"/><path d="m-743.5 378.3 0.0727-55.27"  stroke-width="1.83"/><g stroke-width="1.281"><path d="m-733.5 382.4 0.3178-16.67-5.507-0.6818 0.3456-38.92" /><path d="m-746.2 306-21.9-0.5314" /><path d="m-747.8 392.4-2.486-7.232-18.83 0.208-1.233 7.07" /></g><path d="m-765.4 350.6h14.98v31.91h-14.98z"  stroke-width="1.281"/><path d="m-769.6 323.7 2.364 2.125 4.489-2.641 6.827-0.0526 4.808 2.6 2.49-2.032v16.33l-1.625 4.954-2.29-2.404-13.32-0.0334-1.614 2.438-2.125-5.017z"  stroke-width="1.281"/><path d="m-763.2 328.5h8.26v4.862h-8.26z"  stroke-width="1.281"/><path d="m-769.6 339.9-6.221 2.193"  stroke-width="1.281"/><path d="m-765.3 378.1-10.56 0.359"  stroke-width="1.281"/></g><g transform="matrix(-1 0 0 1 -1684 0)" ><path d="m-724 319-14.37 7.128-5.113-3.095 0.1676-14.12-2.916-2.925-0.0814-7.806-2.445 0.1065-3.452 2.878-11.36 0.1254-2.11-2.974-2.33 0.0617-0.1215 7.077-2.507 3.399-0.1953 8.998-2.634 1.984 0.1177 9.776-2.618 2.13 0.0863 46.75 1.964 13.94 3.528-0.0313 1.099 9.255 20.71 0.0792 0.7368-9.38 4.068-0.1296 0.2144-13.93 10.03 4.097 8.919-2.224"  stroke-width="1.83"/><path d="m-743.5 378.3 0.0727-55.27"  stroke-width="1.83"/><g stroke-width="1.281"><path d="m-733.5 382.4 0.3178-16.67-5.507-0.6818 0.3456-38.92" /><path d="m-746.2 306-21.9-0.5314" /><path d="m-747.8 392.4-2.486-7.232-18.83 0.208-1.233 7.07" /></g><path d="m-765.4 350.6h14.98v31.91h-14.98z"  stroke-width="1.281"/><path d="m-769.6 323.7 2.364 2.125 4.489-2.641 6.827-0.0526 4.808 2.6 2.49-2.032v16.33l-1.625 4.954-2.29-2.404-13.32-0.0334-1.614 2.438-2.125-5.017z"  stroke-width="1.281"/><path d="m-763.2 328.5h8.26v4.862h-8.26z"  stroke-width="1.281"/><path d="m-769.6 339.9-6.221 2.193"  stroke-width="1.281"/><path d="m-765.3 378.1-10.56 0.359"  stroke-width="1.281"/></g><g transform="matrix(-1 0 0 1 -1715 173.8)" ><path d="m-724 319-14.37 7.128-5.113-3.095 0.1676-14.12-2.916-2.925-0.0814-7.806-2.445 0.1065-3.452 2.878-11.36 0.1254-2.11-2.974-2.33 0.0617-0.1215 7.077-2.507 3.399-0.1953 8.998-2.634 1.984 0.1177 9.776-2.618 2.13 0.0863 46.75 1.964 13.94 3.528-0.0313 1.099 9.255 20.71 0.0792 0.7368-9.38 4.068-0.1296 0.2144-13.93 10.03 4.097 8.919-2.224 0.4179-14.49"  stroke-width="1.83"/><path d="m-743.5 378.3 0.0727-55.27"  stroke-width="1.83"/><g stroke-width="1.281"><path d="m-733.5 382.4 0.3178-16.67-5.507-0.6818 0.3456-38.92" /><path d="m-746.2 306-21.9-0.5314" /><path d="m-747.8 392.4-2.486-7.232-18.83 0.208-1.233 7.07" /></g><path d="m-765.4 350.6h14.98v31.91h-14.98z"  stroke-width="1.281"/><path d="m-769.6 323.7 2.364 2.125 4.489-2.641 6.827-0.0526 4.808 2.6 2.49-2.032v16.33l-1.625 4.954-2.29-2.404-13.32-0.0334-1.614 2.438-2.125-5.017z"  stroke-width="1.281"/><path d="m-763.2 328.5h8.26v4.862h-8.26z"  stroke-width="1.281"/><path d="m-769.6 339.9-6.221 2.193"  stroke-width="1.281"/><path d="m-765.3 378.1-10.56 0.359"  stroke-width="1.281"/></g></g><g stroke-width="1.281"><path d="m-1170 290.7-58.73 37.99" /><path d="m-1148 268.9-13.08-16.58" /><path d="m-1019 290.7 58.73 37.99" /><path d="m-1041 268.9 13.08-16.58" /></g></g><g  ><g fill="none" stroke="#979797" stroke-width="3.587"><path d="m442.9 86.92c21.52 3.996 37.82 22.87 37.82 45.55 0 5.371-0.9139 10.53-2.595 15.33m-7.842 13.97c-8.496 10.4-21.42 17.03-35.89 17.03-14.38 0-27.24-6.555-35.74-16.84m-7.716-13.37c-1.862-5.019-2.88-10.45-2.88-16.12 0-23.05 16.84-42.18 38.89-45.74" /><g><path d="m434.9 71.19v15.85" /><path d="m395.6 155.1-13.68 8.014" /><path d="m474.2 155.1 13.68 8.014" /></g></g><g ></g><g fill="#f39745" ><g stroke-width="1.764"></g><g stroke-width="1.764"></g><g stroke-width="1.764"></g></g><g fill="#ff3ae1"  stroke-width="1.554"></g><g fill="#4df346" ><g stroke-width="1.661"></g></g><g fill="#f39745"  stroke-width="1.235"></g><g fill="#979797"  stroke-width="2.869"></g></g>
  </svg>
</svg>
