<svg xmlns="http://www.w3.org/2000/svg" viewBox="0 0 390 640" preserveAspectRatio="xMidYMid meet">
  <style>
    * { vector-effect: non-scaling-stroke; }
    path, rect, circle, ellipse, polygon, polyline, line {
      fill: none !important;
      stroke: #73f8ff !important;
      stroke-width: 2.25px !important;
      stroke-linecap: round;
      stroke-linejoin: round;
      opacity: 0.92;
    }
  </style>
  <svg x="0" y="0" width="870" height="640" viewBox="0 0 870 640" preserveAspectRatio="xMinYMin meet">

<g></g><g transform="translate(1085)"  fill="none"  ><g stroke-width="1.764"><path d="m-438.7 154.4-2.732 3.33-4.951 8.416-6.922 14.59-5.203 11.76-2.287-4.164-7.686-1.816-5.455 1.893-26.65 95.86-59.04 35.06-0.582 58.95 33.94-7.654 33.7 7.838 0.2539 21.42 11.76 17.24-15.01 41.99-32.43 25.67-0.1797 44.99 49.52-13.03 4.01 12.98 18.36 0.2734 4.914 10.73 5.938-0.127-0.0703-5.965 15.27-4e-3 15.27 4e-3 -0.0723 5.965 5.939 0.127 4.912-10.73 18.36-0.2734 4.01-12.98 49.52 13.03-0.1777-44.99-32.43-25.67-15.01-41.99 11.75-17.24 0.2559-21.42 33.7-7.838 33.94 7.654-0.582-58.95-59.04-35.06-26.65-95.86-5.455-1.893-7.686 1.816-2.287 4.164-5.201-11.76-6.922-14.59-4.951-8.416-2.732-3.33-8.477 0.0723z" /><path d="m-502.8 523.3 2.545 6.269 16.44 6e-3 -0.0103 9.538 22.11 0.1101 9.764 16.93 10.13 0.2315 0.0732-13.86 11.58-0.032" /><path d="m-483.8 529.6 9.244 0.1232" /></g><path d="m-478.2 204.7-6.092 2.698-0.0444 18.46"  stroke-width="1.764"/><path d="m-458.5 192.5-1.708 10.08-4.688 3.166-8.831 67.36-17.94 0.212-0.0419 38.76-49.64 18.96-0.1246 35.94 15.23 3.646"  stroke-width="1.764"/><path d="m-504.2 317.1 3.667-32.83"  stroke-width="1.235"/><g stroke-width="1.764"><path d="m-491.7 312.1-0.842 66.39" /><path d="m-460.2 202.6-0.4478 70.3" /><path d="m-492.3 399.9 14.8 0.0174 16.7 45.67-9.524 15.28-39.6 14.41 2.164 25.75 51.39 12.25 0.1041 16.74" /></g><g stroke-width="1.235"><path d="m-495.5 459.1 18.06-15.57 6.553-25.59" /><path d="m-521 527.6 0.2746-19.69 12.99-6.926" /><path d="m-478.6 516.7-2.645-9.3" /><path d="m-470.6 509.9-4e-3 -36.27 13.12-19.37-3.32-8.697" /><path d="m-457.4 454.3 11.77-1.126-0.1042-8.762-17.77-44.82" /><path d="m-477.5 399.9 13.92-0.3387 33.36 0.0698" /><path d="m-445.5 534.6-0.2192-81.5" /><path d="m-495.6 268.5 22.31 2.426" /><path d="m-480.3 212.3 3.197 3.06 11.19-1.998" /><path d="m-482.8 221.6 4.375 2.837 10.87-1.774" /><path d="m-502.4 375.6 0.0914-15.17c3.61-1.469 7.187-2.728 10.31-4.487" /></g><path d="m-466.1 387.1h6.845v6.538h-6.845z"  stroke-width="1.235"/><ellipse transform="matrix(.9999 .0105 -.01574 .9999 0 0)" cx="-516.4" cy="357.2" rx="2.978" ry="3.028"  stroke-width="1.235"/><ellipse transform="matrix(.9999 .0105 -.01574 .9999 0 0)" cx="-480.8" cy="487.6" rx="2.978" ry="3.028"  stroke-width="1.235"/><ellipse transform="matrix(.9133 .4073 -.4049 .9144 0 0)" cx="-337.7" cy="365.7" rx="2.19" ry="3.028"  stroke-width="1.235"/><path d="m-445.6 214.1h30.81v30.26h-30.81z"  stroke-width="1.235"/><g stroke-width="1.235"><path d="m-430.2 444.3-15.59 0.0745" /><path d="m-441.4 534.2-0.1084-45.49 11.34-0.1326" /><path d="m-430.2 499.2-11.29 0.0745" /><path d="m-430.2 507.6-11.49 0.0745" /><path d="m-430.2 516.1-11.26-2.034" /></g><path d="m-464.8 222 9.172-2.3v22.93l-11.47-1.363z"  stroke-width="1.235"/><g stroke-width="1.235"><path d="m-442.3 459.8h6.845v6.538h-6.845z" /><path d="m-437 522.3h3.201v4.038h-3.201z" /><path d="m-433.6 159.4h6.845l2.379 6.538h-11.6z" /></g><path d="m-441.4 192.2 4.841-19.09h12.83l4.705 19.09-3.313 8.757h-15.75z"  stroke-width="1.235"/><path d="m-357.5 523.3-2.545 6.269-16.44 6e-3 0.0103 9.538-22.11 0.1101-9.764 16.93-10.13 0.2315-0.0733-13.86-11.58-0.032"  stroke-width="1.764"/><path d="m-376.5 529.6-9.244 0.1232"  stroke-width="1.764"/><path d="m-382.1 204.7 6.092 2.698 0.0444 18.46"  stroke-width="1.764"/><path d="m-400.2 202.6 0.4478 70.92"  stroke-width="1.764"/><g stroke-width="1.235"><path d="m-364.8 459.1-18.06-15.57-6.553-25.59" /><path d="m-339.4 527.6-0.2746-19.69-12.99-6.926" /><path d="m-381.8 516.7 2.645-9.3" /><path d="m-389.8 509.9 4e-3 -36.27-13.12-19.37 3.32-8.697" /><path d="m-402.9 454.3-11.77-1.126 0.1042-8.762 17.77-44.82" /><path d="m-414.9 534.6 0.2192-81.5" /><path d="m-364.8 268.5-22.31 2.426" /><path d="m-380.1 212.3-3.197 3.06-11.19-1.998" /><path d="m-377.5 221.6-4.375 2.837-10.87-1.774" /></g><path d="m-395.7 387.1h-6.845v6.538h6.845z"  stroke-width="1.235"/><ellipse transform="matrix(-.9999 .0105 .01574 .9999 0 0)" cx="343.9" cy="348.2" rx="2.978" ry="3.028"  stroke-width="1.235"/><ellipse transform="matrix(-.9999 .0105 .01574 .9999 0 0)" cx="379.4" cy="478.6" rx="2.978" ry="3.028"  stroke-width="1.235"/><ellipse transform="matrix(-.9133 .4073 .4049 .9144 0 0)" cx="449" cy="15.24" rx="2.19" ry="3.028"  stroke-width="1.235"/><g stroke-width="1.235"><path d="m-430.2 444.3 15.59 0.0745" /><path d="m-419 534.2 0.1084-45.49-11.34-0.1326" /><path d="m-430.2 499.2 11.29 0.0745" /><path d="m-430.2 507.6 11.49 0.0745" /><path d="m-430.2 516.1 11.26-2.034" /></g><path d="m-395.5 222-9.172-2.3v22.93l11.47-1.363z"  stroke-width="1.235"/><path d="m-418.1 459.8h-6.845v6.538h6.845z"  stroke-width="1.235"/><path d="m-423.3 522.3h-3.201v4.038h3.201z"  stroke-width="1.235"/><g stroke-width="1.235"><path d="m-527.8 506.2 19.42-13.7 51.65-0.1112" /><path d="m-456.3 513.3-1.11-58.99" /><path d="m-332.6 506.2-19.42-13.7-51.65-0.1112" /><path d="m-404 513.3 1.11-58.99" /><path d="m-470.3 460.8-0.614-42.9" /><path d="m-491.7 312.1-10.87-8.179" /><path d="m-541 343.5 35.33-19.1-0.0685-6.667" /><path d="m-458.5 192.5-2.286 1.839-3.323 0.4939-8.986-2.438-0.8326-3.983" /><path d="m-319.3 343.5-35.33-19.1 0.0685-6.667" /><path d="m-401.9 192.5 2.286 1.839 3.323 0.4939 8.986-2.438 0.8326-3.983" /></g><g transform="matrix(.9638 0 0 .9637 138.2 11.9)"><path d="m-724 319-14.37 7.128-5.113-3.095 0.1676-14.12-2.916-2.925-0.0814-7.806-2.445 0.1065-3.452 2.878-11.36 0.1254-2.11-2.974-2.33 0.0617-0.1215 7.077-2.507 3.399-0.1953 8.998-2.634 1.984 0.1177 9.776-2.618 2.13 0.0863 46.75 1.964 13.94 3.528-0.0313 1.099 9.255 20.71 0.0792 0.7368-9.38 4.068-0.1296 0.2144-13.93 10.03 4.097 8.919-2.224"  stroke-width="1.83"/><path d="m-743.5 378.3 0.0727-55.27"  stroke-width="1.83"/><g stroke-width="1.281"><path d="m-733.5 382.4 0.3178-16.67-5.507-0.6818 0.3456-38.92" /><path d="m-746.2 306-21.9-0.5314" /><path d="m-747.8 392.4-1.072-3.52-18.39 0.0313-3.09 3.535" /><path d="m-768.4 328.3h22.29v58.43h-22.29z" /><path d="m-768.6 339.1-6.752 1.133" /><path d="m-768.4 378.1-7.47 0.4474" /><path d="m-749.7 305.9-1.342 14.81-15.89-0.185-1.19-15.01" /></g></g><g  stroke-width="1.038"><g transform="matrix(-.9638 0 0 .9637 -998.5 11.9)" ><path d="m-724 319-14.37 7.128-5.113-3.095 0.1676-14.12-2.916-2.925-0.0814-7.806-2.445 0.1065-3.452 2.878-11.36 0.1254-2.11-2.974-2.33 0.0617-0.1215 7.077-2.507 3.399-0.1953 8.998-2.634 1.984 0.1177 9.776-2.618 2.13 0.0863 46.75 1.964 13.94 3.528-0.0313 1.099 9.255 20.71 0.0792 0.7368-9.38 4.068-0.1296 0.2144-13.93 10.03 4.097 8.919-2.224"  stroke-width="1.83"/><path d="m-743.5 378.3 0.0727-55.27"  stroke-width="1.83"/><g stroke-width="1.281"><path d="m-733.5 382.4 0.3178-16.67-5.507-0.6818 0.3456-38.92" /><path d="m-746.2 306-21.9-0.5314" /><path d="m-747.8 392.4-1.072-3.52-18.39 0.0313-3.09 3.535" /><path d="m-768.4 328.3h22.29v58.43h-22.29z" /><path d="m-768.6 339.1-6.752 1.133" /><path d="m-768.4 378.1-7.47 0.4474" /><path d="m-749.7 305.9-1.342 14.81-15.89-0.185-1.19-15.01" /></g></g><g transform="matrix(.9638 0 0 .9637 169.8 177.4)" ><path d="m-724 319-14.37 7.128-5.113-3.095 0.1676-14.12-2.916-2.925-0.0814-7.806-2.445 0.1065-3.452 2.878-11.36 0.1254-2.11-2.974-2.33 0.0617-0.1215 7.077-2.507 3.399-0.1953 8.998-2.634 1.984 0.1177 9.776-2.618 2.13 0.0863 46.75 1.964 13.94 3.528-0.0313 1.099 9.255 20.71 0.0792 0.7368-9.38 4.068-0.1296 0.2144-13.93 10.03 4.097 8.919-2.224 0.418-14.49"  stroke-width="1.83"/><path d="m-743.5 378.3 0.0727-55.27"  stroke-width="1.83"/><g stroke-width="1.281"><path d="m-733.5 382.4 0.3178-16.67-5.507-0.6818 0.3456-38.92" /><path d="m-746.2 306-21.9-0.5314" /><path d="m-747.8 392.4-1.072-3.52-18.39 0.0313-3.09 3.535" /><path d="m-768.4 328.3h22.29v58.43h-22.29z" /><path d="m-768.6 339.1-6.752 1.133" /><path d="m-768.4 378.1-7.47 0.4474" /><path d="m-749.7 305.9-1.342 14.81-15.89-0.185-1.19-15.01" /></g></g><g transform="matrix(-.9638 0 0 .9637 -1030 177.4)" ><path d="m-724 319-14.37 7.128-5.113-3.095 0.1676-14.12-2.916-2.925-0.0814-7.806-2.445 0.1065-3.452 2.878-11.36 0.1254-2.11-2.974-2.33 0.0617-0.1215 7.077-2.507 3.399-0.1953 8.998-2.634 1.984 0.1177 9.776-2.618 2.13 0.0863 46.75 1.964 13.94 3.528-0.0313 1.099 9.255 20.71 0.0792 0.7368-9.38 4.068-0.1296 0.2144-13.93 10.03 4.097 8.919-2.224 0.418-14.49"  stroke-width="1.83"/><path d="m-743.5 378.3 0.0727-55.27"  stroke-width="1.83"/><g stroke-width="1.281"><path d="m-733.5 382.4 0.3178-16.67-5.507-0.6818 0.3456-38.92" /><path d="m-746.2 306-21.9-0.5314" /><path d="m-747.8 392.4-1.072-3.52-18.39 0.0313-3.09 3.535" /><path d="m-768.4 328.3h22.29v58.43h-22.29z" /><path d="m-768.6 339.1-6.752 1.133" /><path d="m-768.4 378.1-7.47 0.4474" /><path d="m-749.7 305.9-1.342 14.81-15.89-0.185-1.19-15.01" /></g></g></g><path d="m-483.8 530.3-19.24 10.75-2.135 3.158-1.517 17.29 10.91 0.0534 0.109-1.85 50.94-6e-3 0.0407 2.263 7.105 6e-3 4.216-4.929-0.1111-14.25"  stroke-width="1.764"/><path d="m-495.7 559.7 1.379-15.31 33.65-2.947m16.19 14.89-0.2818 3.362"  stroke-width="1.235"/><path d="m-376.7 530.3 19.24 10.75 2.135 3.158 1.517 17.29-10.91 0.0534-0.109-1.85-50.94-6e-3 -0.0407 2.263-7.105 6e-3 -4.216-4.929 0.1111-14.25"  stroke-width="1.764"/><path d="m-364.8 559.7-1.379-15.31-33.65-2.947m-16.19 14.89 0.2818 3.362"  stroke-width="1.235"/><path d="m-480.5 417.1 6.966 11.02"  stroke-width="1.764"/><path d="m-401.9 192.5 1.708 10.08 4.688 3.166 8.831 67.36 17.94 0.212 0.0419 38.76 49.64 18.96 0.1246 35.94-15.23 3.646"  stroke-width="1.764"/><path d="m-356.2 317.1-3.667-32.83"  stroke-width="1.235"/><path d="m-368.1 399.9-14.8 0.0174-16.7 45.67 9.524 15.28 39.6 14.41-2.164 25.75-51.39 12.25-0.1041 16.74"  stroke-width="1.764"/><path d="m-382.9 399.9-13.92-0.3387-33.36 0.0698"  stroke-width="1.235"/><path d="m-368.7 312.1 10.87-8.179"  stroke-width="1.235"/><path d="m-368.7 312.1 0.842 66.39"  stroke-width="1.764"/><path d="m-358 375.6-0.0914-15.17c-3.61-1.469-7.187-2.728-10.31-4.487"  stroke-width="1.235"/><path d="m-473.7 273.1 87.02 1e-5"  stroke-width="1.764"/><path d="m-484.9 276.3h109.4v104.3h-109.4z"  stroke-width="1.235"/><path d="m-453.9 385.5h46.44v9.889h-46.44z"  stroke-width="1.235"/></g><g transform="translate(644.9)"  fill="none"  ><path d="m-372.2 529.5 6.576-4.409 35.55 6.725-0.1788-44.98-34.64-27.72-15.01-59.31 12.08-24.88 22.39-7.531 45.19 10.89-0.5816-58.95-57.51-36.94-28.18-93.98-5.455-1.894-7.686 1.816-2.287 4.165-7.929-7.504-6.752-14.94-2.82-11.4-2.308-4.267-8.476 0.0715-8.476-0.0715-2.308 4.267-2.82 11.4-6.752 14.94-7.928 7.504-2.287-4.165-7.686-1.816-5.455 1.894-28.18 93.98-57.5 36.94-0.5816 58.95 45.19-10.89 22.39 7.531 12.08 24.88-15.01 59.31-34.64 27.72-0.1789 44.98 35.55-6.725 7.105 4.645"  stroke-width="1.764"/><path d="m-478.1 203.1-5.07 2.06-0.9815 17.53"  stroke-width="1.764"/><path d="m-512.5 543.3-2.449 3.628-1.74 19.86 12.52 0.0614 0.125-2.125 58.44-7e-3 0.0466 2.599 8.151 7e-3 4.837-5.662-0.2071-26.58-3.131-30.21-15.38 4.184z"  stroke-width="1.764"/><path d="m-446.8 507.7-5.386-11.82 11.24-14.59"  stroke-width="1.235"/><path d="m-451.2 509 0.0755-7.661-3.926-0.996-9.227-18.77-15.54-60.56-0.6464-21.22"  stroke-width="1.764"/><g stroke-width="1.764"><path d="m-505.8 527.1 2.038 7.36h7.381" /><path d="m-458.5 192.5-10.14 52.97-12.88 25.57-10.43 42.86-6.984 47.81 6.321 13.22" /><path d="m-502.1 282.4-1.442 24.09 4.612 55.22" /><path d="m-436.5 154.4-3.025 6.83-1.874 17.04" /></g><path d="m-436.2 178.5 0.9814-18.89 5.07-0.0152 5.07 0.0152 0.9815 18.89"  stroke-width="1.235"/><path d="m-479.9 421-7.86 30.66-0.5186 11.41-17.88 20.85 11.85 14 24.93 5.28-0.1336 15.88"  stroke-width="1.764"/><g stroke-width="1.235"><path d="m-494.8 525.1 0.5187-27.14" /><path d="m-446.8 488.7-2.537-59.23-7.959-15.98-10.04 0.0719 18.59 78.41" /><path d="m-467.3 413.6-13.19-13.78" /><path d="m-441.5 505.8 0.7502-34.88-7.531-80.61-0.2433-52.99 6.819-23.3-7.386-4.256 0.116-34.46-14.13-6.141-18.38 1.834" /><path d="m-467.3 413.6-7.212-62.54-7.735-16.09-0.4515-57.28" /><path d="m-474.5 351 1.92-3.424-0.5483-32.05-9.485-11.76" /><path d="m-473.2 315.6 10.05-46.37" /><path d="m-430.2 353.1-12.83 0.0153-5.376-5.732" /><path d="m-507.4 527.3 0.1886-15.36-22.92 4.49" /><path d="m-499.8 351.5-60.01 13.61" /></g><g stroke-width="1.235"><ellipse transform="matrix(.9999 .0105 -.01574 .9999 0 0)" cx="-446.8" cy="211.3" rx="2.978" ry="3.028" /><ellipse transform="matrix(.9999 .0105 -.01574 .9999 0 0)" cx="-548.4" cy="363.5" rx="2.978" ry="3.028" /><ellipse transform="matrix(.9999 .0105 -.01574 .9999 0 0)" cx="-506.4" cy="496.1" rx="2.978" ry="3.028" /></g><g stroke-width="1.235"><path d="m-463.1 269.2-4.279 40.61 18.29-0.0104" /><path d="m-465.5 279-10.53 1.213-6.676-2.553" /><path d="m-464.6 276.4-11.55-1.525-6.597 2.825" /></g><path d="m-487.4 354.2h5.159v6.538h-5.159z"  stroke-width="1.235"/><g stroke-width="1.235"><path d="m-444.5 365.3h5.789v9.007h-5.789z" /><path d="m-463.1 329.6h7.809v11.96h-7.809z" /><path d="m-460.7 276.2h7.809v19.19h-7.809z" /></g><path d="m-459.1 195.5-5.45 4.956-7.784-1.452-5.375 2.609"  stroke-width="1.235"/><path d="m-474.8 209 9.857 0.4818-6.264 36.05-12.15-1.084z"  stroke-width="1.235"/><g stroke-width="1.235"><path d="m-430.2 314-11.53 0.0596" /><path d="m-430.2 211.2-4.279-0.0149-4.437-21.01" /><path d="m-430.2 281.7-9.794 0.0753-9.005-6.446" /><path d="m-430.2 273.8-11.74 0.0496-7.06 1.503" /></g><path d="m-459.5 254.4h7.809v12.54h-7.809z"  stroke-width="1.235"/><path d="m-382.2 203.1 5.069 2.06 0.9815 17.53"  stroke-width="1.764"/><path d="m-409.1 508.3-0.0686-6.956 3.926-0.996 9.227-18.77 15.54-60.56 0.6464-21.22"  stroke-width="1.764"/><g stroke-width="1.764"><path d="m-401.9 192.5 10.14 52.97 12.88 25.57 10.43 42.86 6.984 47.81-6.321 13.22" /><path d="m-358.3 282.4 1.442 24.09-4.612 55.22" /><path d="m-409.8 185-9.546 5.477-10.81 0.0654-10.81-0.0654-9.546-5.477" /><path d="m-409.8 185-9.12-6.704-11.24 0.2358-11.24-0.2358-9.12 6.704" /><path d="m-423.8 154.4 3.025 6.83 1.874 17.04" /></g><g stroke-width="1.235"><path d="m-413.6 488.7 2.537-59.23 7.959-15.98 10.04 0.0719-18.59 78.41" /><path d="m-393 413.6 13.19-13.78" /><path d="m-418.9 505.7-0.7466-34.72 7.531-80.61 0.2432-52.99-6.819-23.3 7.386-4.256-0.1161-34.46 14.13-6.141 18.38 1.834" /><path d="m-393 413.6 7.212-62.54 7.735-16.09 0.4516-57.28" /><path d="m-385.8 351-1.92-3.424 0.5483-32.05 9.485-11.76" /><path d="m-387.2 315.6-10.05-46.37" /><path d="m-430.2 353.1 12.83 0.0153 5.376-5.732" /><path d="m-353 527.3-0.1886-15.36 22.92 4.49" /><path d="m-360.6 351.5 60.01 13.61" /></g><g stroke-width="1.235"><ellipse transform="matrix(-.9999 .0105 .01574 .9999 0 0)" cx="413.4" cy="202.3" rx="2.978" ry="3.028" /><ellipse transform="matrix(-.9999 .0105 .01574 .9999 0 0)" cx="311.9" cy="354.4" rx="2.978" ry="3.028" /><ellipse transform="matrix(-.9999 .0105 .01574 .9999 0 0)" cx="353.9" cy="487" rx="2.978" ry="3.028" /></g><g stroke-width="1.235"><path d="m-397.3 269.2 4.279 40.61-18.29-0.0104" /><path d="m-394.8 279 10.53 1.213 6.676-2.553" /><path d="m-395.8 276.4 11.55-1.525 6.597 2.825" /></g><path d="m-373 354.2h-5.159v6.538h5.159z"  stroke-width="1.235"/><g stroke-width="1.235"><path d="m-415.8 365.3h-5.789v9.007h5.789z" /><path d="m-397.2 329.6h-7.809v11.96h7.809z" /><path d="m-399.6 276.2h-7.809v19.19h7.809z" /></g><path d="m-401.2 195.5 5.45 4.956 7.783-1.452 5.375 2.609"  stroke-width="1.235"/><path d="m-385.5 209-9.857 0.4818 6.264 36.05 12.15-1.084z"  stroke-width="1.235"/><g stroke-width="1.235"><path d="m-430.2 314 11.53 0.0596" /><path d="m-430.2 211.2 4.279-0.0149 4.437-21.01" /><path d="m-430.2 281.7 9.794 0.0753 9.005-6.446" /><path d="m-430.2 273.8 11.74 0.0496 7.06 1.503" /></g><g stroke-width="1.235"><path d="m-400.9 254.4h-7.809v12.54h7.809z" /><path d="m-437.6 288.7h14.79v20.89h-14.79z" /><path d="m-443.9 218h27.4v36.73h-27.4z" /></g><path d="m-419.6 470.9h-21.15"  stroke-width="1.235"/><g  stroke-width="1.038"><g transform="matrix(.9638 0 0 .9637 138.2 11.9)" ><path d="m-724 319-14.37 7.128-5.113-3.095 0.1676-14.12-2.916-2.925-0.0814-7.806-2.445 0.1065-3.452 2.878-11.36 0.1254-2.11-2.974-2.33 0.0617-0.1215 7.077-2.507 3.399-0.1953 8.998-2.634 1.984 0.1177 9.776-2.618 2.13 0.0863 46.75 1.964 13.94 3.528-0.0313 1.099 9.255 20.71 0.0792 0.7368-9.38 4.068-0.1296 0.2144-13.93 10.03 4.097 8.919-2.224"  stroke-width="1.83"/><path d="m-743.5 378.3 0.0727-55.27"  stroke-width="1.83"/><g stroke-width="1.281"><path d="m-733.5 382.4 0.3178-16.67-5.507-0.6818 0.3456-38.92" /><path d="m-746.2 306-21.9-0.5314" /><path d="m-747.8 392.4-2.486-7.232-18.83 0.208-1.233 7.07" /></g><path d="m-765.4 350.6h14.98v31.91h-14.98z"  stroke-width="1.281"/><path d="m-769.6 323.7 2.364 2.125 4.489-2.641 6.827-0.0526 4.808 2.6 2.49-2.032v16.33l-1.625 4.954-2.29-2.404-13.32-0.0334-1.614 2.438-2.125-5.017z"  stroke-width="1.281"/><path d="m-763.2 328.5h8.26v4.862h-8.26z"  stroke-width="1.281"/><path d="m-769.6 339.9-6.221 2.193"  stroke-width="1.281"/><path d="m-765.3 378.1-10.56 0.359"  stroke-width="1.281"/></g><g transform="matrix(.9638 0 0 .9637 167.6 179.4)" ><path d="m-724 319-14.37 7.128-5.113-3.095 0.1676-14.12-2.916-2.925-0.0814-7.806-2.445 0.1065-3.452 2.878-11.36 0.1254-2.11-2.974-2.33 0.0617-0.1215 7.077-2.507 3.399-0.1953 8.998-2.634 1.984 0.1177 9.776-2.618 2.13 0.0863 46.75 1.964 13.94 3.528-0.0313 1.099 9.255 20.71 0.0792 0.7368-9.38 4.068-0.1296 0.2144-13.93 10.03 4.097 8.919-2.224 0.418-14.49"  stroke-width="1.83"/><path d="m-743.5 378.3 0.0727-55.27"  stroke-width="1.83"/><g stroke-width="1.281"><path d="m-733.5 382.4 0.3178-16.67-5.507-0.6818 0.3456-38.92" /><path d="m-746.2 306-21.9-0.5314" /><path d="m-747.8 392.4-2.486-7.232-18.83 0.208-1.233 7.07" /></g><path d="m-765.4 350.6h14.98v31.91h-14.98z"  stroke-width="1.281"/><path d="m-769.6 323.7 2.364 2.125 4.489-2.641 6.827-0.0526 4.808 2.6 2.49-2.032v16.33l-1.625 4.954-2.29-2.404-13.32-0.0334-1.614 2.438-2.125-5.017z"  stroke-width="1.281"/><path d="m-763.2 328.5h8.26v4.862h-8.26z"  stroke-width="1.281"/><path d="m-769.6 339.9-6.221 2.193"  stroke-width="1.281"/><path d="m-765.3 378.1-10.56 0.359"  stroke-width="1.281"/></g><g transform="matrix(-.9638 0 0 .9637 -998.5 11.9)" ><path d="m-724 319-14.37 7.128-5.113-3.095 0.1676-14.12-2.916-2.925-0.0814-7.806-2.445 0.1065-3.452 2.878-11.36 0.1254-2.11-2.974-2.33 0.0617-0.1215 7.077-2.507 3.399-0.1953 8.998-2.634 1.984 0.1177 9.776-2.618 2.13 0.0863 46.75 1.964 13.94 3.528-0.0313 1.099 9.255 20.71 0.0792 0.7368-9.38 4.068-0.1296 0.2144-13.93 10.03 4.097 8.919-2.224"  stroke-width="1.83"/><path d="m-743.5 378.3 0.0727-55.27"  stroke-width="1.83"/><g stroke-width="1.281"><path d="m-733.5 382.4 0.3178-16.67-5.507-0.6818 0.3456-38.92" /><path d="m-746.2 306-21.9-0.5314" /><path d="m-747.8 392.4-2.486-7.232-18.83 0.208-1.233 7.07" /></g><path d="m-765.4 350.6h14.98v31.91h-14.98z"  stroke-width="1.281"/><path d="m-769.6 323.7 2.364 2.125 4.489-2.641 6.827-0.0526 4.808 2.6 2.49-2.032v16.33l-1.625 4.954-2.29-2.404-13.32-0.0334-1.614 2.438-2.125-5.017z"  stroke-width="1.281"/><path d="m-763.2 328.5h8.26v4.862h-8.26z"  stroke-width="1.281"/><path d="m-769.6 339.9-6.221 2.193"  stroke-width="1.281"/><path d="m-765.3 378.1-10.56 0.359"  stroke-width="1.281"/></g><g transform="matrix(-.9638 0 0 .9637 -1028 179.4)" ><path d="m-724 319-14.37 7.128-5.113-3.095 0.1676-14.12-2.916-2.925-0.0814-7.806-2.445 0.1065-3.452 2.878-11.36 0.1254-2.11-2.974-2.33 0.0617-0.1215 7.077-2.507 3.399-0.1953 8.998-2.634 1.984 0.1177 9.776-2.618 2.13 0.0863 46.75 1.964 13.94 3.528-0.0313 1.099 9.255 20.71 0.0792 0.7368-9.38 4.068-0.1296 0.2144-13.93 10.03 4.097 8.919-2.224 0.4179-14.49"  stroke-width="1.83"/><path d="m-743.5 378.3 0.0727-55.27"  stroke-width="1.83"/><g stroke-width="1.281"><path d="m-733.5 382.4 0.3178-16.67-5.507-0.6818 0.3456-38.92" /><path d="m-746.2 306-21.9-0.5314" /><path d="m-747.8 392.4-2.486-7.232-18.83 0.208-1.233 7.07" /></g><path d="m-765.4 350.6h14.98v31.91h-14.98z"  stroke-width="1.281"/><path d="m-769.6 323.7 2.364 2.125 4.489-2.641 6.827-0.0526 4.808 2.6 2.49-2.032v16.33l-1.625 4.954-2.29-2.404-13.32-0.0334-1.614 2.438-2.125-5.017z"  stroke-width="1.281"/><path d="m-763.2 328.5h8.26v4.862h-8.26z"  stroke-width="1.281"/><path d="m-769.6 339.9-6.221 2.193"  stroke-width="1.281"/><path d="m-765.3 378.1-10.56 0.359"  stroke-width="1.281"/></g></g><g stroke-width="1.235"><path d="m-502.9 292-56.6 36.61" /><path d="m-481.5 271-12.6-15.97" /><path d="m-357.5 292 56.6 36.61" /><path d="m-378.9 271 12.6-15.97" /><path d="m-413.7 507.7 5.386-11.82-11.24-14.59" /></g><path d="m-354.6 527.1-2.038 7.36h-7.381"  stroke-width="1.764"/><path d="m-380.5 421 7.86 30.66 0.5186 11.41 17.88 20.85-11.85 14-24.93 5.28 0.1336 15.88"  stroke-width="1.764"/><path d="m-365.6 525.1-0.5187-27.14"  stroke-width="1.235"/><path d="m-504 564.7 1.582-17.59 58.76-5.153-1.903 22.73"  stroke-width="1.235"/><path d="m-348 543.3 2.449 3.628 1.74 19.86-12.52 0.0614-0.125-2.125-58.44-7e-3 -0.0466 2.599-8.151 7e-3 -4.837-5.662 0.2071-26.58 3.131-30.21 15.38 4.184z"  stroke-width="1.764"/><path d="m-356.4 564.7-1.582-17.59-58.76-5.153 1.903 22.73"  stroke-width="1.235"/><path d="m-432.7 535h5.047"  stroke-width="1.764"/></g><g  ><g fill="none" stroke="#979797" stroke-width="3.587"><path d="m442.9 86.92c21.52 3.996 37.82 22.87 37.82 45.55 0 5.371-0.9139 10.53-2.595 15.33m-7.842 13.97c-8.496 10.4-21.42 17.03-35.89 17.03-14.38 0-27.24-6.555-35.74-16.84m-7.716-13.37c-1.862-5.019-2.88-10.45-2.88-16.12 0-23.05 16.84-42.18 38.89-45.74" /><g><path d="m434.9 71.19v15.85" /><path d="m395.6 155.1-13.68 8.014" /><path d="m474.2 155.1 13.68 8.014" /></g></g><g ></g><g fill="#f39745" ><g stroke-width="1.764"></g><g stroke-width="1.764"></g><g stroke-width="1.764"></g></g><g fill="#ff3ae1"  stroke-width="1.554"></g><g fill="#4df346" ><g stroke-width="1.661"></g></g><g fill="#f39745"  stroke-width="1.235"></g><g fill="#979797"  stroke-width="2.869"></g></g>
  </svg>
</svg>
