<svg xmlns="http://www.w3.org/2000/svg" viewBox="0 0 390 640" preserveAspectRatio="xMidYMid meet">
  <style>
    * { vector-effect: non-scaling-stroke; }
    path, rect, circle, ellipse, polygon, polyline, line {
      fill: none !important;
      stroke: #73f8ff !important;
      stroke-width: 2.25px !important;
      stroke-linecap: round;
      stroke-linejoin: round;
      opacity: 0.92;
    }
  </style>
  <svg x="0" y="0" width="870" height="640" viewBox="0 0 870 640" preserveAspectRatio="xMinYMin meet">

<g></g><g transform="translate(1240)"  fill="none"  ><path d="m-556.8 47.22-6.033 0.1758-12.15 7.814-12.56 26.38-26.88 93.07-24.14 90.03-22.32 112.8 27.68 71.91-0.0703 6.986-30.57 21.92-2.217 47.01 30.83 21.58 12.97 39.63 14.98 0.1699 36.71-22.96 13.76-0.0977 13.76 0.0977 36.71 22.96 14.98-0.1699 12.97-39.63 30.83-21.58-2.217-47.01-30.57-21.92-0.0703-6.986 27.68-71.91-22.32-112.8-24.14-90.03-26.88-93.07-12.56-26.38-12.15-7.814z"  stroke-width="1.764"/><path d="m-556.8 54.21c-4.914 0.02439-9.598 3.45-11.22 8.514l-20.79 68.5 1.783 11.08-6.023 28.2-8.241-0.3605-5.275 11.54-0.1388 32.48 3.18 9.334-11.49 73.51-9.332 0.2272 0.1441 157.4 67.41 0.126"  stroke-width="1.764"/><path d="m-606.6 181.7 15.78-1.909-2.263-9.273"  stroke-width="1.235"/><ellipse transform="matrix(-.9999 .01194 .01384 .9999 0 0)" cx="603.7" cy="189.7" rx="3.625" ry="4.192"  stroke-width="1.235"/><ellipse transform="matrix(-.9999 .0105 .01575 .9999 0 0)" cx="568.1" cy="81.55" rx="4.125" ry="4.192"  stroke-width="1.235"/><path d="m-571.7 82.54h9.766v9.921h-9.766z"  stroke-width="1.235"/><path d="m-588.9 131.2 17.22-6.391 14.8 0.1018"  stroke-width="1.235"/><ellipse transform="matrix(.9999 .01137 -.01454 .9999 0 0)" cx="-648.8" cy="517.5" rx="3.808" ry="4.192"  stroke-width="1.235"/><g stroke-width="1.235"><path d="m-662.1 500 11.67-0.6187v23.17l-12.46-3.712z" /><path d="m-629 445.5-24.72-64.98 28.89-0.1053" /><path d="m-624.3 431.5-4.695 5.344 0.2429 20.93 10.6 0.1162 0.0606-3.137" /><path d="m-625 303.6-17.77-0.0612-12.07 63.45 29.95 0.1053" /><path d="m-606.9 197.7-10.52-0.1862-17.17 67.32-7.655 35.96 17.57 0.017" /><path d="m-556.8 50.05-4.613 0.1936-8.912 5.901-11.68 24.21-27.4 94.15-3.527 7.598-3.419 12.79 9.618 0.1053" /><path d="m-597.8 136 9.558-0.2325" /><path d="m-582 80.35 8.668-0.2325" /><path d="m-664.7 492.3 30.33 0.0327" /><path d="m-619 297.4-0.1584 80.63 9.687 0.0819-7e-3 49.66-10.01 0.0809 0.1004 26.79" /><path d="m-615.1 297 8.193 0.214 13.54-18.51 17.95-101.4 18.54 0.0613" /><path d="m-611.3 274.6 3.98 12.63 13.97-8.55" /><path d="m-603.6 223.5 10.69-18.69 12.54-0.2879" /><path d="m-592.9 204.8-14.41 82.45" /><path d="m-619.2 372.7 15.18-0.0189-0.1844-65.73-14.57 0.0603" /><path d="m-571.6 124.8-6.843 40.67 3.107 11.82" /><path d="m-579.5 127.6-1.139 25.13-12.21 52.02" /><path d="m-565.6 92.31-6.098 32.52" /><path d="m-556.8 60.53-2.256-0.02871-1.693 1.591-3.569 20.42" /><path d="m-556.8 278.8-36.49-0.1088" /></g><path d="m-628.9 480.3h52.19l5.895 27.51v43.34h-58.09z"  stroke-width="1.764"/><path d="m-625.8 556h50.06l0.0735 10.73h-50.14z"  stroke-width="1.764"/><g stroke-width="1.235"><path d="m-622.2 551.4-0.0454 5.033" /><path d="m-579 551.2-0.0454 5.033" /><path d="m-585.4 480.6-0.0442 65.89 14.25 0.1415" /><path d="m-628.9 497.2 19.25 0.0669-0.0431 54.32" /><path d="m-628.3 493.2 36.62 0.0669-0.0431 57.44" /><path d="m-583.8 458h-8.835v8.767h8.835z" /><path d="m-579.9 488.7h-3.806v55.79h3.806z" /><path d="m-575 488.7h-2.869v55.79h3.806v-51.1z" /><path d="m-584.5 558.4h-29.31v5.04h29.31z" /><path d="m-629.2 502.5-11.63-0.0442v-1.591h-6.499v5.231h6.544v-1.414l11.58 0.0442z" /><path d="m-629.2 510.6-11.63-0.0442v-1.591h-6.499v5.231h6.544v-1.414l11.58 0.0442z" /><path d="m-635.3 546.9 0.6204-26.46m0.0539-2.298 0.1167-5.391m0.0502-2.166 0.1331-5.746m0.0585-2.385 0.9165-46.07" /><path d="m-629.2 518.2-11.63-0.0442v-1.591h-6.499v5.231h6.544v-1.414l11.58 0.0442z" /></g><ellipse transform="matrix(.9999 .01044 -.01584 .9999 0 0)" cx="-615.9" cy="473.2" rx="4.149" ry="4.192"  stroke-width="1.235"/><g stroke-width="1.235"><path d="m-617.5 460.5h-11.58v14.27h11.58z" /><path d="m-559.1 439.7h-6.71v12.56h6.71z" /><path d="m-556.8 425.7-7.15-0.2086-3.457-6.868-6.878-0.01 2.728 61.75 5.066 15.4 0.1061 63.43" /><path d="m-575.5 551.4 9.116 7.811 9.584 0.3536" /><path d="m-600 369.3 4.43 7.379-0.0735 103.5" /><path d="m-576.6 454.7-0.0759 25.67" /><path d="m-595.7 460.6-21.77-0.0759" /><path d="m-595.6 473.1-22.22-0.0759" /><path d="m-573.5 446.8-45.99-0.0759" /></g><g stroke-width="1.235"><path d="m-562.9 494.7h12.17v61.07h-12.17z" /><path d="m-565.3 395.7h16.92v15.64h-16.92z" /><path d="m-566.6 391.3h19.76l7.601 8.536v13.82h-7.139l-3.182 3.712h-13.35l-3.801-3.712h-7.669v-13.99z" /><path d="m-600 288.3h86.92v81.04h-86.92z" /><path d="m-565.3 154.5h16.92v15.64h-16.92z" /></g><g stroke-width="1.235"><path d="m-573.5 441.3-31.13-0.0236-2.624 1.99-12.01-0.0419" /><path d="m-556.8 388-17.37-0.018-10.26 11.48 0.0898 41.96" /><path d="m-556.8 376.8-38.68-0.0759" /></g><g stroke-width="1.764"><path d="m-599.7 317.3 38.44 9e-3" /><path d="m-599.7 330 38.44 9e-3" /><path d="m-599.7 343.8 38.44 9e-3" /><path d="m-599.7 357.1 38.44 9e-3" /><path d="m-607.2 318.3 5.351 9e-3" /><path d="m-607.2 331.6 5.351 9e-3" /><path d="m-607.2 344.9 5.351 9e-3" /><path d="m-607.2 357.2 5.351 9e-3" /><path d="m-607.2 390.6 5.351 9e-3" /><path d="m-607.2 405.3 5.351 9e-3" /><path d="m-607.2 420.2 5.351 9e-3" /></g><path d="m-512.8 307-87.22-0.1088"  stroke-width="1.235"/><g stroke-width="1.235"><path d="m-568.5 186h23.28v42.51h-23.28z" /><path d="m-561.3 94.96h8.965l4.861 28.01h-18.69z" /><path d="m-558.2 62.11h2.795l1.562 11.32h-5.92z" /></g><g stroke-width="1.235"><path d="m-556.8 262.4-11.84-0.0353-6.368-5.236 0.0876-40.3 6.474-7.75" /><path d="m-608.7 493.2 0.1439-12.89" /><path d="m-622.2 493.2 0.1439-12.89" /><path d="m-579.7 129.7-5.942 2.209-0.425 8.767 5.942-2.209z" /><path d="m-607.3 287.2-4.547 10" /><path d="m-575.2 105.7-0.0469 20.25" /><path d="m-577.2 112.7-0.0469 14.06" /><path d="m-573.2 115.4-0.0469 9.538" /></g><path d="m-556.8 54.21c4.914 0.02439 9.598 3.45 11.22 8.514l20.79 68.5-1.783 11.08 6.023 28.2 8.241-0.3605 5.275 11.54 0.1388 32.48-3.18 9.334 11.49 73.51 9.332 0.2272-0.1441 157.4-67.41 0.126"  stroke-width="1.764"/><path d="m-507.1 181.7-15.78-1.909 2.263-9.273"  stroke-width="1.235"/><ellipse transform="matrix(.9999 .01194 -.01384 .9999 0 0)" cx="-509.9" cy="203" rx="3.625" ry="4.192"  stroke-width="1.235"/><ellipse transform="matrix(.9999 .0105 -.01575 .9999 0 0)" cx="-545.5" cy="93.24" rx="4.125" ry="4.192"  stroke-width="1.235"/><path d="m-542 82.54h-9.766v9.921h9.766z"  stroke-width="1.235"/><path d="m-524.8 131.2-17.22-6.391-14.8 0.1018"  stroke-width="1.235"/><ellipse transform="matrix(-.9999 .01137 .01454 .9999 0 0)" cx="464.8" cy="504.8" rx="3.808" ry="4.192"  stroke-width="1.235"/><g stroke-width="1.235"><path d="m-451.6 500-11.67-0.6187v23.17l12.46-3.712z" /><path d="m-484.7 445.5 24.72-64.98-28.89-0.1053" /><path d="m-489.4 431.5 4.695 5.344-0.2429 20.93-10.6 0.1162-0.0606-3.137" /><path d="m-488.7 303.6 17.77-0.0612 12.07 63.45-29.95 0.1053" /><path d="m-506.8 197.7 10.52-0.1862 17.17 67.32 7.655 35.96-17.57 0.017" /><path d="m-556.8 50.05 4.613 0.1936 8.912 5.901 11.68 24.21 27.4 94.15 3.527 7.598 3.419 12.79-9.618 0.1053" /><path d="m-515.8 136-9.558-0.2325" /><path d="m-531.7 80.35-8.668-0.2325" /><path d="m-449 492.3-30.33 0.0327" /><path d="m-494.7 297.4 0.1584 80.63-9.687 0.0819 7e-3 49.66 10.01 0.0809-0.1004 26.79" /><path d="m-498.6 297-8.193 0.214-13.54-18.51-17.95-101.4-18.54 0.0613" /><path d="m-502.4 274.6-3.98 12.63-13.97-8.55" /><path d="m-510.1 223.5-10.69-18.69-12.54-0.2879" /><path d="m-520.8 204.8 14.41 82.45" /><path d="m-494.4 372.7-15.18-0.0189 0.1844-65.73 14.57 0.0603" /><path d="m-542 124.8 6.843 40.67-3.107 11.82" /><path d="m-534.2 127.6 1.139 25.13 12.21 52.02" /><path d="m-548.1 92.31 6.098 32.52" /><path d="m-556.8 60.53 2.256-0.02871 1.693 1.591 3.569 20.42" /><path d="m-556.8 278.8 36.49-0.1088" /></g><path d="m-484.8 480.3h-52.19l-5.895 27.51v43.34h58.09z"  stroke-width="1.764"/><path d="m-487.9 556h-50.06l-0.0735 10.73h50.14z"  stroke-width="1.764"/><g stroke-width="1.235"><path d="m-491.5 551.4 0.0454 5.033" /><path d="m-534.7 551.2 0.0454 5.033" /><path d="m-528.3 480.6 0.0442 65.89-14.25 0.1415" /><path d="m-484.8 497.2-19.25 0.0669 0.0431 54.32" /><path d="m-485.4 493.2-36.62 0.0669 0.0431 57.44" /><path d="m-529.8 457.7h8.835v8.767h-8.835z" /><path d="m-533.8 488.7h3.806v55.79h-3.806z" /><path d="m-538.7 488.7h2.869v55.79h-3.806v-51.1z" /><path d="m-529.2 558.4h29.31v5.04h-29.31z" /><path d="m-484.5 502.5 11.63-0.0442v-1.591h6.499v5.231h-6.544v-1.414l-11.58 0.0442z" /><path d="m-484.5 510.6 11.63-0.0442v-1.591h6.499v5.231h-6.544v-1.414l-11.58 0.0442z" /><path d="m-478.4 546.9-0.6204-26.46m-0.0539-2.298-0.1167-5.391m-0.0502-2.166-0.1331-5.746m-0.0585-2.385-0.9165-46.07" /><path d="m-484.5 518.2 11.63-0.0442v-1.591h6.499v5.231h-6.544v-1.414l-11.58 0.0442z" /></g><ellipse transform="matrix(-.9999 .01044 .01584 .9999 0 0)" cx="497.7" cy="461.6" rx="4.149" ry="4.192"  stroke-width="1.235"/><g stroke-width="1.235"><path d="m-496.2 460.5h11.58v14.27h-11.58z" /><path d="m-554.5 439.7h6.71v12.56h-6.71z" /><path d="m-556.8 425.7 7.15-0.2086 3.457-6.868 6.878-0.01-2.728 61.75-5.066 15.4-0.1061 63.43" /><path d="m-538.1 551.4-9.116 7.811-9.584 0.3536" /><path d="m-513.7 369.3-4.43 7.379 0.0735 103.5" /><path d="m-537.1 454.7 0.0759 25.67" /><path d="m-518 460.6 21.77-0.0759" /><path d="m-518.1 473.1 22.22-0.0759" /><path d="m-540.2 446.8 45.99-0.0759" /><path d="m-540.2 441.3 31.13-0.0236 2.624 1.99 12.01-0.0419" /><path d="m-556.8 388 17.37-0.018 10.26 11.48-0.0898 41.96" /><path d="m-556.8 376.8 38.68-0.0759" /></g><g stroke-width="1.764"><path d="m-514 317.3-38.44 9e-3" /><path d="m-514 330-38.44 9e-3" /><path d="m-514 343.8-38.44 9e-3" /><path d="m-514 357.1-38.44 9e-3" /><path d="m-506.5 318.3-5.351 9e-3" /><path d="m-506.5 331.6-5.351 9e-3" /><path d="m-506.5 344.9-5.351 9e-3" /><path d="m-506.5 357.2-5.351 9e-3" /><path d="m-506.5 390.6-5.351 9e-3" /><path d="m-506.5 405.3-5.351 9e-3" /><path d="m-506.5 420.2-5.351 9e-3" /></g><g stroke-width="1.235"><path d="m-556.8 262.4 11.84-0.0353 6.368-5.236-0.0876-40.3-6.474-7.75" /><path d="m-505 493.2-0.1439-12.89" /><path d="m-491.5 493.2-0.1439-12.89" /><path d="m-534 129.7 5.942 2.209 0.425 8.767-5.942-2.209z" /><path d="m-506.4 287.2 4.547 10" /><path d="m-538.5 105.7 0.0469 20.25" /><path d="m-536.5 112.7 0.0469 14.06" /><path d="m-540.5 115.4 0.0469 9.538" /><path d="m-563.9 79.24 13.87 0.0175" /><path d="m-568.9 96.93h-5.085v5.042h5.085z" /><path d="m-539.8 96.93h-5.085v5.042h5.085z" /></g><ellipse transform="matrix(.9999 .01044 -.01584 .9999 0 0)" cx="-591.5" cy="493.2" rx="3.282" ry="3.317"  stroke-width="1.235"/><ellipse transform="matrix(.9999 .01044 -.01584 .9999 0 0)" cx="-506.6" cy="492.4" rx="3.282" ry="3.317"  stroke-width="1.235"/></g><g transform="translate(1240)"  fill="none"  ><path d="m-1043 47.22-6.033 0.1758-12.15 7.814-12.56 26.38-26.88 93.07-24.14 90.03-22.32 112.8 27.68 71.91-0.07 6.986-30.57 21.92-2.217 47.01 30.83 21.58 12.97 39.63 14.98 0.1699 36.71-22.96 13.76-0.0977 13.76 0.0977 36.71 22.96 14.98-0.1699 12.97-39.63 30.83-21.58-2.217-47.01-30.57-21.92-0.0703-6.986 27.68-71.91-22.32-112.8-24.14-90.03-26.88-93.07-12.56-26.38-12.15-7.814z"  stroke-width="1.764"/><ellipse transform="matrix(.9999 .0105 -.01575 .9999 0 0)" cx="-1093" cy="589.8" rx="4.125" ry="4.192"  stroke-width="1.235"/><path d="m-1108 571.7h12.64v12.92h-12.64z"  stroke-width="1.235"/><ellipse transform="matrix(.9999 .01137 -.01454 .9999 0 0)" cx="-1138" cy="525.2" rx="3.808" ry="4.192"  stroke-width="1.235"/><path d="m-1151 505.7h11.67v12.92h-11.67z"  stroke-width="1.235"/><ellipse transform="matrix(.9999 .0105 -.01575 .9999 0 0)" cx="-1059" cy="75.93" rx="4.125" ry="4.192"  stroke-width="1.235"/><g stroke-width="1.235"><path d="m-1061 55.21 8.798 7.385-4.938 9.796-10.21-3.899z" /><path d="m-1095 155.5 33.56-44.21 7.639-38.13 8.177-17.58 2.776-0.04952" /><path d="m-1055 80.97-27.48 32.56" /><path d="m-1057 72.39-9.433 10.45-4.566 16.64" /><path d="m-1073 79.82 6.434 3.012" /><path d="m-1095 155.5 5.468 22.12-1.751 7.965-19.67 28.86" /><path d="m-1100 174.6 10.18 2.154" /></g><ellipse transform="matrix(.9756 .2195 -.2181 .9759 0 0)" cx="-1031" cy="418.9" rx="3.188" ry="4.192"  stroke-width="1.235"/><g stroke-width="1.235"><path d="m-1139 396.1 18.12-22.37 4.836 21.77 19.7-0.1935-13.08 69.06-9.402-14.97" /><path d="m-1128 282.3 11.25 8.012-2.725 35.74-24.86 39.81" /><path d="m-1117 290.3 22-99.28" /><path d="m-1152 525.3 24.81-7.086 0.3959-30.33 17.05-23.53" /><path d="m-1110 464.4 9.896 16.24-0.5346 54.62-16.67 23.83" /><path d="m-1121 373.7 19.14-74.41-8.292-3.918 5.882-29.93 9.296-11.26 11.09-0.1936" /><path d="m-1062 88.79-4.618 29.37" /></g><path d="m-1066 122.1h6.187v5.693h-6.187z"  stroke-width="1.235"/><path d="m-1072 182.5h13.52v21.25h-13.52z"  stroke-width="1.235"/><g stroke-width="1.764"><path d="m-1070 123-14.26 141.4 1.429 7.013-4.636 106.9-1.072 129.2-4.583 79.23" /><path d="m-1043 481.2-12.43-0.0473-10-46.72 0.2415-48.58-8.302 5.317-7.105 0.0477-2.824 3.812 0.033 31.25 3.071 57.8 0.1556 34.53-10.11 11.3" /><path d="m-1090 177.6 14.33-8.584" /></g><path d="m-1089 457.2-15.83-20.62"  stroke-width="1.235"/><path d="m-1089 498.8-11.28-18.19"  stroke-width="1.235"/><path d="m-1119 512.5h6.187v5.693h-6.187z"  stroke-width="1.235"/><g stroke-width="1.235"><path d="m-1081 208.8-10.21-1.041-4.453 43.7 10.21 1.041z" /><path d="m-1083 271.4-36.38 54.65" /><path d="m-1116 395.5 11.41-14.87 6.642-45.74-10.69-7.324" /><path d="m-1088 380.7-8.614 14.6" /><path d="m-1106 471.6 13.71-71.41 4.212-8.21" /><path d="m-1108 467.9 13.46-69.91 5.962-11.08" /><path d="m-1087 359.5 12.85-17.18 18.14-18.91 0.8092-43.87 4.627 0.0996 1.643 47.34 5.887 4e-3" /><path d="m-1050 288.4 7.248 0.0987" /><path d="m-1043 328.6-10.52 0.0534-16.92 16.37-0.08 27.9 6.495 0.0897 0.098-25.12 11.79-7.987 9.141-0.3383" /><path d="m-1065 393.3 7.832-0.1267 0.1219-40.15 13.79 0.07" /><path d="m-1064 373-1.166 12.83" /><path d="m-1083 421.3 10.38 8.789 0.031 13.51-9.041 8.927" /><path d="m-1073 521.2 0.3729-41.97 12.75-20.31" /></g><ellipse transform="matrix(.9999 .01049 -.01576 .9999 0 0)" cx="-1057" cy="522.3" rx="6.125" ry="6.221"  stroke-width="1.235"/><ellipse transform="matrix(.9999 .0105 -.01574 .9999 0 0)" cx="-1057" cy="522.3" rx="3.043" ry="3.095"  stroke-width="1.235"/><ellipse transform="matrix(.9999 .01049 -.01576 .9999 0 0)" cx="-1062" cy="538.1" rx="6.125" ry="6.221"  stroke-width="1.235"/><ellipse transform="matrix(.9999 .0105 -.01574 .9999 0 0)" cx="-1062" cy="538.1" rx="3.043" ry="3.095"  stroke-width="1.235"/><g stroke-width="1.235"><path d="m-1073 532.6-17.08 2.131" /><path d="m-1060 566 0.1111-18.6-21-0.1878-2.375 3.373-8.166 0.099" /><path d="m-1073 532.6-7.539 14.66" /><path d="m-1079 544.6 17.23-5.692 7.46-17.49 0.1396-15.95-18.41-6.86" /><path d="m-1053 440.1-2.691 41.07" /><path d="m-1043 440.1-9.738-0.0896-8.544-24.75 0.05-19 6.21 0.1192 1.216 15.04 10.81 0.0376" /></g><path d="m-1050 413.7h4.562v23.19h-4.562z"  stroke-width="1.235"/><g stroke-width="1.764"><path d="m-1056 357.3 5.849 9e-3" /><path d="m-1057 362.5 4.955 9e-3" /><path d="m-1057 367.9 4.955 9e-3" /><path d="m-1057 373.3 4.955 9e-3" /></g><path d="m-1081 550.9h13.61l-2.917 15.77h-7.778z"  stroke-width="1.235"/><path d="m-1079 210.7 9.383 11.29-0.094 13.26-14.9 18.84"  stroke-width="1.235"/><path d="m-1084 256.9 22.29 9e-3"  stroke-width="1.764"/><path d="m-1083 270 21.91 9e-3"  stroke-width="1.764"/><path d="m-1074 342.3-0.2119 30.54 3.668 0.0897"  stroke-width="1.235"/><ellipse transform="matrix(-.9999 .0105 .01575 .9999 0 0)" cx="992.9" cy="567.9" rx="4.125" ry="4.192"  stroke-width="1.235"/><path d="m-977.6 571.7h-12.64v12.92h12.64z"  stroke-width="1.235"/><ellipse transform="matrix(-.9999 .01137 .01454 .9999 0 0)" cx="947.6" cy="501.5" rx="3.808" ry="4.192"  stroke-width="1.235"/><path d="m-934.4 505.7h-11.67v12.92h11.67z"  stroke-width="1.235"/><ellipse transform="matrix(-.9999 .0105 .01575 .9999 0 0)" cx="1026" cy="54.03" rx="4.125" ry="4.192"  stroke-width="1.235"/><g stroke-width="1.235"><path d="m-1025 55.21-8.798 7.385 4.938 9.796 10.21-3.899z" /><path d="m-990.7 155.5-33.56-44.21-7.639-38.13-8.177-17.58-2.776-0.04952" /><path d="m-1030 80.97 27.48 32.56" /><path d="m-1029 72.39 9.433 10.45 4.566 16.64" /><path d="m-1013 79.82-6.434 3.012" /><path d="m-990.7 155.5-5.469 22.12 1.751 7.965 19.67 28.86" /><path d="m-985.7 174.6-10.18 2.154" /></g><ellipse transform="matrix(-.9756 .2195 .2181 .9759 0 0)" cx="1004" cy="-38.85" rx="3.188" ry="4.192"  stroke-width="1.235"/><g stroke-width="1.235"><path d="m-946.3 396.1-18.12-22.37-4.836 21.77-19.7-0.1935 13.08 69.06 9.402-14.97" /><path d="m-957.8 282.3-11.25 8.012 2.725 35.74 24.86 39.81" /><path d="m-969 290.3-22-99.28" /><path d="m-933.6 525.3-24.81-7.086-0.3959-30.33-17.05-23.53" /><path d="m-975.8 464.4-9.896 16.24 0.5346 54.62 16.67 23.83" /><path d="m-964.4 373.7-19.14-74.41 8.292-3.918-5.882-29.93-9.296-11.26-11.09-0.1936" /><path d="m-1024 88.79 4.618 29.37" /></g><path d="m-1020 122.1h-6.187v5.693h6.187z"  stroke-width="1.235"/><path d="m-1014 182.5h-13.52v21.25h13.52z"  stroke-width="1.235"/><g stroke-width="1.764"><path d="m-1015 123 14.26 141.4-1.429 7.013 4.636 106.9 1.072 129.2 4.583 79.23" /><path d="m-1043 481.2 12.43-0.0473 10-46.72-0.2415-48.58 8.302 5.317 7.105 0.0477 2.824 3.812-0.033 31.25-3.071 57.8-0.1556 34.53 10.11 11.3" /><path d="m-996.2 177.6-14.33-8.584" /></g><path d="m-997 457.2 15.83-20.62"  stroke-width="1.235"/><path d="m-997 498.8 11.28-18.19"  stroke-width="1.235"/><path d="m-966.7 512.5h-6.187v5.693h6.187z"  stroke-width="1.235"/><g stroke-width="1.235"><path d="m-1004 208.8 10.21-1.041 4.453 43.7-10.21 1.041z" /><path d="m-1003 271.4 36.38 54.65" /><path d="m-969.2 395.5-11.41-14.87-6.642-45.74 10.69-7.324" /><path d="m-997.5 380.7 8.614 14.6" /><path d="m-980 471.6-13.71-71.41-4.212-8.21" /><path d="m-978 467.9-13.46-69.91-5.962-11.08" /><path d="m-998.9 358.7-12.6-16.64-18.39-18.65-0.8092-43.87-4.627 0.0996-1.643 47.34-5.887 4e-3" /><path d="m-1036 288.4-7.248 0.0987" /><path d="m-1043 328.6 10.52 0.0534 16.92 16.37 0.08 27.9-6.495 0.0897-0.098-25.12-11.79-7.987-9.141-0.3383" /><path d="m-1021 393.3-7.832-0.1267-0.1219-40.15-13.79 0.07" /><path d="m-1022 373 1.166 12.83" /><path d="m-1002 421.3-10.38 8.789-0.031 13.51 9.041 8.927" /><path d="m-1012 521.2-0.3729-41.97-12.75-20.31" /></g><ellipse transform="matrix(-.9999 .01049 .01576 .9999 0 0)" cx="1028" cy="500.4" rx="6.125" ry="6.221"  stroke-width="1.235"/><ellipse transform="matrix(-.9999 .0105 .01574 .9999 0 0)" cx="1028" cy="500.4" rx="3.043" ry="3.095"  stroke-width="1.235"/><ellipse transform="matrix(-.9999 .01049 .01576 .9999 0 0)" cx="1023" cy="516.2" rx="6.125" ry="6.221"  stroke-width="1.235"/><ellipse transform="matrix(-.9999 .0105 .01574 .9999 0 0)" cx="1023" cy="516.2" rx="3.043" ry="3.095"  stroke-width="1.235"/><g stroke-width="1.235"><path d="m-1012 532.6 17.08 2.131" /><path d="m-1026 566-0.1111-18.6 21-0.1878 2.375 3.373 8.166 0.099" /><path d="m-1012 532.6 7.539 14.66" /><path d="m-1006 544.6-17.23-5.692-7.46-17.49-0.1395-15.95 18.41-6.86" /><path d="m-1033 440.1 2.691 41.07" /><path d="m-1043 440.1 9.738-0.0896 8.544-24.75-0.05-19-6.21 0.1192-1.216 15.04-10.81 0.0376" /></g><path d="m-1035 413.7h-4.562v23.19h4.562z"  stroke-width="1.235"/><g stroke-width="1.764"><path d="m-1029 357.3-5.849 9e-3" /><path d="m-1029 362.5-4.955 9e-3" /><path d="m-1029 367.9-4.955 9e-3" /><path d="m-1029 373.3-4.955 9e-3" /></g><path d="m-1005 550.9h-13.61l2.917 15.77h7.778z"  stroke-width="1.235"/><path d="m-1007 210.7-9.383 11.29 0.094 13.26 14.9 18.84"  stroke-width="1.235"/><path d="m-1002 256.9-22.29 9e-3"  stroke-width="1.764"/><path d="m-1002 270-21.91 9e-3"  stroke-width="1.764"/><path d="m-1011 342-0.033 30.79-3.668 0.0897"  stroke-width="1.235"/><path d="m-1054 536.7h21.69v20.32h-21.69z"  stroke-width="1.235"/><path d="m-1062 484h38.69v16.69h-38.69z"  stroke-width="1.235"/><path d="m-1060 165.5 34.63 9e-3"  stroke-width="1.764"/></g><g  ><g fill="none" stroke="#979797" stroke-width="3.587"><path d="m442.9 86.92c21.52 3.996 37.82 22.87 37.82 45.55 0 5.371-0.9139 10.53-2.595 15.33m-7.842 13.97c-8.496 10.4-21.42 17.03-35.89 17.03-14.38 0-27.24-6.555-35.74-16.84m-7.716-13.37c-1.862-5.019-2.88-10.45-2.88-16.12 0-23.05 16.84-42.18 38.89-45.74" /><g><path d="m434.9 71.19v15.85" /><path d="m395.6 155.1-13.68 8.014" /><path d="m474.2 155.1 13.68 8.014" /></g></g><g ><g></g></g><g fill="#4df346" ><g stroke-width="1.661"></g></g><g fill="#f39745"  stroke-width="1.764"></g><g fill="#ff3ae1"  stroke-width="1.497"></g><g fill="#f39745" ><g stroke-width="1.235"></g><g stroke-width="1.764"></g></g><g fill="#979797"  stroke-width="2.869"></g><g ></g></g>
  </svg>
</svg>
