<svg xmlns="http://www.w3.org/2000/svg" viewBox="0 0 390 640" preserveAspectRatio="xMidYMid meet">
  <style>
    * { vector-effect: non-scaling-stroke; }
    path, rect, circle, ellipse, polygon, polyline, line {
      fill: none !important;
      stroke: #73f8ff !important;
      stroke-width: 2.25px !important;
      stroke-linecap: round;
      stroke-linejoin: round;
      opacity: 0.92;
    }
  </style>
  <svg x="0" y="0" width="870" height="640" viewBox="0 0 870 640" preserveAspectRatio="xMinYMin meet">

<g transform="matrix(.7604 0 0 .7602 1147 47.98)"  fill="none"  ><path d="m-1239 72.7-15.65 0.05664-6.66 40.26-0.127 13.65 6.764-2.225 15.68 0.1328 15.68-0.1328 6.764 2.225-0.1269-13.65-6.66-40.26z"  stroke-width="1.624"/><path d="m-1257 70.43-9.144 48.05-9.051 0.2012-22.58 35.62-1.33 68.11-17.21 23.14-11.18 0.7363-92.01 51.04-4.391 6.18 0.035 88.04 69.7-1.506 10.59 37.88-8 40.67 0.2519 5.387-14.1 32.68 0.252 40.96 10.56 0.0684 0.3184 5.686 59.58 115.8 10.55 0.8867 10.33-77.49 3.324 73.63 6.283 25.28 24.9-0.168 24.9 0.168 6.283-25.28 3.324-73.63 10.33 77.49 10.55-0.8867 59.58-115.8 0.3183-5.686 10.56-0.0684 0.2519-40.96-14.1-32.68 0.252-5.387-8.056-40.67 10.65-37.88 69.7 1.506 0.035-88.04-4.391-6.18-92.01-51.04-11.18-0.7363-17.21-23.14-1.33-68.11-22.58-35.62-9.051-0.2012-9.145-48.05-17.68 0.1992z"  stroke-width="2.32"/><g stroke-width="1.624"><path d="m-1255 72.75 4.302 12.28-4.326 39.41" /><path d="m-1420 390.9 0.063-50.61 64.93-34.39-0.022-29.13 19.82 18.56 18.16-1.906" /><path d="m-1239 310.4-4.746 0.01-0.034 3.217-20.4 0.1674-0.088-3.352-5.385 0.0778-3.669 1.175-9.735 13.14-22.09 5.125-10.95-25.43 19.32-42.42 26.97-20.72 30.82 0.2009" /><path d="m-1270 310.6-0.1372-22.08-11.79-10.49 0.021-16.97 8.526-11.26 34.06-0.1915" /><path d="m-1262 126.7-11.94 4.019" /><path d="m-1239 159.1-26.76 2e-3 -10.5-19.99" /><path d="m-1266 159.1-1.792 21.35" /></g><path d="m-1414 356.1h12.61v17.04h-12.61z"  stroke-width="1.624"/><ellipse transform="matrix(.9993 -.03691 .03599 .9994 0 0)" cx="-1374" cy="292.7" rx="4.1" ry="4.923"  stroke-width="1.624"/><path d="m-1368 336.9h11.36v12.54h-11.36z"  stroke-width="1.624"/><ellipse transform="matrix(.9992 -.04071 .03263 .9995 0 0)" cx="-1335" cy="489.3" rx="3.718" ry="4.923"  stroke-width="1.624"/><path d="m-1323 537.1h10.3v12.54h-10.3z"  stroke-width="1.624"/><path d="m-1247 139.5h15.11v13.24h-15.11z"  stroke-width="1.624"/><path d="m-1244 310.5-0.1455-32.17c-0.045-5.153-2.689-13.84-10.35-13.92-7.666-0.0811-9.803 8.8-9.832 13.81l-0.1335 32.32"  stroke-width="1.624"/><path d="m-1227 92.19-24.1 4e-6"  stroke-width="1.624"/><path d="m-1217 113.7-9.083-10.94-26.62 1e-5 -9.062 10.25"  stroke-width="1.624"/><path d="m-1255 163.9h31.36v20.37h-31.36z"  stroke-width="1.624"/><path d="m-1420 340.3 0.1264-35.81 92.29-51.11 10.98-0.5441"  stroke-width="1.624"/><path d="m-1254 564.3h28.17l-4.293 32.33h-19.59z"  stroke-width="1.624"/><g stroke-width="1.624"><path d="m-1262 123.7-9.091 0.257-19.72 52.25-0.9359 21.27-0.031 36.87" /><path d="m-1292 198.1 13.19-30.3 10.86 12.64 2.194 2.019 10.54 6e-3" /><path d="m-1354 549.6 27.37 0.4075 0.3864-45.97-20.87-30-3.947-0.0855" /><path d="m-1347 474.1-1.771 75.34" /></g><path d="m-1246 196.5h12.32v10.77h-12.32z"  stroke-width="1.624"/><path d="m-1316 304.6 0.104-59.01 17.07-10.77 20.41-1.085 8.715 7.731"  stroke-width="1.624"/><path d="m-1270 241.4-46.19 4.128"  stroke-width="1.624"/><path d="m-1316 304.6-27.15 123.3"  stroke-width="1.624"/><path d="m-1419 385.4 64.89-1.995-0.011-28.43 4.581-5.014 0.2402-16.22-5.306-5.683 0.1766-18.92 12.27 11.99-0.035 8.273 16.99 16.07"  stroke-width="1.624"/><path d="m-1347 414.8 4.591-2.691-0.122-82.77"  stroke-width="1.624"/><path d="m-1274 592.6-0.7524-236.7-7.851 38.86 0.6769 84.06-1.519 121.1-3.21 7.495-1.023 62.46"  stroke-width="1.624"/><path d="m-1338 486.5 34-149.9 20.6-5.742 9.451-0.6112-0.6243 25.71"  stroke-width="1.624"/><path d="m-1283 330.8 0.027-5.919"  stroke-width="1.624"/><path d="m-1266 182.4-1.813 59.18"  stroke-width="1.624"/><g stroke-width="1.624"><path d="m-1239 216.7-27.2-0.0884" /><path d="m-1255 216.5 0.1187-32.18" /><path d="m-1253 566h-15.5l-5.503 4.419" /><path d="m-1249 653.1v-56.4" /><path d="m-1245 653.1v-56.4" /><path d="m-1249 605.6h-16l-8.013-2.625" /></g><path d="m-1271 666.2 4.432-12.66 0.8921-47.92-3.3-39.6-0.1394-147.8 5.363-33.43-0.092-71.2"  stroke-width="1.624"/><g stroke-width="1.624"><path d="m-1287 615.2-5.441-0.1942-18.32-37.78 0.2568-77.31 7.843-14.3 20.57 9e-3" /><path d="m-1310 639.3 6.559-18.44-37.56-70.53" /><path d="m-1282 427.8-30.44 1.056-11.06-4.785" /></g><g stroke-width="1.624"><path d="m-1283 394.8-34.93 1.241" /><path d="m-1311 577.2-11.05 9.652" /><path d="m-1283 592-20.24-0.1596" /><path d="m-1282 529.4-27.82-0.1596" /><path d="m-1283 500.1-27.82-0.1596" /></g><path d="m-1310 432h23.28v17.41l-4.596 9.097h-18.68z"  stroke-width="1.624"/><path d="m-1325 472.5 1.73-7.006 11.22 4.375-1.73 7.006z"  stroke-width="1.624"/><path d="m-1328 488.4 1.73-7.006 11.22 4.375-1.73 7.006z"  stroke-width="1.624"/><path d="m-1258 420.2 3.598-33.2-0.4525-73.43"  stroke-width="1.624"/><path d="m-1247 657.8h15.64v17.25h-15.64z"  stroke-width="1.624"/><path d="m-1294 315.1 6.11-8.518 5.617 5.242-5.933 8.695z"  stroke-width="1.624"/><path d="m-1355 276.8 0.027-8.232"  stroke-width="1.624"/><g stroke-width="1.624"><path d="m-1282 278-28.3 40.56" /><path d="m-1224 72.75-4.302 12.28 4.326 39.41" /><path d="m-1059 390.9-0.063-50.61-64.93-34.39 0.022-29.13-19.82 18.56-18.16-1.906" /><path d="m-1239 310.4 4.746 0.01 0.034 3.217 20.4 0.1674 0.088-3.352 5.385 0.0778 3.669 1.175 9.735 13.14 22.09 5.125 10.95-25.43-19.32-42.42-26.97-20.72-30.82 0.2009" /><path d="m-1209 310.6 0.1372-22.08 11.79-10.49-0.021-16.97-8.526-11.26-34.06-0.1915" /><path d="m-1217 126.7 11.94 4.019" /><path d="m-1239 159.1 26.76 2e-3 10.5-19.99" /><path d="m-1213 159.1 1.792 21.35" /></g><path d="m-1065 356.1h-12.61v17.04h12.61z"  stroke-width="1.624"/><ellipse transform="matrix(-.9993 -.03691 -.03599 .9994 0 0)" cx="1104" cy="384.2" rx="4.1" ry="4.923"  stroke-width="1.624"/><path d="m-1111 336.9h-11.36v12.54h11.36z"  stroke-width="1.624"/><ellipse transform="matrix(-.9992 -.04071 -.03263 .9995 0 0)" cx="1142" cy="590.2" rx="3.718" ry="4.923"  stroke-width="1.624"/><path d="m-1155 537.1h-10.3v12.54h10.3z"  stroke-width="1.624"/><g stroke-width="1.624"><path d="m-1235 310.5 0.1455-32.17c0.045-5.153 2.689-13.84 10.35-13.92 7.666-0.0811 9.803 8.8 9.832 13.81l0.1335 32.32" /><path d="m-1059 340.3-0.1264-35.81-92.29-51.11-10.98-0.5441" /><path d="m-1217 123.7 9.091 0.257 19.72 52.25 0.9359 21.27 0.031 36.87" /><path d="m-1187 198.1-13.19-30.3-10.86 12.64-2.194 2.019-10.54 6e-3" /><path d="m-1125 549.6-27.37 0.4075-0.3864-45.97 20.87-30 3.947-0.0855" /><path d="m-1131 474.1 1.771 75.34" /><path d="m-1162 304.6-0.104-59.01-17.07-10.77-20.41-1.085-8.715 7.731" /></g><path d="m-1209 241.4 46.19 4.128"  stroke-width="1.624"/><path d="m-1162 304.6 27.15 123.3"  stroke-width="1.624"/><path d="m-1060 385.4-64.89-1.995 0.011-28.43-4.581-5.014-0.2402-16.22 5.306-5.683-0.1766-18.92-12.27 11.99 0.035 8.273-16.99 16.07"  stroke-width="1.624"/><path d="m-1132 414.8-4.591-2.691 0.122-82.77"  stroke-width="1.624"/><path d="m-1205 592.6 0.7524-236.7 7.851 38.86-0.6769 84.06 1.519 121.1 3.21 7.495 1.023 62.46"  stroke-width="1.624"/><path d="m-1141 486.5-34-149.9-20.6-5.742-9.451-0.6112 0.6243 25.71"  stroke-width="1.624"/><path d="m-1195 330.8-0.027-5.919"  stroke-width="1.624"/><path d="m-1213 182.4 1.813 59.18"  stroke-width="1.624"/><g stroke-width="1.624"><path d="m-1239 216.7 27.2-0.0884" /><path d="m-1224 216.5-0.1187-32.18" /><path d="m-1226 566h15.5l5.503 4.419" /><path d="m-1230 653.1v-56.4" /><path d="m-1234 653.1v-56.4" /><path d="m-1230 605.6h16l8.013-2.625" /></g><path d="m-1208 666.2-4.432-12.66-0.8921-47.92 3.3-39.6 0.1394-147.8-5.363-33.43 0.092-71.2"  stroke-width="1.624"/><g stroke-width="1.624"><path d="m-1192 615.2 5.441-0.1942 18.32-37.78-0.2568-77.31-7.843-14.3-20.57 9e-3" /><path d="m-1169 639.3-6.559-18.44 37.56-70.53" /><path d="m-1196 427.8 30.44 1.056 11.06-4.785" /></g><g stroke-width="1.624"><path d="m-1196 394.8 34.93 1.241" /><path d="m-1168 577.2 11.05 9.652" /><path d="m-1195 592 20.24-0.1596" /><path d="m-1196 529.4 27.82-0.1596" /><path d="m-1196 500.1 27.82-0.1596" /></g><path d="m-1168 432h-23.28v17.41l4.596 9.097h18.68z"  stroke-width="1.624"/><path d="m-1154 472.5-1.73-7.006-11.22 4.375 1.73 7.006z"  stroke-width="1.624"/><path d="m-1150 488.4-1.73-7.006-11.22 4.375 1.73 7.006z"  stroke-width="1.624"/><path d="m-1221 420.2-3.598-33.2 0.4525-73.43"  stroke-width="1.624"/><path d="m-1185 315.1-6.11-8.518-5.617 5.242 5.933 8.695z"  stroke-width="1.624"/><path d="m-1124 276.8-0.027-8.232"  stroke-width="1.624"/><path d="m-1197 278 28.3 40.56"  stroke-width="1.624"/><g stroke-width="1.624"><path d="m-1224 393h-30.98" /><path d="m-1248 316.9h17.24v68.93h-17.24z" /><path d="m-1210 420.7h-59.5" /><path d="m-1210 445.1h-58.73" /><path d="m-1210 498.1h-58.73" /><path d="m-1210 550.3h-58.73" /><path d="m-1213 653.5h-53.45" /><path d="m-1248 426.9h17.24v9.428h-17.24z" /></g><path d="m-1248 447.9h17.24v45.43h-17.24z"  stroke-width="1.624"/><path d="m-1249 517.5h19.36v12.26h-19.36z"  stroke-width="1.624"/><path d="m-1347 415.9v15.62c-4.05 2.243-8.204 2.582-12.52 0v-30.12c2.443-1.703 5.615-2.181 7.802-2.184"  stroke-width="1.624"/><path d="m-1348 452.5h-12.12v12.36l4.681 18.11"  stroke-width="1.624"/><g stroke-width="1.624"><path d="m-1350 459.4-10.36 0.0148" /><path d="m-1351 464.8-9.49 0.0148" /><path d="m-1357 400.3-4.785-9.896" /><path d="m-1360 452.5 3.102-19.84" /></g><path d="m-1132 415.9v15.62c4.05 2.243 8.204 2.582 12.52 0v-30.12c-2.443-1.703-5.615-2.181-7.802-2.184"  stroke-width="1.624"/><path d="m-1131 452.5h12.12v12.36l-4.681 18.11"  stroke-width="1.624"/><g stroke-width="1.624"><path d="m-1129 459.4 10.36 0.0148" /><path d="m-1128 464.8 9.49 0.0148" /><path d="m-1121 400.3 4.785-9.896" /><path d="m-1118 452.5-3.102-19.84" /></g></g><g transform="matrix(.7604 0 0 .7602 985.1 47.98)"  fill="none"   stroke-width="1.315"><g stroke-width="1.624"><path d="m-422.2 210.6-11.7 0.0475-10.37-2.504-21.2 0.0742-3.385 4.681-0.1029 15.59-18.69 25.02-0.284 161.7 21.15 17.03 9.18 0.0264" /><path d="m-422.2 157.9-18.1 0.0425-3.913 3.961-3.46 46.42" /><path d="m-434.4 93.47h24.19l3.176 34.71-5.845 1.691-4.081 8.457h-10.69l-4.042-8.554-5.884-1.594z" /></g><g stroke-width="1.624"><path d="m-437.5 128.2-12.32 0.8405-8.365 15.4-3.166 63.86" /><path d="m-496.8 391.1 0.9695-135.2 18.55-24.98 0.2765-13.85 7.081-6.984 5.977-68.47 10.9-16.7 3.518 0.0749 0.4536-4.405" /><path d="m-598.7 393 0.1263-84.22 89.81-50.8 5.065-0.8372" /><path d="m-496.8 335-7.308-5.393 0.3633-76.35 4.537-5.557" /></g><ellipse transform="matrix(.9993 -.03691 .03599 .9994 0 0)" cx="-595.3" cy="301.5" rx="4.1" ry="4.923"  stroke-width="1.624"/><path d="m-589.7 316.9h11.36v12.54h-11.36z"  stroke-width="1.624"/><g stroke-width="1.624"><path d="m-563.3 392.7 0.1263-94.63 44.58-10.91 2.67 3.381 11.7-0.1907" /><path d="m-555.3 320.4 17.43-3.898v69.78l-17.43-1.403z" /><path d="m-529.2 308.4 2.388-4.787 11.67 12.59v20.77l3.194 4.708 0.1764 38.81-4.633 0.621-10.72 0.4117-2.076-2.43z" /></g><g stroke-width="1.624"><path d="m-527.4 289.4-10.44 27.12" /><path d="m-563.3 363.7-34.92 0.3898" /><path d="m-563.3 369.9-34.92 0.3898" /></g><path d="m-439.9 72.55-9.145 48.05-9.051 0.2012-22.58 35.62-1.33 68.11-17.21 23.14-11.18 0.7363-92.01 51.04-4.391 6.18 0.0352 88.04 69.7-1.506 40.29-1.016-0.2383 26.82 21.99 15.93 8.434 198.6 9.861 16.63 3.324 19.19 6.283 25.28 24.9-0.168 24.9 0.168 6.283-25.28 3.324-19.19 9.861-16.63 8.434-198.6 21.99-15.93-0.2383-26.82 40.29 1.016 69.7 1.506 0.0352-88.04-4.391-6.18-92.01-51.04-11.18-0.7363-17.21-23.14-1.33-68.11-22.58-35.62-9.051-0.2012-9.145-48.05-17.68 0.1992z"  stroke-width="2.32"/><ellipse transform="matrix(.6862 .7275 -.7184 .6956 0 0)" cx="-230.7" cy="367.6" rx="4.099" ry="4.065"  stroke-width="1.624"/><ellipse transform="matrix(-.6862 .7275 .7184 .6956 0 0)" cx="356.9" cy="-246.8" rx="4.099" ry="4.065"  stroke-width="1.624"/><path d="m-428.2 82.01h11.8v11.47h-11.8z"  stroke-width="1.624"/><g stroke-width="1.624"><path d="m-386.8 331.8h-70.68v72h70.68z" /><path d="m-394.6 238.5h-55.18v84.75h55.18z" /><path d="m-422.3 228.3-33.09-0.1293-5.063 6.511 0.5447 64.42-16.11 23.77-0.4564 92.31 7.118 6.283 11.38 0.1126" /><path d="m-386.8 418.5h-70.68v30.5h70.68z" /><path d="m-470.5 234.7h10.11v12.54h-10.11z" /><path d="m-470.5 269.9h10.11v12.54h-10.11z" /><path d="m-476 322.9-11.78 0.1315-8.639 1.258" /><path d="m-422.3 599.3-24.29 1e-5 -13.28 24.73-8.107-30.91" /><path d="m-446.5 599.3-11.02-50.7-9.04-94.27-0.1708-22.16" /><path d="m-470 553.9 12.46-5.267" /><path d="m-474.5 455.1 7.911-0.696" /><path d="m-466.6 454.4 44.35-0.1513" /><path d="m-459.8 624.1 3.033 2.156 0.0195 22.92" /></g><path d="m-399.2 636h-19.56l0.0303 13.03c-1.973 1.607-5.539 1.38-6.869-0.0337l0.0156-12.99h-19.79v22.61l7.02 27.16h32.14l7.02-27.24z"  stroke-width="1.624"/><path d="m-399.1 653.2-46.24 0.0148"  stroke-width="1.624"/><path d="m-399.2 658.6-46.24 0.0148"  stroke-width="1.624"/><path d="m-399.6 636-7.19-6.625-11.41-4.704 0.044-20.28-7.979-0.0442-0.1768 20.37-11.12 4.384-7.966 6.9"  stroke-width="1.624"/><g stroke-width="1.624"><path d="m-422.2 685.8-0.013-27.03" /><path d="m-415.1 685.8 1.932-27.03" /><path d="m-409.5 685.8 3.434-27.03" /><path d="m-429.4 685.8-1.932-27.03" /><path d="m-435 685.8-3.434-27.03" /><path d="m-425.9 644.5-19.49-0.0294" /><path d="m-436 653.2 0.0347-8.782" /><path d="m-441.2 653.2 0.0347-8.813" /><path d="m-403.2 653.2 0.0331-8.734" /><path d="m-408.3 653.5-0.0332-8.911" /><path d="m-399.2 644.5-19.49-0.0294" /><path d="m-426.3 624.7 0.6428 11.31" /><path d="m-418.2 624.7-0.6453 11.35" /></g><path d="m-432.1 602.2h-12.52v22.28c4.05 1.66 8.204 1.91 12.52 0z"  stroke-width="1.624"/><path d="m-399.9 601.9h-12.52v22.28c4.05 1.66 8.204 1.91 12.52 0z"  stroke-width="1.624"/><g transform="translate(-101.7 -193.8)"  ><path d="m-399.2 636h-19.56l0.0303 13.03c-1.973 1.607-5.539 1.38-6.869-0.0337l0.0156-12.99h-19.79v22.61l7.02 27.16h32.14l7.02-27.24z"  stroke-width="1.624"/><path d="m-399.1 653.2-46.24 0.0148"  stroke-width="1.624"/><path d="m-399.2 658.6-46.24 0.0148"  stroke-width="1.624"/><path d="m-399.6 636-7.19-6.625-11.41-4.704 0.044-20.28-7.979-0.0442-0.1768 20.37-11.12 4.384-7.966 6.9"  stroke-width="1.624"/><g stroke-width="1.624"><path d="m-422.2 685.8-0.013-27.03" /><path d="m-415.1 685.8 1.932-27.03" /><path d="m-409.5 685.8 3.434-27.03" /><path d="m-429.4 685.8-1.932-27.03" /><path d="m-435 685.8-3.434-27.03" /><path d="m-425.9 644.5-19.49-0.0294" /><path d="m-436 653.2 0.0347-8.782" /><path d="m-441.2 653.2 0.0347-8.813" /><path d="m-403.2 653.2 0.0331-8.734" /><path d="m-408.3 653.5-0.0332-8.911" /><path d="m-399.2 644.5-19.49-0.0294" /><path d="m-426.3 624.7 0.6428 11.31" /><path d="m-418.2 624.7-0.6453 11.35" /></g><path d="m-432.1 602.2h-12.52v22.28c4.05 1.66 8.204 1.91 12.52 0z"  stroke-width="1.624"/><path d="m-399.9 601.9h-12.52v22.28c4.05 1.66 8.204 1.91 12.52 0z"  stroke-width="1.624"/></g><path d="m-550.6 392.5 1.856 13.42h49.38l2.606-14.78"  stroke-width="1.624"/><path d="m-539.1 492.1-5.864 13.59 0.252 40.96 10.56 0.0684 0.3184 5.686 59.58 115.8 10.55 0.8867 3.444-25.84"  stroke-width="2.32"/><path d="m-484.3 427.8-9.771 39.23-2.962 111.9 22.79 89.33"  stroke-width="1.624"/><path d="m-527 491.7 0.1313 55.17-7.28-0.1367"  stroke-width="1.624"/><g stroke-width="1.624"><path d="m-470.5 536.6-14.76-0.0833-10.76 10.12-30.77 0.2104" /><path d="m-497 578.9-36.79-26.49" /><path d="m-467.9 593.2-29.09-14.28" /><path d="m-548.8 406 2.488 2.439" /><path d="m-546.3 430.7-0.7843 11.58" /><path d="m-499.4 406-2.125 2.189" /><path d="m-501.5 430.4 0.626 11.83" /></g><path d="m-493 420.5-1.015 46.51"  stroke-width="1.624"/><g stroke-width="1.624"><path d="m-467.7 611.9-20.89 0.0764" /><path d="m-422.3 689-21.11-0.4001-5.394-23.07-1.051-53.68 5.175-9.699" /><path d="m-422.3 210.6 11.7 0.0475 10.37-2.504 21.2 0.0742 3.385 4.681 0.1029 15.59 18.69 25.02 0.284 161.7-21.15 17.03-9.18 0.0264" /><path d="m-422.3 157.9 18.1 0.0425 3.913 3.961 3.46 46.42" /></g><g stroke-width="1.624"><path d="m-406.9 128.2 12.32 0.8405 8.365 15.4 3.166 63.86" /><path d="m-347.6 391.1-0.9695-135.2-18.55-24.98-0.2765-13.85-7.081-6.984-5.977-68.47-10.9-16.7-3.518 0.0749-0.4536-4.405" /><path d="m-245.8 393-0.1263-84.22-89.81-50.8-5.065-0.8372" /><path d="m-347.6 335 7.308-5.393-0.3633-76.35-4.537-5.557" /></g><ellipse transform="matrix(-.9993 -.03691 -.03599 .9994 0 0)" cx="248.6" cy="332.7" rx="4.1" ry="4.923"  stroke-width="1.624"/><path d="m-254.7 316.9h-11.36v12.54h11.36z"  stroke-width="1.624"/><g stroke-width="1.624"><path d="m-281.1 392.7-0.1263-94.63-44.58-10.91-2.67 3.381-11.7-0.1907" /><path d="m-289.1 320.4-17.43-3.898v69.78l17.43-1.403z" /><path d="m-315.2 308.4-2.388-4.787-11.67 12.59v20.77l-3.194 4.708-0.1764 38.81 4.633 0.621 10.72 0.4117 2.076-2.43z" /></g><g stroke-width="1.624"><path d="m-317 289.4 10.44 27.12" /><path d="m-281.2 363.7 34.92 0.3898" /><path d="m-281.2 369.9 34.92 0.3898" /><path d="m-422.2 228.3 33.09-0.1293 5.063 6.511-0.5447 64.42 16.11 23.77 0.4564 92.31-7.118 6.283-11.38 0.1126" /><path d="m-373.9 234.7h-10.11v12.54h10.11z" /><path d="m-373.9 269.9h-10.11v12.54h10.11z" /><path d="m-368.5 322.9 11.78 0.1315 8.639 1.258" /><path d="m-422.2 599.3 24.29 1e-5 13.28 24.73 8.107-30.91" /><path d="m-397.9 599.3 11.02-50.7 9.04-94.27 0.1708-22.16" /><path d="m-374.4 553.9-12.46-5.267" /><path d="m-369.9 455.1-7.911-0.696" /><path d="m-377.8 454.4-44.35-0.1513" /><path d="m-384.6 624.1-3.033 2.156-0.0195 22.92" /></g><g transform="matrix(-1 0 0 1 -742.8 -193.8)"  ><path d="m-399.2 636h-19.56l0.0303 13.03c-1.973 1.607-5.539 1.38-6.869-0.0337l0.0156-12.99h-19.79v22.61l7.02 27.16h32.14l7.02-27.24z"  stroke-width="1.624"/><path d="m-399.1 653.2-46.24 0.0148"  stroke-width="1.624"/><path d="m-399.2 658.6-46.24 0.0148"  stroke-width="1.624"/><path d="m-399.6 636-7.19-6.625-11.41-4.704 0.044-20.28-7.979-0.0442-0.1768 20.37-11.12 4.384-7.966 6.9"  stroke-width="1.624"/><g stroke-width="1.624"><path d="m-422.2 685.8-0.013-27.03" /><path d="m-415.1 685.8 1.932-27.03" /><path d="m-409.5 685.8 3.434-27.03" /><path d="m-429.4 685.8-1.932-27.03" /><path d="m-435 685.8-3.434-27.03" /><path d="m-425.9 644.5-19.49-0.0294" /><path d="m-436 653.2 0.0347-8.782" /><path d="m-441.2 653.2 0.0347-8.813" /><path d="m-403.2 653.2 0.0331-8.734" /><path d="m-408.3 653.5-0.0332-8.911" /><path d="m-399.2 644.5-19.49-0.0294" /><path d="m-426.3 624.7 0.6428 11.31" /><path d="m-418.2 624.7-0.6453 11.35" /></g><path d="m-432.1 602.2h-12.52v22.28c4.05 1.66 8.204 1.91 12.52 0z"  stroke-width="1.624"/><path d="m-399.9 601.9h-12.52v22.28c4.05 1.66 8.204 1.91 12.52 0z"  stroke-width="1.624"/></g><path d="m-293.8 392.5-1.856 13.42h-49.38l-2.606-14.78"  stroke-width="1.624"/><path d="m-305.4 492.1 5.864 13.59-0.252 40.96-10.56 0.0684-0.3184 5.686-59.58 115.8-10.55 0.8867-3.444-25.84"  stroke-width="2.32"/><path d="m-360.2 427.8 9.771 39.23 2.962 111.9-22.79 89.33"  stroke-width="1.624"/><path d="m-317.5 491.7-0.1313 55.17 7.28-0.1367"  stroke-width="1.624"/><g stroke-width="1.624"><path d="m-373.9 536.6 14.76-0.0833 10.76 10.12 30.77 0.2104" /><path d="m-347.4 578.9 36.79-26.49" /><path d="m-376.5 593.2 29.09-14.28" /><path d="m-295.6 406-2.488 2.439" /><path d="m-298.1 430.7 0.7843 11.58" /><path d="m-345 406 2.125 2.189" /><path d="m-342.9 430.4-0.626 11.83" /></g><path d="m-351.4 420.5 1.015 46.51"  stroke-width="1.624"/><g stroke-width="1.624"><path d="m-376.7 611.9 20.89 0.0764" /><path d="m-422.2 689 21.11-0.4001 5.394-23.07 1.051-53.68-5.175-9.699" /><path d="m-410.1 543.3h-24.18v51.25h24.18z" /><path d="m-403.1 475.5h-38.18v65.25h38.18z" /><path d="m-434.5 563.4-12.6 0.1039c-7.236-0.075-7.453-7.662-7.617-12.62l-1.324-81.87c0.1457-9.084 6.406-11.98 14.86-12.12l10.45 0.1535 0.0865 3.871 8.379-0.0286" /><path d="m-410 563.4 12.6 0.1039c7.236-0.075 7.453-7.662 7.617-12.62l1.324-81.87c-0.1457-9.084-6.406-11.98-14.86-12.12l-10.45 0.1535-0.0865 3.871-8.379-0.0286" /><path d="m-410.1 507.9h-24.18v26.68h24.18z" /><path d="m-415.4 547.3h-13.57v19.96h13.57z" /></g></g><g  ><g fill="none" stroke="#979797" stroke-width="3.587"><path d="m442.9 86.92c21.52 3.996 37.82 22.87 37.82 45.55 0 5.371-0.9139 10.53-2.595 15.33m-7.842 13.97c-8.496 10.4-21.42 17.03-35.89 17.03-14.38 0-27.24-6.555-35.74-16.84m-7.716-13.37c-1.862-5.019-2.88-10.45-2.88-16.12 0-23.05 16.84-42.18 38.89-45.74" /><g><path d="m434.9 71.19v15.85" /><path d="m395.6 155.1-13.68 8.014" /><path d="m474.2 155.1 13.68 8.014" /></g></g><g ></g><g fill="#f39745" ></g><g fill="#ff3ae1"  stroke-width="1.554"></g><g fill="#f39745" ><g stroke-width="1.764"></g><g stroke-width="1.764"></g><g stroke-width="1.764"></g></g><g fill="#4df346"  stroke-width="1.661"></g></g>
  </svg>
</svg>
