<svg xmlns="http://www.w3.org/2000/svg" viewBox="0 0 390 640" preserveAspectRatio="xMidYMid meet">
  <style>
    * { vector-effect: non-scaling-stroke; }
    path, rect, circle, ellipse, polygon, polyline, line {
      fill: none !important;
      stroke: #73f8ff !important;
      stroke-width: 2.25px !important;
      stroke-linecap: round;
      stroke-linejoin: round;
      opacity: 0.92;
    }
  </style>
  <svg x="0" y="0" width="870" height="640" viewBox="0 0 870 640" preserveAspectRatio="xMinYMin meet">

<g></g><g transform="translate(2246 -2.52)"  fill="none"  ><g stroke-width="1.764"><path d="m-2059 48.74-12.6 9.953-20.59 117-4.492 5.17-3.975 23.02 2.035 1.672 5.854-0.0566-9.715 46.17-3.461 5.141-13.51 62.67-2.875-0.4434-12.66 51.14 3.211 1.238-3.772 19.65-39.48 49.28-14 4.764-0.1133 29.69 12.75 5.701 22.33 113.2 42.62-12.91 0.1504-10.02 13.6-0.3242 37.95 18.18 8.977-6.479-0.293-26.22 7.383-0.082 7.383 0.082-0.2929 26.22 8.976 6.479 37.95-18.18 13.6 0.3242 0.1503 10.02 42.62 12.91 22.33-113.2 12.75-5.701-0.1133-29.69-14-4.764-39.48-49.28-4.26-21.6 3.211-0.8477-12.17-49.57-2.875 0.4434-13.51-62.67-3.461-5.141-9.715-46.17 5.854 0.0566 2.035-1.672-3.975-23.02-4.492-5.17-20.59-117-12.6-9.953-15.32 0.09766z" /><path d="m-2093 205.5 17.45-2.632 9.901-38.4-5.48-8.273 13.06-77.53 14.16-0.0914" /><path d="m-2112 570.7 0.059-93.94 7.575-19.84 10.43-6.809-0.3733-41.65 28.82-63.72-10.8-81.76-17.79-6.32-10.58 47.67-14.35 8.112" /><path d="m-2091 257.3 6.585-34.51 17.98-14.18 0.6291-44.2" /></g><g stroke-width="1.235"><path d="m-2132 371.4 22.34 3.099 12.2-50.33-22.21-4.705" /><path d="m-2104 456.9-31.9-65.9" /><path d="m-2094 408.5-41.96-17.44" /><path d="m-2048 56.6-2.07-0.0081-9.207-7.851" /><path d="m-2064 69.57 10.24-6.606 2.847-7.638" /><path d="m-2058 78.65-13.76-19.96" /></g><path d="m-2051 555.9-0.3956-69.27 3.724-3.635 0.026-19.16-15.83-7.552-20.18-0.2164 0.075 61.48-13.84 7.432-0.2197 45.45"  stroke-width="1.764"/><g stroke-width="1.235"><path d="m-2075 456.1-0.055 56.03-8.84 5.399" /><path d="m-2175 440.3 5.123-1.746 2.717-0.0315-0.2328 40.82-3.171 3.388-5.795-2.278" /><path d="m-2053 81.21h17v15.52h-17z" /><path d="m-2066 204.9 10.77 3.663 2.04-1.84 0.5423-110" /><path d="m-2078 415.2 20.64-64.47-0.01-142.9" /></g><path d="m-2044 453.1-28.77 9e-3 -2.859-4.735-3.963-0.0162-6.628-8.908 0.4163-25.21 28.55-63.52"  stroke-width="1.764"/><path d="m-2051 263.6h14.24v25.81h-14.24z"  stroke-width="1.235"/><path d="m-2053 294.9h18.66v15.32h-18.66z"  stroke-width="1.235"/><path d="m-2051 173.8h14.24v4.267h-14.24z"  stroke-width="1.235"/><g stroke-width="1.235"><path d="m-2095 261.8-7.763-10.15" /><path d="m-2097 272.6-11.16 11.21-3.34-0.3651" /><path d="m-2091 196 0.5525 2.168 10.01-1.213 7.993-31.18-10.29-13.53 7.146-39.44-5.189-2.451" /><path d="m-2048 56.6h8.017v12.01h-8.017z" /><path d="m-2112 373.6-3.463 14.8 20.49 3.978 21.35-48.68-9.302-75.55-6.012-1.986-9.59 42.47-18.53 11.35" /><path d="m-2084 222.8-5.784-6.213 1.187-11.74" /></g><path d="m-2044 438-27.18-0.1193-6.713-22.63 23.47-60.42 4.436-3.524 5.992-0.0161"  stroke-width="1.764"/><g stroke-width="1.235"><path d="m-2044 369.8-4.251 6e-3 -4.118 2.119-9.935 23.39 1.682-8.334-1.062-4.461 8.802-18.29 4.008-3.288 4.874-0.01" /><path d="m-2069 438 0.017-21.54 6.518-21.12" /><path d="m-2044 426.8-6.188-0.0371-0.015-17.13 3.944-9.845 0.073-29.91" /><path d="m-2064 416.8h10.92v5.371h-10.92z" /><path d="m-2164 512.5 14.22 74.39 28.97-8.689 0.2656-17.31-13.23-1.758-0.056-68.6 14.98-0.0751 0.2552-16.85 6.909-16.17-24.37-51.6-28.14 35.05 0.1977 71.61" /><path d="m-2132 508.3h14.24v33.82h-14.24z" /><path d="m-2094 467.5h6.036v49.25h-6.036z" /><path d="m-2084 465.2-15.72 0.0445-3.738-8.332" /><path d="m-2101 557.4 0.3202-92.11" /><path d="m-2112 557.1 14.02-0.0941" /><path d="m-2073 453.1 3.931-15.16" /><path d="m-2086 439.5 15.04-1.63" /><path d="m-2055 316.3h4.279v28.55h-4.279z" /><path d="m-2080 297.1-15.64-1.998" /><path d="m-2078 306.3-18.81-2.551" /><path d="m-2077 315.7-26.94-3.773" /></g><g stroke-width="1.235"><path d="m-2076 324.4-39.43-5.649" /><path d="m-2075 333.8-24.19-3.336" /><path d="m-2074 343.7-27.55-3.84" /><path d="m-2077 352.1-26.02-3.61" /><path d="m-2081 360.4-24.14-3.328" /><path d="m-2085 369.2-23.09-3.169" /><path d="m-2088 377.3-21.48-2.846" /></g><g stroke-width="1.235"><path d="m-2156 430 30.82-0.0201" /><path d="m-2164 440.8 43.9-0.4596" /><path d="m-2164 450.9 48.64-0.7525" /><path d="m-2164 460.6 51.09-0.7525" /><path d="m-2165 470.8 47.56-0.7525" /><path d="m-2165 480.6 45.51-0.7525" /><path d="m-2165 491.2 30.72-0.7525" /><path d="m-2164 500.7 30.23-0.7525" /><path d="m-2164 510.9 30.23-0.7525" /><path d="m-2163 520.9 28.65-0.7525" /></g><g stroke-width="1.235"><path d="m-2161 531 26.59-0.7525" /><path d="m-2159 540.4 24.72-0.7525" /><path d="m-2157 550.6 23.05-0.7525" /><path d="m-2156 559.9 21.78-0.7525" /></g><g stroke-width="1.235"><path d="m-2108 476.8h5.353v9.991h-5.353z" /><path d="m-2108 497.7h5.353v9.991h-5.353z" /><path d="m-2108 518.8h5.353v9.991h-5.353z" /><path d="m-2108 539.8h5.353v9.991h-5.353z" /><path d="m-2129 545.7h11.53v11.67h-11.53z" /><ellipse cx="-2123" cy="551.5" rx="3.991" ry="3.992" /><path d="m-2130 375.5 11.31 2.265-2.293 11.45-11.31-2.265z" /><ellipse transform="rotate(11.33)" cx="-2009" cy="792.4" rx="3.991" ry="3.992" /><path d="m-2094 183.6 11.4 1.738-1.76 11.54-11.4-1.738z" /><ellipse transform="rotate(8.67)" cx="-2037" cy="503" rx="3.991" ry="3.992" /><path d="m-2073 79.14 11.4 1.738-1.76 11.54-11.4-1.738z" /><ellipse transform="rotate(8.67)" cx="-2032" cy="396.6" rx="3.991" ry="3.992" /></g><g stroke-width="1.235"><path d="m-2127 495.5h8.58v8.149h-8.58z" /><path d="m-2071 230.3h8.58v8.149h-8.58z" /><path d="m-2071 240.8h8.58v8.149h-8.58z" /><path d="m-2060 135.7h5.472v11.74h-5.472z" /></g><path d="m-2057 459.3 25.45 0.0346"  stroke-width="1.235"/><path d="m-2102 460.8 17.99-0.1035"  stroke-width="1.235"/><path d="m-1976 570.7-0.059-93.94-7.575-19.84-10.43-6.809 0.3733-41.65-28.82-63.72 10.8-81.76 17.79-6.32 10.58 47.67 14.35 8.112"  stroke-width="1.764"/><path d="m-1997 257.3-6.585-34.51-17.98-14.18-0.6291-44.2"  stroke-width="1.764"/><g stroke-width="1.235"><path d="m-1956 371.4-22.34 3.099-12.2-50.33 22.21-4.705" /><path d="m-1984 456.9 31.9-65.9" /><path d="m-1994 408.5 41.96-17.44" /><path d="m-2040 56.6 2.07-0.0081 9.207-7.851" /><path d="m-2024 69.57-10.24-6.606-2.848-7.638" /><path d="m-2030 78.65 13.76-19.96" /></g><path d="m-2037 555.9 0.3957-69.27-3.724-3.635-0.026-19.16 15.83-7.552 20.18-0.2164-0.075 61.48 13.84 7.432 0.2197 45.45"  stroke-width="1.764"/><g stroke-width="1.235"><path d="m-2013 456.1 0.055 56.03 8.84 5.399" /><path d="m-1913 440.3-5.123-1.746-2.717-0.0315 0.2328 40.82 3.171 3.388 5.795-2.278" /><path d="m-2022 204.9-10.77 3.663-2.04-1.84-0.5424-110" /><path d="m-2010 415.2-20.64-64.47 0.01-142.9" /><path d="m-1993 261.8 7.763-10.15" /><path d="m-1991 272.6 11.16 11.21 3.341-0.3651" /><path d="m-1997 196-0.5525 2.168-10.01-1.213-7.993-31.18 10.29-13.53-7.146-39.44 5.189-2.451" /><path d="m-1976 373.6 3.463 14.8-20.49 3.978-21.35-48.68 9.302-75.55 6.012-1.986 9.59 42.47 18.53 11.35" /><path d="m-2004 222.8 5.784-6.213-1.187-11.74" /><path d="m-2019 438-0.017-21.54-6.518-21.12" /><path d="m-2024 416.8h-10.92v5.371h10.92z" /><path d="m-1924 512.5-14.22 74.39-28.97-8.689-0.2656-17.31 13.23-1.758 0.055-68.6-14.98-0.0751-0.2551-16.85-6.909-16.17 24.37-51.6 28.14 35.05-0.1978 71.61" /><path d="m-1956 508.3h-14.24v33.82h14.24z" /><path d="m-1994 467.5h-6.036v49.25h6.036z" /><path d="m-2004 465.2 15.72 0.0445 3.738-8.332" /><path d="m-1987 557.4-0.3202-92.11" /><path d="m-1976 557.1-14.02-0.0941" /><path d="m-2015 453.1-3.931-15.16" /><path d="m-2002 439.5-15.04-1.63" /><path d="m-2033 316.3h-4.279v28.55h4.279z" /><path d="m-2008 297.1 15.64-1.998" /><path d="m-2010 306.3 18.81-2.551" /><path d="m-2011 315.7 26.94-3.773" /></g><g stroke-width="1.235"><path d="m-2012 324.4 39.43-5.649" /><path d="m-2013 333.8 24.19-3.336" /><path d="m-2014 343.7 27.55-3.84" /><path d="m-2011 352.1 26.02-3.61" /><path d="m-2007 360.4 24.14-3.328" /><path d="m-2003 369.2 23.09-3.169" /><path d="m-2e3 377.3 21.48-2.846" /></g><g stroke-width="1.235"><path d="m-1932 430-30.82-0.0201" /><path d="m-1924 440.8-43.9-0.4596" /><path d="m-1924 450.9-48.64-0.7525" /><path d="m-1924 460.6-51.09-0.7525" /><path d="m-1923 470.8-47.56-0.7525" /><path d="m-1923 480.6-45.51-0.7525" /><path d="m-1923 491.2-30.72-0.7525" /><path d="m-1924 500.7-30.23-0.7525" /><path d="m-1924 510.9-30.23-0.7525" /><path d="m-1925 520.9-28.65-0.7525" /></g><g stroke-width="1.235"><path d="m-1927 531-26.59-0.7525" /><path d="m-1929 540.4-24.72-0.7525" /><path d="m-1931 550.6-23.06-0.7525" /><path d="m-1932 559.9-21.78-0.7525" /></g><g stroke-width="1.235"><path d="m-1980 476.8h-5.353v9.991h5.353z" /><path d="m-1980 497.7h-5.353v9.991h5.353z" /><path d="m-1980 518.8h-5.353v9.991h5.353z" /><path d="m-1980 539.8h-5.353v9.991h5.353z" /><path d="m-1959 545.7h-11.53v11.67h11.53z" /><ellipse transform="scale(-1,1)" cx="1965" cy="551.5" rx="3.991" ry="3.992" /><path d="m-1958 375.5-11.31 2.265 2.293 11.45 11.31-2.265z" /><ellipse transform="matrix(-.9805 .1964 .1964 .9805 0 0)" cx="1999" cy="-10.63" rx="3.991" ry="3.992" /><path d="m-1994 183.6-11.4 1.738 1.76 11.54 11.4-1.738z" /><ellipse transform="matrix(-.9886 .1507 .1507 .9886 0 0)" cx="2005" cy="-113.3" rx="3.991" ry="3.992" /><path d="m-2015 79.14-11.4 1.738 1.76 11.54 11.4-1.738z" /><ellipse transform="matrix(-.9886 .1507 .1507 .9886 0 0)" cx="2009" cy="-219.6" rx="3.991" ry="3.992" /></g><g stroke-width="1.235"><path d="m-1961 495.5h-8.58v8.149h8.58z" /><path d="m-2017 230.3h-8.58v8.149h8.58z" /><path d="m-2017 240.8h-8.58v8.149h8.58z" /><path d="m-2028 135.7h-5.472v11.74h5.472z" /></g><path d="m-1986 460.8-17.99-0.1035"  stroke-width="1.235"/><path d="m-2044 453.1 28.77 9e-3 2.859-4.735 3.963-0.0162 6.628-8.908-0.4164-25.21-28.55-63.52"  stroke-width="1.764"/><path d="m-2044 438 27.18-0.1193 6.713-22.63-23.47-60.42-4.436-3.524-5.992-0.0161"  stroke-width="1.764"/><path d="m-2044 369.8 4.251 6e-3 4.118 2.119 9.935 23.39-1.682-8.334 1.062-4.461-8.802-18.29-4.008-3.288-4.874-0.01"  stroke-width="1.235"/><path d="m-2044 426.8 6.189-0.0371 0.015-17.13-3.944-9.845-0.073-29.91"  stroke-width="1.235"/><path d="m-1995 205.5-17.45-2.632-9.901-38.4 5.481-8.273-13.06-77.53-14.16-0.0914"  stroke-width="1.764"/><g stroke-width="1.235"><path d="m-2053 206.7h18.09" /><path d="m-2053 146.2h18.09" /><path d="m-2053 159.3h18.09" /><path d="m-2049 101.1h10.69v42.48h-10.69z" /><path d="m-2068 261.1h6.134v28.55h-6.134z" /><path d="m-2026 261.1h6.134v28.55h-6.134z" /></g></g><g transform="translate(1494 -2.52)"  fill="none"  ><path d="m-839.5 48.74-12.6 9.953-20.59 117-4.492 5.17-3.975 23.02 2.035 1.672 5.854-0.0566-9.715 46.17-3.461 5.141-13.51 62.67-2.875-0.4434-12.66 51.14 3.211 1.238-3.771 19.65-39.48 49.28-14 4.764-0.1133 29.69 12.75 5.701 22.33 113.2 42.62-12.91 0.1504-10.02 13.6-0.3242 37.95 18.18 8.977-6.479-0.293-26.22 7.383-0.082 7.383 0.082-0.293 26.22 8.977 6.479 37.95-18.18 13.6 0.3242 0.1504 10.02 42.62 12.91 22.33-113.2 12.75-5.701-0.1133-29.69-14-4.764-39.48-49.28-4.26-21.6 3.211-0.8477-12.17-49.57-2.875 0.4434-13.51-62.67-3.461-5.141-9.715-46.17 5.854 0.0566 2.035-1.672-3.975-23.02-4.492-5.17-20.59-117-12.6-9.953-15.32 0.09766z"  stroke-width="1.764"/><g stroke-width="1.235"><path d="m-828.3 56.6-2.07-0.0081-9.207-7.851" /><path d="m-844.5 69.57 10.24-6.606 2.847-7.638" /><path d="m-838.4 78.65-13.76-19.96" /><path d="m-820.2 56.6 2.07-0.0081 9.207-7.851" /><path d="m-804 69.57-10.24-6.606-2.847-7.638" /><path d="m-810.1 78.65 13.76-19.96" /><path d="m-828.3 56.6h8.017v12.01h-8.017z" /></g><path d="m-873.3 205.5 17.45-2.632 9.901-38.4-5.48-8.273 13.06-77.53 14.16-0.0914"  stroke-width="1.764"/><path d="m-775.1 205.5-17.45-2.632-9.901-38.4 5.481-8.273-13.06-77.53-14.16-0.0914"  stroke-width="1.764"/><path d="m-916.1 391-33.85 58.47 2.653 14.71-2.49 0.8294 11.94 51.58 2.748-0.6647 6.735 30.13 33.26 0.0743 5.065-9.693 27.76 0.1555 14.79-33.42-14.52-20.12 6.568-11.78-8.936-44.69-4.046 0.0818-0.3057-31.76 14.16-124.9-18.98-17.96-9.486-0.4881"  stroke-width="1.764"/><path d="m-854.6 270.1 13.78-126.7 7.728-7.639 8.84 0.0432"  stroke-width="1.764"/><path d="m-824.2 321.2-28.49 0.1046-6.454-12"  stroke-width="1.764"/><path d="m-912.3 371.4 24.15 4.755 10.67-53.95-22.5-2.741"  stroke-width="1.235"/><path d="m-891.8 570.7-17.6 0.0827-4.523-15.4 0.2788-9.582"  stroke-width="1.764"/><path d="m-830.4 544.4-0.33 3.774-7.556 9.096-10.38-0.0395-10.46 13.46-19.09-0.2773"  stroke-width="1.764"/><g stroke-width="1.235"><path d="m-837.3 555.9h5.688" /><path d="m-850.9 235.7-19.85-19.3 1.187-11.74" /><path d="m-869.4 196.1 0.5525 2.168 10.01-1.213 7.578-28.55-11.95-16.98 6.732-38.62-4.636-2.796" /><path d="m-955.6 440.3 11.14-0.9577" /><path d="m-956.9 480.5 10.59 0.7643" /><path d="m-891.4 374.9-2.295 12.4 15.69 2.277 13.87-117.9-12.85-11.36-4.317 0.0868-12.6 59.87" /><path d="m-935.1 516 14.41-3.361-12.15-51.87-14.47 3.486" /><path d="m-931.3 533.2 34.85 0.0921 27.63-51.87 7.768-0.9338" /><path d="m-908.4 374.4 11.31 2.265-2.293 11.45-11.31-2.265z" /><ellipse transform="rotate(11.33)" cx="-811.4" cy="551.4" rx="3.991" ry="3.992" /><path d="m-874.6 183.3 11.36 1.974-1.998 11.5-11.36-1.974z" /><ellipse transform="rotate(9.855)" cx="-824.6" cy="336.2" rx="3.991" ry="3.992" /><path d="m-853.4 79.53 11.35 2.043-2.068 11.49-11.35-2.043z" /><ellipse transform="rotate(10.21)" cx="-820" cy="235.3" rx="3.991" ry="3.992" /><path d="m-919.1 499.5h11.53v11.67h-11.53z" /><ellipse cx="-913.3" cy="505.4" rx="3.991" ry="3.992" /><path d="m-867 295.8-21.57-2.827" /><path d="m-868 303.9-21.57-2.827" /><path d="m-868.9 311.9-22.2-2.918" /><path d="m-869.7 320.2-23.32-3.079" /></g><g stroke-width="1.235"><path d="m-871.1 329.3-7.595-0.8071" /><path d="m-872.4 338.5-7.595-0.8071" /><path d="m-873.4 347.8-8.812-0.9598" /><path d="m-874.4 357.9-10.09-1.123" /></g><g stroke-width="1.235"><path d="m-875.5 366.6-10.52-1.179" /><path d="m-876.2 375-11.51-1.308" /><path d="m-916.1 391-19.75 58.56 3.02 11.13" /><path d="m-920.7 512.6 0.4903 2.228 21.27-0.1502 38.46-67.81" /></g><path d="m-838.7 266.3h-8.58v8.149h8.58z"  stroke-width="1.235"/><g stroke-width="1.235"><path d="m-832.6 172.8 2.031-0.7329 12.1-0.0165 2.319 0.7493v21.25l-1.838 1.196-12.53-0.0385-2.084-1.157z" /><path d="m-824.4 171.9 0.1382 23.16" /><path d="m-910.7 385.9-1.526 5.538 6.039 0.9927-0.8783 3.866-5.922-0.7368-17.96 53.96-4.885 0.1102" /></g><path d="m-873.4 395h-13.49l-3.354 3.236v28.56h16.85z"  stroke-width="1.235"/><g stroke-width="1.235"><path d="m-885.1 254.7 10.42 0.6132 15.6 14.78-14.33 124.9" /><path d="m-873.4 426.8 4.017 21.09-5.393 10.36-10.22 0.0666-8.174-4.937-6.807 1.042-7.959 14.91-13.32 0.0199-4.895-19.77 12.43-36.66 23.41-0.1275" /><path d="m-890.2 426.8-28.07 0.245" /><path d="m-871.5 437.5-50.43-0.048" /><path d="m-869.4 447.8-55.9-0.048" /><path d="m-902.8 459.5-21.05-0.048" /></g><path d="m-878 465.9-14.68-8.174-4.528 1.103-12.65 22.32 1.437 4.21 14.38 7.999z"  stroke-width="1.235"/><path d="m-852.4 323.8h56.36v57.57h-56.36z"  stroke-width="1.764"/><path d="m-824.2 395.6-11.04-4.843 0.0109-3.32-15.8 0.0645-11.39 22.98 10.63 55.05 18.79 7e-3 -0.1617-29.9 5.064 0.0144"  stroke-width="1.764"/><path d="m-828.2 395.6h7.723v57.57h-7.723z"  stroke-width="1.764"/><path d="m-833.2 435.7-6.661-0.0636-0.0206-2.696-22.58-22.4"  stroke-width="1.235"/><path d="m-852 462.1 12.21-0.0728-6e-3 -26.43"  stroke-width="1.235"/><path d="m-832.4 396.3h-8.58v8.149h8.58z"  stroke-width="1.235"/><path d="m-830.4 465.1h12.28v79.25h-12.28z"  stroke-width="1.764"/><g stroke-width="1.235"><path d="m-824.2 385-36.41-8e-3 0.4652-62.38" /><path d="m-854.5 317.9-5.83 0.0734" /><path d="m-830.3 471.4-25.16-0.048" /><path d="m-830.6 521c-6.579 0.123-13.85 0.1929-25.16-0.048" /><path d="m-859.5 529.8 0.3436 40.89" /><path d="m-848.9 520.9 0.2459 36.3" /><path d="m-892.6 540.8 61.98 0.252" /><path d="m-848.9 533.9 18.37 0.252" /></g><g stroke-width="1.235"><path d="m-818.8 105.1h-10.86v22.65h10.86z" /><path d="m-815.9 94.86h-16.66v40.88h16.66z" /><path d="m-817.6 154.5h-13.31v12.98h13.31z" /><path d="m-813.5 211h-21.51v33.49h21.51z" /><path d="m-815.3 281.9h-18v18.65h18z" /></g><path d="m-831.9 142.2 1.874-2.834 11.17-8e-3 2.14 2.842v7.484h-15.18z"  stroke-width="1.235"/><path d="m-732.3 391 33.85 58.47-2.653 14.71 2.49 0.8294-11.94 51.58-2.748-0.6647-6.735 30.13-33.26 0.0743-5.065-9.693-27.76 0.1555-14.79-33.42 14.52-20.12-6.568-11.78 8.936-44.69 4.046 0.0818 0.3057-31.76-14.16-124.9 18.98-17.96 9.486-0.4881"  stroke-width="1.764"/><path d="m-793.9 270.1-13.78-126.7-7.728-7.639-8.84 0.0432"  stroke-width="1.764"/><path d="m-824.2 321.2 28.49 0.1046 6.454-12"  stroke-width="1.764"/><path d="m-736.1 371.4-24.15 4.755-10.67-53.95 22.5-2.741"  stroke-width="1.235"/><path d="m-756.6 570.7 17.6 0.0827 4.523-15.4-0.2788-9.582"  stroke-width="1.764"/><path d="m-818 544.4 0.33 3.774 7.556 9.096 10.38-0.0395 10.46 13.46 19.09-0.2773"  stroke-width="1.764"/><g stroke-width="1.235"><path d="m-811.1 555.9h-5.688" /><path d="m-797.5 235.7 19.85-19.3-1.187-11.74" /><path d="m-779 196.1-0.5525 2.168-10.01-1.213-7.578-28.55 11.95-16.98-6.732-38.62 4.636-2.796" /><path d="m-692.9 440.3-11.14-0.9577" /><path d="m-691.5 480.5-10.59 0.7643" /><path d="m-757.1 374.9 2.295 12.4-15.69 2.277-13.87-117.9 12.85-11.36 4.317 0.0868 12.6 59.87" /><path d="m-713.3 516-14.41-3.361 12.15-51.87 14.47 3.486" /><path d="m-717.2 533.2-34.85 0.0921-27.63-51.87-7.768-0.9338" /><path d="m-740 374.4-11.31 2.265 2.293 11.45 11.31-2.265z" /><ellipse transform="matrix(-.9805 .1964 .1964 .9805 0 0)" cx="804.9" cy="227.6" rx="3.991" ry="3.992" /><path d="m-773.8 183.3-11.36 1.974 1.998 11.5 11.36-1.974z" /><ellipse transform="matrix(-.9852 .1712 .1712 .9852 0 0)" cx="799.5" cy="54.03" rx="3.991" ry="3.992" /><path d="m-795.1 79.53-11.35 2.043 2.068 11.49 11.35-2.043z" /><ellipse transform="matrix(-.9842 .1772 .1772 .9842 0 0)" cx="802.3" cy="-56.76" rx="3.991" ry="3.992" /><path d="m-729.4 499.5h-11.53v11.67h11.53z" /><ellipse transform="scale(-1,1)" cx="735.1" cy="505.4" rx="3.991" ry="3.992" /><path d="m-781.5 295.8 21.57-2.827" /><path d="m-780.5 303.9 21.57-2.827" /><path d="m-779.5 311.9 22.2-2.918" /><path d="m-778.8 320.2 23.32-3.079" /></g><g stroke-width="1.235"><path d="m-777.3 329.3 7.595-0.8071" /><path d="m-776.1 338.5 7.595-0.8071" /><path d="m-775.1 347.8 8.812-0.9598" /><path d="m-774 357.9 10.09-1.123" /></g><g stroke-width="1.235"><path d="m-772.9 366.6 10.52-1.179" /><path d="m-772.2 375 11.51-1.308" /><path d="m-732.3 391 19.75 58.56-3.02 11.13" /><path d="m-727.8 512.6-0.4903 2.228-21.27-0.1502-38.46-67.81" /></g><path d="m-809.7 266.3h8.58v8.149h-8.58z"  stroke-width="1.235"/><path d="m-824.1 171.9-0.1382 23.16"  stroke-width="1.235"/><path d="m-737.7 385.9 1.526 5.538-6.039 0.9927 0.8783 3.866 5.922-0.7368 17.96 53.96 4.885 0.1102"  stroke-width="1.235"/><path d="m-775 395h13.49l3.354 3.236v28.56h-16.85z"  stroke-width="1.235"/><g stroke-width="1.235"><path d="m-763.4 254.7-10.42 0.6132-15.6 14.78 14.33 124.9" /><path d="m-775 426.8-4.017 21.09 5.393 10.36 10.22 0.0666 8.174-4.937 6.807 1.042 7.959 14.91 13.32 0.0199 4.895-19.77-12.43-36.66-23.41-0.1275" /><path d="m-758.2 426.8 28.07 0.245" /><path d="m-777 437.5 50.43-0.048" /><path d="m-779.1 447.8 55.9-0.048" /><path d="m-745.6 459.5 21.05-0.048" /></g><path d="m-770.5 465.9 14.68-8.174 4.528 1.103 12.65 22.32-1.437 4.21-14.38 7.999z"  stroke-width="1.235"/><path d="m-824.2 395.6 11.04-4.843-0.0109-3.32 15.8 0.0645 11.39 22.98-10.63 55.05-18.79 7e-3 0.1617-29.9-5.064 0.0144"  stroke-width="1.764"/><path d="m-815.3 435.7 6.661-0.0636 0.0206-2.696 22.58-22.4"  stroke-width="1.235"/><path d="m-796.4 462.1-12.21-0.0728 6e-3 -26.43"  stroke-width="1.235"/><path d="m-816 396.3h8.58v8.149h-8.58z"  stroke-width="1.235"/><g stroke-width="1.235"><path d="m-824.2 385 36.41-8e-3 -0.4652-62.38" /><path d="m-794 317.9 5.83 0.0734" /><path d="m-818.2 471.4 25.16-0.048" /><path d="m-817.9 521c6.579 0.123 13.85 0.1929 25.16-0.048" /><path d="m-788.9 529.8-0.3436 40.89" /><path d="m-799.5 520.9-0.2459 36.3" /><path d="m-755.9 540.8-61.98 0.252" /><path d="m-799.6 533.9-18.37 0.252" /><path d="m-832 321.6-0.051-15.86-3.993-5.009 0.1089-20.22 4.13-5.083 0.4968-31.07" /><path d="m-816.6 321.6 0.051-15.86 3.993-5.009-0.1089-20.22-4.13-5.083-0.4968-31.07" /><path d="m-867.7 219.2-4.807 22.89-8.383 1.542" /><path d="m-780.6 219.2 4.807 22.89 8.383 1.542" /><path d="m-832.6 94.86-9.552 20.04-0.4436 18.97 9.529 1.934" /><path d="m-815.8 94.86 9.552 20.04 0.4436 18.97-9.529 1.934" /></g></g><g  ><g fill="none" stroke="#979797" stroke-width="3.587"><path d="m442.8 88.33c21.52 3.996 37.82 22.87 37.82 45.55 0 5.371-0.9139 10.53-2.595 15.33m-7.842 13.97c-8.496 10.4-21.42 17.03-35.89 17.03-14.38 0-27.24-6.555-35.74-16.84m-7.716-13.37c-1.862-5.019-2.88-10.45-2.88-16.12 0-23.05 16.84-42.18 38.89-45.74" /><g><path d="m434.8 72.6v15.85" /><path d="m395.5 156.6-13.68 8.014" /><path d="m474.1 156.6 13.68 8.014" /></g></g><g fill="#979797"  stroke-width="3.587"></g><g fill="#f39745"  stroke-width="1.764"></g><g fill="#4df346" ></g><g fill="#f39745" ><g stroke-width="1.764"></g><g stroke-width="1.764"></g></g><g ></g><g fill="#f49644"  stroke-width="1.235"></g><g fill="#ff3ae1"  stroke-width="1.497"></g><g fill="#f49644"  stroke-width="1.235"></g></g>
  </svg>
</svg>
