<svg xmlns="http://www.w3.org/2000/svg" viewBox="0 0 390 640" preserveAspectRatio="xMidYMid meet">
  <style>
    * { vector-effect: non-scaling-stroke; }
    path, rect, circle, ellipse, polygon, polyline, line {
      fill: none !important;
      stroke: #73f8ff !important;
      stroke-width: 2.25px !important;
      stroke-linecap: round;
      stroke-linejoin: round;
      opacity: 0.92;
    }
  </style>
  <svg x="0" y="0" width="870" height="640" viewBox="0 0 870 640" preserveAspectRatio="xMinYMin meet">

<g transform="translate(1242)"  fill="none"  ><g stroke-width="1.764"><path d="m-1019 104.9h-14.83l-11.73 9.463-22.45 41.21-18.33 50.54-8.256 6.168-14.9 28.06 0.6406 152.4 5.449 11.5-0.7441 55 5.951 4.807 32.04-29.49-0.014 117.9-24.16-0.0176 9.252 22.85 41.82-0.1074 3.361-4.193 16.98-0.0723 16.79 0.0723 3.363 4.193 41.82 0.1074 9.252-22.85-24.15 0.0176-0.0156-117.9 32.04 29.49 5.951-4.807-0.7441-55 5.449-11.5 0.6406-152.4-14.9-28.06-8.258-6.168-18.33-50.54-22.45-41.21-11.72-9.463h-14.83" /><path d="m-1042 574.9-0.5603 8.919-32.43-0.3796-0.3502-8.16" /><path d="m-1066 575 0.079-140.4 10.65-67.41 6.421-146.8 14.22-88.34 1.021-27.09" /><path d="m-1085 551.7-0.043-44.85-13.35-42.82" /><path d="m-1103 404.2-0.4141-10.58 0.7898-111.9 48.17-58.7 5.954 0.1848" /></g><g stroke-width="1.235"><path d="m-1086 206.1 9.918 43.67" /><path d="m-1045 114.4-6.66 71.69-7.314 41.64" /><path d="m-1049 223.2-47.22 60.99-1.196 178.1" /><path d="m-1021 105.1v0.0829l-4.466 0.1531-8.958 17 6.763-5.186 7.859-0.052 7.859 0.052 6.763 5.186-8.957-17-4.467-0.154v-0.082l-1.2 0.041z" /><path d="m-1028 172.4h17v6.822h-17z" /></g><path d="m-1035 185.8h6.866v18.96h-6.866z"  stroke-width="1.235"/><g stroke-width="1.235"><path d="m-1035 193.6-5.71 1.498-4.309 24.1-5.497 144.6 2.155 18.66-9.036 81.59-0.9592 96.14-5.146 14.2" /><path d="m-1028 193.8 18.05-0.0523" /><path d="m-1054 229.6-12.44 205" /><path d="m-1042 428h17v29.92h-17z" /><path d="m-1045 389.6h22.42v35.34h-22.42z" /></g><path d="m-1033 465.6h28.19l3.403 76.01-1.745 29.33h-32.46l-1.39-28.33z"  stroke-width="1.235"/><path d="m-1025 368.9 2.442-11.33h8.174l3.1 11.33 6.121 4.281 0.2074 15.48-26.46 0.1667-0.2308-15.3z"  stroke-width="1.235"/><g transform="matrix(1.764 0 0 1.764 -1711 59.36)"   stroke-width=".7"><path d="m350.1 126.3h9.171v9.279h-9.171z"/><circle cx="354.7" cy="130.9" r="3.174"/></g><g stroke-width="1.235"><path d="m-1077 285.7 19.59-1.496" /><path d="m-1096 311 37.65-2.271" /><path d="m-1097 335.1 36.94-2.153" /><path d="m-1096 358.9 35.61-1.778" /><path d="m-1097 383 10.02-0.2095m9.074-0.1897 15.21-0.318" /><path d="m-1097 407.8 33.23-1.051" /><path d="m-1097 431.9 32.06-0.7172" /><path d="m-1051 149.1-7.964 6.719-0.2623-6.742 9.631-19.54" /><path d="m-1042 294.2h4.744v94.75h-4.744z" /><path d="m-1040 294 2.602-56.4 37.41-0.0967 2.791 56.42" /><path d="m-1039 273.5 40.95 0.0275" /><path d="m-1040 289.5 42.45 0.0275" /><path d="m-1037 307.1 35.95 0.0275" /><path d="m-1037 325.5 35.95 0.0275" /><path d="m-1037 343.1 35.95 0.0275" /><path d="m-1052 462.8h13.35v73.93h-13.35z" /><path d="m-1059 560.2 22.26 0.0275" /><path d="m-1036 565.3 32.84 0.0275" /><path d="m-996.4 428h-17v29.92h17z" /><path d="m-993.6 389.6h-22.42v35.34h22.42z" /></g><g transform="matrix(1.764 0 0 1.764 -1826 294.3)"   stroke-width=".7"><path d="m350.1 126.3h9.171v9.279h-9.171z"/><circle cx="354.7" cy="130.9" r="3.174"/></g><path d="m-1035 135.5 4-4.5 24.17 0.0915 4.248 3.702"  stroke-width="1.764"/><path d="m-1025 516.3h12.33l5.422 38.26h-23.18z"  stroke-width="1.235"/><path d="m-1087 373.4h9.163v29.61h-9.163z"  stroke-width="1.235"/><path d="m-1029 254.4 20.08 0.0275"  stroke-width="1.235"/><path d="m-1035 250.2h6.866v13.99h-6.866z"  stroke-width="1.235"/><g stroke-width="1.764"><path d="m-1090 552.4-93.09-0.2288-5.87 4.026-23.78-0.3526 0.1394-38 4.094-4.697 111.5-50.81" /><path d="m-1085 523.6-100.6 0.4484-3.948 3.197-0.1175 28.89" /><path d="m-1109 384.8-78.29-39.3-1.696 0.0991-5.579-4.159 0.2775-26.68 4.508-1.107 80.44 12.86" /></g><path d="m-1109 361-84.73-29.39"  stroke-width="1.235"/><g stroke-width="1.764"><path d="m-996.4 574.9 0.5603 8.919 32.43-0.3796 0.3502-8.16" /><path d="m-972.2 575-0.0794-140.4-10.65-67.41-6.421-146.8-14.22-88.34-1.021-27.09" /><path d="m-953.6 551.7 0.0432-44.85 13.35-42.82" /><path d="m-935 404.2 0.414-10.58-0.7897-111.9-48.17-58.7-5.954 0.1848" /></g><g stroke-width="1.235"><path d="m-952.1 206.1-9.918 43.67" /><path d="m-992.8 114.4 6.66 71.69 7.314 41.64" /><path d="m-989.5 223.2 47.22 60.99 1.197 178.1" /></g><path d="m-1003 185.8h-6.865v18.96h6.865z"  stroke-width="1.235"/><g stroke-width="1.235"><path d="m-1003 193.6 5.71 1.498 4.309 24.1 5.497 144.6-2.155 18.66 9.036 81.59 0.9592 96.14 5.146 14.2" /><path d="m-984.7 229.6 12.44 205" /><path d="m-996.4 428h-17v29.92h17z" /><path d="m-993.6 389.6h-22.42v35.34h22.42z" /></g><g transform="matrix(-1.764 0 0 1.764 -327.7 59.36)"   stroke-width=".7"><path d="m350.1 126.3h9.171v9.279h-9.171z"/><circle cx="354.7" cy="130.9" r="3.174"/></g><g stroke-width="1.235"><path d="m-961.6 285.7-19.59-1.496" /><path d="m-942.2 311-37.65-2.271" /><path d="m-941.8 335.1-36.94-2.153" /><path d="m-941.9 358.9-35.61-1.778" /><path d="m-941.6 383-10.02-0.2095m-9.074-0.1897-15.21-0.318" /><path d="m-941.3 407.8-33.23-1.051" /><path d="m-941.3 431.9-32.06-0.7172" /><path d="m-987.2 149.1 7.965 6.719 0.2622-6.742-9.631-19.54" /><path d="m-996.5 294.2h-4.744v94.75h4.744z" /><path d="m-983.4 484.7h-17.22v16.43h17.22z" /><path d="m-979.5 560.2-22.26 0.0275" /></g><g transform="matrix(-1.764 0 0 1.764 -212.5 294.3)"   stroke-width=".7"><path d="m350.1 126.3h9.171v9.279h-9.171z"/><circle cx="354.7" cy="130.9" r="3.174"/></g><path d="m-951.5 373.4h-9.163v29.61h9.163z"  stroke-width="1.235"/><path d="m-1003 250.2h-6.865v13.99h6.865z"  stroke-width="1.235"/><g stroke-width="1.764"><path d="m-948.1 552.4 93.09-0.2288 5.87 4.026 23.78-0.3526-0.1394-38-4.094-4.697-111.5-50.81" /><path d="m-953.8 523.6 100.6 0.4484 3.948 3.197 0.1176 28.89" /><path d="m-929.6 384.8 78.29-39.3 1.696 0.0991 5.579-4.159-0.2774-26.68-4.508-1.107-80.44 12.86" /></g><path d="m-929.2 361 84.73-29.39"  stroke-width="1.235"/><path d="m-1114 470-59.32 11.07-1.235 16.39"  stroke-width="1.764"/><path d="m-923.9 470 59.32 11.07 1.235 16.39"  stroke-width="1.764"/></g><g transform="translate(898.4)"  fill="none"  ><path d="m-311.3 161.9-16.02 44.19-8.257 6.168-14.9 28.06 0.6399 152.4 5.45 11.5-0.5632 65.81m4.19 41.94 0.3532 19.42 18.85 43.52 41.31 0.2023 3.362-4.194 16.23-0.072 16.23 0.072 3.363 4.194 40.4-0.4792 19.31-43.14 0.0304-19.48m4.97-41.85-0.5649-65.94 5.451-11.5 0.6399-152.4-14.9-28.06-8.257-6.168-18.33-50.54-22.44-41.21-11.73-9.464h-28.36l-11.73 9.464-22.44 41.21-2.305 6.358"  stroke-width="1.764"/><path d="m-275.8 173.5 3.727-1.583 22.22-0.0355 4.256 1.619v45.91l-3.374 2.584-23-0.0834-3.826-2.5z"  stroke-width="1.235"/><path d="m-260.7 171.4 0.2537 50.04"  stroke-width="1.235"/><g transform="matrix(1.764 0 0 1.764 -962.2 37.36)"   stroke-width=".7"><path d="m350.1 126.3h9.171v9.279h-9.171z"/><circle cx="354.7" cy="130.9" r="3.174"/></g><path d="m-313.8 260.9 1.924-0.998 11.47-0.0224 2.196 1.02v28.93l-1.741 1.628-11.87-0.0526-1.974-1.576z"  stroke-width="1.235"/><path d="m-222.9 260.2 1.924-0.998 11.47-0.0224 2.196 1.02v28.93l-1.741 1.628-11.87-0.0526-1.974-1.576z"  stroke-width="1.235"/><g transform="matrix(1.764 0 0 1.764 -810.9 37.36)"   stroke-width=".7"><path d="m350.1 126.3h9.171v9.279h-9.171z"/><circle cx="354.7" cy="130.9" r="3.174"/></g><g stroke-width="1.235"><path d="m-273.3 231.6h25.02v39.59h-25.02z" /><path d="m-320.5 337.3h22.58v39.59h-22.58z" /><path d="m-313.4 390.4h16.68v18.61h-16.68z" /><path d="m-317.8 437.6h22.58v39.59h-22.58z" /></g><g transform="matrix(1.764 0 0 1.764 -934.3 268.3)"   stroke-width=".7"><path d="m350.1 126.3h9.171v9.279h-9.171z"/><circle cx="354.7" cy="130.9" r="3.174"/></g><path d="m-312.3 311.1h11.85v11.27h-11.85z"  stroke-width="1.235"/><path d="m-310.1 415h11.85v11.27h-11.85z"  stroke-width="1.235"/><path d="m-282.8 332.1 5.311-1.357 31.66-0.0303 6.065 1.387v39.34l-4.808 2.214-32.78-0.0714-5.452-2.143z"  stroke-width="1.235"/><path d="m-260.7 516.1-65.65 0.1323 0.265-132.9 0.0568-133.7 33.08-115 6.443-20.26"  stroke-width="1.764"/><g stroke-width="1.235"><path d="m-350.8 250.4 30.92-22.83" /><path d="m-250.2 105.4-1.225 37.05-17.92 0.2582-1.953-37.37" /><path d="m-273.7 235.1-9.123-0.1411-12.25-36.08 13.82-77.2 10.45-7.628" /></g><path d="m-260.7 381.6-64.82 0.0369-24.4 4.855"  stroke-width="1.764"/><g stroke-width="1.235"><path d="m-293.6 381.6 0.3058-46.11 10.38-19.58-0.0852-65.88-23.61-67.5" /><path d="m-326 308.5-24.15 0.3961" /><path d="m-326.7 320.2-24.15 0.3961" /><path d="m-325.8 333-24.15 0.3961" /></g><path d="m-313.7 393.5-12.49 0.2588"  stroke-width="1.764"/><path d="m-260.7 393.4-36.3 0.2588"  stroke-width="1.764"/><g stroke-width="1.235"><path d="m-287.1 396.9h52.08v39.08l-4.125 3.607h-44.18l-3.772-3.167z" /><path d="m-287.3 442.5v22.38l9.311 9.94h33.86l9.311-9.94v-22.38h-52.08z" /><path d="m-208.1 390.4h-16.68v18.61h16.68z" /><path d="m-203.7 437.6h-22.58v39.59h22.58z" /></g><g transform="matrix(-1.764 0 0 1.764 412.8 268.3)"   stroke-width=".7"><path d="m350.1 126.3h9.171v9.279h-9.171z"/><circle cx="354.7" cy="130.9" r="3.174"/></g><path d="m-211.4 415h-11.85v11.27h11.85z"  stroke-width="1.235"/><path d="m-260.7 516.1 65.65 0.1323-0.265-132.9-0.0568-133.7-33.08-115-6.443-20.26"  stroke-width="1.764"/><path d="m-170.7 250.4-30.92-22.83"  stroke-width="1.235"/><path d="m-247.8 235.1 9.123-0.1411 12.25-36.08-13.82-77.2-10.45-7.628"  stroke-width="1.235"/><path d="m-260.7 381.6 64.82 0.0369 24.4 4.855"  stroke-width="1.764"/><g stroke-width="1.235"><path d="m-227.9 381.6-0.3058-46.11-10.38-19.58 0.0852-65.88 23.61-67.5" /><path d="m-195.5 308.5 24.15 0.3961" /><path d="m-194.8 320.2 24.15 0.3961" /><path d="m-195.6 333 24.15 0.3961" /></g><path d="m-207.8 393.5 12.49 0.2588"  stroke-width="1.764"/><path d="m-260.7 393.4 36.3 0.2588"  stroke-width="1.764"/><path d="m-200.9 337.3h-22.58v39.59h22.58z"  stroke-width="1.235"/><path d="m-209.1 311.1h-11.85v11.27h11.85z"  stroke-width="1.235"/><g stroke-width="1.235"><path d="m-283.2 516.3 2.936 58.87" /><path d="m-277.9 516.5 1.004 54.4" /><path d="m-238.1 516.3-2.936 58.87" /><path d="m-243.4 516.5-1.004 54.4" /><path d="m-326.2 393.8-18.2 10.47" /><path d="m-176.9 404.2-18.39-10.47" /></g><g stroke-width="1.235"><path d="m-306.2 575.1 1.131-43.03 16.54 0.6881 1.803 42.41" /><path d="m-215.4 575.1-1.131-43.03-16.54 0.6881-1.803 42.41" /><path d="m-272.5 535.9h23.59v23.3h-23.59z" /></g><g stroke-width="1.235"><path d="m-282.8 275.7 44.32 0.0275" /><path d="m-282.8 289.1 44.32 0.0275" /><path d="m-282.8 302 44.32 0.0275" /><path d="m-282.9 315.9 44.32 0.0275" /><path d="m-283 262.8 9.647 0.0275" /><path d="m-248.4 262.8 9.647 0.0275" /><path d="m-283 250 9.647 0.0275" /><path d="m-248.2 250 9.647 0.0275" /><path d="m-326.2 411.8 39.15 0.0275" /><path d="m-326.3 432.1 39.15 0.0275" /><path d="m-234.8 411.8 39.15 0.0275" /><path d="m-234.9 432.1 39.15 0.0275" /><path d="m-289.3 478.3h15.68v34.11h-15.68z" /><path d="m-248.6 478.3h15.68v34.11h-15.68z" /><path d="m-284 138.2 12.57 9.613-3.428 17.8-14.8 4.231" /><path d="m-326.1 249.6 34.26 9.377-0.1281 29.11 9.099 0.9582" /><path d="m-194.8 249.6-34.26 9.377 0.1281 29.11-9.099 0.9582" /><path d="m-237.2 138.2-12.57 9.613 3.428 17.8 14.8 4.231" /><path d="m-268.1 148-3.939 20.87h22.52l-3.939-20.87-7.323 0.0665z" /></g><path d="m-350.2 384.8-78.29-39.3-1.696 0.0991-5.579-4.159 0.2775-26.68 4.508-1.107 80.44 12.86"  stroke-width="1.764"/><path d="m-350.6 361-84.73-29.39"  stroke-width="1.235"/><path d="m-171.1 384.8 78.29-39.3 1.696 0.0991 5.579-4.159-0.2774-26.68-4.508-1.107-80.44 12.86"  stroke-width="1.764"/><path d="m-170.7 361 84.73-29.39"  stroke-width="1.235"/><g stroke-width="1.764"><path d="m-283.7 574.9-0.5603 8.919-32.43-0.3796-0.3502-8.16" /><path d="m-238.1 574.9 0.5603 8.919 32.43-0.3796 0.3502-8.16" /><path d="m-330.6 555.6-93.09-0.2288-5.87 4.026-23.78-0.3526 0.1394-38 4.094-4.697 43.43-19.79" /><path d="m-340.3 527-85.24 0.38-3.948 3.197-0.1175 28.89" /><path d="m-326.3 462.7-18.67 7.344-59.32 11.07-1.473 19.55 57.58 8.814 21.77 6.752" /><path d="m-192.1 555.6 94.32-0.2288 5.87 4.026 23.78-0.3526-0.1394-38-4.094-4.697-43.43-19.79" /><path d="m-181.2 527 85.24 0.38 3.948 3.197 0.1175 28.89" /><path d="m-195.2 462.7 18.67 7.344 59.32 11.07 1.473 19.55-57.58 8.814-21.77 6.752" /></g></g><g  ><g fill="#4df346" ></g><g fill="#ff3ae1" ></g><g fill="none" stroke="#979797" stroke-width="3.587"><path d="m442.9 86.92c21.52 3.996 37.82 22.87 37.82 45.55 0 5.371-0.9139 10.53-2.595 15.33m-7.842 13.97c-8.496 10.4-21.42 17.03-35.89 17.03-14.38 0-27.24-6.555-35.74-16.84m-7.716-13.37c-1.862-5.019-2.88-10.45-2.88-16.12 0-23.05 16.84-42.18 38.89-45.74" /><g><path d="m434.9 71.19v15.85" /><path d="m395.6 155.1-13.68 8.014" /><path d="m474.2 155.1 13.68 8.014" /></g></g><g fill="#979797" ></g><g ></g><path d="m586.9 575.7-8.758-48.54" fill="none"   stroke-width="1.235"/></g><g  fill="#f39745"   stroke-width="1.764"></g><g  ><g fill="#f49644"  stroke-width=".9927"></g><g fill="none"  stroke-width="1.235"><path d="m593.6 515.8-15.53 11.37-10.9-0.2614-2.571-12.9" /><path d="m688.2 575.7 8.758-48.54" /><path d="m681.4 515.8 15.53 11.37 10.9-0.2614 2.571-12.9" /></g><g fill="#f39745"  stroke-width="1.764"></g><g ></g><g fill="#f49644"  stroke-width=".9927"></g></g>
  </svg>
</svg>
