<svg xmlns="http://www.w3.org/2000/svg" viewBox="0 0 390 640" preserveAspectRatio="xMidYMid meet">
  <style>
    * { vector-effect: non-scaling-stroke; }
    path, rect, circle, ellipse, polygon, polyline, line {
      fill: none !important;
      stroke: #73f8ff !important;
      stroke-width: 2.25px !important;
      stroke-linecap: round;
      stroke-linejoin: round;
      opacity: 0.92;
    }
  </style>
  <svg x="0" y="0" width="870" height="640" viewBox="0 0 870 640" preserveAspectRatio="xMinYMin meet">

<g transform="translate(1345)"  fill="none"  ><path d="m-1120 154.3c-3.995 0.0493-8.56 0.2108-12.28 5.59l-7.463 9.939c-37.25 63.15-68.61 131.2-102.3 197.3l-54.16 90.19-8.5 58.99 64.69 5.756 17.56 11.31-3.232 34.7 13.44 6.324 9.064-38.34 55 2.064 0.7129 20.93 3.582-4e-3 0.4922-15.52 7.342 0.8809 16.02-4e-3 16.02 4e-3 7.342-0.8809 0.4922 15.52 3.582 4e-3 0.7129-20.93 55-2.064 9.064 38.34 13.44-6.324-3.232-34.7 17.56-11.31 64.69-5.756-8.5-58.99-54.16-90.19c-33.66-66.14-65.02-134.2-102.3-197.3l-7.463-9.939c-3.719-5.379-8.284-5.541-12.28-5.59z"  stroke-width="1.764"/><g stroke-width="1.235"><path d="m-1120 197.2-12.55 0.317c-2.223 0.2328-3.186 1.883-3.529 4.231l-3.291 24.69-12.21 0.2854-4.034-3.295c2.828-21.38 11.5-39.93 23.99-56.65l11.63-0.0288" /><path d="m-1152 226.7c5.892-16.66 11.04-21.28 16.3-27.55" /><path d="m-1140 180.2 6.323-3.046 14.11-0.0323" /></g><ellipse transform="matrix(.9999 .01049 -.01576 .9999 0 0)" cx="-1145" cy="256.9" rx="6.761" ry="6.865"  stroke-width="1.235"/><ellipse transform="matrix(.9999 .01049 -.01576 .9999 0 0)" cx="-1190" cy="440.8" rx="6.761" ry="6.865"  stroke-width="1.235"/><ellipse transform="matrix(.9999 .01048 -.01577 .9999 0 0)" cx="-1190" cy="440.8" rx="12.08" ry="12.26"  stroke-width="1.235"/><g stroke-width="1.235"><path d="m-1296 517 6.012-46.73 55.79-97.24" /><path d="m-1240 472.5 6.114-99.42" /><path d="m-1234 373 3.891-10.57c24.6-57.44 50.84-113.6 79.68-167.8l-1.416-2.425" /><path d="m-1156 223.5-30.24 124.2-15.23 18.92-1.995 5.129-14.77 135.4" /><path d="m-1193 279.3 24.26-1.948" /><path d="m-1296 457.4 6.358 12.87" /><path d="m-1242 367.2 10.53-0.6032" /><path d="m-1192 416.8-4.001-13.04-9.861-4.003" /></g><ellipse transform="matrix(.9989 .04742 -.003484 1 0 0)" cx="-1243" cy="557" rx="2.326" ry="10.68"  stroke-width="1.235"/><ellipse transform="matrix(.9992 .04078 -.004051 1 0 0)" cx="-1241" cy="548.7" rx="3.907" ry="15.43"  stroke-width="1.235"/><ellipse transform="matrix(.9997 .02513 -.006579 1 0 0)" cx="-1237" cy="529.2" rx="7.883" ry="19.18"  stroke-width="1.235"/><g stroke-width="1.235"><path d="m-1235 525.1 5.751-20.07-1.961-29.76-10.08-2.598-0.7923 7.047" /><path d="m-1245 513-0.4112 2.597 5.634 6.54" /><path d="m-1231 366.6 2.493 49.49-1.726 52.85-2.009 0.587-0.3899 5.069" /></g><ellipse transform="matrix(.9943 .1067 -.08855 .9961 0 0)" cx="-1175" cy="635.8" rx="1.993" ry="4.801"  stroke-width="1.235"/><ellipse transform="matrix(.9944 .1057 -.08883 .996 0 0)" cx="-1173" cy="634.6" rx="4.871" ry="11.25"  stroke-width="1.235"/><path d="m-1190 279.1c-13.64 30.25-26.74 60.57-36.2 91.28l4.991 96.51-2.83 30.66"  stroke-width="1.235"/><path d="m-1222 533.5 1.263-11.42 15.45-66.46 5.776 0.8042-6.929 79.59 3.71 0.1668"  stroke-width="1.764"/><path d="m-1200 456.4-14.78 66.06-4.677 48.55"  stroke-width="1.235"/><path d="m-1185 509.5h13.81v13.25h-13.81z"  stroke-width="1.235"/><path d="m-1164 509.6h13.81v13.25h-13.81z"  stroke-width="1.235"/><ellipse transform="matrix(.9945 .1046 -.08971 .996 0 0)" cx="-1172" cy="512.5" rx="5.791" ry="13.24"  stroke-width="1.235"/><path d="m-1214 380.2 5.501 0.5625-1 14.5-5.501-0.5625z"  stroke-width="1.235"/><path d="m-1226 370.4 40.58-22.77"  stroke-width="1.235"/><path d="m-1175 277.9-19.27 73.86"  stroke-width="1.235"/><ellipse transform="matrix(.8483 .5295 -.4252 .9051 0 0)" cx="-963.8" cy="838.4" rx=".6789" ry="4.8"  stroke-width="1.239"/><ellipse transform="matrix(.8499 .5269 -.4253 .9051 0 0)" cx="-963.1" cy="835.5" rx="1.658" ry="11.25"  stroke-width="1.239"/><path d="m-1139 226.5-12.46 104.3 5.49 17.82 5.546-1.139 20.79 0.1323"  stroke-width="1.235"/><path d="m-1140 233.6 4.495-1.966 15.81-0.0296"  stroke-width="1.235"/><path d="m-1131 240.5h5.063v9.983h-5.063z"  stroke-width="1.235"/><ellipse transform="matrix(.9999 .01048 -.01577 .9999 0 0)" cx="-1161" cy="415.1" rx="10.66" ry="10.82"  stroke-width="1.235"/><ellipse transform="matrix(.9999 .01048 -.01578 .9999 0 0)" cx="-1161" cy="415.1" rx="17.2" ry="17.45"  stroke-width="1.235"/><path d="m-1170 420.3 22.85 2.889 3.709-2.794-0.017-35.48-3.106-2.844-22.61 3.247"  stroke-width="1.235"/><ellipse transform="matrix(.9999 .01048 -.01577 .9999 0 0)" cx="-1160" cy="480.8" rx="10.66" ry="10.82"  stroke-width="1.235"/><ellipse transform="matrix(.9999 .01048 -.01578 .9999 0 0)" cx="-1160" cy="480.8" rx="17.2" ry="17.45"  stroke-width="1.235"/><g stroke-width="1.235"><path d="m-1170 486 22.85 2.889 3.709-2.794-0.017-35.48-3.106-2.844-22.61 3.247" /><path d="m-1147 423.2 0.5859 24.64" /><path d="m-1146 348.6-0.088 33.43" /><path d="m-1147 488.9-1.131 49.28" /><path d="m-1143 384.9 23.32 0.0489" /><path d="m-1143 420.4 23.32 0.0489" /><path d="m-1143 450.7 23.32 0.0489" /><path d="m-1143 486.1 23.32 0.0489" /><path d="m-1137 486.7 0.2163 45.81 16.57 0.1093" /><path d="m-1186 347.6 34.02-16.84" /></g><path d="m-1176 369.4h3.472v3.354h-3.472z"  stroke-width="1.235"/><path d="m-1280 431 9.408 5.664"  stroke-width="1.235"/><path d="m-1260 396.8 9.407 5.664"  stroke-width="1.235"/><path d="m-1207 553.3 21.08 0.0697 2.891-3.687 0.5498-4.187v-4.204l17.44 3e-3 -0.07-3.437"  stroke-width="1.764"/><path d="m-1224 547.8-3.915-17.4"  stroke-width="1.764"/><path d="m-1187 536.6 1.103 4.821 3.356-0.0477"  stroke-width="1.235"/><path d="m-1204 541.4 18.35-0.0545"  stroke-width="1.235"/><path d="m-1205 545.6 22.87-0.0545"  stroke-width="1.235"/><g stroke-width="1.235"><path d="m-1153 208.6 7.595 4.602" /><path d="m-1140 180.2c-0.9276 7.512-0.8518 14.12 0.387 24.4" /><path d="m-1120 197.2 12.55 0.317c2.223 0.2328 3.186 1.883 3.529 4.231l3.291 24.69 12.21 0.2854 4.033-3.295c-2.828-21.38-11.5-39.93-23.99-56.65l-11.63-0.0288" /><path d="m-1088 226.7c-5.892-16.66-11.04-21.28-16.3-27.55" /><path d="m-1100 180.2-6.323-3.046-14.11-0.0323" /></g><ellipse transform="matrix(-.9999 .01049 .01576 .9999 0 0)" cx="1094" cy="233.4" rx="6.761" ry="6.865"  stroke-width="1.235"/><ellipse transform="matrix(-.9999 .01049 .01576 .9999 0 0)" cx="1050" cy="417.3" rx="6.761" ry="6.865"  stroke-width="1.235"/><ellipse transform="matrix(-.9999 .01048 .01577 .9999 0 0)" cx="1050" cy="417.3" rx="12.08" ry="12.26"  stroke-width="1.235"/><g stroke-width="1.235"><path d="m-944.2 517-6.012-46.73-55.79-97.24" /><path d="m-999.9 472.5-6.114-99.42" /><path d="m-1006 373-3.891-10.57c-24.6-57.44-50.84-113.6-79.68-167.8l1.416-2.425" /><path d="m-1084 223.5 30.24 124.2 15.23 18.92 1.995 5.129 14.77 135.4" /><path d="m-1047 279.3-24.26-1.948" /><path d="m-943.8 457.4-6.358 12.87" /><path d="m-998 367.2-10.53-0.6032" /><path d="m-1048 416.8 4.001-13.04 9.861-4.003" /></g><ellipse transform="matrix(-.9989 .04742 .003484 1 0 0)" cx="998.9" cy="450.7" rx="2.326" ry="10.68"  stroke-width="1.235"/><ellipse transform="matrix(-.9992 .04078 .004051 1 0 0)" cx="1e3" cy="457.3" rx="3.907" ry="15.43"  stroke-width="1.235"/><ellipse transform="matrix(-.9997 .02513 .006579 1 0 0)" cx="1004" cy="472.9" rx="7.883" ry="19.18"  stroke-width="1.235"/><g stroke-width="1.235"><path d="m-1005 525.1-5.751-20.07 1.961-29.76 10.08-2.598 0.7923 7.047" /><path d="m-994.8 513 0.4112 2.597-5.633 6.54" /><path d="m-1009 366.6-2.493 49.49 1.726 52.85 2.009 0.587 0.3899 5.069" /></g><ellipse transform="matrix(-.9943 .1067 .08855 .9961 0 0)" cx="1057" cy="396.8" rx="1.993" ry="4.801"  stroke-width="1.235"/><ellipse transform="matrix(-.9944 .1057 .08883 .996 0 0)" cx="1058" cy="397.8" rx="4.871" ry="11.25"  stroke-width="1.235"/><path d="m-1050 279.1c13.64 30.25 26.74 60.57 36.2 91.28l-4.991 96.51 2.83 30.66"  stroke-width="1.235"/><path d="m-1018 533.5-1.263-11.42-15.45-66.46-5.776 0.8042 6.929 79.59-3.71 0.1668"  stroke-width="1.764"/><path d="m-1040 456.4 14.78 66.06 4.677 48.55"  stroke-width="1.235"/><path d="m-1055 509.5h-13.81v13.25h13.81z"  stroke-width="1.235"/><path d="m-1076 509.6h-13.81v13.25h13.81z"  stroke-width="1.235"/><ellipse transform="matrix(-.9945 .1046 .08971 .996 0 0)" cx="1059" cy="278.1" rx="5.791" ry="13.24"  stroke-width="1.235"/><path d="m-1026 380.2-5.501 0.5625 1 14.5 5.501-0.5625z"  stroke-width="1.235"/><path d="m-1014 370.4-40.58-22.77"  stroke-width="1.235"/><path d="m-1065 277.9 19.27 73.86"  stroke-width="1.235"/><ellipse transform="matrix(-.8483 .5295 .4252 .9051 0 0)" cx="1078" cy="-356" rx=".6789" ry="4.8"  stroke-width="1.239"/><ellipse transform="matrix(-.8499 .5269 .4253 .9051 0 0)" cx="1078" cy="-352.8" rx="1.658" ry="11.25"  stroke-width="1.239"/><path d="m-1101 226.5 12.46 104.3-5.49 17.82-5.546-1.139-20.79 0.1323"  stroke-width="1.235"/><path d="m-1100 233.6-4.495-1.966-15.81-0.0296"  stroke-width="1.235"/><path d="m-1109 240.5h-5.063v9.983h5.063z"  stroke-width="1.235"/><ellipse transform="matrix(-.9999 .01048 .01577 .9999 0 0)" cx="1078" cy="391.6" rx="10.66" ry="10.82"  stroke-width="1.235"/><ellipse transform="matrix(-.9999 .01048 .01578 .9999 0 0)" cx="1078" cy="391.6" rx="17.2" ry="17.45"  stroke-width="1.235"/><path d="m-1070 420.3-22.85 2.889-3.709-2.794 0.017-35.48 3.106-2.844 22.61 3.247"  stroke-width="1.235"/><ellipse transform="matrix(-.9999 .01048 .01577 .9999 0 0)" cx="1079" cy="457.3" rx="10.66" ry="10.82"  stroke-width="1.235"/><ellipse transform="matrix(-.9999 .01048 .01578 .9999 0 0)" cx="1079" cy="457.3" rx="17.2" ry="17.45"  stroke-width="1.235"/><g stroke-width="1.235"><path d="m-1070 486-22.85 2.889-3.709-2.794 0.017-35.48 3.106-2.844 22.61 3.247" /><path d="m-1093 423.2-0.5858 24.64" /><path d="m-1094 348.6 0.088 33.43" /><path d="m-1093 488.9 1.131 49.28" /><path d="m-1097 384.9-23.32 0.0489" /><path d="m-1097 420.4-23.32 0.0489" /><path d="m-1097 450.7-23.32 0.0489" /><path d="m-1097 486.1-23.32 0.0489" /><path d="m-1103 486.7-0.2164 45.81-16.57 0.1093" /><path d="m-1054 347.6-34.02-16.84" /></g><path d="m-1064 369.4h-3.472v3.354h3.472z"  stroke-width="1.235"/><path d="m-959.9 431-9.407 5.664"  stroke-width="1.235"/><path d="m-979.7 396.8-9.408 5.664"  stroke-width="1.235"/><path d="m-1033 553.3-21.08 0.0697-2.891-3.687-0.5498-4.187v-4.204l-17.44 3e-3 0.07-3.437"  stroke-width="1.764"/><path d="m-1016 547.8 3.915-17.4"  stroke-width="1.764"/><path d="m-1053 536.6-1.103 4.821-3.356-0.0477"  stroke-width="1.235"/><path d="m-1036 541.4-18.35-0.0545"  stroke-width="1.235"/><path d="m-1035 545.6-22.87-0.0545"  stroke-width="1.235"/><g stroke-width="1.235"><path d="m-1087 208.6-7.595 4.602" /><path d="m-1100 180.2c0.9276 7.512 0.8517 14.18-0.387 24.47" /><path d="m-1110 498.7h-20.89v28.67h20.89z" /></g></g><g transform="translate(1259)"  fill="none"  ><path d="m-610 154.3c-3.995 0.0493-8.56 0.2108-12.28 5.59l-7.463 9.939c-37.25 63.15-68.61 131.2-102.3 197.3l-54.16 90.19-8.5 58.99 64.69 5.756 93.72 0.0547 0.209 13.54 2.887 1.645 23.17-0.1387 23.17 0.1387 2.887-1.645 0.209-13.54 93.72-0.0547 64.69-5.756-8.5-58.99-54.16-90.19c-33.66-66.14-65.02-134.2-102.3-197.3l-7.463-9.939c-3.719-5.379-8.284-5.541-12.28-5.59z"  stroke-width="1.764"/><ellipse transform="matrix(.9999 .01044 -.01584 .9999 0 0)" cx="-606.1" cy="248.3" rx="13.97" ry="14.12"  stroke-width="1.235"/><path d="m-624 242 28.3-0.2575"  stroke-width="1.235"/><path d="m-610 301.7-18.83-0.2196-8.625-11.6 0.1397-49.52c0.1993-14.72 13.57-27.73 27.32-27.75"  stroke-width="1.235"/><ellipse transform="matrix(.9999 -.01044 -.01584 -.9999 0 0)" cx="-697.3" cy="-443.5" rx="13.97" ry="14.12"  stroke-width="1.235"/><path d="m-704.3 450.7 28.3 0.2575"  stroke-width="1.235"/><path d="m-690.2 391-18.83 0.2196-8.625 11.6 0.1397 49.52c0.1993 14.72 13.57 27.73 27.32 27.75"  stroke-width="1.235"/><path d="m-690.2 391 18.83 0.2196 8.625 11.6-0.1397 49.52c-0.1993 14.72-13.57 27.73-27.32 27.75"  stroke-width="1.235"/><g stroke-width="1.235"><ellipse transform="matrix(.9999 .01049 -.01576 .9999 0 0)" cx="-766.8" cy="485.3" rx="6.761" ry="6.865" /><ellipse transform="matrix(.9999 .01049 -.01576 .9999 0 0)" cx="-717.1" cy="516.8" rx="6.761" ry="6.865" /><ellipse transform="matrix(.9999 .01049 -.01576 .9999 0 0)" cx="-688.2" cy="329.9" rx="6.761" ry="6.865" /><ellipse transform="matrix(.9999 .01049 -.01576 .9999 0 0)" cx="-625.6" cy="196.5" rx="6.761" ry="6.865" /></g><g stroke-width="1.235"><path d="m-728.7 515-1.312 7.113" /><path d="m-761.2 416 8.243 0.1019 24.19 42.93 0.411 44.26" /><path d="m-757 415.9-24.94 41.79-8.74 58.77" /><path d="m-706.7 315.9 15.85-0.2521 59.47-119.5" /><path d="m-610 169.4-8.422 0.1115-7.114 13.94" /><path d="m-623.9 179.8 13.89-0.0369" /><path d="m-610 474.3-23.75 0.1723-4.807 6.75-22.32-0.0454c-19.77 22.75-61.67 10.14-62.21-23.98l-3.937-1.817-0.1519-61.15c0.2112-4.023 1.383-7.325 2.921-10.35l27.34-55.63" /><path d="m-665.4 522.6-0.327-30.49c-14.56 11.2-36.22 8.345-48.34-4.941l-0.0461 34.66" /></g><g stroke-width="1.235"><path d="m-638.2 489.7-0.1098 25.61h-19.16z" /><path d="m-693.6 333.1 20.66 18.88-0.1503 25.68-42.31-0.125z" /><path d="m-652.5 338.4-0.0951 21.4h-16.6z" /><path d="m-664 488.2h16.91v3.707h-16.91z" /><path d="m-737.7 385.9 27.54-54.05 4.178-0.4418-27.54 54.05z" /><path d="m-659.8 378.9h6.919v52.85h-6.919z" /><path d="m-639.7 228.1-1.083 86.76-20.3 26.92-23.92-27.88 42.21-86.39z" /></g><path d="m-717.7 402.8h54.92"  stroke-width="1.235"/><path d="m-637.5 289.9h54.92"  stroke-width="1.235"/><path d="m-558.2 283.7h-15.93v30.31h15.93z"  stroke-width="1.235"/><ellipse transform="matrix(.9999 .01088 -.0152 .9999 0 0)" cx="-650.1" cy="299.6" rx="7.122" ry="7.5"  stroke-width="1.235"/><g stroke-width="1.235"><path d="m-654.6 318.7-7.915-0.0962-3.625-5.083 0.0586-21.7c0.0838-6.452 5.701-12.15 11.48-12.16" /><path d="m-654.6 318.7 7.915-0.0962 3.625-5.083-0.0586-21.7c-0.0839-6.452-5.701-12.15-11.48-12.16" /><path d="m-690.4 436.4 0.0913-45.71" /></g><path d="m-654.7 319.1 0.0913-19.43"  stroke-width="1.235"/><path d="m-714.1 521.8 3.584 15.89 30.71 0.0635 2.891-3.687 0.5498-4.187v-4.204l17.44 3e-3 -0.07-3.437"  stroke-width="1.764"/><path d="m-712.3 529.5-5.617-1.187-1.36-5.902"  stroke-width="1.764"/><path d="m-680.1 522.2 0.4154 3.571 3.356-0.0477"  stroke-width="1.235"/><path d="m-713.1 525.5 33.35 0.258"  stroke-width="1.235"/><path d="m-712.3 529.5 35.96 0.4066"  stroke-width="1.235"/><path d="m-610 301.7 18.83-0.2196 8.625-11.6-0.1397-49.52c-0.1993-14.72-13.57-27.73-27.32-27.75"  stroke-width="1.235"/><ellipse transform="matrix(-.9999 -.01044 .01584 -.9999 0 0)" cx="522.5" cy="-456.2" rx="13.97" ry="14.12"  stroke-width="1.235"/><path d="m-515.7 450.7-28.3 0.2575"  stroke-width="1.235"/><path d="m-529.8 391 18.83 0.2196 8.625 11.6-0.1397 49.52c-0.1993 14.72-13.57 27.73-27.32 27.75"  stroke-width="1.235"/><path d="m-529.8 391-18.83 0.2196-8.625 11.6 0.1397 49.52c0.1993 14.72 13.57 27.73 27.32 27.75"  stroke-width="1.235"/><g stroke-width="1.235"><ellipse transform="matrix(-.9999 .01049 .01576 .9999 0 0)" cx="453.1" cy="472.5" rx="6.761" ry="6.865" /><ellipse transform="matrix(-.9999 .01049 .01576 .9999 0 0)" cx="502.8" cy="504" rx="6.761" ry="6.865" /><ellipse transform="matrix(-.9999 .01049 .01576 .9999 0 0)" cx="531.7" cy="317.1" rx="6.761" ry="6.865" /><ellipse transform="matrix(-.9999 .01049 .01576 .9999 0 0)" cx="594.3" cy="183.7" rx="6.761" ry="6.865" /></g><g stroke-width="1.235"><path d="m-491.3 515 1.312 7.113" /><path d="m-458.8 416-8.243 0.1019-24.19 42.93-0.411 44.26" /><path d="m-463 415.9 24.94 41.79 8.74 58.77" /><path d="m-513.3 315.9-15.85-0.2521-59.47-119.5" /><path d="m-610 169.4 8.422 0.1115 7.114 13.94" /><path d="m-596.1 179.8-13.89-0.0369" /><path d="m-610 474.3 23.75 0.1723 4.807 6.75 22.32-0.0454c19.77 22.75 61.67 10.14 62.21-23.98l3.937-1.817 0.1519-61.15c-0.2112-4.023-1.383-7.325-2.921-10.35l-27.34-55.63" /><path d="m-554.6 522.6 0.327-30.49c14.56 11.2 36.22 8.345 48.34-4.941l0.0461 34.66" /></g><g stroke-width="1.235"><path d="m-581.8 489.7 0.1098 25.61h19.16z" /><path d="m-526.4 333.1-20.66 18.88 0.1503 25.68 42.31-0.125z" /><path d="m-567.5 338.4 0.0951 21.4h16.6z" /><path d="m-556 488.2h-16.91v3.707h16.91z" /><path d="m-482.3 385.9-27.54-54.05-4.178-0.4418 27.54 54.05z" /><path d="m-560.2 378.9h-6.919v52.85h6.919z" /><path d="m-580.3 228.1 1.083 86.76 20.3 26.92 23.92-27.88-42.21-86.39z" /></g><path d="m-502.3 402.8h-54.92"  stroke-width="1.235"/><path d="m-529.6 436.4-0.0913-45.71"  stroke-width="1.235"/><path d="m-505.9 521.8-3.584 15.89-30.71 0.0635-2.891-3.687-0.5498-4.187v-4.204l-17.44 3e-3 0.07-3.437"  stroke-width="1.764"/><path d="m-507.7 529.5 5.617-1.187 1.36-5.902"  stroke-width="1.764"/><path d="m-539.9 522.2-0.4154 3.571-3.356-0.0477"  stroke-width="1.235"/><path d="m-506.9 525.5-33.35 0.258"  stroke-width="1.235"/><path d="m-507.7 529.5-35.96 0.4066"  stroke-width="1.235"/><g stroke-width="1.235"><path d="m-592 444.7h-35.97v23.73h35.97z" /><path d="m-573.8 364.6h-72.39v73.4h72.39z" /><path d="m-592.3 312.8h-35.39v24.4h35.39z" /></g><path d="m-610 301.7v-45.53"  stroke-width="1.235"/><path d="m-587.5 495.9h-44.93v29.39h44.93z"  stroke-width="1.235"/></g><g  ><g fill="none" stroke="#979797" stroke-width="3.587"><path d="m442.9 86.92c21.52 3.996 37.82 22.87 37.82 45.55 0 5.371-0.9139 10.53-2.595 15.33m-7.842 13.97c-8.496 10.4-21.42 17.03-35.89 17.03-14.38 0-27.24-6.555-35.74-16.84m-7.716-13.37c-1.862-5.019-2.88-10.45-2.88-16.12 0-23.05 16.84-42.18 38.89-45.74" /><g><path d="m434.9 71.19v15.85" /><path d="m395.6 155.1-13.68 8.014" /><path d="m474.2 155.1 13.68 8.014" /></g></g><g ></g><g fill="#f39745" ></g><g fill="#f39745" ><g stroke-width="1.764"></g><g stroke-width="1.764"></g><g stroke-width="1.764"></g><g stroke-width="1.764"></g></g><g fill="#f39746"  stroke-width="1.235"></g></g>
  </svg>
</svg>
