<svg xmlns="http://www.w3.org/2000/svg" viewBox="0 0 390 640" preserveAspectRatio="xMidYMid meet">
  <style>
    * { vector-effect: non-scaling-stroke; }
    path, rect, circle, ellipse, polygon, polyline, line {
      fill: none !important;
      stroke: #73f8ff !important;
      stroke-width: 2.25px !important;
      stroke-linecap: round;
      stroke-linejoin: round;
      opacity: 0.92;
    }
  </style>
  <svg x="0" y="0" width="870" height="640" viewBox="0 0 870 640" preserveAspectRatio="xMinYMin meet">

<g transform="translate(1108,37)"  fill="none"  ><path d="m-456.8 132.5c-7.141 0.2946-10.79 5.29-13.24 8.375-21.76 27.71-29.04 101.3-35.76 177.5l-35.54 29.22-1.926-2.719-32.46 27.79 2.35 3.646-12.54 10.93-2.305-2.904-26.91 22.97-5.395-50.01-13.44-0.0137c-2.029 1.301-3.086 3.818-4.139 6.34-3.657 12.9-5.083 26.47-6.432 40.06-1.575 4.107-1.214 31.12-1.799 36.88l-3.086 16.56 0.457 36.69c-0.0216 5.956 0.677 12.02 4.127 18.47l19.79-0.4258c5.318-11.41 8.369-29.48 9.199-45.34l48.79-17.05 52.44 52.32 4.809 6.543 7.535 17.42 8.57 0.043 18.48-0.084 0.0488-4.779 18.37 0.0254 18.37-0.0254 0.0488 4.751 18.48 0.1125 10.13-0.043 7.535-17.42 3.246-4.98 52.44-53.88 48.79 17.05c0.8301 15.86 3.882 33.94 9.199 45.34l19.79 0.4258c3.45-6.452 4.149-12.51 4.127-18.47l0.457-36.69-2.379-16.63c-0.585-5.756-0.9311-32.7-2.506-36.8-1.349-13.59-2.775-27.16-6.432-40.06-1.053-2.522-2.11-5.038-4.139-6.34l-13.44 0.0137-5.395 50.01-26.91-22.97-2.305 2.904-12.54-10.93 2.35-3.646-32.81-28.54-1.574 3.471-35.54-29.22c-6.711-76.12-14-149.8-35.76-177.5-2.453-3.085-6.097-8.08-13.24-8.375z"  stroke-width="1.764"/><g stroke-width="1.764"><path d="m-500.1 525.5 1.239 5.117 13.46 0.0351 0.7651-4.666" /><path d="m-475.2 520.9 2.465-12.02c5.881 2.578 11.25 2.864 15.9 2.864" /><path d="m-615.1 407.3c1.573 19.96 0.2892 39.56-0.7099 59.2" /></g><g stroke-width="1.235"><path d="m-649.8 469.2 34.27 0.121" /><path d="m-649.3 489.9 11.1 0.0438 2.002 4.582 4.535-0.0552 1.964-4.493 11.04 0.0436" /><path d="m-639.6 370.2c9.511-1.143 15.15-0.583 20.58 0.0727" /></g><g stroke-width="1.764"><path d="m-472.7 508.9 6.068-32.07 0.4647-57.96 9.371-0.0405" /><path d="m-467.2 479.4 10.43 0.0351" /><path d="m-469.3 489.6 12.51 0.0351" /></g><path d="m-469 510 6.029-11.97 2.587 2.117 3.638-0.0208"  stroke-width="1.235"/><path d="m-613.1 465.7 2.288-45.11 9.721-8.533c8.646 14.17 21.27 23.89 34.03 37.45"  stroke-width="1.764"/><path d="m-646.8 427.8 28.56 0.1009 3.643 4.958"  stroke-width="1.235"/><ellipse transform="matrix(.9999 .01053 -.0157 .9999 0 0)" cx="-593.7" cy="435.5" rx="1.67" ry="1.702"  stroke-width="1.235"/><ellipse transform="matrix(.9999 .01053 -.0157 .9999 0 0)" cx="-467.4" cy="169.4" rx="1.67" ry="1.702"  stroke-width="1.235"/><path d="m-611.6 442.6c11.11-3.773 16.82 7.381 23.63 14.76"  stroke-width="1.235"/><g stroke-width="1.764"><path d="m-564.7 451.7 14.68-5.172c-12.24-22.7-24.15-41.77-35.92-59.31" /><path d="m-573.4 376.3 34.24 49.38c1.15 1.455 3.416 1.333 5.238 1.321l16.51-0.2599c5.84-0.2287 13.27 1.314 18.41 4.148 4.201 2.316 8.522 7.171 10.61 10.75l4.658 8.767 26.91 0.1913" /><path d="m-488.2 441.7 31.37-0.0329" /><path d="m-541.3 347.6c16.61 22.66 19.4 39.97 21.7 57.09 2.575 20.2 24.73 14.3 24.96 3.785l-0.8176-40.55c-1.291-34.15 5.612-62.56 6.666-102.8l1.079-38.89c0.6966-13.27-7.886 8.758-10.53 17.8" /><path d="m-550 446.6 39.17 46.69c7.064 8.992 8.185 20.5 8.557 32.5" /><path d="m-552.4 441.6c12.2-1.436 29.23 7.727 32.61 10.49 11.24 9.183 16.61 29.52 16.81 34.7l0.0268 6.087-5.503-1.713-41.57-44.59" /></g><path d="m-563.2 390.8-0.4991 12.15c-0.1449 6.438 0.8793 7.03 4.245 7.279l10.08 0.6339"  stroke-width="1.235"/><path d="m-511.3 417.5c3.389-19.45 5.459-45.8 3.693-71.84-0.2296-3.404-2.675-4.229-4.799-3.045l-21.87 16.01"  stroke-width="1.764"/><g stroke-width="1.235"><path d="m-523.9 381.3c-0.4086-15.93 9.425-22.2 16.27-26.38" /><path d="m-522.4 388.8c1.52-7.156 5.912-8.848 15.33-13.88" /><path d="m-483.7 450.4c3.58 0.953 8.09 1.88 8.199 8.961l0.342 61.53" /><path d="m-466.2 418.9 0.1544-33.49c5.3e-4 -1.451 2.893-1.417 2.881-0.0409l-0.1781 33.91" /><path d="m-488.2 441.7c13.05-43.94 23.36-78.59 31.37-79.04" /></g><ellipse transform="matrix(.9999 .01048 -.01577 .9999 0 0)" cx="-451.6" cy="332" rx="13.53" ry="13.73"  stroke-width="1.235"/><g stroke-width="1.235"><path d="m-630.8 391.4c-3.973-0.0417-7.245 3.195-7.309 7.229-2e-3 4.341 3.527 15.41 5.291 23.11 0.765 2.709 3.342 2.656 3.982 0 1.705-7.654 4.946-18.94 5.115-22.96 0.0634-4.034-3.107-7.338-7.08-7.379z" /><path d="m-456.8 246.8c-3.973 0.0417-7.245-3.195-7.309-7.229-2e-3 -4.341 3.527-15.41 5.291-23.11 0.765-2.709 3.342-2.656 3.982 0 1.705 7.654 4.946 18.94 5.115 22.96 0.0634 4.034-3.107 7.338-7.08 7.379z" /><path d="m-535 399.9c-3.973 0.0417-7.245-3.195-7.309-7.229-2e-3 -4.341 1.194-6.834 4.054-14.54 1.365-3.491 5.045-3.656 6.457 0 2.765 7.654 3.709 10.37 3.878 14.39 0.0634 4.034-3.107 7.338-7.08 7.379z" /></g><path d="m-515.5 365.1h5.794v5.485h-5.794z"  stroke-width="1.235"/><path d="m-507.3 417.6c10.64-45.35 12.2-106.7 1.537-99.19"  stroke-width="1.235"/><path d="m-494.3 440.5c-3.973-0.0417-7.245 3.195-7.309 7.229-2e-3 4.341 3.527 15.41 5.291 23.11 0.765 2.709 3.342 2.656 3.982 0 1.705-7.654 4.946-18.94 5.115-22.96 0.0634-4.034-3.107-7.338-7.08-7.379z"  stroke-width="1.235"/><g stroke-width="1.235"><path d="m-504.7 304 10.48-3.583 1.731 13.96" /><path d="m-494.7 234.3c0.3081 9.446 1.422 19.12 5.934 29.73" /><path d="m-456.8 140.2c-15.01 0.2563-24.74 43.37-26.81 60.92 3.645-0.4144 7.431-1.465 12.39-7.791 1.232-12.21 7.009-37.78 12.35-49.83l2.072 4.695" /></g><g stroke-width="1.764"><path d="m-413.4 525.5-1.239 5.117-13.46 0.0351-0.7651-4.666" /><path d="m-438.4 520.9-2.465-12.02c-5.912 2.508-11.47 2.986-15.9 2.864" /><path d="m-298.5 407.3c-1.573 19.96-0.2892 39.56 0.7099 59.2" /></g><g stroke-width="1.235"><path d="m-263.8 469.2-34.27 0.121" /><path d="m-264.3 489.9-11.1 0.0438-2.002 4.582-4.535-0.0552-1.964-4.493-11.04 0.0436" /><path d="m-274 370.2c-9.511-1.143-15.15-0.583-20.58 0.0727" /></g><g stroke-width="1.764"><path d="m-440.9 508.9-6.068-32.07-0.4647-57.96-9.371-0.0405" /><path d="m-446.4 479.4-10.43 0.0351" /><path d="m-444.3 489.6-12.51 0.0351" /></g><path d="m-444.5 510-6.029-11.97-2.587 2.117-3.638-0.0208"  stroke-width="1.235"/><path d="m-300.5 465.7-2.288-45.11-9.721-8.533c-8.646 14.17-21.27 23.89-34.03 37.45"  stroke-width="1.764"/><path d="m-266.8 427.8-28.56 0.1009-3.643 4.958"  stroke-width="1.235"/><ellipse transform="matrix(-.9999 .01053 .0157 .9999 0 0)" cx="319.8" cy="425.9" rx="1.67" ry="1.702"  stroke-width="1.235"/><ellipse transform="matrix(-.9999 .01053 .0157 .9999 0 0)" cx="446.1" cy="159.8" rx="1.67" ry="1.702"  stroke-width="1.235"/><path d="m-302 442.6c-11.11-3.773-16.82 7.381-23.63 14.76"  stroke-width="1.235"/><g stroke-width="1.764"><path d="m-348.9 451.7-14.68-5.172c12.24-22.7 24.15-41.77 35.92-59.31" /><path d="m-340.2 376.3-34.24 49.38c-1.15 1.455-3.416 1.333-5.238 1.321l-16.51-0.2599c-5.84-0.2287-13.27 1.314-18.41 4.148-4.201 2.316-8.522 7.171-10.61 10.75l-4.658 8.767-26.91 0.1913" /><path d="m-425.4 441.7-31.37-0.0329" /><path d="m-372.3 347.6c-16.61 22.66-19.4 39.97-21.7 57.09-2.575 20.2-24.73 14.3-24.96 3.785l0.8176-40.55c1.291-34.15-5.612-62.56-6.666-102.8l-1.079-38.89c-0.6966-13.27 7.886 8.758 10.53 17.8" /><path d="m-363.6 446.6-39.17 46.69c-7.064 8.992-8.185 20.5-8.557 32.5" /><path d="m-361.2 441.6c-12.2-1.436-29.23 7.727-32.61 10.49-11.24 9.183-16.61 29.52-16.81 34.7l-0.0268 6.087 5.503-1.713 41.57-44.59" /></g><path d="m-350.4 390.8 0.4991 12.15c0.1449 6.438-0.8793 7.03-4.245 7.279l-10.08 0.6339"  stroke-width="1.235"/><path d="m-402.3 417.5c-3.389-19.45-5.459-45.8-3.693-71.84 0.2296-3.404 2.675-4.229 4.799-3.045l21.87 16.01"  stroke-width="1.764"/><g stroke-width="1.235"><path d="m-389.7 381.3c0.4086-15.93-9.425-22.2-16.27-26.38" /><path d="m-391.1 388.8c-1.52-7.156-5.912-8.848-15.33-13.88" /><path d="m-429.9 450.4c-3.58 0.953-8.09 1.88-8.199 8.961l-0.342 61.53" /><path d="m-447.4 418.9-0.1544-33.49c-5.3e-4 -1.451-2.893-1.417-2.881-0.0409l0.1781 33.91" /><path d="m-425.4 441.7c-13.05-43.94-23.36-78.59-31.37-79.04" /></g><path d="m-282.8 391.4c3.973-0.0417 7.245 3.195 7.309 7.229 2e-3 4.341-3.527 15.41-5.291 23.11-0.765 2.709-3.342 2.656-3.982 0-1.705-7.654-4.946-18.94-5.115-22.96-0.0634-4.034 3.107-7.338 7.08-7.379z"  stroke-width="1.235"/><path d="m-378.6 399.9c3.973 0.0417 7.245-3.195 7.309-7.229 2e-3 -4.341-1.194-6.834-4.054-14.54-1.365-3.491-5.045-3.656-6.457 0-2.765 7.654-3.709 10.37-3.878 14.39-0.0634 4.034 3.107 7.338 7.08 7.379z"  stroke-width="1.235"/><path d="m-398 365.1h-5.794v5.485h5.794z"  stroke-width="1.235"/><path d="m-406.3 417.6c-10.64-45.35-12.2-106.7-1.537-99.19"  stroke-width="1.235"/><path d="m-419.3 440.5c3.973-0.0417 7.245 3.195 7.309 7.229 2e-3 4.341-3.527 15.41-5.291 23.11-0.765 2.709-3.342 2.656-3.982 0-1.705-7.654-4.946-18.94-5.115-22.96-0.0634-4.034 3.107-7.338 7.08-7.379z"  stroke-width="1.235"/><g stroke-width="1.235"><path d="m-408.8 304-10.48-3.583-1.731 13.96" /><path d="m-418.9 234.3c-0.3081 9.446-1.422 19.12-5.934 29.73" /><path d="m-456.8 140.2c15.01 0.2563 24.74 43.37 26.81 60.92-3.645-0.4144-7.431-1.465-12.39-7.791-1.232-12.21-7.009-37.78-12.35-49.83l-2.072 4.695" /></g></g><g transform="translate(1173,37)"  fill="none"  ><path d="m-953.8 132.5c-7.141 0.2946-10.79 5.29-13.24 8.375-21.76 27.71-29.04 101.3-35.76 177.5l-35.54 29.22-1.572-3.471-32.81 28.54 2.35 3.646-12.54 10.93-2.305-2.904-26.91 22.97-5.394-50.01-13.44-0.0137c-2.029 1.301-3.086 3.818-4.139 6.34-3.657 12.9-5.083 26.47-6.432 40.06-1.575 4.107-2.981 8.496-3.566 14.25l-1.318 39.18 0.4571 36.69c-0.022 5.956 0.677 12.02 4.127 18.47l19.8-0.4258c5.318-11.41 8.369-29.48 9.199-45.34l48.79-17.05 52.44 53.88 3.246 4.98 7.535 17.42 10.13 0.043 1.775 2.475 16.7-0.9961 0.0488-6.342 18.37 0.0254 18.37-0.0254 0.0488 6.342 16.7 0.9961 1.775-2.475 10.13-0.043 7.535-17.42 3.246-4.98 52.44-53.88 48.79 17.05c0.8301 15.86 3.882 33.94 9.199 45.34l19.79 0.4258c3.45-6.452 4.149-12.51 4.127-18.47l0.457-36.69-1.318-39.18c-0.585-5.756-1.992-10.14-3.566-14.25-1.349-13.59-2.775-27.16-6.432-40.06-1.053-2.522-2.11-5.038-4.139-6.34l-13.44 0.0137-5.395 50.01-26.91-22.97-2.305 2.904-12.54-10.93 2.35-3.646-32.81-28.54-1.574 3.471-35.54-29.22c-6.711-76.12-14-149.8-35.76-177.5-2.453-3.085-6.097-8.08-13.24-8.375z"  stroke-width="1.764"/><g stroke-width="1.764"><path d="m-1110 465.6 2.913-43.48c0.3865-5.807 5.496-9.826 8.971-12.53 8.646 14.17 21.39 26.26 34.15 39.83" /><path d="m-1070 376.3 39.99 55.38c30.9 41.24 55.61 122.7-21.47 5.23l-31.06-49.68" /><path d="m-1112 407.3c1.573 19.96 0.2892 39.56-0.7099 59.2" /><path d="m-1146 435.9c-4.592 7.843-4.581 15.55-0.9252 23.16" /><path d="m-998.8 525.5 1.239 5.117 13.46 0.0351 0.5151-2.916" /><path d="m-953.8 427.7c-5.633 0.196-18.21 23.21-18.21 45.24l-0.1605 47.95" /></g><path d="m-953.8 160c-7.134 0.0851-20.65 12.74-23.87 28.01 7.743-15.57 17.92-16.11 23.87-16.1"  stroke-width="1.235"/><g stroke-width="1.764"><path d="m-1061 389c-5.036 10.45 3.012 13.43 11.7 16.04" /><path d="m-1051 437.7c18.01-3.032 34.03 17.25 49.39 48.44" /><path d="m-1047 444.2c15.95 16.77 36.8 46.12 45.37 43.91" /><path d="m-1038 347.6 2.655 6.039-10.37 22.61 10.67 20.36c7.931-3.449 14.37-8.509 16.21-18.52l6.795-32.43-0.5684-10.42-22.73 18.39" /></g><g stroke-width="1.235"><path d="m-1014 458.1 36.79 66.22 4.734 0.026" /><path d="m-1002 488.1 10.89 37.66" /><path d="m-1102 412.9c9.848 13.34 20.26 26.35 33.6 37.6" /><path d="m-1108 431.4c9.645-0.4576 15.83 14.05 22.82 25.13" /><path d="m-1143 405.9 23.89 0.1025 1.763-1.275 1.933-22.46" /><path d="m-1146 490.4c6.238 15.28 17.12 14.81 25.57 0.732l4.761-1.423" /><path d="m-1123 405.9c0.971-16.17 1.265-31.84 5.148-48.57" /><path d="m-1003 318.4c-5.073 67.85 1.169 147.3 11.82 180.7" /><path d="m-991.9 471.3 2.493 1.2 2.046-54.22-14.01-38.31c2.32 39.41 5.55 72.17 9.468 91.33z" /></g><path d="m-1140 433.7c0.7935-8.061 14.33-8.229 15.17 0l3.062 23.88c0.7588 5.729-4.872 9.649-10.66 9.684-5.728 0.035-11.61-3.753-10.63-9.684z"  stroke-width="1.235"/><path d="m-989.1 340.9c-0.2109-9.629 6.65-17.38 9.128-17.31 1.739 0.0465 4.111 2.545 5.229 5.688 2.91 8.261 2.076 16.21 2.375 24.25-7.219 10.12-4.412 14.69-11.61 24.75-5.794-10.51-4.584-24.43-5.125-37.38z"  stroke-width="1.235"/><path d="m-972.4 353.5c7.83-8.967 13.36-9.021 18.59-9.066"  stroke-width="1.235"/><path d="m-993.8 234.4c-3.761 30.64 5.984 50.79 13.05 37.87 6.484-13.25 14.2-25.12 14.84-44.88l0.0457-8.762c-0.0571-7.874 4.141-17.92 12.11-18.05"  stroke-width="1.235"/><ellipse cx="-953.8" cy="221.7" rx="7.646" ry="13.88"  stroke-width="1.764"/><g stroke-width="1.235"><path d="m-975 328.3 9.521 18.87" /><path d="m-992.7 265.5 13.08 57.9" /><path d="m-1e3 293.3c5.116-10.66 6.001-19.02 7.625-27.78" /><path d="m-963.2 346.3c4.688-27.15 2.919-71.44 0.704-82.85l-3.139-14.18c-0.887-2.434 0.842-12.84 6.269-18.34" /><path d="m-985.1 187.3 1.515 4.118c-2.894 10.62-5.562 24.08-3.609 30.06l4.761 15.35c2.91 10.36 1.969 34.37-2.784 35.65-4.825 1.293-7.275-19.28-7.035-30.87l-2.202-0.9308" /></g><g stroke-width="1.764"><path d="m-797.5 465.6-2.913-43.48c-0.3865-5.807-5.496-9.826-8.971-12.53-8.646 14.17-21.39 26.26-34.15 39.83" /><path d="m-837.2 376.3-39.99 55.38c-30.9 41.24-55.61 122.7 21.47 5.23l31.06-49.68" /><path d="m-795.5 407.3c-1.573 19.96-0.2892 39.56 0.7098 59.2" /><path d="m-761.9 435.9c4.591 7.843 4.581 15.55 0.9251 23.16" /><path d="m-908.8 525.5-1.239 5.117-13.46 0.0351-0.5151-2.916" /><path d="m-953.8 427.7c5.633 0.196 18.21 23.21 18.21 45.24l0.1605 47.95" /></g><path d="m-953.8 160c7.134 0.0851 20.65 12.74 23.87 28.01-7.743-15.57-17.92-16.11-23.87-16.1"  stroke-width="1.235"/><g stroke-width="1.764"><path d="m-846.2 389c5.036 10.45-3.012 13.43-11.7 16.04" /><path d="m-856.2 437.7c-18.01-3.032-34.03 17.25-49.39 48.44" /><path d="m-860.6 444.2c-15.95 16.77-36.8 46.12-45.37 43.91" /><path d="m-869.3 347.6-2.655 6.039 10.37 22.61-10.67 20.36c-7.931-3.449-14.37-8.509-16.21-18.52l-6.795-32.43 0.5685-10.42 22.73 18.39" /></g><g stroke-width="1.235"><path d="m-893.9 458.1-36.79 66.22-4.734 0.026" /><path d="m-906 488.1-10.89 37.66" /><path d="m-806 412.9c-9.848 13.34-20.26 26.35-33.6 37.6" /><path d="m-799.9 431.4c-9.645-0.4576-15.83 14.05-22.82 25.13" /><path d="m-765 405.9-23.89 0.1025-1.763-1.275-1.933-22.46" /><path d="m-761.8 490.4c-6.238 15.28-17.12 14.81-25.57 0.732l-4.761-1.423" /><path d="m-784.9 405.9c-0.971-16.17-1.265-31.84-5.148-48.57" /><path d="m-904.8 318.4c5.073 67.85-1.169 147.3-11.82 180.7" /><path d="m-915.7 471.3-2.493 1.2-2.046-54.22 14.01-38.31c-2.32 39.41-5.55 72.17-9.469 91.33z" /></g><path d="m-767.5 433.7c-0.7934-8.061-14.33-8.229-15.17 0l-3.062 23.88c-0.7588 5.729 4.872 9.649 10.66 9.684 5.728 0.035 11.61-3.753 10.63-9.684z"  stroke-width="1.235"/><path d="m-918.5 340.9c0.2109-9.629-6.65-17.38-9.128-17.31-1.739 0.0465-4.111 2.545-5.229 5.688-2.91 8.261-2.076 16.21-2.375 24.25 7.219 10.12 4.412 14.69 11.61 24.75 5.794-10.51 4.584-24.43 5.125-37.38z"  stroke-width="1.235"/><g stroke-width="1.235"><path d="m-935.2 353.5c-7.83-8.967-13.36-9.021-18.59-9.066" /><path d="m-913.7 234.4c3.761 30.64-5.984 50.79-13.05 37.87-6.484-13.25-14.2-25.12-14.84-44.88l-0.0457-8.762c0.0571-7.874-4.141-17.92-12.11-18.05" /><path d="m-932.6 328.3-9.521 18.87" /><path d="m-914.9 265.5-13.08 57.9" /><path d="m-907.3 293.3c-5.116-10.66-6.001-19.02-7.625-27.78" /><path d="m-944.4 346.3c-4.688-27.15-2.919-71.44-0.704-82.85l3.139-14.18c0.887-2.434-0.842-12.84-6.269-18.34" /><path d="m-922.4 187.3-1.515 4.118c2.894 10.62 5.562 24.08 3.609 30.06l-4.761 15.35c-2.91 10.36-1.969 34.37 2.784 35.65 4.825 1.293 7.275-19.28 7.035-30.87l2.202-0.9308" /></g><g stroke-width="1.235"><ellipse transform="matrix(.9999 .01053 -.0157 .9999 0 0)" cx="-1086" cy="417.8" rx="1.67" ry="1.702" /><ellipse transform="matrix(.9999 .01053 -.0157 .9999 0 0)" cx="-967.9" cy="166.7" rx="1.67" ry="1.702" /><ellipse transform="matrix(.9999 .01053 -.0157 .9999 0 0)" cx="-934.6" cy="166.4" rx="1.67" ry="1.702" /><ellipse transform="matrix(.9999 .01053 -.0157 .9999 0 0)" cx="-808.1" cy="414.9" rx="1.67" ry="1.702" /></g><path d="m-994.7 428.7h3.982v5.816h-3.982z"  stroke-width="1.235"/><path d="m-917.1 428.7h3.982v5.816h-3.982z"  stroke-width="1.235"/><path d="m-981.5 261.6-7.235-3.312 0.1093-15.47 7.393 2.615"  stroke-width="1.235"/><path d="m-926.3 261.6 7.235-3.312-0.1093-15.47-7.393 2.615"  stroke-width="1.235"/></g><g  ><g fill="none" stroke="#979797" stroke-width="3.587"><path d="m442.9 86.92c21.52 3.996 37.82 22.87 37.82 45.55 0 5.371-0.9139 10.53-2.595 15.33m-7.842 13.97c-8.496 10.4-21.42 17.03-35.89 17.03-14.38 0-27.24-6.555-35.74-16.84m-7.716-13.37c-1.862-5.019-2.88-10.45-2.88-16.12 0-23.05 16.84-42.18 38.89-45.74" /><g><path d="m434.9 71.19v15.85" /><path d="m395.6 155.1-13.68 8.014" /><path d="m474.2 155.1 13.68 8.014" /></g></g><g ></g><g fill="#f39745" ><g stroke-width="1.764"></g><g stroke-width="1.764"></g></g><g fill="#ff3ae1"  stroke-width="1.554"></g><g fill="#4df346"  stroke-width="1.661"></g><g fill="#f39745"  stroke-width="2"></g><g ></g><g fill="#979797"  stroke-width="3.587"></g></g>
  </svg>
</svg>
