<svg xmlns="http://www.w3.org/2000/svg" viewBox="0 0 390 640" preserveAspectRatio="xMidYMid meet">
  <style>
    * { vector-effect: non-scaling-stroke; }
    path, rect, circle, ellipse, polygon, polyline, line {
      fill: none !important;
      stroke: #73f8ff !important;
      stroke-width: 2.25px !important;
      stroke-linecap: round;
      stroke-linejoin: round;
      opacity: 0.92;
    }
  </style>
  <svg x="0" y="0" width="870" height="640" viewBox="0 0 870 640" preserveAspectRatio="xMinYMin meet">

<g transform="translate(1027)"  fill="none"  ><path d="m-794.8 202.5-16.03 41.78-8.605 44.72-9.35 51-4.031 9.957-1.719-0.1699-4.043 8.996-1.99-0.0977-6.039 10.31-2.318 0.334-5.857 8.979-3.314 0.4824-5.719 8.148-9.818 2.262-0.3047 3.537-46.39-9.52-33.67-30.47-3.512-42.91c-3.97-1.094-8.114-0.9663-12.42 0.2734-8.904 20.98-8.962 31.09-10.94 43.57l-0.8887 108.3c-0.3044 9.632 20.58 15.3 27.69 0.3848l0.1055-12.32 5.949-0.3301 0.1016 7.215 31.33 30.71 40.03 23.28 19.39 25.88c6.77 6.832 13.37 9.302 27.75 10.11l13.5 0.4785 0.5879-9.234c0.1253-1.675 1.234-3.051 2.846-3.361 1.098-0.2423 2.363 0.5489 3.889 2.953l17.59 0.2402h0.0898l17.59-0.2402c1.526-2.404 2.791-3.195 3.889-2.953 1.611 0.3105 2.72 1.686 2.846 3.361l0.5879 9.234 13.5-0.4785c14.38-0.8037 20.98-3.273 27.75-10.11l19.39-25.88 40.03-23.28 31.33-30.71 0.1016-7.215 5.949 0.3301 0.1055 12.32c7.107 14.91 27.99 9.247 27.69-0.3848l-0.8887-108.3c-1.982-12.48-2.039-22.6-10.94-43.57-4.304-1.24-8.448-1.367-12.42-0.2734l-3.512 42.91-33.67 30.47-46.39 9.52-0.3047-3.537-9.818-2.262-5.719-8.148-3.314-0.4824-5.857-8.979-2.318-0.334-6.039-10.31-1.99 0.0977-4.043-8.996-1.719 0.1699-4.031-9.957-9.35-51-8.605-44.72-16.03-41.78h-3.838z"  stroke-width="1.764"/><path d="m-816 547.4 1.096 9.89 6.372-0.0482 0.7736-5.638 9.827 0.0444 6.892 6.439"  stroke-width="1.764"/><path d="m-766 547.4-1.096 9.89-6.372-0.0482-0.7736-5.638-9.827 0.0444-6.892 6.439"  stroke-width="1.764"/><g stroke-width="1.235"><path d="m-832.9 350-18.98 47.8-22.14-5.013" /><path d="m-954 352.8 0.0326 97.28" /><path d="m-980.9 353.7c5.642 0.8164 19.65 1.418 26.87-0.9375" /></g><path d="m-878.3 509.5-0.1617-7.442-6.754-5.926-0.0252-39.26 15.93 20.05c8.78 15.81 9.233 48.04 39.67 52.76 8.877 1.377 24.92 1.563 38.62 1.66"  stroke-width="1.764"/><g stroke-width="1.235"><path d="m-851.8 397.8-1.001 2.604-26.58-4.289-3.488 7.733 12.53 16.92-0.13 2.469-46.05-27.74-37.27-34.01" /><path d="m-872.2 472.4 23.67 0.1484 2.825-1.454-24.1-24.89-1.818 0.0943-9.363 10.58-4.225-0.0392" /><path d="m-863.9 387 17.32-1.988" /><path d="m-854.8 378.3 11.26-1.113" /><path d="m-846.6 369 6.592-0.5915" /><path d="m-838.6 358.8 2.282-0.0344" /><path d="m-791 231.1-3.022 0.0342-1.386 2.638 0.1108 3.458-1.39 6.997-4.477 6.17-7.94 27.65 0.3876 15.09 7.908 41.57-13.09 43.87-3.281 1.102-2.322 14.35 14.85 24.03 1.315 37.92-12.24 25.84 0.3387 44.04 5.312 5.317" /><path d="m-791 518.4c-1.425 0.0126-2.97-0.2051-4.396-0.8683l-13.69-15.27-0.0683-21.88 9.714-20.49-1.27-42.73-9.592-15.17 5.581-1.936 6.191 9.89 1.709 53.92c1.939 1.923 3.91 2.163 5.818 2.139" /><path d="m-948.1 366.6 0.0472 83.09" /><path d="m-851 395.6 13.95 22.86 1.728 44.24 4.084 3.26-0.013-6.124 2.313-2.911 0.1256-19.22-3.418-2.559-0.0692-18.62-15.97-28.04" /><path d="m-831.2 465.9 15.65 15.91" /><path d="m-845.7 471.1 10.41-8.441" /><path d="m-832.3 416.5 19.61-10.94" /><path d="m-794.6 232.2-1.91-1.72 1.653-27.95" /><path d="m-791 475.8c-5.514-0.1955-12.04-4.615-15.66-13.33-3.619-8.719-5.959-33.77-6.023-56.9" /><path d="m-845.7 471.1 0.0874 52.04" /><path d="m-944 401.6 10.33-4.654 3.691 7.711-13.63 6.15z" /><path d="m-980.9 372.2c1.404 0.2032 3.327 0.3931 5.534 0.5274 0.3682 0.0224 0.8694 1.918 1.252 1.937 3.699 0.1846 8.571 0.496 12.54-0.238 0.7335-0.1356 0.8324-1.877 1.542-1.959 2.245-0.2625 4.312-0.6524 6.005-1.205" /><path d="m-980.9 413.5c1.404 0.2032 3.327 0.3931 5.534 0.5274 0.3682 0.0224 0.8694 1.918 1.252 1.937 3.699 0.1846 8.571 0.496 12.54-0.238 0.7335-0.1356 0.8324-1.877 1.542-1.959 2.245-0.2625 4.312-0.6524 6.005-1.205" /></g><g stroke-width="1.235"><path d="m-921.2 412h2.799v46.93h-2.799z" /><path d="m-910.7 417.7h2.799v46.93h-2.799z" /><path d="m-899.6 422.8h2.799v46.93h-2.799z" /></g><path d="m-876.6 510.9 1.375 29.12 8.802-4.07 0.6294-4.64 4.101-0.2159"  stroke-width="1.764"/><path d="m-943.7 433.7h9.87v15.47h-9.87z"  stroke-width="1.235"/><ellipse transform="matrix(.9999 .01254 -.01319 .9999 0 0)" cx="-933.4" cy="455" rx="2.75" ry="3.337"  stroke-width="1.235"/><path d="m-822.1 303.6h7.33l-2.889 15.47h-7.33z"  stroke-width="1.235"/><ellipse transform="matrix(.9656 .2602 -.2608 .9654 0 0)" cx="-710.1" cy="512.3" rx="2.75" ry="3.337"  stroke-width="1.235"/><path d="m-766 547.4-1.096 9.89-6.372-0.0482-0.7736-5.638-9.827 0.0444-6.892 6.439"  stroke-width="1.764"/><g stroke-width="1.235"><path d="m-749.1 350 18.98 47.8 22.14-5.013" /><path d="m-628 352.8-0.0326 97.28" /><path d="m-601.1 353.7c-5.642 0.8164-19.65 1.418-26.87-0.9375" /></g><path d="m-703.7 509.5 0.1617-7.442 6.754-5.926 0.0252-39.26-15.93 20.05c-8.78 15.81-9.233 48.04-39.67 52.76-8.877 1.377-24.92 1.563-38.62 1.66"  stroke-width="1.764"/><g stroke-width="1.235"><path d="m-730.2 397.8 1.001 2.604 26.58-4.289 3.488 7.733-12.53 16.92 0.13 2.469 46.05-27.74 37.27-34.01" /><path d="m-709.8 472.4-23.67 0.1484-2.825-1.454 24.1-24.89 1.818 0.0943 9.363 10.58 4.225-0.0392" /><path d="m-718.1 387-17.32-1.988" /><path d="m-727.2 378.3-11.26-1.113" /><path d="m-735.4 369-6.592-0.5915" /><path d="m-743.4 358.8-2.282-0.0344" /><path d="m-791 231.1 3.022 0.0342 1.386 2.638-0.1108 3.458 1.39 6.997 4.477 6.17 7.94 27.65-0.3876 15.09-7.908 41.57 13.09 43.87 3.281 1.102 2.322 14.35-14.85 24.03-1.315 37.92 12.24 25.84-0.3387 44.04-5.312 5.317" /><path d="m-791 518.4c1.425 0.0126 2.97-0.2051 4.396-0.8683l13.69-15.27 0.0683-21.88-9.714-20.49 1.27-42.73 9.592-15.17-5.581-1.936-6.191 9.89-1.709 53.92c-1.939 1.923-3.91 2.163-5.818 2.139" /><path d="m-633.9 366.6-0.0472 83.09" /><path d="m-731 395.6-13.95 22.86-1.728 44.24-4.084 3.26 0.013-6.124-2.313-2.911-0.1256-19.22 3.418-2.559 0.0692-18.62 15.97-28.04" /><path d="m-750.8 465.9-15.65 15.91" /><path d="m-736.3 471.1-10.41-8.441" /><path d="m-749.7 416.5-19.61-10.94" /><path d="m-787.4 232.2 1.91-1.72-1.653-27.95" /><path d="m-791 475.8c5.514-0.1955 12.04-4.615 15.66-13.33 3.619-8.719 5.959-33.77 6.023-56.9" /><path d="m-736.3 471.1-0.0874 52.04" /><path d="m-638 401.6-10.33-4.654-3.691 7.711 13.63 6.15z" /><path d="m-601.1 372.2c-1.404 0.2032-3.327 0.3931-5.534 0.5274-0.3682 0.0224-0.8694 1.918-1.252 1.937-3.699 0.1846-8.571 0.496-12.54-0.238-0.7335-0.1356-0.8324-1.877-1.542-1.959-2.245-0.2625-4.312-0.6524-6.005-1.205" /><path d="m-601.1 413.5c-1.404 0.2032-3.327 0.3931-5.534 0.5274-0.3682 0.0224-0.8694 1.918-1.252 1.937-3.699 0.1846-8.571 0.496-12.54-0.238-0.7335-0.1356-0.8324-1.877-1.542-1.959-2.245-0.2625-4.312-0.6524-6.005-1.205" /></g><g stroke-width="1.235"><path d="m-660.8 412h-2.799v46.93h2.799z" /><path d="m-671.3 417.7h-2.799v46.93h2.799z" /><path d="m-682.4 422.8h-2.799v46.93h2.799z" /></g><path d="m-705.4 510.9-1.375 29.12-8.802-4.07-0.6294-4.64-4.101-0.2159"  stroke-width="1.764"/><path d="m-638.3 433.7h-9.87v15.47h9.87z"  stroke-width="1.235"/><ellipse transform="matrix(-.9999 .01254 .01319 .9999 0 0)" cx="648.5" cy="435.2" rx="2.75" ry="3.337"  stroke-width="1.235"/><path d="m-759.9 303.6h-7.33l2.889 15.47h7.33z"  stroke-width="1.235"/><ellipse transform="matrix(-.9656 .2602 .2608 .9654 0 0)" cx="817.2" cy="100.6" rx="2.75" ry="3.337"  stroke-width="1.235"/><g stroke-width="1.235"><path d="m-791 240.4-4.338 0.0879-10.51 34.41 0.2148 8.883 6.453 34.12 4.287 2.773 1.572-1.746 2.316-6e-3 2.316 6e-3 1.572 1.746 4.287-2.773 6.453-34.12 0.2148-8.883-10.51-34.41z" /><path d="m-795.3 240.5-0.8241 42.6-6.901 13.55" /><path d="m-786.7 240.5 0.8241 42.6 6.901 13.55" /><path d="m-796.2 283.1 2.16 4.331 5.736-0.0314 2.428-4.3" /><path d="m-804 347.2c8.351-1 16.96-1.164 25.98 0v52.8c-9.517-3.338-17.95-2.468-25.98 0z" /><path d="m-948.1 449.7 34.83 32.24 28.05 14.15" /><path d="m-633.9 449.7-34.83 32.24-28.05 14.15" /></g></g><g transform="translate(1027)"  fill="none"  ><path d="m-303.4 510.9 40.03-23.28 31.33-30.71 0.1016-7.215 5.949 0.3301 0.1055 12.32c7.107 14.91 27.99 9.247 27.69-0.3848l-0.8887-108.3c-1.982-12.48-2.039-22.6-10.94-43.57-4.304-1.24-8.448-1.367-12.42-0.2734l-3.512 42.91-33.67 30.47-46.39 9.52-0.3047-3.537-9.818-2.262-5.719-8.148-3.314-0.4824-5.857-8.979-2.318-0.334-6.039-10.31-1.99 0.0977-4.043-8.996-1.719 0.1699-4.031-9.957-9.35-51-8.605-44.72-16.03-41.78h-7.676l-16.03 41.78-8.605 44.72-9.35 51-4.031 9.957-1.719-0.1699-4.043 8.996-1.99-0.0977-6.039 10.31-2.318 0.334-5.857 8.979-3.314 0.4824-5.719 8.148-9.818 2.262-0.3047 3.537-46.39-9.52-33.67-30.47-3.512-42.91c-3.97-1.094-8.114-0.9663-12.42 0.2734-8.904 20.98-8.962 31.09-10.94 43.57l-0.8887 108.3c-0.3044 9.632 20.58 15.3 27.69 0.3848l0.1055-12.32 5.949-0.3301 0.1016 7.215 31.33 30.71 40.03 23.28"  stroke-width="1.764"/><path d="m-414 547.4 1.096 9.89 6.372-0.0482 0.7736-5.638 9.827 0.0444 6.892 6.439"  stroke-width="1.764"/><path d="m-364 547.4-1.096 9.89-6.372-0.0482-0.7736-5.638-9.827 0.0444-6.892 6.439"  stroke-width="1.764"/><g stroke-width="1.235"><path d="m-426.8 340 17.86 0.1299-2.34 17.29 8.732 33.01-4.27 0.215-29.67 13.85-28.13 13.69-60.03-32.26-27.43-26.8" /><path d="m-552 352.8 0.0326 97.28" /><path d="m-461.9 387 56.3-8.175" /><path d="m-452.8 378.3 45.2-7.212" /><path d="m-444.6 369 34.79-6.072" /><path d="m-436.6 358.8 25.62-4.1" /><path d="m-546.1 365 0.0472 84.77" /></g><path d="m-474.6 510.9 1.375 29.12 8.802-4.07 0.6294-4.64 21.83-9.235-0.0484-6.537"  stroke-width="1.764"/><path d="m-416.8 303 7.33 0.6262-2.889 15.22-7.33-0.6262z"  stroke-width="1.235"/><ellipse transform="matrix(.9424 .3345 -.2666 .9638 0 0)" cx="-317.3" cy="431.1" rx="2.817" ry="3.266"  stroke-width="1.236"/><path d="m-364 547.4-1.096 9.89-6.372-0.0482-0.7736-5.638-9.827 0.0444-6.892 6.439"  stroke-width="1.764"/><g stroke-width="1.235"><path d="m-226 352.8-0.0326 97.28" /><path d="m-430.9 350 20.9-3.194" /><path d="m-472 392.8 11.61 2.469-0.5816 2.415 57.87-9.241" /><path d="m-461 397.7-4.806 19.84" /><path d="m-546.1 449.7 34.83 32.24 26.19 13.62" /><path d="m-405.8 396.9h12.48v25.99h-12.48z" /><path d="m-395.2 260.6h12.48v55.99h-12.48z" /><path d="m-402.6 390.5 7.365-115.5" /><path d="m-409 340.2 13.74-79.52" /></g><g stroke-width="1.235"><path d="m-410.5 253.6h42.92" /><path d="m-518.4 383.3 0.1811 50.49-13.05 8.571" /><path d="m-541.8 368.6-0.1811 66.05 15.34 10.97 0.0922 22.17" /><path d="m-480.6 409.7-9.188 17.96-36.88 17.95" /><path d="m-405.9 399-31.4 20.55-8.351 19.34-39.47 48.83 0.0466 7.874-0.2178 9.405" /><path d="m-464.6 418.2-5.267 21.55-32.22 29.96 0.0466 7.874-0.2178 9.405" /></g><path d="m-469.9 439.8 15.13 10.65"  stroke-width="1.235"/><ellipse transform="matrix(.9999 .01049 -.01577 .9999 0 0)" cx="-383.2" cy="371.7" rx="8.009" ry="8.131"  stroke-width="1.235"/><ellipse transform="matrix(.9999 .01049 -.01577 .9999 0 0)" cx="-412" cy="424.3" rx="8.009" ry="8.131"  stroke-width="1.235"/><path d="m-437.5 454.6h18.6v39.31h-18.6z"  stroke-width="1.235"/><path d="m-361.9 447.7h-54.09v58.97h54.09z"  stroke-width="1.235"/><path d="m-376.9 510.3h-24.21v29.47h24.21z"  stroke-width="1.235"/><path d="m-481.2 489.2 7.641 0.0152 0.0401 15.22-7.641-0.0152z"  stroke-width="1.235"/><ellipse transform="matrix(.7938 .6082 -.4484 .8938 0 0)" cx="-206.7" cy="698.6" rx="2.946" ry="3.172"  stroke-width="1.246"/><path d="m-481.2 504.4 13.74 3.611 21.85 1.791-5.704-35.04-14.18-5.561-15.75 19.98"  stroke-width="1.235"/><g stroke-width="1.235"><path d="m-351.2 340-17.86 0.1299 2.34 17.29-8.732 33.01 4.27 0.215 29.67 13.85 28.13 13.69 60.03-32.26 27.43-26.8" /><path d="m-226 352.8-0.0326 97.28" /><path d="m-316.1 387-56.3-8.175" /><path d="m-325.2 378.3-45.2-7.212" /><path d="m-333.4 369-34.79-6.072" /><path d="m-341.4 358.8-25.62-4.1" /><path d="m-231.9 365-0.0472 84.77" /></g><path d="m-303.4 510.9-1.375 29.12-8.802-4.07-0.6294-4.64-21.83-9.235 0.0484-6.537"  stroke-width="1.764"/><path d="m-361.2 303-7.33 0.6262 2.889 15.22 7.33-0.6262z"  stroke-width="1.235"/><ellipse transform="matrix(-.9424 .3345 .2666 .9638 0 0)" cx="434.4" cy="170.3" rx="2.817" ry="3.266"  stroke-width="1.236"/><g stroke-width="1.235"><path d="m-347.1 350-20.9-3.194" /><path d="m-306 392.8-11.61 2.469 0.5816 2.415-57.87-9.241" /><path d="m-317 397.7 4.806 19.84" /><path d="m-231.9 449.7-34.83 32.24-26.19 13.62" /><path d="m-372.2 396.9h-12.48v25.99h12.48z" /><path d="m-375.4 390.5-7.365-115.5" /><path d="m-369 340.2-13.74-79.52" /></g><g stroke-width="1.235"><path d="m-259.6 383.3-0.1811 50.49 13.05 8.571" /><path d="m-236.2 368.6 0.1811 66.05-15.34 10.97-0.0922 22.17" /><path d="m-297.4 409.7 9.188 17.96 36.88 17.95" /><path d="m-372.1 399 31.4 20.55 8.351 19.34 39.47 48.83-0.0466 7.874 0.2178 9.405" /><path d="m-313.4 418.2 5.267 21.55 32.22 29.96-0.0466 7.874 0.2178 9.405" /></g><path d="m-308.1 439.8-15.13 10.65"  stroke-width="1.235"/><ellipse transform="matrix(-.9999 .01049 .01577 .9999 0 0)" cx="365.9" cy="416.1" rx="8.009" ry="8.131"  stroke-width="1.235"/><path d="m-340.5 454.6h-18.6v39.31h18.6z"  stroke-width="1.235"/><path d="m-296.8 489.2-7.641 0.0152-0.0401 15.22 7.641-0.0152z"  stroke-width="1.235"/><ellipse transform="matrix(-.7938 .6082 .4484 .8938 0 0)" cx="501.3" cy="216.9" rx="2.946" ry="3.172"  stroke-width="1.246"/><path d="m-296.8 504.4-13.74 3.611-21.85 1.791 5.704-35.04 14.18-5.561 15.75 19.98"  stroke-width="1.235"/><g stroke-width="1.764"><path d="m-474.6 510.9 32.59 4.634 25.63 26.38 15.13 5.39 12.26 0.5151" /><path d="m-458.2 529.3c12.31 10.39 26.01 18.51 56.92 18.07" /><path d="m-303.4 510.9-32.59 4.634-25.63 26.38-15.13 5.39-12.26 0.5151" /><path d="m-319.8 529.3c-12.31 10.39-26.01 18.51-56.92 18.07" /></g><g stroke-width="1.235"><path d="m-435 516 30.34 7.481-0.0587 12.6-31-18.56z" /><path d="m-343.2 516-30.34 7.481 0.0587 12.6 31-18.56z" /><path d="m-393.3 396.9h8.549" /><path d="m-402.6 390.5h27.14" /><path d="m-415.5 278.3 16.39 4" /><path d="m-362.3 278.3-16.39 4" /></g><path d="m-576.9 418.6h21.1v43.01h-21.1z"  stroke-width="1.235"/><path d="m-222.2 418.6h21.1v43.01h-21.1z"  stroke-width="1.235"/><path d="m-572.8 321.8h18.09"  stroke-width="1.235"/><path d="m-223.5 321.8h18.09"  stroke-width="1.235"/></g><g  ><g fill="none" stroke="#979797" stroke-width="3.587"><path d="m442.9 86.92c21.52 3.996 37.82 22.87 37.82 45.55 0 5.371-0.9139 10.53-2.595 15.33m-7.842 13.97c-8.496 10.4-21.42 17.03-35.89 17.03-14.38 0-27.24-6.555-35.74-16.84m-7.716-13.37c-1.862-5.019-2.88-10.45-2.88-16.12 0-23.05 16.84-42.18 38.89-45.74" /><g><path d="m434.9 71.19v15.85" /><path d="m395.6 155.1-13.68 8.014" /><path d="m474.2 155.1 13.68 8.014" /></g></g><g fill="#979797" ></g></g><g   ><g fill="#f39745" stroke-width="1.235"></g><g fill="#f39745"><g stroke-width="1.764"></g><g stroke-width="1.764"></g></g></g>
  </svg>
</svg>
