<svg xmlns="http://www.w3.org/2000/svg" viewBox="0 0 390 640" preserveAspectRatio="xMidYMid meet">
  <style>
    * { vector-effect: non-scaling-stroke; }
    path, rect, circle, ellipse, polygon, polyline, line {
      fill: none !important;
      stroke: #73f8ff !important;
      stroke-width: 2.25px !important;
      stroke-linecap: round;
      stroke-linejoin: round;
      opacity: 0.92;
    }
  </style>
  <svg x="0" y="0" width="870" height="640" viewBox="0 0 870 640" preserveAspectRatio="xMinYMin meet">

<g></g><g transform="matrix(1 0 0 1.04 1337 -23.18)"  fill="none"  ><path d="m-818.1 497.9-58.39-30.95-12.49-18.8 3.957-30.05 13.58-24.03 3.367-0.3531 23.87-33.83 12.09-11.37 61.79-102 1.494-0.4906 12.65-20.55-0.9471-1.887 5.399-8.596 30.42-12.08 5.686 2.69-1.046 32.62-4.441 1.549-1.795 9.318-0.4408 54.56 4.167 21.59-0.3806 61.52"  stroke-width="1.73"/><path d="m-889.9 339.5h4.085v83.52l-2.335 17.19h-1.75z"  stroke-width="1.73"/><path d="m-885.5 319.3h5.306v37.64l-2.482 27.87h-2.824z"  stroke-width="1.211"/><path d="m-883.3 289.4 0.1528 30"  stroke-width="1.211"/><path d="m-880.2 311.6 0.1528 30"  stroke-width="1.211"/><path d="m-772 538.4-3.119 41-29.48-12.27-27.17-143.2 0.3919-5.731 38.74-55.05"  stroke-width="1.73"/><ellipse cx="-791.3" cy="551.8" rx="4.72" ry="4.72"  stroke-width="1.211"/><path d="m-708.9 238.2 4.502-20.39 14.36-0.0866 4.357 20.47"  stroke-width="1.73"/><ellipse cx="-872.9" cy="438.2" rx="4.72" ry="4.72"  stroke-width="1.211"/><path d="m-768.8 246 2.332 0.5332 6.836 7.422-7.316 12.1-5.684-0.9185-8.498 7.172-3.294-1.92"  stroke-width="1.211"/><path d="m-876.5 467 14.11-1.098 2.561-14.8-5.471-1.992-2.621-3.379 6.562-19.38 38.53-64.92-0.7018-7.223-8.588-5.643"  stroke-width="1.73"/><path d="m-774.4 567.1-23.6-5.179-25.85-139.8 1.22-4.301 24.31-35.95 5.629-18.67"  stroke-width="1.211"/><path d="m-836.3 363.9 6.052 3.6-23.99 40.34-6.052-3.6z"  stroke-width="1.211"/><path d="m-756.2 225.5 2.346 3.029-11.56 18.76"  stroke-width="1.211"/><path d="m-781.2 272.3-47.32 79.04"  stroke-width="1.211"/><path d="m-696.8 496.7-28.88-0.0179-0.185-14.14-21.81-0.0519-2.452 2.796-42.07 0.0949-0.3828 3.239-9.808-2.498-0.4917-74.54-2.858-12.23 7.458-17.4"  stroke-width="1.73"/><g stroke-width="1.211"><path d="m-826.7 411-36.45 20.73" /><path d="m-830.6 429.4-34.72 19.71" /><path d="m-719.9 365.8-14.42 0.1933-22.58 4.399-48.86 28.94" /><path d="m-720 384.2-16.54 0.1781-20.45 0.6639-45.84 26.51" /><path d="m-756.9 370.4 1.639-109.3-4.408-7.084" /><path d="m-767 266.1-55.85 95.32" /><path d="m-756.1 294.3-25.6-2.432" /><path d="m-755.5 270.1-13.05-1.283" /><path d="m-822.5 369.1 20.54-10.22 27.31-66.37" /><path d="m-796.3 375.4 40.39-66.6" /><path d="m-783 386.2 26.43-44.63" /><path d="m-779 348 13.34 8.049" /><path d="m-822.8 361.4 1.467 30.01" /><path d="m-830.4 412.8 9.003-21.38 13.92-7.477" /><path d="m-846 400.7 20.77-0.2596" /></g><path d="m-732.1 213h13.08v21.84h-13.08z"  stroke-width="1.211"/><path d="m-752 245.5 4.58-5.162 6.877-0.1505 2.325 8.938v110.8l-13.78 5.125z"  stroke-width="1.211"/><g stroke-width="1.211"><path d="m-734.3 366 0.834-120.4 3.068-5.769 9.309-0.0125" /><path d="m-752.4 283.3 14.1-0.2596" /><path d="m-752.2 325.7 14.1-0.2596" /><path d="m-733.9 283.1 10.39-0.0828" /></g><path d="m-734.2 325.6 15.08-0.3066"  stroke-width="1.211"/><path d="m-719.5 386.8-13.25 9.23-7.277 0.0488 0.1602 71.43 6.617 0.1309 12.12 10.25 23.48-0.1289 23.48 0.1289 12.12-10.25 6.617-0.1309 0.1602-71.43-7.277-0.0488-13.25-9.23z"  stroke-width="1.73"/><path d="m-747.7 482.4 0.2649-88.88-11.14-0.0954-17.93 10.36-16.13 65.9 0.4064 15.6"  stroke-width="1.211"/><path d="m-712.4 336.6 3.599-0.9194 21.45-0.0205 4.109 0.9401v26.66l-3.258 1.5-22.21-0.0484-3.694-1.452z"  stroke-width="1.211"/><path d="m-706.6 230.4 9.603-3.392 9.617 3.448"  stroke-width="1.211"/><path d="m-722.4 270.4 13.35 0.0249 0.152-32.34"  stroke-width="1.73"/><path d="m-708.9 238.1-7.75 0.1261"  stroke-width="1.73"/><path d="m-709.2 248.9-13.67 0.1545"  stroke-width="1.211"/><path d="m-699.7 261.8h5.08v-21.36h-5.08z"  stroke-width="1.211"/><path d="m-792.6 469.7 3.035 4.266 28.91 0.2458 4.859-4.825 0.1839-33.3-12.81-15.38-12.01-0.038"  stroke-width="1.73"/><ellipse cx="-767.9" cy="255.4" rx="4.72" ry="4.72"  stroke-width="1.211"/><path d="m-726.3 372.8h-7.429v7.473h7.429z"  stroke-width="1.211"/><path d="m-707.5 496.3 0.0291 20.55-5.748 3.155-0.1384 22.42-13.38 14.54-26.42 0.069-13.17-11.37-5.705-7.186-13.99-4.023-6.192-49.09"  stroke-width="1.73"/><path d="m-716.5 545.5 0.06 5.487-3.42 5.754-0.2885 10.38-2.449 3.1-34.33-0.5372-2.228-1.707-0.2194-11.83-2.758-5-4.286-0.0355 0.094-5.516"  stroke-width="1.73"/><path d="m-783.6 485.3 2.698 20.28 7.983 4.129 0.613 4.533 5.579 3.287 0.4661 28.13"  stroke-width="1.211"/><path d="m-748 496.6h16.41v32.11h-16.41z"  stroke-width="1.211"/><path d="m-713.6 530.6-3.032 5e-3 -9.441 11.51c-10.04 0.7899-19.96 0.9663-29.93-0.0779l-7.875-11.37-3.089 5e-3"  stroke-width="1.211"/><path d="m-697 271.5-6.467 0.127-3.002 2.48-7.15 37.98 4.857 4.826 11.76 0.1074 11.76-0.1074 4.857-4.826-7.152-37.98-3-2.48z"  stroke-width="1.73"/><path d="m-576.5 497.9 58.39-30.95 12.49-18.8-3.957-30.05-13.58-24.03-3.367-0.3531-23.87-33.83-12.09-11.37-61.79-102-1.494-0.4906-12.65-20.55 0.9471-1.887-5.399-8.596-30.42-12.08-5.686 2.69 1.046 32.62 4.441 1.549 1.795 9.318 0.4408 54.56-4.167 21.59 0.3806 61.52"  stroke-width="1.73"/><path d="m-504.7 339.5h-4.085v83.52l2.335 17.19h1.75z"  stroke-width="1.73"/><path d="m-509.1 319.3h-5.306v37.64l2.482 27.87h2.824z"  stroke-width="1.211"/><path d="m-511.3 289.4-0.1528 30"  stroke-width="1.211"/><path d="m-514.4 311.6-0.1528 30"  stroke-width="1.211"/><path d="m-622.6 538.4 3.119 41 29.48-12.27 27.17-143.2-0.3919-5.731-38.74-55.05"  stroke-width="1.73"/><g stroke-width="1.211"><ellipse transform="scale(-1,1)" cx="603.3" cy="551.8" rx="4.72" ry="4.72" /><ellipse transform="scale(-1,1)" cx="521.7" cy="438.2" rx="4.72" ry="4.72" /><path d="m-625.8 246-2.332 0.5332-6.836 7.422 7.316 12.1 5.684-0.9185 8.498 7.172 3.294-1.92" /></g><path d="m-518.1 467-14.11-1.098-2.561-14.8 5.471-1.992 2.621-3.379-6.562-19.38-38.53-64.92 0.7018-7.223 8.588-5.643"  stroke-width="1.73"/><path d="m-620.2 567.1 23.6-5.179 25.85-139.8-1.22-4.301-24.31-35.95-5.629-18.67"  stroke-width="1.211"/><path d="m-558.3 363.9-6.052 3.6 23.99 40.34 6.052-3.6z"  stroke-width="1.211"/><path d="m-638.4 225.5-2.346 3.029 11.56 18.76"  stroke-width="1.211"/><path d="m-613.4 272.3 47.32 79.04"  stroke-width="1.211"/><path d="m-697.8 496.7 28.88-0.0179 0.185-14.14 21.81-0.0519 2.452 2.796 42.07 0.0949 0.3828 3.239 9.808-2.498 0.4917-74.54 2.858-12.23-7.458-17.4"  stroke-width="1.73"/><g stroke-width="1.211"><path d="m-567.9 411 36.45 20.73" /><path d="m-564 429.4 34.72 19.71" /><path d="m-674.7 365.8 14.42 0.1933 22.58 4.399 48.86 28.94" /><path d="m-674.5 384.2 16.54 0.1781 20.45 0.6639 45.84 26.51" /><path d="m-637.7 370.4-1.639-109.3 4.408-7.084" /><path d="m-627.6 266.1 55.85 95.32" /><path d="m-638.5 294.3 25.6-2.432" /><path d="m-639.1 270.1 13.05-1.283" /><path d="m-572.1 369.1-20.54-10.22-27.31-66.37" /><path d="m-598.3 375.4-40.39-66.6" /><path d="m-611.6 386.2-26.43-44.63" /><path d="m-615.6 348-13.34 8.049" /><path d="m-571.8 361.4-1.467 30.01" /><path d="m-564.2 412.8-9.003-21.38-13.92-7.477" /><path d="m-548.6 400.7-20.77-0.2596" /></g><path d="m-662.5 213h-13.08v21.84h13.08z"  stroke-width="1.211"/><path d="m-642.6 245.5-4.58-5.162-6.877-0.1505-2.325 8.938v110.8l13.78 5.125z"  stroke-width="1.211"/><g stroke-width="1.211"><path d="m-660.3 366-0.834-120.4-3.068-5.769-9.309-0.0125" /><path d="m-642.2 283.3-14.1-0.2596" /><path d="m-642.4 325.7-14.1-0.2596" /><path d="m-660.7 283.1-10.39-0.0828" /></g><path d="m-660.4 325.6-15.08-0.3066"  stroke-width="1.211"/><path d="m-646.9 482.4-0.2649-88.88 11.14-0.0954 17.93 10.36 16.13 65.9-0.4064 15.6"  stroke-width="1.211"/><path d="m-672.2 270.4-13.35 0.0249-0.152-32.34"  stroke-width="1.73"/><path d="m-685.7 238.1 7.75 0.1261"  stroke-width="1.73"/><path d="m-685.4 248.9 13.67 0.1545"  stroke-width="1.211"/><path d="m-602 469.7-3.035 4.266-28.91 0.2458-4.859-4.825-0.1839-33.3 12.81-15.38 12.01-0.038"  stroke-width="1.73"/><ellipse transform="scale(-1,1)" cx="626.7" cy="255.4" rx="4.72" ry="4.72"  stroke-width="1.211"/><path d="m-668.3 372.8h7.429v7.473h-7.429z"  stroke-width="1.211"/><path d="m-687.1 496.3-0.0291 20.55 5.748 3.155 0.1384 22.42 13.38 14.54 26.42 0.069 13.17-11.37 5.705-7.186 13.99-4.023 6.192-49.09"  stroke-width="1.73"/><path d="m-678.1 545.5-0.06 5.487 3.42 5.754 0.2885 10.38 2.449 3.1 34.33-0.5372 2.228-1.707 0.2194-11.83 2.758-5 4.286-0.0355-0.094-5.516"  stroke-width="1.73"/><path d="m-610.9 485.3-2.698 20.28-7.983 4.129-0.613 4.533-5.579 3.287-0.4661 28.13"  stroke-width="1.211"/><path d="m-646.5 496.6h-16.41v32.11h16.41z"  stroke-width="1.211"/><g stroke-width="1.211"><path d="m-680.9 530.6 3.032 5e-3 9.441 11.51c10.04 0.7899 19.96 0.9663 29.93-0.0779l7.875-11.37 3.089 5e-3" /><path d="m-819.4 488.8-42.99-22.91" /><path d="m-575.2 488.8 42.99-22.91" /></g></g><g transform="matrix(1 0 0 1.04 1415 -23.18)"  fill="none"  ><path d="m-1253 523.8-107.3-56.87-12.49-18.8 3.957-30.05 13.58-24.03 3.367-0.3531 23.87-33.83 12.09-11.37 61.79-102 1.494-0.4906 12.65-20.55-0.9471-1.887 5.399-8.596 30.42-12.08 5.686 2.69-1.046 32.32-0.4026 27.26-8.844-0.065-8.289 13.99-0.5573 50.56-10.49 3.112-0.3941 35.76 1.532 1.544-0.053 10.39"  stroke-width="1.73"/><path d="m-1374 339.5h4.085v83.52l-2.336 17.19h-1.75z"  stroke-width="1.73"/><path d="m-1369 319.3h5.306v37.64l-2.482 27.87h-2.824z"  stroke-width="1.211"/><path d="m-1367 289.4 0.1529 30"  stroke-width="1.211"/><path d="m-1364 311.6 0.1529 30"  stroke-width="1.211"/><g stroke-width="1.73"><path d="m-1199 514.2-0.029 29.35-2.957 0.1407-10.65 11.05c-8.12 1.565-21.86 1.523-30.33-0.3586l-7.136-10.86-2.918-0.2383 0.1035-27.05-3.06-3.712-0.1346-78.59v-3e-3l8.659-3.389 46.91 0.1464-0.06 83.49 2.502 2e-3" /><path d="m-1203 544.5 0.06 5.313-3.42 6.962-0.2885 12.55-2.449 3.75-34.33-0.6499-2.228-2.065-0.2194-14.31-2.758-6.049-4.286-0.043 0.094-6.674" /><path d="m-1253 538.5-5.658-0.801-56.63-43.13 1.337-3.084" /><path d="m-1256 538.4-3.119 41-29.48-12.27-7.132-57.74" /></g><ellipse cx="-1278" cy="551.8" rx="4.72" ry="4.72"  stroke-width="1.211"/><path d="m-1193 238.2 4.502-20.39 14.36-0.0866 4.524 20.21"  stroke-width="1.73"/><path d="m-1201 430.7-0.013-7.674-2.469-0.0379 0.5983-48.67-11.02-0.2326-25.14 10.95-10.6 18.09-2.054 12.88-1.811 1.634-0.2593 15.51"  stroke-width="1.73"/><ellipse cx="-1363" cy="446.5" rx="4.72" ry="4.72"  stroke-width="1.211"/><path d="m-1226 336.3h19.58v30.09h-19.58z"  stroke-width="1.211"/><path d="m-1192 278.5h19.58v30.09h-19.58z"  stroke-width="1.211"/><path d="m-1200 238 38.19 0.1171"  stroke-width="1.73"/><g stroke-width="1.211"><path d="m-1188 217.8 2.684 20.08" /><path d="m-1253 246 3.707 2.158-2.164 3.422 3.559 10.6-7.559 12.46-8.265-1.461-4.903-2.788" /><ellipse cx="-1258" cy="266.4" rx="4.72" ry="4.72" /></g><path d="m-1360 467 9.861 1.061 10.61-14.53 10.5-2.355 10.9-20.74-0.9265-49.86 11.49-19.92-0.6401-4.795 1.548-2.785-8.963-4.518"  stroke-width="1.73"/><g stroke-width="1.211"><path d="m-1204 374.5-1.059 35.96-38.58-0.3355-2.3-8.188 10.46-17.98" /><path d="m-1203 413.2-43.83-0.3355-2.3-8.188" /><path d="m-1203 423-43.83-0.3355-6.212-5.011" /><path d="m-1201 511.8-6.174 0.018-0.1473-8.897-37.7 0.1869-0.01 13.15-8.012-0.0418" /><path d="m-1248 430.5 0.2704 19.06-5.735 66.63" /><path d="m-1235 503.2 0.015 51.88" /><path d="m-1217 503.2-0.3597 52.13" /><path d="m-1200 526.6-3.032 5e-3 -9.441 11.51c-10.04 0.7899-19.96 0.9663-29.93-0.0779l-7.875-11.37-3.089 5e-3" /><path d="m-1200 531.3-3.032 5e-3 -9.441 11.51c-10.04 0.7899-19.96 0.9663-29.93-0.0779l-7.875-11.37-3.089 5e-3" /><path d="m-1207 430.4-0.2052 72.47" /></g><path d="m-1256 512.5-67.77-36.82-0.6379-20.78 70.5-130.4 17.4-0.2387 7.377 8.481"  stroke-width="1.73"/><g stroke-width="1.211"><path d="m-1200 217.8-4.68 0.2497-54.84 76.18-0.087 40.74" /><path d="m-1201 245.2-49.72 67.34-0.087 11.39" /><path d="m-1218 301.7-11.53 7.236-10.69 15.46" /><path d="m-1200 209.8-5.724 0.0755-27.81 10.16-6.909 5.477" /><path d="m-1244 430.7-0.1562 51.04 9.235 10.89 17.27 0.0169 10.53-12.54" /></g><path d="m-1307 452.6h7.429v7.473h-7.429z"  stroke-width="1.211"/><g stroke-width="1.211"><path d="m-1260 328.2-58.45 102.2" /><path d="m-1277 284.2 6.32 10-27.84 48.18-13.34 0.2392" /><path d="m-1255 274.7-15.3 19.56" /><path d="m-1235 290.6-11.42-14.19" /><path d="m-1200 214.8-4.267 0.1394-23.35 8.358-7.671 6.202-3.148-5.334" /><path d="m-1235 229.5-12.06 20-2.96 1.045" /><path d="m-1260 328.2-17.44-21.35" /><path d="m-1284 369.6-28.84-0.2257" /><path d="m-1241 324.4 0.096 25.24 2.985 4.613 0.072 29.77" /><path d="m-1241 342.5-23.06-0.2257" /><path d="m-1238 365.7-38.59-0.2257" /><path d="m-1254 420.2-52.82-0.2257" /><path d="m-1256 487.2-45.93-0.2257" /><path d="m-1324 466.8-17.64-10.74" /><path d="m-1320 488.4 4.629-8.446" /><path d="m-1288 505.6 4.629-8.446" /><path d="m-1259 572.9-26.61-10.84-6.014-49.11" /></g><path d="m-1321 361.8 6.141 3.447-22.97 40.93-6.141-3.447z"  stroke-width="1.211"/><g stroke-width="1.211"><path d="m-1290 449.6 19.1-84.21" /><path d="m-1324 461.9 27.11-0.0304 2.168-11.65 18.29 0.0156" /><path d="m-1249 403.1-27.02 47.1-0.014 18.67 1.991 1.076 18.29 0.0156" /></g><path d="m-1183 496.8-10.32-0.1248-0.3916 29.52-5.564 6.831"  stroke-width="1.73"/><path d="m-1109 523.8 107.3-56.87 12.49-18.8-3.957-30.05-13.58-24.03-3.367-0.3531-23.87-33.83-12.09-11.37-61.79-102-1.494-0.4906-12.65-20.55 0.9472-1.887-5.399-8.596-30.42-12.08-5.686 2.69 1.046 32.32 0.4026 27.26 8.844-0.065 8.289 13.99 0.5574 50.56 10.49 3.112 0.3941 35.76-1.532 1.544 0.053 10.39"  stroke-width="1.73"/><path d="m-988.6 339.5h-4.085v83.52l2.335 17.19h1.75z"  stroke-width="1.73"/><path d="m-993 319.3h-5.306v37.64l2.482 27.87h2.824z"  stroke-width="1.211"/><path d="m-995.2 289.4-0.1528 30"  stroke-width="1.211"/><path d="m-998.3 311.6-0.1528 30"  stroke-width="1.211"/><g stroke-width="1.73"><path d="m-1163 514.2 0.029 29.35 2.957 0.1407 10.65 11.05c8.12 1.565 21.86 1.523 30.33-0.3586l7.136-10.86 2.918-0.2383-0.1035-27.05 3.06-3.712 0.1347-78.59v-3e-3l-8.659-3.389-46.91 0.1464 0.06 83.49-2.502 2e-3" /><path d="m-1159 544.5-0.06 5.313 3.42 6.962 0.2885 12.55 2.449 3.75 34.33-0.6499 2.228-2.065 0.2194-14.31 2.758-6.049 4.286-0.043-0.094-6.674" /><path d="m-1109 538.5 5.658-0.801 56.63-43.13-1.337-3.084" /><path d="m-1106 538.4 3.119 41 29.48-12.27 7.132-57.74" /></g><ellipse transform="scale(-1,1)" cx="1085" cy="551.8" rx="4.72" ry="4.72"  stroke-width="1.211"/><path d="m-1162 430.7 0.013-7.674 2.469-0.0379-0.5983-48.67 11.02-0.2326 25.14 10.95 10.6 18.09 2.054 12.88 1.811 1.634 0.2594 15.51"  stroke-width="1.73"/><ellipse transform="scale(-1,1)" cx="999.5" cy="446.5" rx="4.72" ry="4.72"  stroke-width="1.211"/><path d="m-1136 336.3h-19.58v30.09h19.58z"  stroke-width="1.211"/><g stroke-width="1.211"><path d="m-1174 217.8-2.684 20.08" /><path d="m-1110 246-3.707 2.158 2.164 3.422-3.559 10.6 7.559 12.46 8.265-1.461 4.903-2.788" /><ellipse transform="scale(-1,1)" cx="1104" cy="266.4" rx="4.72" ry="4.72" /></g><path d="m-1002 467-9.861 1.061-10.61-14.53-10.5-2.355-10.9-20.74 0.9265-49.86-11.49-19.92 0.64-4.795-1.548-2.785 8.963-4.518"  stroke-width="1.73"/><g stroke-width="1.211"><path d="m-1158 374.5 1.058 35.96 38.58-0.3355 2.3-8.188-10.46-17.98" /><path d="m-1159 413.2 43.83-0.3355 2.3-8.188" /><path d="m-1159 423 43.83-0.3355 6.212-5.011" /><path d="m-1161 511.8 6.174 0.018 0.1473-8.897 37.7 0.1869 0.01 13.15 8.012-0.0418" /><path d="m-1115 430.5-0.2704 19.06 5.735 66.63" /><path d="m-1127 503.2-0.015 51.88" /><path d="m-1145 503.2 0.3597 52.13" /><path d="m-1163 526.6 3.032 5e-3 9.441 11.51c10.04 0.7899 19.96 0.9663 29.93-0.0779l7.875-11.37 3.089 5e-3" /><path d="m-1163 531.3 3.032 5e-3 9.441 11.51c10.04 0.7899 19.96 0.9663 29.93-0.0779l7.875-11.37 3.089 5e-3" /><path d="m-1155 430.4 0.2052 72.47" /></g><path d="m-1106 512.5 67.77-36.82 0.6379-20.78-70.5-130.4-17.4-0.2387-7.377 8.481"  stroke-width="1.73"/><g stroke-width="1.211"><path d="m-1162 217.8 4.68 0.2497 54.84 76.18 0.087 40.74" /><path d="m-1161 245.2 49.72 67.34 0.087 11.39" /><path d="m-1144 301.7 11.53 7.236 10.69 15.46" /><path d="m-1163 209.8 5.724 0.0755 27.81 10.16 6.909 5.477" /><path d="m-1118 430.7 0.1561 51.04-9.235 10.89-17.27 0.0169-10.53-12.54" /></g><path d="m-1056 452.6h-7.429v7.473h7.429z"  stroke-width="1.211"/><g stroke-width="1.211"><path d="m-1102 328.2 58.45 102.2" /><path d="m-1086 284.2-6.32 10 27.84 48.18 13.34 0.2392" /><path d="m-1107 274.7 15.3 19.56" /><path d="m-1127 290.6 11.42-14.19" /><path d="m-1162 214.8 4.267 0.1394 23.35 8.358 7.671 6.202 3.148-5.334" /><path d="m-1127 229.5 12.06 20 2.96 1.045" /><path d="m-1102 328.2 17.44-21.35" /><path d="m-1079 369.6 28.84-0.2257" /><path d="m-1122 324.4-0.096 25.24-2.985 4.613-0.072 29.77" /><path d="m-1122 342.5 23.06-0.2257" /><path d="m-1125 365.7 38.59-0.2257" /><path d="m-1109 420.2 52.82-0.2257" /><path d="m-1106 487.2 45.93-0.2257" /><path d="m-1038 466.8 17.64-10.74" /><path d="m-1042 488.4-4.629-8.446" /><path d="m-1074 505.6-4.629-8.446" /><path d="m-1103 572.9 26.61-10.84 6.014-49.11" /></g><path d="m-1042 361.8-6.141 3.447 22.97 40.93 6.141-3.447z"  stroke-width="1.211"/><g stroke-width="1.211"><path d="m-1073 449.6-19.1-84.21" /><path d="m-1039 461.9-27.11-0.0304-2.168-11.65-18.29 0.0156" /><path d="m-1113 403.1 27.02 47.1 0.014 18.67-1.991 1.076-18.29 0.0156" /></g><path d="m-1183 496.8 14.02-0.1248 0.3915 29.52 5.564 6.831"  stroke-width="1.73"/><path d="m-1186 428.7h9.163v52.36h-9.163z"  stroke-width="1.211"/><g stroke-width="1.73"><path d="m-1200 481.4 5.551-0.3748 1.733 6.769-0.3057 8.922" /><path d="m-1203 416.4 5.176 0.1252 3.858 4.269-0.3137 21.25-6.242 2.052" /><path d="m-1160 416.4-5.176 0.1252-3.858 4.269 0.3137 21.25 6.242 2.052" /><path d="m-1162 481.4-5.551-0.3748-1.733 6.769 0.3058 8.922" /></g><g stroke-width="1.211"><path d="m-1215 279h12.68v51.48h-12.68z" /><path d="m-1160 279h12.68v51.48h-12.68z" /><path d="m-1189 331.2h15.33v-14.82h-15.33z" /></g><g stroke-width="1.211"><path d="m-1193 238.1-2.979 6.04 2.569 17.79 2.052 2.26 0.019 11.32-6.227 2.427-0.1332 65.89 4.759 9.158v21.26" /><path d="m-1170 238.1 2.979 6.04-2.569 17.79-2.052 2.26-0.018 11.32 6.227 2.427 0.1333 65.89-4.76 9.158v21.26" /><path d="m-1171 264.2-1.94 1.291-3.866-2.623-8.589 0.0886-3.712 2.57-1.91-1.326" /><path d="m-1160 374.3h-42.62" /><path d="m-1160 385.1h-42.62" /></g><path d="m-1195 407.5h27.71v6.929h-27.71z"  stroke-width="1.211"/><path d="m-1184 387.7h5.382v5.957h-5.382z"  stroke-width="1.211"/><path d="m-1165 416.5 0.041-13.49-7.603-9.234-6.371-0.0793"  stroke-width="1.211"/><path d="m-1198 416.5-0.041-13.49 7.603-9.234 6.371-0.0793"  stroke-width="1.211"/></g><g  ><g fill="#ff3ae1" ></g><g fill="none" stroke="#979797" stroke-width="3.587"><path d="m443 86.92c21.52 3.996 37.82 22.87 37.82 45.55 0 5.371-0.9139 10.53-2.595 15.33m-7.842 13.97c-8.496 10.4-21.42 17.03-35.89 17.03-14.38 0-27.24-6.555-35.74-16.84m-7.716-13.37c-1.862-5.019-2.88-10.45-2.88-16.12 0-23.05 16.84-42.18 38.89-45.74" /><g><path d="m435 71.19v15.85" /><path d="m395.7 155.1-13.68 8.014" /><path d="m474.3 155.1 13.68 8.014" /></g></g><g fill="#979797" ></g><g ></g><g fill="#f39746"  stroke-width="1.554"></g><g ></g><g fill="#f39745" ><g stroke-width="1.764"></g><g stroke-width="1.764"></g></g><g fill="#f49644"  stroke-width="1.764"></g></g>
  </svg>
</svg>
