<svg xmlns="http://www.w3.org/2000/svg" viewBox="0 0 390 640" preserveAspectRatio="xMidYMid meet">
  <style>
    * { vector-effect: non-scaling-stroke; }
    path, rect, circle, ellipse, polygon, polyline, line {
      fill: none !important;
      stroke: #73f8ff !important;
      stroke-width: 2.25px !important;
      stroke-linecap: round;
      stroke-linejoin: round;
      opacity: 0.92;
    }
  </style>
  <svg x="0" y="0" width="870" height="640" viewBox="0 0 870 640" preserveAspectRatio="xMinYMin meet">

<g transform="matrix(1.002 0 0 1.04 1220 9.606)"  fill="none"  ><path d="m-699.8 465.5-58.39-30.95-12.49-18.8 3.957-30.05 13.58-24.03 3.367-0.3531 23.87-33.83 12.09-11.37 61.79-102 1.494-0.4906 12.65-20.55-0.9471-1.887 5.399-8.596 30.42-12.08 5.686 2.69-0.2958 34.06-7.136 0.1116 0.1495 9.318-0.4408 54.56 4.167 21.59-0.3318 59.4-5.81 0.0155-0.5523 97.83"  stroke-width="1.727"/><path d="m-771.6 307h4.085v83.52l-2.336 17.19h-1.75z"  stroke-width="1.727"/><path d="m-767.2 286.9h5.306v37.64l-2.482 27.87h-2.824z"  stroke-width="1.209"/><path d="m-765 256.9 0.1529 30"  stroke-width="1.209"/><path d="m-761.9 279.2 0.1529 30"  stroke-width="1.209"/><path d="m-653.7 506-3.119 41-29.48-12.27-27.17-143.2 0.3919-5.731 38.74-55.05"  stroke-width="1.727"/><ellipse cx="-673" cy="519.4" rx="4.72" ry="4.72"  stroke-width="1.209"/><path d="m-590.6 205.8 4.502-20.39 14.36-0.0866 4.357 20.47"  stroke-width="1.727"/><ellipse cx="-754.6" cy="405.8" rx="4.72" ry="4.72"  stroke-width="1.209"/><path d="m-650.5 213.6 2.332 0.5332 6.836 7.422-7.316 12.1-5.684-0.9185-8.498 7.172-3.294-1.92"  stroke-width="1.209"/><path d="m-758.2 434.6 14.11-1.098 2.561-14.8-5.471-1.992-2.621-3.379 6.562-19.38 38.53-64.92-0.7018-7.223-8.588-5.643"  stroke-width="1.727"/><path d="m-656.1 534.7-23.6-5.179-25.85-139.8 1.22-4.301 24.31-35.95 5.629-18.67"  stroke-width="1.209"/><path d="m-718 331.5 6.052 3.6-23.99 40.34-6.052-3.6z"  stroke-width="1.209"/><path d="m-637.9 193.1 2.346 3.029-11.56 18.76"  stroke-width="1.209"/><path d="m-662.9 239.9-47.32 79.04"  stroke-width="1.209"/><path d="m-578.5 464.2-28.88-0.0179-0.185-14.14-24.99-0.0519-8.993 5.978-32-0.2586-0.1505 13.09-4.144-0.1748-0.7913-52.91-5.95-36.63-2.858-12.23 7.458-17.4"  stroke-width="1.727"/><g stroke-width="1.209"><path d="m-708.4 378.6-36.45 20.73" /><path d="m-712.3 397-34.72 19.71" /><path d="m-601.6 333.4-14.42 0.1933-22.58 4.399-48.86 28.94" /><path d="m-601.7 351.8-16.54 0.1781-20.45 0.6639-45.84 26.51" /><path d="m-638.6 337.9 1.639-109.3-4.408-7.084" /><path d="m-648.7 233.7-55.85 95.32" /><path d="m-637.8 261.9-21.54-9.859" /><path d="m-637.3 241.5-12.78-5.791" /><path d="m-704.2 336.7 20.54-10.22 30.32-71.15" /><path d="m-678 343 40.39-66.6" /><path d="m-664.7 353.8 26.43-44.63" /><path d="m-660.7 315.6 13.34 8.049" /><path d="m-704.5 329 1.467 30.01" /><path d="m-712.1 380.4 9.003-21.38 13.92-7.477" /><path d="m-727.7 368.3 20.77-0.2596" /></g><path d="m-613.8 180.6h13.08v21.84h-13.08z"  stroke-width="1.209"/><path d="m-633.7 213 4.58-5.162 6.877-0.1505 2.325 8.938v110.8l-13.78 5.125z"  stroke-width="1.209"/><g stroke-width="1.209"><path d="m-616 333.5 0.834-120.4 3.068-5.769 9.309-0.0125" /><path d="m-634.1 250.8 14.1-0.2596" /><path d="m-633.9 293.2 14.1-0.2596" /><path d="m-615.6 250.7 10.39-0.0828" /></g><path d="m-615.9 293.1 15.08-0.3066"  stroke-width="1.209"/><path d="m-607.4 376.4-32.77 0.4046-18.57 11.26"  stroke-width="1.209"/><path d="m-594.1 304.2 3.599-0.9194 21.45-0.0205 4.109 0.9401v26.66l-3.258 1.5-22.21-0.0484-3.694-1.452z"  stroke-width="1.209"/><path d="m-588.3 198 9.603-3.392 9.617 3.448"  stroke-width="1.209"/><path d="m-604.7 237.9 13.98-9.663 0.152-22.53"  stroke-width="1.727"/><path d="m-590.6 205.7-7.75 0.1261"  stroke-width="1.727"/><path d="m-581.4 229.4h5.08v-21.36h-5.08z"  stroke-width="1.209"/><path d="m-672.9 448.5 3.035 4.266 28.91 0.2458 4.859-4.825 0.1839-33.3-12.81-15.38-10.87-0.0287-3.272 2.991"  stroke-width="1.727"/><ellipse cx="-649.6" cy="223" rx="4.72" ry="4.72"  stroke-width="1.209"/><path d="m-608 340.3h-7.429v7.473h7.429z"  stroke-width="1.209"/><path d="m-578.7 239.1-6.467 0.127-3.002 2.48-7.15 37.98 4.857 4.826 11.76 0.1074 11.76-0.1074 4.857-4.826-7.152-37.98-3-2.48z"  stroke-width="1.727"/><path d="m-458.2 465.5 58.39-30.95 12.49-18.8-3.957-30.05-13.58-24.03-3.367-0.3531-23.87-33.83-12.09-11.37-61.79-102-1.494-0.4906-12.65-20.55 0.9471-1.887-5.399-8.596-30.42-12.08-5.686 2.69 0.3583 34.06 6.72 0.1115 0.204 9.318 0.4408 54.56-4.167 21.59 0.366 59.17 5.299 0.0921 1.029 97.98"  stroke-width="1.727"/><path d="m-386.4 307h-4.085v83.52l2.335 17.19h1.75z"  stroke-width="1.727"/><path d="m-390.8 286.9h-5.306v37.64l2.482 27.87h2.824z"  stroke-width="1.209"/><path d="m-393 256.9-0.1528 30"  stroke-width="1.209"/><path d="m-396.1 279.2-0.1528 30"  stroke-width="1.209"/><path d="m-504.3 506 3.119 41 29.48-12.27 27.17-143.2-0.3919-5.731-38.74-55.05"  stroke-width="1.727"/><g stroke-width="1.209"><ellipse transform="scale(-1,1)" cx="485" cy="519.4" rx="4.72" ry="4.72" /><ellipse transform="scale(-1,1)" cx="403.4" cy="405.8" rx="4.72" ry="4.72" /><path d="m-507.5 213.6-2.332 0.5332-6.836 7.422 7.316 12.1 5.684-0.9185 8.498 7.172 3.294-1.92" /></g><path d="m-399.8 434.6-14.11-1.098-2.561-14.8 5.471-1.992 2.621-3.379-6.562-19.38-38.53-64.92 0.7018-7.223 8.588-5.643"  stroke-width="1.727"/><path d="m-501.9 534.7 23.6-5.179 25.85-139.8-1.22-4.301-24.31-35.95-5.629-18.67"  stroke-width="1.209"/><path d="m-440 331.5-6.052 3.6 23.99 40.34 6.052-3.6z"  stroke-width="1.209"/><g stroke-width="1.209"><path d="m-520.1 193.1-2.346 3.029 11.56 18.76" /><path d="m-495.1 239.9 47.32 79.04" /><path d="m-449.6 378.6 36.45 20.73" /><path d="m-445.7 397 34.72 19.71" /><path d="m-556.4 333.4 14.42 0.1933 22.58 4.399 48.86 28.94" /><path d="m-556.3 351.8 16.54 0.1781 20.45 0.6639 45.84 26.51" /><path d="m-519.4 337.9-1.639-109.3 4.408-7.084" /><path d="m-509.3 233.7 55.85 95.32" /><path d="m-480 343-40.39-66.6" /><path d="m-493.3 353.8-26.43-44.63" /><path d="m-497.3 315.6-13.34 8.049" /><path d="m-453.5 329-1.467 30.01" /><path d="m-445.9 380.4-9.003-21.38-13.92-7.477" /><path d="m-430.3 368.3-20.77-0.2596" /></g><path d="m-544.2 180.6h-13.08v21.84h13.08z"  stroke-width="1.209"/><path d="m-524.3 213-4.58-5.162-6.877-0.1505-2.325 8.938v110.8l13.78 5.125z"  stroke-width="1.209"/><g stroke-width="1.209"><path d="m-542 333.5-0.834-120.4-3.068-5.769-9.309-0.0125" /><path d="m-523.9 250.8-14.1-0.2596" /><path d="m-524.1 293.2-14.1-0.2596" /><path d="m-542.4 250.7-10.39-0.0828" /></g><path d="m-542.1 293.1-15.08-0.3066"  stroke-width="1.209"/><path d="m-553.3 238.1-13.98-9.85-0.152-22.53"  stroke-width="1.727"/><path d="m-567.4 205.7 7.75 0.1261"  stroke-width="1.727"/><ellipse transform="scale(-1,1)" cx="508.4" cy="223" rx="4.72" ry="4.72"  stroke-width="1.209"/><path d="m-550 340.3h7.429v7.473h-7.429z"  stroke-width="1.209"/><g stroke-width="1.209"><path d="m-701.1 452.1-42.99-22.91" /><path d="m-456.9 452.1 42.99-22.91" /><path d="m-597.5 301.1 4.434-4.544 26.43-0.0343 5.063 4.578v40.69l-4.014 3.581-27.36-0.0812-4.551-3.5z" /></g><path d="m-650.9 359.6-11.75 42.26-10.29 46.64-0.6151 7.277"  stroke-width="1.727"/><path d="m-639 385.9h29.21v-7.13h-29.21z"  stroke-width="1.209"/><path d="m-579.5 464.2 28.88-0.0179 0.185-14.14 24.99-0.0519 8.993 5.978 32-0.2586 0.1505 13.09 4.144-0.1748 0.7913-52.91 5.95-36.63 2.858-12.23-7.458-17.4"  stroke-width="1.727"/><path d="m-507.1 359.6 11.75 42.26 10.29 46.64 0.6151 7.277"  stroke-width="1.727"/><path d="m-550.9 376.4 32.77 0.4046 18.57 11.26"  stroke-width="1.209"/><path d="m-519.2 385.9h-29.21v-7.13h29.21z"  stroke-width="1.209"/><path d="m-485.1 448.5-3.035 4.266-28.91 0.2458-4.859-4.825-0.1839-33.3 12.81-15.38 10.87-0.0287 3.272 2.991"  stroke-width="1.727"/><path d="m-673.7 468.8 9.04 0.1938 1.991 15.57 20.47 10.8 0.1892 10.1 5.493 1.257 1.854 20.21 55.16-0.0391"  stroke-width="1.727"/><path d="m-678.6 415.8 3.986-25.81-1.444-15.83"  stroke-width="1.209"/><path d="m-479.4 415.8-3.986-25.81 1.444-15.83"  stroke-width="1.209"/><path d="m-653.6 506.8-3.427-3.119-2.509-17.18"  stroke-width="1.727"/><path d="m-504.1 506.8 3.427-3.119 2.509-17.74"  stroke-width="1.727"/><g stroke-width="1.209"><path d="m-520.2 261.9 21.54-9.859" /><path d="m-520.7 241.5 12.78-5.791" /><path d="m-453.8 336.7-20.54-10.22-30.32-71.15" /></g><path d="m-484.3 468.8-9.04 0.1938-1.991 15.57-20.47 10.8-0.1892 10.1-5.493 1.257-1.854 20.21-56.16-0.0391"  stroke-width="1.727"/><path d="m-653.6 506.8 11.69-5.76"  stroke-width="1.209"/><path d="m-504.1 506.8-11.69-5.76"  stroke-width="1.209"/><g stroke-width="1.209"><path d="m-632.1 505.9h19.31v-48.85h-19.31z" /><path d="m-657.2 484.3h13.83v-24.1h-13.83z" /><path d="m-637.4 489.1h5.278v-18.62h-5.278z" /><path d="m-526.3 505.9h-19.31v-48.85h19.31z" /><path d="m-501.2 484.3h-13.83v-24.1h13.83z" /><path d="m-521.1 489.1h-5.278v-18.62h5.278z" /></g><path d="m-607.4 376.4h56.48"  stroke-width="1.209"/><g stroke-width="1.209"><path d="m-584.1 373.4h10.21v-25.6h-10.21z" /><path d="m-570.2 373.4h10.21v-25.6h-10.21z" /><path d="m-598.1 373.4h10.21v-25.6h-10.21z" /><path d="m-584.4 425.9h10.21v-25.6h-10.21z" /><path d="m-570.4 425.9h10.21v-25.6h-10.21z" /><path d="m-598.4 425.9h10.21v-25.6h-10.21z" /><path d="m-584.4 446.6h10.21v-16.94h-10.21z" /><path d="m-570.4 446.6h10.21v-16.94h-10.21z" /><path d="m-598.4 446.6h10.21v-16.94h-10.21z" /></g><g stroke-width="1.209"><path d="m-607.6 450.1h57.13" /><path d="m-607.6 457.2h57.13" /><path d="m-636.6 510.2c37.59 7.878 75.83 8.121 114.8 0" /></g><path d="m-604.6 482h51.49v-17.65h-51.49z"  stroke-width="1.209"/><path d="m-554.5 481.7v13.05l-4.597 3.111-39.44-0.0278-4.384-3.083v-13.05"  stroke-width="1.209"/><g stroke-width="1.209"><path d="m-586.7 497.7v9.52l-10.15-3e-5v-9.52" /><path d="m-573.8 497.7v9.52l-10.15-3e-5v-9.52" /><path d="m-560.7 497.7v9.52l-10.15-3e-5v-9.52" /></g><g stroke-width="1.209"><path d="m-621.5 513 0.1375 5.895" /><path d="m-626 512.3 0.1375 6.59" /><path d="m-610.9 514 0.1375 5.094" /><path d="m-615.4 513.4 0.1375 5.695" /><path d="m-598 515.5 0.1375 3.466" /><path d="m-602.5 515.1 0.1375 3.886" /><path d="m-586.1 515.9 0.1375 3.144" /><path d="m-590.6 515.7 0.1375 3.408" /><path d="m-536.5 513-0.1375 5.895" /><path d="m-532 512.3-0.1375 6.59" /><path d="m-547.1 514-0.1375 5.094" /><path d="m-542.6 513.4-0.1375 5.695" /><path d="m-560 515.5-0.1375 3.466" /><path d="m-555.5 515.2-0.1375 3.823" /><path d="m-572 515.9-0.1375 3.144" /><path d="m-567.4 515.8-0.1375 3.22" /></g><path d="m-573.5 479.8h16.33v-12.69h-16.33z"  stroke-width="1.209"/></g><g transform="matrix(1.002 0 0 1.04 1223 7.134)"  fill="none"  ><path d="m-987.9 518.8-44.18-0.1181-4.684-4.711-130.5-76.56-12.49-18.8 3.957-30.05 13.58-24.03 3.367-0.3531 23.87-33.83 12.09-11.37 61.79-102 1.494-0.4906 12.65-20.55-0.9471-1.887 5.399-8.596 30.42-12.08 5.686 2.69-1.046 32.32-0.4026 27.26-8.844-0.065-8.289 13.99-0.5573 50.56-10.49 3.112-0.3941 35.76 1.532 1.544-0.2015 111.4-9.01 0.1059-12.45-61.67-121.6 15.69"  stroke-width="1.727"/><path d="m-1181 309.9h4.085v83.52l-2.336 17.19h-1.75z"  stroke-width="1.727"/><path d="m-1176 289.7h5.306v37.64l-2.482 27.87h-2.824z"  stroke-width="1.209"/><path d="m-1174 259.8 0.1529 30"  stroke-width="1.209"/><path d="m-1171 282 0.1529 30"  stroke-width="1.209"/><path d="m-1046 522.2-14.72-9.006-65.29-51.44"  stroke-width="1.727"/><path d="m-1061 512.7-4.71 37.2-29.48-12.27-7.132-57.74"  stroke-width="1.727"/><ellipse cx="-1085" cy="522.2" rx="4.72" ry="4.72"  stroke-width="1.209"/><path d="m-999.7 208.6 4.502-20.39 14.36-0.0866 4.524 20.21"  stroke-width="1.727"/><ellipse cx="-1170" cy="416.9" rx="4.72" ry="4.72"  stroke-width="1.209"/><path d="m-1033 306.7h19.58v30.09h-19.58z"  stroke-width="1.209"/><path d="m-997.7 248.9h19.58v30.09h-19.58z"  stroke-width="1.209"/><path d="m-1007 208.4 38.19 0.1171"  stroke-width="1.727"/><g stroke-width="1.209"><path d="m-995.2 188.2 2.684 20.08" /><path d="m-1060 216.4 3.707 2.158-2.164 3.422 3.559 10.6-7.559 12.46-8.265-1.461-4.903-2.788" /><ellipse cx="-1065" cy="236.8" rx="4.72" ry="4.72" /></g><path d="m-1138 400.8 10.4-30.49 1.198-19.36 11.49-19.92-0.6401-4.795 1.548-2.785-8.963-4.518"  stroke-width="1.727"/><g stroke-width="1.209"><path d="m-1007 208.4-13.48-2.9e-4 -41.09 67.06 3.963 19.48" /><path d="m-1008 212.7-43.09 70.21-0.087 11.39" /><path d="m-1025 272.1-12.15 5.026-10.07 17.67" /><path d="m-1007 180.2-5.724 0.0755-27.81 10.16-6.909 5.477" /><path d="m-1084 254.6 6.32 10-27.84 48.18-13.34 0.2392" /><path d="m-1096 395.4-29.09-37.36" /><path d="m-1022 236.5-3.675-18.57" /><path d="m-1044 194.5 2.924 5.116-12.78 20.27-2.96 1.045" /><path d="m-1066 543.3-26.61-10.84-6.014-49.11" /></g><path d="m-1128 332.3 6.141 3.447-22.97 40.93-6.141-3.447z"  stroke-width="1.209"/><path d="m-995.5 297.6h15.33v-14.82h-15.33z"  stroke-width="1.209"/><g stroke-width="1.209"><path d="m-999.7 208.5-2.979 6.04 2.569 17.79 2.052 2.26-0.231 10.7-9.852 3.802-0.3241 66.37-0.7206 25.95-3.889 28.68" /><path d="m-978 234.6-1.94 1.291-3.866-2.623-8.589 0.0886-3.712 2.57-1.91-1.326" /><path d="m-1044 271.3-3.675-18.57" /><path d="m-1036 303.2-6.931-8.081-14.77-0.2079-5.835 6.528 6.407 39.12 22.27-0.0518" /><path d="m-1007 184.7-3.463 0.0515-46.31 41.25" /><path d="m-1082 273 3.097 7.276-48.07 80.67" /><path d="m-1067 391.7-42.61-60.61" /><path d="m-1059 391.5-11.6-76.7-13.33-26.34" /><path d="m-1035 376.4-25.06 1.41" /><path d="m-1012 364.9-22.32 3.16" /><path d="m-1008 249.1 0.2873-13.5" /></g><path d="m-997.7 301.5h19.67v-22.52h-19.67z"  stroke-width="1.209"/><path d="m-987.9 531.7-55.34 0.1283-2.066-1.444-0.2194-14.31-2.758-6.049-4.286-0.043 0.094-5.437"  stroke-width="1.727"/><path d="m-1016 371.2 2.549-1.07 4.986 2.858 20.16-0.2749"  stroke-width="1.727"/><g stroke-width="1.209"><path d="m-1021 452.5 5.666-82.05" /><path d="m-1180 418.6 14.07 15.71 139.4 65.23-8.387-131.4" /><path d="m-1146 449.7 2.484-5.329" /><path d="m-1129 460.3 3.234-6.954" /><path d="m-1105 473.4 4.235-8.767" /><path d="m-1085 485.3 6.482-13.76 19.88-0.6066 9.929-19.81-13.03-55.16-115.9 12.39" /><path d="m-1067 496 6.356-12.39" /><path d="m-1054 460.9-42.14-61.14" /><path d="m-1156 438.4 10.33-13.81 6.949-0.8845 12.35-20.81" /><path d="m-1044 194.5 2.924 5.116-12.78 20.27-2.96 1.045" /></g><path d="m-988.2 518.8 44.18-0.1181 4.684-4.711 130.5-76.56 12.49-18.8-3.957-30.05-13.58-24.03-3.367-0.3531-23.87-33.83-12.09-11.37-61.79-102-1.494-0.4906-12.65-20.55 0.9471-1.887-5.399-8.596-30.42-12.08-5.686 2.69 1.046 32.32 0.4026 27.26 8.844-0.065 8.289 13.99 0.5573 50.56 10.49 3.112 0.3941 35.76-1.532 1.544 0.2015 111.4 9.01 0.1059 12.45-61.67 121.6 15.69"  stroke-width="1.727"/><path d="m-988.2 531.7 55.34 0.1283 2.066-1.444 0.2194-14.31 2.758-6.049 4.286-0.043-0.094-5.437"  stroke-width="1.727"/><path d="m-795.5 309.9h-4.085v83.52l2.336 17.19h1.75z"  stroke-width="1.727"/><path d="m-799.8 289.7h-5.306v37.64l2.482 27.87h2.824z"  stroke-width="1.209"/><path d="m-802 259.8-0.1529 30"  stroke-width="1.209"/><path d="m-805.1 282-0.1529 30"  stroke-width="1.209"/><path d="m-930.4 522.2 14.72-9.006 65.29-51.44"  stroke-width="1.727"/><path d="m-914.9 512.7 4.71 37.2 29.48-12.27 7.132-57.74"  stroke-width="1.727"/><ellipse transform="scale(-1,1)" cx="891.5" cy="522.2" rx="4.72" ry="4.72"  stroke-width="1.209"/><ellipse transform="scale(-1,1)" cx="806.3" cy="416.9" rx="4.72" ry="4.72"  stroke-width="1.209"/><path d="m-943 306.7h-19.58v30.09h19.58z"  stroke-width="1.209"/><g stroke-width="1.209"><path d="m-980.9 188.2-2.684 20.08" /><path d="m-916.5 216.4-3.707 2.158 2.164 3.422-3.559 10.6 7.559 12.46 8.265-1.461 4.903-2.788" /><ellipse transform="scale(-1,1)" cx="911.1" cy="236.8" rx="4.72" ry="4.72" /></g><path d="m-838.2 400.8-10.4-30.49-1.198-19.36-11.49-19.92 0.6401-4.795-1.548-2.785 8.963-4.518"  stroke-width="1.727"/><g stroke-width="1.209"><path d="m-969 208.4 13.48-2.9e-4 41.09 67.06-3.963 19.48" /><path d="m-968.3 212.7 43.09 70.21 0.087 11.39" /><path d="m-950.9 272.1 12.15 5.026 10.07 17.67" /><path d="m-969.6 180.2 5.724 0.0755 27.81 10.16 6.909 5.477" /><path d="m-892.4 254.6-6.32 10 27.84 48.18 13.34 0.2392" /><path d="m-880.1 395.4 29.09-37.36" /><path d="m-953.7 236.5 3.675-18.57" /><path d="m-931.7 194.5-2.924 5.116 12.78 20.27 2.96 1.045" /><path d="m-910.3 543.3 26.61-10.84 6.014-49.11" /></g><path d="m-848.5 332.3-6.141 3.447 22.97 40.93 6.141-3.447z"  stroke-width="1.209"/><g stroke-width="1.209"><path d="m-976.4 208.5 2.979 6.04-2.569 17.79-2.052 2.26 0.231 10.7 9.852 3.802 0.3241 66.37 0.7206 25.95 3.889 28.68" /><path d="m-932.1 271.3 3.675-18.57" /><path d="m-940.1 303.2 6.931-8.081 14.77-0.2079 5.835 6.528-6.407 39.12-22.27-0.0518" /><path d="m-969.3 184.7 3.463 0.0515 46.31 41.25" /><path d="m-894.1 273-3.097 7.276 48.07 80.67" /><path d="m-909.3 391.7 42.61-60.61" /><path d="m-917.6 391.5 11.6-76.7 13.33-26.34" /><path d="m-940.7 376.4 25.06 1.41" /><path d="m-963.7 364.9 22.32 3.16" /><path d="m-968 249.1-0.2873-13.5" /><path d="m-955 452.5-5.666-82.05" /><path d="m-829.7 449.7-2.485-5.329" /><path d="m-847.6 460.3-3.235-6.954" /><path d="m-870.7 473.4-4.235-8.767" /><path d="m-890.7 485.3-6.482-13.76-19.88-0.6066-9.929-19.81 13.03-55.16 115.9 12.39" /><path d="m-909.3 496-6.356-12.39" /><path d="m-921.8 460.9 42.14-61.14" /><path d="m-820.2 438.4-10.33-13.81-6.949-0.8845-12.35-20.81" /></g><path d="m-960.5 371.2-2.549-1.07-4.986 2.858-20.16-0.2749"  stroke-width="1.727"/><path d="m-998.5 303.7h21.16l8 69.21h-37.16z"  stroke-width="1.209"/><path d="m-996.7 372.9h17.33v-13.82h-17.33z"  stroke-width="1.209"/><path d="m-996.7 359.1-1.853-55.38"  stroke-width="1.209"/><path d="m-979.3 359.1 1.978-55.38"  stroke-width="1.209"/><path d="m-1010 419.9-13.24 92h69.62l-13.24-92h-29.41z"  stroke-width="1.209"/><path d="m-1015 484.1-3.296 21.48h60.08l-3.296-21.48h-36.48z"  stroke-width="1.209"/><g stroke-width="1.209"><path d="m-1016 424.9 7.569-51.91" /><path d="m-960.4 424.9-7.569-51.91" /><path d="m-1057 466.3-88.47-41.73" /><path d="m-1090 450.6 0.9755-2.93-35.07-44.93" /><path d="m-919 466.3 88.47-41.73" /><path d="m-886 450.6-0.9754-2.93 35.07-44.93" /></g><path d="m-1043 448.8 5.241-0.3125-0.049-40.55-11.89 0.4375z"  stroke-width="1.209"/><path d="m-933.5 448.8-5.241-0.3125 0.049-40.55 11.89 0.4375z"  stroke-width="1.209"/><path d="m-796.3 418.6-14.07 15.71-139.4 65.23 8.387-131.4"  stroke-width="1.209"/></g><g  ><g fill="none" stroke="#979797" stroke-width="3.587"><path d="m443.3 86.92c21.52 3.996 37.82 22.87 37.82 45.55 0 5.371-0.9139 10.53-2.595 15.33m-7.842 13.97c-8.496 10.4-21.42 17.03-35.89 17.03-14.38 0-27.24-6.555-35.74-16.84m-7.716-13.37c-1.862-5.019-2.88-10.45-2.88-16.12 0-23.05 16.84-42.18 38.89-45.74" /><g><path d="m435.3 71.19v15.85" /><path d="m396 155.1-13.68 8.014" /><path d="m474.6 155.1 13.68 8.014" /></g></g><g fill="#979797" ><g stroke-width="3.587"></g></g><g fill="#ff3ae1" ></g><g fill="#f39746" ></g><g fill="#4df346" ></g><g fill="#f39745"  stroke-width="1.764"></g><g fill="#f49644"  stroke-width="1.764"></g><g fill="#f39745"  stroke-width="1.764"></g><g ></g></g>
  </svg>
</svg>
