<svg xmlns="http://www.w3.org/2000/svg" viewBox="0 0 390 640" preserveAspectRatio="xMidYMid meet">
  <style>
    * { vector-effect: non-scaling-stroke; }
    path, rect, circle, ellipse, polygon, polyline, line {
      fill: none !important;
      stroke: #73f8ff !important;
      stroke-width: 2.25px !important;
      stroke-linecap: round;
      stroke-linejoin: round;
      opacity: 0.92;
    }
  </style>
  <svg x="0" y="0" width="870" height="640" viewBox="0 0 870 640" preserveAspectRatio="xMinYMin meet">

<g transform="translate(1433 24)" fill="none" ><g  ><path d="m-744 73.07c-12.49 0.4389-24.18 16.59-31.57 32.41-7.934 16.99-11.24 34.5-15.36 53.95-4.468 21.87-7.017 36.29-7.959 51.32-2.034 37.22-3.403 73.48-5.318 110.4-0.7885 17.75-5.514 106-4.686 121.7l3.625 94.32c2.644 19.38 31.82 18.43 51 19.83l1.473-3.531 8.797-0.1406 8.797 0.1406 1.473 3.531c19.17-1.399 48.35-0.4453 51-19.83l3.625-94.32c0.8289-15.68-3.897-103.9-4.686-121.7-1.916-36.94-3.285-73.2-5.318-110.4-0.9422-15.03-3.491-29.45-7.959-51.32-4.122-19.45-7.424-36.95-15.36-53.95-7.387-15.82-19.09-31.98-31.57-32.41z"  stroke-width="1.764"/><path d="m-806 362.1-8.497 9.229-1.374 2.899-26.5 32.55-0.031 33.81 33.53-16.55"  stroke-width="1.764"/><path d="m-792.2 164.8-8.747 8.479-1.499 3.149-23.62 22.55-1.531 18.81 24.59-7.428 3.944 0.6321"  stroke-width="1.764"/><path d="m-812.2 425.6-0.042-16.96-26.32 12.66-0.088 17.2"  stroke-width="1.235"/><path d="m-803 210.4 0.05-8.908-20.22 6.328-0.7949 8.843"  stroke-width="1.235"/><ellipse transform="matrix(.9999 .01051 -.01574 .9999 0 0)" cx="-816.1" cy="219.5" rx="2.628" ry="2.673"  stroke-width="1.235"/><ellipse transform="matrix(.9999 .01051 -.01574 .9999 0 0)" cx="-827.8" cy="440.9" rx="2.628" ry="2.673"  stroke-width="1.235"/><ellipse transform="matrix(.9999 .01048 -.01578 .9999 0 0)" cx="-739" cy="316.5" rx="10.88" ry="11.04"  stroke-width="1.235"/><ellipse transform="matrix(.9999 .01048 -.01578 .9999 0 0)" cx="-739.1" cy="316.5" rx="8.961" ry="9.093"  stroke-width="1.235"/><ellipse transform="matrix(1 .008162 -.02026 .9998 0 0)" cx="-741.9" cy="103.2" rx="10.59" ry="8.366"  stroke-width="1.235"/><path d="m-796.9 435.5 3.175 75.83-11.57 25.85"  stroke-width="1.235"/><path d="m-798.7 422.3 2.462 0.0365 1.639 3.802 37.06 0.2369 0.8231-3.755 3.09 0.01 0.0833 9.61-1.754 3.297-41.52-0.0577-1.797-3.542z"  stroke-width="1.764"/><path d="m-755.3 435.5 1.425 80.08 1.125 37.84"  stroke-width="1.235"/><path d="m-744 116.7c-25.06-0.082-39.41 85.76-40.06 133l-3.503 108.3-5.267 44.87 0.0409 23.41"  stroke-width="1.235"/><path d="m-791.6 435.2 3.175 75.83c8.775 3.212 21.84 4.319 34.43 3.727"  stroke-width="1.235"/><path d="m-777.5 489.5h8.222v13.52h-8.222z"  stroke-width="1.235"/><ellipse transform="matrix(.9999 .01713 -.009654 1 0 0)" cx="-791.9" cy="253.6" rx="1.612" ry="2.673"  stroke-width="1.235"/><ellipse transform="matrix(.9999 .01713 -.009654 1 0 0)" cx="-797.7" cy="472.7" rx="1.612" ry="2.673"  stroke-width="1.235"/><ellipse transform="matrix(.9999 .01661 -.009957 1 0 0)" cx="-796.8" cy="505.9" rx="2.231" ry="3.586"  stroke-width="1.235"/><ellipse transform="matrix(1 .009165 -.01804 .9998 0 0)" cx="-769.9" cy="536" rx="5.212" ry="4.625"  stroke-width="1.235"/><ellipse transform="matrix(1 .009163 -.01804 .9998 0 0)" cx="-751.3" cy="549.8" rx="2.747" ry="2.437"  stroke-width="1.235"/></g><rect x="-778.6" y="218.7" width="11.84" height="19.36" rx="2.475" ry="2.475" stroke-width="1.235"/><g  ><rect x="-753" y="127" width="17.97" height="24.79" rx="2.475" ry="2.475"  stroke-width="1.235"/><rect x="-785.2" y="461" width="22.63" height="48.35" rx="2.475" ry="2.475"  stroke-width="1.235"/><rect x="-754.5" y="177.8" width="20.97" height="44.04" rx="2.475" ry="2.475"  stroke-width="1.235"/><path d="m-748.1 183.8h8.222v10.77h-8.222z"  stroke-width="1.235"/><path d="m-744 278.8h-12.55c-3.428 0-6.187-2.759-6.187-6.187v-77.24l8.188-9.05"  stroke-width="1.235"/><path d="m-744 288.3h-12.55c-3.428 0-6.187 2.759-6.187 6.187l-9.192 93.33"  stroke-width="1.235"/><g stroke-width="1.235"><path d="m-786 302.3-5.401-0.4257-12.06 2.74" /><path d="m-785.2 280.2-5.651-0.3007-11.63 2.49" /><path d="m-785.5 289.6-5.526-0.2382-11.44 2.803" /><path d="m-785.5 293.1-5.526-0.2382-11.44 2.803" /><path d="m-744 326-21.48-0.0604" /><path d="m-744 360.1-25.49-0.0604" /><path d="m-744 373.3-19.41-0.046-3.076-13.1" /><path d="m-756.8 422.6-0.1028-7.464c-0.0118-1.874-1.502-2.998-3.094-3.013l-33.16-0.0491" /><path d="m-770 412-0.0255-10.46 8.993-10.82-0.0757-17.49" /><path d="m-767.7 344.4-5.552 0.0279-11.31 13.67-3.003-7e-3" /><path d="m-764.3 308.7-11.93-5.097 0.0626-26.21c0.1142-7.531 8.324-15.83 13.63-15.87" /></g><path d="m-793.5 209.6 2.07-0.58c1.406-0.3938 2.452 0.3896 2.346 1.757l-1.114 14.36c-0.106 1.367-1.323 2.785-2.729 3.178l-2.07 0.58c-1.406 0.3938-2.452-0.3896-2.346-1.757l1.114-14.36c0.106-1.367 1.323-2.785 2.729-3.178z"  stroke-width="1.235"/><path d="m-799.9 343.2 2.051-0.6459c1.392-0.4386 2.463 0.311 2.401 1.681l-0.6544 14.39c-0.0623 1.37-1.233 2.825-2.626 3.264l-2.051 0.6459c-1.392 0.4386-2.463-0.311-2.401-1.681l0.6544-14.39c0.0623-1.37 1.233-2.825 2.626-3.264z"  stroke-width="1.235"/><path d="m-789.2 552.8 0.1028-1.776c0.0118-1.874 1.502-2.998 3.094-3.013l28.24 1.692c2.244 0.2792 1.594 4.451 1.42 6.946"  stroke-width="1.235"/><path d="m-682 362.1 8.497 9.229 1.374 2.899 26.5 32.55 0.031 33.81-33.53-16.55"  stroke-width="1.764"/><path d="m-695.8 164.8 8.747 8.479 1.499 3.149 23.62 22.55 1.531 18.81-24.59-7.428-3.944 0.6321"  stroke-width="1.764"/><path d="m-675.8 425.6 0.042-16.96 26.32 12.66 0.088 17.2"  stroke-width="1.235"/><path d="m-685 210.4-0.05-8.908 20.22 6.328 0.7949 8.843"  stroke-width="1.235"/><ellipse transform="matrix(-.9999 .01051 .01574 .9999 0 0)" cx="671.7" cy="203.9" rx="2.628" ry="2.673"  stroke-width="1.235"/><ellipse transform="matrix(-.9999 .01051 .01574 .9999 0 0)" cx="660" cy="425.2" rx="2.628" ry="2.673"  stroke-width="1.235"/><path d="m-691.1 435.5-3.175 75.83 11.57 25.85"  stroke-width="1.235"/><path d="m-689.3 422.3-2.462 0.0365-1.639 3.802-37.06 0.2369-0.8231-3.755-3.09 0.01-0.0833 9.61 1.754 3.297 41.52-0.0577 1.797-3.542z"  stroke-width="1.764"/><path d="m-732.7 435.5-1.425 80.08-1.125 37.84"  stroke-width="1.235"/><path d="m-744 116.7c25.06-0.082 39.41 85.76 40.06 133l3.503 108.3 5.267 44.87-0.0409 23.41"  stroke-width="1.235"/><path d="m-696.4 435.2-3.175 75.83c-8.775 3.212-21.84 4.319-34.43 3.727"  stroke-width="1.235"/><path d="m-710.5 489.5h-8.222v13.52h8.222z"  stroke-width="1.235"/><ellipse transform="matrix(-.9999 .01713 .009654 1 0 0)" cx="696.1" cy="228.1" rx="1.612" ry="2.673"  stroke-width="1.235"/><ellipse transform="matrix(-.9999 .01713 .009654 1 0 0)" cx="690.3" cy="447.2" rx="1.612" ry="2.673"  stroke-width="1.235"/><ellipse transform="matrix(-.9999 .01661 .009957 1 0 0)" cx="691.1" cy="481.2" rx="2.231" ry="3.586"  stroke-width="1.235"/><ellipse transform="matrix(-1 .009165 .01804 .9998 0 0)" cx="717.9" cy="522.4" rx="5.212" ry="4.625"  stroke-width="1.235"/><ellipse transform="matrix(-1 .009163 .01804 .9998 0 0)" cx="736.5" cy="536.2" rx="2.747" ry="2.437"  stroke-width="1.235"/><rect transform="scale(-1,1)" x="709.4" y="218.7" width="11.84" height="19.36" rx="2.475" ry="2.475"  stroke-width="1.235"/><rect transform="scale(-1,1)" x="702.8" y="461" width="22.63" height="48.35" rx="2.475" ry="2.475"  stroke-width="1.235"/><path d="m-744 278.8h12.55c3.428 0 6.187-2.759 6.187-6.187v-77.24l-8.188-9.05"  stroke-width="1.235"/><path d="m-744 288.3h12.55c3.428 0 6.187 2.759 6.187 6.187l9.192 93.33"  stroke-width="1.235"/><g stroke-width="1.235"><path d="m-702 302.3 5.401-0.4257 12.06 2.74" /><path d="m-702.8 280.2 5.651-0.3007 11.63 2.49" /><path d="m-702.5 289.6 5.526-0.2382 11.44 2.803" /><path d="m-702.5 293.1 5.526-0.2382 11.44 2.803" /><path d="m-744 326 21.48-0.0604" /><path d="m-744 360.1 25.49-0.0604" /><path d="m-744 373.3 19.41-0.046 3.076-13.1" /><path d="m-731.2 422.6 0.1028-7.464c0.0118-1.874 1.502-2.998 3.094-3.013l33.16-0.0491" /><path d="m-718 412 0.0255-10.46-8.993-10.82 0.0757-17.49" /><path d="m-720.3 344.4 5.552 0.0279 11.31 13.67 3.003-7e-3" /><path d="m-723.7 308.7 11.93-5.097-0.0626-26.21c-0.1142-7.531-8.324-15.83-13.63-15.87" /></g><path d="m-694.5 209.6-2.07-0.58c-1.406-0.3938-2.452 0.3896-2.346 1.757l1.114 14.36c0.106 1.367 1.323 2.785 2.729 3.178l2.07 0.58c1.406 0.3938 2.452-0.3896 2.346-1.757l-1.114-14.36c-0.106-1.367-1.323-2.785-2.729-3.178z"  stroke-width="1.235"/><path d="m-688.1 343.2-2.051-0.6459c-1.392-0.4386-2.463 0.311-2.401 1.681l0.6544 14.39c0.0623 1.37 1.233 2.825 2.626 3.264l2.051 0.6459c1.392 0.4386 2.463-0.311 2.401-1.681l-0.6544-14.39c-0.0623-1.37-1.233-2.825-2.626-3.264z"  stroke-width="1.235"/><path d="m-698.8 552.8-0.1028-1.776c-0.0118-1.874-1.502-2.998-3.094-3.013l-28.24 1.692c-2.244 0.2792-1.594 4.451-1.42 6.946"  stroke-width="1.235"/><g stroke-width="1.235"><path d="m-746.4 164h4.746v4.781h-4.746z" /><path d="m-746.4 502.4h4.746v4.781h-4.746z" /><path d="m-750.6 527h13.25v22.58h-13.25z" /><path d="m-753.6 251.3h19.22v18.65h-19.22z" /></g></g></g><g transform="translate(1327 24)"  fill="none"  ><path d="m-1172 105.5c-7.934 16.99-11.24 34.5-15.36 53.95-4.468 21.87-7.017 36.29-7.959 51.32-2.034 37.22-3.402 73.48-5.318 110.4-0.7885 17.75-5.514 106-4.686 121.7l3.625 94.32c2.644 19.38 28.82 18.43 47.99 19.83l1.473-3.531 11.78-0.1406h0.025l11.78 0.1406 1.473 3.531c19.17-1.399 45.35-0.4453 47.99-19.83l3.623-94.32c0.8289-15.68-3.895-103.9-4.684-121.7-1.916-36.94-3.285-73.2-5.318-110.4-0.9421-15.03-3.491-29.45-7.959-51.32-4.122-19.45-7.424-36.95-15.36-53.95-7.382-15.81-19.07-31.95-31.56-32.41-12.49 0.46-24.18 16.6-31.56 32.41z"  stroke-width="1.764"/><path d="m-1202 362.1-8.497 9.229-1.374 2.899-26.5 32.55-0.031 33.81 33.53-16.55"  stroke-width="1.764"/><path d="m-1188 164.8-8.747 8.479-1.499 3.149-23.62 22.55-1.531 18.81 24.59-7.428 3.944 0.6321"  stroke-width="1.764"/><path d="m-1208 425.6-0.042-16.96-26.32 12.66-0.088 17.2"  stroke-width="1.235"/><path d="m-1199 210.4 0.05-8.908-20.22 6.328-0.7949 8.843"  stroke-width="1.235"/><ellipse transform="matrix(.9999 .01051 -.01574 .9999 0 0)" cx="-1212" cy="223.7" rx="2.628" ry="2.673"  stroke-width="1.235"/><ellipse transform="matrix(.9999 .01051 -.01574 .9999 0 0)" cx="-1224" cy="445" rx="2.628" ry="2.673"  stroke-width="1.235"/><path d="m-1140 124.7c-13.87 0.0442-27.23 102.4-20.88 162.7l8.525-6e-3 4.557-7.469 7.803 0.0137m0.025 0 7.803-0.0137 4.557 7.469 8.525 6e-3c6.34-60.22-7.018-162.6-20.88-162.7"  stroke-width="1.764"/><g stroke-width="1.764"><path d="m-1140 121c-21 0.0306-30.3 105.7-31.27 154.7-0.1822 2.882-0.9774 4.589-1.736 5.226l-5.97 3.646-12.3-5.744-6.683-9.173" /><path d="m-1140 79.98c-19.05 0-40.78 75.8-39 204.5" /><path d="m-1140 76.3c-19.05 0-47.07 64.24-51.29 202.5" /></g><path d="m-1169 99.79 5.16 3.497"  stroke-width="1.235"/><path d="m-1176 115.1c3.041-3.185 5.978-3.422 8.342-3.221"  stroke-width="1.235"/><g stroke-width="1.764"><path d="m-1183 381.4-7.67 72.06c-0.3282 3.331-0.4101 6.261 1.684 6.732 2.261 0.4227 4.403-1.875 4.926-4.794l7.726-44.18 3.407-81.52c0.2516-9.914-3.408-15.11-5.908-16.94l-14.46-6.849-6.678 9.655" /><path d="m-1175 387.7-7.528-6.293-4.072-0.1206-7.392-8.316 2.888-66.06" /><path d="m-1174 371.1-7.528-6.293 1.743-52.61" /><path d="m-1182 445-0.7154-63.59" /></g><g stroke-width="1.235"><path d="m-1201 336.5 8.213 0.3146" /><path d="m-1205 450.6 14.49-4.105" /><path d="m-1203 499.2 15.59-25.1 1.288 38.79-15.64 3.706" /><path d="m-1202 510.6 15.74-3.855" /><path d="m-1185 525.1 17-96.4 6.955-141.3" /><path d="m-1140 498.8-29.51 0.0596c-2.168 0.0202-3.249-1.159-2.84-3.054l11.68-66.56 4.795-141.9" /><path d="m-1152 287.3-0.1022 35.03 12.49 0.0722" /><path d="m-1140 441.4-15.93-0.128c-1.371 0.0569-2.373 1.18-2.755 3.022l-8.122 44.05c-0.3498 1.736 0.222 3.05 2.443 3.086l24.36 0.0722" /><path d="m-1192 533.4 9.721-11.15c1.258-1.11 2.612-1.264 3.986-1.207l38.23-0.0749" /><path d="m-1188 532.8 6.84-8.018c1.23-1.11 2.555-1.264 3.899-1.207l34.08-0.0683-1e-4 1.951 3.316-0.0511" /></g><ellipse transform="matrix(.9999 .01048 -.01577 .9999 0 0)" cx="-1133" cy="424.7" rx="6.868" ry="6.971"  stroke-width="1.235"/><path d="m-1151 380.7h7.097v18.27h-7.097z"  stroke-width="1.235"/><path d="m-1152 423.7h5.222v12.65h-5.222z"  stroke-width="1.235"/><path d="m-1145 293.1h10.6v20.27h-10.6z"  stroke-width="1.235"/><path d="m-1148 365h4.746v4.781h-4.746z"  stroke-width="1.235"/><ellipse transform="matrix(.9999 .01713 -.009654 1 0 0)" cx="-1163" cy="321" rx="1.612" ry="2.673"  stroke-width="1.235"/><ellipse transform="matrix(.9999 .01713 -.009654 1 0 0)" cx="-1167" cy="434" rx="1.612" ry="2.673"  stroke-width="1.235"/><path d="m-1078 362.1 8.497 9.229 1.374 2.899 26.5 32.55 0.031 33.81-33.53-16.55"  stroke-width="1.764"/><path d="m-1092 164.8 8.747 8.479 1.499 3.149 23.62 22.55 1.531 18.81-24.59-7.428-3.944 0.6321"  stroke-width="1.764"/><path d="m-1072 425.6 0.042-16.96 26.32 12.66 0.088 17.2"  stroke-width="1.235"/><path d="m-1081 210.4-0.05-8.908 20.22 6.328 0.7949 8.843"  stroke-width="1.235"/><ellipse transform="matrix(-.9999 .01051 .01574 .9999 0 0)" cx="1067" cy="199.7" rx="2.628" ry="2.673"  stroke-width="1.235"/><ellipse transform="matrix(-.9999 .01051 .01574 .9999 0 0)" cx="1056" cy="421.1" rx="2.628" ry="2.673"  stroke-width="1.235"/><g stroke-width="1.764"><path d="m-1140 121c21 0.0306 30.3 105.7 31.27 154.7 0.1822 2.882 0.9773 4.589 1.736 5.226l5.97 3.646 12.3-5.744 6.683-9.173" /><path d="m-1140 79.98c19.05 0 40.78 75.8 39 204.5" /><path d="m-1140 76.3c19.05 0 47.07 64.24 51.29 202.5" /></g><path d="m-1111 99.79-5.16 3.497"  stroke-width="1.235"/><path d="m-1105 115.1c-3.041-3.185-5.978-3.422-8.342-3.221"  stroke-width="1.235"/><g stroke-width="1.764"><path d="m-1097 381.4 7.67 72.06c0.3282 3.331 0.4101 6.261-1.684 6.732-2.261 0.4227-4.403-1.875-4.926-4.794l-7.726-44.18-3.407-81.52c-0.2515-9.914 3.408-15.11 5.908-16.94l14.46-6.849 6.678 9.655" /><path d="m-1105 387.7 7.528-6.293 4.072-0.1206 7.392-8.316-2.888-66.06" /><path d="m-1106 371.1 7.528-6.293-1.743-52.61" /><path d="m-1098 445 0.7154-63.59" /></g><g stroke-width="1.235"><path d="m-1079 336.5-8.214 0.3146" /><path d="m-1075 450.6-14.49-4.105" /><path d="m-1077 499.2-15.59-25.1-1.288 38.79 15.64 3.706" /><path d="m-1078 510.6-15.74-3.855" /><path d="m-1095 525.1-17-96.4-6.954-141.3" /><path d="m-1140 498.8 29.51 0.0596c2.168 0.0202 3.249-1.159 2.84-3.054l-11.68-66.56-4.795-141.9" /><path d="m-1128 287.3 0.1022 35.03-12.49 0.0722" /><path d="m-1140 441.4 15.93-0.128c1.371 0.0569 2.373 1.18 2.755 3.022l8.122 44.05c0.3499 1.736-0.222 3.05-2.443 3.086l-24.36 0.0722" /><path d="m-1088 533.4-9.721-11.15c-1.258-1.11-2.612-1.264-3.986-1.207l-38.23-0.0749" /><path d="m-1092 532.8-6.84-8.018c-1.231-1.11-2.555-1.264-3.9-1.207l-34.08-0.0683 1e-4 1.951-3.316-0.0511" /></g><g stroke-width="1.235"><path d="m-1129 380.7h-7.097v18.27h7.097z" /><path d="m-1128 423.7h-5.222v12.65h5.222z" /><path d="m-1132 365h-4.746v4.781h4.746z" /></g><ellipse transform="matrix(-.9999 .01713 .009654 1 0 0)" cx="1117" cy="281.9" rx="1.612" ry="2.673"  stroke-width="1.235"/><ellipse transform="matrix(-.9999 .01713 .009654 1 0 0)" cx="1113" cy="394.9" rx="1.612" ry="2.673"  stroke-width="1.235"/><path d="m-1183 381.4 1.422-16.66"  stroke-width="1.235"/><path d="m-1097 381.4-1.422-16.66"  stroke-width="1.235"/></g><g  ><g fill="none" stroke="#979797" stroke-width="3.587"><path d="m442.9 86.92c21.52 3.996 37.82 22.87 37.82 45.55 0 5.371-0.9139 10.53-2.595 15.33m-7.842 13.97c-8.496 10.4-21.42 17.03-35.89 17.03-14.38 0-27.24-6.555-35.74-16.84m-7.716-13.37c-1.862-5.019-2.88-10.45-2.88-16.12 0-23.05 16.84-42.18 38.89-45.74" /><g><path d="m434.9 71.19v15.85" /><path d="m395.6 155.1-13.68 8.014" /><path d="m474.2 155.1 13.68 8.014" /></g></g><g ><g><g stroke-width="1.764"></g></g></g><g fill="#ff3ae1" ></g><g fill="#f39745"  stroke-width="1.661"></g><g fill="#f39745"  stroke-width="1.764"></g><g ><g></g></g></g>
  </svg>
</svg>
