<svg xmlns="http://www.w3.org/2000/svg" viewBox="0 0 390 640" preserveAspectRatio="xMidYMid meet">
  <style>
    * { vector-effect: non-scaling-stroke; }
    path, rect, circle, ellipse, polygon, polyline, line {
      fill: none !important;
      stroke: #73f8ff !important;
      stroke-width: 2.25px !important;
      stroke-linecap: round;
      stroke-linejoin: round;
      opacity: 0.92;
    }
  </style>
  <svg x="0" y="0" width="870" height="640" viewBox="0 0 870 640" preserveAspectRatio="xMinYMin meet">

<g></g><g transform="translate(1274)"  fill="none"  ><path d="m-649.8 325.9c-2.606-0.1464-4.579 2.877-7.656 6.336-21.37 23.55-37.37 56.51-126.8 87.31l-0.1836 1.832c72.63-1.261 88.59 15.6 110.2 20.84 8.668 2.603 14.87 3.994 20.88 6.422 2.372 1.146 4.712 2.538 6.723 4.379l6.223 0.0195-1.795 4.033c8.851 8.103 14.61 18.8 19.19 19 4.583-0.1962 10.34-10.89 19.19-19l-1.795-4.033 6.223-0.0195c2.011-1.841 4.351-3.233 6.723-4.379 6.012-2.428 12.21-3.819 20.88-6.422 21.62-5.244 37.58-22.1 110.2-20.84l-0.1836-1.832c-89.44-30.8-105.4-63.77-126.8-87.31-3.078-3.459-5.05-6.482-7.656-6.336-0.3723 0.0209-0.7569 0.1054-1.16 0.2637-8.256 3.403-4.462 23.6-7.092 36.59l-0.041 0.2578c-3.708-6.782-9.488-11.68-18.49-11.58-9.006-0.1025-14.79 4.798-18.49 11.58l-0.041-0.2578c-2.629-12.99 1.164-33.19-7.092-36.59-0.4033-0.1582-0.7878-0.2428-1.16-0.2637z"  stroke-width="1.764"/><path d="m-689.4 368.3c-10.28 34.21-26.01 33.81-52.68 34.4"  stroke-width="1.235"/><g stroke-width="1.764"><path d="m-670.5 443.2c1.998 2.98 3.101 6.358 4.05 9.804l19.83 8e-3" /><path d="m-666.4 453 3.707 6.899 18.79 0.025 1.708-2.666" /><path d="m-784.3 419.5c-7.008 1.454-11.46 6.049-13.5 12.29l-5.643 2.692-0.0777-4.972c4.444-11.54 14.33-21.09 25.79-30.05 4.624 2.755 17.5 2.413 31.42 1.683l-0.5636 1.694 4.039-0.0993" /></g><path d="m-746.3 401.2c-6.442 4.715-25.05 12.18-37.99 18.36"  stroke-width="1.235"/><ellipse transform="matrix(.9999 .0105 -.01574 .9999 0 0)" cx="-773.7" cy="418.4" rx="3.282" ry="3.338"  stroke-width="1.235"/><ellipse transform="matrix(.9999 .0105 -.01574 .9999 0 0)" cx="-807.3" cy="410.3" rx="3.282" ry="3.338"  stroke-width="1.235"/><path d="m-799.4 432.5-1.117 4.302-5.664 1.559-2.782 16.72-7.441 0.1168-3.03-16.43c-6.668-22.24-9.884-49.68-1.431-75.41l19.91 0.1952c0.9955 8.437 4.977 15.49 12.51 22.97 0.5056 6.927 1.743 10.51 6.061 13.82-9.569 7.559-17.79 16.68-21.08 29.2"  stroke-width="1.764"/><path d="m-803.4 434.5-2.79 3.845"  stroke-width="1.235"/><g stroke-width="1.764"><path d="m-819.7 363 1.673-5.985 3.975 0.01 0.575 1.685 4.266-0.0132 0.6402-1.658 3.422 8e-3 1.269 6.369" /><path d="m-784.4 402.3 1.536 1.491" /><path d="m-811.5 336.3-0.0546 27.79" /></g><path d="m-815.1 363.6h6.102v22.11h-6.102z"  stroke-width="1.235"/><path d="m-819.4 438.8c4.616 0.5591 9.878 0.4238 13.25-0.41"  stroke-width="1.764"/><path d="m-819.4 438.8 0.6089-13.44 11.91-0.0939 0.735 13.13"  stroke-width="1.764"/><g stroke-width="1.235"><path d="m-820.9 363.3c-4.232 31.49-0.1599 43.49 2.04 61.97" /><path d="m-641.5 363c0.8189 10.99-4.265 20.24-10.1 18.74-24.7-6.803-21.23 39.7-21.25 60.65" /><path d="m-749.8 406.3 45.66-0.7222c9.779-7.137 25.69-26.18 33.11-56.43" /><path d="m-637.6 425.4h29.1v30.05h-29.1z" /><path d="m-623 382c-17.76 0.1338-25.8 7.894-25.85 23.82 0.259 39.17 15.19 61.88 25.85 62.22" /><path d="m-666.9 444c1.713-15.34-2.532-26.09-0.703-40.82 2.26-21.21 14.43-20.41 14.67-10.28 0.8718 22.22 2.18 47.12 9.088 59.71" /><path d="m-623 355.5c-3.16 0.0717-5.865 0.5207-8.23 1.917l0.0109 25.07" /><path d="m-659.9 338.3c-4.693 36.56-20.97 47.29-15.92 94.11-37.79-14.34-60.28-14.95-79.89-12.97l-3.588-2.356c14.54-4.15 43.7-2.723 55.17-7.01 10.79-2.756 34.77-38.83 39.12-65.32z" /><path d="m-695 403.7-0.076 22.18" /><path d="m-687.6 394.3 12.83-8e-3" /><path d="m-556.6 368.3c10.28 34.21 26.01 33.81 52.68 34.4" /></g><g stroke-width="1.764"><path d="m-575.5 443.2c-1.998 2.98-3.101 6.358-4.05 9.804l-19.83 8e-3" /><path d="m-579.6 453-3.707 6.899-18.79 0.025-1.708-2.666" /><path d="m-461.7 419.5c7.008 1.454 11.46 6.049 13.5 12.29l5.643 2.692 0.0777-4.972c-4.444-11.54-14.33-21.09-25.79-30.05-4.624 2.755-17.5 2.413-31.42 1.683l0.5636 1.694-4.039-0.0993" /></g><path d="m-499.7 401.2c6.442 4.715 25.05 12.18 37.99 18.36"  stroke-width="1.235"/><ellipse transform="matrix(-.9999 .0105 .01574 .9999 0 0)" cx="472.1" cy="405.3" rx="3.282" ry="3.338"  stroke-width="1.235"/><ellipse transform="matrix(-.9999 .0105 .01574 .9999 0 0)" cx="438.6" cy="397.3" rx="3.282" ry="3.338"  stroke-width="1.235"/><path d="m-446.6 432.5 1.117 4.302 5.664 1.559 2.782 16.72 7.441 0.1168 3.03-16.43c6.668-22.24 9.884-49.68 1.431-75.41l-19.91 0.1952c-0.9955 8.437-4.977 15.49-12.51 22.97-0.5056 6.927-1.743 10.51-6.061 13.82 9.569 7.559 17.79 16.68 21.08 29.2"  stroke-width="1.764"/><path d="m-442.6 434.5 2.79 3.845"  stroke-width="1.235"/><g stroke-width="1.764"><path d="m-426.3 363-1.673-5.985-3.975 0.01-0.575 1.685-4.266-0.0132-0.6402-1.658-3.422 8e-3 -1.269 6.369" /><path d="m-461.6 402.3-1.536 1.491" /><path d="m-434.5 336.3 0.0546 27.79" /></g><path d="m-430.9 363.6h-6.102v22.11h6.102z"  stroke-width="1.235"/><path d="m-426.6 438.8c-4.616 0.5591-9.878 0.4238-13.25-0.41"  stroke-width="1.764"/><path d="m-426.6 438.8-0.6089-13.44-11.91-0.0939-0.735 13.13"  stroke-width="1.764"/><g stroke-width="1.235"><path d="m-425.1 363.3c4.232 31.49 0.1599 43.49-2.04 61.97" /><path d="m-604.5 363c-0.8189 10.99 4.265 20.24 10.1 18.74 24.7-6.803 21.23 39.7 21.25 60.65" /><path d="m-496.2 406.3-45.66-0.7222c-9.779-7.137-25.69-26.18-33.11-56.43" /><path d="m-623 382c17.76 0.1338 25.8 7.894 25.85 23.82-0.259 39.17-15.19 61.88-25.85 62.22" /><path d="m-579.1 444c-1.713-15.34 2.532-26.09 0.703-40.82-2.26-21.21-14.43-20.41-14.67-10.28-0.8718 22.22-2.18 47.12-9.088 59.71" /><path d="m-623 355.5c3.16 0.0717 5.865 0.5207 8.23 1.917l-0.0109 25.07" /><path d="m-586.1 338.3c4.693 36.56 20.97 47.29 15.92 94.11 37.79-14.34 60.28-14.95 79.89-12.97l3.588-2.356c-14.54-4.15-43.7-2.723-55.17-7.01-10.79-2.756-34.77-38.83-39.12-65.32z" /><path d="m-551 403.7 0.076 22.18" /><path d="m-558.4 394.3-12.83-8e-3" /></g></g><g transform="translate(1526)"  fill="none"  ><path d="m-1302 351.4c-23.54-0.268-25.09 33.6-24.99 46.09 0.4963 30.4 11.88 44.14 24.99 44.27 13.11-0.1294 24.49-13.88 24.99-44.27 0.1-12.49-1.449-46.36-24.99-46.09z"  stroke-width="1.764"/><path d="m-1302 476.3c-6.4-0.274-15.9-20.71-30.34-27.69-6.012-2.428-12.21-3.819-20.88-6.422-21.62-5.244-37.58-22.1-110.2-20.84l0.1837-1.833c89.44-30.8 105.4-63.77 126.8-87.32 3.517-3.954 5.591-7.337 8.817-6.071 8.256 3.403 4.463 23.6 7.092 36.59"  stroke-width="1.764"/><g stroke-width="1.235"><path d="m-1318 359c-0.2091 4.372 0.8996 5.986 1.16 9.028 0.613 8.883-5.879 22.71 4.392 46.26 4.483 9.848 2.648 24.52 10.19 24.56" /><path d="m-1318 391c-0.038 25.83-2.53 28.98-5.644 29.22" /><path d="m-1324 372.5c-1.873 7.928-5.87 8.869-13.11 14.47-13.51 10.6-20.2 35.97-20.96 52.76" /><path d="m-1327 394.6c-0.3728-2.447-0.2447-9.631-7.484-4.028-13.51 10.6-17.82 34.72-18.59 51.51" /><path d="m-1350 348.7c-5.918 46.56-42.16 51.94-43.26 79.61" /><path d="m-1368 368.3c-10.28 34.21-26.01 33.81-52.68 34.4" /></g><path d="m-1349 443.2c1.998 2.98 3.1 6.358 4.05 9.804l19.92 0.0602"  stroke-width="1.764"/><path d="m-1345 453 3.707 6.899 18.79 0.025 1.708-2.666"  stroke-width="1.764"/><g stroke-width="1.235"><path d="m-1326 412.5c-0.4379 12.8-4.944 15.97-3.313 37.36" /><path d="m-1318 433.1c-6.294-4.506-9.06 14.49-5.938 21.23" /><path d="m-1341 341c-10.78 55.31-31.71 54.77-35.99 83.64l-10.41-2.367c7.065-23.58 31.79-25.75 43.5-77.96z" /><path d="m-1353 396.7c-3.202 10.75-6.091 21.36-7.196 31.17-2.901 0.1037-5.704-0.0398-8.138-1.105 1.157-9.5 6.007-18.93 13.24-29.73 0.8698-1.208 2.243-0.8095 2.089-0.3377z" /></g><path d="m-1463 419.5c-7.008 1.454-11.46 6.049-13.5 12.29l-5.643 2.692-0.078-4.972c4.444-11.54 14.33-21.09 25.79-30.05 4.624 2.755 17.5 2.413 31.42 1.683l-0.5636 1.694 4.039-0.0993"  stroke-width="1.764"/><path d="m-1425 401.2c-6.442 4.715-25.05 12.18-37.99 18.36"  stroke-width="1.235"/><ellipse transform="matrix(.9999 .0105 -.01574 .9999 0 0)" cx="-1452" cy="425.5" rx="3.282" ry="3.338"  stroke-width="1.235"/><ellipse transform="matrix(.9999 .0105 -.01574 .9999 0 0)" cx="-1487" cy="396.7" rx="3.282" ry="3.338"  stroke-width="1.235"/><path d="m-1478 432.5-1.117 4.302-5.664 1.559-2.782 16.72-7.442 0.1168-3.03-16.43c-6.668-22.24-9.884-49.68-1.431-75.41l19.91 0.1952c0.9954 8.437 4.977 15.49 12.51 22.97 0.5056 6.927 1.743 10.51 6.061 13.82-9.569 7.559-17.79 16.68-21.08 29.2"  stroke-width="1.764"/><g stroke-width="1.235"><path d="m-1482 434.5-2.79 3.845" /><path d="m-1484 363.5c4.203 25.4 2.781 45.43 1.992 66.07" /><path d="m-1505 396.1 23.17 0.0327" /><path d="m-1500 396.1 2.214 42.62" /><path d="m-1485 396.3-0.1572 42.08" /><path d="m-1500 407.3 3.699 18 8.068-0.1192 3.177-18.28" /><path d="m-1499 416.3 3.574 18 7.796-0.1192 3.07-18.28" /><path d="m-1499 430.5 2.887 14.82 7.796-0.1192 2.945-15.47" /><path d="m-1481 411.1c9.484-4.009 10.6-14.7-0.1161-14.98" /></g><g stroke-width="1.764"><path d="m-1498 363 1.674-5.985 3.975 0.01 0.575 1.685 4.266-0.0132 0.6402-1.658 3.422 8e-3 1.269 6.369" /><path d="m-1463 402.3 1.536 1.491" /><path d="m-1490 336.3-0.055 22.67" /></g><g stroke-width="1.235"><path d="m-1459 421.1c25.21-5.821 50.41-11.65 76.92-15.84" /><path d="m-1445 421.3c18.26-2.323 36.53-4.252 54.8-4.592" /><path d="m-1390 406.2c13.52-12.21 27.22-24.06 30.17-46.59" /></g><path d="m-1302 476.3c6.4-0.274 15.9-20.71 30.34-27.69 6.012-2.428 12.21-3.819 20.88-6.422 21.62-5.244 37.58-22.1 110.2-20.84l-0.1837-1.833c-89.44-30.8-105.4-63.77-126.8-87.32-3.517-3.954-5.591-7.337-8.817-6.071-8.256 3.403-4.463 23.6-7.092 36.59"  stroke-width="1.764"/><g stroke-width="1.235"><path d="m-1286 359c0.2091 4.372-0.8996 5.986-1.16 9.028-0.613 8.883 5.879 22.71-4.392 46.26-4.483 9.848-2.648 24.52-10.19 24.56" /><path d="m-1286 391c0.038 25.83 2.53 28.98 5.644 29.22" /><path d="m-1279 372.5c1.873 7.928 5.87 8.869 13.11 14.47 13.51 10.6 20.2 35.97 20.96 52.76" /><path d="m-1277 394.6c0.3729-2.447 0.2448-9.631 7.484-4.028 13.51 10.6 17.82 34.72 18.59 51.51" /><path d="m-1254 348.7c5.918 46.56 42.16 51.94 43.26 79.61" /><path d="m-1235 368.3c10.28 34.21 26.01 33.81 52.68 34.4" /></g><path d="m-1254 443.2c-1.998 2.98-3.1 6.358-4.05 9.804l-19.92 0.0602"  stroke-width="1.764"/><path d="m-1258 453-3.707 6.899-18.79 0.025-1.708-2.666"  stroke-width="1.764"/><g stroke-width="1.235"><path d="m-1278 412.5c0.4379 12.8 4.944 15.97 3.313 37.36" /><path d="m-1286 433.1c6.294-4.506 9.06 14.49 5.938 21.23" /><path d="m-1263 341c10.78 55.31 31.71 54.77 35.99 83.64l10.41-2.367c-7.065-23.58-31.79-25.75-43.5-77.96z" /><path d="m-1251 396.7c3.202 10.75 6.091 21.36 7.196 31.17 2.901 0.1037 5.704-0.0398 8.138-1.105-1.157-9.5-6.007-18.93-13.24-29.73-0.8698-1.208-2.243-0.8095-2.089-0.3377z" /></g><path d="m-1141 419.5c7.008 1.454 11.46 6.049 13.5 12.29l5.643 2.692 0.078-4.972c-4.444-11.54-14.33-21.09-25.79-30.05-4.624 2.755-17.5 2.413-31.42 1.683l0.5635 1.694-4.039-0.0993"  stroke-width="1.764"/><path d="m-1179 401.2c6.442 4.715 25.05 12.18 37.99 18.36"  stroke-width="1.235"/><ellipse transform="matrix(-.9999 .0105 .01574 .9999 0 0)" cx="1152" cy="398.2" rx="3.282" ry="3.338"  stroke-width="1.235"/><ellipse transform="matrix(-.9999 .0105 .01574 .9999 0 0)" cx="1116" cy="369.4" rx="3.282" ry="3.338"  stroke-width="1.235"/><path d="m-1125 432.5 1.117 4.302 5.664 1.559 2.782 16.72 7.442 0.1168 3.03-16.43c6.668-22.24 9.884-49.68 1.431-75.41l-19.91 0.1952c-0.9954 8.437-4.977 15.49-12.51 22.97-0.5056 6.927-1.743 10.51-6.062 13.82 9.569 7.559 17.79 16.68 21.08 29.2"  stroke-width="1.764"/><g stroke-width="1.235"><path d="m-1121 434.5 2.79 3.845" /><path d="m-1119 363.5c-4.203 25.4-2.781 45.43-1.992 66.07" /><path d="m-1099 396.1-23.17 0.0327" /><path d="m-1103 396.1-2.214 42.62" /><path d="m-1119 396.3 0.1572 42.08" /><path d="m-1104 407.3-3.699 18-8.068-0.1192-3.177-18.28" /><path d="m-1104 416.3-3.574 18-7.796-0.1192-3.07-18.28" /><path d="m-1105 430.5-2.887 14.82-7.796-0.1192-2.945-15.47" /><path d="m-1122 411.1c-9.484-4.009-10.6-14.7 0.1161-14.98" /></g><g stroke-width="1.764"><path d="m-1106 363-1.674-5.985-3.975 0.01-0.5751 1.685-4.266-0.0132-0.6402-1.658-3.422 8e-3 -1.269 6.369" /><path d="m-1140 402.3-1.536 1.491" /><path d="m-1114 336.3 0.055 22.67" /></g><g stroke-width="1.235"><path d="m-1144 421.1c-25.21-5.821-50.41-11.65-76.92-15.84" /><path d="m-1159 421.3c-18.26-2.323-36.53-4.252-54.8-4.592" /><path d="m-1214 406.2c-13.52-12.21-27.22-24.06-30.17-46.59" /></g></g><g  ><g fill="none" stroke="#979797" stroke-width="3.587"><path d="m442.9 86.92c21.52 3.996 37.82 22.87 37.82 45.55 0 5.371-0.9139 10.53-2.595 15.33m-7.842 13.97c-8.496 10.4-21.42 17.03-35.89 17.03-14.38 0-27.24-6.555-35.74-16.84m-7.716-13.37c-1.862-5.019-2.88-10.45-2.88-16.12 0-23.05 16.84-42.18 38.89-45.74" /><g><path d="m434.9 71.19v15.85" /><path d="m395.6 155.1-13.68 8.014" /><path d="m474.2 155.1 13.68 8.014" /></g></g><g fill="#979797" ></g><g ></g><g fill="#f39745"  stroke-width="1.764"></g><g fill="#f39745" ><g stroke-width="1.235"></g></g></g>
  </svg>
</svg>
