<svg xmlns="http://www.w3.org/2000/svg" viewBox="0 0 390 640" preserveAspectRatio="xMidYMid meet">
  <style>
    * { vector-effect: non-scaling-stroke; }
    path, rect, circle, ellipse, polygon, polyline, line {
      fill: none !important;
      stroke: #73f8ff !important;
      stroke-width: 2.25px !important;
      stroke-linecap: round;
      stroke-linejoin: round;
      opacity: 0.92;
    }
  </style>
  <svg x="0" y="0" width="870" height="640" viewBox="0 0 870 640" preserveAspectRatio="xMinYMin meet">

<g></g><g transform="translate(1304)"  fill="none"  ><path d="m-676.6 174.6-26.73 8.916-86.64 198.9 9.807 11.73-6.496 14.38 42.76 54.41 12.91 7.752 0.7168 35.93 2.99 13.92 9.904 7.197 44.4-6.471 1.865-17.62-0.3223-30.31 3.404-1.764 1.922-6.621 4.098 0.0918 5 28.66 2.619 4.471 3.293-0.0234 3.293 0.0234 2.619-4.471 5-28.66 4.098-0.0918 1.922 6.621 3.404 1.764-0.3223 30.31 1.865 17.62 44.4 6.471 9.904-7.197 2.99-13.92 0.7168-35.93 12.91-7.752 42.76-54.41-6.496-14.38 9.807-11.73-86.64-198.9-26.73-8.916 7.629 73.23-4.76 5.256-16.65 0.1699-0.0586 7.461-4.479 0.041-0.0195 3.697-7.17-0.0508-7.17 0.0508-0.0195-3.697-4.479-0.041-0.0586-7.461-16.65-0.1699-4.76-5.256z"  stroke-width="1.764"/><g stroke-width="1.764"><path d="m-743.1 274.5 38.13 37.96-11.58 28.78-9.387 40.19 6.772 15.98 33.83-44.25 5e-3 -47.47-19.65 6.773" /><path d="m-716.5 341.3 31.22 11.92" /><path d="m-662.7 260.8 0.0662 115.2-4.501 21.87-3.521 4.238 0.1057 30.52 3.861 4.906 4.744 27.64" /><path d="m-719.1 397.4-12.24 30.25 0.4088 43.09" /></g><g stroke-width="1.235"><path d="m-683.1 321.7h10.36v48.97h-10.36z" /><path d="m-683.1 370.7-31.54 31.72-4.502 12.1 0.7752 95.51 1.035 17.82" /><path d="m-672.8 370.7 10.16 0.0387" /><path d="m-672.8 370.7-0.8725 28.2 0.2389 54.75 1.989 19.79" /><path d="m-731 470.8 12.2 2.839 5.873-0.2521 5.013-5.023 28.37-0.9661 4.322 4.205 3.589-0.2116" /><path d="m-731.1 484.2 10.26 3.016 5.873-0.2521 5.013-5.023 28.37-0.9661 4.322 4.205 5.887-0.5651" /><path d="m-671.1 503.7-47.37 3.535" /><path d="m-706.5 417.5h22.03v32.53h-22.03z" /><path d="m-716.7 245.1h10.18v19.62h-10.18z" /><path d="m-744.2 344.6 3.823-9.438 18.19 7.367-3.823 9.438z" /><path d="m-750 359 3.823-9.438 18.19 7.367-3.823 9.438z" /><path d="m-780.1 394.2 43.77-103.1 28.15 28.27" /><path d="m-684.2 247.9-6.211 59.65" /><path d="m-688.1 285.9 6.51 6.003 9.039 2.205-0.1607 27.61" /><path d="m-658.2 264.5-4.18 53.78" /><path d="m-662.7 376 11.6 0.0387" /><path d="m-664.7 405.8h27.33v26.78h-27.33z" /><path d="m-690.9 179.6-44.95 102.2" /></g><ellipse transform="matrix(-.9355 -.3532 -.3484 .9374 0 0)" cx="590.1" cy="422.9" rx="3.902" ry="4.106"  stroke-width="1.235"/><ellipse transform="matrix(.9995 .03216 -.04266 .9991 0 0)" cx="-766" cy="406.6" rx="4.123" ry="4.107"  stroke-width="1.235"/><g stroke-width="1.235"><path d="m-784.6 370.7 37.95 28.33 13.01 38.38-10.27 25.62" /><path d="m-725.7 413-6.277 1.218-10.72-19.93-28.54-21.22" /><path d="m-767 363.1 10.38 2.43 24.81 18.82 10.02 18.73" /><path d="m-764.6 357.6 10.38 2.68 28.31 21.19" /><path d="m-662.7 363.7 11.6 0.0387" /><path d="m-662.7 343.5 11.6 0.0387" /><path d="m-662.7 323 11.6 0.0387" /><path d="m-662.7 303 11.6 0.0387" /><path d="m-714.7 402.4 40.71-4.379" /><path d="m-715.2 473.4-0.1661-19.64 42-0.168" /><path d="m-691.2 207 6.795 0.629-4.22 45.59-6.795-0.629z" /><path d="m-690.4 253-0.779 16.97c-0.1091 1.168-1.016 2.358-2.336 3.017l-17.27 8.262c-1.114 0.6055-1.359 1.881-0.5948 2.921l17.01 24.55" /><path d="m-693.7 253-0.779 15.24c-0.1091 1.168-1.016 2.358-2.336 3.017l-17.67 8.483c-1.6 0.9149-1.624 3.251-0.9926 4.336l17.85 25.79" /><path d="m-716.5 341.3-25.6-10.47-12.09 29.46" /></g><g stroke-width="1.764"><path d="m-559.1 274.5-38.13 37.96 11.58 28.78 9.387 40.19-6.772 15.98-33.83-44.25-5e-3 -47.47 19.65 6.773" /><path d="m-585.6 341.3-31.22 11.92" /><path d="m-639.4 260.8-0.0662 115.2 4.501 21.87 3.521 4.238-0.1057 30.52-3.861 4.906-4.744 27.64" /><path d="m-583 397.4 12.24 30.25-0.4088 43.09" /></g><g stroke-width="1.235"><path d="m-619 321.7h-10.36v48.97h10.36z" /><path d="m-619 370.7 31.54 31.72 4.502 12.1-0.7752 95.51-1.035 17.82" /><path d="m-629.4 370.7-10.16 0.0387" /><path d="m-629.4 370.7 0.8725 28.2-0.2389 54.75-1.989 19.79" /><path d="m-571.2 470.8-12.2 2.839-5.873-0.2521-5.013-5.023-28.37-0.9661-4.322 4.205-3.589-0.2116" /><path d="m-571.1 484.2-10.26 3.016-5.873-0.2521-5.013-5.023-28.37-0.9661-4.322 4.205-5.887-0.5651" /><path d="m-631.1 503.7 47.37 3.535" /><path d="m-595.7 417.5h-22.03v32.53h22.03z" /><path d="m-585.4 245.1h-10.18v19.62h10.18z" /><path d="m-557.9 344.6-3.823-9.438-18.19 7.367 3.823 9.438z" /><path d="m-552.1 359-3.823-9.438-18.19 7.367 3.823 9.438z" /><path d="m-522 394.2-43.77-103.1-28.15 28.27" /><path d="m-617.9 247.9 6.211 59.65" /><path d="m-614 285.9-6.51 6.003-9.039 2.205 0.1607 27.61" /><path d="m-643.9 264.5 4.18 53.78" /><path d="m-639.5 376-11.6 0.0387" /><path d="m-611.3 179.6 44.95 102.2" /></g><ellipse transform="matrix(.9355 -.3532 .3484 .9374 0 0)" cx="-630.5" cy="-37.03" rx="3.902" ry="4.106"  stroke-width="1.235"/><ellipse transform="matrix(-.9995 .03216 .04266 .9991 0 0)" cx="535.1" cy="364.7" rx="4.123" ry="4.107"  stroke-width="1.235"/><g stroke-width="1.235"><path d="m-517.6 370.7-37.95 28.33-13.01 38.38 10.27 25.62" /><path d="m-576.4 413 6.277 1.218 10.72-19.93 28.54-21.22" /><path d="m-535.1 363.1-10.38 2.43-24.81 18.82-10.02 18.73" /><path d="m-537.5 357.6-10.38 2.68-28.31 21.19" /><path d="m-639.5 363.7-11.6 0.0387" /><path d="m-639.5 343.5-11.6 0.0387" /><path d="m-639.5 323-11.6 0.0387" /><path d="m-639.5 303-11.6 0.0387" /><path d="m-587.5 402.4-40.71-4.379" /><path d="m-586.9 473.4 0.1661-19.64-42-0.168" /><path d="m-610.9 207-6.795 0.629 4.22 45.59 6.795-0.629z" /><path d="m-611.7 253 0.779 16.97c0.1091 1.168 1.016 2.358 2.336 3.017l17.27 8.262c1.114 0.6055 1.359 1.881 0.5948 2.921l-17.01 24.55" /><path d="m-608.5 253 0.779 15.24c0.1091 1.168 1.016 2.358 2.336 3.017l17.67 8.483c1.6 0.9149 1.624 3.251 0.9926 4.336l-17.85 25.79" /><path d="m-585.6 341.3 25.6-10.47 12.09 29.46" /></g></g><g transform="translate(1352)"  fill="none"  ><path d="m-1161 174.6-26.73 8.916-86.64 198.9 9.807 11.73-6.496 14.38 42.76 54.41 12.91 7.752 0.7168 35.93 2.99 20.29 41.15 2.777 13.15-8.416 1.865-17.62-0.3223-30.31 3.404-1.764 0.066-19.08 2.859-0.3496 2.146 3.982 11.86-0.0996 11.86 0.0996 2.146-3.982 4.672 0.4121-0.1211 19.83 1.777 0.9512-0.3203 30.31 1.865 17.62 13.15 8.416 41.15-2.777 2.99-20.29 0.7168-35.93 12.91-7.752 42.76-54.41-6.496-14.38 9.807-11.73-86.64-198.9-26.73-8.916 7.629 73.23-4.758 5.256-16.65 0.1699-0.059 7.461-4.477 0.041-0.02 3.697-7.17-0.0508-7.17 0.0508-0.02-3.697-4.479-0.041-0.059-7.461-16.65-0.1699-4.76-5.256z"  stroke-width="1.764"/><path d="m-1163 253.1 8.608 9.397-15.55 79.3-0.5976 113.8-1.366 1.631-0.1611 37.61-42.45-24.09"  stroke-width="1.764"/><path d="m-1228 463 56.89-7.397"  stroke-width="1.235"/><path d="m-1164 306.8-12.86-8.017-10.47 3.248-17.64-18.77 4.987-14.34-2.938-6.731 27.71-68.91 12.24 1.12"  stroke-width="1.235"/><path d="m-1226 273.4 34.71 37 2.227 12.76 19.13 17.28"  stroke-width="1.764"/><path d="m-1227 276.1 31.49 35.62 1.152 10.47 24.05 20.95"  stroke-width="1.764"/><g stroke-width="1.235"><path d="m-1178 180.8-43.03 97.7" /><path d="m-1222 281.4-32.18 73.06-8.73 4.308" /><path d="m-1264 394.2 15.81 17.06 10.12 1.386 45.61 45.57" /><path d="m-1268 368.8 94.55 87.18" /><path d="m-1212 293.4-17.72 38.07-2.194 40.29 10.98 13.96-3.335 14.89 53.48 44.58" /><path d="m-1175 199.9 1.241-1.22 5.887 0.3302 1.315 1.177-1.441 7.905-6.432-0.683z" /></g><ellipse transform="matrix(.943 .3328 -.3295 .9442 0 0)" cx="-1051" cy="664" rx="3.417" ry="4.106"  stroke-width="1.235"/><ellipse transform="matrix(-.9988 .04835 .05241 .9986 0 0)" cx="1265" cy="363" rx="3.681" ry="4.106"  stroke-width="1.235"/><path d="m-1157 271.1 7.198 0.2212 9.012-2.684 5.382 3e-3"  stroke-width="1.764"/><path d="m-1147 260.8-0.1051 9.744"  stroke-width="1.235"/><path d="m-1142 264.5-0.105 4.78"  stroke-width="1.235"/><g stroke-width="1.764"><path d="m-1149 271.3-13.04 58.54 5.277 48.35-0.2071 20.95 8.059 4e-3 -0.1337 28.08 3.11 4.749-0.2687 4.851-2.531 3.816 0.1213 11.56" /><path d="m-1143 285.2-11.81 46.27 2.607 33.17 17.08 0.0274 17.08-0.0274 2.608-33.17-11.81-46.27-7.877 0.0391z" /><path d="m-1152 364.6 2.847 4.691-0.07 29.83" /><path d="m-1171 401 4.212-2.801 9.186 1.01 3.244 9.528 4.722 0.3317" /></g><g stroke-width="1.235"><path d="m-1155 473.4 0.053-67.6" /><path d="m-1171 455.6 19.06-3.057" /><path d="m-1168 399.4 0.1671 109.6-1.985 20.76" /><path d="m-1172 475.3 4.178-0.0939 12.86-1.806" /><path d="m-1155 333.5 9.261-8.896 0.505-10.72 4.182-8.685 5.485 0.0366" /><path d="m-1146 298.2 5.474 5.047 5.65 9e-3" /><path d="m-1154 342.3 5.474 5.047 7.384-1.681 1.585-5.945 4.257 0.0332" /><path d="m-1149 380 13.83 9e-3" /><path d="m-1149 397.8 14.27 9e-3" /><path d="m-1149 414.5 13.83 9e-3" /><path d="m-1171 371.7 12.89 9e-3" /><path d="m-1171 350 10.26 9e-3" /></g><path d="m-1145 456.4 4.139 36.67 3.408 4.535 2.642 3e-3"  stroke-width="1.764"/><g stroke-width="1.235"><path d="m-1214 506.7 46.13 2.298" /><path d="m-1167 309.6-5.374 25.26-15.58-16-1.543-9.349 3.105-5.065 7.507-2.254z" /><path d="m-1186 338.3-2.461 78.66-26.3-22.32-0.3575 10.44-7.266-6.108 3.418-15.26-10.36-12.44 1.928-38.46 14.09-30.62 14.16 15.59 1.002 9.332z" /><path d="m-1216 324.1-1.94 0.6893-3.766 4.001-0.5303 2.146" /><path d="m-1204 335.7-1.94 0.6893-3.766 4.001-0.5302 2.146" /><path d="m-1193 346.4-1.94 0.6893-3.766 4.001-0.5302 2.146" /><path d="m-1166 295.5-1.047 4.965-8.038-4.703 1.837-4.18z" /><path d="m-1231 343.5-9.423-0.0103 0.3901-4.746 9.222 0.0165" /><path d="m-1232 365.3-9.423-0.0103 0.3901-4.746 9.222 0.0165" /><path d="m-1167 232.9-4.871-0.6732 3.793-20.17 3.565-0.0277" /></g><path d="m-1107 253.1-8.608 9.397 15.55 79.3 0.5976 113.8 1.366 1.631 0.161 37.61 42.45-24.09"  stroke-width="1.764"/><path d="m-1042 463-56.89-7.397"  stroke-width="1.235"/><path d="m-1106 306.8 12.86-8.017 10.47 3.248 17.64-18.77-4.987-14.34 2.938-6.731-27.71-68.91-12.24 1.12"  stroke-width="1.235"/><path d="m-1044 273.4-34.71 37-2.227 12.76-19.13 17.28"  stroke-width="1.764"/><path d="m-1043 276.1-31.49 35.62-1.152 10.47-24.05 20.95"  stroke-width="1.764"/><g stroke-width="1.235"><path d="m-1093 180.8 43.03 97.7" /><path d="m-1048 281.4 32.18 73.06 8.73 4.308" /><path d="m-1006 394.2-15.81 17.06-10.12 1.386-45.61 45.57" /><path d="m-1002 368.8-94.55 87.18" /><path d="m-1058 293.4 17.72 38.07 2.194 40.29-10.98 13.96 3.334 14.89-53.48 44.58" /><path d="m-1095 199.9-1.241-1.22-5.887 0.3302-1.315 1.177 1.441 7.905 6.432-0.683z" /></g><ellipse transform="matrix(-.943 .3328 .3295 .9442 0 0)" cx="1092" cy="-91.45" rx="3.417" ry="4.106"  stroke-width="1.235"/><ellipse transform="matrix(.9988 .04835 -.05241 .9986 0 0)" cx="-1002" cy="472.7" rx="3.681" ry="4.106"  stroke-width="1.235"/><path d="m-1113 271.1-7.198 0.2212-9.012-2.684-5.382 3e-3"  stroke-width="1.764"/><path d="m-1123 260.8 0.105 9.744"  stroke-width="1.235"/><path d="m-1128 264.5 0.1051 4.78"  stroke-width="1.235"/><g stroke-width="1.764"><path d="m-1121 271.3 13.04 58.54-5.277 48.35 0.2072 20.95-8.059 4e-3 0.1338 28.08-3.11 4.749 0.2688 4.851 2.531 3.816-0.1213 11.56" /><path d="m-1118 364.6-2.847 4.691 0.07 29.83" /><path d="m-1099 401-4.212-2.801-9.186 1.01-3.244 9.528-4.722 0.3317" /></g><g stroke-width="1.235"><path d="m-1115 473.4-0.053-67.6" /><path d="m-1099 455.6-19.06-3.057" /><path d="m-1102 399.4-0.1671 109.6 1.985 20.76" /><path d="m-1098 475.3-4.178-0.0939-12.86-1.806" /><path d="m-1116 333.5-9.261-8.896-0.5051-10.72-4.182-8.685-5.485 0.0366" /><path d="m-1124 298.2-5.474 5.047-5.65 9e-3" /><path d="m-1116 342.3-5.474 5.047-7.384-1.681-1.585-5.945-4.257 0.0332" /><path d="m-1121 380-13.83 9e-3" /><path d="m-1121 397.8-14.27 9e-3" /><path d="m-1121 414.5-13.83 9e-3" /><path d="m-1099 371.7-12.89 9e-3" /><path d="m-1100 350-10.26 9e-3" /></g><path d="m-1125 456.4-4.139 36.67-3.408 4.535-2.642 3e-3"  stroke-width="1.764"/><g stroke-width="1.235"><path d="m-1056 506.7-46.13 2.298" /><path d="m-1103 309.6 5.374 25.26 15.58-16 1.543-9.349-3.105-5.065-7.507-2.254z" /><path d="m-1084 338.3 2.461 78.66 26.3-22.32 0.3574 10.44 7.266-6.108-3.418-15.26 10.36-12.44-1.928-38.46-14.09-30.62-14.16 15.59-1.002 9.332z" /><path d="m-1054 324.1 1.94 0.6893 3.766 4.001 0.5302 2.146" /><path d="m-1067 335.7 1.94 0.6893 3.766 4.001 0.5302 2.146" /><path d="m-1077 346.4 1.94 0.6893 3.766 4.001 0.5302 2.146" /><path d="m-1105 295.5 1.047 4.965 8.038-4.703-1.837-4.18z" /><path d="m-1039 343.5 9.423-0.0103-0.3901-4.746-9.222 0.0165" /><path d="m-1038 365.3 9.423-0.0103-0.3901-4.746-9.222 0.0165" /><path d="m-1103 232.9 4.871-0.6732-3.793-20.17-3.565-0.0277" /><path d="m-1227 332.8 37.43 36.06-1.379 45.37" /><path d="m-1043 332.8-37.43 36.06 1.379 45.37" /><path d="m-1232 371.8-11.65 19.03" /><path d="m-1255 354.5 5.306 6.07-10.01 16.36" /><path d="m-1038 371.8 11.65 19.03" /><path d="m-1016 354.5-5.306 6.07 10.01 16.36" /></g></g><g></g><g   ><g fill="#f39745"><g stroke-width="1.764"></g><g stroke-width="1.764"></g></g></g><g transform="translate(24.04)"><desc>{ "type": "misc", "i": "heat vents" }</desc><g  fill="#f39746"  ><path d="m151.7 191.1-28.58 71.07 2.961 6.781-5.129 14.75 19.33 20.56 10.79-3.348 12.09 7.533 2.115-3.395-13.64-8.5-10.15 3.148-15.96-16.98 4.846-13.94-2.914-6.682 26.84-66.75 10.76 0.9844 0.3652-3.982z"  color-rendering="auto" dominant-baseline="auto"    /><path d="m148.4 179.9-43.03 97.7 3.66 1.611 43.03-97.7z"  color-rendering="auto" dominant-baseline="auto"    /><path d="m103.6 280.6-31.89 72.4-8.076 3.986 1.77 3.588 9.383-4.631 32.47-73.73z"  color-rendering="auto" dominant-baseline="auto"    /><path d="m65.19 392.9-2.934 2.719 16.3 17.58 10.16 1.393 45.13 45.1 2.828-2.83-46.09-46.05-10.08-1.381z"  color-rendering="auto" dominant-baseline="auto"    /><path d="m69.69 375.2-2.711 2.941 86.17 79.31 2.713-2.941z"  color-rendering="auto" dominant-baseline="auto"    /><path d="m113.7 292.6-17.88 38.41-2.256 41.43 10.86 13.81-3.395 15.16 54.42 45.36 2.562-3.072-52.54-43.8 3.275-14.63-11.1-14.12 2.133-39.15 17.55-37.71z"  color-rendering="auto" dominant-baseline="auto"    /></g></g><g  ><g transform="matrix(-1 0 0 1 409.7 0)"   text-rendering="geometricPrecision"><desc>{ "type": "misc", "i": "heat vents" }</desc><g  fill="#f39746"  ><path d="m151.7 191.1-28.58 71.07 2.961 6.781-5.129 14.75 19.33 20.56 10.79-3.348 12.09 7.533 2.115-3.395-13.64-8.5-10.15 3.148-15.96-16.98 4.846-13.94-2.914-6.682 26.84-66.75 10.76 0.9844 0.3652-3.982z"  color-rendering="auto" dominant-baseline="auto"    /><path d="m148.4 179.9-43.03 97.7 3.66 1.611 43.03-97.7z"  color-rendering="auto" dominant-baseline="auto"    /><path d="m103.6 280.6-31.89 72.4-8.076 3.986 1.77 3.588 9.383-4.631 32.47-73.73z"  color-rendering="auto" dominant-baseline="auto"    /><path d="m65.19 392.9-2.934 2.719 16.3 17.58 10.16 1.393 45.13 45.1 2.828-2.83-46.09-46.05-10.08-1.381z"  color-rendering="auto" dominant-baseline="auto"    /><path d="m69.69 375.2-2.711 2.941 86.17 79.31 2.713-2.941z"  color-rendering="auto" dominant-baseline="auto"    /><path d="m113.7 292.6-17.88 38.41-2.256 41.43 10.86 13.81-3.395 15.16 54.42 45.36 2.562-3.072-52.54-43.8 3.275-14.63-11.1-14.12 2.133-39.15 17.55-37.71z"  color-rendering="auto" dominant-baseline="auto"    /></g></g><g fill="none" stroke="#979797" stroke-width="3.587"><path d="m442.9 86.92c21.52 3.996 37.82 22.87 37.82 45.55 0 5.371-0.9139 10.53-2.595 15.33m-7.842 13.97c-8.496 10.4-21.42 17.03-35.89 17.03-14.38 0-27.24-6.555-35.74-16.84m-7.716-13.37c-1.862-5.019-2.88-10.45-2.88-16.12 0-23.05 16.84-42.18 38.89-45.74" /><path d="m434.9 71.19v15.85" /><path d="m395.6 155.1-13.68 8.014" /><path d="m474.2 155.1 13.68 8.014" /></g><g fill="#979797" ></g></g>
  </svg>
</svg>
