<svg xmlns="http://www.w3.org/2000/svg" viewBox="0 0 390 640" preserveAspectRatio="xMidYMid meet">
  <style>
    * { vector-effect: non-scaling-stroke; }
    path, rect, circle, ellipse, polygon, polyline, line {
      fill: none !important;
      stroke: #73f8ff !important;
      stroke-width: 2.25px !important;
      stroke-linecap: round;
      stroke-linejoin: round;
      opacity: 0.92;
    }
  </style>
  <svg x="0" y="0" width="870" height="640" viewBox="0 0 870 640" preserveAspectRatio="xMinYMin meet">

<g transform="translate(1212)"  fill="none"  ><path d="m-999.4 136.5-3.52 3.428-8.84 13.27-1.078 3.902-0.022 7.68-41.84 0.4414-9.85-0.7598-3.785 3.715-36.4 85.56-1.812 174 27.41 103.1 7.264 1.854 0.3496 15.91 46.7 0.1836-0.2734-32.64 5.219-0.043-0.1231-3.01 18.73 10.31 13.17 0.3203 13.17-0.3203 18.73-10.31-0.1231 3.01 5.219 0.043-0.2735 32.64 46.71-0.1836 0.3496-15.91 7.264-1.854 27.41-103.1-1.812-174-36.4-85.56-3.785-3.715-9.85 0.7598-41.84-0.4414-0.019-7.68-1.08-3.902-8.84-13.27-3.52-3.428-11.29 0.0742z"  stroke-width="1.764"/><path d="m-1001 157.1-4.439 0.148-14.6 19.52-0.043 19.65-24.58 16.61 0.2888 100.4 6.476 6.787-0.1453 73.72 16.74 15.16 0.081 15.09 11.52 11.58 21.19 0.1854"  stroke-width="1.764"/><g stroke-width="1.235"><path d="m-1088 215.5 21.4-2.141 22.7-0.3068" /><path d="m-988.2 140.4-12.34-0.0784-12.39 16.79" /><path d="m-988.2 144.4-12.53 0.1164 0.037 12.62-9.074 12.31 0.2827 18.55-7.985 13.81 0.064 23.13 4.258 17.11-0.1283 73.09 3.532 4.442-0.1105 17.76-7.361 10.36 0.067 59.5 7.797 7.889 21.15 0.2544" /><path d="m-1009 188 7.407-0.2301 3.163 3.236 10.71-2e-3" /></g><ellipse transform="matrix(.9999 .01049 -.01576 .9999 0 0)" cx="-1055" cy="242.8" rx="6.202" ry="6.299"  stroke-width="1.235"/><path d="m-1067 223.7h17.17v16.12h-17.17z"  stroke-width="1.235"/><ellipse transform="matrix(.9999 .01049 -.01576 .9999 0 0)" cx="-1058" cy="421.9" rx="6.202" ry="6.299"  stroke-width="1.235"/><g stroke-width="1.235"><path d="m-1074 402.8h17.17v16.12h-17.17z" /><path d="m-1044 277.8-6.688 6.286v77.28l-16.8 23.87 0.011 17.45" /><path d="m-1016 436.5-22.18-21.6-18.27 0.0717" /><path d="m-1013 432.7-7.496 10.97 0.222 69.42" /></g><path d="m-1064 434.1h31.26v46.4h-31.26z"  stroke-width="1.235"/><path d="m-1067 428.8h38.5v58.25h-38.5z"  stroke-width="1.235"/><path d="m-1068 472.8-26.56 0.0121"  stroke-width="1.235"/><path d="m-1020 472.8-8.658 0.0121"  stroke-width="1.235"/><path d="m-1025 516.2-0.2718-17.56-5.439-4.736-36.77 0.0699-4.455 5.214 0.1432 33.56"  stroke-width="1.235"/><path d="m-1037 548.7-0.1369-38.67-1.137-1.377-21.64-0.0651-0.7302 1.453 0.065 38.1"  stroke-width="1.235"/><path d="m-1025 528.3-10.98-0.0475m-24.74-0.083-11.21-0.0483"  stroke-width="1.235"/><path d="m-1055 165.2-21.18 80.05-2.928 182.3 6.929 105.2"  stroke-width="1.235"/><path d="m-1062 350h8.102v12.41h-8.102z"  stroke-width="1.235"/><path d="m-1033 247.2h10.85v9.409h-10.85z"  stroke-width="1.235"/><path d="m-1068 249.7h8.102v12.91h-8.102z"  stroke-width="1.235"/><path d="m-1066 548.5 7.827 6.102 1.697 3.969 17.53-6e-3 1.992-3.858 6.75-5.675"  stroke-width="1.764"/><g stroke-width="1.235"><path d="m-1010 319.6 7.407 0.2301 3.163-3.236 10.71 2e-3" /><path d="m-1005 220.8 5.77-5.657h21.57l5.548 5.303v85.6l-5.106 4.95h-22.36l-5.416-4.95z" /><path d="m-1005 278.4 32.56-0.0184" /><path d="m-1011 348.7 4.425-6.223h37.33l4.488 5.978v57.09l-3.644 3.434h-39.05l-3.55-3.434z" /><path d="m-1010 464.7 2.675-4.503h37.33l2.863 4.325 1.875 29.69-11.27 14.11h-23.67l-12.05-13.73z" /><path d="m-1001 463.2h26.3v7.639h-26.3z" /><path d="m-1008 395.7h39.03v7.639h-39.03z" /><path d="m-1008 395.7 6.603-17.11 25.81 0.0491 6.614 17.06" /><path d="m-1064 442.9 31.43-0.0184" /><path d="m-1064 452.3 31.43-0.0184" /><path d="m-1064 461.4 31.43-0.0184" /><path d="m-1064 470.4 31.43-0.0184" /><path d="m-1001 172.2 4.347-0.5447h16.25l4.179 0.5107v8.242l-3.846 0.4766h-16.85l-4.08-0.4766z" /><path d="m-992.4 199.3h8.974v9.584h-8.974z" /><path d="m-1068 168.2 12.42 1.396 41.79 0.577" /><path d="m-1037 554.7-21.21-0.1044" /><path d="m-1086 297.8-1.676 129.3 5.017 45.9" /><path d="m-1087 410.2-12.85-0.1275-6.091 2.092" /><path d="m-1051 297.4-34.57 0.4352-14.34 1.382-5.207 3.683" /><path d="m-1034 206.6 0.073-36.72" /></g><g stroke-width="1.764"><path d="m-1105 261.1-2.977 4.204-0.075 32.54 2.901 5.036" /><path d="m-1106 385.9-2.977 4.204-0.075 32.54 2.901 5.036" /><path d="m-975.7 157.1 4.439 0.148 14.6 19.52 0.043 19.65 24.58 16.61-0.2888 100.4-6.476 6.787 0.1453 73.72-16.74 15.16-0.081 15.09-11.52 11.58-21.19 0.1854" /></g><g stroke-width="1.235"><path d="m-887.9 215.5-21.4-2.141-22.7-0.3068" /><path d="m-988.2 140.4 12.34-0.0784 12.39 16.79" /><path d="m-988.2 144.4 12.53 0.1164-0.037 12.62 9.074 12.31-0.2827 18.55 7.985 13.81-0.064 23.13-4.258 17.11 0.1283 73.09-3.532 4.442 0.1105 17.76 7.361 10.36-0.067 59.5-7.797 7.889-21.15 0.2544" /><path d="m-966.9 188-7.407-0.2301-3.163 3.236-10.71-2e-3" /></g><ellipse transform="matrix(-.9999 .01049 .01576 .9999 0 0)" cx="921.5" cy="222" rx="6.202" ry="6.299"  stroke-width="1.235"/><path d="m-909.4 223.7h-17.17v16.12h17.17z"  stroke-width="1.235"/><ellipse transform="matrix(-.9999 .01049 .01576 .9999 0 0)" cx="917.7" cy="401.2" rx="6.202" ry="6.299"  stroke-width="1.235"/><g stroke-width="1.235"><path d="m-902.7 402.8h-17.17v16.12h17.17z" /><path d="m-931.9 277.8 6.688 6.286v77.28l16.8 23.87-0.011 17.45" /><path d="m-960.3 436.5 22.18-21.6 18.27 0.0717" /><path d="m-963.5 432.7 7.496 10.97-0.222 69.42" /></g><path d="m-912.5 434.1h-31.26v46.4h31.26z"  stroke-width="1.235"/><path d="m-908.9 428.8h-38.5v58.25h38.5z"  stroke-width="1.235"/><path d="m-908.8 472.8 26.56 0.0121"  stroke-width="1.235"/><path d="m-956.3 472.8 8.658 0.0121"  stroke-width="1.235"/><path d="m-951.2 516.2 0.2717-17.56 5.439-4.736 36.77 0.0699 4.455 5.214-0.1432 33.56"  stroke-width="1.235"/><path d="m-939.2 548.7 0.1369-38.67 1.137-1.377 21.64-0.0651 0.7302 1.453-0.065 38.1"  stroke-width="1.235"/><path d="m-951.1 528.3 10.98-0.0475m24.74-0.083 11.21-0.0483"  stroke-width="1.235"/><path d="m-921.6 165.2 21.18 80.05 2.928 182.3-6.929 105.2"  stroke-width="1.235"/><path d="m-913.9 350h-8.102v12.41h8.102z"  stroke-width="1.235"/><path d="m-943 247.2h-10.85v9.409h10.85z"  stroke-width="1.235"/><path d="m-908.6 249.7h-8.102v12.91h8.102z"  stroke-width="1.235"/><path d="m-910.5 548.5-7.827 6.102-1.697 3.969-17.53-6e-3 -1.992-3.858-6.75-5.675"  stroke-width="1.764"/><g stroke-width="1.235"><path d="m-966.6 319.6-7.407 0.2301-3.163-3.236-10.71 2e-3" /><path d="m-912.2 442.9-31.43-0.0184" /><path d="m-912.2 452.3-31.43-0.0184" /><path d="m-912.2 461.4-31.43-0.0184" /><path d="m-912.2 470.4-31.43-0.0184" /><path d="m-907.9 168.2-12.42 1.396-41.79 0.577" /><path d="m-939.6 554.7 21.21-0.1044" /><path d="m-890.7 297.8 1.676 129.3-5.017 45.9" /><path d="m-889 410.2 12.85-0.1275 6.091 2.092" /><path d="m-925.2 297.4 34.57 0.4352 14.34 1.382 5.207 3.683" /><path d="m-942 206.6-0.073-36.72" /></g><path d="m-871.3 261.1 2.977 4.204 0.075 32.54-2.901 5.036"  stroke-width="1.764"/><path d="m-869.9 385.9 2.977 4.204 0.075 32.54-2.901 5.036"  stroke-width="1.764"/></g><g transform="translate(1282)"  fill="none"  ><path d="m-631.7 140.4-12.34-0.0784-11.31 12.89"  stroke-width="1.235"/><ellipse transform="matrix(.9999 .01049 -.01576 .9999 0 0)" cx="-711.7" cy="268.4" rx="6.202" ry="6.299"  stroke-width="1.235"/><path d="m-724.5 253h17.17v16.12h-17.17z"  stroke-width="1.235"/><ellipse transform="matrix(.9999 .01049 -.01576 .9999 0 0)" cx="-681.4" cy="511.5" rx="6.202" ry="6.299"  stroke-width="1.235"/><g stroke-width="1.235"><path d="m-698 496.3h17.17v16.12h-17.17z" /><path d="m-631.7 164.3-13.47-0.0499-11.26-7.187" /><path d="m-645.2 164.3 1.127-23.97" /><path d="m-648.6 162 0.6584-17.26" /><path d="m-645.2 491.3 0.2682-14.04-29.65-113.3-0.2766-116.6 29.65-83.03" /><path d="m-674.8 282-55.14 22.05 1.355-52.65 25.43-85.92" /><path d="m-728.6 251.4 34.28-77.91" /><path d="m-700.8 251.3h14.6v27.11h-14.6z" /><path d="m-719 275.2h7.796v11.02h-7.796z" /><path d="m-599.2 248.8h-65.13v108.6h65.13z" /><path d="m-610.6 291.4h-42.5v42.25h42.5z" /><path d="m-714.8 218.8 51.5-4.184" /><path d="m-697.8 181.6 48.81-4.934" /><path d="m-723.8 353.4v43.37l3.625 3.75v20.87h23v-20.87l3.625-3.75v-43.37h-17.88z" /><path d="m-646.8 235.5v-32l3.625-3.75v-17.87h23v17.87l3.625 3.75v32h-17.88z" /><path d="m-644.9 523.4-0.2873-32.15" /><path d="m-621.9 498.3h-19.88v12.02h19.88z" /><path d="m-663.6 513.1-0.2581-35.81 11.8 0.0673 5.315-7.566" /><path d="m-636.1 169.4h8.974v9.584h-8.974z" /><path d="m-644.1 145.1 24.76-0.073" /><path d="m-674.8 247.3-53.75 4.059" /></g><path d="m-643 136.5-3.52 3.428-8.84 13.27-1.078 3.902-37.87 16.37-8.85-8.01-7.783 0.7148-37.4 87.56-1.812 174 27.41 103.1 7.266 1.854 0.3496 15.91 46.7 0.1836-0.2734-32.64 5.221-0.043-0.125-3.01 18.73 10.31 13.17 0.3203 13.17-0.3203 18.73-10.31-0.123 3.01 5.219 0.043-0.2734 32.64 46.71-0.1836 0.3496-15.91 7.264-1.854 27.41-103.1-1.812-174-37.4-87.56-7.783-0.7148-8.852 8.01-37.86-16.37-1.078-3.902-8.84-13.27-3.52-3.428-11.29 0.0742h-2e-3z"  stroke-width="1.764"/><path d="m-715.5 532.7 0.2523-92.2 9.492-14.15 22.72 0.421 9.596 18.2 4.862 30.94-0.1374 40.25"  stroke-width="1.235"/><path d="m-702.1 548.5-6.029-52.95 2.369-69.16"  stroke-width="1.235"/><path d="m-709.9 548.5 7.827 6.102 1.697 3.969 17.53-6e-3 1.992-3.858 6.75-5.675"  stroke-width="1.764"/><g stroke-width="1.235"><path d="m-680.9 554.7-21.21-0.1044" /><path d="m-680.5 549 6.51-30.78 0.1994-41.95-9.239-49.48" /><path d="m-693.6 289.4v31.97l-16.8 23.87 0.011 8.2" /><path d="m-729.9 304-4.845 5.406-0.5409 127.5 19.46 75.73" /><path d="m-644.9 523.4-6.739-12.69-0.4422-33.38" /><path d="m-617.6 382.9h-28.33v71.25h28.33z" /><path d="m-636.1 481.6h8.974v9.584h-8.974z" /><path d="m-707.7 485.5 33.8-0.073" /><path d="m-688.4 430.3h-11.69l-0.7071 49.68h20.17z" /><path d="m-671.8 402.6-14.58-10.3-6.707-0.2853" /><path d="m-648.9 472.7-5.035-3.083-26.82-101.7-0.2766-83.49" /><path d="m-664 277.6 64.63 0.0656" /><path d="m-664 281.6 64.63 0.0656" /><path d="m-664.4 248.8 16.82 28.5" /><path d="m-631.7 248.7-15.82 28.62" /></g><path d="m-748.6 261.1-2.977 4.204-0.075 32.54 2.901 5.036"  stroke-width="1.764"/><path d="m-750 385.9-2.977 4.204-0.075 32.54 2.901 5.036"  stroke-width="1.764"/><path d="m-631.7 140.4 12.34-0.0784 11.31 12.89"  stroke-width="1.235"/><ellipse transform="matrix(-.9999 .01049 .01576 .9999 0 0)" cx="551.6" cy="255.2" rx="6.202" ry="6.299"  stroke-width="1.235"/><path d="m-538.9 253h-17.17v16.12h17.17z"  stroke-width="1.235"/><ellipse transform="matrix(-.9999 .01049 .01576 .9999 0 0)" cx="581.9" cy="498.2" rx="6.202" ry="6.299"  stroke-width="1.235"/><g stroke-width="1.235"><path d="m-565.4 496.3h-17.17v16.12h17.17z" /><path d="m-631.7 164.3 13.47-0.0499 11.26-7.187" /><path d="m-618.2 164.3-1.127-23.97" /><path d="m-614.8 162-0.6584-17.26" /><path d="m-618.2 491.3-0.2682-14.04 29.65-113.3 0.2766-116.6-29.65-83.03" /><path d="m-588.6 282 55.14 22.05-1.355-52.65-25.43-85.92" /><path d="m-534.8 251.4-34.28-77.91" /><path d="m-562.6 251.3h-14.6v27.11h14.6z" /><path d="m-544.4 275.2h-7.796v11.02h7.796z" /><path d="m-548.6 218.8-51.5-4.184" /><path d="m-565.6 181.6-48.81-4.934" /><path d="m-539.6 353.4v43.37l-3.625 3.75v20.87h-23v-20.87l-3.625-3.75v-43.37h17.88z" /><path d="m-618.5 523.4 0.2873-32.15" /><path d="m-599.8 513.1 0.2581-35.81-11.8 0.0673-5.315-7.566" /><path d="m-588.6 247.3 53.75 4.059" /><path d="m-547.9 532.7-0.2523-92.2-9.492-14.15-22.72 0.421-9.596 18.2-4.862 30.94 0.1374 40.25" /><path d="m-561.3 548.5 6.029-52.95-2.369-69.16" /></g><path d="m-553.5 548.5-7.827 6.102-1.697 3.969-17.53-6e-3 -1.992-3.858-6.75-5.675"  stroke-width="1.764"/><g stroke-width="1.235"><path d="m-582.5 554.7 21.21-0.1044" /><path d="m-582.9 549-6.51-30.78-0.1994-41.95 9.239-49.48" /><path d="m-569.8 289.4v31.97l16.8 23.87-0.011 8.2" /><path d="m-533.5 304 4.845 5.406 0.5409 127.5-19.46 75.73" /><path d="m-618.5 523.4 6.739-12.69 0.4422-33.38" /><path d="m-555.7 485.5-33.8-0.073" /><path d="m-575 430.3h11.69l0.7071 49.68h-20.17z" /><path d="m-591.6 402.6 14.58-10.3 6.707-0.2853" /><path d="m-614.5 472.7 5.035-3.083 26.82-101.7 0.2766-83.49" /><path d="m-599 248.8-16.82 28.5" /><path d="m-631.6 248.7 15.82 28.62" /></g><path d="m-514.8 261.1 2.977 4.204 0.075 32.54-2.901 5.036"  stroke-width="1.764"/><path d="m-513.4 385.9 2.977 4.204 0.075 32.54-2.901 5.036"  stroke-width="1.764"/><path d="m-673.7 367.3 20.12 0.0157 8.6 8.856 25.7 0.0117 8.662-8.834 20.74 0.0162"  stroke-width="1.235"/></g><g  ><g fill="none" stroke="#979797" stroke-width="3.587"><path d="m442.9 86.92c21.52 3.996 37.82 22.87 37.82 45.55 0 5.371-0.9139 10.53-2.595 15.33m-7.842 13.97c-8.496 10.4-21.42 17.03-35.89 17.03-14.38 0-27.24-6.555-35.74-16.84m-7.716-13.37c-1.862-5.019-2.88-10.45-2.88-16.12 0-23.05 16.84-42.18 38.89-45.74" /><g><path d="m434.9 71.19v15.85" /><path d="m395.6 155.1-13.68 8.014" /><path d="m474.2 155.1 13.68 8.014" /></g></g><g ></g><g fill="#f39745" ><g stroke-width="1.764"></g><g stroke-width="1.764"></g></g><g fill="#f39746" ><g stroke-width="1.235"></g></g></g>
  </svg>
</svg>
