<svg xmlns="http://www.w3.org/2000/svg" viewBox="0 0 390 640" preserveAspectRatio="xMidYMid meet">
  <style>
    * { vector-effect: non-scaling-stroke; }
    path, rect, circle, ellipse, polygon, polyline, line {
      fill: none !important;
      stroke: #73f8ff !important;
      stroke-width: 2.25px !important;
      stroke-linecap: round;
      stroke-linejoin: round;
      opacity: 0.92;
    }
  </style>
  <svg x="0" y="0" width="870" height="640" viewBox="0 0 870 640" preserveAspectRatio="xMinYMin meet">

<g></g><g transform="matrix(.9375 0 0 .9373 1393 37.09)"  fill="none"  ><path d="m-1252 177.3-4.627-0.0527-3.924 2.854-1.504 8.002-8.648 0.0859v3.508l-12.38-0.0215-11.36-2.398-0.1113 5.965-24.88 16.05-1 42.82-26.01-0.2793-1.873-3.99 1.139-18.39-9.44 6.756-0.3203 47.93-29.45 21.32 0.6191-31.93-1.74-2.656 0.8457-8.295-22.4 16.93-29.82 67.33-45.54 56.41-0.1113 51.23 42.89-0.8516 4.168 2.285 10.06-0.1426 0.2754 9.547 10.44 0.3066 1.883 3.432 60.6 0.6035 0.027 7.32-4.945 9.846 0.2656 36.29 9.449 0.584 2.281 3.623 35.82-16.18 59.33 0.5977m0.023 0 59.33-0.5977 35.82 16.18 2.281-3.623 9.449-0.584 0.2656-36.29-4.945-9.846 0.027-7.32 60.6-0.6035 1.883-3.432 10.44-0.3066 0.2753-9.547 10.06 0.1426 4.17-2.285 42.89 0.8516-0.1093-51.23-45.54-56.41-29.83-67.33-22.39-16.93 0.8457 8.295-1.74 2.656 0.6192 31.93-29.45-21.32-0.3203-47.93-9.439-6.756 1.139 18.39-1.873 3.99-26.01 0.2793-1-42.82-24.88-16.05-0.1114-5.965-11.36 2.398-12.38 0.0215v-3.508l-8.648-0.0859-1.504-8.002-3.924-2.854-4.627 0.0527"  stroke-width="1.882"/><g stroke-width="1.317"><path d="m-1252 189.2-4.698 0.0134-5.272 2.731-0.069-3.071" /><path d="m-1256 189.2 0.086-11.19" /><path d="m-1252 183.5-4.532 0.0954" /></g><path d="m-1356 238.2 0.1509-21.92-20.16-0.0948-1.932 20.61-5.292 1e-3 -2.815 27.76"  stroke-width="1.882"/><path d="m-1319 211.3-0.2204-5.551-1.843 0.0157 0.099-20.2-19.06 0.0896-1.285 20.03-3.482 0.6181-1.962 25.16"  stroke-width="1.882"/><path d="m-1424 405.9h19.55v27.62h-19.55z"  stroke-width="1.317"/><path d="m-1406 405.9-2.832-7.363-8.82 0.0549-2.449 7.259"  stroke-width="1.317"/><path d="m-1408 406 0.8364 27.26"  stroke-width="1.317"/><path d="m-1416 341.5h10.56v8.095h-10.56z"  stroke-width="1.317"/><ellipse transform="matrix(-.6859 .7277 .7182 .6959 0 0)" cx="1230" cy="-789.4" rx="3.102" ry="3.076"  stroke-width="1.317"/><path d="m-1417 444.1h10.56v8.095h-10.56z"  stroke-width="1.317"/><ellipse transform="matrix(-.6859 .7277 .7182 .6959 0 0)" cx="1304" cy="-719.6" rx="3.102" ry="3.076"  stroke-width="1.317"/><path d="m-1368 379.2h7.803v8.117h-7.803z"  stroke-width="1.317"/><path d="m-1386 307.4-52.5 41.37"  stroke-width="1.882"/><path d="m-1432 332.4 29.48-22.83-1.337 12.7 0.2638 13.31 12.04 9.363-0.1495 51.74-45.98-0.3173"  stroke-width="1.317"/><g stroke-width="1.317"><path d="m-1421 308.6 20.72-16.16-1.272 11.04-26.1 20.32" /><path d="m-1387 271.3-25.95 20.49" /><path d="m-1385 281.1-14.88 11.31" /><path d="m-1386 296.8-16.27 12.71" /><path d="m-1380 237.3-5.092 38.22" /><path d="m-1357 236.9-21.81-0.1625" /><path d="m-1321 205.8-20.43-0.1625" /></g><g stroke-width="1.882"><path d="m-1262 191.9-11.37 7.302 0.2665 27.36 4.024 3.901 0.3686 12.02-17.56 10.89-12.59 0.258-48.23 23.54-9.88 8.878" /><path d="m-1299 253.7-21.48 43.46 0.011 93.41 19.94 41.55-0.6789 81.43" /><path d="m-1441 352.4 0.054 103.2" /><path d="m-1437 347.6 0.054 110.3" /></g><path d="m-1480 456.6 0.1421-49.78 38.51-47.82"  stroke-width="1.317"/><path d="m-1347 529.3-2.921 1.379-0.9241-1.892-7.655 1.797-5.114 48.37 5.58 12.64 7.835-4.38 0.023-3.988 36.62-15.35 61.7-0.1697"  stroke-width="1.882"/><path d="m-1346 277.1 0.1509-23.3"  stroke-width="1.882"/><path d="m-1320 264.3 0.1509-10.15"  stroke-width="1.882"/><path d="m-1372 216.4-1.2 15.16 9.638-0.0443 1.105-14.95"  stroke-width="1.317"/><path d="m-1336 186.2-0.8614 15.16 9.637-0.0443 0.771-14.95"  stroke-width="1.317"/><path d="m-1391 396.7h37.29v46.33h-37.29z"  stroke-width="1.317"/><path d="m-1335 310.6h7.974v20.81h-7.974z"  stroke-width="1.317"/><path d="m-1373 310.1h9.212v16.66h-9.212z"  stroke-width="1.317"/><path d="m-1347 277.2-1.493 111.7-5.618 7.702"  stroke-width="1.317"/><path d="m-1326 407.4h-11.53v-72.18l11.53 13.07z"  stroke-width="1.317"/><path d="m-1338 388.9-10.36 0.077"  stroke-width="1.317"/><path d="m-1320 389-6.263 0.077"  stroke-width="1.317"/><path d="m-1319 514.9h-10.43v-67.55l10.43 0.019z"  stroke-width="1.317"/><g stroke-width="1.317"><path d="m-1338 407.4-0.01 117" /><path d="m-1326 407.4 12.76 28.46 0.1379 78.75" /><path d="m-1314 442-24.16-17.24" /><path d="m-1348 479.5-5.258 9.804-0.1803 35.99" /></g><path d="m-1417 467.6-10.36-23.98-10.45-7.808"  stroke-width="1.882"/><g stroke-width="1.317"><path d="m-1354 443 0.1772 17.53 5.866 5.343-0.071 13.63-0.01 10.88 7.124 14v22.12" /><path d="m-1354 478.9 6.014 0.5584" /><path d="m-1391 443 19.68 21.54 14.19 0.1647 3.354 6.916" /></g><path d="m-1314 389 15.74 31.47v-155.1l-15.93 30.98z"  stroke-width="1.317"/><g stroke-width="1.317"><path d="m-1351 528.8-1.448 5.3-1.225 49.19 3.318 3.934" /><path d="m-1320 570.3 0.046-15.3-30.16 13.77-0.072 14.44" /><path d="m-1266 567.4-0.079-15.92-36.16-0.0394-0.072 16.63" /></g><path d="m-1297 532.1h7.803v8.117h-7.803z"  stroke-width="1.317"/><path d="m-1322 556.2 0.046-38.67"  stroke-width="1.317"/><path d="m-1341 565.2 0.046-38.67"  stroke-width="1.317"/><ellipse transform="matrix(-.6859 .7277 .7182 .6959 0 0)" cx="1272" cy="-554.4" rx="3.102" ry="3.076"  stroke-width="1.317"/><path d="m-1295 513.1 0.5099-44.73 1.35-3.078 2.63-0.0115 2.634 3.135-0.1018 44.77"  stroke-width="1.882"/><g stroke-width="1.317"><path d="m-1276 513.3-12.55-8.117 8.063-25.6 0.1277-81.26-15.12-26.11" /><path d="m-1252 491.8-11.66-8e-3 -16.6-12.2" /><path d="m-1295 400.3 6.697 12.76-0.1154 55.32" /><path d="m-1252 372.2-43.25 0.0743 0.094 96.11" /><path d="m-1252 421.4-15.38 0.0579-12.86 12.1" /></g><path d="m-1271 469h11.6v8.117h-11.6z"  stroke-width="1.317"/><path d="m-1263 439.9h22.42v17.16h-22.42z"  stroke-width="1.317"/><g stroke-width="1.317"><path d="m-1276 372.2-13.62-59.43 11.49-2.022-0.1199-52.57 6.482-4.346 3.444-11.35" /><path d="m-1252 400.7-13.57-0.1109-0.1108 6.294-14.51 0.0194" /><path d="m-1320 297.1-15.49 0.1534 0.165-25.61" /><path d="m-1252 389.4-19.01 0.0579-9.128 8.934" /><path d="m-1341 546.3 18.23-8.298" /><path d="m-1271 371.6 0.3095-61.79-7.531 1.02" /><path d="m-1258 372.2 0.1346-115.7 2.568-14.53 0.171-25.97-1.558 7e-3 1.251-19.2 4.06-0.0291" /><path d="m-1275 246.8 0.3748-14.36-6.139-5.557-5.86-0.0163-7.082-6.241 0.046-8.651 10.65-8.931 0.052-11.44" /><path d="m-1320 240.8 11.95-8.382-0.091-5.318 11.89-13.38 1.574-18.54" /><path d="m-1299 253.7-5.829-4.867 1.17-26.97" /><path d="m-1294 253.6 0.1689-32.93" /></g><path d="m-1270 271.5h9.604v12.94h-9.604z"  stroke-width="1.317"/><g stroke-width="1.317"><path d="m-1252 189.2 4.699 0.0134 5.272 2.731 0.069-3.071" /><path d="m-1247 189.2-0.086-11.19" /><path d="m-1252 183.5 4.532 0.0954" /></g><path d="m-1147 238.2-0.151-21.92 20.16-0.0948 1.932 20.61 5.292 1e-3 2.815 27.76"  stroke-width="1.882"/><path d="m-1184 211.3 0.2204-5.551 1.843 0.0157-0.099-20.2 19.06 0.0896 1.285 20.03 3.482 0.6181 1.962 25.16"  stroke-width="1.882"/><path d="m-1080 405.9h-19.55v27.62h19.55z"  stroke-width="1.317"/><path d="m-1097 405.9 2.832-7.363 8.82 0.0549 2.449 7.259"  stroke-width="1.317"/><path d="m-1096 406-0.8364 27.26"  stroke-width="1.317"/><path d="m-1088 341.5h-10.56v8.095h10.56z"  stroke-width="1.317"/><ellipse transform="matrix(.6859 .7277 -.7182 .6959 0 0)" cx="-512.5" cy="1033" rx="3.102" ry="3.076"  stroke-width="1.317"/><path d="m-1087 444.1h-10.56v8.095h10.56z"  stroke-width="1.317"/><ellipse transform="matrix(.6859 .7277 -.7182 .6959 0 0)" cx="-438.4" cy="1102" rx="3.102" ry="3.076"  stroke-width="1.317"/><path d="m-1136 379.2h-7.803v8.117h7.803z"  stroke-width="1.317"/><path d="m-1117 307.4 52.5 41.37"  stroke-width="1.882"/><g stroke-width="1.317"><path d="m-1072 332.4-29.48-22.83 1.337 12.7-0.2638 13.31-12.04 9.363 0.1495 51.74 45.98-0.3173" /><path d="m-1083 308.6-20.72-16.16 1.272 11.04 26.1 20.32" /><path d="m-1116 271.3 25.95 20.49" /><path d="m-1118 281.1 14.88 11.31" /><path d="m-1118 296.8 16.27 12.71" /><path d="m-1123 237.3 5.092 38.22" /><path d="m-1147 236.9 21.81-0.1625" /><path d="m-1183 205.8 20.43-0.1625" /></g><g stroke-width="1.882"><path d="m-1242 191.9 11.37 7.302-0.2666 27.36-4.024 3.901-0.3687 12.02 17.56 10.89 12.59 0.258 48.23 23.54 9.88 8.878" /><path d="m-1205 253.7 21.48 43.46-0.011 93.41-19.94 41.55 0.6789 81.43" /><path d="m-1062 352.4-0.054 103.2" /><path d="m-1066 347.6-0.054 110.3" /></g><path d="m-1024 456.6-0.1421-49.78-38.51-47.82"  stroke-width="1.317"/><path d="m-1157 529.3 2.921 1.379 0.9241-1.892 7.655 1.797 5.114 48.37-5.58 12.64-7.835-4.38-0.023-3.988-36.62-15.35-61.7-0.1697"  stroke-width="1.882"/><path d="m-1157 277.1-0.151-23.3"  stroke-width="1.882"/><path d="m-1183 264.3-0.1509-10.15"  stroke-width="1.882"/><path d="m-1132 216.4 1.2 15.16-9.638-0.0443-1.105-14.95"  stroke-width="1.317"/><path d="m-1168 186.2 0.8615 15.16-9.637-0.0443-0.7709-14.95"  stroke-width="1.317"/><path d="m-1112 396.7h-37.29v46.33h37.29z"  stroke-width="1.317"/><path d="m-1168 310.6h-7.974v20.81h7.974z"  stroke-width="1.317"/><path d="m-1131 310.1h-9.212v16.66h9.212z"  stroke-width="1.317"/><path d="m-1157 277.2 1.493 111.7 5.618 7.702"  stroke-width="1.317"/><path d="m-1177 407.4h11.53v-72.18l-11.53 13.07z"  stroke-width="1.317"/><path d="m-1166 388.9 10.36 0.077"  stroke-width="1.317"/><path d="m-1183 389 6.263 0.077"  stroke-width="1.317"/><path d="m-1185 514.9h10.43v-67.55l-10.43 0.019z"  stroke-width="1.317"/><g stroke-width="1.317"><path d="m-1166 407.4 0.01 117" /><path d="m-1177 407.4-12.76 28.46-0.1379 78.75" /><path d="m-1190 442 24.16-17.24" /><path d="m-1156 479.5 5.258 9.804 0.1803 35.99" /></g><path d="m-1087 467.6 10.37-23.98 10.45-7.808"  stroke-width="1.882"/><g stroke-width="1.317"><path d="m-1150 443-0.1772 17.53-5.866 5.343 0.071 13.63 0.01 10.88-7.124 14v22.12" /><path d="m-1150 478.9-6.014 0.5584" /><path d="m-1112 443-19.68 21.54-14.19 0.1647-3.354 6.916" /></g><path d="m-1190 389-15.74 31.47v-155.1l15.93 30.98z"  stroke-width="1.317"/><g stroke-width="1.317"><path d="m-1153 528.8 1.448 5.3 1.225 49.19-3.318 3.934" /><path d="m-1184 570.3-0.046-15.3 30.16 13.77 0.072 14.44" /><path d="m-1237 567.4 0.079-15.92 36.16-0.0394 0.072 16.63" /></g><path d="m-1207 532.1h-7.803v8.117h7.803z"  stroke-width="1.317"/><path d="m-1181 556.2-0.046-38.67"  stroke-width="1.317"/><path d="m-1163 565.2-0.046-38.67"  stroke-width="1.317"/><ellipse transform="matrix(.6859 .7277 -.7182 .6959 0 0)" cx="-469.9" cy="1268" rx="3.102" ry="3.076"  stroke-width="1.317"/><path d="m-1208 513.1-0.5099-44.73-1.35-3.078-2.63-0.0115-2.634 3.135 0.1018 44.77"  stroke-width="1.882"/><g stroke-width="1.317"><path d="m-1228 513.3 12.55-8.117-8.063-25.6-0.1277-81.26 15.12-26.11" /><path d="m-1252 491.8 11.66-8e-3 16.6-12.2" /><path d="m-1209 400.3-6.697 12.76 0.1154 55.32" /><path d="m-1252 372.2 43.25 0.0743-0.094 96.11" /><path d="m-1252 421.4 15.38 0.0579 12.86 12.1" /></g><path d="m-1232 469h-11.6v8.117h11.6z"  stroke-width="1.317"/><g stroke-width="1.317"><path d="m-1227 372.2 13.62-59.43-11.49-2.022 0.1199-52.57-6.482-4.346-3.444-11.35" /><path d="m-1252 400.7 13.57-0.1109 0.1108 6.294 14.51 0.0194" /><path d="m-1184 297.1 15.49 0.1534-0.165-25.61" /><path d="m-1252 389.4 19.01 0.0579 9.128 8.934" /><path d="m-1163 546.3-18.23-8.298" /><path d="m-1233 371.6-0.3095-61.79 7.531 1.02" /><path d="m-1245 372.2-0.1346-115.7-2.568-14.53-0.171-25.97 1.558 7e-3 -1.251-19.2-4.06-0.0291" /><path d="m-1229 246.8-0.3747-14.36 6.139-5.557 5.86-0.0163 7.082-6.241-0.046-8.651-10.65-8.931-0.052-11.44" /><path d="m-1184 240.8-11.95-8.382 0.091-5.318-11.89-13.38-1.574-18.54" /><path d="m-1205 253.7 5.829-4.867-1.17-26.97" /><path d="m-1210 253.6-0.1689-32.93" /></g><g stroke-width="1.317"><path d="m-1233 271.5h-9.604v12.94h9.604z" /><path d="m-1421 361h13.21v21.16h-13.21z" /><path d="m-1095 361h13.21v21.16h-13.21z" /></g><g stroke-width="1.882"><path d="m-1406 471.7v3.952l3.114 3.99h14.26l3.114-4.005v-3.937" /><path d="m-1378 471.7v3.952l3.114 3.99h14.26l3.114-4.005v-3.937" /><path d="m-1097 471.7v3.952l-3.114 3.99h-14.26l-3.114-4.005v-3.937" /><path d="m-1125 471.7v3.952l-3.114 3.99h-14.26l-3.114-4.005v-3.937" /></g><path d="m-1132 340.4h3.859v28.42h-24.7v-28.42h6.118"  stroke-width="1.317"/><ellipse transform="matrix(-.6866 .727 .7188 .6952 0 0)" cx="1041" cy="-590.2" rx="9.662" ry="9.581"  stroke-width="1.317"/><ellipse transform="matrix(-.6865 .7271 .7188 .6953 0 0)" cx="1041" cy="-590.3" rx="7.917" ry="7.85"  stroke-width="1.317"/><path d="m-1118 356.5h-7.803v12.23h7.803z"  stroke-width="1.317"/></g><g transform="matrix(.9375 0 0 .9373 1318 37.09)"  fill="none"   stroke-width="1.067"><path d="m-712.4 177.2-3.924 2.854-1.504 8.002 0.1035 3.445-8.756 0.1484-12.38-0.0215-11.36-2.398-0.1113 5.965-26.47 15.7 0.0606-22.59-20.76-0.0137-0.5898 24.03-4.873 19.08-9.439 6.756-0.8496-20.31-19.9 0.084-4.916 43.09-26.77 20.43-21.16 72.45-49.08 53.23-0.2812 35.93 9.01 6.104 0.0781 6.508 28.85-0.1113 4.168-0.0899 10.06-0.1426 0.2754 11.92 10.44 0.3066 1.883 3.432 67.33 1.176 0.0449 6.873-6.32 9.721-0.7344 36.29 5.074 0.584 18.19-0.6191 37.48 18.69 0.2832 20.03 6.467 3.59-0.0312-17.54 20.05-0.1953 4.877 6.605 10.1 0.2578h0.01l10.11-0.2578 4.877-6.605 20.05 0.1953-0.0312 17.54 6.465-3.59 0.2832-20.03 37.48-18.69 18.19 0.6191 5.074-0.584-0.7344-36.29-6.32-9.721 0.0469-6.873 67.33-1.176 1.883-3.432 10.44-0.3066 0.2754-11.92 10.06 0.1426 4.168 0.0899 28.85 0.1113 0.0801-6.508 9.008-6.104-0.2793-35.93-49.08-53.23-21.16-72.45-26.77-20.43-4.916-43.09-19.9-0.084-0.8516 20.31-9.439-6.756-4.871-19.08-0.5918-24.03-20.75 0.0137 0.0605 22.59-26.47-15.7-0.1113-5.965-11.36 2.398-12.38 0.0215-8.754-0.1484 0.1016-3.445-1.504-8.002-3.924-2.854-4.627 0.0527h-0.01z"  stroke-width="1.882"/><g stroke-width="1.882"><path d="m-800.9 526-0.1987 3.201-4.756 1.42-0.9241-1.892-7.655 1.797-5.114 48.37 5.58 12.64 7.835-4.38 0.0227-3.988 36.62-15.35 61.7-0.1697" /><path d="m-838.1 261-0.6768 29.64-5.827 24.23-0.4175 79.38 0.9862 30.03 30.21-0.0695-1.466-35.44-0.6152-9.221-0.3471-125.3 3.822-16.07" /><path d="m-803 231.4 0.0647 85.27 24.21 0.077-0.6608-94.62 2.541-11.24" /></g><path d="m-820.3 409.6h-20.18v10.06h20.18z"  stroke-width="1.317"/><path d="m-783.5 284.6h-14.52v26.24h14.52z"  stroke-width="1.317"/><g stroke-width="1.317"><path d="m-838.8 290.7 22.53 0.3448" /><path d="m-844.6 314.9 28.28 0.5948" /><path d="m-845.1 393.1 29.96 0.0563" /></g><path d="m-819.7 353.3h-22.71v6.18h22.71z"  stroke-width="1.317"/><path d="m-803.5 243.7 24.22 0.9484"  stroke-width="1.317"/><path d="m-833.5 264.5h10.56v8.095h-10.56z"  stroke-width="1.317"/><ellipse transform="matrix(-.6859 .7277 .7182 .6959 0 0)" cx="769.3" cy="-418.4" rx="3.102" ry="3.076"  stroke-width="1.317"/><path d="m-858.1 416.1h10.56v8.095h-10.56z"  stroke-width="1.317"/><ellipse transform="matrix(-.6859 .7277 .7182 .6959 0 0)" cx="895.3" cy="-332.4" rx="3.102" ry="3.076"  stroke-width="1.317"/><path d="m-794.7 256.2h7.803v8.117h-7.803z"  stroke-width="1.317"/><path d="m-776.3 479.9h7.803v8.117h-7.803z"  stroke-width="1.317"/><path d="m-837.1 252.3 2.766 4.958 14.13 0.2163 3.986-3.258"  stroke-width="1.317"/><path d="m-800.3 220.2 2.766 4.958 14.13 0.2163 3.986-3.258"  stroke-width="1.317"/><path d="m-817 222.4h-14.52v22.86h14.52z"  stroke-width="1.317"/><path d="m-781.2 191.6h-14.52v22.86h14.52z"  stroke-width="1.317"/><g stroke-width="1.317"><path d="m-886 353.9 2.713 4.07 0.0898 97.36" /><path d="m-742.7 199.4 12.94 0.2564-0.2095 35.61-0.2586 70.47-1.104 15.13 0.5 72.62-10.77 12.38 1.043 120.4 22.67 0.1297" /><path d="m-734.8 438.1 2.98 17.3 13.99 38.3-0.0493 62.57" /><path d="m-737.7 437.6 0.6769 88.81" /><path d="m-737.8 456.6 6.692 0.0949" /><path d="m-737.3 474.5 13 0.0949" /><path d="m-737.1 508.7 19.24 0.0949" /><path d="m-737.2 518.3 19.23 0.0949" /></g><g stroke-width="1.317"><path d="m-737.4 529.3h16.47v5.996h-16.47z" /><path d="m-724.1 537.6h3.039v7.764h-3.039z" /><path d="m-729.2 537.6h3.039v7.764h-3.039z" /><path d="m-734.3 537.6h3.039v7.764h-3.039z" /><path d="m-730.8 441.2h45.93l-1.875 12.12h-42.18z" /><path d="m-715.8 524.9h15.93v28.73h-15.93z" /></g><path d="m-724 408.3h32.38v23.55h-32.38z"  stroke-width="1.317"/><path d="m-741.3 437.7 33.5-0.1098"  stroke-width="1.317"/><path d="m-741.6 405.8 33.81-0.1821"  stroke-width="1.317"/><path d="m-715.8 411.9h15.93v16.25h-15.93z"  stroke-width="1.317"/><path d="m-808.6 331.5 13.26-14.59 13.96 0.5303 19.56 18.72m8.019 7.673 8.131 7.78 0.1733 40.03-17.83 16.85 0.0504 12.27-16.37 0.0666 0.1081-35.3"  stroke-width="1.317"/><path d="m-750.4 195.2 7.643 4.157-2.186 23.22-27.15 9.728 0.6945 86.83 29.43 27.89-0.0477 44.98-18.47 17.78 0.1221 20.22-4.314 10.18 0.6006 75.94 14.28 10.07 0.1947 17.51 7.948 7.692"  stroke-width="1.882"/><path d="m-743.4 515.8h-17.45v-53.41l6.241-9.309 11.21 0.0866z"  stroke-width="1.317"/><g stroke-width="1.317"><path d="m-797.8 472.2-0.011 8.187 11.49 9.579-0.695 35.11" /><path d="m-797.8 480.4-6.294 9.61-1.102 35.7" /><path d="m-810.6 515.9 46.51 0.209" /></g><path d="m-792.5 440.6h-29.34v6.18h29.34z"  stroke-width="1.317"/><path d="m-803.3 472.2 39.53 0.0949"  stroke-width="1.317"/><path d="m-798.2 472 3.097-20.78 30.5-0.0157"  stroke-width="1.317"/><path d="m-744.4 256h-19.1v55.96h19.1z"  stroke-width="1.317"/><g stroke-width="1.317"><path d="m-763.6 270.1 9.733 4.788 9.362-4.819" /><path d="m-763.6 298.4 9.733-4.788 9.362 4.819" /><path d="m-753.9 274.9v18.76" /></g><path d="m-806.6 386.6v44.48h22.95v-48.59h-2.977m-11.38 0h-4.727"  stroke-width="1.317"/><path d="m-806.7 386.8 5.246 7.517 12.36 0.0736 5.348-7.616"  stroke-width="1.317"/><path d="m-795 394.5v24.33"  stroke-width="1.317"/><g stroke-width="1.317"><path d="m-806.7 426.3 5.246-7.517 12.36-0.0736 5.348 7.616" /><path d="m-816.3 315.5 12.8-7.13" /><path d="m-779.1 292.6 7.046-9.13" /><path d="m-779.3 234.9 7.211-2.62" /><path d="m-806.1 583.2 0.2558-52.54" /><path d="m-814 591.6-0.4654-61.01" /><path d="m-773.2 569.6 0.046-15.3-30.16 13.77-0.072 14.44" /><path d="m-725.6 568-0.079-15.92-17.02-0.0186m-6.75-7e-3 -12.39-0.0135-0.072 16.63" /><path d="m-926.4 449.2 0.2236-43.94 42.84-47.26" /><path d="m-935.1 407.2 8.952-1.905" /></g><path d="m-840.8 453.8h-42.34v6.18h42.34z"  stroke-width="1.317"/><g stroke-width="1.317"><path d="m-880.2 334.6 0.0991 81.53 7.725 20.19 0.0341 16.84" /><path d="m-872.4 436.4 31.31 1.887 0.2632 15.53" /><path d="m-841.1 438.3 15.86 0.8285 1.696 20.91-17.29-0.0282" /></g><path d="m-847.8 329.1h-11.39v13.96h11.39z"  stroke-width="1.317"/><path d="m-850.9 288.7h-7.222v16.34h7.222z"  stroke-width="1.317"/><g stroke-width="1.317"><path d="m-864.9 281.5 0.3094 151.4-7.837 3.461" /><path d="m-729.8 199.6 3.449-2.005 18.53 0.0533" /><path d="m-731.9 199.6 0.0772-7.405" /><path d="m-717.8 191.5 2.38 3.055 7.572-0.025" /><path d="m-712.3 194.4-0.1506-17.19" /></g><path d="m-840 322.6h13.21v21.16h-13.21z"  stroke-width="1.317"/><path d="m-744.9 222.6h13.21v29.66h-13.21z"  stroke-width="1.317"/><g stroke-width="1.882"><path d="m-857.9 471.7v3.952l3.114 3.99h14.26l3.114-4.005v-3.937" /><path d="m-829.8 471.7v3.952l3.114 3.99h14.26l3.114-4.005v-3.937" /><path d="m-800.5 526.6 3.114 3.99h14.26l2.051-2.817" /></g><path d="m-919.7 410 4.481-9.5 4.481 9.5v32.53l-4.418 4.5-4.543-4.5z"  stroke-width="1.317"/><g stroke-width="1.317"><path d="m-919.7 410h8.962" /><path d="m-917.1 404.9 3.921 0.0324" /><path d="m-919.9 420.1 2.919 3.407 0.0229 22" /><path d="m-910.6 420.1-2.919 3.407-0.0229 22" /></g><g ><g transform="translate(13.44 -3.807e-6)" ><path d="m-919.7 410 4.481-9.5 4.481 9.5v32.53l-4.418 4.5-4.543-4.5z"  stroke-width="1.317"/><g stroke-width="1.317"><path d="m-919.7 410h8.962" /><path d="m-917.1 404.9 3.921 0.0324" /><path d="m-919.9 420.1 2.919 3.407 0.0229 22" /><path d="m-910.6 420.1-2.919 3.407-0.0229 22" /></g></g><g stroke-width=".8586"><g transform="matrix(1.258 0 0 1.228 391.6 -160.2)" ><path d="m-919.7 410 4.481-9.5 4.481 9.5v32.53l-4.418 4.5-4.543-4.5z"  stroke-width="1.06"/><g stroke-width="1.06"><path d="m-919.7 410h8.962" /><path d="m-917.1 404.9 3.921 0.0324" /><path d="m-919.9 420.1 2.919 3.407 0.0229 22" /><path d="m-910.6 420.1-2.919 3.407-0.0229 22" /></g></g><g transform="matrix(1.258 0 0 1.228 375.1 -160.2)" ><path d="m-919.7 410 4.481-9.5 4.481 9.5v32.53l-4.418 4.5-4.543-4.5z"  stroke-width="1.06"/><g stroke-width="1.06"><path d="m-919.7 410h8.962" /><path d="m-917.1 404.9 3.921 0.0324" /><path d="m-919.9 420.1 2.919 3.407 0.0229 22" /><path d="m-910.6 420.1-2.919 3.407-0.0229 22" /></g></g><g transform="matrix(1.258 0 0 1.228 358.6 -160.2)" ><path d="m-919.7 410 4.481-9.5 4.481 9.5v32.53l-4.418 4.5-4.543-4.5z"  stroke-width="1.06"/><g stroke-width="1.06"><path d="m-919.7 410h8.962" /><path d="m-917.1 404.9 3.921 0.0324" /><path d="m-919.9 420.1 2.919 3.407 0.0229 22" /><path d="m-910.6 420.1-2.919 3.407-0.0229 22" /></g></g><g transform="matrix(1.258 0 0 1.228 342.5 -160.2)" ><path d="m-919.7 410 4.481-9.5 4.481 9.5v32.53l-4.418 4.5-4.543-4.5z"  stroke-width="1.06"/><g stroke-width="1.06"><path d="m-919.7 410h8.962" /><path d="m-917.1 404.9 3.921 0.0324" /><path d="m-919.9 420.1 2.919 3.407 0.0229 22" /><path d="m-910.6 420.1-2.919 3.407-0.0229 22" /></g></g></g></g><g stroke-width="1.317"><path d="m-812.7 340.3-0.0262-4.064 3.759-4.003" /><path d="m-786.5 377.8 5.046 0.0577" /><path d="m-803 377.7 5.046 0.0577" /></g><g stroke-width="1.882"><path d="m-614.7 526 0.1987 3.201 4.756 1.42 0.9241-1.892 7.655 1.797 5.114 48.37-5.58 12.64-7.835-4.38-0.0227-3.988-36.62-15.35-61.7-0.1697" /><path d="m-577.5 261 0.6768 29.64 5.827 24.23 0.4175 79.38-0.9862 30.03-30.21-0.0695 1.466-35.44 0.6152-9.221 0.3471-125.3-3.822-16.07" /><path d="m-612.6 231.4-0.0647 85.27-24.21 0.077 0.6608-94.62-2.541-11.24" /></g><path d="m-595.4 409.6h20.18v10.06h-20.18z"  stroke-width="1.317"/><path d="m-632.2 284.6h14.52v26.24h-14.52z"  stroke-width="1.317"/><g stroke-width="1.317"><path d="m-576.9 290.7-22.53 0.3448" /><path d="m-571 314.9-28.28 0.5948" /><path d="m-570.5 393.1-29.96 0.0563" /></g><path d="m-596 353.3h22.71v6.18h-22.71z"  stroke-width="1.317"/><path d="m-612.1 243.7-24.22 0.9484"  stroke-width="1.317"/><path d="m-582.1 264.5h-10.56v8.095h10.56z"  stroke-width="1.317"/><ellipse transform="matrix(.6859 .7277 -.7182 .6959 0 0)" cx="-215.9" cy="611.8" rx="3.102" ry="3.076"  stroke-width="1.317"/><path d="m-557.5 416.1h-10.56v8.095h10.56z"  stroke-width="1.317"/><ellipse transform="matrix(.6859 .7277 -.7182 .6959 0 0)" cx="-89.89" cy="697.9" rx="3.102" ry="3.076"  stroke-width="1.317"/><path d="m-621 256.2h-7.803v8.117h7.803z"  stroke-width="1.317"/><path d="m-639.3 479.9h-7.803v8.117h7.803z"  stroke-width="1.317"/><path d="m-578.5 252.3-2.766 4.958-14.13 0.2163-3.986-3.258"  stroke-width="1.317"/><path d="m-615.4 220.2-2.766 4.958-14.13 0.2163-3.986-3.258"  stroke-width="1.317"/><path d="m-598.7 222.4h14.52v22.86h-14.52z"  stroke-width="1.317"/><path d="m-634.5 191.6h14.52v22.86h-14.52z"  stroke-width="1.317"/><g stroke-width="1.317"><path d="m-529.6 353.9-2.713 4.07-0.0898 97.36" /><path d="m-672.9 199.4-12.94 0.2564 0.2095 35.61 0.2586 70.47 1.104 15.13-0.5 72.62 10.77 12.38-1.043 120.4-22.67 0.1297" /><path d="m-680.8 438.1-2.98 17.3-13.99 38.3 0.0493 62.57" /><path d="m-677.9 437.6-0.6769 88.81" /><path d="m-677.8 456.6-6.692 0.0949" /><path d="m-678.3 474.5-13 0.0949" /><path d="m-678.5 508.7-19.24 0.0949" /><path d="m-678.5 518.3-19.23 0.0949" /></g><g stroke-width="1.317"><path d="m-678.2 529.3h-16.47v5.996h16.47z" /><path d="m-691.6 537.6h-3.039v7.764h3.039z" /><path d="m-686.5 537.6h-3.039v7.764h3.039z" /><path d="m-681.4 537.6h-3.039v7.764h3.039z" /></g><path d="m-674.3 437.7-33.5-0.1098"  stroke-width="1.317"/><path d="m-674 405.8-33.81-0.1821"  stroke-width="1.317"/><path d="m-607.1 331.5-13.26-14.59-13.96 0.5303-19.56 18.72m-8.019 7.673-8.131 7.78-0.1733 40.03 17.83 16.85-0.0504 12.27 16.37 0.0666-0.1081-35.3"  stroke-width="1.317"/><path d="m-665.3 195.2-7.643 4.157 2.186 23.22 27.15 9.728-0.6945 86.83-29.43 27.89 0.0477 44.98 18.47 17.78-0.1221 20.22 4.314 10.18-0.6006 75.94-14.28 10.07-0.1947 17.51-7.948 7.692"  stroke-width="1.882"/><path d="m-672.3 515.8h17.45v-53.41l-6.241-9.309-11.21 0.0866z"  stroke-width="1.317"/><g stroke-width="1.317"><path d="m-617.8 472.2 0.011 8.187-11.49 9.579 0.695 35.11" /><path d="m-617.8 480.4 6.294 9.61 1.102 35.7" /><path d="m-605.1 515.9-46.51 0.209" /></g><path d="m-623.2 440.6h29.34v6.18h-29.34z"  stroke-width="1.317"/><path d="m-612.3 472.2-39.53 0.0949"  stroke-width="1.317"/><path d="m-617.4 472-3.097-20.78-30.5-0.0157"  stroke-width="1.317"/><path d="m-671.2 256h19.1v55.96h-19.1z"  stroke-width="1.317"/><g stroke-width="1.317"><path d="m-652 270.1-9.733 4.788-9.362-4.819" /><path d="m-652 298.4-9.733-4.788-9.362 4.819" /><path d="m-661.8 274.9v18.76" /></g><path d="m-609 386.6v44.48h-22.95v-48.59h2.977m11.38 0h4.727"  stroke-width="1.317"/><path d="m-608.9 386.8-5.246 7.517-12.36 0.0736-5.348-7.616"  stroke-width="1.317"/><path d="m-620.6 394.5v24.33"  stroke-width="1.317"/><g stroke-width="1.317"><path d="m-608.9 426.3-5.246-7.517-12.36-0.0736-5.348 7.616" /><path d="m-599.3 315.5-12.8-7.13" /><path d="m-636.5 292.6-7.046-9.13" /><path d="m-636.4 234.9-7.211-2.62" /><path d="m-609.5 583.2-0.2558-52.54" /><path d="m-601.6 591.6 0.4654-61.01" /><path d="m-642.4 569.6-0.046-15.3 30.16 13.77 0.072 14.44" /><path d="m-690 568 0.079-15.92 17.02-0.0186m6.75-7e-3 12.39-0.0135 0.072 16.63" /><path d="m-489.2 449.2-0.2236-43.94-42.84-47.26" /><path d="m-480.5 407.2-8.952-1.905" /></g><path d="m-574.8 453.8h42.34v6.18h-42.34z"  stroke-width="1.317"/><g stroke-width="1.317"><path d="m-535.4 334.6-0.0991 81.53-7.725 20.19-0.0341 16.84" /><path d="m-543.2 436.4-31.31 1.887-0.2632 15.53" /><path d="m-574.5 438.3-15.86 0.8285-1.696 20.91 17.29-0.0282" /></g><path d="m-567.9 329.1h11.39v13.96h-11.39z"  stroke-width="1.317"/><path d="m-564.8 288.7h7.222v16.34h-7.222z"  stroke-width="1.317"/><g stroke-width="1.317"><path d="m-550.8 281.5-0.3094 151.4 7.837 3.461" /><path d="m-685.8 199.6-3.449-2.005-18.53 0.0533" /><path d="m-683.8 199.6-0.0772-7.405" /><path d="m-697.9 191.5-2.38 3.055-7.572-0.025" /><path d="m-703.3 194.4 0.1506-17.19" /></g><path d="m-575.7 322.6h-13.21v21.16h13.21z"  stroke-width="1.317"/><path d="m-670.7 222.6h-13.21v29.66h13.21z"  stroke-width="1.317"/><g stroke-width="1.882"><path d="m-557.7 471.7v3.952l-3.114 3.99h-14.26l-3.114-4.005v-3.937" /><path d="m-585.8 471.7v3.952l-3.114 3.99h-14.26l-3.114-4.005v-3.937" /><path d="m-615.2 526.6-3.114 3.99h-14.26l-2.051-2.817" /></g><g ><g transform="matrix(-1 0 0 1 -1416 0)" ><path d="m-919.7 410 4.481-9.5 4.481 9.5v32.53l-4.418 4.5-4.543-4.5z"  stroke-width="1.317"/><g stroke-width="1.317"><path d="m-919.7 410h8.962" /><path d="m-917.1 404.9 3.921 0.0324" /><path d="m-919.9 420.1 2.919 3.407 0.0229 22" /><path d="m-910.6 420.1-2.919 3.407-0.0229 22" /></g></g><g transform="matrix(-1 0 0 1 -1429 -9.998e-6)" ><path d="m-919.7 410 4.481-9.5 4.481 9.5v32.53l-4.418 4.5-4.543-4.5z"  stroke-width="1.317"/><g stroke-width="1.317"><path d="m-919.7 410h8.962" /><path d="m-917.1 404.9 3.921 0.0324" /><path d="m-919.9 420.1 2.919 3.407 0.0229 22" /><path d="m-910.6 420.1-2.919 3.407-0.0229 22" /></g></g><g stroke-width=".8586"><g transform="matrix(-1.258 0 0 1.228 -1807 -160.2)" ><path d="m-919.7 410 4.481-9.5 4.481 9.5v32.53l-4.418 4.5-4.543-4.5z"  stroke-width="1.06"/><g stroke-width="1.06"><path d="m-919.7 410h8.962" /><path d="m-917.1 404.9 3.921 0.0324" /><path d="m-919.9 420.1 2.919 3.407 0.0229 22" /><path d="m-910.6 420.1-2.919 3.407-0.0229 22" /></g></g><g transform="matrix(-1.258 0 0 1.228 -1791 -160.2)" ><path d="m-919.7 410 4.481-9.5 4.481 9.5v32.53l-4.418 4.5-4.543-4.5z"  stroke-width="1.06"/><g stroke-width="1.06"><path d="m-919.7 410h8.962" /><path d="m-917.1 404.9 3.921 0.0324" /><path d="m-919.9 420.1 2.919 3.407 0.0229 22" /><path d="m-910.6 420.1-2.919 3.407-0.0229 22" /></g></g><g transform="matrix(-1.258 0 0 1.228 -1774 -160.2)" ><path d="m-919.7 410 4.481-9.5 4.481 9.5v32.53l-4.418 4.5-4.543-4.5z"  stroke-width="1.06"/><g stroke-width="1.06"><path d="m-919.7 410h8.962" /><path d="m-917.1 404.9 3.921 0.0324" /><path d="m-919.9 420.1 2.919 3.407 0.0229 22" /><path d="m-910.6 420.1-2.919 3.407-0.0229 22" /></g></g><g transform="matrix(-1.258 0 0 1.228 -1758 -160.2)" ><path d="m-919.7 410 4.481-9.5 4.481 9.5v32.53l-4.418 4.5-4.543-4.5z"  stroke-width="1.06"/><g stroke-width="1.06"><path d="m-919.7 410h8.962" /><path d="m-917.1 404.9 3.921 0.0324" /><path d="m-919.9 420.1 2.919 3.407 0.0229 22" /><path d="m-910.6 420.1-2.919 3.407-0.0229 22" /></g></g></g></g><g stroke-width="1.317"><path d="m-602.9 340.3 0.0262-4.064-3.759-4.003" /><path d="m-629.1 377.8-5.046 0.0577" /><path d="m-612.6 377.7-5.046 0.0577" /></g><g stroke-width="1.317"><path d="m-717.8 221.2h19.93v20.75h-19.93z" /><path d="m-719.5 253.9h23.29v45.5h-23.29z" /><path d="m-713.7 269.7h11.8v19.36h-11.8z" /></g><path d="m-721.7 246h-4.847v46.34h4.847z"  stroke-width="1.317"/><path d="m-693.9 246h4.847v46.34h-4.847z"  stroke-width="1.317"/><path d="m-721.5 351.9h27.36v23.43h-27.36z"  stroke-width="1.317"/><path d="m-721.5 316.3h27.36v22.47h-27.36z"  stroke-width="1.317"/></g><g  ><g fill="none" stroke="#979797" stroke-width="3.587"><path d="m442.9 86.92c21.52 3.996 37.82 22.87 37.82 45.55 0 5.371-0.9139 10.53-2.595 15.33m-7.842 13.97c-8.496 10.4-21.42 17.03-35.89 17.03-14.38 0-27.24-6.555-35.74-16.84m-7.716-13.37c-1.862-5.019-2.88-10.45-2.88-16.12 0-23.05 16.84-42.18 38.89-45.74" /><path d="m434.9 71.19v15.85" /><path d="m395.6 155.1-13.68 8.014" /></g><g ><g stroke-width="1.235"></g></g><g fill="#f39745" ></g><path d="m474.2 155.1 13.68 8.014" fill="none"  stroke="#979797" stroke-width="3.587"/><g fill="#f39745" ><g stroke-width="1.764"></g><g stroke-width="1.764"></g></g><g fill="#ff3ae1"  stroke-width="1.554"></g><g fill="#4df346" ><g stroke-width="1.661"></g></g><g fill="#979797"  stroke-width="2.869"></g><g fill="#f39745" ></g></g>
  </svg>
</svg>
