<svg xmlns="http://www.w3.org/2000/svg" viewBox="0 0 390 640" preserveAspectRatio="xMidYMid meet">
  <style>
    * { vector-effect: non-scaling-stroke; }
    path, rect, circle, ellipse, polygon, polyline, line {
      fill: none !important;
      stroke: #73f8ff !important;
      stroke-width: 2.25px !important;
      stroke-linecap: round;
      stroke-linejoin: round;
      opacity: 0.92;
    }
  </style>
  <svg x="0" y="0" width="870" height="640" viewBox="0 0 870 640" preserveAspectRatio="xMinYMin meet">

<path d="m630.6 388.1h32.38v23.55h-32.38z" fill="none"   stroke-width="1.235"/><g transform="translate(1343)"  fill="none"  ><path d="m-1125 178-3.924 2.854-1.504 8.002-7.766 0.1758-2.426 1.826 0.035 2.564-10.88-0.9941-9.416 2.553-47.26 28.21 0.061 2.162-11.34 9.268-1.52 27.3-25.7 22.78 3.26-29.98-29.69 21.91-46.49 93.87 0.3887 44.73 14.89 24.9 19.92 0.7852 7.309 17.11 2.525 0.0469 0.9394 6.807 21.15 0.0352 0.08-6.633 1.596 0.0391 0.6406-37.14 30.91 28.31 0.092 9.945-5.416 9.633 0.1445 36.01 17.24 0.3144 0.066 8.494 4.141 1.27v-9.764l1.859 0.0273 20.19 10.9 0.4336 2.361 1.451 0.123 0.4825-1.311 10.94 5.908 3.783 10.98 0.1758 22.67 3.77 4.656 4.188-0.0586-0.3809-24.17 5.045-4.344 10.06 0.0859 9.641 8.129 10.93 0.1856 10.93-0.1856 9.641-8.129 10.06-0.0859 5.045 4.344-0.3809 24.17 4.188 0.0586 3.77-4.656 0.1757-22.67 3.783-10.98 10.94-5.908 0.4825 1.311 1.453-0.123 0.4336-2.361 20.18-10.9 1.859-0.0273v9.764l4.141-1.27 0.064-8.494 17.24-0.3144 0.1445-36.01-5.416-9.633 0.092-9.945 30.91-28.31 0.6406 37.14 1.596-0.0391 0.082 6.633 21.15-0.0352 0.9394-6.807 2.525-0.0469 7.309-17.11 19.92-0.7852 14.89-24.9 0.3887-44.73-46.49-93.87-29.69-21.91 3.26 29.98-25.69-22.78-1.522-27.3-11.34-9.268 0.061-2.162-47.26-28.21-9.416-2.553-10.88 0.9941 0.035-2.564-2.426-1.826-7.764-0.1758-1.506-8.002-3.922-2.854-4.623 0.0527z"  stroke-width="1.764"/><g stroke-width="1.764"><path d="m-1219 234.6-1.97-12.55-16.8-0.0948-5.185 32.75" /><path d="m-1240 234.7-3.109 1.411 0.1945 18.67" /><path d="m-1140 193.4-7.099 5.144-0.2443 21.09 5.241 4.459 0.013 11.25-68.57 29.32-86.78 70.27-17.49 35.44-0.2609 45.69 14.69 24.33" /><path d="m-1208 225.4-3.172 39.33" /><path d="m-1298 335-0.3979 83.03 7.216 5.786 6.857 17.14" /><path d="m-1219 449.5 0.07-69.8-36.04 0.0614-0.3055 84.92" /></g><g stroke-width="1.235"><path d="m-1250 384h24.74v49.35l-24.74-23z" /><path d="m-1232 361.9h7.803v8.117h-7.803z" /><path d="m-1278 326.6h10.56v8.095h-10.56z" /></g><ellipse transform="matrix(-.6859 .7277 .7182 .6959 0 0)" cx="1123" cy="-699.5" rx="3.102" ry="3.076"  stroke-width="1.235"/><path d="m-1287 388.8h19.55v27.62h-19.55z"  stroke-width="1.235"/><path d="m-1281 425.7h10.56v8.095h-10.56z"  stroke-width="1.235"/><ellipse transform="matrix(-.6859 .7277 .7182 .6959 0 0)" cx="1196" cy="-633.3" rx="3.102" ry="3.076"  stroke-width="1.235"/><path d="m-1236 296.7h9.212v16.66h-9.212z"  stroke-width="1.235"/><path d="m-1244 426.6-2.013 2.612 18.45 17.07 2.13-2.708"  stroke-width="1.764"/><g stroke-width="1.235"><path d="m-1298 379.7 43.3 0.106" /><path d="m-1298 325.9 33.81-26.99-1.603 9.427 0.2638 13.31 10.54 8.613-0.4154 49.48" /><path d="m-1286 302.6 24.35-18.82-1.537 8.389-28.75 22.44" /><path d="m-1210 245.3-10.54 7.764" /><path d="m-1244 261-33.7 25.18" /><path d="m-1245 271.3-16.65 12.46" /><path d="m-1246 284.7-17.33 14.22" /><path d="m-1211 264.7-2.265 107.3-5.618 7.702" /><path d="m-1252 458.3-22.17-0.2093" /><path d="m-1250 421.2-5.373-4.853" /><path d="m-1256 446.5-20.67 4.004-8.406-20.89 1.202-4.996 28.29-6.82" /><path d="m-1219 459.4 5.649-0.1142-0.011 11.1 6.275 12.23 0.052 22.73" /></g><path d="m-1191 388.4h-11.53v-67.55l11.53 10.45z"  stroke-width="1.235"/><path d="m-1199 296h7.974v20.81h-7.974z"  stroke-width="1.235"/><path d="m-1166 245.6-18.65 38.33 0.011 88.11 18.35 38.72-0.6789 112.7"  stroke-width="1.764"/><path d="m-1185 283.9-15.49 0.1534 0.165-23.86"  stroke-width="1.235"/><path d="m-1185 496h-10.43v-67.55l10.43 0.019z"  stroke-width="1.235"/><g stroke-width="1.235"><path d="m-1203 388.4-0.01 117" /><path d="m-1191 388.4 12.76 28.46 0.1379 100.6" /><path d="m-1179 511.1-17.49-9.456-2.279 4.919" /></g><path d="m-1179 369.9 15.74 31.47v-148.9l-15.93 30.98z"  stroke-width="1.235"/><g stroke-width="1.235"><path d="m-1156 537.5-4.008-0.5722-3.502-14.23 0.1336-121.3" /><path d="m-1163 244.3-0.088 8.207" /><path d="m-1163 378.3 9.499 15.41-0.027 63.63-2.33 26.26-0.032 14.67 0.2618 39.18" /><path d="m-1156 497.9-7.003 0.1621" /><path d="m-1179 423.1-24.16-17.24" /><path d="m-1213 459.3-5.258 9.804-0.1803 35.99" /><path d="m-1270 388.9-2.832-7.363-8.82 0.0549-2.449 7.259" /><path d="m-1271 389 0.8364 27.26" /><path d="m-1161 195-0.6251 13.94-7.814 8.58-1.643 23.01 7.615 3.789" /><path d="m-1151 192.4-0.4901 20.32-5.064 6.455-1.643 23.01" /></g><path d="m-1193 228.4 9.571-5.95v6.703l-9.571 5.95z"  stroke-width="1.235"/><g stroke-width="1.235"><path d="m-1197 216.8-0.1912 13.16-12.57 15.37" /><path d="m-1203 371.9-10.36 0.077" /><path d="m-1185 372-6.263 0.077" /></g><path d="m-1292 440.7-0.1089 10.44 12.07 0.0424"  stroke-width="1.764"/><path d="m-1153 192.9-0.3876 17.63-6.928 3.985-0.9034 29.18"  stroke-width="1.764"/><g stroke-width="1.235"><path d="m-1171 240.5-28.92 13.06-0.7093 6.602" /><path d="m-1203 447.7-10.32 0.0954" /><path d="m-1219 440.1 5.377 7.683-0.044 11.58" /></g><path d="m-1225 225.8h-9.901l-3.25 33.93 11.65-7.894z"  stroke-width="1.235"/><g stroke-width="1.235"><path d="m-1255 432.5-25.7 6.636" /><path d="m-1143 235.4 7.267-3.01v-9.849l-6.116-5.026 0.011-21 3.404-2.709-0.082-4.741" /><path d="m-1120 222.4-15.03 0.0954" /><path d="m-1120 197.2-4.458 0.0134-5.522-3.644-0.069-4.696" /><path d="m-1125 197.2-5.967 9.332-0.023 10.83 10.45 0.048" /><path d="m-1131 206.5-10.76 0.0954" /><path d="m-1125 197.2-16.54 0.0954" /><path d="m-1125 197.2-0.1683-19.19" /><path d="m-1120 183.5-4.532 0.0954" /><path d="m-1148 213.7-3.961-0.9366" /><path d="m-1142 210.3-4.005 3.311-0.027 7.972" /><path d="m-1120 522.2-20.19 0.0954" /><path d="m-1141 533.2-0.022-29.45" /><path d="m-1120 503.7-30.91 0.0954" /><path d="m-1151 486.7 0.3558 46.45" /><path d="m-1130 503.9 0.014-3.554-25.87-16.73 8.063-25.6 0.1277-81.26-15.37-26.11" /><path d="m-1120 470.2-11.66-8e-3 -16.6-12.2" /><path d="m-1120 370-17.33 0.0579-10.38 6.707" /><path d="m-1120 401.6-15.38 0.0579-12.33 13.6" /><path d="m-1120 353.9-24.34 0.0574-16.72-0.0757" /><path d="m-1145 354-13.62-57.39 11.49-2.022-0.1199-48.44 6.482-4.596 20.11 0.2497" /><path d="m-1120 381.4-13.57-0.1109-0.1108 6.294-13.88 0.0819" /></g><path d="m-1138 448.1h11.6v8.117h-11.6z"  stroke-width="1.235"/><g stroke-width="1.764"><path d="m-1021 234.6 1.97-12.55 16.8-0.0948 5.185 32.75" /><path d="m-1e3 234.7 3.109 1.411-0.1945 18.67" /><path d="m-1100 193.4 7.099 5.144 0.2443 21.09-5.241 4.459-0.013 11.25 68.57 29.32 86.78 70.27 17.49 35.44 0.2608 45.69-14.69 24.33" /><path d="m-1033 225.4 3.172 39.33" /><path d="m-942.6 335 0.3978 83.03-7.216 5.786-6.857 17.14" /><path d="m-1021 449.5-0.07-69.8 36.04 0.0614 0.3055 84.92" /></g><g stroke-width="1.235"><path d="m-990.7 384h-24.74v49.35l24.74-23z" /><path d="m-1008 361.9h-7.803v8.117h7.803z" /><path d="m-962.2 326.6h-10.56v8.095h10.56z" /></g><ellipse transform="matrix(.6859 .7277 -.7182 .6959 0 0)" cx="-435.8" cy="931" rx="3.102" ry="3.076"  stroke-width="1.235"/><path d="m-953.5 388.8h-19.55v27.62h19.55z"  stroke-width="1.235"/><path d="m-959.7 425.7h-10.56v8.095h10.56z"  stroke-width="1.235"/><ellipse transform="matrix(.6859 .7277 -.7182 .6959 0 0)" cx="-362.9" cy="997.2" rx="3.102" ry="3.076"  stroke-width="1.235"/><path d="m-1004 296.7h-9.212v16.66h9.212z"  stroke-width="1.235"/><path d="m-996.3 426.6 2.013 2.612-18.45 17.07-2.13-2.708"  stroke-width="1.764"/><g stroke-width="1.235"><path d="m-942.1 379.7-43.3 0.106" /><path d="m-942.8 325.9-33.81-26.99 1.603 9.427-0.2638 13.31-10.54 8.613 0.4154 49.48" /><path d="m-954.6 302.6-24.35-18.82 1.537 8.389 28.75 22.44" /><path d="m-1031 245.3 10.54 7.764" /><path d="m-996.6 261 33.7 25.18" /><path d="m-995.6 271.3 16.65 12.46" /><path d="m-994 284.7 17.33 14.22" /><path d="m-1029 264.7 2.265 107.3 5.618 7.702" /><path d="m-988.3 458.3 22.17-0.2093" /><path d="m-990.5 421.2 5.373-4.853" /><path d="m-984.5 446.5 20.67 4.004 8.406-20.89-1.202-4.996-28.29-6.82" /><path d="m-1021 459.4-5.649-0.1142 0.011 11.1-6.275 12.23-0.052 22.73" /></g><path d="m-1049 388.4h11.53v-67.55l-11.53 10.45z"  stroke-width="1.235"/><path d="m-1041 296h-7.974v20.81h7.974z"  stroke-width="1.235"/><path d="m-1074 245.6 18.65 38.33-0.011 88.11-18.35 38.72 0.6789 112.7"  stroke-width="1.764"/><path d="m-1055 283.9 15.49 0.1534-0.165-23.86"  stroke-width="1.235"/><path d="m-1055 496h10.43v-67.55l-10.43 0.019z"  stroke-width="1.235"/><g stroke-width="1.235"><path d="m-1038 388.4 0.01 117" /><path d="m-1049 388.4-12.76 28.46-0.1379 100.6" /><path d="m-1062 511.1 17.49-9.456 2.279 4.919" /></g><path d="m-1061 369.9-15.74 31.47v-148.9l15.93 30.98z"  stroke-width="1.235"/><g stroke-width="1.235"><path d="m-1085 537.5 4.008-0.5722 3.502-14.23-0.1337-121.3" /><path d="m-1077 244.3 0.088 8.207" /><path d="m-1077 378.3-9.499 15.41 0.027 63.63 2.33 26.26 0.032 14.67-0.2617 39.18" /><path d="m-1084 497.9 7.003 0.1621" /><path d="m-1062 423.1 24.16-17.24" /><path d="m-1027 459.3 5.258 9.804 0.1804 35.99" /><path d="m-970.9 388.9 2.832-7.363 8.82 0.0549 2.449 7.259" /><path d="m-969.2 389-0.8364 27.26" /><path d="m-1080 195 0.6251 13.94 7.814 8.58 1.643 23.01-7.615 3.789" /><path d="m-1089 192.4 0.4901 20.32 5.064 6.455 1.643 23.01" /></g><path d="m-1047 228.4-9.571-5.95v6.703l9.571 5.95z"  stroke-width="1.235"/><g stroke-width="1.235"><path d="m-1044 216.8 0.1912 13.16 12.57 15.37" /><path d="m-1037 371.9 10.36 0.077" /><path d="m-1055 372 6.263 0.077" /></g><path d="m-948.6 440.7 0.1089 10.44-12.07 0.0424"  stroke-width="1.764"/><path d="m-1087 192.9 0.3877 17.63 6.928 3.985 0.9034 29.18"  stroke-width="1.764"/><g stroke-width="1.235"><path d="m-1070 240.5 28.92 13.06 0.7093 6.602" /><path d="m-1038 447.7 10.32 0.0954" /><path d="m-1022 440.1-5.377 7.683 0.044 11.58" /></g><path d="m-1015 225.8h9.901l3.25 33.93-11.65-7.894z"  stroke-width="1.235"/><g stroke-width="1.235"><path d="m-985.2 432.5 25.7 6.636" /><path d="m-1098 235.4-7.267-3.01 0.01-9.849 6.116-5.026-0.011-21-3.404-2.709 0.082-4.741" /><path d="m-1120 222.4 15.03 0.0954" /><path d="m-1120 197.2 4.458 0.0134 5.522-3.644 0.069-4.696" /><path d="m-1116 197.2 5.967 9.332 0.023 10.83-10.45 0.048" /><path d="m-1110 206.5 10.76 0.0954" /><path d="m-1116 197.2 16.54 0.0954" /><path d="m-1116 197.2 0.1683-19.19" /><path d="m-1120 183.5 4.532 0.0954" /><path d="m-1093 213.7 3.961-0.9366" /><path d="m-1099 210.3 4.005 3.311 0.027 7.972" /><path d="m-1120 522.2 20.19 0.0954" /><path d="m-1100 533.2 0.022-29.45" /><path d="m-1120 503.7 30.91 0.0954" /><path d="m-1089 486.7-0.3558 46.45" /><path d="m-1110 503.9-0.014-3.554 25.87-16.73-8.063-25.6-0.1277-81.26 15.43-26.42" /><path d="m-1121 470.2 11.66-8e-3 16.6-12.2" /><path d="m-1120 370 17.33 0.0579 10.38 6.707" /><path d="m-1120 401.6 15.38 0.0579 12.33 13.6" /><path d="m-1096 354 13.62-57.39-11.49-2.022 0.1199-48.44-6.482-4.596-20.11 0.2497" /><path d="m-1120 381.4 13.57-0.1109 0.1108 6.294 13.88 0.0819" /></g><g stroke-width="1.235"><path d="m-1103 448.1h-11.6v8.117h11.6z" /><path d="m-1127 268.7h12.92v13.78h-12.92z" /><path d="m-1131 419.2h22.42v17.16h-22.42z" /></g><path d="m-1180 518.9h-28.2v9.751l4.288 9.844h19.63l4.288-9.882z"  stroke-width="1.764"/><path d="m-1212 505.6 0.058 6.119 3.398 7.111"  stroke-width="1.764"/><path d="m-1120 353.9 24.34 0.0574 16.72-0.0757"  stroke-width="1.235"/><path d="m-1180 528.6-28.19 0.0376"  stroke-width="1.235"/><path d="m-1061 518.9h28.2v9.751l-4.288 9.844h-19.63l-4.288-9.882z"  stroke-width="1.764"/><path d="m-1029 505.6-0.058 6.119-3.398 7.111"  stroke-width="1.764"/><path d="m-1061 528.6 28.19 0.0376"  stroke-width="1.235"/></g><g transform="translate(1227)"  fill="none"  ><path d="m-584.6 178-3.924 2.854-1.504 8.002-7.766 0.1758-2.426 1.826 0.0352 2.564-10.88-0.9941-9.416 2.553-47.26 28.21 0.0605 2.162-11.34 9.268-0.7695-8.951-15.04 0.209-2.904 2.574-5.24 26.27-29.69 21.91-46.49 93.87 0.3887 44.73 14.89 24.9 19.92 0.7852 7.309 17.11 2.525 0.0469 0.9394 6.807 21.15 0.0352 0.0801-6.633 1.596 0.0391 0.6406-37.14 30.91 28.31 0.0918 9.945-5.416 9.633 0.1445 36.01 17.24 0.3144 0.0664 8.494 4.141 1.27-4e-3 -9.764 1.859 0.0273 20.19 10.9 0.4336 2.361 1.451 0.123 0.4824-1.311 10.94 5.908 3.783 10.98 0.1758 22.67 3.77 4.656 4.188-0.0586-0.3809-24.17 5.045-4.344 10.06 0.0859 9.641 8.129 10.93 0.1856 10.93-0.1856 9.641-8.129 10.06-0.0859 5.045 4.344-0.3809 24.17 4.188 0.0586 3.77-4.656 0.1758-22.67 3.783-10.98 10.94-5.908 0.4824 1.311 1.451-0.123 0.4336-2.361 20.19-10.9 1.859-0.0273-4e-3 9.764 4.141-1.27 0.0664-8.494 17.24-0.3144 0.1445-36.01-5.416-9.633 0.0918-9.945 30.91-28.31 0.6406 37.14 1.596-0.0391 0.0801 6.633 21.15-0.0352 0.9394-6.807 2.525-0.0469 7.309-17.11 19.92-0.7852 14.89-24.9 0.3887-44.73-46.49-93.87-29.69-21.91-5.24-26.27-2.904-2.574-15.04-0.209-0.7695 8.951-11.34-9.268 0.0605-2.162-47.26-28.21-9.416-2.553-10.88 0.9941 0.0352-2.564-2.426-1.826-7.766-0.1758-1.504-8.002-3.924-2.854-4.621 0.0527z"  stroke-width="1.764"/><path d="m-699.2 234.7-3.984 1.411 0.1945 18.67"  stroke-width="1.764"/><g stroke-width="1.235"><path d="m-732.7 276.6-0.7011 140.5-10.65 6.837 0.058 16.96" /><path d="m-734.1 458.1 22.17 0.209" /><path d="m-744 440.9 33.79 0.209" /><path d="m-744.1 435.8 33.79 0.209" /><path d="m-744 424 33.79 0.209" /><path d="m-733.4 417.1 22.63 0.14 1.012 3.923" /></g><path d="m-703 254.7-0.7667 24.02-7.452 22.23-0.4175 89.76 1.358 16.03 28.09-0.0695 0.2837-21.44-0.6152-9.221 1.774-130.6 1.7-10.76"  stroke-width="1.764"/><g stroke-width="1.235"><path d="m-703.8 278.8 22.53 0.3448" /><path d="m-711.2 301 29.28 0.5948" /><path d="m-711.5 375.9 28.96 0.1188" /><path d="m-711.6 390.7 29.34 0.4698" /></g><path d="m-699.1 254h10.56v8.095h-10.56z"  stroke-width="1.235"/><ellipse transform="matrix(-.6859 .7277 .7182 .6959 0 0)" cx="668.2" cy="-327.9" rx="3.102" ry="3.076"  stroke-width="1.235"/><path d="m-724.9 399.1h10.56v8.095h-10.56z"  stroke-width="1.235"/><ellipse transform="matrix(-.6859 .7277 .7182 .6959 0 0)" cx="790.4" cy="-247.1" rx="3.102" ry="3.076"  stroke-width="1.235"/><g stroke-width="1.235"><path d="m-686.6 336.4h-22.71v6.18h22.71z" /><path d="m-690.3 311.6h-14.79v14.66h14.79z" /><path d="m-715.7 279h-7.222v16.34h7.222z" /><path d="m-614.3 245.6h-19.1v55.96h19.1z" /></g><g stroke-width="1.235"><path d="m-633.5 259.7 9.733 4.788 9.362-4.819" /><path d="m-633.5 288 9.733-4.788 9.362 4.819" /><path d="m-623.7 264.5v18.76" /></g><path d="m-651.7 364.9h-22.95v48.59h22.95z"  stroke-width="1.235"/><path d="m-674.8 369.3 5.246 7.517 12.36 0.0736 5.348-7.616"  stroke-width="1.235"/><path d="m-663.1 376.9v24.33"  stroke-width="1.235"/><path d="m-674.8 408.8 5.246-7.517 12.36-0.0736 5.348 7.616"  stroke-width="1.235"/><path d="m-679.4 322.7 15.2-16.97h13.96l35.71 33.11 0.1733 34.62-17.83 16.47 0.0504 13.1-16.37 0.0666 0.1472-41.52-31.05 0.1939z"  stroke-width="1.235"/><path d="m-660.4 422.7h-29.34v6.18h29.34z"  stroke-width="1.235"/><g stroke-width="1.235"><path d="m-709.7 421.2 16.6 0.0851 1.288 16.03" /><path d="m-693.1 421.3 0.0143-7.161 10.94-7.411" /><path d="m-678.8 452.6 5.472-0.0258-0.011 8.187 11.49 9.579-0.695 35.11" /><path d="m-673.4 460.7-4.981 8.423-0.1803 35.99" /></g><path d="m-639.8 518.9h-28.2v9.751l4.288 9.844h19.63l4.288-9.882z"  stroke-width="1.764"/><path d="m-671.4 505.6 0.058 6.119 3.398 7.111"  stroke-width="1.764"/><path d="m-639.8 528.6-28.19 0.0376"  stroke-width="1.235"/><path d="m-704.3 426.6-2.013 2.612 18.45 17.07 2.13-2.708"  stroke-width="1.764"/><path d="m-611.1 192.4-7.374 25.07-21.45 7.315-9.647 4.424-0.0126 73.04 38.63 36.38-0.0477 35.08-18.47 17.78 0.1221 20.22-4.314 10.18 0.6006 75.94 14.28 10.07 0.1947 17.51 7.948 7.692"  stroke-width="1.764"/><g stroke-width="1.235"><path d="m-627.2 523.4 8.632 2.049" /><path d="m-684.5 497.7 51.46 0.209" /><path d="m-639.9 224.8-0.1069 86.54" /><path d="m-618.5 217.5 0.1564 19.61 5.66 7.047 9.605-0.1598" /><path d="m-673.3 452.5 39.53 0.0949" /><path d="m-600.2 193.4-1.972 21.59-0.2586 70.47-1.104 15.13 0.5 72.62-10.77 12.38 1.043 120.4 21.79 0.1297" /><path d="m-613.5 417.5 33.5-0.1098" /><path d="m-613.8 385.6 33.81-0.1821" /></g><path d="m-592.3 237.4h-4.847v46.34h4.847z"  stroke-width="1.235"/><path d="m-590 188.9 10.05-0.0791"  stroke-width="1.235"/><path d="m-646.1 461.5h7.803v8.117h-7.803z"  stroke-width="1.235"/><g stroke-width="1.235"><path d="m-607 417.8 2.98 17.3 13.11 34.8-9e-3 71.42" /><path d="m-667.7 225.4-0.1077 11.86 17.93 2.216" /><path d="m-668.3 452.3 3.097-20.78 31.64 0.0727" /><path d="m-609.9 417.4 0.6769 88.81" /><path d="m-681.9 301.6 31.92-16.88" /></g><path d="m-642 272.8-4.776 5.75v-35.55l4.776 0.7492z"  stroke-width="1.235"/><path d="m-615.6 497.5h-14.27v-53.41l5.103-9.309 9.164 0.0866z"  stroke-width="1.235"/><g stroke-width="1.235"><path d="m-610 436.4 6.692 0.0949" /><path d="m-609.5 454.3 13 0.0949" /><path d="m-609.3 488.5 18.68 0.0949" /><path d="m-609.3 498.1 18.42 0.0949" /></g><g stroke-width="1.235"><path d="m-609.6 509.1h16.47v5.996h-16.47z" /><path d="m-596.3 517.4h3.039v7.764h-3.039z" /><path d="m-601.3 517.4h3.039v7.764h-3.039z" /><path d="m-606.4 517.4h3.039v7.764h-3.039z" /></g><path d="m-460.8 234.7 3.984 1.411-0.1945 18.67"  stroke-width="1.764"/><g stroke-width="1.235"><path d="m-427.3 276.6 0.7011 140.5 10.65 6.837-0.058 16.96" /><path d="m-425.9 458.1-22.17 0.209" /><path d="m-416 440.9-33.79 0.209" /><path d="m-415.9 435.8-33.79 0.209" /><path d="m-416 424-33.79 0.209" /><path d="m-426.6 417.1-22.63 0.14-1.012 3.923" /></g><path d="m-457 254.7 0.7667 24.02 7.452 22.23 0.4175 89.76-1.358 16.03-28.09-0.0695-0.2837-21.44 0.6152-9.221-1.774-130.6-1.7-10.76"  stroke-width="1.764"/><g stroke-width="1.235"><path d="m-456.2 278.8-22.53 0.3448" /><path d="m-448.8 301-29.28 0.5948" /><path d="m-448.5 375.9-28.96 0.1188" /><path d="m-448.4 390.7-29.34 0.4698" /></g><path d="m-460.9 254h-10.56v8.095h10.56z"  stroke-width="1.235"/><ellipse transform="matrix(.6859 .7277 -.7182 .6959 0 0)" cx="-139.1" cy="516.3" rx="3.102" ry="3.076"  stroke-width="1.235"/><path d="m-435.1 399.1h-10.56v8.095h10.56z"  stroke-width="1.235"/><ellipse transform="matrix(.6859 .7277 -.7182 .6959 0 0)" cx="-16.93" cy="597.1" rx="3.102" ry="3.076"  stroke-width="1.235"/><g stroke-width="1.235"><path d="m-473.4 336.4h22.71v6.18h-22.71z" /><path d="m-469.7 311.6h14.79v14.66h-14.79z" /><path d="m-444.3 279h7.222v16.34h-7.222z" /><path d="m-545.7 245.6h19.1v55.96h-19.1z" /></g><g stroke-width="1.235"><path d="m-526.5 259.7-9.733 4.788-9.362-4.819" /><path d="m-526.5 288-9.733-4.788-9.362 4.819" /><path d="m-536.3 264.5v18.76" /></g><path d="m-508.3 364.9h22.95v48.59h-22.95z"  stroke-width="1.235"/><path d="m-485.2 369.3-5.246 7.517-12.36 0.0736-5.348-7.616"  stroke-width="1.235"/><path d="m-496.9 376.9v24.33"  stroke-width="1.235"/><path d="m-485.2 408.8-5.246-7.517-12.36-0.0736-5.348 7.616"  stroke-width="1.235"/><path d="m-480.6 322.7-15.2-16.97h-13.96l-35.71 33.11-0.1733 34.62 17.83 16.47-0.0504 13.1 16.37 0.0666-0.1472-41.52 31.05 0.1939z"  stroke-width="1.235"/><path d="m-499.6 422.7h29.34v6.18h-29.34z"  stroke-width="1.235"/><g stroke-width="1.235"><path d="m-450.3 421.2-16.6 0.0851-1.288 16.03" /><path d="m-466.9 421.3-0.0143-7.161-10.94-7.411" /><path d="m-481.2 452.6-5.472-0.0258 0.011 8.187-11.49 9.579 0.695 35.11" /><path d="m-486.6 460.7 4.981 8.423 0.1803 35.99" /></g><path d="m-520.2 518.9h28.2v9.751l-4.288 9.844h-19.63l-4.288-9.882z"  stroke-width="1.764"/><path d="m-488.6 505.6-0.058 6.119-3.398 7.111"  stroke-width="1.764"/><path d="m-520.2 528.6 28.19 0.0376"  stroke-width="1.235"/><path d="m-455.7 426.6 2.013 2.612-18.45 17.07-2.13-2.708"  stroke-width="1.764"/><path d="m-548.9 192.4 7.374 25.07 21.45 7.315 9.647 4.424 0.0126 73.04-38.63 36.38 0.0477 35.08 18.47 17.78-0.1221 20.22 4.314 10.18-0.6006 75.94-14.28 10.07-0.1947 17.51-7.948 7.692"  stroke-width="1.764"/><g stroke-width="1.235"><path d="m-532.8 523.4-8.632 2.049" /><path d="m-475.5 497.7-51.46 0.209" /><path d="m-520.1 224.8 0.1069 86.54" /><path d="m-541.5 217.5-0.1564 19.61-5.66 7.047-9.605-0.1598" /><path d="m-486.7 452.5-39.53 0.0949" /><path d="m-559.8 193.4 1.972 21.59 0.2586 70.47 1.104 15.13-0.5 72.62 10.77 12.38-1.043 120.4-21.79 0.1297" /><path d="m-546.5 417.5-33.5-0.1098" /><path d="m-546.2 385.6-33.81-0.1821" /></g><path d="m-567.7 237.4h4.847v46.34h-4.847z"  stroke-width="1.235"/><path d="m-570 188.9-10.05-0.0791"  stroke-width="1.235"/><path d="m-513.9 461.5h-7.803v8.117h7.803z"  stroke-width="1.235"/><g stroke-width="1.235"><path d="m-553 417.8-2.98 17.3-13.11 34.8 9e-3 71.42" /><path d="m-492.3 225.4 0.1077 11.86-17.93 2.216" /><path d="m-491.7 452.3-3.097-20.78-31.64 0.0727" /><path d="m-550.1 417.4-0.6769 88.81" /><path d="m-478.1 301.6-31.92-16.88" /></g><path d="m-518 272.8 4.776 5.75v-35.55l-4.776 0.7492z"  stroke-width="1.235"/><path d="m-544.4 497.5h14.27v-53.41l-5.103-9.309-9.164 0.0866z"  stroke-width="1.235"/><g stroke-width="1.235"><path d="m-550 436.4-6.692 0.0949" /><path d="m-550.5 454.3-13 0.0949" /><path d="m-550.7 488.5-18.68 0.0949" /><path d="m-550.7 498.1-18.42 0.0949" /></g><g stroke-width="1.235"><path d="m-550.4 509.1h-16.47v5.996h16.47z" /><path d="m-563.7 517.4h-3.039v7.764h3.039z" /><path d="m-558.7 517.4h-3.039v7.764h3.039z" /><path d="m-553.6 517.4h-3.039v7.764h3.039z" /><path d="m-588 391.7h15.93v16.25h-15.93z" /></g><g stroke-width="1.235"><path d="m-591.7 335.2h23.43v22.75h-23.43z" /><path d="m-591.7 303.7h23.43v19.25h-23.43z" /><path d="m-585.2 257h10.43v19.25h-10.43z" /><path d="m-590 213h19.93v20.75h-19.93z" /></g><path d="m-603 421h45.93l-1.875 12.12h-42.18z"  stroke-width="1.235"/><path d="m-588 504.7h15.93v33.5h-15.93z"  stroke-width="1.235"/><path d="m-575.5 189.1 0.1683-11.07"  stroke-width="1.235"/><path d="m-584.5 189.1-0.1683-11.07"  stroke-width="1.235"/><path d="m-590.1 240.7h20.26v42.87h-20.26z"  stroke-width="1.235"/></g><g  ><g fill="none" stroke="#979797" stroke-width="3.587"><path d="m442.9 86.92c21.52 3.996 37.82 22.87 37.82 45.55 0 5.371-0.9139 10.53-2.595 15.33m-7.842 13.97c-8.496 10.4-21.42 17.03-35.89 17.03-14.38 0-27.24-6.555-35.74-16.84m-7.716-13.37c-1.862-5.019-2.88-10.45-2.88-16.12 0-23.05 16.84-42.18 38.89-45.74" /><g><path d="m434.9 71.19v15.85" /><path d="m395.6 155.1-13.68 8.014" /><path d="m474.2 155.1 13.68 8.014" /></g></g><g ></g><g fill="#f39745" ><g stroke-width="1.764"></g></g></g><g   ><g fill="#f39745" stroke-width="1.764"></g><g fill="#ff3ae1" stroke-width="1.554"></g><g fill="#4df346"><g stroke-width="1.661"></g></g><g fill="#f39745" stroke-width="1.235"></g><g fill="#f39745" stroke-width="1.235"></g></g>
  </svg>
</svg>
