<svg xmlns="http://www.w3.org/2000/svg" viewBox="0 0 390 640" preserveAspectRatio="xMidYMid meet">
  <style>
    * { vector-effect: non-scaling-stroke; }
    path, rect, circle, ellipse, polygon, polyline, line {
      fill: none !important;
      stroke: #73f8ff !important;
      stroke-width: 2.25px !important;
      stroke-linecap: round;
      stroke-linejoin: round;
      opacity: 0.92;
    }
  </style>
  <svg x="0" y="0" width="870" height="640" viewBox="0 0 870 640" preserveAspectRatio="xMinYMin meet">

<ellipse transform="matrix(-1 .00607 .009635 1 0 0)" cx="-697.4" cy="243.7" rx="6.199" ry="6.299"  fill="none"    stroke-width="1.235"/><g transform="translate(994.6)"  fill="none"  ><g stroke-width="1.764"><path d="m-380.3 136-13.01 0.0449-22.39 31.55-83.88 241.3 48.01 68.58-0.4277 53.2 29.84 9.836 0.0469 3.693 36.85 12.09 0.0995-2.626c10.06 1.938 21.71 2.633 32.59 2.804 11.04 0.1027 22.06-0.3984 32.75-2.928l-0.0625 2.75 36.85-12.09 0.0469-3.693 29.84-9.836-0.4277-53.2 48.01-68.58-83.88-241.3-22.39-31.55-13.01-0.0449-6.76 28.95-20.97 0.2676-20.97-0.2676z" /><path d="m-519.2 426.3 16.83-1.779 38.72 58.77 0.1371 68.71-56.62-0.1557 0.2116-66.78-20.77-27.82z" /><path d="m-536 463.6-2.471 2.643 0.1011 84.78 18.24 0.8405" /><path d="m-489.6 422.5-9.774 6.278" /><path d="m-451.9 520.7-11.52 0.0275" /></g><path d="m-479.6 458.7 10.71-5.536"  stroke-width="1.235"/><g stroke-width="1.764"><path d="m-385.2 556.9 9e-3 2.834c4.778 6.372 9.134 9.793 13.45 12.92 5.001-6.432 9.769-11.68 19.23-12.95" /><path d="m-520 551.6 0.1097 8.173 45.66-6e-3 -0.031-7.602" /><path d="m-517.6 560 0.0983 15.66 10.77 2.913 17.41-5e-3 12.71-2.921-0.0278-15.07" /></g><path d="m-506.9 552 0.1387 26.53"  stroke-width="1.235"/><path d="m-489.5 552 0.1387 26.53"  stroke-width="1.235"/><path d="m-369 121.1-0.2185 44.02"  stroke-width="1.764"/><g stroke-width="1.235"><path d="m-366.1 134.7-0.2185 30.46" /><path d="m-313.7 335.8h-77.77v75.6h77.77z" /><path d="m-393.3 136-4.564 29.5-4.592 230-32.33 42.73-16.78 39.18" /><path d="m-512.3 551.6-0.0588-96.11 1.823-1.843 13.5-0.1578 16.72 31.03-0.0889 67.18" /></g><path d="m-451 331h33.61v67.66h-33.61z"  stroke-width="1.235"/><path d="m-373.5 183.7h41.73v35.09h-41.73z"  stroke-width="1.235"/><g stroke-width="1.235"><path d="m-373.5 164.9 0.0402 18.76" /><path d="m-373.5 218.8 0.0331 70.71-10.99 25.54" /><path d="m-380.3 136-4.564 29.5 0.4042 149.6-0.1985 16.98" /><path d="m-309.7 331.9h-85.77v83.38h85.77z" /><path d="m-394 180.3h7.112v71.21h-7.112z" /><path d="m-447.3 258.5 10.71-0.4293 3.311-1.269 13.83-41.15-2.192-2.446-10.82 0.3604" /><path d="m-398.8 197-26.67-0.0372" /><path d="m-398.2 182.4-22.86-0.0372" /><path d="m-429.2 441.8 27.21-27.53 0.4689 72.34-27.53-1.229z" /><path d="m-352.6 509.2-19.14-0.0605-11.63-14.89 0.0368-8.229-9.018-0.0779-0.2136-70.47" /><path d="m-451.6 477.4 10.39 11.68 44.6 4.726 23.69 41.12" /></g><path d="m-451.4 526.1 30.11 2.923 29.71 4.746 39.07 1.591"  stroke-width="1.764"/><path d="m-395 496.4-0.2518 28 17.68 2.617"  stroke-width="1.235"/><ellipse transform="matrix(1 .00607 -.009635 1 0 0)" cx="-408" cy="242" rx="6.199" ry="6.299"  stroke-width="1.235"/><ellipse transform="matrix(1 .00607 -.009635 1 0 0)" cx="-411.6" cy="517.5" rx="6.199" ry="6.299"  stroke-width="1.235"/><g stroke-width="1.764"><path d="m-185.9 426.3-16.83-1.779-38.72 58.77-0.1371 68.71 56.62-0.1557-0.2116-66.78 20.77-27.82z" /><path d="m-169.1 463.6 2.471 2.643-0.1011 84.78-18.24 0.8405" /><path d="m-215.5 422.5 9.774 6.278" /><path d="m-253.3 520.7 11.52 0.0275" /></g><path d="m-225.5 458.7-10.71-5.536"  stroke-width="1.235"/><g stroke-width="1.764"><path d="m-319.9 556.9-9e-3 2.834c-4.778 6.372-9.134 9.793-13.45 12.92-5.001-6.432-9.769-11.68-19.23-12.95" /><path d="m-185.1 551.6-0.1097 8.173-45.66-6e-3 0.031-7.602" /><path d="m-187.5 560-0.0983 15.66-10.77 2.913-17.41-5e-3 -12.71-2.921 0.0278-15.07" /></g><g stroke-width="1.235"><path d="m-198.2 552-0.1387 26.53" /><path d="m-215.6 552-0.1387 26.53" /><path d="m-311.8 136 4.564 29.5 4.592 230 32.33 42.73 16.78 39.18" /><path d="m-192.9 551.6 0.0588-96.11-1.823-1.843-13.5-0.1578-16.72 31.03 0.0889 67.18" /><path d="m-331.6 164.9-0.0402 18.76" /><path d="m-331.6 218.8-0.0331 70.71 10.99 25.54" /><path d="m-324.8 136 4.564 29.5-0.4042 149.6 0.1985 16.98" /><path d="m-311.2 180.3h-7.112v71.21h7.112z" /><path d="m-257.8 258.5-10.71-0.4293-3.311-1.269-13.83-41.15 2.192-2.446 10.82 0.3604" /><path d="m-306.3 197 26.67-0.0372" /><path d="m-307 182.4 22.86-0.0372" /><path d="m-275.9 441.8-27.21-27.53-0.4689 72.34 27.53-1.229z" /><path d="m-352.6 509.2 19.14-0.0605 11.63-14.89-0.0368-8.229 9.018-0.0779 0.2136-70.47" /><path d="m-253.6 477.4-10.39 11.68-44.6 4.726-23.69 41.12" /></g><path d="m-253.7 526.1-30.11 2.923-29.71 4.746-39.07 1.591"  stroke-width="1.764"/><path d="m-310.1 496.4 0.2518 28-17.68 2.617"  stroke-width="1.235"/><ellipse transform="matrix(-1 .00607 .009635 1 0 0)" cx="293.5" cy="513.3" rx="6.199" ry="6.299"  stroke-width="1.235"/><path d="m-331.7 289.5h-41.79"  stroke-width="1.235"/><g stroke-width="1.235"><path d="m-375.6 447.3h17.65v21.92h-17.65z" /><path d="m-347.4 447.3h17.65v21.92h-17.65z" /><path d="m-373.5 495.7h41.73v7.867h-41.73z" /><path d="m-507.8 513.9h23.52v21.92h-23.52z" /><path d="m-220.8 513.9h23.52v21.92h-23.52z" /></g><path d="m-393.3 136-31.69 0.4195-14.77 31.2 9.122 12.71-31.84 75.98-37.27 22.77-39.71 84.58 20.7 44.92 6.474 3.012 12.72-2.782"  stroke-width="1.764"/><path d="m-438.6 169.2-54.81 106.1"  stroke-width="1.764"/><g stroke-width="1.235"><path d="m-493.4 392.3-16.09-0.6373-11.37-6.797-12.59-22.44 0.6878-6.212 27.76-59.31 20.39-11.94 26.65 3.288" /><path d="m-449.2 263.5-14.79-0.4023-39.17 23.78" /><path d="m-466.7 259.3-14.64-6.801" /></g><g stroke-width="1.235"><path d="m-454.4 238.1-15.54-7.242" /><path d="m-445.4 215.5-13.89-6.436" /><path d="m-436.9 195.3-11.86-5.446" /></g><g stroke-width="1.235"><path d="m-488.9 377.7-6.78-2.474-0.8734-4.178 14.08-40.6 3.057-1.266 6.571 2.483" /><path d="m-402.4 395.5-83.66 32.04" /><path d="m-434.8 438.2-51.33-10.69" /><path d="m-402 364.2-15.41 0.6488" /><path d="m-450.7 367.1-14.49 0.6099-17.72-5.855" /><path d="m-401.5 332.5-48.4-13.85-17.38-2.63" /></g><path d="m-438.2 270.2 7.627 2.734-6.725 19.9-7.627-2.734z"  stroke-width="1.235"/><g stroke-width="1.235"><path d="m-400.7 287.2-24.05 0.3875-9.711-2.741" /><path d="m-442.5 282.5-11.82-3.631" /><path d="m-401.1 313.5-48.8 5.14" /></g><path d="m-411.1 316.6 8.335-0.7254-0.1984 11.33-7.155-2.184z"  stroke-width="1.235"/><path d="m-254.1 331h-33.61v67.66h33.61z"  stroke-width="1.235"/><g stroke-width="1.235"><path d="m-302.7 395.5 83.66 32.04" /><path d="m-270.3 438.2 51.33-10.69" /><path d="m-303.1 364.2 15.41 0.6488" /><path d="m-254.5 367.1 14.49 0.6099 17.72-5.855" /><path d="m-303.6 332.5 48.4-13.85 17.38-2.63" /></g><path d="m-266.9 270.2-7.627 2.734 6.725 19.9 7.627-2.734z"  stroke-width="1.235"/><path d="m-304.4 287.2 24.05 0.3875 9.711-2.741"  stroke-width="1.235"/><path d="m-294 316.6-8.335-0.7254 0.1984 11.33 7.155-2.184z"  stroke-width="1.235"/><path d="m-311.8 136 31.69 0.4195 14.77 31.2-9.122 12.71 31.84 75.98 37.27 22.77 39.71 84.58-20.7 44.92-6.474 3.012-12.72-2.782"  stroke-width="1.764"/><path d="m-266.5 169.2 54.81 106.1"  stroke-width="1.764"/><g stroke-width="1.235"><path d="m-211.7 392.3 16.09-0.6373 11.37-6.797 12.59-22.44-0.6878-6.212-27.76-59.31-20.39-11.94-26.65 3.288" /><path d="m-255.9 263.5 14.79-0.4023 39.17 23.78" /><path d="m-238.4 259.3 14.64-6.801" /></g><g stroke-width="1.235"><path d="m-250.8 238.1 15.54-7.242" /><path d="m-259.7 215.5 13.89-6.436" /><path d="m-268.3 195.3 11.86-5.446" /></g><path d="m-216.2 377.7 6.78-2.474 0.8734-4.178-14.08-40.6-3.057-1.266-6.571 2.483"  stroke-width="1.235"/><path d="m-241.5 547.5c-34.86 6.153-67.88 10.4-78.38 9.452"  stroke-width="1.764"/><path d="m-463.6 547.5c34.86 6.153 67.88 10.4 78.38 9.452"  stroke-width="1.764"/></g><g transform="translate(1097)"  fill="none"  ><path d="m-892.3 136-13.01 0.0449-22.39 31.55-83.88 241.3 48.01 68.58-0.4277 52.29 30.47 3.072 36.22 0.1191-0.1309-74.11 20.47-66.52 5.213-0.0586-0.0215-5.355 3.469-3.248 3.732-4e-3 3.732 4e-3 3.469 3.248-0.0215 5.355 5.213 0.0586 20.47 66.52-0.1328 74.11 36.22-0.1191 30.47-3.072-0.4277-52.29 48.01-68.58-83.88-241.3-22.39-31.55-13.01-0.0449-6.76 28.95-20.97 0.2676-20.97-0.2676z"  stroke-width="1.764"/><g stroke-width="1.235"><path d="m-897.4 458.8-36.67 37.7 0.5874 36.29" /><path d="m-885.5 164.9 2.416 11.98 3.302 4.02 0.043 6.09-13.42 17.89-5.917-0.0486 0.039-53.02-7.124 1.303-14.43 34.61 2.546 3.51-2.572 8.123-3.805 1.583-50.55 159.6-22.83 9.974" /><path d="m-942.9 210 24.23-2.529 5.022 1.695 4.229 31.09-9.742 11.81 20.56 114-23.05 40.74-0.1726 26.6 14.24 15.12 13.47 0.0807" /><path d="m-909.4 240.2 6.197 36.25-9.411 12.1" /><path d="m-907.5 170.8h15.1v27.46h-15.1z" /></g><g stroke-width="1.764"><path d="m-1031 426.3 16.83-1.779 38.72 58.77-0.0298 45.03-47.78-7.836-8.525-15.52 0.063-19.89-20.77-27.82z" /><path d="m-1048 463.6-2.471 2.643 0.101 84.78 74.23 1.987-0.0119-3.612" /><path d="m-1002 422.5-9.774 6.278" /></g><g stroke-width="1.235"><path d="m-991.6 458.7 10.71-5.536" /><path d="m-1047 449.9 7.264 8.943 14.69-0.8759 15.88-25.18" /><path d="m-1018 521.8-0.2356-28.78 17.19 0.2491 19.56 34.43" /><path d="m-960 416 25.83-0.2791 1.884 3.166-0.04 13.55-18.16 15.27z" /><path d="m-966.4 473.8 7.441-38.52-9.53-25.63 1.69-2.931 45.13 0.1191" /><path d="m-958.9 478.6 36.9-36.06 16.69 18.1-32.59 31.98 0.1208 32.91-2.734 4.509-19.12 0.0678z" /><path d="m-955.9 530 2.855-4.449 0.2624-42.63 36.07-34.3" /><path d="m-958.9 478.6 21 14.02" /><path d="m-948.8 530.3 3.105-4.699 0.3874-38.07 34.45-32.92" /><path d="m-864.5 185.8-7.879-0.1089-5.674 4.013-9.489 15.65-5.81 2.917 0.1423 9.217 1.736 0.8326 13.98 134.9-0.1645 12.49-4.475 8.996 0.01 33.52" /></g><path d="m-897.2 559.7 0.01 2.834c4.778 6.372 9.134 9.793 13.45 12.92 5.001-6.432 9.77-11.68 19.23-12.95"  stroke-width="1.764"/><path d="m-958.2 255.6 22.11 30.07-30.08 81.69 8.22 23.96 56.11-42.46"  stroke-width="1.235"/><path d="m-978.6 361.7 10.32 30.13-37.04 0.4747"  stroke-width="1.235"/><path d="m-917.9 499.9h14.67v15.77h-14.67z"  stroke-width="1.235"/><path d="m-864.5 189.6-7.254 0.1289-2.195 2.889-3.902 1.699-4.588 9.453-4.25 19.74 8.978-2.756 13.21-0.0527 13.21 0.0527 8.978 2.756-4.25-19.74-4.588-9.453-3.902-1.699-2.195-2.889z"  stroke-width="1.235"/><path d="m-874 192.6-0.3663 7.987-3.395 20.15"  stroke-width="1.235"/><ellipse transform="matrix(.8639 .5037 -.5046 .8634 0 0)" cx="-703.2" cy="635.3" rx="5.271" ry="6.299"  stroke-width="1.235"/><ellipse transform="matrix(.8639 .5037 -.5046 .8634 0 0)" cx="-666.5" cy="903.3" rx="5.271" ry="6.299"  stroke-width="1.235"/><path d="m-925.6 372.2 6.25-4.823 4.752 10.72-6.25 4.823z"  stroke-width="1.235"/><path d="m-1001 394.6 9.627-0.144-4.33 14.28-9.627 0.1441z"  stroke-width="1.235"/><path d="m-925.6 211h8.102v11.69h-8.102z"  stroke-width="1.235"/><path d="m-935.7 289.8 7.627 2.734-3.945 11-7.627-2.734z"  stroke-width="1.235"/><path d="m-1032 551.6 0.1098 8.173 45.66-6e-3 -0.031-7.602"  stroke-width="1.764"/><path d="m-1030 560 0.098 15.66 10.77 2.913 17.41-5e-3 12.71-2.921-0.028-15.07"  stroke-width="1.764"/><g stroke-width="1.235"><path d="m-1019 552 0.1387 26.53" /><path d="m-1001 552 0.1387 26.53" /><path d="m-831.7 458.8 36.67 37.7-0.5866 36.29" /><path d="m-843.6 164.9-2.416 11.98-3.302 4.02-0.043 6.09 13.42 17.89 5.917-0.0486-0.039-53.02 7.124 1.303 14.43 34.61-2.546 3.51 2.572 8.123 3.805 1.583 50.55 159.6 22.83 9.974" /><path d="m-786.2 210-24.23-2.529-5.022 1.695-4.229 31.09 9.742 11.81-20.56 114 23.05 40.74 0.1726 26.6-14.24 15.12-13.47 0.0807" /><path d="m-819.6 240.2-6.198 36.25 9.411 12.1" /><path d="m-821.6 170.8h-15.1v27.46h15.1z" /></g><path d="m-727.5 422.5 9.774 6.278"  stroke-width="1.764"/><g stroke-width="1.235"><path d="m-737.5 458.7-10.71-5.536" /><path d="m-682.2 449.9-7.264 8.943-14.69-0.8759-15.88-25.18" /><path d="m-769 416-25.83-0.2791-1.884 3.166 0.04 13.55 18.16 15.27z" /><path d="m-762.7 473.8-7.441-38.52 9.53-25.63-1.69-2.931-45.13 0.1191" /><path d="m-770.2 478.6-36.9-36.06-16.69 18.1 32.59 31.98-0.1207 32.91 2.733 4.509 19.12 0.0678z" /><path d="m-773.2 530-2.855-4.449-0.2624-42.63-36.07-34.3" /><path d="m-770.2 478.6-21 14.02" /><path d="m-780.2 530.3-3.105-4.699-0.3874-38.07-34.45-32.92" /><path d="m-864.5 185.8 7.879-0.1089 5.674 4.013 9.489 15.65 5.81 2.917-0.1423 9.217-1.736 0.8326-13.98 134.9 0.1644 12.49 4.475 8.996-0.01 33.52" /></g><path d="m-831.8 559.7-0.01 2.834c-4.778 6.372-9.134 9.793-13.45 12.92-5.001-6.432-9.77-11.68-19.23-12.95"  stroke-width="1.764"/><path d="m-770.9 255.6-22.11 30.07 30.08 81.69-8.22 23.96-56.11-42.46"  stroke-width="1.235"/><path d="m-750.4 361.7-10.32 30.13 37.04 0.4747"  stroke-width="1.235"/><path d="m-811.1 499.9h-14.67v15.77h14.67z"  stroke-width="1.235"/><path d="m-855.1 192.6 0.3663 7.987 3.395 20.15"  stroke-width="1.235"/><ellipse transform="matrix(-.8639 .5037 .5046 .8634 0 0)" cx="789.6" cy="-235.5" rx="5.271" ry="6.299"  stroke-width="1.235"/><ellipse transform="matrix(-.8639 .5037 .5046 .8634 0 0)" cx="826.3" cy="32.45" rx="5.271" ry="6.299"  stroke-width="1.235"/><path d="m-803.5 372.2-6.25-4.823-4.752 10.72 6.25 4.823z"  stroke-width="1.235"/><path d="m-728 394.6-9.627-0.144 4.33 14.28 9.627 0.1441z"  stroke-width="1.235"/><path d="m-803.5 211h-8.102v11.69h8.102z"  stroke-width="1.235"/><path d="m-793.3 289.8-7.627 2.734 3.945 11 7.627-2.734z"  stroke-width="1.235"/><path d="m-697.1 551.6-0.1097 8.173-45.66-6e-3 0.031-7.602"  stroke-width="1.764"/><path d="m-699.4 560-0.0983 15.66-10.77 2.913-17.41-5e-3 -12.71-2.921 0.0278-15.07"  stroke-width="1.764"/><g stroke-width="1.235"><path d="m-710.2 552-0.1387 26.53" /><path d="m-727.6 552-0.1387 26.53" /><path d="m-851.4 359.9-26.67-0.0372" /><path d="m-851.4 353.2-26.67-0.0372" /><path d="m-864.5 247.8-14.04 0.0368-6.282-1.292-3.246 2.809" /><path d="m-864.5 247.8 14.04 0.0368 6.282-1.292 3.246 2.809" /><path d="m-886.6 245-0.7301-14.53 1.009-3.584 7.21-2.013-5.284 18.46z" /><path d="m-842.5 245 0.7301-14.53-1.009-3.584-7.21-2.013 5.284 18.46z" /></g><path d="m-847.2 168.5h-13.03v6.251h13.03z"  stroke-width="1.235"/><path d="m-849.4 121.1 0.2184 52.95"  stroke-width="1.764"/><path d="m-852.3 174.4 0.2185-39.65"  stroke-width="1.235"/><path d="m-870.4 253.4h11.75l3.343 5.381-1.87 32.87-14.53 0.0341-2.175-33.14z"  stroke-width="1.235"/><path d="m-905.3 136-31.69 0.4195-14.77 31.2 9.122 12.71-31.84 75.98-37.27 22.77-39.71 84.58 20.7 44.92 6.474 3.012 12.72-2.782"  stroke-width="1.764"/><path d="m-950.6 169.2-54.81 106.1"  stroke-width="1.764"/><ellipse transform="matrix(.9399 .3413 -.3449 .9386 0 0)" cx="-841.8" cy="683.2" rx="8.435" ry="10.06"  stroke-width="1.235"/><g stroke-width="1.235"><path d="m-1005 392.3-16.09-0.6373-11.37-6.797-12.59-22.44 0.6878-6.212 27.76-59.31 20.39-11.94 26.65 3.288" /><path d="m-961.1 263.5-14.79-0.4023-39.17 23.78" /><path d="m-978.7 259.3-14.64-6.801" /></g><g stroke-width="1.235"><path d="m-966.3 238.1-15.54-7.242" /><path d="m-957.4 215.5-13.89-6.436" /><path d="m-948.8 195.3-11.86-5.446" /></g><path d="m-823.8 136 31.69 0.4195 14.77 31.2-9.122 12.71 31.84 75.98 37.27 22.77 39.71 84.58-20.7 44.92-6.474 3.012-12.72-2.782"  stroke-width="1.764"/><path d="m-778.5 169.2 54.81 106.1"  stroke-width="1.764"/><ellipse transform="matrix(-.9399 .3413 .3449 .9386 0 0)" cx="781.2" cy="93.02" rx="8.435" ry="10.06"  stroke-width="1.235"/><g stroke-width="1.235"><path d="m-723.7 392.3 16.09-0.6373 11.37-6.797 12.59-22.44-0.6878-6.212-27.76-59.31-20.39-11.94-26.65 3.288" /><path d="m-767.9 263.5 14.79-0.4023 39.17 23.78" /><path d="m-750.3 259.3 14.64-6.801" /></g><g stroke-width="1.235"><path d="m-762.7 238.1 15.54-7.242" /><path d="m-771.7 215.5 13.89-6.436" /><path d="m-780.2 195.3 11.86-5.446" /></g><g stroke-width="1.764"><path d="m-1023 520.5-14.61-16.51-0.2135-9.735-6.478-15.89 0.1311 55.46c43.31 12.88 138.1 28.59 157.3 26.85" /><path d="m-975.6 528.4 11.67 1.352" /><path d="m-697.9 426.3-16.83-1.779-38.72 58.77 0.0298 45.03 47.78-7.836 8.525-15.52-0.063-19.89 20.77-27.82z" /><path d="m-681.1 463.6 2.471 2.643-0.101 84.78-74.23 1.987 0.0119-3.612" /></g><path d="m-711.1 521.8 0.2356-28.78-17.19 0.2491-19.56 34.43"  stroke-width="1.235"/><g stroke-width="1.764"><path d="m-705.7 520.5 14.61-16.51 0.2135-9.735 6.478-15.89-0.1311 55.46c-43.31 12.88-138.1 28.59-157.3 26.85" /><path d="m-765.1 529.7 11.67-1.353" /><path d="m-897.3 532.9 7.205-0.1716 2.839 2.713-0.0407 25.25" /><path d="m-831.8 532.9-7.205-0.1716-2.839 2.713 0.0407 25.25" /></g></g><g  ><g fill="none" stroke="#979797" stroke-width="3.587"><path d="m442.9 86.92c21.52 3.996 37.82 22.87 37.82 45.55 0 5.371-0.9139 10.53-2.595 15.33m-7.842 13.97c-8.496 10.4-21.42 17.03-35.89 17.03-14.38 0-27.24-6.555-35.74-16.84m-7.716-13.37c-1.862-5.019-2.88-10.45-2.88-16.12 0-23.05 16.84-42.18 38.89-45.74" /><g><path d="m434.9 71.19v15.85" /><path d="m395.6 155.1-13.68 8.014" /><path d="m474.2 155.1 13.68 8.014" /></g></g><g fill="#979797" ></g><g ><g></g></g><g fill="#4df346" ></g><g fill="#f39745" ><g stroke-width="1.765"></g><g stroke-width="1.764"></g><g stroke-width="1.235"></g><g stroke-width="1.764"></g></g><g><path d="m732 282.5 11.82-3.631" fill="none"   stroke-width="1.235"/><path d="m690.5 313.5 48.8 5.14" fill="none"   stroke-width="1.235"/></g><g fill="#f39745" ></g></g>
  </svg>
</svg>
