<?xml version="1.0" encoding="utf-8"?>
<!-- Generator: Adobe Illustrator 16.0.0, SVG Export Plug-In . SVG Version: 6.00 Build 0)  -->
<!DOCTYPE svg PUBLIC "-//W3C//DTD SVG 1.1//EN" "http://www.w3.org/Graphics/SVG/1.1/DTD/svg11.dtd">
<svg version="1.1" id="Layer_1" xmlns="http://www.w3.org/2000/svg" xmlns:xlink="http://www.w3.org/1999/xlink" x="0px" y="0px"
	 width="1792.4px" height="1754.85px" viewBox="0 0 1792.4 1754.85" enable-background="new 0 0 1792.4 1754.85"
	 xml:space="preserve">
<g>
	<path fill="#FFFFFF" d="M674.8,1078.6l-0.05-0.05l1.15,0.25l0.449,0.45l1.9,3.2l0.7,1.649l0.5,1.75l0.05,2.15l-0.5,1.8l-1.1,1.8
		l-1.75,1.7l-3.75,2.75l-46.9,29l-23.55,14.4l-23.75,14.05l-19.8,11l-40.101,21.05l-19.85,10.8l-7.75,4.7l-7.3,5.2l-6.9,5.65
		l-6.5,6.1l-6.15,6.5l-5.8,6.85l-5.45,7.2l-5.1,7.55l-12.8,20.2l-13.2,19.9l-11.1,15l-11.351,14.85l-11.1,14.95l-10.351,15.45
		l-12.149,19.899l-11.65,20.25l-11,20.551l-10.2,20.949l-8.85,20.301l-8.05,20.699l-7.25,21l-6.25,21.2l-5.55,22.851L292,1557.3
		l-7.9,46.5l-2.4,17.45l-1.4,17.5l-0.55,17.45l0.2,17.5l0.75,17.5l1.2,17.5l3.2,35.05l0.1,2.5l-0.65,7.7l-0.5,0.55l-0.35,0.1
		l-1.8,0.301l-0.6-0.2l-0.4-0.5l-1.5-3.45l-0.8-2.1l-0.5-2.101l-4.25-25.1l-3.55-25.2l-3.65-34.45l-2.4-34.5l-0.25-17.5l0.6-17.399
		l1.4-17.301l2.1-17.199l2.75-17.15l3.35-17.05l3.85-17l4.3-16.95l5.9-21.7l6.25-21.6l6.65-21.45l7.05-21.3l7.5-21.101l8-20.949
		l8.5-20.75l9.1-20.551l7.4-15.8l7.7-15.649l8.05-15.45l8.45-15.2l8.899-14.95l9.45-14.649l10.05-14.25l10.75-13.851l4.65-5.399
		l14.55-15.25l0.1-0.351l-0.5-2.649l-0.3-0.301h-67.2l-0.699-0.25l-0.4-0.649l-0.2-1.95l0.2-0.75l0.65-0.45l40.35-8.75l32.95-7.899
		l32.8-8.551l32.65-9.05l32.55-9.55l32.45-9.85l64.75-20.2l9.149-3.65l8.8-4.649l8.801-5.101l8.85-4.8l1.2-0.5l2.8-0.85
		L674.8,1078.6 M1146.1,1095.1l0.15-0.05l69.8,21.25l35.2,10.55l35.25,10.301l35.4,9.85l35.5,9.3l35.699,8.65l35.25,7.7l0.351,0.149
		l0.45,0.55l0.1,2.4l-0.25,0.4l-0.8,0.35h-69.05l-0.25,0.35l1.699,4.65l0.45,0.65l11.3,11.05l10.351,11.75l9.5,12.25l8.8,12.75
		l8.25,13.149l7.8,13.4l7.45,13.6l7.3,13.75l14.3,28.601l13.101,29.05l12,29.4l10.95,29.8l9.949,30.149l9.051,30.45l8.199,30.75
		l7.45,31l3.851,18.8l3,18.801l2.149,18.899l1.25,18.95l0.4,18.95l-0.5,19.05l-1.4,19.05l-2.3,19l-1.8,19.05l-1.45,19.051
		l-0.65,2.649l-3.1,6.4l-0.4,0.45l-0.6,0.149l-2.2-0.45l-0.55-0.3l-0.3-0.8l0.25-18.5L1512.1,1683l-2.8-45.7l-1.85-22.75
		l-2.601-22.649l-3.3-22.15l-3.95-22.1l-4.8-21.9l-5.8-21.6l-7.1-21.95l-8.051-21.7l-8.85-21.35l-9.5-21.051l-9.9-19.75
		L1432.9,1378.9L1410.6,1340.6l-3.949-6.25l-4.4-6.05l-4.8-5.75l-5.15-5.5l-6.7-7.5l-6.05-8.149l-5.399-8.4l-5.051-8.6l-9.85-17.4
		l-5.2-8.55l-5.649-8.25l-6.25-8.25l-6.5-7.95l-6.801-7.65l-7.1-7.25l-7.5-6.899l-7.9-6.4l-8.35-5.95l-8.9-5.449l-138.35-78.15
		l-4.2-2.45l-2.899-1.95l-1.95-1.8l-0.601-0.95l-0.449-1.25v-2.05l0.35-1.45l1.25-3.05l2.9-5.6l0.399-0.45L1146.1,1095.1
		 M890.7,274.15l-0.2-0.15l10.05,0.45l9.7,2.05l9.4,3.25l46.899,18.75l23.2,10.05l22.75,10.95l20.65,11.75l19.55,13.3l18.2,14.6
		l17.05,15.85l15.899,17.05l14.851,18.15l13.8,19.1l12.9,20.101l5.5,9.75l8.149,10.75l4.7,8l3.8,8.449l2.95,8.7l2.25,9.05l1.65,9.15
		l1.25,9.25l0.949,9.3l0.95,6.351l1.5,6.3l3.8,12.55l10.7,31.9l2.8,10.649l1.25,8l0.45,7.7l-0.3,7.75l-1,7.75l-1.65,7.45l-2.25,7.6
		l-2.699,7.4L1185,665.6l-4.7,16l-4.95,15.351L1169.45,711l-3.25,9.4l-2.2,9.6l-0.9,12.7l-0.449,2.649l-0.7,2.551l-0.9,2.6
		l-2.3,4.95l-2.5,4.6l-1.75,2.2l-2.2,1.6l-2.55,0.851l-2.75,0.149l-2.65-0.55l-2.6-1.25l-2.3-1.95l-2.05-2.85l-1.75-4.15
		l-3.801-14.899l-0.199-1.5l0.199-2.15l0.45-1.2l1.101-1.75l2.149-2l3.5-2.6l1.601-1.35l2.8-3.051l2.35-3.449L1160,694.1l6.9-13.149
		l6.5-13.351l3.1-7.85l2.3-7.95l1.5-8.1l0.8-8.15l0.15-8.149l-0.4-8.25l-0.899-8.301l-1.3-8.35l-0.75-2.65l-1.101-2.55l-1.5-2.45
		l-7.1-7.55l-4.45-6.05l-3.4-6.15l-2.699-6.55l-2.051-6.899l-1.449-7.051l-0.95-7.199l-1.15-15l-0.6-3.601l-0.45-1.649l-1.25-3.351
		l-0.8-1.55l-1-1.45l-2.55-2.649l-1.601-1.2l-1.8-1.101l-2-0.949l-1.05-0.851l-0.75-1.05l-1.2-2.85l-0.45-1.801l-0.25-3.1l1.7-9.05
		l0.35-7.15l-0.649-6.85l-1.601-6.55l-2.55-6.301l-3.35-6.05l-4.15-5.85l-4.8-5.65l-22.2-24.95l-7.7-8l-6.199-5.85l-6.5-5.55
		l-6.801-5.15l-7.1-4.75l-2.65-1.35l-2.75-0.8l-2.8-0.25l-2.85,0.25l-2.7,0.8l-2.6,1.2l-2.551,1.7l-2.35,2.15l-1.9,2.25l-1.3,2.35
		l-0.85,2.5l-0.351,2.5l0.101,2.55l0.45,2.55l0.8,2.55l1.1,2.6l3.3,6.351l3.65,6.1l4.05,5.7l4.5,5.2l5,4.649l5.7,4.101l6.35,3.399
		l12.551,4.801l5.149,2.8l4.851,3.35l4.449,3.601l1.25,1.3l1,1.45l0.851,1.649l0.7,1.8l0.5,1.851l0.3,1.85v1.7l-0.25,1.3l-0.65,1.45
		l-1,1.4l-1.25,1.35l-1.45,1.25l-1.6,1.1l-1.8,0.95l-1.55,0.55l-1.551,0.351l-3.25,0.2h-9.05l-3,0.399l-2.899,0.851l-2.801,1.449
		l-2.649,2.25l-6.4,7.5l-5.1,8.15l-3.55,8.8l-1.601,9.3l-0.25,11.9l0.5,12.1l0.95,12.101l1,12.05l0.6,2.35l1.101,2.2l1.45,2.15
		l22.149,32l3.101,5.5l2,5.3l1.05,5.45l0.1,5.6l-0.899,5.351l-1.7,5.149l-2.601,5.351l-7.35,11.449l-1.65,3.25l-1.35,3.301
		l-0.95,3.449L1071,681v3.75l0.55,4l1.15,4.7l1.55,4.1l1.9,3.4l2.35,2.8l2.85,2.25l3.4,1.75l1.95,0.7l4.45,1.1l6.5,1.15l3.449,1.149
		l2.851,1.5l2.2,1.9l1.649,2.25l1,2.7l0.4,3.25l-0.3,3.399l-0.851,3.051l-1.25,2.399l-1.8,2.2l-2.55,1.9l-2.75,1.199l-3.15,0.601
		l-3.35,0.05l-15.2-2.4l-10.6-0.05l-9.95,1.55l-9.4,3.051l-8.95,4.399l-8.5,5.65l-8.149,6.75l-7.851,7.7l-9.35,11.199l-7.9,12.051
		l-6.8,12.6l-12,25.9L972.2,839l-7.3,11.75l-11.15,14.2l-1.85,3.3L950.35,872l-1.3,3.95L945.4,888.9l-1.25,3.8l0.25,0.35l6.55,0.05
		l5.649-0.449l3.65,0.05l3.65,0.45l3.6,0.75l3.6,1.1l3.45,1.3l3.4,1.55l11.899,5.9l8.7,3.8l8.8,3.3l8.95,2.801l9.101,2.199
		l9.35,1.601l9.4,0.899l9.55,0.15l7.45-0.6l7.55-1.45l7.35-2.15l7.05-2.75l8.4-4.3l8.25-5l8.15-5.2l8.3-4.899l4.95-2.5l5.1-2.2
		l11-4.05l1.05-0.101l1.75,0.2l1.601,0.5l0.85,0.55l0.35,0.601l0.301,1.25l0.05,1.85l-0.351,1.8l-0.85,1.7l-7.95,9.1l-8.399,8.551
		l-2.45,1.899l-7.5,3.95l-0.101,0.4l3.75,4.899l0.4,0.101l34.45-15.5l0.5-0.101l0.8,0.3l2.95,2.75l2.649,3.7l1.9,4.05l1.2,4.45
		l0.55,4.5l-0.1,5l-0.7,4.9l-1.3,4.899l-2.051,5.4l-2.5,5.2l-2.75,4.649l-3.05,4.301l-3.35,3.949l-3.55,3.601l-3.9,3.45l-4.05,3.1
		l-4.2,2.9l-4.35,2.649l-4.5,2.5l-9.25,4.65L1101,992.4l-5.2,2.6l-4.75,2.95l-4.399,3.25l-4.15,3.55l-4,3.8l-3.85,4l-6.9,7.75
		l0.05,0.101l4.851-1.7l24.55-10.2l24.35-10.5l3.7-1.95l3.5-2.3l3.3-2.65l18-17.1l15.601-13.15l16.25-12.1l16.85-11.1l17.45-10.15
		l18-9.25l18.6-8.35l58.851-22.9l20.05-7.1l20.399-5.601l18.4-3.95l18.5-3.55l18.55-3l18.65-2.25l18.75-1.399l18.8-0.4l18.85,0.75
		l18.801,2.05l9.949,2.15l9.801,3.149l18.75,6.75l0.399,0.65v0.4l-0.2,0.449l-0.35,0.301L1520.7,888.3l-0.101,0.4l2.5,3.5
		l0.95,0.899l15.8,12.801l14.9,13.5L1569,933.6l13.55,14.75l13.05,15.2l12.601,15.601l12.3,15.949l12.05,16.15l20,28.7l18.3,29.45
		l16.601,30.25l14.95,31l13.25,31.699l11.649,32.45l10,33.2l8.4,33.85l11.45,55.4l11.6,60.5l0.6,4.85l0.2,4.801l-0.399,4.699
		l-1.101,4.4l-2.149,4.6l-3.051,4l-3.55,3.2l-0.35,0.2l-0.601,0.05l-0.449-0.2l-0.301-0.399l-2.1-4.55l-0.65-2.101l-10.3-44.7
		l-4.6-22.5l-5.4-39.35l-3.45-16.4l-4.449-16.05l-5.25-15.8l-5.801-15.6l-6.25-15.45l-6.449-15.351l-15.101-35.449l-9.1-19.9
		l-9.601-19.6l-10.3-19.2l-11.05-18.8l-11.9-18.25l-12.899-17.7l-14-17.05l-14.05-15.601l-14.5-15.05l-15-14.5l-15.5-13.95l-16-13.3
		L1517.3,949.1l-17.2-12l-17.8-11.3l-11.1-6l-11.2-4.75l-11.4-3.6l-11.55-2.55l-11.649-1.5l-11.801-0.5l-11.949,0.35l-12.051,1.25
		l-19.6,2.85l-19.45,3.25l-19.35,3.801l-19.2,4.3l-19.1,4.899l-18.95,5.551l-18.8,6.25l-18.601,7l-17.05,7.3l-16.5,8.1l-16,8.851
		l-15.6,9.55l-15.2,10.149l-14.9,10.65l-14.649,11.05l-14.5,11.5l-13.851,10.101l-14.5,9.149l-14.8,8.8l-14.65,9.051l-2.449,1.75
		l-2.301,2.05l-1.85,2.2l-1.3,2.449l-6.5,18.5l-2.75,9.4l-4.4,20.1l-3.1,10l-3.9,9.5l-4.75,9l-5.45,8.4l-6.35,8l-7.25,7.6
		l-7.95,6.95l-1.3,0.851l-1.35,0.6l-1.95,0.2l-0.55-0.101l-0.4-0.3l-0.25-0.399l-0.05-0.45l1.149-7.7l2.4-8.3l0.8-5.45l0.101-5.4
		l-0.45-5.35l-0.9-5.25l-1.2-5.3l-3.35-12.05L986,1120.6l-1.85-2.649L975,1107.85l-9.45-9.85l-2.399-1.9l-2.65-1.25l-2.85-0.649
		l-3.051-0.101l-3.199,0.5l-3.45,1.051l-3.5,1.6l-7.7,4.55l-4.3,1.851l-4.2,1.1l-4.1,0.45l-3.9-0.2l-4.05-0.95l-3.8-1.7l-10.2-7.1
		l-6.55-2.9l-6.601-1.449l-6.649-0.25l-6.551,0.8l-6.6,1.55l-6.55,2.15l-6.55,2.5l-7.15,3.3l-6.85,3.95l-13.5,8.55l-3.351,2.35
		l-2.899,2.5l-2.601,2.8l-2.1,3.051l-1.7,3.3l-1.2,3.55l-0.75,3.8l-0.2,3.95l0.051,5.2l0.199,5.1l0.45,5.05l0.75,5.051l1.15,4.899
		l1.7,4.75l2.35,4.65l4.45,6.45l1.25,2.399l1.05,2.95l-0.4,0.85l-0.699,0.25l-0.551-0.149l-2.35-1.351l-4.1-2.6l-3.95-3l-3.5-3.3
		l-2.9-3.5l-2.45-4.101l-1.85-4.75l-3.7-19.3l-4.05-13.75l-5-13.55l-5.5-13.35l-1.75-3.801l-1.95-3.449l-2.149-3.351l-2.351-3.2
		L773,1083.7l-5.3-6.101l-6-6.149l-6.3-5.05l-6.601-4.051l-6.95-3.149l-7.25-2.351l-7.55-1.649l-7.75-1.05l-12.7-0.9l-4.35-0.8
		l-4.15-1.351l-3.649-1.85l-3.25-2.5l-2.851-3.15l-2.399-3.699l-3.15-7.25l-1.399-2.45l-1.601-2.4l-3.7-4.5l-2.05-2.149l-4.25-3.95
		l-12.3-10.5l-12.6-9.8l-12.851-9.2L618.9,979.1l-13.4-8.05l-13.65-7.45l-13.899-6.949l-14.15-6.4l-14.35-5.9l-14.601-5.399
		l-14.8-4.95l-15-4.55l-15.2-4.101l-15.35-3.699l-15.55-3.301l-26.7-4.899l-21.9-3.7l-10.949-1.4l-11-0.949l-11-0.301l-11.15,0.45
		l-11.1,1.4L348,910.2l-7.1,1.55l-6.9,2l-3.3,1.25l-3.2,1.45l-24.65,13.45L279.45,944.8l-22.2,16.3l-21.1,17.551L216.1,997.4
		l-19.05,19.949l-18.15,21l-17.3,22l-8.7,12.101l-8.15,12.399l-7.7,12.7l-7.25,12.9l-6.9,13.149l-6.6,13.301l-6.35,13.449
		l-6.15,13.551L89,1197.5l-7.1,16.9l-6.7,17.05l-6.25,17.2l-5.7,17.399l-5.05,17.65l-4.25,17.95l-15.7,77l-4.9,21.699l-0.4,0.65
		l-0.7,0.25l-3.1-0.2l-0.6-0.5l-2-17.35l-0.8-8.9l-0.3-8.899l0.5-13.15l1.2-13.05l1.8-12.95l2.35-12.8l2.75-12.8l3.1-12.7l3.35-12.7
		l8.85-31.7l5.5-18.95l5.75-18.85l6.05-18.75l6.5-18.6l7.05-18.45l7.7-18.2l8.4-18l14.2-27.25l15.3-26.5l16.35-25.7l17.35-24.95
		l18.35-24.25l19.35-23.5l20.3-22.85l21.25-22.15l3.7-3.55l11.85-9.899l16.85-13.601v-0.399l-22-13.801L248.8,875l-0.15-0.5
		l0.05-0.4l0.5-0.649l22.05-4.25l11.05-1.75l10.9-0.75l46.8,0.75l68.2,2.6l10.75,0.8l10.55,1.551l10.9,2.449l10.8,3.101l10.649,3.6
		l34.5,13.05l24,9.301l23.801,9.8l23.399,10.649l16.8,8.95l16.25,10l15.9,10.7l15.7,10.95l3.85,2.95l3.65,3.199l3.5,3.351
		L653.35,985l7.051,6.7l18.75,15.45l18.899,15.149l3,2.101l3.101,1.449l3.25,0.9l3.449,0.45l3.551,0.1l3.85-0.149l7.8-0.65
		l0.101-0.3l-20.601-18.5l-2.55-1.95l-5.45-3.6l-2.5-2.2l-44.3-48.45l-4.95-5.25l-5.1-5.05l-5.5-4.851l-2.05-2.05l-1.7-2.45
		l-1.2-2.8l-0.8-3.149l-0.25-3.15l0.149-3.1l0.551-3.301l0.949-3.399l1.301-3.2l1.6-3l2.05-3.05l2.3-2.7l2.601-2.4l2.75-2l3.1-1.699
		l3.3-1.25l0.7-0.051l1,0.301l2.101,1.35l1.55,1.5l0.5,0.75l0.3,1l0.2,3.6l0.8,3.2l1.3,2.95l1.75,2.65l2.101,2.35l2.399,2.1
		l2.55,1.851l2.7,1.75L676.9,923l7.199,3.35l7.45,2.9l7.601,2.4l7.75,2l7.85,1.649l15.9,2.601l2.3,0.05l2.45-0.351l0.899-0.699
		l-0.1-0.4l-19.7-7.4l-9.95-4.05l-9.6-4.75l-4.65-2.95l-4.2-3.3l-3.899-3.75l-3.601-4.1l-3.3-4.351l-3-4.6l-2.75-4.8l-2.2-4.3
		l-0.1-0.601l0.25-0.55l0.95-1.2l0.399-0.3l0.5-0.1L672,885.6l6.3,4.551l3.45,2.649l12.5,11.2l10,7.15l10.85,5.8l11.7,4.1
		l11.25,2.55L749.4,925.4l11.199,0.85l11.15-0.15l11.05-1.35l10.9-2.6l10.85-4.051l16-8.35l5.601-2.15l5.8-1.699l7.8-1.95l1.7-0.65
		l1.3-0.8l1-1l0.7-1.15l0.45-1.35l0.25-1.7l0.05-2l-0.851-8.35l-1.85-8l-2.6-7.8l-3.25-7.851l-4.851-10.35l-5.3-10.05l-5.7-9.75
		l-6.05-9.551l-6.35-9.35l-6.551-9.2L788.1,786.9l-5.85-8.4l-10.6-17.45L766,752.5l-5.4-6.35l-5.85-4.801l-6.45-3.55l-6.75-2.399
		l-7.1-1.4l-7.45-0.55l-7.6,0.149l-7.9,0.7l-9.75,2.05l-4.8,1.301l-4.45,1.449l-4.1,1.65l-3.7,1.85l-3.351,2.051l-3,2.3l-2.75,2.6
		l-2.399,2.8l-2.15,3.15l-1.85,3.45l-1.601,3.75l-1.35,4.05l-1.2,4.5l-0.95,4.9l-0.75,5.3l-1,10.149l-1.05,20.551l-0.7,10.149
		l-0.199,1.15l-0.801,2.1l-1.199,1.95l-1.4,1.4l-0.8,0.5l-2.4,0.949l-2.05,0.5l-2.3,0.25l-2.25-0.1l-2-0.35l-2.05-0.601l-1.9-0.85
		l-1.95-1.2l-1.649-1.3l-1.5-1.5l-1.25-1.7l-0.95-1.7l-0.8-2.149l-0.45-2.15l-0.101-2.1l0.2-2.45l1.5-8.5l1.95-8.45l2.6-8.2
		l5.75-12.85l1.351-5.05l0.45-4.801l-0.4-4.649l-1.15-4.55l-1.75-4.351l-2.35-4.25l-9.35-13.75l-5.5-10.1l-4.5-10.351l-3.7-10.649
		l-3-10.8l-2.5-11L610.1,669.55l-1.85-11.2l-1.8-13.3l-1.2-13.149l-0.6-13.051l0.05-12.899l0.649-12.8l1.25-12.65l1.801-12.55
		l2.399-12.45l2.95-12.3l3.5-12.2l4.05-12.1l4.601-12l5.1-11.851l5.65-11.75l6.149-11.649l8.601-15l7-15l1.85-3.65l1.95-3.45
		l2.35-3.399l8.7-11.5l9.05-11.35l9.45-10.75l10.4-10.05l20.449-17.75l20.9-17.4l21.45-16.6l22.2-15.4l10.85-6.9l11.1-6.65
		l11.301-6.35l11.5-5.95l11.75-5.5l12-5l12.25-4.45l12.399-3.75L890.7,274.15 M1117.2,1054.6l0.1,0.15l0.7,0.25l0.4,0.65l1.149,6.3
		l0.45,3.6l-0.05,3.351l-0.5,3.199l-0.75,3l-1.101,3l-1.35,2.75l-1.65,2.65l-1.899,2.5l-2.351,2.55l-5.35,5.15l-2.55,3l-2.351,3.25
		l-10.6,17.25l0.05,0.399l2.2,1.7h0.4l11.399-8.95l0.351-0.199h0.75l0.55,0.399l0.149,0.3l-0.55,9.601l-1.2,10.95l-1.75,10.649
		l-2.3,10.3l-2.95,10l-3.649,9.7l-4.4,9.4l-5.25,9.1l-3.6,5.15l-3.8,4.55l-4.2,4.25l-4.351,3.75l-4.55,3.25l-4.95,3.05l-5.05,2.65
		l-5.2,2.35l-5.35,2.101l-5.5,1.899l-5.65,1.7l-11.649,3.1l-15.05,3.551l-0.851-0.15l-0.399-0.5l-0.101-0.65l0.25-0.55l12.5-14
		l6.9-7.35l7.05-6.55l6.3-6.15l5.101-6.6l4.05-7l3.149-7.4l2.4-7.7l1.8-7.899l1.45-8.101l1.15-8.25l0.75-7.899l0.05-4l-0.75-9.551
		l0.3-5.149l0.95-5.05l1.6-5l2.05-4.65l2.5-4.5l2.9-4.4l3.1-4.3l7.351-9.149l3.899-4.351l4.101-4.1l4.3-3.851l4.6-3.55l4.801-3.149
		l5.35-2.801l3.55-1.25l3.75-0.75L1117.2,1054.6 M715.7,1076.55v-0.05l4.55,0.05l4.3,0.55l4,1.101l3.65,1.649l3.399,2.2l3.2,2.9
		l2.8,3.35l2.5,3.9l19.301,31.6l5.899,10.7l2.55,6l1.801,6.2l1.1,6.45l1.1,20.3l2.25,13.45l3.5,13.149l4.551,12.9l1.449,3.149
		l4.7,7.95l0.15,0.55l-0.15,0.551l-0.399,0.399l-0.851,0.101l-6.2-1.65l-8.149-2.8l-7.601-3.351l-7-3.8l-6.699-4.45l-6.101-4.85
		l-5.5-5.3l-5.05-5.851l-4.55-6.399l-3.95-6.75l-3.4-7.2l-2.8-7.55l-2.3-8.101l-1.7-8.6l-1.149-9l-0.45-8.15l0.35-0.699l0.351-0.2
		l0.699-0.05l22.25,5.05l0.301-0.25l-0.2-2.55l-1-3.2l-1.7-3.15l-2.25-2.899l-2.75-2.65l-3.25-2.35l-3.6-1.9l-8.551-3.05
		l-15.699-6.4l-1.851-1.05l-1.3-1l-1.1-1.2l-0.9-1.45l-0.5-1.35l-0.2-1.2l0.05-2.95l0.601-3.149l2.75-10.4l1.35-2.55l1.601-1.7
		l1.899-1.25l2-0.75l2.55-0.55L715.7,1076.55 M543.7,976.05l-0.101,0.05l10.5,0.101l10.601,1.7l10.6,2.399l9.8,2l0.4,0.15
		l0.45,0.649l-0.3,2.9l-0.25,0.6l-0.551,0.351l-2.05,0.649l-2.5,0.5l-15.05,1.25l-14.6,2.301l-14.45,3.25l-14.2,4l-14,4.699
		l-13.9,5.2l-13.75,5.55l-13.649,5.801l-2.4,1.149l-2.25,1.45l-2.1,1.65l-4.101,3.85l-5.55,6.3l-1.399,2l-0.75,1.8l-0.15,1.601
		l0.45,1.55l1,1.2l1.399,0.95l2.051,0.85l2.35,0.55l70.9,11.65l1.6,0.649l0.8,0.75l0.3,0.551l-0.05,0.649l-0.35,0.45l-0.55,0.2
		l-10.15,1.149l-11.7,1.101l-12.649,0.95l-38.101,3.5l-12.7,0.85l-12.75,0.4l-12.75-0.2l-12.8-0.95l-14-1.65l-13.95-2l-13.85-2.399
		l-13.7-2.9l-13.55-3.45l-13.4-4.05l-13.199-4.75l-12.9-5.45l-12.3-6.449l-11.9-7.5l-24.5-16.601l-1-1l-0.7-1.05l-0.4-1.5l0.1-1.2
		l0.5-1.2l0.9-1.199l1.25-1.101l23-17.7l2.9-1.85l1.45-0.55l1.65-0.25l1.35,0.1l1.55,0.5l1.65,0.95l5.5,4.5l4.05,2.7l4.35,2.3
		l4.4,1.85l47.15,16.75l47.3,16.051l1.8,0.399l1.851,0.15l2-0.101l4-0.8l2.05-0.649l3.75-1.5l17.3-8.75l17.25-9.051l17.4-8.649
		l17.75-7.5l15.649-5.15l16.15-4l16.35-2.95L543.7,976.05 M1244.5,975.3l0.05,0.05l6.101,0.25l17.8,2.351l17.2,3.649l16.949,4.9
		l16.45,5.9l16.101,6.85l15.8,7.7l15.55,8.399l16.8,9.75l3.351,1.351l3.649,0.85l3.45,0.101l1.65-0.25l14.1-3.75l14.05-3.95l14-4.25
		l13.851-4.65l13.649-5.1l13.351-5.65l13.1-6.35l16.65-9.15l3.35-1.2l1.65-0.3l2.699-0.05l2.601,0.6l2.399,1.101l2.4,1.6l11,8.851
		l9.35,6.8l1.25,1.3l0.75,1.35l0.25,1.7l-0.35,1.351l-0.65,1.1l-1.35,1.5l-1.65,1.35l-10.85,7.7l-11.05,7.2l-11.3,6.65l-11.601,6.05
		l-11.899,5.45l-12.25,4.8l-12.601,4.05l-12.95,3.35L1431,1060l-16.35,2.9l-16.4,2.3l-16.45,1.649l-16.45,0.851l-16.55-0.05
		l-16.6-0.95l-28.351-3.45l-35.8-2.6l-6.149-1.051l-0.551-0.6v-1l0.5-0.6l0.4-0.101l19.3-2.2l20-2.75l18.3-3.6l18.051-4.55l0.8-0.5
		l0.7-0.8l0.699-1.101l1.15-2.6l0.35-1.2v-1.3l-8.649-9.7l-2.351-2.25l-2.399-2l-2.55-1.75l-2.65-1.4l-13.55-5.8l-13.65-5.55
		l-13.75-5.15l-13.899-4.6l-14.101-3.95l-14.3-3.149l-14.6-2.25l-14.851-1.2l-1.3-0.2l-3.75-1.25l-0.5-0.3l-0.25-0.55v-0.4l0.4-0.65
		l4.05-1.55l12.1-3.95l5.9-1.55l5.85-1.2l5.75-0.75L1244.5,975.3 M902.35,880.45l0.101-0.101L897.7,897.9l-4.15,18.55l-0.1,1.35
		l0.5,4.2l0.6,6.85l0.05,3.2l-0.5,3.25l-9.449,30.45l-9.2,30.4l-3.101,11.399l-2.75,11.5l-2.149,11.65l-1.25,11.55l0.3,1.85
		l1.05,2.051l1.601,2l2.1,2.1l4.9,3.9l5,3.399l1,0.45l2.199,0.3l1.25-0.1l2.65-0.65l2.8-1.149l2.601-1.5l2.25-1.75l1.75-1.9
		l0.899-1.8l2.15-9.5l1.1-3.25l1-1.601l1.25-1.3l2.4-2.1l0.75-0.3l0.85,0.35l3.351,3.65l1,1.6l0.6,1.8l0.3,1.9l-0.05,1.95l-1,4.8
		l-0.05,2.399l0.45,1.9l1.05,1.6l1.45,1.101l1.85,0.75l2.25,0.45l2.8,0.199l8.2,1.101l2.4,0.149h4.55l2.2-0.35l2.1-0.7l1.8-1.149
		l1.55-1.7l1.301-2.351l2.3-5.75l0.85-2.85l0.5-2.9l0.101-2.899l-0.45-2.95l-1.05-2.95l-1.801-3.2l-3.85-6.1l-3.4-6.4l-2.699-6.55
		l-1.95-6.75l-1.601-10l-1.649-19.899l-1.05-9.95l-4.601-30l-5.1-29.9l-0.65-2.1l-2.399-4.15l-0.2,0.05l-10,83.551l-0.351,0.699
		l-0.75,0.301l-0.75-0.25l-0.399-0.65l-1.101-6.65l-0.85-13.3l0.1-13.3l1.15-26.6l0.2-13.25L904.1,892.8L902.35,880.45 M837.6,933.3
		l-0.05,0.101L831,934l-6.2,1.4l-5.95,2.05l-5.8,2.5l-17.25,8.45l-5.8,2.449l-1.25,0.9l-1,1.25l-1.9,2.85v0.351l1.2,2.35l0.4,0.15
		l10.45-3l3.449-1.25l13.2-5.65l4.4-1.55l4.55-1.25l4.65-0.75l4.699-0.2l8.25,0.9l1.551-0.05l1.399-0.301l1.2-0.649l1-1.15l0.6-1.55
		l0.2-2.05l-0.2-2.15l-0.6-1.75l-0.9-1.2l-1.149-0.8l-1.351-0.5l-1.649-0.35L837.6,933.3 M1734.2,316.05v0.15l0.5,0.1l0.399,0.35
		l3,4.3l1.65,2.55l1.35,2.65l11.75,30.7l13.9,33.75l7.8,23.85l6.25,24.149l4.75,24.4l3.4,24.6l2.149,24.801l1.051,25l0.05,25.149
		l-0.95,20.25l-1.85,20.25l-2.2,20.25l-1.95,20.3l-3.7,31.45l-5.6,31l-7.101,30.7l-8.199,30.5l-3.95,12.3l-4.95,11.95l-6.1,11.45
		l-17.601,25.8l-18.95,30.75l-10.25,14.75l-13.1,16.35l-13.7,15.9l-28,31.4l-2.399,2.399l-2.75,2.4l-2.801,2.1l-4.699,3.15
		l-1.9,0.85l-1.85,0.5l-2.101,0.05l-1.85-0.35l-1.65-0.7l-2-1.35l-14.35-13.65l-12.7-11.55l-0.3-0.4l-0.101-0.449l0.101-0.45
		l0.3-0.351l13.9-11l13.85-12.199l12.95-12.7l12.149-13.2l11.351-13.7l10.6-14.149l9.9-14.65l9.3-15.1l13.5-24.851l12-25.55
		l10.95-26.05l10.35-26.351l6.3-17.149l5.65-17.25l5-17.4l4.3-17.5l3.601-17.649l2.899-17.801l2.2-17.949l1.45-18.101l1-27.6
		l-0.45-27.55l-2.25-27.5l-4.3-27.301l-25.101-122.8l-0.85-4.95l-1.55-14.55l0.35-0.6l0.3-0.2L1734.2,316.05 M65.85,321.5
		l-0.25,0.05l0.5,0.1l1.35,0.75l0.3,0.65l-0.05,0.5L46,385.1l-4.7,14.5l-4.25,14.55l-3.8,14.7l-3.2,14.801L27.5,458.6l-1.8,15.051
		l-1,15.25l-0.65,21.55L23.75,532l0.2,21.5l0.95,21.45l1.85,21.35l2.95,21.2l4.2,21.05l5.7,20.851l8.7,27.199l9.25,26.95l4.9,13.351
		l5.15,13.25L73,753.3l5.7,12.95l6,12.85l6.4,12.65l6.8,12.45l7.2,12.25l7.65,12l8.15,11.75l8.65,11.5l9.2,11.25l13.4,14.85
		l14.1,14.45l28.8,28.95v0.85l-0.25,0.351l-11.75,12.149l-6.9,6.8l-7.15,6.5l-1.35,0.65l-1.3,0.2l-1.7-0.05l-3.6-0.75l-1.9-0.7
		l-1.6-0.851l-1.15-0.8l-20.55-18.75l-9.7-9.8l-8.8-10.5l-15.6-21.45l-15.1-21.899L55.8,817.55l-1.2-1.399l-8.85-8.801l-7.2-9.3
		l-6-10.05l-4.8-10.65l-3.75-11L21.1,755l-2.25-11.6l-1.7-11.75L7.3,655.1l-4.05-38.35l-2.6-38.4l-0.7-21.25l-0.15-21.25l0.5-21.25
		L1.6,493.4l2.2-21.15l3.25-21.05l4.4-20.9l5.65-20.7l3.95-11.65l4.55-11.4l5.1-11.1l5.6-10.85l6.05-10.6l6.5-10.4l6.85-10.2
		l7.1-9.9l1.45-1.25l1-0.6L65.85,321.5 M966.45,915.45h-0.2l-1.7,0.05l-3.399,0.6l-3.25,1.2l-2.75,1.7l-1.25,1.05l-1.601,2
		l0.101,0.4L959.6,927l7.851,3.95l8.1,3.05l8.4,2.3l8.6,1.601l8.851,0.949l9.199,0.45l8.9-0.05l0.15-0.3l-1.851-2.8l-2.35-1.101
		l-2.2-0.6l-10.1-1.9l-4.9-1.25l-4.75-1.55l-4.55-1.9l-4.601-2.449l-4.199-2.851l-5.551-4.6l-1.449-0.9l-3.25-1.2l-1.7-0.3
		L966.45,915.45 M1359.3,0.15l-0.2-0.1l0.5,0.1l0.4,0.35l14.95,21.4l7.45,11.25l6.6,11.65l11.9,24.15L1412.1,93.4l10.5,24.7
		l9.801,25l9,25.3l8.149,25.6l7.3,25.9l6.4,26.2l5.95,28.1l5.2,28.2l4.399,28.3l3.5,28.4l2.601,28.45l1.649,28.6l0.65,28.7
		l-0.45,28.75l0.5,6.25l0.3,0.15l7.25-6.25l6.45-7.2l5.2-7.85l3.899-8.65l4.601-12.399l4.899-12.15l5.25-12l5.7-11.75l6.15-11.5
		l6.7-11.25l7.3-10.9l7.899-10.5l1.601-1.6l1.149-0.7l0.551-0.15l0.649,0.2l0.4,0.5l0.05,0.65l-2.35,12.8l-2.9,14.25l-27.65,116.55
		l-1.149,3.95l-1.55,3.75l-1.9,3.45l-2.2,3.25l-2.55,3.15l-2.8,2.949l-3,2.801l-26.8,22.449l-23,20.45l-22.551,21.05l-22.1,21.5
		l-14.8,15.601L1392.1,640.8l-13.149,16.851L1340.9,709.3L1327.8,726.15l-13.7,16.25l-3.649,4.55l-9.75,14.649l-25.351,35.7
		l-25.649,35.55l-16.05,21.2l-16.551,20.8l-2.699,2.95l-3,2.8l-5.65,4.95l-0.75,0.3l-1.7-0.649l-0.45-0.351l-0.199-0.55l-0.5-5.85
		v-3.15l0.3-1.45l3.05-6.5l2-5.449l1.55-5.551l1.2-5.699l2.85-17.25l1.101-5.7l4-16.55l4.95-16.101l5.8-15.7l6.649-15.3l7.351-15
		l8.05-14.7l8.65-14.5l9.25-14.3l10.149-14.1l10.851-13.2l11.55-12.45L1313.6,654l12.65-11.25L1339.4,632l13.55-10.35l13.8-10
		l8.3-6.351l7.851-6.8l7.35-7.3l6.95-7.7l6.55-8.05l6.15-8.351l5.8-8.6l5.5-8.85l3.35-7.2l2.25-7.75l6.8-33.65l3.15-17.5l2.75-17.55
		l2.2-17.6l1.7-17.65l1.05-17.7l0.35-17.75l-0.399-17.8L1443.1,349l-1.5-28.45l-2.05-28.4l-2.899-28.3l-2.351-17.75l-2.75-17.65
		l-3.2-17.6l-3.699-17.5l-4.2-17.35l-4.75-17.2l-5.351-17.05l-5.949-16.95l-23-59.7L1358.05,5.6l-0.6-2.2l-0.25-1.75l0.3-0.6
		l0.3-0.2L1359.3,0.15 M431.45,0.6l-0.15-0.05l2.2,0.9l0.35,0.75l-0.1,0.45l-24.5,62.25l-20.9,54.4l-11.3,33.5l-9.149,34.05
		l-7.15,34.5l-5.3,34.9l-3.101,27.85L350,312l-1.85,28l-1.551,28l-0.55,14.9l-0.05,15l0.6,14.95l1.25,14.9l3,23.35l7.2,46.65
		l3.3,23.25l2.101,10.95l3.35,10.1l4.4,9.45l5.3,8.9l6.05,8.399l6.65,8.15l7.05,7.899l12.4,13.301l14.55,17.199L428.1,621
		l5.051,5.45l5.3,5.149l5.649,4.75l12,9.551l11.75,9.699l11.5,9.95l11.2,10.25l10.9,10.55l10.6,10.851l10.2,11.2l9.85,11.6
		l8.2,10.05l8.15,10.15l7.95,10.3l7.55,10.55l7.05,10.9l6.3,11.25l5.45,11.75l4.5,12.35l3.8,15.05l2.75,15.351l4.5,30.95l0.05,1
		l-0.3,1.75l-1.6,5.05l-0.15,0.3l-0.55,0.4H595l-0.35-0.2l-6.601-5.9l-3.2-3.05l-2.85-3.3l-39.25-53.8l-27.45-36.25l-27.75-37.301
		l-14-18.55l-14.3-18.3l-14.75-17.95l-15.35-17.45L413,648.25l-29.85-29.75l-15-14.75L353,589.15L337.65,574.8L322,560.75l-16-13.65
		l-16.45-13.149l-6.65-4.65l-3.2-2.45l-2.7-2.75l-7-8.3l-4.4-5.8l-1.8-2.9l-1.55-3.05l-1.15-3.2l-4.8-18.449l-4.1-18.5l-3.45-18.601
		l-2.95-18.7l-2.5-18.75l-2.15-18.8l-3.6-37.65l0.05-2.35l0.25-1.85l0.45-0.5l0.3-0.15l1.85-0.4l0.65,0.2l0.4,0.55l11.75,33.45
		l14.65,42.6l3.05,8.2l3.3,8.05l3.7,7.85l4.1,7.601l4.65,7.35l5.3,7l5.95,6.6l1.149,1.051l4.801,3.649l0.399-0.35l-0.55-31.3
		l0.6-32.05l1.7-31.8l2.851-31.55l4.05-31.3l5.2-31.1l6.35-30.9l7.55-30.65l8.351-30.25L344.85,184l4.65-15l4.9-14.85l5.149-14.8
		L365,124.7l5.75-14.5l6.05-14.4l6.45-14.2l6.85-14.05l7.25-13.85l7.7-13.65l8.15-13.45l8.649-13.25l8.7-12.3l0.4-0.35L431.45,0.6
		 M651.9,839.15L651.85,839l3.101,0.3l2.85,0.75l2.5,1.101l2.15,1.5l1.7,1.8l1.25,2.1l0.75,2.351l0.199,2.55l-0.399,2.5l-0.851,2.25
		l-1.35,2.05L662,860l-2.1,1.4l-2.4,1.05l-2.65,0.649l-2.949,0.2l-3.351-0.35l-2.85-0.8l-2.8-1.351l-2.45-1.7l-2-2.05l-1.5-2.25
		l-0.95-2.45l-0.3-2.6l0.35-2.35l0.9-2.15l1.45-1.85l1.899-1.551l2.55-1.3l2.7-0.85l3.101-0.5L651.9,839.15 M1122.9,765.7l0.1,0.05
		l4.25,1.9l1.3,0.899l38.4,33.7l3.899,3.6l3.2,3.551l2.4,3.55l1.649,3.55l0.851,3.65v4.05l-0.8,4l-1.551,4.149l-0.899,1.75
		l-2.45,3.5l-3,3.051l-1.55,1.149l-1.7,1l-8.6,3.05l-3.051,1.45l-2.8,1.75l-2.45,2.101l-2.1,2.5l-1.65,2.949l-1.25,3.5l-0.399,0.75
		l-0.95,0.9l-1.85,0.75l-0.9-0.05l-0.55-0.7l-0.851-3.35l-0.699-4.301l0.199-3.25l0.851-3.1l2.6-8.05l1.601-7.9l0.5-7.75l-0.551-7.6
		l-1.649-7.4l-2.75-7.3l-3.8-7.15l-6.4-9.25l-1.35-2.399l-1.25-2.7l-5-13l0.05-0.95l0.55-0.5L1122.9,765.7 M840.9,795.3l0.1-0.05
		l-0.25,0.15l0.15,1.149l0.25,0.55l4.3,5.75l3.75,6.101l3.05,6.1l2.6,6.5l2.051,6.65l1.6,6.75l1.2,6.95l1.1,9.35l0.55,2.35
		l0.851,2.101l1.35,1.7l2.101,1.3l2.55,0.95l5,1.5l0.35-0.25l0.75-4.5l0.25-2.5l-0.3-2.301l-0.9-2.6l-4.649-10.4l-1-2.6l-0.75-2.75
		l-1.3-8.8l-2-5.55l-2.75-4.75l-3.5-4.351l-3.9-3.899l-4.3-3.75L840.9,795.3 M782,820.15V820.1l1.85,0.101l3.45,0.8l3.15,1.4l3,2
		l2.5,2.5l2,2.85l1.399,3.2l0.5,1.7l0.301,1.699l0.149,1.801l-0.1,1.75l-0.65,3.55l-1.3,3.3l-1.8,2.95l-2.351,2.6l-2.55,1.9
		l-3.1,1.399l-3.101,0.65l-1.699,0.05l-1.801-0.2l-3.25-0.949l-3.199-1.65l-3-2.3l-2.65-2.8l-2.15-3.15l-1.55-3.25l-0.899-3.6
		l-0.101-1.75l0.3-3.15l0.9-3.1l1.65-3.051l1.949-2.3l2.7-2.2l2.9-1.5l3.2-0.899L782,820.15 M959.25,798.95l-0.05-0.05l-4.05,2.35
		l-0.75,0.8l-11.7,20.2l-11.3,20.45l-0.25,0.899v0.95l0.55,2.5l0.899,2.15l0.7,0.85l2.7,0.101l2.8-0.301l2.4-0.75l1-0.6l0.649-0.7
		l3.45-5.25l3.15-5.55l2.8-5.8l2.35-5.95l1.95-6.25l1.5-6.5l1-6.8l0.5-6.55L959.25,798.95 M702.7,422.15l-0.05-0.101h-0.4l-5.6,5.15
		l-2.851,2.85l-2.5,3.05L675.9,455.95l-15.101,23l-5.2,9.149l-3.55,9l-1.95,9l-0.25,8.9l1.351,8.85l3.05,8.65l4.7,8.55l8.3,10.851
		l1.6,2.449l1.15,2.45l0.7,2.5l0.25,2.8l-0.3,2.65l-0.851,2.85l-3.6,7.9l-1.4,5l-0.55,4.9l0.2,4.85l0.899,4.8l1.551,4.8l2.149,4.75
		l5.851,10.15l2.699,5.5l5.15,11.25l2.95,7.05l5.6,8.45l3.101,6.05l1.85,6.05l0.5,5.5l-0.7,5.65l-2.1,5.85l-3.3,5.7l-4.601,5.9
		l-5.399,5.35l-5.45,4l-5.75,2.8l-6.15,1.5l-6.05,0.101l-6.1-1.2l-6-2.5l-5.7-3.6l-0.3,0.149l0.699,5.9l0.65,2.85l0.8,2.55
		l0.95,2.15l1.15,1.9l1.3,1.5l1.45,1.199l1.699,0.95l1.851,0.601l2,0.3h2.149l2.351-0.3l2.5-0.601l2.75-0.95l7.85-3.35l2.45-0.8
		l2.5-0.45l2.4-0.1l2.75,0.35l2.649,0.85l3.7,1.851l1.35,0.25h1.4l3.1-0.4l4.601-1.25l2.649-1.2l5.351-3.3l2.6-1.05l2.851-0.85
		l2.5-0.95l2.3-1.15l2.149-1.3l1.9-1.45l1.65-1.6l1.449-1.65l1.25-1.85L723.9,691l0.85-2.05l0.7-2.15l0.5-2.25l0.3-2.3l0.1-4.8
		l-2-17.4l-2.25-14.8l-3.25-14.6L708.8,601.1l-3.85-15.75l-3.2-15.8l-3.4-15.8l-3.05-11.15l-3.8-11.05l-4.55-10.75l-7-13.45l-1.25-3
		l-0.8-2.899l-0.4-2.8l0.05-3.051l0.5-2.899l0.851-3l7.6-18.851l17.8-47.149l-0.1-0.4L702.7,422.15"/>
</g>
</svg>
