<?xml version="1.0" encoding="utf-8"?>
<!-- Generator: Adobe Illustrator 16.0.0, SVG Export Plug-In . SVG Version: 6.00 Build 0)  -->
<!DOCTYPE svg PUBLIC "-//W3C//DTD SVG 1.1//EN" "http://www.w3.org/Graphics/SVG/1.1/DTD/svg11.dtd">
<svg version="1.1" id="Layer_1" xmlns="http://www.w3.org/2000/svg" xmlns:xlink="http://www.w3.org/1999/xlink" x="0px" y="0px"
	 width="641.929px" height="651.648px" viewBox="183.952 24.661 641.929 651.648"
	 enable-background="new 183.952 24.661 641.929 651.648" xml:space="preserve">
<g id="Layer_4" display="none">
	<rect display="inline" width="960" height="960"/>
</g>
<g id="Denton_Patreus_logo">
	<g id="Layer_7">
		<polygon fill="#9E9E9E" points="508.89,587.991 723.76,359.541 785,455.081 709.753,519.724 683.069,491.218 509,676.31
			334.751,491.234 308.067,519.766 232.82,455.17 294.06,359.54 		"/>
		<polyline fill="#9E9E9E" points="509,145.991 659.641,390.451 709.525,337.312 509,24.661 308.43,337.312 358.27,390.451
			509,145.991 		"/>
	</g>
	<g id="Empire_bird">
		<path fill="#FFFFFF" d="M508.906,547.849l54.399-117.031c0,0,261.155-255.74,262.575-257.159
			c-1.357,0.358-110.467,24.828-110.467,24.828L505.963,348.105c0,0-320.991-154.542-322.011-155.093
			c0.853,0.854,276.209,237.619,276.209,237.619L508.906,547.849z"/>
		<g id="Layer_6">
			<path fill="#FFFFFF" d="M472.064,318.27l23.541,11.244c0,0,56.369-37.248,58.916-39.002c3.397-2.343,2.956-4.866,2.956-9.2
				c0-1.317,1.025-61.32-23.16-61.32h-24.144c-14.363,0-37.158,7.823-37.158,27.002c0.938,1.757,4.128-2.398,10.762-2.398
				c4.832,0,13.641,1.242,15.637,3.237c1.993,1.995-0.485,9.113-1.845,12.482C495.843,264.593,474.963,315.371,472.064,318.27z"/>
		</g>
	</g>
</g>
</svg>
