<?xml version="1.0" encoding="utf-8"?>
<!-- Generator: Adobe Illustrator 16.0.0, SVG Export Plug-In . SVG Version: 6.00 Build 0)  -->
<!DOCTYPE svg PUBLIC "-//W3C//DTD SVG 1.1//EN" "http://www.w3.org/Graphics/SVG/1.1/DTD/svg11.dtd">
<svg version="1.1" id="Layer_1" xmlns="http://www.w3.org/2000/svg" xmlns:xlink="http://www.w3.org/1999/xlink" x="0px" y="0px"
	 width="884px" height="856px" viewBox="38 61 884 856" enable-background="new 38 61 884 856" xml:space="preserve">
<g id="Layer_4" display="none">
	<rect display="inline" width="960" height="960"/>
</g>
<g id="Pranav_Antal">
	<g id="Stripes_and_Vipers">
		<path fill="#FFFFFF" d="M155.72,917H38c103.66,0,350.67-259,350.67-587.67c2.74,1.89,19.73,11.88,35.62,19.65
			C421.68,668.86,261.83,882.25,155.72,917z"/>
		<path fill="#FFFFFF" d="M470,360c0,43-6.08,518.75-44.33,557H225.61c97.72-34.479,212.91-244.7,216.63-560.28
			c2.64,0.9,4.939,1.51,6.76,1.72C454.97,358.98,462.05,359.92,470,360z"/>
		<path fill="#FFFFFF" d="M38,869.5c35.5,0,187.61-151,187.61-311.5H199c0,59-54,210.667-161,210.667V869.5z"/>
		<path fill="#FFFFFF" d="M237.67,409c-1.1-3.94-6.81-1.87-11.34-1.18c-3.32,0.5,0.34,1.18-12.33,1.18s-9.01-0.68-12.33-1.18
			c-4.53-0.69-10.24-2.76-11.34,1.18c-15.58,56-36.32,82.7-39.33,93c0,0,0,15.5,0,44h33v-46h4v46h52v-46h4v46h33c0-28.5,0-44,0-44
			C273.99,491.7,253.25,465,237.67,409z M199,432c0,0,1.25-8.39,1.25-10.72s2.5-6.28,5-6.28s8.75,0,8.75,0s6.25,0,8.75,0
			s5,3.95,5,6.28S229,432,229,432H199z"/>
	</g>
	<g id="Stripes_and_Vipers_Right">
		<path fill="#FFFFFF" d="M804.279,917H922c-103.66,0-350.67-259-350.67-587.67c-2.74,1.89-19.73,11.88-35.62,19.65
			C538.32,668.86,698.17,882.25,804.279,917z"/>
		<path fill="#FFFFFF" d="M490,360c0,43,6.08,518.75,44.33,557h200.061C636.67,882.521,521.48,672.3,517.76,356.72
			c-2.64,0.9-4.938,1.51-6.76,1.72C505.029,358.98,497.95,359.92,490,360z"/>
		<path fill="#FFFFFF" d="M922,869.5c-35.5,0-187.609-151-187.609-311.5H761c0,59,54,210.667,161,210.667V869.5z"/>
		<path fill="#FFFFFF" d="M683,502c0,0,0,15.5,0,44h33v-46h4v46h52v-46h4v46h33c0-28.5,0-44,0-44c-3.01-10.3-23.75-37-39.33-93
			c-1.1-3.94-6.811-1.87-11.34-1.18c-3.32,0.5,0.34,1.18-12.33,1.18s-9.01-0.68-12.33-1.18c-4.529-0.69-10.24-2.76-11.34,1.18
			C706.75,465,686.01,491.7,683,502z M731,432c0,0,1.25-8.39,1.25-10.72s2.5-6.28,5-6.28s8.75,0,8.75,0s6.25,0,8.75,0s5,3.95,5,6.28
			S761,432,761,432H731z"/>
	</g>
	<g id="Eagle">
		<path fill="#FFFFFF" d="M430.17,240c0,54.75,17.18,78.31,31.6,97.78c-4.489-0.38-8.77-0.82-11.439-1.28
			C430.25,333,363.5,294,348,277.75V201c11.63,4.49,44.6,18.53,62.01,20.91C410.01,221.91,430.17,232.17,430.17,240z"/>
		<path fill="#FFFFFF" d="M529.83,240c0,54.75-17.18,78.31-31.6,97.78c4.489-0.38,8.77-0.82,11.438-1.28
			C529.75,333,596.5,294,612,277.75V201c-11.63,4.49-44.6,18.53-62.01,20.91C549.99,221.91,529.83,232.17,529.83,240z"/>
		<path fill="#FFFFFF" d="M508.33,166.67C508.33,122,480,61,480,61s-28.33,61-28.33,105.67c0,22.7-9.39,37.61-20.05,46.7
			c5.34,6.72,12.71,17.91,12.71,28.63c0,31.5,8.17,78.82,30.88,96.72C478.1,338.9,480,339,480,339s1.9-0.1,4.79-0.28
			c22.71-17.9,30.88-65.22,30.88-96.72c0-10.72,7.37-21.91,12.71-28.63C517.72,204.28,508.33,189.37,508.33,166.67z M480,283.67
			c-9.39,0-17-24.03-17-53.67s7.61-53.67,17-53.67s17,24.03,17,53.67S489.39,283.67,480,283.67z"/>
		<polygon fill="#FFFFFF" points="359,185.25 348,181 348,124 359,128.25 		"/>
		<polygon fill="#FFFFFF" points="601,185.25 612,181 612,124 601,128.25 		"/>
	</g>
</g>
</svg>
