<?xml version="1.0" encoding="utf-8"?>
<!-- Generator: Adobe Illustrator 16.0.0, SVG Export Plug-In . SVG Version: 6.00 Build 0)  -->
<!DOCTYPE svg PUBLIC "-//W3C//DTD SVG 1.1//EN" "http://www.w3.org/Graphics/SVG/1.1/DTD/svg11.dtd">
<svg version="1.1" id="Layer_1" xmlns="http://www.w3.org/2000/svg" xmlns:xlink="http://www.w3.org/1999/xlink" x="0px" y="0px"
	 width="767.188px" height="689.021px" viewBox="104.24 117 767.188 689.021" enable-background="new 104.24 117 767.188 689.021"
	 xml:space="preserve">
<g id="Layer_4" display="none">
	<rect display="inline" width="960" height="960"/>
</g>
<g id="Lavigny-Duval_logo">
	<g id="Wreath">
		<path fill="#FFFFFF" d="M168,496.52c0.02,0.23,0.03,0.46,0.05,0.69c1.01,14.42,2.98,28.61,7.46,42.46
			c0.021,0.05,0.03,0.1,0.05,0.15c0.36-4.99,1.16-10.53,2.32-16.07c4.91-23.55,16.62-41.03,16.62-41.03s17.89,19.25,11.93,47.82
			c-3.79,18.12-13.66,28.02-20.97,32.99c6.51,13.14,14.7,25.91,24.33,38.18c-0.42-2.479-0.78-5.04-1.06-7.66
			c-2.65-25.06,3.44-46.25,3.44-46.25s24,13.47,27.21,43.88c1.68,15.91-2.54,27.512-7.27,35.182c8.74,8.79,18.2,17.26,28.25,25.358
			c-0.38-0.93-0.76-1.87-1.12-2.83c-9.4-24.81-8.88-48.01-8.88-48.01s28.05,7.29,39.46,37.39c5.72,15.11,4.86,27.61,2.34,36.62
			c8.95,5.762,17.8,11.57,27.05,16.512l-0.64-1.28c-15.17-24.19-19.521-48.76-19.521-48.76s31.141,1.77,49.54,31.119
			c9.48,15.131,11.07,28.729,10.16,38.859c12.93,6.04,27.04,12.16,40.76,16.16c-3.52-3-7.08-6-10.569-9.48
			C368.75,698.32,359,675.5,359,675.5s30.75-5.25,55.25,19.25c16.51,16.51,19.29,33.66,19.11,44.05c5.55,1.51,11.1,2.91,16.64,4.2
			c35.83,9.17,69.83,47.34,75,56.01c-0.67,3.83-8.17,7.182-15,7.011c-0.33-10.329-23.33-41.489-75-55.989
			c-3.76-0.87-7.52-1.761-11.28-2.75c-6.88,7.52-19.46,16.87-40.54,19.35c-34.41,4.05-55.1-17.46-55.1-17.46
			s21.97-11.41,50.34-14.75c1.2-0.14,2.4-0.14,3.58-0.25c0.07-0.01,0.15-0.01,0.22-0.02c-0.069-0.03-0.149-0.052-0.22-0.08
			c-10.19-3.771-20.28-7.92-30.21-12.4l-0.01-0.01c-6.54,6.13-22.5,17.34-49.53,14.398c-34.45-3.75-49.8-29.329-49.8-29.329
			s23.96-6.199,52.35-3.109c5.62,0.609,10.98,1.54,15.98,2.63c-12.95-7.05-25.51-14.68-37.51-22.83
			c-6.81,4.35-23.58,12.13-48.19,4.36c-30.69-9.7-40.01-35.812-40.01-35.812s22.96-1.27,48.26,6.721
			c4.62,1.461,9.01,3.131,13.08,4.891c-12.59-10.16-24.32-20.9-34.95-32.12c-7.85,2.271-24.47,4.479-44.2-7.97
			c-25.85-16.33-28.11-42.562-28.11-42.562s21.4,4.37,42.71,17.82c1.83,1.15,3.6,2.34,5.3,3.53c-9.18-12.69-16.93-25.83-23-39.3
			c-8.47-0.932-20.13-4.592-31.83-15.882c-20.99-20.278-18.01-45.229-18.01-45.229s19.34,8.24,36.65,24.95
			c0.62,0.6,1.03,1.198,2.03,1.81c-1.95-8.04-3.144-16.179-3.594-24.349c-6.14-7.65-15.546-22.071-17.306-37.691
			c-2.7-23.899,12.93-43.17,12.93-43.17s10.35,8.9,13.83,39.83C170.33,476.51,169.27,488.6,168,496.52z"/>
		<path fill="#FFFFFF" d="M794.174,496.52c-0.02,0.23-0.029,0.46-0.05,0.69c-1.011,14.42-2.979,28.61-7.46,42.46
			c-0.021,0.05-0.03,0.1-0.051,0.15c-0.359-4.99-1.16-10.53-2.319-16.07c-4.91-23.55-16.62-41.03-16.62-41.03
			s-17.891,19.25-11.93,47.82c3.789,18.12,13.66,28.02,20.97,32.99c-6.511,13.14-14.7,25.91-24.33,38.18
			c0.42-2.479,0.78-5.04,1.061-7.66c2.649-25.06-3.439-46.25-3.439-46.25s-24,13.47-27.21,43.88
			c-1.681,15.91,2.54,27.512,7.271,35.182c-8.74,8.79-18.201,17.26-28.25,25.358c0.379-0.93,0.76-1.87,1.118-2.83
			c9.4-24.81,8.882-48.01,8.882-48.01s-28.052,7.29-39.462,37.39c-5.72,15.11-4.858,27.61-2.34,36.62
			c-8.948,5.762-17.8,11.57-27.05,16.512l0.64-1.28c15.171-24.19,19.521-48.76,19.521-48.76s-31.14,1.77-49.54,31.119
			c-9.48,15.131-11.07,28.729-10.16,38.859c-12.93,6.04-27.04,12.16-40.76,16.16c3.52-3,7.08-6,10.57-9.48
			c20.188-20.198,29.938-43.02,29.938-43.02s-30.75-5.25-55.25,19.25c-16.51,16.51-19.29,33.66-19.108,44.05
			c-5.552,1.51-11.102,2.91-16.642,4.2c-35.83,9.17-69.83,47.34-75,56.01c0.67,3.83,8.17,7.181,15,7.01
			c0.33-10.329,23.33-41.488,75-55.988c3.76-0.87,7.521-1.762,11.279-2.75c6.881,7.52,19.461,16.87,40.541,19.35
			c34.41,4.05,55.1-17.46,55.1-17.46s-21.97-11.41-50.34-14.75c-1.2-0.14-2.4-0.14-3.58-0.25c-0.07-0.01-0.149-0.01-0.221-0.021
			c0.069-0.029,0.149-0.051,0.221-0.079c10.189-3.771,20.279-7.921,30.21-12.4l0.011-0.01c6.539,6.13,22.5,17.34,49.529,14.398
			c34.45-3.75,49.8-29.329,49.8-29.329s-23.96-6.2-52.35-3.109c-5.62,0.609-10.979,1.54-15.979,2.63
			c12.949-7.05,25.511-14.68,37.511-22.83c6.81,4.35,23.58,12.13,48.188,4.359c30.689-9.699,40.011-35.811,40.011-35.811
			s-22.959-1.27-48.261,6.721c-4.62,1.46-9.01,3.131-13.08,4.891c12.591-10.16,24.32-20.9,34.95-32.12
			c7.852,2.271,24.47,4.479,44.2-7.97c25.85-16.33,28.109-42.562,28.109-42.562s-21.399,4.37-42.709,17.82
			c-1.83,1.149-3.602,2.34-5.302,3.53c9.181-12.69,16.931-25.83,23-39.301c8.472-0.931,20.131-4.591,31.83-15.881
			c20.99-20.278,18.01-45.229,18.01-45.229s-19.34,8.24-36.649,24.95c-0.619,0.6-1.029,1.198-2.029,1.81
			c1.95-8.04,3.145-16.179,3.594-24.349c6.141-7.65,15.548-22.071,17.308-37.691c2.699-23.899-12.93-43.17-12.93-43.17
			s-10.352,8.9-13.83,39.83C791.844,476.51,792.904,488.6,794.174,496.52z"/>
	</g>
	<g id="Crown">
		<path fill="#FFFFFF" d="M488,117c8,2.25,33.007,32.882,36.125,36c-7.625,0-12.02,3.538-12.02,3.538s-8.293,33.962,15.74,33.962
			c15.57,0,32.372-14,25.997-35.625L589,146l-45.5,101H488h-55l-45.5-101l35.125,8.875C416.25,176.5,433.021,190.5,448.591,190.5
			c24.034,0,15.679-33.962,15.679-33.962S459.75,153,452.125,153C455.243,149.882,480,119.25,488,117z"/>
	</g>
	<g id="Empire_bird">
		<path fill="#FFFFFF" d="M492.602,687.871l65.017-139.867c0,0,312.112-305.641,313.81-307.337
			c-1.623,0.429-132.021,29.672-132.021,29.672L489.083,449.153c0,0-383.624-184.698-384.843-185.355
			c1.02,1.02,330.104,283.983,330.104,283.983L492.602,687.871z"/>
		<g id="Layer_6">
			<path fill="#FFFFFF" d="M448.57,413.497l28.137,13.438c0,0,67.367-44.515,70.41-46.612c4.061-2.799,3.535-5.835,3.535-11.015
				c0-1.574,1.224-73.306-27.683-73.306h-28.854c-17.165,0-44.408,9.369-44.408,32.292c1.119,2.099,4.934-2.857,12.859-2.857
				c5.775,0,16.304,1.49,18.688,3.874c2.383,2.384-0.581,10.893-2.204,14.919C476.989,349.343,452.035,410.032,448.57,413.497z"/>
		</g>
	</g>
</g>
</svg>
